<?xml version="1.0" encoding="UTF-8"?>
<svg id="_레이어_2" data-name="레이어 2" xmlns="http://www.w3.org/2000/svg" viewBox="0 0 163.17 100">
  <defs>
    <style>
      .cls-1 {
        fill: #fff;
        stroke-width: 0px;
      }
    </style>
  </defs>
  <g id="_레이어_1-2" data-name="레이어 1">
    <path class="cls-1" d="M20.31,100v-36.01c4.43.2,8.73.39,13.04.59,1.76.08,3.52.18,5.28.29,1.54.1,1.94-.64,2.05-2.12.46-6.43.77-12.9,1.74-19.26.51-3.33,2.28-6.46,3.47-9.69.2-.53.32-1.09.57-1.97-1.22,0-2.21,0-3.2,0-12.86.1-25.73.22-38.59.31-4.65.03-4.65,0-4.65-4.73C.02,19.4,0,11.38,0,3.37c0-.87,0-1.74,0-2.65,54.45-.24,108.72-.48,163.09-.72,0,1.95,0,4.21,0,6.47,0,7.72-.07,15.44.07,23.16.03,1.81-.58,2.78-1.98,3.71-6.07,4-12.37,7.72-18.05,12.23-8.8,6.98-17.18,14.49-25.7,21.82-9.24,7.96-18.45,15.95-27.61,24-2.48,2.18-4.65,4.7-7.11,6.91-.77.69-1.99,1.24-3.02,1.25-19.12.21-38.23.32-57.35.46-.64,0-1.29,0-2.03,0ZM86.11,29.78c.13.42.15.65.26.83.76,1.25,1.54,2.49,2.29,3.75,1.87,3.14,1.79,3.44-1.28,5.26-7.18,4.25-13.82,9.17-19.02,15.79-2.16,2.75-4.19,5.58-5.23,9.23,1.73.39,3.21.97,4.7,1,5.5.12,11.01.23,16.5.04,6-.21,10.49-4.57,11.02-10.53.39-4.45.59-8.93.72-13.4.17-5.51-4.26-10.84-9.96-11.96Z"/>
  </g>
</svg>