<?xml version="1.0" encoding="UTF-8"?>
<svg id="_레이어_2" data-name="레이어 2" xmlns="http://www.w3.org/2000/svg" viewBox="0 0 87.3 100">
  <defs>
    <style>
      .cls-1 {
        fill: #fff;
        stroke-width: 0px;
      }
    </style>
  </defs>
  <g id="_레이어_1-2" data-name="레이어 1">
    <path class="cls-1" d="M80.7,80.08c-8.55-25.85-17.05-51.71-25.68-77.52-.35-1.04-1.82-2.4-2.81-2.43-7.73-.2-15.47-.11-22.94-.11C19.86,32.22,10.52,64.1,1.19,95.99c-.52-.07-.67-.05-1.19-.11l1.07,4.08c4.82,0,9.21,0,14.02.04,2.51.03,3.56-.85,4.06-3.39,1.01-5.08,2.46-10.06,3.61-14.59h41.44c1.4,4.69,2.69,9.62,4.39,14.4.46,1.29,2.08,2.98,3.26,3.06,4.94.34,9.92.14,15.46.14-2.32-6.86-4.5-13.19-6.6-19.54ZM64.37,63.31c-.65.29-1.37.43-2.22.68v5.09c-8.75,2.42-38.1-.49-46.62-4.56.17-1.12.4-2.23.52-3.35.48-4.43,2.38-6.56,7.35-6.09,3.45.33,8,.86,9.2-4.13,1.54-6.42,2.58-12.95,4.01-19.39,1.33-5.97,2.89-11.9,4.61-18.89,4.16,13.9,8.14,26.66,11.71,39.54.78,2.8,1.68,4.12,4.59,3.86,1.6-.14,3.26.18,4.81-.11,2.59-.48,4.69-.3,5.66,2.57,1.12,3.34-1.57,3.84-3.62,4.76Z"/>
  </g>
</svg>