<?xml version="1.0" encoding="UTF-8"?>
<svg id="_레이어_2" data-name="레이어 2" xmlns="http://www.w3.org/2000/svg" viewBox="0 0 42.9 100">
  <defs>
    <style>
      .cls-1 {
        fill: #fff;
        stroke-width: 0px;
      }
    </style>
  </defs>
  <g id="_레이어_1-2" data-name="레이어 1">
    <path class="cls-1" d="M1.72,2.1C14.59-1.2,26.66-.32,38.61,2.7c1.47.37,3.15,3.15,3.31,4.94.63,7,1.3,14.09.81,21.07-.74,10.49-2.71,20.9-3.65,31.38-.75,8.39-.82,16.85-1.07,25.28-.14,4.78-.03,9.56-.03,14.64h-16.67c-1.51-12.35-3.02-24.63-4.52-36.92l-1.64.13v35.99H0C5.75,66.84-3.61,34.58,1.72,2.1ZM16.32,40.17c9.05-.41,13.17-8.24,9.96-18.25-1.76.13-3.79-.15-5.42.53-1.71.72-4.16,2.23-4.33,3.63-.55,4.55-.21,9.2-.21,14.09Z"/>
  </g>
</svg>