<?xml version="1.0" encoding="UTF-8"?>
<svg id="_레이어_2" data-name="레이어 2" xmlns="http://www.w3.org/2000/svg" viewBox="0 0 137.93 100">
  <defs>
    <style>
      .cls-1 {
        fill: #fff;
        stroke-width: 0px;
      }
    </style>
  </defs>
  <g id="_레이어_1-2" data-name="레이어 1">
    <path class="cls-1" d="M115.03,63.18c-11.2-20.09-22.34-40.23-33.7-60.24-.81-1.43-3.24-2.67-4.97-2.74C68.26-.09,60.13.2,52.02,0c-2.7-.06-4.11.85-5.23,3.24-7.06,15.07-14.16,30.14-21.41,45.12C17.04,65.57,8.53,82.67,0,100h137.93c-7.47-12.03-19.47-30.68-22.9-36.82ZM44.91,72.92c6.48-13.14,12.97-26.32,19.62-39.83,6.81,13.31,13.37,26.13,20.39,39.83h-40.01Z"/>
  </g>
</svg>