<?xml version="1.0" encoding="UTF-8"?>
<svg id="_레이어_2" data-name="레이어 2" xmlns="http://www.w3.org/2000/svg" viewBox="0 0 27.84 92.83">
  <defs>
    <style>
      .cls-1 {
        fill: #fff;
        stroke-width: 0px;
      }
    </style>
  </defs>
  <g id="_레이어_1-2" data-name="레이어 1">
    <path class="cls-1" d="M.43,60.1C2.02,42.32,3.6,24.55,5.2,6.78c.24-2.68,1.01-4.99,3.92-6.04,5.5-1.98,9.06,0,9.98,6.19,1.76,11.84,3.44,23.7,4.79,35.59,1.45,12.75,2.5,25.54,3.66,38.31.23,2.55.42,5.15.16,7.68-.12,1.13-1.22,2.81-2.17,3.03-1.15.28-3.21-.33-3.79-1.24-1.16-1.8-1.82-4.04-2.25-6.18-.65-3.24-.95-6.55-1.36-9.84-.28-2.29-1.77-2.79-3.68-2.38-2.06.44-5.17-.75-5.36,2.98-.21,4.16-.3,8.33-.45,12.49-.07,2.14-.52,4.03-2.83,4.91C2.25,93.65-.03,92.46,0,88.66c.09-9.51.51-19.01.8-28.52-.12-.02-.24-.03-.37-.05ZM12.15,33.37c-.46.02-.92.04-1.38.06-.51,9.21-1.2,18.41-1.44,27.62-.08,2.84,2.72,1.5,4.3,1.69,1.82.23,2.47-.78,2.26-2.54-.94-7.84-1.83-15.69-2.79-23.52-.14-1.13-.62-2.21-.94-3.31Z"/>
  </g>
</svg>