<?xml version="1.0" encoding="UTF-8"?>
<svg id="_레이어_2" data-name="레이어 2" xmlns="http://www.w3.org/2000/svg" viewBox="0 0 46.51 93.05">
  <defs>
    <style>
      .cls-1 {
        fill: #fff;
        stroke-width: 0px;
      }
    </style>
  </defs>
  <g id="_레이어_1-2" data-name="레이어 1">
    <path class="cls-1" d="M37.2,79.21c.11-2.03.34-4.06.31-6.09-.34-19.35-.74-38.69-1.09-58.03-.06-3.1.1-6.2.13-9.3.05-4.18,1.04-5.45,4.42-5.57,3.51-.13,5.13,1.37,5.2,5.3.19,9.94.36,19.87.33,29.81-.04,13.25-.21,26.51-.48,39.76-.06,3.07-.59,6.17-1.21,9.19-.85,4.12-3.57,6.46-7.73,7.04-1.58.22-3.19.32-4.79.31-4.07-.04-5.38-.96-6.41-4.86-1.39-5.26-2.69-10.54-3.85-15.85-.39-1.8-1.08-2.49-2.95-2.5-8.18-.06-8.13-.1-8.96,8.12-.4,3.93-.94,7.85-1.58,11.75-.44,2.7-1.48,5.08-4.89,4.75C.31,92.7-.06,89.95,0,87.54c.14-5.66.67-11.3,1.04-16.95,1.26-19.41,2.5-38.82,3.81-58.22.13-1.91.42-3.85.96-5.67C7.29,1.69,9.41.16,14.62.08c2.35-.03,4.72-.21,7.03.08,3.4.43,4.87,2.26,4.74,5.7-.71,17.92,1.18,35.65,4.23,53.26,1.03,5.97,2.99,11.79,4.58,17.66.24.87.75,1.67,1.13,2.5.29-.03.58-.05.87-.08ZM15.91,11.25c-.37,0-.74,0-1.1,0-.27,1.09-.72,2.18-.79,3.29-.76,12.9-1.49,25.8-2.15,38.71-.12,2.32,5.44,5.52,7.45,4.34.45-.26.81-1.01.85-1.55.08-1.16-.04-2.34-.14-3.51-.99-11.48-1.97-22.96-3.02-34.43-.21-2.3-.72-4.56-1.09-6.84Z"/>
  </g>
</svg>