<?xml version="1.0" encoding="UTF-8"?>
<svg id="_레이어_2" data-name="레이어 2" xmlns="http://www.w3.org/2000/svg" viewBox="0 0 89.5 91.78">
  <defs>
    <style>
      .cls-1 {
        fill: #fff;
        stroke-width: 0px;
      }
    </style>
  </defs>
  <g id="_레이어_1-2" data-name="레이어 1">
    <path class="cls-1" d="M89.5,91.78h-18.64c-1.63-4.53-3.5-9.26-5.02-14.09-.85-2.7-2-4.27-5.13-4.27-10.49,0-20.99-.15-31.48-.39-3.54-.08-5.51,1.37-6.65,4.69-1.28,3.73-2.78,7.4-4.52,10.92-.51,1.02-2.14,2.03-3.31,2.09-4.64.24-9.3.1-14.75.1.57-1.97.84-3.49,1.42-4.88C11.39,62.04,21.42,38.16,31.37,14.26c1.45-3.49,2.69-7.07,3.88-10.66.84-2.55,2.2-3.97,5.1-3.5,1.3.21,2.66.04,3.99.04,7.72.04,7.44.14,10.3,7.48,7.84,20.11,15.83,40.16,23.98,60.15,3.23,7.91,7.03,15.59,10.86,24.01ZM43.81,20.21c-4.95,13.72-9.38,25.97-14.38,39.81,10.3-2.72,19.53,2.57,28.93-1.77-4.71-12.31-9.34-24.43-14.55-38.05Z"/>
  </g>
</svg>