<?xml version="1.0" encoding="UTF-8"?>
<svg id="_레이어_2" data-name="레이어 2" xmlns="http://www.w3.org/2000/svg" viewBox="0 0 97.78 93.32">
  <defs>
    <style>
      .cls-1 {
        fill: #fff;
        stroke-width: 0px;
      }
    </style>
  </defs>
  <g id="_레이어_1-2" data-name="레이어 1">
    <path class="cls-1" d="M97.78,92.75c-5.9,0-11.2.27-16.43-.18-1.41-.12-3.13-2.17-3.86-3.73-2.09-4.5-3.47-9.34-5.71-13.75-.86-1.68-3.29-3.61-5.02-3.63-11.65-.15-23.31.08-34.95.51-1.48.05-3.4,1.66-4.26,3.07-3.12,5.1-5.79,10.47-8.82,15.63-.68,1.15-2.11,2.65-3.2,2.65-4.9,0-9.81-.47-15.54-.83,2.15-4.46,3.99-8.26,5.83-12.06C18.16,54.9,30.54,29.39,42.78,3.82,44.13,1.01,45.78-.05,48.91,0c10.15.17,9.97.12,13.65,9.23,5.5,13.64,11.24,27.19,16.96,40.74,5.9,13.98,11.91,27.91,18.27,42.78ZM63.85,56.44c-4.36-12.21-8.35-23.43-12.35-34.65-.44.05-.88.1-1.32.15-4.68,11.41-9.37,22.82-14.16,34.49h27.84Z"/>
  </g>
</svg>