<?xml version="1.0" encoding="UTF-8"?>
<svg id="_레이어_2" data-name="레이어 2" xmlns="http://www.w3.org/2000/svg" viewBox="0 0 96.41 99.06">
  <defs>
    <style>
      .cls-1 {
        fill: #fff;
        stroke-width: 0px;
      }
    </style>
  </defs>
  <g id="_레이어_1-2" data-name="레이어 1">
    <path class="cls-1" d="M0,98.99c1.92-5.19,3.35-9.35,4.99-13.43,6.39-15.84,13.01-31.6,19.23-47.5,4.47-11.41,8.33-23.06,12.76-34.49.59-1.52,2.9-3.43,4.38-3.39,17.92.42,13.12-3.76,19.9,12.93,11.51,28.34,23.44,56.51,35.16,84.68-4.16,0-9.19.23-14.18-.15-1.34-.1-3.03-1.79-3.72-3.17-2.67-5.35-4.77-10.98-7.57-16.25-.86-1.63-3.22-3.44-4.94-3.5-11.31-.36-22.63-.23-33.95-.35-4.09-.04-6.21,1.76-7.4,5.75-1.65,5.54-3.85,10.93-6.17,16.23-.53,1.2-2.44,2.43-3.8,2.52-4.44.32-8.92.12-14.68.12ZM47.54,19.57c-1.18,1.67-2.09,2.52-2.46,3.56-4.01,11.23-8,22.48-11.73,33.8-.25.75,1.61,3.16,2.53,3.18,7.66.22,15.32.14,22.99,0,3.42-.07,4.82-1.32,3.07-5.08-2.72-5.85-4.9-11.95-7.32-17.94-2.27-5.64-4.55-11.28-7.07-17.53Z"/>
  </g>
</svg>