<?xml version="1.0" encoding="UTF-8"?>
<svg id="_레이어_2" data-name="레이어 2" xmlns="http://www.w3.org/2000/svg" viewBox="0 0 51.98 100">
  <defs>
    <style>
      .cls-1 {
        fill: #fff;
        stroke-width: 0px;
      }
    </style>
  </defs>
  <g id="_레이어_1-2" data-name="레이어 1">
    <path class="cls-1" d="M15.18,0h15c7.18,32.93,14.42,66.12,21.8,99.94-4.42,0-8.21.2-11.94-.14-.95-.09-2.27-1.75-2.55-2.9-3.36-14.25-6.56-28.53-9.79-42.81-.41-1.83-.76-3.67-2.03-5.63-3.53,16.23-7.07,32.47-10.77,49.45-4.7-.4-9.47-.81-14.91-1.27,1.85-8.5,3.5-16.41,5.29-24.29,3.69-16.26,7.72-32.46,11.02-48.79.91-4.51-.18-9.44-.43-14.18-.15-2.97-.44-5.93-.71-9.38Z"/>
  </g>
</svg>