<?xml version="1.0" encoding="UTF-8"?>
<svg id="_레이어_2" data-name="레이어 2" xmlns="http://www.w3.org/2000/svg" viewBox="0 0 65.57 100">
  <defs>
    <style>
      .cls-1 {
        fill: #fff;
        stroke-width: 0px;
      }
    </style>
  </defs>
  <g id="_레이어_1-2" data-name="레이어 1">
    <path class="cls-1" d="M0,99.77c1.21-9.73,2.28-18.77,3.48-27.8,2.01-15.09,4.14-30.16,6.14-45.25,1.02-7.69,1.73-15.42,2.97-23.07.22-1.35,2.29-3.34,3.62-3.42C21.99-.15,27.8.06,33.66.06c10.62,33.25,21.09,66.03,31.92,99.91-6.01,0-11.21.13-16.38-.15-.71-.04-1.57-2.03-1.93-3.25-4.58-15.23-9.07-30.49-13.61-45.73-.99-3.33-1.97-6.69-3.3-9.9-.52-1.26-1.98-2.13-3.02-3.18-.92,1.22-2.4,2.34-2.64,3.69-.93,5.23-1.43,10.54-2.15,15.81-1.82,13.25-3.61,26.51-5.63,39.73-.16,1.06-1.95,2.56-3.08,2.65-4.24.31-8.51.13-13.82.13Z"/>
  </g>
</svg>