<?xml version="1.0" encoding="UTF-8"?>
<svg id="_레이어_2" data-name="레이어 2" xmlns="http://www.w3.org/2000/svg" viewBox="0 0 84.59 100">
  <defs>
    <style>
      .cls-1 {
        fill: #fff;
        stroke-width: 0px;
      }
    </style>
  </defs>
  <g id="_레이어_1-2" data-name="레이어 1">
    <g>
      <path class="cls-1" d="M14.39,32.38c-1.08-2.1-2.84-4.12-3.1-6.31-.65-5.53,1.18-10.21,5.22-14.46C26.6.98,38.95-1.38,52.71.67c7.82,1.17,13.99,5.22,18.21,11.82,8.1,12.66,11.14,26.91,11.76,41.64.52,12.27.13,24.57.34,36.86.04,2.37.96,4.73,1.57,7.55-10.24,2.92-20.68.65-32.1-.02.62-2.41,1.08-4.51,1.7-6.57,2.25-7.46,4.65-14.88,6.8-22.37,1.1-3.81-1.88-4.99-4.15-3.61-3.42,2.08-6.63,5.05-8.86,8.36-1.92,2.87-2.35,6.75-3.43,10.18-.54-.1-1.08-.21-1.63-.31.39-2.42.35-5.02,1.26-7.22,2.79-6.73,6.51-12.62,14.6-14.1,1.29-.23,3.19-2.09,3.25-3.27.55-11.15,2.56-22.37-.73-33.44-3.07-10.3-7.64-19.32-19.27-22.13-5.28-1.27-10.23-.89-14.38,3.23-2.52,2.51-5.26,4.8-7.84,7.25-5.07,4.81-7.22,10.39-3.34,17.47-.7.13-1.4.26-2.1.38Z"/>
      <path class="cls-1" d="M35.71,31.07c-14.41,22.56-23.93,43.97,3.42,62.48-.28.52-.33.74-.45.82-8.19,4.54-16.81,3.02-24.63.02C5.04,90.94,0,83.96,0,73.37c0-11.07,3.54-20.37,9.88-29.17,6.21-8.61,15.34-10.58,25.83-13.13Z"/>
    </g>
  </g>
</svg>