<?xml version="1.0" encoding="UTF-8"?>
<svg id="_레이어_2" data-name="레이어 2" xmlns="http://www.w3.org/2000/svg" viewBox="0 0 78.26 93.74">
  <defs>
    <style>
      .cls-1 {
        fill: #fff;
        stroke-width: 0px;
      }
    </style>
  </defs>
  <g id="_레이어_1-2" data-name="레이어 1">
    <path class="cls-1" d="M0,91.13C14.91,60.76,29.68,30.66,44.73,0c.74,1.21,1.28,1.82,1.52,2.53,7.93,23.68,17.91,46.44,30.45,68.07,2.84,4.9,1.92,6.47-3.84,6.62-1.99.05-3.99-.23-5.99-.17-5.32.18-8.14-2.62-9.88-7.4-3.24-8.87-6.74-17.65-10.23-26.43-.78-1.95-1.97-3.74-3.49-6.58-1.7,2.59-3.23,4.29-4.05,6.28-3.77,9.23-8.87,17.59-14.71,25.7-4.52,6.28-7.45,13.69-11.49,20.34-3.48,5.72-6.44,6.1-13.02,2.16Z"/>
  </g>
</svg>