<?xml version="1.0" encoding="UTF-8"?>
<svg id="_레이어_2" data-name="레이어 2" xmlns="http://www.w3.org/2000/svg" viewBox="0 0 125.77 100">
  <defs>
    <style>
      .cls-1 {
        fill: #fff;
        stroke-width: 0px;
      }
    </style>
  </defs>
  <g id="_레이어_1-2" data-name="레이어 1">
    <path class="cls-1" d="M125.01,93.36c-.34-.07-.69-.15-1.04-.14-4.93.12-8.74-2.04-11.28-6.11-2.09-3.36-3.87-6.93-5.52-10.53-2.56-5.56-4.92-11.22-7.35-16.84-1.54-3.58-3-7.2-4.57-10.76-1.77-4.01-3.72-7.93-5.43-11.96-2.2-5.19-4.28-10.43-6.42-15.65-.35-.38-.7-.76-1.04-1.16-5.09-5.97-8.26-13.2-11.67-20.21h-22.82c-.24.82-.46,1.62-.71,2.42-2.95,9.44-5.86,18.89-8.86,28.31-2.34,7.34-4.8,14.64-7.24,21.95-1.06,3.18-2.19,6.34-3.33,9.5-2.4,6.63-4.61,13.35-7.35,19.84-1.31,3.1-3.3,6.11-5.64,8.52-3.16,3.25-7.45,4.61-12.04,4.78-.88.03-1.76.15-2.69.23v4.46h61.17v-3.48c-1.36-.09-2.65-.14-3.93-.28-2.08-.24-4.19-.36-6.2-.87-2.84-.72-3.49-1.91-2.94-4.82.33-1.71.82-3.4,1.33-5.07,1.84-6.09,3.66-12.19,5.6-18.24,1.23-3.85,2.68-7.63,3.99-11.34,5.88-.26,11.31-.49,16.65-.73,1.09,2.62,2.18,4.94,3.03,7.36,2.8,7.92,5.39,15.92,8.3,23.8,1.73,4.68.05,8.52-4.59,9.38-.75.14-1.54.02-2.3.11-.79.09-1.57.29-2.42.46.09,1.35.16,2.44.23,3.51,15.78-.03,31.34,0,46.92-.43.37-2.15.67-3.94.95-5.61-.52-.27-.64-.36-.77-.38ZM61.12,47.54c.37-1.42.65-2.5.94-3.61,3.85-.28,7.23.09,9.56,3.61h-10.49Z"/>
  </g>
</svg>