<?xml version="1.0" encoding="UTF-8"?>
<svg id="_레이어_2" data-name="레이어 2" xmlns="http://www.w3.org/2000/svg" viewBox="0 0 171.45 100">
  <defs>
    <style>
      .cls-1 {
        fill: #fff;
        stroke-width: 0px;
      }
    </style>
  </defs>
  <g id="_레이어_1-2" data-name="레이어 1">
    <path class="cls-1" d="M105.71,0c6.59,14.59,13.23,29.16,19.76,43.77,4.89,10.95,9.43,22.07,14.58,32.89,2.16,4.54,4.89,9.17,8.48,12.57,4.74,4.5,10.96,5.38,17.26,2.71,2.1-.89,4.06-.21,4.64,1.97.49,1.86.65,3.81,1.01,6.09h-94.7v-5.45c5.67-.81,11.21-1.51,16.72-2.43,3.3-.55,6.25-1.96,7.76-5.22.41-.88.66-2.2.3-3.02-3.38-7.93-6.86-15.81-10.39-23.67-2.61-5.82-5.33-11.6-8.12-17.65H22.48c-5.39,10.26-4.22,22.94-11.99,31.87-2.63-2.07-5.15-4.05-7.66-6.03-2.96-2.34-3.29-3.92-2.37-7.72,3.13-12.91,9.99-24.07,16.39-35.46,4.48-7.97,9.01-15.9,13.49-23.86.22-.39.22-.91.32-1.37,2.36,0,4.73,0,7.09,0-4.11,10.85-8.21,21.7-12.39,32.74,1.14.22,1.62.39,2.09.38,14.64-.19,29.29-.37,43.93-.63,1.48-.03,2.94-.59,4.87-1-3.59-7.2-7.03-13.79-10.17-20.53C64.44,7.44,63.33,3.66,61.98,0c14.58,0,29.15,0,43.73,0Z"/>
  </g>
</svg>