<?xml version="1.0" encoding="UTF-8"?>
<svg id="_레이어_2" data-name="레이어 2" xmlns="http://www.w3.org/2000/svg" viewBox="0 0 171.82 100">
  <defs>
    <style>
      .cls-1 {
        fill: #fff;
        stroke-width: 0px;
      }
    </style>
  </defs>
  <g id="_레이어_1-2" data-name="레이어 1">
    <path class="cls-1" d="M90.52,0c4.68,7.79,9.42,15.55,14.03,23.38,3.5,5.94,6.73,12.04,10.3,17.93,4.09,6.74,8.73,13.17,12.59,20.04,4.95,8.81,12.02,15.71,19.16,22.56,6.62,6.34,14.49,9.98,23.83,9.96.38,0,.77.17,1.38.32v5.2c-4.87.2-9.74.85-14.54.52-23.92-1.62-47.85-2.29-71.82-1.91-4.05.06-8.09,0-12.45,0-.09-1.38-.19-2.84-.31-4.63,2.03-.2,3.81-.36,5.59-.57,2.01-.23,4.08-.3,6.02-.81,3.96-1.05,5.69-4.38,3.8-7.93-4.1-7.7-8.52-15.22-12.78-22.83-2.32-4.14-4.55-8.33-6.86-12.47-2.04-3.66-4.13-7.28-6.67-10.88-.66,17.85-2.1,35.64-.45,53.4,1.82,2.85,7.47,1.82,7.07,7.43-22.49-.39-44.89-.78-67.04-1.17-.58-1.93-.91-3.05-1.39-4.64,3.44-.46,6.8-.78,10.12-1.38,3.19-.58,6.37-1.31,9.48-2.25,5.3-1.6,7.16-3.89,7.34-9.44.2-5.99.15-11.99.05-17.98C26.66,41.24,26.25,20.62,25.87,0,47.42,0,68.97,0,90.52,0Z"/>
  </g>
</svg>