<?xml version="1.0" encoding="UTF-8"?>
<svg id="_레이어_2" data-name="레이어 2" xmlns="http://www.w3.org/2000/svg" viewBox="0 0 88.68 100">
  <defs>
    <style>
      .cls-1 {
        fill: #fff;
        stroke-width: 0px;
      }
    </style>
  </defs>
  <g id="_레이어_1-2" data-name="레이어 1">
    <path class="cls-1" d="M88.68,100c-8.97-1.34-16.77-2.53-24.58-3.64-1.86-.27-3.87-.72-5.63-.31-19.02,4.4-38.33,2.33-57.53,2.76-.23,0-.47-.24-.8-.41,0-1.84-.35-3.81.06-5.61,2.58-11.37,5.15-22.75,8.13-34.02,1.07-4.06,2.94-8.01,5.01-11.69,8.73-15.53,19.5-29.59,31.41-42.8.82-.91,1.8-1.7,2.75-2.49,3.27-2.72,5.72-2.39,7.5,1.45,4.52,9.71,9.02,19.43,13.17,29.3,4.63,11,8.15,22.53,13.48,33.17,5.27,10.53,5.51,21.58,7.03,34.3ZM32.66,73.35c.4.5.81,1.01,1.21,1.51,5.22-1.03,10.45-2.05,16.35-3.21-2.68-6.34-5.01-11.85-7.34-17.36-.61-.03-1.22-.06-1.82-.09-2.8,6.38-5.6,12.77-8.41,19.15Z"/>
  </g>
</svg>