<?xml version="1.0" encoding="UTF-8"?>
<svg id="_레이어_2" data-name="레이어 2" xmlns="http://www.w3.org/2000/svg" viewBox="0 0 120.26 100">
  <defs>
    <style>
      .cls-1 {
        fill: #fff;
        stroke-width: 0px;
      }
    </style>
  </defs>
  <g id="_레이어_1-2" data-name="레이어 1">
    <path class="cls-1" d="M120.26,82c-5.62,5.69-11.21,11.41-16.89,17.04-1.77,1.75-3,.92-4.26-1-3.13-4.75-6.5-9.35-9.83-14.09-4.04,1.73-7.8,3.91-11.85,4.98-18.38,4.87-36.13,3.8-52.1-7.56-8.96-6.37-18.24-12.66-22.41-23.65C-2.3,43.95-.65,31.18,8.85,19.77,21.71,4.33,38.62-.89,58.19.12c9.32.48,18.69-.09,28.04-.02,1.07,0,2.81.81,3.1,1.64,4.41,12.44,8.53,24.98,12.94,37.42,4.33,12.22,8.85,24.37,13.44,36.49.75,1.98,2.26,3.67,3.43,5.49.38.28.75.56,1.13.84ZM57.43,62.08c.08.4.17.81.25,1.21,5.68-1.62,11.46-2.97,16.98-5.03,1.75-.65,4.08-3.34,3.93-4.88-.61-6.23-1.57-12.54-3.4-18.51-1.35-4.39-5.32-7.07-10.04-7.63-16.65-2-28.9,8.81-26.8,26.9.4,3.4,4.84,7.67,8.21,7.89,3.61.25,7.25.06,10.87.06Z"/>
  </g>
</svg>