<?xml version="1.0" encoding="UTF-8"?>
<svg id="_레이어_2" data-name="레이어 2" xmlns="http://www.w3.org/2000/svg" viewBox="0 0 92.54 100">
  <defs>
    <style>
      .cls-1 {
        fill: #fff;
        stroke-width: 0px;
      }
    </style>
  </defs>
  <g id="_레이어_1-2" data-name="레이어 1">
    <path class="cls-1" d="M92.54,99.91c-5.45,0-9.99.28-14.46-.15-1.62-.15-3.47-1.7-4.53-3.12-1.33-1.77-1.97-4.05-2.88-6.13q-5.77-13.04-20.34-12.8c-6.4.09-12.82-.28-19.18.23-2.02.16-4.15,2.24-5.71,3.93-1.18,1.28-1.49,3.35-2.24,5.04-5.88,13.16-7.56,13.98-23.2,10.8,1.4-3.9,2.62-7.78,4.17-11.52C15.47,59,26.96,31.87,38.07,4.58,39.83.27,42.55,0,46.25,0c3.23,0,5.7,0,7.27,3.85,12.45,30.51,25.16,60.91,37.76,91.36.45,1.1.63,2.31,1.25,4.7ZM57.58,60.18c-3.9-10.05-7.51-19.35-11.61-29.9-4,10.86-7.42,20.17-11,29.9h22.61Z"/>
  </g>
</svg>