<?xml version="1.0" encoding="UTF-8"?>
<svg id="_레이어_2" data-name="레이어 2" xmlns="http://www.w3.org/2000/svg" viewBox="0 0 93.03 100">
  <defs>
    <style>
      .cls-1 {
        fill: #fff;
        stroke-width: 0px;
      }
    </style>
  </defs>
  <g id="_레이어_1-2" data-name="레이어 1">
    <path class="cls-1" d="M0,99.81c1.79-4.82,2.96-8.32,4.38-11.71C16.07,60.18,27.88,32.32,39.42,4.34,40.84.9,42.77,0,46.11,0c3.1,0,5.71-.22,7.26,3.48,12.73,30.29,25.63,60.5,38.44,90.76.53,1.26.65,2.69,1.22,5.15-5.48,0-10.72.3-15.89-.21-1.3-.13-2.66-2.68-3.45-4.37-2.97-6.3-5.47-12.83-8.69-19-.96-1.83-3.6-3.78-5.58-3.91-8.56-.54-17.17-.68-25.74-.37-1.95.07-4.64,2.08-5.59,3.92-3.19,6.18-6.01,12.58-8.45,19.1-1.59,4.23-3.92,5.93-8.42,5.35-3.12-.4-6.33-.08-11.22-.08ZM56.98,55.25c-3.47-9.39-6.61-17.9-10.36-28.07-4.04,10.45-7.34,18.99-10.85,28.07h21.22Z"/>
  </g>
</svg>