<?xml version="1.0" encoding="UTF-8"?>
<svg id="_레이어_2" data-name="레이어 2" xmlns="http://www.w3.org/2000/svg" viewBox="0 0 127.97 100">
  <defs>
    <style>
      .cls-1 {
        fill: #fff;
        stroke-width: 0px;
      }
    </style>
  </defs>
  <g id="_레이어_1-2" data-name="레이어 1">
    <path class="cls-1" d="M33.48,0c1.81,5.22,3.28,9.97,5.14,14.57,1.07,2.62,3.03,4.88,4.14,7.49.82,1.94.98,4.17,1.34,6.29.49,2.94,1.84,4.13,5.11,4.1,16.95-.16,33.91.03,50.87-.04,2.84-.01,4.27.83,5.29,3.63,6.87,18.96,13.94,37.83,20.92,56.75.64,1.75,1.06,3.58,1.69,5.72-3.48,0-6.62.02-9.76,0-4.77-.04-9.53-.19-14.3-.13-1.9.02-2.91-.49-3.64-2.4-4.5-11.8-9.15-23.55-13.76-35.3q-3.02-7.69-11.19-7.67c-8.31.04-16.62.12-24.93.16-.76,0-1.53-.13-2.28-.28-3.12-.65-5.58.58-6.68,3.6-4.9,13.54-9.81,27.08-14.57,40.67-.76,2.17-1.81,2.89-4.03,2.86-7.62-.11-15.24-.04-22.84-.04C-.19,95.6,29.8,5.77,33.48,0Z"/>
  </g>
</svg>