<?xml version="1.0" encoding="UTF-8"?>
<svg id="_레이어_2" data-name="레이어 2" xmlns="http://www.w3.org/2000/svg" viewBox="0 0 92.47 100">
  <defs>
    <style>
      .cls-1 {
        fill: #fff;
        stroke-width: 0px;
      }
    </style>
  </defs>
  <g id="_레이어_1-2" data-name="레이어 1">
    <g>
      <path class="cls-1" d="M34.41,51.32c-.63-.3-1.27-.6-1.93-.91-6.01,8.22-8.52,14.23-8.94,21.6q-5.42,3.82-10.57,16.61c-.44.14-.96.51-1.32.4-3.41-1.07-6.68-1.64-9.56,1.33-.33.34-1.31.05-2.09.05,5.5-10.67,10.38-21.47,16.46-31.53,5.14-8.5,7.13-18.22,11.91-26.77-.28-5.01,5.04-8.11,4.53-13.21,3.43-4.65,4.38-10.27,5.98-15.61.67-2.24,1.8-3.53,4.13-3.23,2.85.37,5.67-.67,8.63,1.06,2.08,1.22,5.21.99,8.11-.77,11.47,29.74,22.11,60.16,32.71,91.38-2.8.14-4.93.29-7.06.34-2.23.05-4.47.01-6.84.01-3.76-5.41-5.1-11.63-6.94-18.22-4.44,1.46-8.96,2.96-13.64.42-1.67-.91-4.83,1.42-5.44,3.73-.9,3.39-3.68,6.05-3.15,10.07.49,3.66.1,7.44.1,11.95-4.66-.76-8.85-1.44-13.59-2.21-.06-4.68,1.99-7.99,6.09-10.27,4.46-2.48,6.42-6.31,5.87-12.01-3.22.66-6.54-1.55-9.76,1.29-.61.53-2.64-.45-3.97-.87-2.67-.84-5.31-1.76-8.48-2.83v-3.14c3.68-1.38,7.76-2.63,12.19-2.06,4.31.56,8.55-.1,13.04,1.18,5.07,1.44,10.86.33,17.13.33-2.48-9.53-6.16-18.09-8.52-27.03-2.4-9.09-6.51-17.42-11.03-26.38-1.27,1.21-3.08,2.11-3.39,3.38-1.95,8.01-5.68,15.28-9.29,22.55-1.23,2.48.4,4.25.12,6.35h-1.85c-.11,0,.11,0,.34,0-.14-.39-.22-.83-.46-1.14-.07-.09-.6.16-.91.25.23.3.46.6,1.03.89.34,1.01.34,2.01.34,3.02Z"/>
      <path class="cls-1" d="M35.92,48.3c.5.63,1.01,1.25,1.51,1.88-.5.38-1.01.76-1.51,1.14v-3.02Z"/>
      <path class="cls-1" d="M35.92,51.32c-.34.42-.67.83-1.01,1.25-.17-.42-.33-.83-.5-1.25h1.51Z"/>
    </g>
  </g>
</svg>