<?xml version="1.0" encoding="UTF-8"?>
<svg id="_레이어_2" data-name="레이어 2" xmlns="http://www.w3.org/2000/svg" viewBox="0 0 78.28 100">
  <defs>
    <style>
      .cls-1 {
        fill: #fff;
        stroke-width: 0px;
      }
    </style>
  </defs>
  <g id="_레이어_1-2" data-name="레이어 1">
    <path class="cls-1" d="M62.65,99.05v-11.84c-3.23-.33-6.04-.62-9.44-.97-.43-11.44-1.77-22.59-18.94-22.71-3.76,10.38-8.03,22.19-12.76,35.26-5.48.31-12.75.72-21.52,1.21,1.72-2.21,2.46-3.15,3.19-4.09,6.55-8.47,13.73-16.54,19.39-25.56,2.88-4.6,3.62-10.84,4.3-16.47,1.59-13.2,3.79-26.07,10.22-38.01,2.38-4.42,3.3-9.64,5.33-15.87,1.38,2.12,2.84,3.61,3.45,5.4,8.46,24.63,16.7,49.34,25.26,73.94,1.9,5.45,4.96,10.48,7.09,15.86.34.86-1.31,3.59-2.2,3.67-4.28.39-8.62.18-13.39.18ZM48,22.68c-.45-.05-.89-.09-1.34-.14-2.96,10.29-5.92,20.58-9.18,31.94,4.91.71,9.02,1.31,14.84,2.15-1.57-12.33-2.94-23.14-4.32-33.95Z"/>
  </g>
</svg>