<?xml version="1.0" encoding="UTF-8"?>
<svg id="_레이어_2" data-name="레이어 2" xmlns="http://www.w3.org/2000/svg" viewBox="0 0 64.84 100">
  <defs>
    <style>
      .cls-1 {
        fill: #fff;
        stroke-width: 0px;
      }
    </style>
  </defs>
  <g id="_레이어_1-2" data-name="레이어 1">
    <g>
      <path class="cls-1" d="M58.1,49.35c-10.19,0-19.85-.05-29.52.03-4.23.03-8.38.06-11.31-3.22-2.73.63-3.26,2.16-3.73,4.38-1.99,9.44-1.57,18.97-1.32,28.47.1,3.77-1.87,6.64-2.92,9.98v-43.71c-.1.11.04-.11.24-.25.19-.13.43-.26.65-.26,15.79-.01,31.57-.01,47.88-.01V0c1.96.46,3.4.59,4.64,1.15,1.64.74,1.53,2.37,1.53,3.93-.03,13.01.02,26.02-.05,39.04-.01,2.64,1.27,5.03.23,7.99-.95,2.73-.2,6.05-.2,9.11v36.54c-6.34,2.89-12.85,2.15-19.27,2.17-12.24.03-24.48,0-37.23,0-.09-1.39-.17-2.77-.3-4.8,1.28.83,1.98,1.67,2.68,1.68,15.28.08,30.57.06,45.73.06,2.15-2.88,2.32-5.98,2.3-9.23-.1-12.5-.04-25-.04-38.29Z"/>
      <path class="cls-1" d="M54.85.29v10.55c-3.11-1.04-4.06-4.85-8.07-4.65-2.68.14-5.53-1.37-8.54-1.35-12.5.12-25.01.05-37.51.03-.19,0-.38-.29-.73-.56V1.69C9.33,2.98,18.23-.4,27.55.17c8.89.55,17.84.12,27.3.12Z"/>
      <path class="cls-1" d="M19.54,53.68h-4.07c-.03-.26-.05-.52-.08-.78,1.34-.19,2.68-.39,4.02-.58.04.45.09.9.13,1.36Z"/>
      <path class="cls-1" d="M18.18,63.46c-.35.56-.57,1.18-.76,1.17-.68-.04-1.34-.3-2.01-.47.19-.34.37-.95.58-.96.67-.04,1.35.14,2.19.26Z"/>
    </g>
  </g>
</svg>