<?xml version="1.0" encoding="UTF-8"?>
<svg id="_레이어_2" data-name="레이어 2" xmlns="http://www.w3.org/2000/svg" viewBox="0 0 96.41 100">
  <defs>
    <style>
      .cls-1 {
        fill: #fff;
        stroke-width: 0px;
      }
    </style>
  </defs>
  <g id="_레이어_1-2" data-name="레이어 1">
    <g>
      <path class="cls-1" d="M44.54,21.26c-3.7-.12-3.95,3.43-4.84,5.42-3.86,8.68-8.99,16.92-10.7,26.65,4.27.58,8.06,1.83,11.62,1.37,3.94-.51,7.28,2.23,11.62.39,0,2.02-.07,3.32.02,4.6.16,2.31-1.32,3.81-3.14,3.93-6.76.44-12.76,3.96-19.88,3.66-6.37-.27-11.87,3.18-13.11,10.85H.56c-1.28-2.55-.11-4.92.92-7.73,4.55-12.35,11.14-23.71,16.94-35.43,3.57-7.21,7.99-14.06,11.33-21.45,1.97-4.36,3.88-8.75,5.99-13.5,5.44,0,10.53-.1,15.62.08,1.15.04,2.54.79,3.33,1.66,1.55,1.71,2.99,3.6,4.05,5.64,6.61,12.76,13.69,25.33,19.46,38.47,5.17,11.78,11.59,22.92,16.54,34.78.29.7,1.01,1.22,1.67,1.99-.75.68-1.6,2.08-2.33,2.01-6.69-.57-13.05,2.06-19.67,1.9-.21,0-.41-.31-.73-.57.69-2.06,3.45-2.8,3.2-5.77-.31-3.84-2.87-6.48-4.19-9.74-.75-1.86-2.89-3.18-4.48-4.67-4.82-4.51-5.26-4.56-6.72-10.13-1.25-4.77-3.43-9-6.02-13.02-4.14-6.42-7.64-13.1-9.79-20.45-.11-.39-.75-.64-1.14-.95Z"/>
      <path class="cls-1" d="M74.53,100c-3.97-1.27-5.01-3.35-3.97-6.64,4.43,1.17,4.4,1.19,3.97,6.64Z"/>
    </g>
  </g>
</svg>