<?xml version="1.0" encoding="UTF-8"?>
<svg id="_레이어_2" data-name="레이어 2" xmlns="http://www.w3.org/2000/svg" viewBox="0 0 98.12 100">
  <defs>
    <style>
      .cls-1 {
        fill: #fff;
        stroke-width: 0px;
      }
    </style>
  </defs>
  <g id="_레이어_1-2" data-name="레이어 1">
    <g>
      <path class="cls-1" d="M97.99,82.19c-2.87-21.28-5.83-42.53-8.71-63.79-.18-1.36-.86-12.48-1.18-18.4H26.28C17.67,32.77,8.96,65.91,0,100h48.26c1.18-5.42,2.5-11.38,3.87-17.67,2.25.82,4.45,1.61,6.29,2.26,2.59-1.34,4.8-2.46,7.63-3.91.96,4,1.69,7.04,2.3,9.58,9.99-.58,19.54-1.13,29.67-1.72,0-2.41.23-4.42-.04-6.35ZM62.11,66.75c-5.67.54-6.04-2.42-5.27-6.27-.01.02-.02.05-.04.07h0c-.49,1.23-.97,2.43-1.47,3.65-.4.04-.8.07-1.19.11-.97-6.74-1.94-13.47-2.9-20.2.56-.37,1.11-.74,1.67-1.11,2.11,1.41,4.2,2.84,6.3,4.25.68-1.62,1.36-3.24,2.04-4.86.89.66,1.78,1.31,2.67,1.97-.6,7.4-1.2,14.8-1.81,22.38Z"/>
      <path class="cls-1" d="M56.78,60.71c.85-4.55,1.69-9.09,2.54-13.64-.85,4.55-1.69,9.09-2.54,13.64Z"/>
    </g>
  </g>
</svg>