<?xml version="1.0" encoding="UTF-8"?>
<svg id="_레이어_2" data-name="레이어 2" xmlns="http://www.w3.org/2000/svg" viewBox="0 0 111.4 100">
  <defs>
    <style>
      .cls-1 {
        fill: #fff;
        stroke-width: 0px;
      }
    </style>
  </defs>
  <g id="_레이어_1-2" data-name="레이어 1">
    <path class="cls-1" d="M68.36,41.08c-1.76-10.39-2.64-19.5-12.39-23.3-18.38-1.29-33.5,3.19-42.84,20.36,6.02,3.2,7.49-1.85,10.07-4.36,6.49-6.31,8.8-6.89,16.98-3.54.19,1.61.57,3.38.56,5.15,0,1.78-.4,3.55-.76,6.3-7.56,3.88-15.18,8.45-23.32,11.76-5.8,2.36-12.06,2.06-16.33-3.65C-2.17,30.3,9.71,10.52,27.93,5.12,37.78,2.2,47.77-.68,58.46.14c11.23.87,19.23,5.8,23.11,16.32,2.44,6.62,3.62,13.7,5.77,20.44,2.69,8.39,5.8,16.64,9.02,25.75,4.58.41,9.76.87,15.04,1.34-5.96,9.87-11.73,13.28-39.03,23.11-2.73-1.43-5.84-3.06-10.03-5.26-3.3,2.78-6.61,5.92-10.27,8.58-9.41,6.84-18.94,12.74-31.52,7.66-14.16-5.72-17.8-21.35-6.4-31.07,4.2-3.58,9.59-6.06,14.82-8.04,8.94-3.39,18.4-5.47,27.21-9.12,4.67-1.93,8.45-6.01,12.18-8.79ZM72.52,67.07v-10.58c-8.38,1.75-14.89,5.67-21.32,9.92-6.55,4.33-16.52.87-22.47,10.33,2.93,2.99,5.89,6.01,8.79,8.96,12.3-6.55,23.4-12.46,35.01-18.64Z"/>
  </g>
</svg>