<?xml version="1.0" encoding="UTF-8"?>
<svg id="_레이어_2" data-name="레이어 2" xmlns="http://www.w3.org/2000/svg" viewBox="0 0 73.04 100">
  <defs>
    <style>
      .cls-1 {
        fill: #fff;
        stroke-width: 0px;
      }
    </style>
  </defs>
  <g id="_레이어_1-2" data-name="레이어 1">
    <path class="cls-1" d="M2.86,99.74c5.93-22.37,15.86-43.28,22.34-65.44H3.81v-2.6h22.67c1.73-5.36,3.38-10.47,5.17-16.03-10.7.2-21.06.39-31.65.59V.48c14.56-.16,29.22-.32,43.75-.48.81,3.11,1.49,6.15,2.4,9.11,2.6,8.51,5.29,16.98,7.93,25.48,3.47,11.16,7.08,22.28,10.36,33.5,3.01,10.31,5.67,20.72,8.48,31.09.06.22.07.46.12.82h-19.29c-2.34-10.12-4.7-20.3-7.07-30.53h-20.51c-2.74,10.13-5.46,20.16-8.2,30.26H2.86ZM38.4,29.17c-.21,0-.42.01-.63.02-2.51,8.28-5.02,16.56-7.58,25.01h14.32c-2.06-8.46-4.09-16.74-6.11-25.03ZM11.58,13.84c-.39-.14-.81-.23-1.17-.42-.25-.14-.42-.42-.62-.64-.1.13-.21.26-.31.38.15,1.51,1.23.85,2.1.68ZM5.32,13.12c0-.06-.01-.13-.02-.19h-2.41c0,.11.02.22.02.33.8-.05,1.61-.09,2.41-.14ZM18.2,13.33c.05-.18.09-.36.14-.54-.34-.06-.68-.14-1.02-.14-.06,0-.11.39-.19.68h1.06Z"/>
  </g>
</svg>