<?xml version="1.0" encoding="UTF-8"?>
<svg id="_레이어_2" data-name="레이어 2" xmlns="http://www.w3.org/2000/svg" viewBox="0 0 61.85 100">
  <defs>
    <style>
      .cls-1 {
        fill: #fff;
        stroke-width: 0px;
      }
    </style>
  </defs>
  <g id="_레이어_1-2" data-name="레이어 1">
    <path class="cls-1" d="M15.03,99.17c-5.39.3-10.11.56-15.03.83C4.22,65.93,13.99,33.53,20.78,0h18.99c6.16,33.21,17.75,65.59,22.08,99.91h-22.09c-.9-4.02-1.77-7.9-2.68-11.97-.46.06-1.17.14-2.04.25.15-1.92.28-3.68.48-6.23-5.46-.28-10.67-.54-16-.81-1.45,5.83-2.93,11.8-4.48,18.02ZM33.71,71.16c-1.75-7.6-3.47-15.02-5.18-22.44-.32.02-.63.03-.95.05-1.73,7.39-3.47,14.77-5.26,22.39h11.38Z"/>
  </g>
</svg>