<?xml version="1.0" encoding="UTF-8"?>
<svg id="_레이어_2" data-name="레이어 2" xmlns="http://www.w3.org/2000/svg" viewBox="0 0 89.63 100">
  <defs>
    <style>
      .cls-1 {
        fill: #fff;
        stroke-width: 0px;
      }
    </style>
  </defs>
  <g id="_레이어_1-2" data-name="레이어 1">
    <path class="cls-1" d="M30.34,1.93C34.17-.42,38.49-.14,42.59.29c5.27,12.35,10.4,24.46,15.6,36.54,4.81,11.19,9.71,22.35,14.53,33.54,2.56,5.94,5.03,11.92,7.6,17.86,1.72,3.96,5.26,6.02,9.3,8.17-.83.85-1.42,1.98-2.04,2-6.02.23-12.04.3-18.06.34-.65,0-1.29-.45-2.11-.76.91-5.22-1.78-9.46-3.5-13.94-5.34-13.89-10.68-27.79-16.17-41.63-2.64-6.66-5.61-13.19-8.4-19.8-.93-2.2-1.66-4.47-2.63-6.65-.88-1.98-1.96-3.87-3.24-6.35-2.82,3.77-3.03,7.42-3.59,10.94-.28,1.78-.3,3.61-.62,5.39-1.63,9.18-2.29,18.52-4.92,27.56-1.19,4.11-.88,8.64-1.88,12.83-1.52,6.41-1.76,12.91-2.11,19.41-.12,2.15.32,4.32.51,6.57,1.97,2.83,5.16,2.93,8.57,3.26.07,1.05.13,2.05.21,3.18-4.91,1.35-9.57,1.5-14.28,1.02-1.4-.14-2.9-.54-4.19-.21-4.12,1.06-7.58-.28-11.18-2.72.46-.53.84-1.45,1.39-1.55,5.49-1.06,7.11-5.43,8.44-9.91,1.8-6.07,3.51-12.17,5.03-18.31,4.89-19.73,9.69-39.47,14.49-59.22.42-1.75.6-3.55.99-5.9Z"/>
  </g>
</svg>