<?xml version="1.0" encoding="UTF-8"?>
<svg id="_레이어_2" data-name="레이어 2" xmlns="http://www.w3.org/2000/svg" viewBox="0 0 133.57 100">
  <defs>
    <style>
      .cls-1 {
        fill: #fff;
        stroke-width: 0px;
      }
    </style>
  </defs>
  <g id="_레이어_1-2" data-name="레이어 1">
    <path class="cls-1" d="M126.98,90.16c-1.68-4.44-3.44-8.87-5.44-13.17-11.26-24.21-22.6-48.38-33.92-72.56-2.56-5.47-8.95-5.97-12.7-.89-2.31,3.14-3.95,6.85-6.58,9.66-4.12,4.39-9.67,7.63-13.11,12.43-8.95,12.49-17.31,25.41-25.47,38.44-8.14,13-15.59,26.46-29.76,35.04h53.36c-3.13-2.03-4.98-3.59-7.11-4.53-7.17-3.17-6.57-9.75-4.7-14.71,1.79-4.73,6.47-11.58,10.21-11.79,13.43-.76,27.02.69,40.51,1.75,4.52.36,4.62,4.81,3.62,7.71-.99,2.87-4.57,4.82-5.62,7.68-1.39,3.77-2.01,8.1-1.64,12.06.1,1.12,4.81,2.55,7.41,2.58,12.51.13,25.01.16,37.52.14-.1-1.52-.18-3.03-.26-4.55-2.72.68-4.74-1.07-6.33-5.29ZM59.98,29c.95.11,1.91.22,2.86.34-.2,2.25-.32,4.51-.73,6.72-.03.19-1.95.03-3,.03.29-2.36.57-4.72.86-7.08ZM68.5,60.21c-1.31-4.55-2.3-7.98-3.3-11.41-.83.07-1.65.15-2.48.22-.42,3.18-.84,6.37-1.38,10.48-2.7-.32-5.71-.67-8.63-1.02-.46-8.81,4.06-18.12,9.15-19.43,7.51-1.93,18.18,4.45,21.84,13.26,1.09,2.63,1.61,5.5,2.62,9.07-6.6-.44-12.64-.83-17.83-1.18Z"/>
  </g>
</svg>