<?xml version="1.0" encoding="UTF-8"?>
<svg id="_레이어_2" data-name="레이어 2" xmlns="http://www.w3.org/2000/svg" viewBox="0 0 65.04 100">
  <defs>
    <style>
      .cls-1 {
        fill: #fff;
        stroke-width: 0px;
      }
    </style>
  </defs>
  <g id="_레이어_1-2" data-name="레이어 1">
    <path class="cls-1" d="M65.04,99.98c-6.43,0-12,.07-17.57-.1-.67-.02-1.67-1.3-1.87-2.15-1.03-4.44-1.85-8.93-2.79-13.61h-22.06c-.87,4.07-1.85,7.92-2.47,11.83-.44,2.77-1.78,3.87-4.52,3.81-4.48-.1-8.96-.03-13.77-.03.79-3.78,1.65-7.85,2.51-11.93,3.32-15.79,6.57-31.6,10-47.37,2.1-9.66,4.4-19.28,6.76-28.89.86-3.49,2.09-6.9,3.26-10.31.18-.51.92-1.18,1.4-1.18C30.68-.02,37.44,0,44.89,0c6.64,32.95,13.33,66.14,20.15,99.98ZM32.33,27.22c-.17-.02-.34-.05-.51-.07-2.45,12.67-4.89,25.35-7.36,38.11h14.87c-2.37-12.88-4.69-25.46-7-38.04Z"/>
  </g>
</svg>