<?xml version="1.0" encoding="UTF-8"?>
<svg id="_레이어_2" data-name="레이어 2" xmlns="http://www.w3.org/2000/svg" viewBox="0 0 79.16 100">
  <defs>
    <style>
      .cls-1 {
        fill: #fff;
        stroke-width: 0px;
      }
    </style>
  </defs>
  <g id="_레이어_1-2" data-name="레이어 1">
    <path class="cls-1" d="M43.15,31.08c-16.87,21.48-18.14,47.77-31.6,68.92H0C13.81,66.13,22.73,31.45,40.5,0h14.41c1.26,6.5,2.31,12.66,3.71,18.74.66,2.88,2.21,5.54,3.03,8.4,5.48,19.18,11.03,38.34,16.18,57.61,1.19,4.44.87,9.29,1.33,15.05-5.96-.57-10.56-1.02-15.02-1.45-6.62-10.52-6.79-21.8-.31-30.19-2.74-.8-5.32-1.55-8.96-2.62-3.61-10.61-7.36-21.66-11.72-34.46Z"/>
  </g>
</svg>