<?xml version="1.0" encoding="UTF-8"?>
<svg id="_레이어_2" data-name="레이어 2" xmlns="http://www.w3.org/2000/svg" viewBox="0 0 115.63 100">
  <defs>
    <style>
      .cls-1 {
        fill: #fff;
        stroke-width: 0px;
      }
    </style>
  </defs>
  <g id="_레이어_1-2" data-name="레이어 1">
    <g>
      <path class="cls-1" d="M49.84,3.26c9.42-1.03,19.15-2.1,29.67-3.26,1.23,22.49-6.02,40.45-14.24,58.14-6.45,13.9-11.66,29.2-26.67,36.28-7.54,3.56-16.66,6.08-24.82,5.5-12.41-.88-17.77-13.17-10.51-23.63,5.74-8.25,13.28-15.6,21.16-21.93,24.23-19.45,24.44-19.18,25.4-51.11ZM35.35,62.7c16.63,7.23,20.01,4.73,19.86-11.61-6.08,3.55-11.76,6.87-19.86,11.61Z"/>
      <path class="cls-1" d="M75.22,82.82c2.89-12.32,3.5-22.64,8.01-30.81,2.18-3.95,12.4-6.46,17.7-4.99,7.56,2.09,3.61,8.31,1.99,14.52-1.35,5.21,4.12,12.26,6.75,18.42,1.82,4.27,3.95,8.4,5.94,12.59-4.12.23-8.25.36-12.35.72-2.13.19-4.29.6-6.33,1.24-14.63,4.63-21.3.17-21.72-11.7Z"/>
    </g>
  </g>
</svg>