<?xml version="1.0" encoding="UTF-8"?>
<svg id="_레이어_2" data-name="레이어 2" xmlns="http://www.w3.org/2000/svg" viewBox="0 0 74.34 100">
  <defs>
    <style>
      .cls-1 {
        fill: #fff;
        stroke-width: 0px;
      }
    </style>
  </defs>
  <g id="_레이어_1-2" data-name="레이어 1">
    <path class="cls-1" d="M0,95.52c1.7-3.49,3.66-6.89,5.06-10.49,6.96-17.84,13.15-36.02,20.89-53.5,4.11-9.28,3.3-17.16-.92-25.58-.78-1.56-.8-3.5-1.32-5.95,7.15,1.49,11.47,5.58,13.91,10.89,3.21,6.98,5.25,14.51,7.87,21.77,2.4,6.64,4.7,13.31,7.41,19.83,3.18,7.66,6.58,15.25,10.2,22.72,2.96,6.1,6.38,11.98,9.6,17.95,2.8,5.19,2.27,6.57-3.55,6.83-3.54.16-7.23-.47-10.67-1.4-3.89-1.06-5.94-3.98-6.13-8.19-.05-1.23-.55-2.75-1.39-3.59-5.88-5.87-8.24-13.63-11.53-20.89-.84-1.85-1.3-3.88-2.27-5.65-.67-1.23-1.91-2.16-2.9-3.22-1.01,1.1-2.45,2.04-2.95,3.34-1.66,4.31-3.12,8.7-4.39,13.14-1.35,4.71-4.05,9.12-1.85,14.56.82,2.03-.55,5.02-1.19,7.51-.17.68-1.31,1.57-2.02,1.58-7.01.12-14.03.07-21.05.07-.27-.57-.55-1.14-.82-1.71Z"/>
  </g>
</svg>