<?xml version="1.0" encoding="UTF-8"?>
<svg id="_레이어_2" data-name="레이어 2" xmlns="http://www.w3.org/2000/svg" viewBox="0 0 104.16 100">
  <defs>
    <style>
      .cls-1 {
        fill: #fff;
        stroke-width: 0px;
      }
    </style>
  </defs>
  <g id="_레이어_1-2" data-name="레이어 1">
    <path class="cls-1" d="M59.02,3.73v66.37c.31.16.63.32.94.48,1.51-2.18,3.25-4.24,4.5-6.56,10.93-20.18,21.91-40.32,32.5-60.68,1.87-3.6,3.76-3.85,7.2-2.82-8.71,18.45-17.33,36.7-26.12,55.32,6.68,2.08,6.27,6.9,6.16,12.08-1.55-.16-2.8,0-3.77-.44-5.56-2.53-9.03.47-12.19,4.41-2.99,3.74-6.06,7.42-8.88,11.29-.67.92-.58,2.49-.6,3.77-.07,4.29-.03,8.57-.03,13.03h-17.84v-20.78h-21.76v20.5H.09c0-6.36-.23-12.95.05-19.52.53-12.78,1.02-25.58,2.12-38.32C3.9,22.95,20.94,4.86,39.2,2.55c6.28-.79,12.84.69,19.81,1.17ZM40.73,15.21c-15,1.71-26.5,30.17-22.53,50.81h22.53V15.21Z"/>
  </g>
</svg>