<?xml version="1.0" encoding="UTF-8"?>
<svg id="_레이어_2" data-name="레이어 2" xmlns="http://www.w3.org/2000/svg" viewBox="0 0 197.88 100">
  <defs>
    <style>
      .cls-1 {
        fill: #fff;
        stroke-width: 0px;
      }
    </style>
  </defs>
  <g id="_레이어_1-2" data-name="레이어 1">
    <g>
      <path class="cls-1" d="M134.81,56.41c-11.66-17.67-22.26-34.69-32.58-52.81-8.43,15.38-18.12,29.22-27.61,43.19-2.6,3.82-4.97,5.71-10.17,5.06-7.63-.96-15.46-.28-23.2-.41-1.73-.03-4.22.97-5.05-.66-.92-1.8,1.11-3.52,2.24-5.04,4.56-6.2,9.29-12.28,13.8-18.51,5.67-7.84,11.21-15.77,16.75-23.7C70.58,1.22,72.35-.08,75.44,0c17.27.46,34.55.71,51.83,1.01,2.01.03,3.58.21,4.92,2.3,12.04,18.73,25.99,36.11,38.51,54.51,8.9,13.08,17.75,26.19,27.17,40.1-10.81,0-20.91-.05-31.01.04-2.52.02-2.29-2.07-2.83-3.34-3.32-7.84-3.26-7.77-11.5-7.76-26.36.04-52.72.04-79.09-.02-3.45,0-6.89-.57-10.35-.67-4.23-.12-4.48-2.12-3.19-5.52,1.43-3.76,4.29-6.53,6.25-9.91.49-.85,1.41-1.47,1.78-2.35,4.41-10.66,12.4-13.06,23.43-12.23,14.06,1.06,28.26.26,43.43.26Z"/>
      <path class="cls-1" d="M0,99.44c5.67-6.83,10.62-12.68,15.42-18.63,6.18-7.66,12.26-15.41,18.36-23.13.96-1.22,1.98-2.27,3.69-1.96,7.53,1.36,15.12.42,22.68.69,1.34.05,2.85-.07,3.51,1.27.78,1.58-.89,2.24-1.68,3.18-9.36,11.2-18.41,22.66-26.63,34.72-2.22,3.25-4.5,4.51-8.4,4.42-8.55-.2-17.04-2.05-26.96-.56Z"/>
    </g>
  </g>
</svg>