<?xml version="1.0" encoding="UTF-8"?>
<svg id="_레이어_2" data-name="레이어 2" xmlns="http://www.w3.org/2000/svg" viewBox="0 0 94.39 100">
  <defs>
    <style>
      .cls-1 {
        fill: #fff;
        stroke-width: 0px;
      }
    </style>
  </defs>
  <g id="_레이어_1-2" data-name="레이어 1">
    <path class="cls-1" d="M91,27.99C85.51,10.47,69.19-1.28,50.48.11c-7.21.54-14.07,2.21-19.65,7.5-1.19,1.13-4.91,5.15-5.29.22-.57-7.26-4.47-7.07-9.53-6.69-2.59.19-5.2.01-7.8,0C.78,1.12.16,1.68.13,9.42c-.05,14.12-.01,28.24-.01,42.35,0,14.12.18,28.24-.11,42.35-.09,4.11,1.19,5.39,5.12,5.67,5.76.41,11.43.14,17.17-.28,3.17-.23,4.6-.86,4.89-4.31.2-2.3.94-5.49,4.85-2.36,15.61,12.5,39.25,6.2,49.63-7.2,13.35-17.22,15.72-37.28,9.34-57.66ZM60.3,65.55c-4.91,10.58-18.17,12.26-25.56,3.18-10.09-12.4-10.75-25.15-1.88-36.59,4.87-6.28,14.02-9.46,20.75-7.19,6,2.02,9.81,8.31,10.15,16.81.07,1.67,0,3.34,0,5.01.13,6.49-.69,12.81-3.46,18.79Z"/>
  </g>
</svg>