<?xml version="1.0" encoding="UTF-8"?>
<svg id="_레이어_2" data-name="레이어 2" xmlns="http://www.w3.org/2000/svg" viewBox="0 0 145.41 100">
  <defs>
    <style>
      .cls-1 {
        fill: #fff;
        stroke-width: 0px;
      }
    </style>
  </defs>
  <g id="_레이어_1-2" data-name="레이어 1">
    <path class="cls-1" d="M57.53,68.87h34.41c-6.65-11.05-12.62-20.96-18.89-31.38-10.91,18.22-21.6,35.11-31.21,52.6-4.3,7.82-9.69,10.43-18.11,9.83-7.77-.56-15.6-.12-23.73-.12C19.73,68.15,38.87,37.21,58.41,6.52c1.77-2.79,5.86-5,9.25-5.7,14.98-3.09,23.89,2.62,31.13,17.04,12.02,23.95,27.15,46.33,40.93,69.39,1.85,3.1,3.46,6.35,5.7,10.48-11,0-20.59.3-30.14-.21-2.38-.13-5.97-2.39-6.67-4.46-2.36-7.01-7.05-7.85-13.53-7.88-12.34-.06-24.67-1.11-37.53-1.77v-14.54Z"/>
  </g>
</svg>