<?xml version="1.0" encoding="UTF-8"?>
<svg id="_레이어_2" data-name="레이어 2" xmlns="http://www.w3.org/2000/svg" viewBox="0 0 136.32 100">
  <defs>
    <style>
      .cls-1 {
        fill: #fff;
        stroke-width: 0px;
      }
    </style>
  </defs>
  <g id="_레이어_1-2" data-name="레이어 1">
    <path class="cls-1" d="M115.03,63.18c-11.21-20.09-22.34-40.23-33.7-60.24-.81-1.44-3.25-2.67-4.97-2.73C68.25-.08,60.12.2,52.02,0c-2.7-.06-4.12.86-5.23,3.25-7.07,15.08-14.15,30.14-21.41,45.12C17.03,65.57,8.52,82.67,0,100h136.32c-7.12-12.31-17.94-30.82-21.29-36.82ZM45.97,71.88c6.18-12.54,12.37-25.12,18.73-38.02,6.5,12.71,12.77,24.95,19.46,38.02h-38.19Z"/>
  </g>
</svg>