<?xml version="1.0" encoding="UTF-8"?>
<svg id="_레이어_2" data-name="레이어 2" xmlns="http://www.w3.org/2000/svg" viewBox="0 0 83.73 100">
  <defs>
    <style>
      .cls-1 {
        fill: #fff;
        stroke-width: 0px;
      }
    </style>
  </defs>
  <g id="_레이어_1-2" data-name="레이어 1">
    <path class="cls-1" d="M11.71,0c16.34,2.03,31.44,3.9,47.05,5.84,7.28-1.29,15.8-2.79,24.97-4.41v98.57h-20.99c2.86-11.37,5.64-22.21,8.31-33.08,1.18-4.78-.88-6.89-5.76-7.15-7.14-.38-14.25-1.18-22.56-1.91.41,13.81-7.48,26.84,3.91,40.87H0c17.22-16.72,32.58-33.39,32.58-58.8,0-2.85.8-5.7,1.2-8.55,2.01-14.33,1.56-14.81-11.97-19.96-5.35-2.04-12.06-3.65-10.1-11.42ZM41.68,53.91c8.98-.57,16.72-.84,24.4-1.68,2.09-.23,5.6-2.02,5.74-3.37,1.15-11.03,1.66-22.12,2.37-33.29h-32.51v38.35Z"/>
  </g>
</svg>