<?xml version="1.0" encoding="UTF-8"?>
<svg id="_레이어_2" data-name="레이어 2" xmlns="http://www.w3.org/2000/svg" viewBox="0 0 82.92 100">
  <defs>
    <style>
      .cls-1 {
        fill: #fff;
        stroke-width: 0px;
      }
    </style>
  </defs>
  <g id="_레이어_1-2" data-name="레이어 1">
    <path class="cls-1" d="M66.18.17c3.84,6.55,9.96,9.01,16.74,10.13v87.61c-2.16-.16-4.01-.21-5.85-.44-4.31-.52-8.61-.77-12.89.22-.53.12-1.11.02-2.16.02v-10.68c-.92.58-1.29.77-1.62,1.02-2.38,1.79-4.56,3.97-7.17,5.31-6.81,3.5-14.05,5.71-21.79,5.98-1.85.06-3.69.35-5.53.54-7.7.77-13.82-2.01-18.07-8.45C3.2,84.4.47,76.52.17,68.21c-.39-10.96-.05-21.96.38-32.93.17-4.29,1.38-8.56,2.25-12.81,1.69-8.34,6.88-13.89,14.27-17.65,4.78-2.44,10.06-2.72,15.21-3.49C43.26-.31,54.32-.02,65.37.1c.25,0,.51.05.81.08ZM51.03,37.85c-.33-.22-.4-.25-.43-.29-.15-.2-.3-.41-.43-.62-3.87-6.3-9.5-9.61-16.89-9.95-2.53-.12-4.58.67-6.18,2.75-1.83,2.37-3.65,4.79-5.79,6.86-1.77,1.72-2.47,3.59-2.38,5.95.36,9.18.44,18.39,1.1,27.55.41,5.59,2.2,7.71,6.09,8.66,1.1.27,2.28.25,3.42.27,7.56.09,15.09-.05,21.84-4.16,5.23-3.18,8.56-7.69,8.75-13.95.27-8.87.29-17.75.4-26.62,0-.79-.13-1.58-.2-2.34-4.37.21-6.22,4.04-9.31,5.9Z"/>
  </g>
</svg>