<?xml version="1.0" encoding="UTF-8"?>
<svg id="_레이어_2" data-name="레이어 2" xmlns="http://www.w3.org/2000/svg" viewBox="0 0 84.43 100">
  <defs>
    <style>
      .cls-1 {
        fill: #fff;
        stroke-width: 0px;
      }
    </style>
  </defs>
  <g id="_레이어_1-2" data-name="레이어 1">
    <path class="cls-1" d="M84.43,97.92c-1.79.89-1.97,1.05-2.16,1.06-15.71,1.11-16.07,1.25-21.55-13.29-2.56-6.77-5.98-10.36-13.44-8.92-1.2.23-2.48.03-3.72.04-17.75,0-17.68.03-24.2,16.7-.92,2.34-2.58,5.85-4.33,6.13-4.75.76-9.74.16-14.6-.26-.23-.02-.76-3.66-.16-5.24,8.05-21.23,16.26-42.4,24.45-63.58,3.42-8.86,7.06-17.64,10.21-26.59C36.76-1.26,40.9.02,44.2.47c2.3.31,5.52,2.22,6.28,4.2,9.34,24.45,18.35,49.03,27.35,73.61,2.38,6.5,4.43,13.11,6.61,19.64ZM32.91,59.53h18.26c-3-8.51-5.75-16.32-8.51-24.12-.48,0-.96.01-1.44.02-2.7,7.82-5.4,15.65-8.32,24.1Z"/>
  </g>
</svg>