<?xml version="1.0" encoding="UTF-8"?>
<svg id="_레이어_2" data-name="레이어 2" xmlns="http://www.w3.org/2000/svg" viewBox="0 0 75.35 100">
  <defs>
    <style>
      .cls-1 {
        fill: #fff;
        stroke-width: 0px;
      }
    </style>
  </defs>
  <g id="_레이어_1-2" data-name="레이어 1">
    <path class="cls-1" d="M32.28,17.25c1.13,2.51,2.28,5.03,3.4,7.55.4.89.75,1.81,1.12,2.71-1.4-.46-2.8-.83-4.18.02.57,2.49.76,2.7,2.24,2.58,1.9-.15,2.08-.33,2.18-2.12.82,1.58,1.7,3.13,2.46,4.74.57,1.21.96,2.5,1.51,3.72,1.16,2.59,2.6,5.09,3.52,7.77,1.5,4.31,4.59,7.71,6.37,11.83,4.56,10.56,9.14,21.1,13.74,31.65,1.14,2.61,2.33,5.2,3.56,7.77.17.36.77.5,1.06.83.65.73,1.17,1.55,1.13,2.61,0,.22.22.45.6.61v-2.72c1.8.51,3.61.99,4.35,3.21-2.62,0-5.32,0-8.02,0-7.67-.03-15.34-.08-23.02-.1-8.5-.02-16.99,0-25.49,0-5.07,0-10.14-.04-15.22-.09-.53,0-1.43.28-1.32-.71.09-.81-.43-1.97,1.05-2.27,1.37-.28,2.69-.88,4.07-1.1,1.58-.25,2.22-1.37,2.57-2.58,1.45-4.93,2.84-9.87,4.14-14.84,1.99-7.6,3.88-15.23,5.85-22.83.35-1.33.91-2.61,1.31-3.93.64-2.09,1-4.13-1.87-5.35-.5,1.54-1.1,3.16-1.56,4.83-.55,1.97-.49,1.98-2.51,1.96-1.55,0-3.11,0-4.79,0,.09-.43.14-.66.17-.77-1.24.16-2.56.61-3.75.39-1.24-.22-2.35-1.1-3.52-1.69-.09.11-.18.21-.27.32.34.49.68.99,1.12,1.62H0c.07-.41.11-.91.24-1.38,3.27-11.26,7.02-22.34,11.5-33.18,1.39-3.35,2.64-6.76,3.99-10.12.95-2.37,2.57-4.19,4.77-5.47,1.53-.89,3.07-1.75,4.71-2.68.6,1.63,1.09,3.15,1.72,4.6,1.36,3.16,2.81,6.28,4.18,9.43.46,1.06.79,2.17,1.19,3.26-1.14-.11-2.27-.22-3.41-.33,0,.21-.02.43-.03.64,1.13.04,2.26.08,3.39.13,0-.16,0-.32,0-.49ZM13.37,48.17c3.31-.02,4.45-.84,5.5-3.98.15-.45.3-.9.41-1.36.75-3.19-.49-6.49-2.98-7.97-3.85-2.27-9.27.97-9.39,5.68-.03.97.2,1.97.44,2.93.94,3.7,2.28,4.73,6.02,4.71ZM19.7,7.99c1.6.03.91,2.16,2.57,2.36-.13-.65-.26-1.02-.26-1.4,0-.43.12-.85.18-1.28.16-1.09-.24-1.45-1.21-.92-.82.45-1.29.18-1.76-.42-.2-.25-.41-.5-.64-.78-1.11,2.25-.56,4.14,1.23,4.53.31-.74-1.66-1.56-.11-2.09ZM30.37,42.19c-.31-.69-.51-1.57-.75-1.59-1.68-.1-3.37-.01-5.35.02.67,1.13.77,2.12,1.96,2,1.28-.13,2.57-.27,4.14-.44ZM38.49,48.81c.79-.09,1.81-.52,2.18-.2.97.85,1.86.37,3.06.4-.35-.81-.54-1.49-.93-2.03-.2-.27-.77-.38-1.17-.37-.41.01-.81.33-1.23.38-1.62.21-2.25.88-1.91,1.81ZM39.56,39.94c-.15.17-.72.51-.72.84.03,1.12.95,1.31,1.85,1.33.57.02,1.37.11,1.28-.82-.12-1.18-1.09-1.28-2.41-1.36ZM33.27,47.05c-.23,2.66.14,3.09,2.21,2.67-.34-1.8-.96-2.58-2.21-2.67ZM26.41,49.94c.5-.68,1.07-1.12,1.02-1.47-.06-.44-.62-.81-.96-1.21-.43.45-.94.87-1.25,1.4-.07.12.58.65,1.19,1.29ZM29.23,29.81c.21.08.43.16.64.24.4-1.11.81-2.21,1.16-3.33.05-.16-.23-.42-.35-.63l-.37.02c-.36,1.23-.73,2.47-1.09,3.7ZM27.23,13.97c.32,1.01,1.2,1.4,2.18.97.25-.11.39-.46.58-.7-.25-.18-.5-.52-.74-.52-.67,0-1.33.15-2.01.25ZM32.37,20.57c-.02-.15-.04-.3-.06-.44-1.52-.44-2.46-.26-3.03.69,1.09-.09,2.09-.16,3.09-.24ZM39.55,35.45c-1.18.22-2.06.38-3.26.61,1.57.82,2.37.68,3.26-.61Z"/>
  </g>
</svg>