<?xml version="1.0" encoding="UTF-8"?>
<svg id="_레이어_2" data-name="레이어 2" xmlns="http://www.w3.org/2000/svg" viewBox="0 0 86.08 100">
  <defs>
    <style>
      .cls-1 {
        fill: #fff;
        stroke-width: 0px;
      }
    </style>
  </defs>
  <g id="_레이어_1-2" data-name="레이어 1">
    <g>
      <path class="cls-1" d="M31,79.6c-1.77,1.42-3.18,2.07-3.91,3.97-1.8,4.67-4.74,8.67-9.35,12.11-5.49-1.71-11.61,4.28-17.74.05.65-4.47,2.97-7.49,6-10.13.6-.52,1.1-1.74.93-2.48-.67-2.96,1.7-4.27,3.12-5.9-1.54-3.72-1.39-8.27.92-11.07,2.01-2.45,2.41-5.45,3.72-8.03,7.9-15.43,10.65-32.77,18.35-48.29,1.7-3.42,2.35-7.2,6.17-9.85v12.74c3.93.54,5.37,3.71,5.86,6.38,1.5,8.24,5,15.56,8.82,22.85.83,1.58,1.4,3.43,1.56,5.2.17,1.95,1.87,1.07,2.51,1.82.56.65.51,1.93,1.13,2.41,1.62,1.28-.6,1.75-.34,2.91h4.96c.37,1.06.6,1.94.97,2.76,1.95,4.34,4.64,8.22,5.92,13.02,1.19,4.5,4.21,8.4,5.8,13.02,1.67,4.85,5.6,8.93,8.54,13.35.61.91,1.17,1.85,1.15,3.54-1.63-.95-3.81-1.53-4.78-2.94-2.86-4.16-6.76-5.76-11.53-5.74-4.71.03-7.84-2.08-9.86-9.36-1.23-4.43-3.46-8.4-6.03-12.21-1.72-2.55-4.72-2.83-6.39-1.71-2.62,1.77-5.19.58-7.62,1.26-2.48.69-4.81,1.89-7.49,1.41-2.18-.39-3.96.51-4.7,2.42-.63,1.61-.02,3.3,1.58,4.44.55.39.92,1.04,1.75,2.02ZM37.25,21.35c-1.04,2.74-2.23,4.44-2.19,6.11.08,3.24-1.16,5.76-2.68,8.46-1.88,3.32-3.61,6.83-4.69,10.46-1.33,4.49-2.17,7-5.12,11.06-.54.74-.51,1.88-.9,3.49,11.92-4.48,23.5-5.53,35.23-5.55,0,0-8.68-2.99-8.49-2.92-1.58-10.82-5.47-20.68-11.16-31.11ZM52.78,60.41c.5,1.17.78,2.14,1.3,2.95.76,1.17,1.76,2.18,2.53,3.35.46.7.69,1.55,1.53,3.5q.21-7.38-5.36-9.8ZM36.71,12.61c-.47-1.12-.64-1.53-.8-1.93-.32.42-.79.8-.92,1.28-.09.34.28.79.45,1.2.52-.22,1.04-.45,1.27-.54ZM33.1,22.21h-.74v2.94h.74v-2.94Z"/>
      <path class="cls-1" d="M60.87,39.76c-2.14-4.98-4.41-9.92-6.39-14.96-1.96-5-5.56-9.56-4.69-15.71,5.41,2.87,7.17,7.98,8.49,12.94.76,2.84,2,5.64,1.81,8.9-.17,2.89,1.1,5.86,1.73,8.79-.32.02-.64.03-.96.05Z"/>
      <path class="cls-1" d="M65.77,43.12c.45.52,1.37,1.57,2.27,2.65.28.34.48.76.99,1.58-1.24,1.36-2.58,2.82-3.93,4.29-.87-.87-1.54-1.54-2.22-2.22,4.16-1.06-2.71-5.69,2.9-6.29Z"/>
      <path class="cls-1" d="M61.9,43.33c-.22-1.56-.36-2.52-.5-3.48.49.57,1.06,1.09,1.42,1.73.11.2-.36.72-.92,1.76Z"/>
      <path class="cls-1" d="M62.87,52.35c-.33.16-.64.38-.99.46-.12.03-.32-.3-.48-.46.33-.16.64-.38.99-.46.12-.03.32.3.48.46Z"/>
    </g>
  </g>
</svg>