<?xml version="1.0" encoding="UTF-8"?>
<svg id="_레이어_2" data-name="레이어 2" xmlns="http://www.w3.org/2000/svg" viewBox="0 0 83.22 100">
  <defs>
    <style>
      .cls-1 {
        fill: #fff;
        stroke-width: 0px;
      }
    </style>
  </defs>
  <g id="_레이어_1-2" data-name="레이어 1">
    <path class="cls-1" d="M83.22,99.31c-2.13,1.57-4.22.09-4.84-.75-2.51-3.42-6.48-3.76-9.83-4.94-2.39-.84-3.58-1.82-4.8-3.92-2.37-4.07-3.53-8.56-5.24-12.85-.55-1.39-.9-2.86-1.44-4.63h-29.53c-2.67,8.26-6.06,16.32-9.77,24.18H0c1.43-2.42,2.75-4.32,3.74-6.39,2.64-5.51,5.68-10.8,7.91-16.56,1.59-4.1,3.81-8.07,5.45-12.21,3.3-8.29,7.33-16.25,10.32-24.67,1.49-4.19,3.76-8.11,5.19-12.32,2.29-6.74,5.92-12.93,7.75-19.86.44-1.67.84-4.21,3.58-4.39,3.39,9.38,6.19,18.91,11.25,27.56,1.56,2.67,2.26,5.84,3.29,8.81,1.46,4.22,2.81,8.48,4.32,12.69,1.5,4.2,3.18,8.32,4.95,12.42,1.9,4.39,3.14,9.06,4.69,13.6,1.23,3.6,2.49,7.19,3.72,10.79.53,1.57.96,3.17,1.53,4.73,1.2,3.29,2.61,6.48,5.54,8.72ZM49.01,48.07c-3.29-3.86-2.53-9.26-6.13-12.63-1.95,4.79-5.83,8.48-5.86,14.3,4.13-.57,7.82-1.09,11.99-1.66Z"/>
  </g>
</svg>