<?xml version="1.0" encoding="UTF-8"?>
<svg id="_레이어_2" data-name="레이어 2" xmlns="http://www.w3.org/2000/svg" viewBox="0 0 84.8 99.42">
  <defs>
    <style>
      .cls-1 {
        fill: #fff;
        stroke-width: 0px;
      }
    </style>
  </defs>
  <g id="_레이어_1-2" data-name="레이어 1">
    <path class="cls-1" d="M55.8,80.18h-26.47c-2.33,5.48-4.28,10.57-6.69,15.42-.7,1.4-2.64,2.79-4.19,3.02-3.8.56-7.73.78-11.56.53-5.03-.33-7.68-3.97-6.66-8.9.65-3.17,1.85-6.23,2.83-9.34,6.73-21.29,13.38-42.61,20.26-63.85,1.47-4.55,2.5-9.43,6.24-12.97C32.17,1.6,35.19.02,38.82,0c3.46-.01,6.96-.05,10.39.37,6.19.77,9.77,4.9,11.52,10.48,5.39,17.15,10.57,34.38,15.84,51.57,2.41,7.87,4.89,15.72,7.19,23.61.96,3.29,1.88,6.62-.29,9.97-1.36,2.12-3.13,3.22-5.49,3.29-3.46.11-6.95.21-10.4-.05-4.47-.34-7.65-3.44-8.84-8.03-.97-3.73-1.99-7.46-2.95-11.05ZM35,58.85h15.24c-2.36-9.86-4.63-19.37-6.91-28.87-.29,0-.57,0-.86.01-2.47,9.54-4.94,19.09-7.47,28.86Z"/>
  </g>
</svg>