<?xml version="1.0" encoding="UTF-8"?>
<svg id="_레이어_2" data-name="레이어 2" xmlns="http://www.w3.org/2000/svg" viewBox="0 0 108.11 100">
  <defs>
    <style>
      .cls-1 {
        fill: #fff;
        stroke-width: 0px;
      }
    </style>
  </defs>
  <g id="_레이어_1-2" data-name="레이어 1">
    <path class="cls-1" d="M52.78.05c4.93,0,9.85.12,14.77-.05,2.43-.08,3.92.89,4.68,3.01,10.65,29.69,22.77,58.8,34.46,88.07.55,1.39.86,2.88,1.23,4.34.6,2.34-.23,3.56-2.76,3.55-7.13-.03-14.27,0-21.4-.02-1.7,0-2.76-.72-3.38-2.43-1.36-3.78-3.01-7.45-4.38-11.23-.77-2.13-1.82-3.4-4.32-3.17-12.2,1.15-24.43.31-36.65.47-3.18.04-4.47.62-5.88,4.23-4.7,12.08-1.09,12.95-16.8,12.59-2.86-.06-5.72.41-8.59.55-3.45.17-4.61-.97-3.17-4.58,3.91-9.78,7.67-19.62,11.22-29.53,6.69-18.71,13.21-37.48,19.7-56.26.76-2.2,2.03-4.17,2.39-6.59C34.24.84,36.09-.08,38.51,0c4.75.17,9.51.05,14.26.05Z"/>
  </g>
</svg>