<?xml version="1.0" encoding="UTF-8"?>
<svg id="_레이어_2" data-name="레이어 2" xmlns="http://www.w3.org/2000/svg" viewBox="0 0 134.85 100">
  <defs>
    <style>
      .cls-1 {
        fill: #fff;
        stroke-width: 0px;
      }
    </style>
  </defs>
  <g id="_레이어_1-2" data-name="레이어 1">
    <path class="cls-1" d="M98.95,97.88c-1.91-7.84,1.36-15.51-2.23-22.38-23.27.24-46.18.48-67.82.71-3.26,3.6-5.57,6.15-7.87,8.71-1.78,1.98-3.65,3.88-5.28,5.97-5.18,6.62-7.44,7.23-15.56,3.78-.78-3.14,1.02-5.54,2.74-7.84,3.93-5.25,8-10.39,12.01-15.57,10.68-13.79,21.41-27.55,32.02-41.4,3.56-4.65,6.89-9.47,10.16-14.33.7-1.03.71-2.53,1.01-3.82.9-3.88,1.78-7.76,2.69-11.72,6.2.6,10.97,1.59,15.5,5.67,5.64,5.08,8.4,11.8,12.56,17.67,9.37,13.22,18.34,26.74,27.13,40.36,4.6,7.14,8.41,14.79,12.69,22.14,1.89,3.24,4.07,6.32,6.17,9.56-.3,1.37-.59,2.7-.92,4.18-.91.16-1.72.5-2.48.41-3.55-.44-7.07-1.26-10.63-1.45-7.25-.39-14.51-.45-21.87-.65ZM71.42,30.81c-8.16,8.52-15.91,16.62-24.23,25.31,12.75,2.61,24.14-.74,36.01-.87-4.16-8.33-11.3-14.4-11.78-24.44Z"/>
  </g>
</svg>