<?xml version="1.0" encoding="UTF-8"?>
<svg id="_레이어_2" data-name="레이어 2" xmlns="http://www.w3.org/2000/svg" viewBox="0 0 90.65 100">
  <defs>
    <style>
      .cls-1 {
        fill: #fff;
        stroke-width: 0px;
      }
    </style>
  </defs>
  <g id="_레이어_1-2" data-name="레이어 1">
    <path class="cls-1" d="M52.52,94.3c.39-.11.77-.19,1.13-.32,2.09-.7,3.17-2.2,3.56-4.33.3-1.65-.24-3.15-.67-4.67-1.02-3.61-2.1-7.2-3.13-10.81-.09-.32-.2-.42-.53-.42-2.44,0-4.89,0-7.33,0-4.66,0-9.31.01-13.97,0-.51,0-.7.14-.84.65-.76,2.91-1.61,5.8-2.36,8.72-.58,2.25-1.07,4.52-1.59,6.78-.17.73.08,1.4.43,2.02.47.82,1.13,1.45,2.03,1.79.95.35,1.92.67,2.94,1.03v5.03H0v-6.99c.74-.11,1.42-.18,2.08-.33,1.65-.38,2.97-1.35,4.25-2.39,1.36-1.09,2.31-2.38,2.8-4.12.79-2.83,1.8-5.6,2.66-8.41.79-2.56,1.49-5.14,2.27-7.7.88-2.89,1.82-5.77,2.7-8.66,1.03-3.38,2.03-6.77,3.06-10.15.52-1.7,1.1-3.38,1.63-5.07.72-2.28,1.42-4.57,2.14-6.86,1.02-3.26,2.08-6.5,3.08-9.76.94-3.08,1.81-6.17,2.75-9.25.96-3.19,1.96-6.36,2.94-9.54.85-2.75,1.69-5.51,2.53-8.27.19-.6.38-1.21.56-1.81.09-.29.23-.42.56-.42,5.28,0,10.55,0,15.83-.01.5,0,.71.11.84.64.68,2.75,1.42,5.49,2.13,8.23,1.43,5.54,2.83,11.1,4.3,16.63,1.18,4.46,2.46,8.89,3.69,13.34,1.41,5.11,2.82,10.22,4.22,15.33.77,2.78,1.53,5.56,2.3,8.34,1.27,4.6,2.51,9.2,3.81,13.79,1.09,3.82,2.21,7.64,3.39,11.43.51,1.63,1.36,3.08,2.98,3.88,1.35.67,2.77.83,4.27.66,1.97-.22,3.78-.82,5.43-1.91.29-.19.54-.45.83-.65.11-.08.32-.13.42-.08.09.04.14.25.14.39.02,1.2.05,2.4.02,3.6,0,.3-.15.67-.35.89-1.36,1.49-3.05,2.49-4.94,3.16-2.74.97-5.6,1.36-8.47,1.72-5.64.72-11.3.62-16.96.59-2.28-.01-4.57,0-6.85,0-.4,0-.56-.08-.56-.52.03-1.72.01-3.43.01-5.17ZM42.19,26.27c-2.75,10.6-5.46,21.03-8.19,31.57,5.44.78,10.74.55,16.1.4-2.64-10.65-5.26-21.24-7.91-31.97Z"/>
  </g>
</svg>