<?xml version="1.0" encoding="UTF-8"?>
<svg id="_레이어_2" data-name="레이어 2" xmlns="http://www.w3.org/2000/svg" viewBox="0 0 43.12 100">
  <defs>
    <style>
      .cls-1 {
        fill: #fff;
        stroke-width: 0px;
      }
    </style>
  </defs>
  <g id="_레이어_1-2" data-name="레이어 1">
    <path class="cls-1" d="M.39,60.33c0-11.85.04-23.7-.02-35.55-.02-4.05-1.06-8.1.45-12.11C3.25,6.23,7.23,1.81,14.53.87c5.31-.68,10.55-1.4,15.87-.32,9.11,1.85,12.78,7.95,12.72,16.92-.05,7.51-.1,15.02-.11,22.53-.02,19.11-.05,38.22.02,57.32,0,1.96-.55,2.59-2.45,2.56-3.84-.06-7.68-.02-11.51.11-1.81.06-2.17-.67-2.16-2.34.07-11.93-.04-23.87.1-35.8.03-2.36-.75-2.85-2.83-2.68-1.91.15-3.84.1-5.75-.01-1.54-.09-2,.46-1.98,2,.12,11.18.15,22.36.22,33.54,0,.42.02.83.03,1.25.06,3.79.06,3.81-3.7,3.85-3.42.04-6.85-.07-10.26.12-2.06.12-2.44-.66-2.43-2.55.08-12.35.04-24.7.04-37.05h.05Z"/>
  </g>
</svg>