<?xml version="1.0" encoding="UTF-8"?>
<svg id="_레이어_2" data-name="레이어 2" xmlns="http://www.w3.org/2000/svg" viewBox="0 0 94.09 100">
  <defs>
    <style>
      .cls-1 {
        fill: #fff;
        stroke-width: 0px;
      }
    </style>
  </defs>
  <g id="_레이어_1-2" data-name="레이어 1">
    <path class="cls-1" d="M86.82,100c-2.64,0-5.14,0-7.65,0-13.08-.04-26.16-.07-39.25-.11-8.71-.02-16.95-1.56-23.86-7.4-7.76-6.56-12.82-14.69-14.6-24.79C-.76,54.97-.64,42.35,3.13,29.92,8.68,11.61,22.74.86,42.14.22c13.61-.44,27.25-.09,40.88-.09.53,0,1.05.1,1.56.15.1.3.2.48.21.68q.32,3.93,4.4,4.01c1.36.03,2.72.09,4.08.16.17,0,.34.2.81.5-.59.82-1.09,1.65-1.73,2.37-1.22,1.37-2.53,2.67-3.78,4.02-4.12,4.46-6.08,9.76-6.13,15.8-.12,13.42-.33,26.83-.3,40.25,0,4.62.46,9.25.98,13.84.28,2.43.72,5.03,3.37,6.33.21.1.31.58.32.89.02,3.47.01,6.94.01,10.86ZM50.15,42.37c-.16,0-.33,0-.49,0,0-5.72.07-11.45-.03-17.17-.07-3.74-1.78-5.67-5.16-6.28-6.26-1.12-12.11,2.36-13.63,8.54-1.38,5.6-2.52,11.29-3.39,16.99-1.07,6.99-1.84,14.04-2.56,21.08-.55,5.44,1.26,9.07,5.15,10.79,3.81,1.68,7.77,1.92,11.78.82,4.38-1.2,6.9-4.09,7.15-8.62.48-8.71.79-17.42,1.17-26.13Z"/>
  </g>
</svg>