<?xml version="1.0" encoding="UTF-8"?>
<svg id="_레이어_2" data-name="레이어 2" xmlns="http://www.w3.org/2000/svg" viewBox="0 0 87.13 100">
  <defs>
    <style>
      .cls-1 {
        fill: #fff;
        stroke-width: 0px;
      }
    </style>
  </defs>
  <g id="_레이어_1-2" data-name="레이어 1">
    <path class="cls-1" d="M58.89,9.2c0-2.73-.09-4.82.06-6.89.04-.56.77-1.52,1.22-1.53,9.03-.33,18.05-.54,26.96-.78v88.56h-3.15v11.44h-25.18c-.17-3.54-.34-7.14-.52-11.01-.93.17-1.7.3-2.46.47-7.68,1.73-15.42,2.93-23.29,1.78-13.85-2.02-23.53-9.74-28.43-22.67C-2.11,52.18-1.35,35.77,6.97,20.22,12.36,10.15,20.87,3.98,32.71,3.44c6.45-.29,12.52,1.64,18.58,3.56,2.35.74,4.74,1.38,7.6,2.2ZM58.25,43.63c-.11-.01-.23-.02-.34-.03,0-3.44.04-6.88-.01-10.33-.05-3.13-1-4.15-4.17-4.11-1.93.03-3.91.32-5.78.82-5.09,1.34-10.21,3.01-12.96,7.89-4.45,7.89-5.06,16.16-.64,24.34,2.17,4.02,5.7,6.5,10.31,7.01,6.47.71,11.03-2.47,12.36-9.5,1-5.25.86-10.71,1.23-16.08Z"/>
  </g>
</svg>