<?xml version="1.0" encoding="UTF-8"?>
<svg id="_레이어_2" data-name="레이어 2" xmlns="http://www.w3.org/2000/svg" viewBox="0 0 76.81 100">
  <defs>
    <style>
      .cls-1 {
        fill: #fff;
        stroke-width: 0px;
      }
    </style>
  </defs>
  <g id="_레이어_1-2" data-name="레이어 1">
    <g>
      <path class="cls-1" d="M71.64,80.27c7,5.1,6.98,13.63-.55,16.66-5.99,2.41-13.01,3.03-19.58,3.07-13.64.08-27.3-.73-40.94-1.26-1.22-.05-3.16-.4-3.52-1.19-2.92-6.37-5.53-12.87-7.04-19.97,2.92,5.32,6.27,10.46,8.59,16.03,1.4,3.36,3.42,3.84,5.87,2.78,1.45-.63,3.16-2.83,3.15-4.31-.09-12.32-.51-24.63-.93-36.94-.48-14.31-.93-28.61-1.72-42.9-.13-2.28-1.44-5.12-3.17-6.46-1.08-.83-3.97.68-6.03,1.13V0h31.33c-1.19,3.75-2.63,6.15-2.61,8.53.24,23.25.68,46.49,1.2,69.73.1,4.56,9.2,16.96,12.99,17.58,6.97,1.13,12.31-2.2,16.69-7.25,2.19-2.52,4.04-5.33,6.28-8.33Z"/>
      <path class="cls-1" d="M58.33,59.77c1.47,2.95,3.5,5.78,4.19,8.91.38,1.71-1,4.93-2.47,5.65-2,.98-5.32,1-7.18-.1-1.15-.68-1.21-4.34-.69-6.39.69-2.73,2.42-5.19,3.7-7.77.82-.1,1.64-.21,2.46-.31Z"/>
    </g>
  </g>
</svg>