<?xml version="1.0" encoding="UTF-8"?>
<svg id="_레이어_2" data-name="레이어 2" xmlns="http://www.w3.org/2000/svg" viewBox="0 0 60.93 103.16">
  <defs>
    <style>
      .cls-1 {
        fill: #fff;
        stroke-width: 0px;
      }
    </style>
  </defs>
  <g id="_레이어_1-2" data-name="레이어 1">
    <path class="cls-1" d="M54.89,79.54c2.38,6.69,3.96,11.36,5.7,15.98,1.35,3.57-1.48,7.54-5.97,7.59-10.94.12-21.88-.01-32.82-.03-6.43-.01-12.86,0-20.58,0-.25-5.52-.64-10.49-.68-15.46C.31,61.71.17,35.8,0,9.9-.01,6.76,0,3.63,0,0,5.91,0,11.18.01,16.45,0c3.13,0,4.65.96,4.64,4.65-.08,23.15.2,46.3.12,69.45-.01,4.02.95,5.63,5.23,5.52,9.94-.26,19.9-.08,28.45-.08Z"/>
  </g>
</svg>