<?xml version="1.0" encoding="UTF-8"?>
<svg id="_레이어_2" data-name="레이어 2" xmlns="http://www.w3.org/2000/svg" viewBox="0 0 51.44 81.82">
  <defs>
    <style>
      .cls-1 {
        fill: #fff;
        stroke-width: 0px;
      }
    </style>
  </defs>
  <g id="_레이어_1-2" data-name="레이어 1">
    <path class="cls-1" d="M0,81.81C1.14,55.51,2.16,30.6,3.33,5.7,3.56.79,6.68-.8,12.87.36c4.49.84,4.29,3.84,3.3,7.21-.28.95-.56,1.95-.58,2.93-.43,20.12-.82,40.24-1.23,60.36-.08,3.78,2.23,4.15,5.26,4.16,8.47.02,16.93.24,25.4.4,1.16.02,2.47-.1,3.44.38,1.15.58,2.01,1.74,3,2.65-.85.86-1.55,2.1-2.58,2.51-1.5.6-3.24.81-4.87.82-14.41.06-28.83.03-43.99.03Z"/>
  </g>
</svg>