<?xml version="1.0" encoding="UTF-8"?>
<svg id="_레이어_2" data-name="레이어 2" xmlns="http://www.w3.org/2000/svg" viewBox="0 0 56.53 78.45">
  <defs>
    <style>
      .cls-1 {
        fill: #fff;
        stroke-width: 0px;
      }
    </style>
  </defs>
  <g id="_레이어_1-2" data-name="레이어 1">
    <path class="cls-1" d="M.72.48c.99-.2,1.48-.35,1.97-.38,9.28-.47,10.28.39,10.33,9.62.1,16.64.08,33.29.17,49.93.01,2.62.34,5.24.56,8.37,9.41,0,18.36-.02,27.31.01,3.83.02,7.7-.16,11.46.38,1.54.22,3.76,1.95,4,3.29.24,1.36-1.24,3.78-2.6,4.47-2.12,1.07-4.77,1.39-7.2,1.45-14.14.34-28.28.44-42.41.81-3.44.09-4.43-1.43-4.27-4.48.34-6.62.88-13.24.87-19.86-.02-16.64-.31-33.28-.47-49.93-.01-1.13.18-2.26.3-3.7Z"/>
  </g>
</svg>