<?xml version="1.0" encoding="UTF-8"?>
<svg id="_레이어_2" data-name="레이어 2" xmlns="http://www.w3.org/2000/svg" viewBox="0 0 105.71 100">
  <defs>
    <style>
      .cls-1 {
        fill: #fff;
        stroke-width: 0px;
      }
    </style>
  </defs>
  <g id="_레이어_1-2" data-name="레이어 1">
    <g>
      <path class="cls-1" d="M3.71,2.79V0h61.06c.07,1.01.15,2.17.26,3.69-2.91.14-5.61.29-8.31.39-2.66.1-5.32.08-7.98.24-2.1.12-3.72,1.12-4.44,3.2-.59,1.69-1.28,3.38-1.56,5.12-.59,3.82-1.32,7.67-1.33,11.51-.03,14.86.19,29.72.34,44.58.07,6.39.15,12.78.34,19.17.04,1.41-.38,3.16,1.29,3.82-.17.51-.59,1.3-.44,1.44.99.87,2.07,2.22,3.18,2.28,9.02.48,18.08.56,26.93-1.5,2.59-.6,5.18-2.2,7.23-3.97,8.84-7.64,13.19-17.93,16.33-28.85.18-.62.33-1.25.5-1.87.6-2.12,1.81-3.29,4.21-2.98,1.34.17,2.71.03,4.37.03,0,.98.03,1.87,0,2.77-.3,8.34-.16,16.73-1.07,25-.53,4.83-2.67,9.49-4.23,14.18-.19.57-1.33,1.11-2.07,1.15-4.59.29-9.2.61-13.8.6-18.14,0-36.29-.14-54.43-.19-9.72-.02-19.44.05-29.16.08-.28,0-.56-.06-.94-.1v-4.31c2.58-.23,5.06-.45,7.54-.67.64-.06,1.29-.1,1.93-.21,3.6-.61,4.85-1.96,4.89-5.63.09-7.27.16-14.54.12-21.82-.08-15.48-.21-30.96-.39-46.43-.03-2.79-.29-5.61-.74-8.36-.77-4.73-2.77-8.5-8.23-9.06-.41-.04-.81-.28-1.41-.5Z"/>
      <path class="cls-1" d="M58.17,7.96h-8.6c2.61-1.72,6.15-1.75,8.6,0Z"/>
    </g>
  </g>
</svg>