<?xml version="1.0" encoding="UTF-8"?>
<svg id="_레이어_2" data-name="레이어 2" xmlns="http://www.w3.org/2000/svg" viewBox="0 0 101.26 100">
  <defs>
    <style>
      .cls-1 {
        fill: #fff;
        stroke-width: 0px;
      }
    </style>
  </defs>
  <g id="_레이어_1-2" data-name="레이어 1">
    <path class="cls-1" d="M0,5.72C.22,3.84.44,1.95.66,0h45.02v2.55c-3.07.72-6.07,1.11-8.82,2.15-3.51,1.33-6.02,4.06-7.01,7.68-1.13,4.12-2.1,8.34-2.56,12.57-.59,5.34-.72,10.74-.84,16.12-.19,8.27-.34,16.54-.27,24.81.05,6.09.14,12.26,2.07,18.08,1,3.03,2.67,5.97,4.57,8.55,2.1,2.85,6.09,2.69,9.22-.2,2.15-1.99,3.98-4.35,5.85-6.63,5.83-7.13,9.4-15.37,11.84-24.16.25-.91.7-1.76,1.17-2.89h19.12c.28,2.87.42,5.93.9,8.93,1.07,6.72,2.46,13.37,6,19.35,3.03,5.12,7.29,8.53,13.2,9.71.37.07.72.22,1.16.36v2.98c-.67,0-1.28,0-1.89,0-9.24,0-18.48.08-27.72-.02-12.7-.13-25.41-.09-38.09-.71-7.92-.39-14.53-4.11-19.62-10.41C4.74,77.46,1.01,64.21.57,49.91c-.25-8.06.28-16.1,3.3-23.75,1.1-2.79,2.47-5.53,3.1-8.42.5-2.3.02-4.8.04-7.21,0-1.46-.86-2.22-2.03-2.74-1.57-.7-3.18-1.33-4.97-2.07Z"/>
  </g>
</svg>