<?xml version="1.0" encoding="UTF-8"?>
<svg id="_레이어_2" data-name="레이어 2" xmlns="http://www.w3.org/2000/svg" viewBox="0 0 99.84 100">
  <defs>
    <style>
      .cls-1 {
        fill: #fff;
        stroke-width: 0px;
      }
    </style>
  </defs>
  <g id="_레이어_1-2" data-name="레이어 1">
    <g>
      <path class="cls-1" d="M56.97,100c.61-9.57,1.17-18.42,1.77-27.93h41.1v27.93h-42.87Z"/>
      <path class="cls-1" d="M2.48,73.19h40.98c-.4-.42-.07-.24-.07-.05.14,7.56.17,15.13.41,22.69.09,2.82-1.01,4.03-3.74,4.03-13.08-.01-26.17,0-40.07,0,.86-9.23,1.62-17.44,2.48-26.66Z"/>
      <path class="cls-1" d="M95.84,24.02c-15.26.57-29.86,1.11-44.71,1.66V.27c7.83,0,15.75.03,23.67-.01,5.66-.03,11.32-.11,16.97-.26,2.76-.07,4.29.64,4.2,3.89-.13,4.75.27,9.51.32,14.26.02,1.89-.28,3.79-.44,5.87Z"/>
    </g>
  </g>
</svg>