<?xml version="1.0" encoding="UTF-8"?>
<svg id="_레이어_2" data-name="레이어 2" xmlns="http://www.w3.org/2000/svg" viewBox="0 0 74 100">
  <defs>
    <style>
      .cls-1 {
        fill: #fff;
        stroke-width: 0px;
      }
    </style>
  </defs>
  <g id="_레이어_1-2" data-name="레이어 1">
    <path class="cls-1" d="M.03,0h30.23c0,2.24.06,4.38,0,6.52-.7,20.77-1.39,41.54-2.18,62.3-.25,6.41-.39,6.65,6.28,6.54,11.64-.19,23.27-.7,34.9-1.09,1.53-.05,3.06-.15,4.75-.23v21.92c-2.02.14-3.53.26-5.04.35-19.15,1.14-38.3,2.16-57.44,3.47-9.4.65-10.38.41-10.6-9.09C.4,68.19.27,45.68.04,23.18-.04,15.65.03,8.11.03,0Z"/>
  </g>
</svg>