<?xml version="1.0" encoding="UTF-8"?>
<svg id="_레이어_2" data-name="레이어 2" xmlns="http://www.w3.org/2000/svg" viewBox="0 0 113.8 100">
  <defs>
    <style>
      .cls-1 {
        fill: #fff;
        stroke-width: 0px;
      }
    </style>
  </defs>
  <g id="_레이어_1-2" data-name="레이어 1">
    <path class="cls-1" d="M9.44,0h33.49c-1.46,3.97.72,9.12-6.51,9.48,0,20.48-.55,41.03.21,61.53.44,11.74,12.58,19.87,24.52,19.65,14.4-.26,23.34-8.03,30.12-19.39,2.8-4.69,4.9-9.81,7.53-15.17-1.56-.09-1.95-.24-2.2-.11-4.78,2.41-10.9,4.08-13.79-.48-2.55-4.01-3.15-10.73-1.8-15.44,3.08-10.69,8.44-20.39,19.26-25.78,2.13-1.06,3.37-3.8,5.43-5.11,1.62-1.03,4.04-1.71,5.79-1.28,1.06.26,2.08,2.9,2.17,4.53,1.03,17.14-3.8,33-11.25,48.14-3.33,6.77-7.18,13.31-11.26,19.66-10.63,16.55-25.77,22.13-45.04,18.87-11.62-1.97-23.49-2.55-35.25-3.64-2.28-.21-4.63.37-6.89.1-1.38-.16-2.65-1.26-3.97-1.94,1.09-1.05,2.02-2.72,3.29-3.04,3.93-.96,7.98-1.47,12-2.03,3.5-.48,5.59-2.05,5.6-5.89.08-20.75.05-41.51.44-62.26.14-7.66-1.97-13.62-8.79-17.58-1.13-.65-1.97-1.79-3.11-2.86ZM101.6,35.14c.16-9.74-1-11.36-4.79-9.61-6.31,2.92-12.77,16.01-10.2,22.23.93,2.24,4.35,3.77,6.95,4.82.99.4,3.86-1.16,4.22-2.33,1.79-5.86,3.04-11.89,3.81-15.11Z"/>
  </g>
</svg>