<?xml version="1.0" encoding="UTF-8"?>
<svg id="_레이어_2" data-name="레이어 2" xmlns="http://www.w3.org/2000/svg" viewBox="0 0 60.2 100">
  <defs>
    <style>
      .cls-1 {
        fill: #fff;
        stroke-width: 0px;
      }
    </style>
  </defs>
  <g id="_레이어_1-2" data-name="레이어 1">
    <path class="cls-1" d="M0,99.54c.41-15.66.97-30.41,1.15-45.16.2-17.02.06-34.04.04-51.07C1.18,1.38,1.29-.05,3.93,0c6.87.14,13.75.05,21.02.05,0,5.3-.08,10.78.02,16.25.2,11.14.65,22.28.7,33.43.03,8.38-.31,16.77-.68,25.14-.14,3.33,1.12,4.3,4.37,4.23,8.76-.19,17.54-.06,26.31-.02,1.47,0,2.93.23,4.54.36v20.06c-19.84,1.57-39.62-1.17-60.2.04Z"/>
  </g>
</svg>