<?xml version="1.0" encoding="UTF-8"?>
<svg id="_레이어_2" data-name="레이어 2" xmlns="http://www.w3.org/2000/svg" viewBox="0 0 87.14 100">
  <defs>
    <style>
      .cls-1 {
        fill: #fff;
        stroke-width: 0px;
      }
    </style>
  </defs>
  <g id="_레이어_1-2" data-name="레이어 1">
    <path class="cls-1" d="M0,.78h30.06v34.96c4.36-.26,8.77-.28,13.09-.92,1.35-.2,2.86-1.84,3.61-3.2,4.44-7.99,8.98-15.94,12.85-24.21,1.92-4.1,4.47-5.99,8.79-6.21,5.31-.27,10.61-.75,16.85-1.2-1.52,5.7-2.48,11.09-4.41,16.11-3.32,8.64-7.29,17.03-10.85,25.57-.48,1.15-.58,2.75-.2,3.93,5.68,17.67,11.47,35.29,17.22,52.94.12.36.06.76.11,1.45h-23.17c-4.28-11.89-8.47-23.8-12.88-35.64-2.47-6.63-2.71-6.63-9.79-6.32-7.27.31-7.83.58-8.29,7.76-.57,8.88-.62,17.79-.98,26.69-.08,2.04-.51,4.07-.74,5.82H0V.78Z"/>
  </g>
</svg>