<?xml version="1.0" encoding="UTF-8"?>
<svg id="_레이어_2" data-name="레이어 2" xmlns="http://www.w3.org/2000/svg" viewBox="0 0 87.44 100">
  <defs>
    <style>
      .cls-1 {
        fill: #fff;
        stroke-width: 0px;
      }
    </style>
  </defs>
  <g id="_레이어_1-2" data-name="레이어 1">
    <path class="cls-1" d="M34.99,75.27c6.94,0,13.11.05,19.28-.01,5.8-.06,11.6-.29,17.4-.3.74,0,1.75.65,2.19,1.3,3.13,4.61,6.06,9.36,9.23,13.94,2.06,2.98,4.45,5.74,4.35,9.75-5.31,0-10.41,0-15.51,0-10.62.01-21.24.08-31.86.03-12.68-.06-25.36-.19-38.04-.39-.62,0-1.36-.78-1.79-1.38-.3-.41-.24-1.14-.23-1.72C.19,65.4.39,34.31.59,3.22c0-.58.07-1.17.13-1.98C11.99.83,23.21.42,34.99,0v75.27Z"/>
  </g>
</svg>