<?xml version="1.0" encoding="UTF-8"?>
<svg id="_레이어_2" data-name="레이어 2" xmlns="http://www.w3.org/2000/svg" viewBox="0 0 51.01 91.1">
  <defs>
    <style>
      .cls-1 {
        fill: #fff;
        stroke-width: 0px;
      }
    </style>
  </defs>
  <g id="_레이어_1-2" data-name="레이어 1">
    <path class="cls-1" d="M15.29,77.11c8.71,0,16.83-.1,24.94.02,12.22.18,11-1.32,10.46,11.02-.04.8-.16,1.59-.27,2.66-1.31.11-2.43.29-3.54.29-14.15-.06-28.31-.19-42.46-.2-2.67,0-4.42-.28-4.41-3.65C.07,58.63.01,29.99,0,1.36,0,1.22.18,1.09.91.02,4.19.02,8.13-.04,12.06.04c3.7.08,2.96,3.04,2.98,5.16.12,12.49.09,24.98.13,37.47.03,9.66.08,19.32.12,28.98,0,1.62,0,3.25,0,5.46Z"/>
  </g>
</svg>