<?xml version="1.0" encoding="UTF-8"?>
<svg id="_레이어_2" data-name="레이어 2" xmlns="http://www.w3.org/2000/svg" viewBox="0 0 51.88 100">
  <defs>
    <style>
      .cls-1 {
        fill: #fff;
        stroke-width: 0px;
      }
    </style>
  </defs>
  <g id="_레이어_1-2" data-name="레이어 1">
    <g>
      <path class="cls-1" d="M7.95,85.58c-.47,2.43-.93,4.86-1.52,7.92,2.57,0,4.96.28,7.25-.08,2.11-.33,4.04,1.89,6.21.14.53-.43,1.94-.41,2.54,0,3.17,2.14,6.69,1.3,10.02,1.18,5.09-.18,10.32,1.2,15.28-1.19.96-.46,1.61.18,4.14,3.04-1.22.76-2.32,1.98-3.53,2.1-3.04.3-6.15-.07-9.2.15-2.91.21-5.79,1.24-8.67,1.18-5.09-.11-10.16-.96-15.25-1.18-4.98-.22-9.98-.05-14.82-.05-1.33-4.4,2.31-6.32,3.6-9.24.44-.44.88-.88,1.7-1.93.13-.4-.13-.19-.38.02.2.2.39.39.59.59.2-.26.43-.51.59-.79.03-.05-.25-.26-.79.19-.82,1.05-1.26,1.49-1.7,1.93-2.35.26-3.63-.88-3.94-3.14-.12-.86-.02-1.76-.02-2.63C.04,56.52.04,29.27.05,2.03c0-.62.11-1.24.18-2.03h8.62c1.92,12.02-1.19,24-.95,36.06.24,12.02.05,24.05.05,36.4,1.47-.13,2.89.18,3.46-.38,3.93-3.88,9.45-5.05,13.76-8.28,1.6-1.2,3.5-.97,5.73.11-1.6,2.23-3.69,2.53-5.73,3.34-2.08.83-3.68,2.85-5.62,4.46.64,1.42,1.21,2.68,2.08,4.62-1.62,0-2.96.41-3.62-.08-2.15-1.6-3.92-1.6-6.44-.45-2.49,1.14-2.74,3.18-3.34,5.65.54-.28,1.09-.56,2.04-1.04-.09.86.1,2.06-.33,2.34-.62.41-1.91-.18-2.49.24-1.27.93-1.51,2.07.5,2.57Z"/>
      <path class="cls-1" d="M8.72,84.36c.15.15.43.37.41.42-.16.29-.38.53-.59.79-.2-.2-.39-.39-.59-.59.26-.21.51-.42.77-.62Z"/>
    </g>
  </g>
</svg>