<?xml version="1.0" encoding="UTF-8"?>
<svg id="_레이어_2" data-name="레이어 2" xmlns="http://www.w3.org/2000/svg" viewBox="0 0 97.69 100">
  <defs>
    <style>
      .cls-1 {
        fill: #fff;
        stroke-width: 0px;
      }
    </style>
  </defs>
  <g id="_레이어_1-2" data-name="레이어 1">
    <g>
      <path class="cls-1" d="M14.36,99.82c-3.22-.56-5.38-1.26-7.53-1.21-2.13.04-4.25.83-6.83,1.4V0h67.31c.64,4.13,1.31,8.46,1.99,12.9-6.27,2.42-13.17,2.83-20.23,2.69-11.02-.22-22.05-.06-33.66-.06,0,7.78.23,15.28-.06,22.77-.32,8.51-1.33,16.99-1.63,25.49-.29,8.44-.06,16.89-.06,25.34,0,.58.25,1.41-.04,1.71-2.62,2.67-.83,5.39.74,8.99Z"/>
      <path class="cls-1" d="M92.44,7.21h5.25v.88h-5.25v-.88Z"/>
    </g>
  </g>
</svg>