<?xml version="1.0" encoding="UTF-8"?>
<svg id="_레이어_2" data-name="레이어 2" xmlns="http://www.w3.org/2000/svg" viewBox="0 0 127.64 100">
  <defs>
    <style>
      .cls-1 {
        fill: #fff;
        stroke-width: 0px;
      }
    </style>
  </defs>
  <g id="_레이어_1-2" data-name="레이어 1">
    <g>
      <path class="cls-1" d="M33.26,83.87c3.08,4.76,3.17,6.3.35,9.19-3.23,3.32-6.22,7.31-11.59,6.9-2.75-.21-5.44-1.24-8.19-1.49-2.93-.27-5.91.11-8.84-.12-2-.16-3.55-1.56-3.26-3.68C2.81,86.71-.11,79.09,0,71.19c.21-15.02.03-30.04.08-45.07.02-5.96-.76-12.02,2.29-17.67,4.88.05,5.72.57,5.74,4.46.05,18.24.28,36.49-.18,54.72-.1,3.98-1.7,8.03-1.42,12.21.07,1.07-.24,2.22.06,3.2.8,2.6,1.5,5.33,2.87,7.64,1.51,2.56,4.4.92,6.66,1.23,4.7.65,8.57-.96,11.88-4.39,1.38-1.43,3.3-2.32,5.29-3.67Z"/>
      <path class="cls-1" d="M56.23,81.84c4.51.81,8,1.41,11.48,2.06,3.73.7,7.79.73,11.07,2.35,3.65,1.81,6.67-.08,9.94.05,3.6.14,7.19.8,11.1,1.28.17,1.22.39,2.71.81,5.65.77-2.14,1.05-2.92,1.55-4.32h13.76c-.61-2.33-1.07-4.13-1.68-6.47,3.74-.45,7.05,0,10.22-1.6,2.54-1.28,3.34.33,3.12,3.87-.28,4.47-.07,8.97-.07,13.98-3.29-.72-5.94-1.35-8.62-1.87-2.74-.53-5.52.69-8.36-1.32-1.61-1.14-4.81.22-7.01-.46-1.92-.6-3.41-.09-5.15-.05-13.86.35-27.73.2-43.28.2,2.98-1.98,4.54-3.02,6.7-4.46-1.1-1.2-2.07-3.22-3.36-3.45-3.29-.6-1.45-2.8-2.23-5.44Z"/>
      <path class="cls-1" d="M41.51,0h6.17c.27.44.76.87.76,1.3.04,12.89.04,25.78.02,38.67,0,2.31-.14,4.41-1.4,6.7-1.02,1.85.12,4.78-.31,7.12-.34,1.8,3.14,3.41.12,5.12,4.48,1.96-1.5,4.6.53,7.38,1.45,1.99.9,5.5,1.04,8.35.14,2.95.05,5.91.02,8.86-.01,1.04.2,2.34-.33,3.06-2.76,3.79-.98,7.32.77,11.39h-9.78c1.85-1.62,2.82-2.46,4.5-3.94v-9.37c0-19.07.11-38.13-.07-57.2-.05-4.88-1.22-9.75-1.44-14.64-.1-2.21-.85-4.56.92-6.89.67-.88-.82-3.41-1.53-5.89Z"/>
      <path class="cls-1" d="M98.16,82h-13.96c4.64-1.67,9.35-1.1,13.96,0Z"/>
    </g>
  </g>
</svg>