<?xml version="1.0" encoding="UTF-8"?>
<svg id="_레이어_2" data-name="레이어 2" xmlns="http://www.w3.org/2000/svg" viewBox="0 0 64.63 100">
  <defs>
    <style>
      .cls-1 {
        fill: #fff;
        stroke-width: 0px;
      }
    </style>
  </defs>
  <g id="_레이어_1-2" data-name="레이어 1">
    <path class="cls-1" d="M14.43,87.77c12.11,0,23.54-.02,34.98.01,4.99.02,10.07-.63,15.22,2.14-.46,2.01-.77,4.51-1.69,6.76-.37.91-2.04,1.74-3.17,1.81-8.8.58-17.6,1-26.41,1.41-2.47.11-4.95.16-7.41-.02-2.76-.2-5.53.63-8.31-1.15-1.43-.92-3.96-.32-5.96-.1-1.2.13-2.31,1.14-3.5,1.23-2.65.2-5.32.06-8.18.06V.2C2.14.14,4.53.05,6.91.02c2.44-.03,4.88,0,7.52,0v87.76Z"/>
  </g>
</svg>