<?xml version="1.0" encoding="UTF-8"?>
<svg id="_레이어_2" data-name="레이어 2" xmlns="http://www.w3.org/2000/svg" viewBox="0 0 118.34 100">
  <defs>
    <style>
      .cls-1 {
        fill: #fff;
        stroke-width: 0px;
      }
    </style>
  </defs>
  <g id="_레이어_1-2" data-name="레이어 1">
    <path class="cls-1" d="M0,98.95c.51-.46.96-1.17,1.55-1.31.92-.22,2-.3,2.89-.03,5.84,1.77,8.32-3.09,11.78-5.94.5-.41.54-1.56.55-2.36.15-26.36.27-52.72.39-79.08,0-.83-.17-1.66-.27-2.53-4.65-.7-9.18-1.43-13.72-2.04-1.99-.27-3.34-.8-2.23-3.6,2.94.52,5.97,1.49,9.01,1.51,12.47.07,24.95.15,37.41-.33,11.88-.46,23.73-1.66,35.61-2.42,6.17-.39,12.36-.5,18.53-.8,2.81-.14,4.2.96,4.5,3.9.29,2.88,1.21,5.69,1.66,8.56.19,1.24-.12,2.57-.65,4.01-7.5-8.04-17.16-8.58-26.75-8.91-7.15-.25-14.36-.23-21.48.37-5.47.46-10.85,2.06-16.28,3.06-2.35.43-3.04,1.7-3.02,4.03.09,11.29.03,22.58,0,33.87-.03,13-.08,26-.12,39,0,2.15,0,4.3,0,6.36,12.02-.3,23.51-.56,34.99-.88,5.32-.15,10.67-.13,15.95-.67,5.31-.55,9.28-3.97,12-8.16,3.41-5.24,6.17-10.94,8.85-16.61,2.38-5.03,4.25-10.29,6.41-15.42.15-.35.81-.49.76-.47-.75,9.36-1.41,18.78-2.34,28.18-.2,2.07-1.46,4.02-2.06,6.07-1.34,4.61-2.58,9.26-3.81,13.7H.34c-.11-.35-.22-.7-.34-1.05Z"/>
  </g>
</svg>