<?xml version="1.0" encoding="UTF-8"?>
<svg id="_레이어_2" data-name="레이어 2" xmlns="http://www.w3.org/2000/svg" viewBox="0 0 41.88 100">
  <defs>
    <style>
      .cls-1 {
        fill: #fff;
        stroke-width: 0px;
      }
    </style>
  </defs>
  <g id="_레이어_1-2" data-name="레이어 1">
    <path class="cls-1" d="M24.11,12.02c1.4-3.23,2.8-6.15,3.93-9.17C28.79.84,30.14-.05,32.13,0c2.57.07,5.13.33,7.7.47,1.43.08,2.24.95,2.01,2.21-.48,2.58-1.17,5.13-1.92,7.64-.97,3.24-2.09,6.44-3.13,9.66-.37,1.16-.55,2.41-1.1,3.47-3.52,6.73-7.53,13.23-10.6,20.15-4.32,9.74-9.79,18.97-12.9,29.28-1.5,4.97-3.79,9.7-4.29,14.95-.16,1.68-.24,3.38-.03,5.25,4.46-3.14,7.08-7.93,10.77-11.76.2.27.41.45.38.52-2.27,5.12-2.4,11.21-6.89,15.32-1.92,1.75-3.79,3.55-6.84,2.54C2.18,98.68-.06,96.92,0,93.48c.07-3.97,0-8.05.91-11.86,2.88-11.95,7.6-23.22,13.17-34.19,4.43-8.71,8.36-17.68,12.4-26.58,1.97-4.34,1.85-4.39-1.46-7.71-.33-.33-.6-.73-.91-1.11Z"/>
  </g>
</svg>