<?xml version="1.0" encoding="UTF-8"?>
<svg id="_레이어_2" data-name="레이어 2" xmlns="http://www.w3.org/2000/svg" viewBox="0 0 160.22 100">
  <defs>
    <style>
      .cls-1 {
        fill: #fff;
        stroke-width: 0px;
      }
    </style>
  </defs>
  <g id="_레이어_1-2" data-name="레이어 1">
    <g>
      <path class="cls-1" d="M56.55,99.89c-16.16,0-32.33-.19-48.49.1-5.53.1-8.13-.9-8.05-7.33.33-27.75.32-55.5,0-83.25C-.07,3.22,2.54,1.83,7.92,1.24c25.99-2.82,25.98-2.94,25.98,23.22,0,13.35.54,26.73-.29,40.03-.41,6.6.81,8.3,7.51,8.16,21.07-.45,42.17.19,63.25-.35,7.86-.21,10.18,1.89,9.92,9.9-.58,17.69-.11,17.7-17.67,17.7-13.35,0-26.71,0-40.06,0Z"/>
      <path class="cls-1" d="M141.54,99.9h-1.05c-17.9,0-21.73-5.51-16.8-23.3,1.01-3.64,2.89-4.17,5.93-4.13,5.23.07,10.47,0,15.7,0q14.93,0,14.89,14.59-.04,12.84-18.68,12.84Z"/>
    </g>
  </g>
</svg>