<?xml version="1.0" encoding="UTF-8"?>
<svg id="_레이어_2" data-name="레이어 2" xmlns="http://www.w3.org/2000/svg" viewBox="0 0 205.07 100">
  <defs>
    <style>
      .cls-1 {
        fill: #fff;
        stroke-width: 0px;
      }
    </style>
  </defs>
  <g id="_레이어_1-2" data-name="레이어 1">
    <path class="cls-1" d="M205.07,70.51c-1.85,9.9-3.61,19.36-5.51,29.49-5.77-1.34-11.86-2.82-17.97-4.17-32.54-7.18-65.46-10.27-98.78-8.91-6.4.26-6.4.16-6.45-6.39-.04-5.86-.02-11.71-.13-17.57-.04-2.05-.4-4.09-.74-7.29-5.21,3.8-9.71,6.88-13.99,10.24-8.57,6.72-16.99,13.64-25.56,20.36-1.46,1.15-3.32,2.02-5.13,2.46-7.21,1.75-14.47,3.28-21.72,4.9-2.8.63-5.58,1.29-9.1.93,1.4-1.84,2.65-3.82,4.22-5.48,19.28-20.35,40.73-38.29,62.2-56.21,11.98-10,23.71-20.31,35.66-30.35,1.49-1.25,3.63-2.43,5.48-2.44,23.58-.13,47.17-.05,70.75,0,1.27,0,2.54.21,3.88.32,1.4,4.39.43,6.71-4.13,8.52-19.61,7.76-38.85,16.49-58.6,23.88-15.94,5.96-15.27,21.21-11.07,32.02,2.65,6.81,9.21,9.52,16.03,10.39,25.03,3.2,49.95,2.65,74.62-3.15,2.17-.51,4.32-1.1,6.01-1.54Z"/>
  </g>
</svg>