<?xml version="1.0" encoding="UTF-8"?>
<svg id="_레이어_2" data-name="레이어 2" xmlns="http://www.w3.org/2000/svg" viewBox="0 0 105.55 100">
  <defs>
    <style>
      .cls-1 {
        fill: #fff;
        stroke-width: 0px;
      }
    </style>
  </defs>
  <g id="_레이어_1-2" data-name="레이어 1">
    <path class="cls-1" d="M83.92,63.52h18.17c-.84,4.48-1.61,8.32-2.26,12.17-.14.86.11,1.8.21,2.7.28,2.38.88,4.77.8,7.14-.13,3.74.75,5.2,4.7,5.98v8.49H.97c-.34-2.87-.62-5.26-.97-8.28,3.49,0,6.58.06,9.66-.01,7.36-.17,13.08-3.79,15.2-9.61.43-1.19.74-2.45.87-3.71.37-3.56.67-7.06,4.48-8.96.65-.32.89-1.47,1.84-3.15-2.18.86-3.54,1.41-5.46,2.17,0-3.46.07-6.89-.01-10.31-.34-13.25-.61-26.49-1.16-39.73-.14-3.36-2.96-5.57-6.32-5.87-5.38-.48-10.77-.91-16.46-1.39V0h48.65v72.66c-1.9.33-2.41-4.82-4.28-.4-.46-.54-.61-.73-.77-.89-.94-.95-1.87-1.92-2.87-2.8-.07-.07-1,.63-.97.68.66,1.26,1.27,2.58,2.16,3.66.52.62,1.69.67,2.27,1.27,1.24,1.28,3,2.62,3.27,4.16,1.35,7.52,7.34,11.5,14.82,9.67,9.55-2.34,15.73-7.53,16.52-17.99.16-2.13,1.57-4.16,2.5-6.49ZM42.61,58.87c-1.17-2.03-2.05-3.67-3.06-5.24-.32-.5-1.19-1.23-1.42-1.12-.59.32-1.36,1.04-1.35,1.6.02,2.24.3,4.48.53,7.18,2.29-1.05,3.95-1.81,5.29-2.43ZM44.58,65.84c-.23-.5-.47-1-.7-1.51-.88-.71-1.68-1.62-2.68-2.02-.3-.12-1.79,1.39-1.66,1.76.42,1.15,1.16,2.48,2.16,3.02.57.31,1.89-.79,2.88-1.25ZM1.65,99.1c.64,0,1.28,0,1.92,0-.07-1.29-.13-2.58-.28-3.86,0-.06-1.18-.09-1.19-.03-.2,1.29-.32,2.6-.45,3.9ZM22.86,12.19c.45-.31.9-.62,1.34-.93l-2.19-2.39c-.36.32-.71.63-1.07.95.64.79,1.28,1.58,1.91,2.37ZM44.65,55.02c-.39-.43-.62-.89-.95-.97-.22-.05-.82.49-.79.71.06.42.44.79.68,1.19.31-.27.62-.54,1.06-.92Z"/>
  </g>
</svg>