<?xml version="1.0" encoding="UTF-8"?>
<svg id="_레이어_2" data-name="레이어 2" xmlns="http://www.w3.org/2000/svg" viewBox="0 0 85.74 100">
  <defs>
    <style>
      .cls-1 {
        fill: #fff;
        stroke-width: 0px;
      }
    </style>
  </defs>
  <g id="_레이어_1-2" data-name="레이어 1">
    <path class="cls-1" d="M50.25,92.39v6.46c-.59.14-1.04.29-1.49.36-3.06.43-3.05.42-3.68-2.59-.5-2.38-1-4.77-1.61-7.12-.14-.53-.72-.94-1.1-1.41-.3.61-.95,1.3-.84,1.82.42,1.97,1.11,3.89,1.65,5.83.29,1.06.48,2.14.73,3.29-2.71.85-4.69.19-6.2-2.48-.49,1.06-.79,1.72-1.33,2.89-7.76,0-15.77-.04-23.79.02-3.21.03-6.42.23-9.62.46-1.48.11-2.23-.22-2.17-1.89.09-2.36.02-4.73.02-7.15.72-.17,1.25-.34,1.79-.41,5.69-.74,8.93-3.87,9.5-9.64.39-3.95.43-7.94.52-11.92.15-6.35.32-12.7.29-19.05-.04-9.85-.27-19.69-.35-29.53-.02-3.1.42-6.23.17-9.31-.14-1.71-.94-3.42-2.77-4.52-2.97-1.78-6.18-1.34-9.55-1.43C.3,3.48.18,2.01,0,0c12.35.73,24.36,1.44,36.74,2.17-.39,1.31-.79,2.51-1.1,3.75-.36,1.47-.89,2.97-.9,4.46-.12,10.4-.16,20.8-.16,31.2,0,14.26.08,28.51.03,42.77,0,1.75.74,2.27,2.17,2.23,7.58-.2,15.17-.46,22.75-.69,2.58-.08,5.17-.19,7.76-.22,1.88-.02,3.24-.78,4.48-2.23,3.91-4.55,5.91-10.08,8.25-15.45.61-1.4,1.15-2.84,1.69-4.28.59-1.56,1.91-1.04,2.82-.75.57.19,1.26,1.29,1.21,1.92-.84,10.64-1.81,21.28-1.56,31.98.08,3.27.04,3.22-3.14,3.1-8.72-.31-17.44-.6-26.17-.84-3.64-.1-4.46-1-3.99-4.65.09-.68.01-1.38.01-2.08h-.63ZM29.56,90.59c-.14-.19-.29-.38-.43-.57-1.09.95-2.18,1.9-3.38,2.93.42.25.51.33.53.31,1.1-.89,2.19-1.78,3.28-2.67ZM18.99,56.82c-.3-.19-.54-.44-.69-.4-.21.06-.52.44-.48.52.13.25.41.41.63.61.15-.2.3-.4.54-.73ZM17.19,10.81c-.16.02-.32.04-.48.06v1.38c.16,0,.32,0,.48,0v-1.45ZM31.48,60.35c-.16-.23-.27-.39-.38-.54-.17.14-.35.29-.52.43.14.13.25.34.41.38.12.03.29-.15.49-.27ZM29.49,97.06c-.1.13-.21.26-.31.39.2.17.39.37.61.5.05.03.24-.2.37-.3-.22-.2-.45-.39-.67-.59ZM29.33,42.7c-.18-.19-.3-.41-.41-.41-.14,0-.34.17-.39.31-.03.09.16.35.27.37.14.02.3-.14.53-.27ZM21.98,46.78c-.46-.23-.65-.39-.74-.35-.14.06-.26.25-.31.41-.02.06.23.26.35.26.17,0,.34-.15.7-.32Z"/>
  </g>
</svg>