<?xml version="1.0" encoding="UTF-8"?>
<svg id="_레이어_2" data-name="레이어 2" xmlns="http://www.w3.org/2000/svg" viewBox="0 0 53.58 89.26">
  <defs>
    <style>
      .cls-1 {
        fill: #fff;
        stroke-width: 0px;
      }
    </style>
  </defs>
  <g id="_레이어_1-2" data-name="레이어 1">
    <path class="cls-1" d="M16.66,73.7c11.03,0,21.17.2,31.3-.1,3.96-.12,5.34.91,5.11,4.95-.21,3.78.36,7.61.52,10.26-4.28,0-9-.04-13.71,0-11.66.1-23.32.15-34.97.43C1.31,89.34-.02,88.34,0,84.48.17,58.16.17,31.84.02,5.52,0,1.45,1.15-.01,5.36,0c11.35.04,11.37-.14,11.37,11.28-.01,18.15-.05,36.31-.07,54.46,0,2.47,0,4.95,0,7.96Z"/>
  </g>
</svg>