<?xml version="1.0" encoding="UTF-8"?>
<svg id="_레이어_2" data-name="레이어 2" xmlns="http://www.w3.org/2000/svg" viewBox="0 0 80.98 100">
  <defs>
    <style>
      .cls-1 {
        fill: #fff;
        stroke-width: 0px;
      }
    </style>
  </defs>
  <g id="_레이어_1-2" data-name="레이어 1">
    <path class="cls-1" d="M0,0h14.68v68.36c0,3.73-.25,7.48.07,11.18.28,3.25,1.19,6.44,1.79,9.45,18.9,3.33,37.86,1.44,57.26,2.07,1.99,2.46,5.25,4.34,7.17,8.27-3.77,1.08-7.17.45-10.49.56-3.48.12-6.96.03-10.44.03h-20.13c-3.48,0-6.97.17-10.43-.05-3.26-.21-7.02-2.06-9.62-.96-3.27,1.37-6.22.71-9.28.95-3.43.27-6.89.06-10.59.06V0Z"/>
  </g>
</svg>