<?xml version="1.0" encoding="UTF-8"?>
<svg id="_레이어_2" data-name="레이어 2" xmlns="http://www.w3.org/2000/svg" viewBox="0 0 63.47 100">
  <defs>
    <style>
      .cls-1 {
        fill: #fff;
        stroke-width: 0px;
      }
    </style>
  </defs>
  <g id="_레이어_1-2" data-name="레이어 1">
    <path class="cls-1" d="M31.19,55.32c-3.65-2.01-5.8-5.57-8.05-8.74-3.2-4.5-6.89-8.44-10.68-12.28-2.05.37-2.26,1.67-2.25,3.33.05,9.26.03,18.53.03,27.79,0,10.33.01,20.65,0,30.98,0,3.15-.42,3.53-3.6,3.57-1.37.02-2.74.06-4.1-.01-1.84-.1-2.15-.9-1.83-2.81.29-1.69.58-3.63,0-5.14-.46-1.22-.04-2.42-.54-3.41-.7-1.37,1.39-2.33.15-3.91-.89-1.14.44-2.72.76-4.11.24-1.01.05-2.12.05-3.18V0c2.62.3,2.68.47,2.16,2.62-.27,1.13-.33,2.34-.33,3.51-.02,21.26.01,42.52-.06,63.78,0,2,.55,4.04-.75,6.08-.56.89.76,2.03,2.54,2.23.13-2.6.05-5.12.06-7.64.01-2.58,0-5.16,0-7.75v-31.44c0-2.58.05-5.16-.01-7.74-.06-2.63.51-5.34-.9-7.82,1.88-2.26.65-4.91.86-7.37.22-2.53.05-5.09.05-7.81,1.31,0,2.41-.22,3.38.04,2.35.63,4.84.5,6.33,3.51,1.4,2.82,3.92,5.22,6.33,7.38,4.26,3.81,6.65,8.61,8.32,13.9.17.55.22,1.15.24,1.72.33,9.14,3.78,17.18,8.83,24.58,2.69,3.95,5.31,7.97,8.6,11.51,1.51,1.62,2.36,3.85,3.54,5.79,2.92,4.81,5.86,9.59,9.7,13.76,1.25,1.35,2.18,3,3.44,4.78-1.99.84-3.77.32-5.37.53-1.38-1.38-2.62-2.73-3.97-3.95-4.74-4.27-7.92-9.79-11.87-14.69-2.34-2.9-4.29-6.12-6.5-9.13-.71-.97-1.69-1.74-2.56-2.59-.69-.68.65-2.27-1.1-2.47-.14-.69.45-1.74-.91-1.82.1-1.71-.93-2.94-1.89-4.13-1.72-2.15-3.9-4-5.25-6.34-1.66-2.89-4.08-4.83-6.41-6.91-.27-.79-.59-1.57-1.08-2.22-.54-.71-1.31-1.23-1.86-1.93-.6-.77-.95-1.76-1.63-2.43-.49-.48-.76-1.59-2.06-1.24.88,3.63,3.9,5.44,6.63,7.82-.26,1.02.09,1.68.78,2.4,1.18,1.24,1.9,3.07,3.26,3.94,1.65,1.06,2,2.89,3.2,4,2.34,2.16,3.41,5.42,6.31,7.04v1.82Z"/>
  </g>
</svg>