<?xml version="1.0" encoding="UTF-8"?>
<svg id="_레이어_2" data-name="레이어 2" xmlns="http://www.w3.org/2000/svg" viewBox="0 0 118.41 100">
  <defs>
    <style>
      .cls-1 {
        fill: #fff;
        stroke-width: 0px;
      }
    </style>
  </defs>
  <g id="_레이어_1-2" data-name="레이어 1">
    <g>
      <path class="cls-1" d="M58.64,17.31c.1-1.58-.22-2.65-2.22-2.65-7.95,0-15.94-.67-23.72,1.64-2.64.79-5.24,1.74-7.42,2.47-.87-2.73-1.8-5.42-2.58-8.15-.74-2.6-2.23-3.74-5.02-3.39-2.1.26-4.25.1-6.38.15-3.89.09-4.45.64-4.7,4.51-.05.71-.2,1.41-.4,2.76-.57-.93-.98-1.3-1.02-1.71-.32-3.03-.51-6.08-.86-9.11-.24-2.1.34-2.93,2.66-2.92,7.68.01,15.37-.26,23.05-.36C45.96.35,61.89.18,77.81,0c1.09-.01,2.18,0,3.43,0,.18,2.41.41,4.6.47,6.79.01.5-.5,1.45-.8,1.46-1.6.07-3.74.52-4.72-.3-2.09-1.77-4.24-.85-6.33-.88-.36,0-1.06,1.74-1.07,2.69-.11,7.87-.11,15.74-.12,23.62-.01,9.35-.14,18.71.05,28.06.08,3.85.66,7.72,1.4,11.51,1.98,10.17,9.92,13.57,19.84,12.88,5.1-.36,9.99-1.63,13.63-5.8.44-.51,2.18-.36,3.04.05,3.72,1.77,7.34,3.75,11.48,5.9.07,1.36.18,3.45.29,5.64-22.6,3.45-45.22,3.97-68.02,3.03-.07,1.34-.12,2.43-.18,3.73-2.78.23-5.28,1.59-8.33.38-1.59-.63-3.87.78-5.77.6-4.82-.45-9.46-2.66-14.42-1.69-1.68.33-3.24,1.21-4.87,1.8-.65.24-1.34.55-2,.53-2.87-.12-5.78-.1-8.58-.63-1.6-.3-2.94-1.84-4.54-2.33-3.04-.94-1.11-2.77-.95-4.24.31-2.88,1.41-4.7,4.91-4.48,2.04.13,4.16-.7,6.21-1.24,3.56-.93,6.28-4.39,6.46-8.78.39-9.69.56-19.4.83-29.1.12-4.35.26-8.69.44-13.04.03-.67.32-1.32.59-2.36.92.85,1.49,1.39,2.57,2.4-.68-5.02,3.64-6.05,5.45-8.88,3.51,1.64,6.1-.06,7.1-4.11,1.5.18,2.94.58,4.3.41.62-.07,1.09-1.27,1.56-1.87,1.62,2.21,4.66,1.94,6.92-1.1.4.58.79,1.14,1.18,1.71.17-.07.33-.13.5-.2-.11-.69-.22-1.39-.36-2.29.77.49,1.41.9,2.38,1.52.06-1.27.1-2.22.15-3.27-1.78,0-3.41.06-5.02-.06-.24-.02-.42-.88-.74-1.63,2.43,0,4.59,0,6.74,0,.86,0,1.74-.19,2.57-.06.51.08.95.6,1.42.92-4.15-.39-3.42,3.62-5.24,5.35,1.04.93,1.84,1.64,2.64,2.35.02-.3.05-.59.07-.89,2.31,0,4.63.07,6.94-.05.57-.03,1.44-.58,1.59-1.07.24-.78,0-1.71-.06-2.85-.75.5-1.16.77-1.39.92-1-1.31-1.92-2.53-2.85-3.74ZM56.09,55.62c.94,2.03,3.71,2.41,6.87.54.64-.38.8-1.54,1.08-2.13-3.02.6-5.51,1.1-7.95,1.59Z"/>
      <path class="cls-1" d="M15.84,23.31c-.51-.24-1.11-.52-1.85-.86.05.61.09,1.16.13,1.72-1.37.57-2.74,1.14-4.11,1.71-.23-.17-.46-.33-.69-.5.73-1.65,1.46-3.3,2.1-4.75,1.88.79,3.38,1.43,4.89,2.07-.06.07-.11.15-.47.6Z"/>
      <path class="cls-1" d="M4.05,78.96c-.63-1.21-1.36-1.97-1.21-2.49.2-.7,1.07-1.2,1.65-1.79.44.59,1.27,1.21,1.22,1.75-.07.71-.83,1.35-1.65,2.53Z"/>
    </g>
  </g>
</svg>