<?xml version="1.0" encoding="UTF-8"?>
<svg id="_레이어_2" data-name="레이어 2" xmlns="http://www.w3.org/2000/svg" viewBox="0 0 112.88 100">
  <defs>
    <style>
      .cls-1 {
        fill: #fff;
        stroke-width: 0px;
      }
    </style>
  </defs>
  <g id="_레이어_1-2" data-name="레이어 1">
    <path class="cls-1" d="M0,97.84c1.43-.76,2.85-1.53,4.28-2.27,12.05-6.25,14.15-17.49,15.24-29.52,1.03-11.37,2.76-22.67,4.14-34.01.53-4.38,1-8.78,1.42-13.17.32-3.29-.69-5.39-4.57-5.29-1.84.05-3.69-.61-6.72-1.17,1.56-1.63,2.56-2.67,3.92-4.09-.14-.61-.41-1.87-.76-3.42,6.71-.41,13.11-.84,19.53-1.19,3.55-.19,7.12-.43,10.67-.29,1.9.07,3.76,1.02,5.67,1.34,1.57.27,3.26.5,4.8.22,7.22-1.29,14.36-3.3,21.63-4.05,9.82-1.02,19.75-1.79,29.5,1.01,1.32.38,2.68.63,4.01.96.04.01.03.24.1.93-5.14,0-10.27-.31-15.34.07-9.73.73-19.42,1.88-29.14,2.79-4.29.4-8.59.67-12.89.98-2.71.2-3.94,1.37-3.96,4.34-.12,17.79-.43,35.59-.65,53.38-.05,4.17,1.95,7.6,5.46,8.67,3.62,1.1,6.92.25,9.75-2.47,6.44-6.2,11.93-12.88,12.24-22.43.02-.58.46-1.14.92-2.21,6.32,8.26,12.09,16.22,11.32,27.01-.5,7.07-1.1,14.14-1.41,21.22-.16,3.44-1.54,4.41-4.96,4.39-24.92-.11-49.84-.03-74.76.03-2.62,0-5.24.26-7.85.39-.54-.72-1.07-1.44-1.61-2.16Z"/>
  </g>
</svg>