<?xml version="1.0" encoding="UTF-8"?>
<svg id="_레이어_2" data-name="레이어 2" xmlns="http://www.w3.org/2000/svg" viewBox="0 0 44.71 100">
  <defs>
    <style>
      .cls-1 {
        fill: #fff;
        stroke-width: 0px;
      }
    </style>
  </defs>
  <g id="_레이어_1-2" data-name="레이어 1">
    <path class="cls-1" d="M4.59.25c3.2,0,6.41.02,9.61-.01C15.24.23,16.27,0,17.3,0c1.89-.01,2.66,1.2,2.49,3.03-.23,2.41-.15,4.85-.17,7.28-.02,2.6,0,5.19,0,7.79,0,5.99,0,11.98,0,17.97,0,5.26,0,10.51.04,15.77.05,5.87.17,11.75.25,17.62.03,2.18.02,4.36.05,6.53.03,2.08,1.42,3.04,3.45,2.91,3.14-.2,6.3-.04,9.45-.14,2.65-.09,5.3-.23,7.94-.53,2.47-.28,3.92.19,3.7,3.65-.23,3.63.11,7.29.17,10.94.03,1.62.06,3.24-.05,4.85-.13,1.89-.94,2.19-2.82,2.12-2.94-.11-5.89.23-8.84.21-3.11-.02-6.21-.23-9.32-.36-.52-.02-1.04-.07-1.56-.07-6.36,0-12.73,0-19.09,0-2.4,0-3.45-1.32-2.83-3.6,1.12-4.04.63-8.17.71-12.26.14-6.99.19-13.98.19-20.96,0-7.4-.11-14.81-.14-22.21-.04-8.65-.03-17.3-.09-25.94-.02-3.53-.21-7.06-.26-10.59C.54.93,1.49.01,4.59.25Z"/>
  </g>
</svg>