<?xml version="1.0" encoding="UTF-8"?>
<svg id="_레이어_2" data-name="레이어 2" xmlns="http://www.w3.org/2000/svg" viewBox="0 0 27.75 93.98">
  <defs>
    <style>
      .cls-1 {
        fill: #fff;
        stroke-width: 0px;
      }
    </style>
  </defs>
  <g id="_레이어_1-2" data-name="레이어 1">
    <path class="cls-1" d="M.03,49.1C.03,38.73-.05,28.36.06,18c.05-4.86.44-9.72.72-14.58C.89,1.47,1.59-.11,3.91,0c2.16.11,3.94,1.04,4.17,3.39.19,1.94-.12,3.93-.1,5.89.11,15.14.25,30.27.35,45.41.05,8.19.12,16.38.02,24.57-.04,2.99,1.02,4.47,4.09,4.43,3.42-.05,6.83.05,10.25,0,3.5-.05,5.01,1.32,5.06,4.75.05,3.65-1.2,4.88-4.73,4.97-4.76.12-9.52.43-14.28.54-6.25.15-7.63-.9-7.74-7.23-.21-12.54-.06-25.09-.06-37.64-.3,0-.61,0-.91,0Z"/>
  </g>
</svg>