<?xml version="1.0" encoding="UTF-8"?>
<svg id="_레이어_2" data-name="레이어 2" xmlns="http://www.w3.org/2000/svg" viewBox="0 0 60.71 86.42">
  <defs>
    <style>
      .cls-1 {
        fill: #fff;
        stroke-width: 0px;
      }
    </style>
  </defs>
  <g id="_레이어_1-2" data-name="레이어 1">
    <path class="cls-1" d="M.39,86.05c-.1-1.78-.26-3.41-.26-5.03C.09,55.69.14,30.36,0,5.03-.02,1.3.53-.55,4.96.14c3.69.58,7.55.12,11.82.12v73.19c13.28,0,26.07-.06,38.86.08,1.72.02,4.82.89,4.91,1.65.4,3.37-.01,6.85-.32,10.27-.03.29-1.43.65-2.2.66-18.32.14-36.64.24-54.95.32-.79,0-1.59-.22-2.68-.38Z"/>
  </g>
</svg>