<?xml version="1.0" encoding="UTF-8"?>
<svg id="_레이어_2" data-name="레이어 2" xmlns="http://www.w3.org/2000/svg" viewBox="0 0 127.16 100">
  <defs>
    <style>
      .cls-1 {
        fill: #fff;
        stroke-width: 0px;
      }
    </style>
  </defs>
  <g id="_레이어_1-2" data-name="레이어 1">
    <path class="cls-1" d="M0,0h118.88v40.92c-1.47,0-2.63,0-3.79,0-13.17-.03-26.34-.06-39.5-.14-.76,0-1.62-.39-2.25-.85-2.72-2-5.78-2.99-9.09-3.43-8.17-1.08-15.77.69-22.88,4.65-7.37,4.11-11.36,10.43-11.85,18.88-.52,9,3.19,15.87,10.49,21.02,7.04,4.97,14.95,5.96,23.26,5.54,5.92-.3,10.97-2.52,15.41-6.4,4.3-3.75,5.97-8.66,6.49-14.12.09-.96.01-1.94.01-3.04h41.99v36.97H.85C.56,66.68.28,33.37,0,0Z"/>
  </g>
</svg>