<?xml version="1.0" encoding="UTF-8"?>
<svg id="_레이어_2" data-name="레이어 2" xmlns="http://www.w3.org/2000/svg" viewBox="0 0 92.88 100">
  <defs>
    <style>
      .cls-1 {
        fill: #fff;
        stroke-width: 0px;
      }
    </style>
  </defs>
  <g id="_레이어_1-2" data-name="레이어 1">
    <path class="cls-1" d="M88.15,70.86h4.73c-.21,1.32-.29,2.57-.62,3.74-2.85,10.31-8.68,18.45-18.72,22.5-6.68,2.69-14,3.06-21.25,2.86-7.39-.2-14.63-1.37-21.47-4.06-6.84-2.69-13.07-6.51-18.24-11.94C3.5,74.4-.24,62.98.01,49.95c.1-5.35.77-10.62,2.49-15.58,2.55-7.34,6.04-14.07,12.02-19.61C23.84,6.14,34.75,1.64,47.05.57c9.34-.81,18.63.01,26.78,5.57.46.31.98.54,1.5.75,3.76,1.52,5.25.51,5.19-3.51-.02-1.09,0-2.19,0-3.22,4.3-.86,8.18,1.8,8.34,5.88.22,5.74.06,11.5.06,17.24-4.46.59-7.22-1.05-9.07-3.13-6.86-7.74-14.59-14.45-25.72-14.63-6.37-.1-12.2,2.19-15.98,7.36-2.12,2.9-3.15,6.81-3.93,10.43-2.59,11.92-1.71,24.06-1.36,36.1.2,6.93.46,13.94,2.73,20.67,3.02,8.96,8.82,13.41,19,14.07,5.56.36,11.07-.15,16.31-2.15,8.08-3.09,12.94-9.3,15.98-17.14.5-1.29.85-2.64,1.29-4.01Z"/>
  </g>
</svg>