<?xml version="1.0" encoding="UTF-8"?>
<svg id="_레이어_2" data-name="레이어 2" xmlns="http://www.w3.org/2000/svg" viewBox="0 0 101.55 100">
  <defs>
    <style>
      .cls-1 {
        fill: #fff;
        stroke-width: 0px;
      }
    </style>
  </defs>
  <g id="_레이어_1-2" data-name="레이어 1">
    <path class="cls-1" d="M101.55,68.22c-8.71,5.93-17.17,11.49-25.41,17.35-6.09,4.34-11.89,9.08-17.83,13.63-.46.35-1.03.82-1.54.8-3.28-.09-6.58-.12-9.82-.55-1.59-.21-3.26-.99-4.58-1.95-8-5.83-16-11.66-23.82-17.73C9.5,72.75,1.57,64.69.21,52.61c-.52-4.56-.05-9.45,1.02-13.94C5.18,22.05,14.72,9.66,30.64,2.86c3.79-1.62,8.13-2.58,12.25-2.68,13.65-.33,27.31-.12,41.26-.12.38,7.74.75,15.23,1.14,23.26-9.15,0-17.83-.13-26.5.04-6.22.13-12.23,1.21-17.54,4.91-10.75,7.5-10.73,18.68.03,26.05,4.04,2.77,7.79,5.97,11.83,8.74.77.53,2.58.41,3.39-.15,2.17-1.51,3.95-3.58,6.11-5.11,1.02-.72,2.83-1.32,3.83-.9,8.64,3.69,17.84,4.05,26.97,4.81,6.45.54,6.46.44,8.15,6.49Z"/>
  </g>
</svg>