<?xml version="1.0" encoding="UTF-8"?>
<svg id="_레이어_2" data-name="레이어 2" xmlns="http://www.w3.org/2000/svg" viewBox="0 0 97.84 100">
  <defs>
    <style>
      .cls-1 {
        fill: #fff;
        stroke-width: 0px;
      }
    </style>
  </defs>
  <g id="_레이어_1-2" data-name="레이어 1">
    <path class="cls-1" d="M87.85,21.77c-5.7,3.61-11.11,7.07-16.58,10.42-.54.33-1.57.16-2.26-.09-6.49-2.33-13.15-3.23-20.04-2.81-7.57.46-13.48,4.14-17.89,9.91-1.52,1.99-2.29,5.51-1.75,7.95,2.17,9.73,8.54,16.88,16.67,21.96,8.99,5.62,22.29,1.02,27.76-8.75,2.14-3.82,3.11-4.16,6.4-1.42,6.01,4.99,11.87,10.17,17.69,15.18-9.43,16.94-22.55,25.28-43.13,25.86-12.42.35-22.25-5.1-31.59-11.64-4.27-2.99-7.13-8.22-10.11-12.77-3.07-4.67-5.22-9.94-8.28-14.62-6.37-9.72-5.76-19.6-1.36-29.68C7.75,21.23,15.64,14.57,24.72,8.85,35.12,2.28,46.49.07,58.49,0c11.25-.06,25.99,10.9,29.35,21.77Z"/>
  </g>
</svg>