<?xml version="1.0" encoding="UTF-8"?>
<svg id="_레이어_2" data-name="레이어 2" xmlns="http://www.w3.org/2000/svg" viewBox="0 0 80.22 100">
  <defs>
    <style>
      .cls-1 {
        fill: #fff;
        stroke-width: 0px;
      }
    </style>
  </defs>
  <g id="_레이어_1-2" data-name="레이어 1">
    <path class="cls-1" d="M.18,49.29C-1.27,31.19,6.19,17.02,21.2,7.05c15.67-10.41,45.46-9.38,56.86,3.7,2.58,2.97,3.11,4.85.12,7.89-8.98,9.11-8.87,9.22-19.47,2.52-10.43-6.6-25.58-3.02-33.75,8.25-13.16,18.16-4.39,47.65,18.46,52.16,6.35,1.25,11.62-.09,16.22-4.52,5.56-5.35,6.73-5.41,12.37-.63,9.74,8.26,9.73,8.34-.37,15.97-17.85,13.48-48.26,8.35-61.49-9.72C2.79,72.59-.64,61.81.18,49.29Z"/>
  </g>
</svg>