<?xml version="1.0" encoding="UTF-8"?>
<svg id="_레이어_2" data-name="레이어 2" xmlns="http://www.w3.org/2000/svg" viewBox="0 0 96.11 100">
  <defs>
    <style>
      .cls-1 {
        fill: #fff;
        stroke-width: 0px;
      }
    </style>
  </defs>
  <g id="_레이어_1-2" data-name="레이어 1">
    <g>
      <path class="cls-1" d="M10.85,64.73c.95-2.92-1.42-5.3-1.32-8.04.1-2.74-2.05-4.47-2.62-6.75.47-.31,1.13-.69,1.19-1.15.85-6.09,2.42-12,5.67-17.21,1.39-2.23,1.05-3.97.9-6.45-7.75,7.04-10.48,15.07-7.76,24.81-1.78-.96-3.44-1.84-5.2-2.78-1.36-6.58,1.22-12.18,3.35-17.99,1.88-5.09,4.83-9.56,8.32-13.36,6.27-6.82,14.23-11.13,23.39-13.43,3.45-.87,7.04-1.54,10.46-2.2,3.02-.58,7.01.28,10.08,1.29,3.82,1.26,8.11.6,11.92,3.34-2.99.63-5.57.58-8.33-.14-5.37-1.41-10.86-1.32-16.26-.06-10.72,2.51-19.7,7.98-27.02,16.23,0,1.53,0,3.1-.79,6.35.27.69.77.42.75.22-.09-.65-.37-1.26-.58-1.89-.23.81-.46,1.63-.16,1.67,4.21-2.75,4.88-6.63,7.95-8.37,4.57-2.59,13.98-6.5,19.42-8.31,6.12-2.04,12.22-1.08,18.29-1.02,2.66.03,5.63,1.71,7.87,3.41,2.58,1.96,4.52,4.77,6.73,7.21-.84-.16-1.87-.06-2.47-.52-5.23-4.04-10.94-6.31-17.71-6.3-13.78.02-24.31,6.41-33.12,16.29-1.49,1.68-2.54,3.9-3.28,6.04-.31.91.69,2.28,1.2,3.75-1.18.85-3.02,1.53-3.65,2.81-.72,1.46-.51,3.46-.42,5.21.24,4.56-.04,9.04,1.07,13.69,1.36,5.68,4.18,10.26,7.78,14.34,3.21,3.65,6.13,8.33,12.07,8.22,1.96,1.97,3.83,4.08,7.35,4.05-4.25-5.35-8.27-10.4-12.28-15.46.25-.3.49-.6.74-.9.85.4,1.72.77,2.55,1.21,4.06,2.14,8.22,3.42,12.96,3.07,4.88-.37,9.81-.08,15.59-.08-3.5,2.61-6.47,3.89-9.89,4.81-3.74,1-7.07.53-10.69-.51,3.09,3.22,7.14,4.77,10.58,7.22,4.36,3.1,9.33,1.58,14.04,2.02,4.7.43,8.74-1.42,12.86-3.24,4.37-1.93,6.7-6.16,10.68-9.02v6.27c-5.31,6.83-12.87,10.67-21.2,13.19-3.23.98-6.41,2.16-9.89,2.3-2.53.1-5.05,1.28-7.55,1.17-2.98-.13-6.01,1.08-9.05-.98-2.23-1.52-5.77,1.14-8.11-1.56-3.84.55-7.14-1.01-10.32-2.8-1.03-.58-1.72-1.75-2.57-2.65,1.28.16,2.64.11,3.84.52,2.36.8,4.55,2.33,6.95,2.7,3.11.48,5.96,3.08,9.96,1.56-3.95-1.81-7.58-3.02-10.72-5-7.91-5-16.04-14.33-20.74-23.66-.74-1.47-1.22-2.67-2.81-3.16Z"/>
      <path class="cls-1" d="M24.36,91.77c-2.52.47-4.88-.52-6.55-1.98-3.88-3.39-7.4-7.19-10.98-10.91-.34-.35-.04-1.3-.04-1.98,2.91,2.68,5.74,5.47,8.75,8.02,2.84,2.4,5.87,4.57,8.82,6.84Z"/>
      <path class="cls-1" d="M59.79,56.62c4.17,0,8.34-.13,12.49.08,1.18.06,2.32,1.1,3.01,2.72-1.47-.48-2.92-1.16-4.43-1.4-1.51-.24-3.1-.08-4.65-.05-1.7.04-3.55-.5-4.85,1.28-.05.08-1.39-.78-2.13-1.2.18-.48.37-.96.55-1.44Z"/>
      <path class="cls-1" d="M69.51,38.07c.72-.46,1.9-1.34,3.19-2.03.9-.48,1.92-.84,2.92-.98.44-.06.97.56,1.46.87-.44.59-.75,1.5-1.33,1.71-2.4.9-3.24,1.85-3.33,4.2-.02.42-.19.84-.3,1.26-.58-.21-1.56-.28-1.68-.65-.45-1.35-.62-2.79-.94-4.39Z"/>
      <path class="cls-1" d="M4.09,72.84c-4.74-2.3-3.98-6.5-4.09-11.59,1.43,1.11,2.08,1.62,2.74,2.13-1.62.06-1.52,1.13-1.18,2.18.8,2.44,1.68,4.86,2.53,7.28Z"/>
      <path class="cls-1" d="M2.74,63.38c2.7.45,5.41.9,8.11,1.35-.57.45-1.07,1.09-1.71,1.31-.91.3-2.33-.41-2.34,1.4-1.35-1.35-2.7-2.7-4.06-4.06Z"/>
      <path class="cls-1" d="M58.17,45.91c2.42-1.41,3.52-2,4.57-2.67.86-.55,1.66-1.2,2.61-1.9.93,3.15-.38,4.04-7.18,4.57Z"/>
      <path class="cls-1" d="M96.11,64.59h-2.27c.4-2.6.8-5.17,1.34-8.7,1.37,3.41.53,6.01.92,8.7Z"/>
      <path class="cls-1" d="M79.79,22.83c2.21-.41,3.11.49,2.7,2.7-.9-.9-1.8-1.8-2.7-2.7Z"/>
      <path class="cls-1" d="M67.85,44.25v-3.58c.23-.03.46-.05.69-.08.17,1.18.34,2.36.51,3.54-.4.04-.8.08-1.2.12Z"/>
      <path class="cls-1" d="M5.44,75.55c-2.02-.12-1.15-1.68-1.35-2.7,2.02.12,1.15,1.68,1.35,2.7Z"/>
      <path class="cls-1" d="M77.08,20.12c.45.45.9.9,1.35,1.35-.45-.45-.9-.9-1.35-1.35Z"/>
      <path class="cls-1" d="M78.43,21.47c.45.45.9.9,1.35,1.35-.45-.45-.9-.9-1.35-1.35Z"/>
      <path class="cls-1" d="M83.73,26.32c-.16.16-.38.44-.43.42-.29-.16-.55-.39-.81-.6.2-.2.4-.4.6-.6.21.26.43.53.64.79Z"/>
      <path class="cls-1" d="M59.51,46.41c-.27.21-.53.42-.8.62-.08-.28-.31-.75-.22-.82.28-.21.67-.28,1.02-.41,0,.2,0,.4,0,.6Z"/>
      <path class="cls-1" d="M80.46,56.62c.15.3.35.59.42.91.02.11-.27.29-.42.44-.15-.3-.35-.59-.42-.91-.02-.11.27-.29.42-.44Z"/>
      <path class="cls-1" d="M6.79,76.9c-.45-.45-.9-.9-1.35-1.35.45.45.9.9,1.35,1.35Z"/>
      <path class="cls-1" d="M8.03,68.22c-.16.16-.38.44-.43.42-.29-.16-.55-.39-.81-.6.2-.2.4-.4.6-.6.21.26.43.53.64.79Z"/>
      <path class="cls-1" d="M9.97,71.68c.28.16.58.32.87.48-.15.15-.33.45-.44.42-.32-.07-.61-.27-.91-.42.15-.15.3-.3.48-.48Z"/>
    </g>
  </g>
</svg>