<?xml version="1.0" encoding="UTF-8"?>
<svg id="_레이어_2" data-name="레이어 2" xmlns="http://www.w3.org/2000/svg" viewBox="0 0 95.57 100">
  <defs>
    <style>
      .cls-1 {
        fill: #fff;
        stroke-width: 0px;
      }
    </style>
  </defs>
  <g id="_레이어_1-2" data-name="레이어 1">
    <g>
      <path class="cls-1" d="M6.87,73.14c3.14,1.34,4.1,4.57,5.48,7.13,1.38,2.55,3.66,3.21,5.73,4.02,2.66,1.04,3.83-1.88,5.66-3.33-.6-.64-1.19-1.28-2.27-2.44-.66,1.2-1.3,2.35-2.23,4.05-3.12-4.43-5.73-7.93-8.07-11.61-.53-.83-.08-2.28-.08-3.45.74.43,1.48.86,2.21,1.29.56-1.1,1.15-2.26,1.75-3.43-1.23-.78-2.64-1.69-4.42-2.82,1.27-.44,2.08-.71,3.24-1.11-.66-2.61-1.09-5.38-2.1-7.91-.68-1.68,2.31-3.3-.41-5.09-.88-.58-.25-3.48-.27-5.33-.02-2.09-.36-4.27.09-6.26.51-2.27,1.82-4.35,2.6-6.58,1.07-3.05,1.97-6.16,2.94-9.25,1-.21,2.27.61,2.86-1.1.64-1.84,1.65-3.55,2.67-5.68-2.09-.15-4.29-.3-7.36-.52,3.14-2.54,5.53-5.11,8.46-6.7,4.75-2.58,9.67-5.24,14.85-6.5,4.29-1.05,9.06-.19,13.61-.03,1.53.05,3.05.58,4.58.78,1.14.15,2.74-.35,3.38.25,4.23,3.91,10.41,3.62,14.75,6.9,5.09,3.86,10.08,8.01,13.15,13.85.59,1.12.77,2.46,1.18,3.83-2.37.87-4.4,1.62-6.17,2.28-6.22-8.98-13.36-15.81-24.28-17.17-2.23-.28-3.99-2.11-6.46-1.5-2.58.64-5.22,1.05-7.86,1.42-2.42.34-4.77.53-7.22,1.18-6.78,1.79-11.36,6.17-15.93,10.86.47,2.75-3.56,2-3.56,4.79,0,2.07-1.38,4.28-2.32,5.99-2.02,3.68-.87,7.25-1.07,10.81-.1,1.79,2.61,3.46.84,5.54-1.59,1.86.38,3.25.66,4.63,1.39,6.82,1.75,10.82,9.43,12.87v5.03c2.39,2.29,4.18,3.91,5.86,5.63,2.35,2.41,4.22,5.57,7.01,7.19,3.13,1.81,6.87,2.94,10.69,2.99,1.88.02,3.76-.09,5.63.03,1.76.12,3.48-.36,5.31.84.98.64,3.17-.89,4.78-.8,5.38.3,9.97-1.83,14.41-4.34,2.88-1.63,5.49-3.74,8.25-5.58,2.73-1.82,5.51-3.56,8.58-5.54.45,2.43-1.14,4.17-2.33,5.78-1.58,2.13-.49,5.34-3.72,6.97-2.28,1.15-4.63,2.62-6.7,4.16-5.92,4.41-12.63,6.85-19.51,9.06-1.7.55-8.6.86-10.53.77-3.51-.16-7.03-.16-10.54-.06-6.05.18-11.89-.11-16.05-5.44-5.36-1.91-9.19-5.9-12.68-10.03-2.8-3.31-6.11-6.55-6.56-11.32ZM16.74,71.73h-2.04.63c-.13-.36-.2-.77-.43-1.07-.07-.09-.56.15-.85.23.22.28.43.56,1.28.83.15.39.31.78.46,1.17.32-.39.63-.78,1.76-2.46-.27.22-.55.44-.82.67.21.21.42.42.63.63.22-.28.46-.54.63-.85.03-.05-.27-.28-1.25.85Z"/>
      <path class="cls-1" d="M12.35,17.44c.04,2.96.46,4.82-1.03,7.1-1.73,2.65-2.36,6-3.6,8.99-2.05,4.96-3.78,9.91-.3,15.51-3.33.4-4.98-1.07-4.67-3.19,1.45-9.69,2.33-19.64,9.59-28.41Z"/>
      <path class="cls-1" d="M9.53,64.61c-2.14-3.41-3.88-6.85-4.16-11.99,4.12,3.94,2.83,8.5,4.16,11.99Z"/>
      <path class="cls-1" d="M2.65,65.59c-1.04-1.16-1.43-1.45-1.6-1.83-.4-.9-.7-1.84-1.04-2.77.59-.18,1.19-.36,1.78-.53.29.96.61,1.92.85,2.89.1.42.02.89.02,2.24Z"/>
      <path class="cls-1" d="M4.06,67.5c-2.11-.12-1.2-1.75-1.41-2.82,2.11.12,1.2,1.75,1.41,2.82Z"/>
      <path class="cls-1" d="M11.1,67.5c-2.11-.12-1.2-1.75-1.41-2.82,2.11.12,1.2,1.75,1.41,2.82Z"/>
      <path class="cls-1" d="M4.06,67.5c2.11.12,1.2,1.75,1.41,2.82-2.11-.12-1.2-1.75-1.41-2.82Z"/>
      <path class="cls-1" d="M6.87,73.14c-2.11-.12-1.2-1.75-1.41-2.82,2.11.12,1.2,1.75,1.41,2.82Z"/>
      <path class="cls-1" d="M16.11,21.01c-.22-.28-.43-.56-.65-.83.3-.09.79-.32.85-.23.22.29.3.7.43,1.07-.21,0-.42,0-.63,0Z"/>
    </g>
  </g>
</svg>