<?xml version="1.0" encoding="UTF-8"?>
<svg id="_레이어_2" data-name="레이어 2" xmlns="http://www.w3.org/2000/svg" viewBox="0 0 114.39 100">
  <defs>
    <style>
      .cls-1 {
        fill: #fff;
        stroke-width: 0px;
      }
    </style>
  </defs>
  <g id="_레이어_1-2" data-name="레이어 1">
    <g>
      <path class="cls-1" d="M24.83,10.45c-3.14,3.82-6.21,7.69-9.44,11.42-.96,1.11-1.27,2.19-1.59,3.6-.59,2.62-2.07,1.4-3.36.08-1.19,3.46-2.36,6.86-3.73,10.84,1.8-.08,3.32,2.2,4.62-1.54.78-2.25,3.17-4.42,7.01-5.71-.68,1.86-.85,3.62-1.48,3.81-2.42.73-2.69,3.27-4.37,4.48-1.9,1.38-2.05,3.88-1.23,4.95,2.24,2.93-.02,4.75-.89,7-1.57-1.08.7-4.6-2.91-4.51-.29,0-.64-2.37-.99-3.77h-3.27c-.19.48-.48.88-.49,1.29-.31,6.81,1.75,13.29,2.72,19.92.3,2.07.85,3.53,2.97,3.93,2.18.41,3.57-.73,4.09-2.71.57-2.18,1.55-1.82,3.19-.51-1.94,2.68-4.21,5.41-2.6,10.16,1.82,3.46,6.57,4.96,10.45,7.47,6.02,3.89,12.05,7.67,19.19,9.64,10.3,2.84,10.19,3.18,20.08,1.31,1.58-.3,3.27-.09,4.91-.03,4.54.14,8.81-1.22,12.85-2.91,4.75-1.99,9.48-3.94,14.68-5.08.04.43.1,1.07.16,1.71-4.41.24-6.84,3.95-10.09,6.09-5.82,3.83-11.92,6.02-18.76,7.48-6,1.28-11.87,1.25-17.73,1.01-9.83-.41-18.59-4.46-26.94-9.48-4.6-2.77-8.11-6.72-11.79-10.48-.89-.91-1.31-2.26-2.03-3.35-3.9-5.88-5.7-12.65-7.81-19.23-.63-1.95.27-4.37.41-6.57.14-2.2.94-4.76.11-6.53-1.06-2.26-.47-3.42.42-5.45,4.04-9.28,9.07-17.83,16.57-24.72,1.91-1.75,4.26-3.03,6.4-4.52.23.31.47.61.7.92Z"/>
      <path class="cls-1" d="M92.62,17.08c-2.05-.67-4.1-1.34-6.88-2.25.01-.01-.53.55-1.1,1.09-3.77,3.58-4.03,3.75-7.68.1-1.52-1.52-3.16-1.43-4.85-1.98-2.66-.86-5.3-1.99-7.66-3.46-2.42-1.51-5.7,1.04-7.64-1.91-4.12,2.56-7.89-1.13-12.26.06.83-1.43,1.27-2.16,2.11-3.54.14-.42-.14-.2-.41.02.21.21.42.42.63.63.22-.28.46-.54.62-.85.03-.05-.27-.28-.84.2-7.48.65-13.23,1.96-18.03,4.62-.71-.63-1.4-1.23-2.31-2.03,5.42-3.42,10.74-6.36,17.26-6.2,2.2.06,4.52.56,6.47-1.31.49-.47,1.85-.27,2.72-.04,6.18,1.68,12.73,1.25,18.81,3.47,1.83.67,4.87.45,5.46,1.6,1.59,3.12,4.16,3.25,6.86,3.79,1.02.2,2.72.88,2.76,1.44.23,3.25,3.33,3.26,4.96,4.86.45.44.68,1.11,1,1.67Z"/>
      <path class="cls-1" d="M93.85,18.6c7.03,2.78,10.45,9.99,16.88,13.8-2.03-.42-4.63-.21-5.96-1.41-2.43-2.17-3.51-.84-5.06.71-.53.54-1.45.69-2.42,1.11-.47-1.9.96-2.21,1.55-2.93,1.2-1.47,1.25-2.84.15-4.33-1.72-2.32-3.43-4.64-5.14-6.96Z"/>
      <path class="cls-1" d="M91.22,32.89h4.22v.7h-4.22v-.7Z"/>
      <path class="cls-1" d="M94.03,18.48c-.47-.47-.94-.94-1.41-1.41.47.47.94.94,1.41,1.41Z"/>
      <path class="cls-1" d="M94.93,28.12c-.29-.16-.6-.33-.91-.5.16-.16.35-.47.46-.44.33.07.63.28.94.44-.16.16-.31.31-.5.5Z"/>
      <path class="cls-1" d="M87,29.02c-.31.16-.61.37-.94.44-.12.03-.31-.28-.46-.44.31-.16.61-.37.94-.44.12-.03.31.28.46.44Z"/>
      <path class="cls-1" d="M84.89,31.13c.16.31.37.61.44.94.03.12-.28.31-.44.46-.16-.31-.37-.61-.44-.94-.03-.12.28-.31.44-.46Z"/>
      <path class="cls-1" d="M113.45,35.96c.19-.19.34-.34.5-.5.15.31.36.61.44.94.03.11-.28.3-.44.46-.17-.3-.33-.61-.5-.9Z"/>
    </g>
  </g>
</svg>