<?xml version="1.0" encoding="UTF-8"?>
<svg id="_레이어_2" data-name="레이어 2" xmlns="http://www.w3.org/2000/svg" viewBox="0 0 131.99 100">
  <defs>
    <style>
      .cls-1 {
        fill: #fff;
        stroke-width: 0px;
      }
    </style>
  </defs>
  <g id="_레이어_1-2" data-name="레이어 1">
    <g>
      <path class="cls-1" d="M81.29,28.34c-1.98-7.67-.63-15.35-1.1-23.82,2.07.64,3.63.9,4.91,1.63.63.36,1.33,1.94,1.06,2.37-2.88,4.56-.72,9.54-1.39,14.26-.94,6.67,1.73,13.57-1.35,20.2-.47,1.02.54,3.49,1.62,4.31,2.82,2.14,2.74,4.87,2.71,7.85-.08,8.35-.03,16.7-.03,24.97,11.3,3.56,22.56,1.28,33.66,1.94,3.29-1.9,6.82-1.67,10.6-1.26v4.07h-41.59c.89,3.02-.41,5.44,1.3,8.12.98,1.54.3,4.2.17,6.34-.02.27-1.21.47-1.82.69-.35-.55-.82-.95-.81-1.33.25-5.37.3-10.66-4.48-14.46-.8-3.84-3.12-7.19-3.03-11.37.21-9.63.41-19.28-.06-28.89-.28-5.72-.92-11.63-4.31-16.69-.25-.37-.2-.95-.48-1.27-8.27-9.37-17.59-17.51-29.46-21.83-3.37-1.22-7.65-.74-11.32-.04-3.03.58-6.37,2.03-8.55,4.14-5.01,4.85-10.54,9.23-14.04,15.59-4.84,8.79-6.13,18.38-5.85,25.74.03.72-.2,1.66.16,2.14,6.6,8.81,11.38,19.32,22.1,24.36,4.04,1.9,8.31,2.93,12.84,3.06,1.73.05,3.44.99,5.56,1.64-1.12,2.33-1.9,3.95-2.65,5.49-10.48,1.64-19.64-2.47-27.98-7.44-7.16-4.26-11.52-11.68-14.48-19.61-.48-1.28-1.6-2.69-1.36-3.81.71-3.33-1.6-5.96-1.6-9.04,0-2.96-.58-6.07.12-8.86,1.67-6.64,2.98-13.32,6.49-19.55,2.69-4.77,7.1-6.96,10.86-9.87,5-3.88,11.53-6.26,17.58-7.23,6.42-1.03,13.4-1.61,20.11.97,5.14,1.98,9.31,5.15,12.31,9.33,1.99,2.77,4.37,5.05,6.45,7.65,2.47,3.1,4.77,6.34,7.15,9.52Z"/>
      <path class="cls-1" d="M38.49,88.22c7.24-.14,7.48.06,7.23,5.95-2.88-1.37-6.23-1.53-7.23-5.95Z"/>
      <path class="cls-1" d="M9.69,83.45c-1.57,4.05-2.78,7.16-4.03,10.39-2.01-7.34-1.62-8.62,4.03-10.39Z"/>
    </g>
  </g>
</svg>