<?xml version="1.0" encoding="UTF-8"?>
<svg id="_레이어_2" data-name="레이어 2" xmlns="http://www.w3.org/2000/svg" viewBox="0 0 46.54 100">
  <defs>
    <style>
      .cls-1 {
        fill: #fff;
        stroke-width: 0px;
      }
    </style>
  </defs>
  <g id="_레이어_1-2" data-name="레이어 1">
    <path class="cls-1" d="M18.12,85.82h28.41c-2.36,4.63-.64,9.36-1.49,14.18H.09v-63.69c0-5.91-.26-11.84.08-17.74C.47,13.18,1.41,7.81,2.13,1.87c2.42,0,5.06-.17,7.67.04,4.75.37,9.26-.75,13.87-1.54,3.4-.58,7-.38,10.45-.03,2.99.3,5.91,1.3,9.24,2.09v15.49c-3.8.25-8,.05-12.18.09-4.27.04-8.53,0-13.06,0v67.82Z"/>
  </g>
</svg>