<?xml version="1.0" encoding="UTF-8"?>
<svg id="_레이어_2" data-name="레이어 2" xmlns="http://www.w3.org/2000/svg" viewBox="0 0 74.18 100">
  <defs>
    <style>
      .cls-1 {
        fill: #fff;
        stroke-width: 0px;
      }
    </style>
  </defs>
  <g id="_레이어_1-2" data-name="레이어 1">
    <g>
      <path class="cls-1" d="M73.16,63.61c-2.56,11.16-5.11,22.32-7.74,33.79C29.36,108.67,4.23,81.49.38,51.26c-.07-.56-.06-1.12-.09-1.68C-1.36,19.48,3.07,6.27,42.96.38c8.03-1.19,16.57.72,24.81,1.69,2.45.29,4.7,2.26,6.41,5.41-3.98-.55-8.1-.61-11.92-1.71C31.12-3.16,2.29,23.75,9.63,55.32c3.23,13.87,11.24,24.96,22.44,33.7,4.19,3.27,8.11,4.45,12.35-.48,5.09-5.92,10.72-11.39,16.19-16.98,3.2-3.27,6.56-6.38,9.84-9.56.9.53,1.8,1.07,2.71,1.6Z"/>
      <path class="cls-1" d="M32.56,39.57c-2.84-2.8-11.61-4.02-9.26-13.7,2.12-8.73,18.33-15.52,25.02-9.48,2.83,2.55,2.54,9.1,2.56,13.84,0,1.19-4.26,2.43-6.59,3.6-3.23,1.62-6.48,3.18-11.73,5.76Z"/>
    </g>
  </g>
</svg>