<?xml version="1.0" encoding="UTF-8"?>
<svg id="_레이어_2" data-name="레이어 2" xmlns="http://www.w3.org/2000/svg" viewBox="0 0 87.51 100">
  <defs>
    <style>
      .cls-1 {
        fill: #fff;
        stroke-width: 0px;
      }
    </style>
  </defs>
  <g id="_레이어_1-2" data-name="레이어 1">
    <path class="cls-1" d="M4.55,62.76c-2.12.58-2.87.42-4.55.08,2.34-1.52,3.97-2.59,5.63-3.66-2.69-8.56-2.17-17.05.75-25.62,3.78-11.05,9.8-20.3,19.94-26.42,2.83-1.71,6.33-2.37,8.98-4.27,3.07-2.2,6.65.03,9.94-2.32,2.37-1.69,6.47,1.17,9.87.15,2.53,3.18,6.73-.33,9.75,2.73,2.18,2.21,6.02,2.7,8.87,4.37,2.97,1.74,5.64,3.97,8.83,6.27-4.09,2.82-7.55,5.49-11.32,7.61-.98.55-2.98-.43-4.4-.99-5.12-1.99-10.12-4.77-15.84-3.76-7.47,1.31-15.2,2.58-20.27,9.05-5.07,6.46-9.19,13.44-8.47,22.22.14,1.66-.05,3.3,1.63,4.32-1.65,2.86,4.44,5.67.07,8.56.83,2.42,1.02,5.41,2.59,7.17,5.74,6.41,12.84,11.03,21.63,11.58,3.63.23,7.06,1.8,11.16.44,3.62-1.2,7.46-1.91,11-3.55.68-.32,1.64-.05,2.1-.05,4.94,5.89,9.72,11.59,15.07,17.96-7,1.26-13.6,2.3-20.12,3.68-3.9.83-7.71,2.07-11.77,1.6-4.48-.52-8.96-1.02-13.42-1.68-4.11-.61-7.76-2.61-11.61-4-4.25-1.54-7.71-4.15-11.46-6.46-4.65-2.87-7.91-6.7-11.17-11.01-3.21-4.22-4.37-8.4-3.41-13.99.14-.65-.18-.39-.51-.13.25.25.49.49.74.74.26-.33.54-.64.74-1,.03-.06-.32-.33-.97.38Z"/>
  </g>
</svg>