<?xml version="1.0" encoding="UTF-8"?>
<svg id="_레이어_2" data-name="레이어 2" xmlns="http://www.w3.org/2000/svg" viewBox="0 0 87.99 100">
  <defs>
    <style>
      .cls-1 {
        fill: #fff;
        stroke-width: 0px;
      }
    </style>
  </defs>
  <g id="_레이어_1-2" data-name="레이어 1">
    <path class="cls-1" d="M87.76,31.24c-2.45.8-4.37,1.43-5.78,1.89-3.88-4.12-7.58-8.07-11.3-11.99-4.99-5.27-11.21-8.97-18.04-10.54-7.5-1.72-15.09-.83-21.98,3.74-9.57,6.35-14.74,15.13-16.88,26.28-.49,2.54-1.57,4.44.13,6.87.57.81.23,2.37.07,3.55-.87,6.19,1.52,11.83,2.95,17.62.1.41.71.66.9,1.07,2.28,4.77,12.91,13.9,17.87,16.01,4.22,1.79,8.81,1.88,12.83,4,.76.4,2.15.43,2.82-.01,2.56-1.7,5.42-.99,8.11-1.49,2.35-.44,4.63-1.64,6.76-2.84,2.37-1.34,4.5-3.1,6.79-4.61,1.5-.98,3.09-1.83,4.29-2.53,1.92,2.05,3.68,3.93,5.57,5.94-.55.77-1.47,2.78-2.99,4.06-3.52,2.94-7.24,5.67-11.08,8.19-1.63,1.07-3.75,1.39-5.66,2.03-1.48.5-2.95,1.2-4.47,1.39-1.9.24-3.85.06-5.78.06-2.65,0-5.32-.12-7.96.02-12.19.63-21.87-4.98-30-13.09-6.77-6.76-12-14.84-14.46-24.35C.42,62.31,0,62.16,0,61.99c0-8.07.04-16.13.07-24.2,2.17-1.86-.56-5.37,2.34-6.99-.02-4.79,3.23-8.13,5.98-11.21,4.39-4.91,9.38-9.44,14.73-13.28,3.33-2.39,7.69-3.61,11.76-4.66C38.89.63,43.1.21,47.24.01c5.82-.27,14.63,3.45,20.51,6.36,7.67,3.8,12.83,9.85,17.66,16.45,1.8,2.46,3.13,5.12,2.35,8.41ZM8.73,54.8c.3-.17.62-.34.93-.52-.16-.16-.36-.48-.48-.45-.34.08-.65.29-.97.45.16.16.32.32.52.52Z"/>
  </g>
</svg>