<?xml version="1.0" encoding="UTF-8"?>
<svg id="_레이어_2" data-name="레이어 2" xmlns="http://www.w3.org/2000/svg" viewBox="0 0 101.45 100">
  <defs>
    <style>
      .cls-1 {
        fill: #fff;
        stroke-width: 0px;
      }
    </style>
  </defs>
  <g id="_레이어_1-2" data-name="레이어 1">
    <path class="cls-1" d="M76.43,61.91h22.51c1.55,4.42-1.35,7.78-2.62,11.17-4.64,12.38-17.86,21.73-31.07,25.25-12.66,3.37-24.38,1.25-35.67-2.77-8.78-3.13-16.04-9.83-20.78-18.42C4.01,68.45-1.14,59.52.22,49.33c1.51-11.25,3.94-22.54,13.21-30.72,5.27-4.65,9.9-9.71,16.45-13.17,4.82-2.55,9.8-2.46,14.55-4.07,4.43-1.51,9.7-2.49,14.14,1.09,6.6-.57,12.25,2.16,18.02,4.85,7.37,3.44,13.48,7.95,17.39,15.38,1.51,2.88,4.7,4.61,6.06,7.99,2.52,6.24,1.99,8-4.25,10.01-1.39.45-2.62,1.65-3.99,1.8-3.1.33-5.97.32-7.83-3.34-2.24-4.4-5.49-8.07-9.57-11.2-8.03-6.15-16-9.54-25.18-8.13-5.48.84-11.2,2.3-15.21,6.91-4.36,5.01-9.29,9.02-11.54,16.24-2.34,7.5-1.45,13.97,1.27,20.16,3.78,8.59,9.53,15.38,19.6,18.31,9.32,2.71,17.12.27,25.23-3.27,5.7-2.49,8.17-6.74,7.86-12.82-.05-.94,0-1.88,0-3.45Z"/>
  </g>
</svg>