<?xml version="1.0" encoding="UTF-8"?>
<svg id="_레이어_2" data-name="레이어 2" xmlns="http://www.w3.org/2000/svg" viewBox="0 0 89.23 100">
  <defs>
    <style>
      .cls-1 {
        fill: #fff;
        stroke-width: 0px;
      }
    </style>
  </defs>
  <g id="_레이어_1-2" data-name="레이어 1">
    <path class="cls-1" d="M69.45,0c5.26,3.18,10.65,1.26,15.85,2.05,1.8,3.5.27,6.08-2.53,8.29-2.88,2.27-5.65,4.71-8.67,6.78-2.82,1.94-4.94,1.97-10.31,1.61-3.66-.24-7.28-.89-10.86-1.32-10.17-1.2-19.61,2.1-27.89,7.98-4.47,3.17-6.57,8.08-8.14,13.41-1.22,4.17-.93,8.28-1.46,12.4-.75,5.88,1.96,10.92,3.15,16.33.1.46.18,1.01.48,1.32,3.58,3.63,6.85,7.68,10.9,10.69,3.13,2.32,7.12,3.83,10.95,4.76,3.13.77,6.8.88,9.86,0,4.94-1.43,10.08-3.2,14.2-6.15,4.35-3.11,8.5-6.97,11.24-12.12,4.88-.16,7.89,3.89,11.76,6.14,1.72,1,1.51,3.04.23,4.59-7.99,9.6-18.11,16.29-29.33,21.47-6.2.19-12.41,3.88-18.61,0-5.53.28-10.43-1.47-14.93-4.58-5.36-3.71-11.17-6.66-14.57-12.88-1.8-3.3-5.01-5.71-6.43-9.6-1.79-4.88-4.09-11.67-4.1-15.88,0-2.55.28-5.13-.05-7.64-1.11-8.52,2.82-15.65,6.76-22.44,6.14-10.6,15.89-16.34,27.92-18.87,6.87-1.45,13.33-2.19,20.23-.04,3.25,1.01,7.12.46,10.63.02,1.23-.15,2.39-1.99,3.28-3.26.47-.68.3-1.82.45-3.05Z"/>
  </g>
</svg>