<?xml version="1.0" encoding="UTF-8"?>
<svg id="_레이어_2" data-name="레이어 2" xmlns="http://www.w3.org/2000/svg" viewBox="0 0 95.12 100">
  <defs>
    <style>
      .cls-1 {
        fill: #fff;
        stroke-width: 0px;
      }
    </style>
  </defs>
  <g id="_레이어_1-2" data-name="레이어 1">
    <path class="cls-1" d="M85.95,15c-3.99,3.42-7.6,6.73-11.47,9.68-.95.73-2.96.75-4.19.3-3.2-1.18-6.29-2.69-9.32-4.28-4.89-2.57-10.62-2.18-15.54-4.6-4.32,1.59-9.01,2.58-12.9,4.91-8.2,4.9-13.16,15.5-15.29,25.2-1.26,5.74,1.28,10.82.31,16.19,3.3,6.2,6,12.87,12.18,16.97,8.35,5.54,17.8,7.88,27.43,6.08,6.35-1.19,12.93-3.53,17.74-8.7,2.16-2.32,4.47-4.5,6.7-6.72,5.66-1.11,10,1.1,13.51,5.37-3.06,4.94-6.81,9.06-11.9,12.39-3.94,2.58-7.04,6.42-11.69,8.25-5.12,2.01-10.18,4.03-15.8,3.96-2.64-.03-5.28-.02-7.93,0-14.82.12-26.91-6.01-36.59-16.8C5.92,77.29,3.17,69.73.12,62.47c.08-12.68-1.71-25.69,6.34-37.01.43-.6.62-1.43,1.16-1.88,4.83-4.08,7.81-9.92,13.29-13.44,6.3-4.05,12.68-7.62,20.29-8.48,2.71-.31,5.36-1.24,8.07-1.51,10.83-1.11,19.82,3.99,28.75,8.99,2.82,1.58,5.25,3.85,7.93,5.86Z"/>
  </g>
</svg>