<?xml version="1.0" encoding="UTF-8"?>
<svg id="_레이어_2" data-name="레이어 2" xmlns="http://www.w3.org/2000/svg" viewBox="0 0 92.35 100">
  <defs>
    <style>
      .cls-1 {
        fill: #fff;
        stroke-width: 0px;
      }
    </style>
  </defs>
  <g id="_레이어_1-2" data-name="레이어 1">
    <path class="cls-1" d="M85.32,80.74c-5.13,4.23-9.16,7.99-13.64,11.14-5.11,3.6-10.82,5.79-17.18,6.75-2.83.43-5.7,1.75-8.59,1.26-10.26-1.75-19.75-4.99-28.17-11.75-4.52-3.63-8.2-7.38-10.56-12.51-2.17-4.73-4.58-9.2-6-14.44-2.19-8.12-.29-16.05-1.2-23.99,2.4-4.89,3.09-10.39,6.05-15.15,3.94-6.33,8.46-11.98,14.93-15.74C27.5,2.52,34.32-.47,42.19.1c2.54.18,5.13.24,7.66-.02,4.83-.49,9.06,1.33,13.3,3.13,5.98,2.53,11.32,6.18,16.61,9.88,1.32.92,11.6,14.88,11.87,16.53.44,2.7.49,5.46.72,8.41-3.75.7-7.31,1.31-10.84,2.04-4.01.83-5.95-1.37-7.1-4.73-.46-1.35-.43-2.95-1.15-4.12-5.06-8.19-11.43-14.65-21.68-15.77-1.42-.15-2.78-.81-4.19-.93-1.88-.17-3.86-.37-5.67.02-5.68,1.23-10.74,4.2-15.16,7.67-5.22,4.09-7.92,10.25-9.59,16.63-.86,3.28-1.41,6.71-1.53,10.09-.25,6.95,3.54,15.31,7.66,21.37,2.85,4.2,6.14,7.6,10.38,10.06,5.95,3.44,11.91,5.43,19.28,3.26,6.12-1.8,11.7-3.91,16.77-7.77,3.69-2.82,4.63-2.52,8.9.38,2.01,1.37,4.06,2.66,6.91,4.52Z"/>
  </g>
</svg>