<?xml version="1.0" encoding="UTF-8"?>
<svg id="_레이어_2" data-name="레이어 2" xmlns="http://www.w3.org/2000/svg" viewBox="0 0 90.11 100">
  <defs>
    <style>
      .cls-1 {
        fill: #fff;
        stroke-width: 0px;
      }
    </style>
  </defs>
  <g id="_레이어_1-2" data-name="레이어 1">
    <path class="cls-1" d="M89.72,28.7c-3.92,2-7.83,4-11.75,6.01-3.8-8.56-10.23-14.49-17.88-18.56-5.65-3-12.2-4.7-18.87-2.04-1.02.41-2.3.11-3.36.46-3.16,1.04-6.45,1.66-8.79,4.55-2.21,2.73-5.32,4.8-7.28,7.68-2.47,3.63-4.81,7.57-4.37,12.35-4.28,11.85.85,27.84,9.38,36.86,6.72,7.11,14.17,10.27,23.81,9.61,7.75-.53,14.37-3.14,19.92-8.48,2.9-2.79,5.69-5.67,8.54-8.52,4.03-.52,7.78-.14,11.05,3.85-1.41,2.33-2.91,4.95-4.54,7.48-4.86,7.51-16.49,16.61-24.75,18.06-5.35.94-10.76,2.69-16.35,1.7-1.95-.35-3.86-.94-5.8-1.4-1.96-.46-3.95-.25-6.02-.77-4.31-1.09-7.59-3.64-11.07-5.86-3.55-2.27-7.6-4.29-9-8.85-6.9-7.12-10.28-16.26-11.9-25.5-1.69-9.61-.14-19.42,3.87-28.72,3.45-8,8.77-14.42,15.27-19.86,4.22-3.53,9.56-5.57,14.84-6.87,11.35-2.8,22.65-3.3,36.52,4.7,7.73,4.45,12.95,11.32,17.23,18.97.42.76.67,1.61,1.31,3.18Z"/>
  </g>
</svg>