<?xml version="1.0" encoding="UTF-8"?>
<svg id="_레이어_2" data-name="레이어 2" xmlns="http://www.w3.org/2000/svg" viewBox="0 0 104.09 100">
  <defs>
    <style>
      .cls-1 {
        fill: #fff;
        stroke-width: 0px;
      }
    </style>
  </defs>
  <g id="_레이어_1-2" data-name="레이어 1">
    <path class="cls-1" d="M78.25,7.23c.27,5.2.5,9.6.7,13.55,4.75,2.25,8.68,4.11,12.46,5.89-1.75,13.49-12.52,12.24-21.03,15.58-1.14-3.58-2.12-6.67-3.22-10.16-8.89-4.52-16.32-.81-23.36,4.51-6.68,5.05-11.57,10.99-8.62,20.58,10.59,5.84,21.14,10.02,31.08-1.79,12.31,9.65,19.72-3.09,30.25-5.35,2.38,2.02,5.08,4.32,7.59,6.46-.21,27.65-29.65,46.61-57.41,43.08-1.5-.19-2.96-.76-4.46-.98C4.73,92.91,8.57,89.37.81,54.91-4.36,31.91,16.12,9.22,34.79,1.82c9.87-3.91,28.51-1.27,43.46,5.41Z"/>
  </g>
</svg>