<?xml version="1.0" encoding="UTF-8"?>
<svg id="_레이어_2" data-name="레이어 2" xmlns="http://www.w3.org/2000/svg" viewBox="0 0 97.72 100">
  <defs>
    <style>
      .cls-1 {
        fill: #fff;
        stroke-width: 0px;
      }
    </style>
  </defs>
  <g id="_레이어_1-2" data-name="레이어 1">
    <path class="cls-1" d="M97.72,100c-2.4-.15-3.87-.15-5.31-.35-6.47-.93-12.97-1.77-19.4-2.95-5.34-.98-10.6-2.39-15.9-3.6-9.55-2.17-18.79-5.45-27.15-10.4-5.8-3.43-10.95-8.14-15.89-12.81-5.74-5.43-9.37-12.5-11.92-19.85-2.54-7.29-2.78-14.94-1.01-22.6C3.86,15.72,12.08,8.99,22.2,4.09,26.41,2.05,30.62-.46,35.66.07c7.46.79,14.92,1.61,22.39,2.35,4.16.41,8.34.7,12.51,1.01,2.22.16,4.58-.02,5.46,2.85-.54,2.55-2.48,3.68-4.73,4.06-2.87.48-5.81.69-8.72.78-8.19.27-16.05,1.66-23.29,5.76-2.37,1.34-4.35,2.72-5.29,5.55-.57,1.74-2.37,3.04-3.19,4.74-1.81,3.74-1.1,7.64-.1,11.46,3.54,13.43,11.62,23.93,22.61,31.79,7.84,5.6,16.69,9.86,25.33,14.25,6.42,3.26,12.12,7.35,17.34,12.22.56.52.8,1.39,1.74,3.11Z"/>
  </g>
</svg>