<?xml version="1.0" encoding="UTF-8"?>
<svg id="_레이어_2" data-name="레이어 2" xmlns="http://www.w3.org/2000/svg" viewBox="0 0 71.97 100">
  <defs>
    <style>
      .cls-1 {
        fill: #fff;
        stroke-width: 0px;
      }
    </style>
  </defs>
  <g id="_레이어_1-2" data-name="레이어 1">
    <path class="cls-1" d="M71.97,65.03c-.29,22.53-14.41,30.74-27.29,34.02-13.76,3.5-31.52-2.91-38.49-15.92C2.1,75.52.51,65.93.1,57.12-.86,36.86,5.25,18.84,21.67,5.66c14.69-11.79,37.95-4.46,41.68,15.44-6.21-2.06-11.85-2.76-16.09-5.57-8.9-5.92-20.78-4.95-25.79,4.57-10.39,19.75-12.5,40.42-1.83,60.84,5.67,10.85,20.34,11.71,30.13,4.19,5.63-4.32,9.02-9.21,10.86-15.49,1.84-6.27,5.41-7.35,11.35-4.61Z"/>
  </g>
</svg>