<?xml version="1.0" encoding="UTF-8"?>
<svg id="_레이어_2" data-name="레이어 2" xmlns="http://www.w3.org/2000/svg" viewBox="0 0 90.31 100">
  <defs>
    <style>
      .cls-1 {
        fill: #fff;
        stroke-width: 0px;
      }
    </style>
  </defs>
  <g id="_레이어_1-2" data-name="레이어 1">
    <path class="cls-1" d="M62.86,88.08c5.32-.48,10.64-1.16,15.97-1.38,3.75-.16,6.57-1.36,8.52-4.66.42-.71,1.58-.99,2.4-1.46.2.98.6,1.98.54,2.95-.11,1.7-.37,3.41-.79,5.07-1.77,7.06-3.97,9.35-11.32,9.98-9.37.8-18.86,1.88-28.18,1.22-16.05-1.13-30.69-6.47-40.78-19.97C.87,68.63-2.43,56.05,1.92,42.33c3.5-11.03,9.56-20.59,18.43-28.14,7.19-6.12,15.9-9.32,24.89-11.34C56.12.41,67.26-.43,78.44.2c9.78.55,9.92,1.05,9.7,11.44-.04,2.09-1.05,3.1-3.37,2.42-9.87-2.87-20.01-2.01-30.02-1.66-17.62.62-31.49,12.62-34.88,27.34-3.72,16.13.62,33.07,13.97,41.73,6.08,3.94,12.83,5.73,19.97,6.16,2.99.18,6.01.03,9.01.03l.04.41Z"/>
  </g>
</svg>