<?xml version="1.0" encoding="UTF-8"?>
<svg id="_레이어_2" data-name="레이어 2" xmlns="http://www.w3.org/2000/svg" viewBox="0 0 64.81 100">
  <defs>
    <style>
      .cls-1 {
        fill: #fff;
        stroke-width: 0px;
      }
    </style>
  </defs>
  <g id="_레이어_1-2" data-name="레이어 1">
    <path class="cls-1" d="M58.5,6.9c-.54,3.49-1.87,6.48-5.41,8.22-3.41-5.43-7.92-8.89-13.71-10.59-6.93-2.04-12.42-.05-17.1,5.59-4.19,5.04-6.62,10.99-7.9,17.23-1.7,8.26-2.62,16.62-2.51,25.17.11,8.4,1.12,16.48,4.48,24.11,3.54,8.05,8.65,14.89,17.81,17.03,6.27,1.47,12.56,1.04,18.33-2.25,2.23-1.27,4.33-2.79,6.49-4.2.87-.57,1.73-1.15,2.84-1.89.97,1.4,1.81,2.61,2.99,4.33-4.35,2.31-8.26,4.81-12.48,6.52-7.63,3.1-15.54,4.79-23.91,3.26-11.3-2.06-18.66-8.9-22.97-19.09C.21,67.97-.62,55,.36,41.65c.66-9.03,2.78-17.42,7.07-25.25C12.33,7.48,19.76,1.94,29.98.32c7.99-1.26,15.24,1.38,22.52,3.97,1.99.71,3.88,1.67,6,2.6Z"/>
  </g>
</svg>