<?xml version="1.0" encoding="UTF-8"?>
<svg id="_레이어_2" data-name="레이어 2" xmlns="http://www.w3.org/2000/svg" viewBox="0 0 46.06 100">
  <defs>
    <style>
      .cls-1 {
        fill: #fff;
        stroke-width: 0px;
      }
    </style>
  </defs>
  <g id="_레이어_1-2" data-name="레이어 1">
    <path class="cls-1" d="M44.27,66.4c-.73-3.3-1.47-3.48-5.04-3.47-4.61.01-9.21-.36-13.82-.55-2.07-.08-3.03-1.18-3.03-3.19,0-11.34,0-22.68,0-34.51,4.74-.37,9.17-.8,13.61-1.05,6.15-.35,8.32-2.58,7.74-8.56-.17-1.75.4-2.73,1.32-3.43.64-.49,1.02-1.25,1.01-2.05-.03-1.82-.1-3.64-.18-5.46-.06-1.2-.96-2.19-2.14-2.37-5.13-.76-10.27-1.45-15.44-1.72-4.63-.24-9.3.5-13.95.67-3.73.14-7.48-.08-11.2.17C-.12,1.11-.54,2.21.51,5.23c.65,1.87,1.14,3.9,1.15,5.87.14,14.19.07,28.39.19,42.58.09,10.24.39,20.47.53,30.71.07,4.96.01,9.92.01,15.37,14.32.15,28.38.58,42.32-.29,0-9.6.02-18.56-.02-27.52,0-1.86-.03-3.76-.43-5.56Z"/>
  </g>
</svg>