<?xml version="1.0" encoding="UTF-8"?>
<svg id="_레이어_2" data-name="레이어 2" xmlns="http://www.w3.org/2000/svg" viewBox="0 0 64.64 100">
  <defs>
    <style>
      .cls-1 {
        fill: #fff;
        stroke-width: 0px;
      }
    </style>
  </defs>
  <g id="_레이어_1-2" data-name="레이어 1">
    <path class="cls-1" d="M64.3,6.03v19.45c-2.91-1.74-5.48-3.37-8.12-4.85-12.02-6.77-24.66-2.23-31.89,6.36-6.72,7.98-8.5,17.32-7.61,27.48.76,8.6,4.08,15.97,10.34,21.81,6.8,6.34,14.77,8.23,23.7,4.95,5.08-1.86,9.6-4.63,13.93-8.47v20.93c-9.03,5.43-18.79,7.45-29.06,5.72-8.24-1.39-15.3-5.44-21.06-11.6C3.23,75.72-1.32,61.25.33,45.04,1.89,29.57,8.71,16.58,21.26,7.1,27.74,2.21,35.22-.13,43.49,0c7.46.12,14.3,2.07,20.81,6.02Z"/>
  </g>
</svg>