<?xml version="1.0" encoding="UTF-8"?>
<svg id="_레이어_2" data-name="레이어 2" xmlns="http://www.w3.org/2000/svg" viewBox="0 0 189.14 100">
  <defs>
    <style>
      .cls-1 {
        fill: #fff;
        stroke-width: 0px;
      }
    </style>
  </defs>
  <g id="_레이어_1-2" data-name="레이어 1">
    <path class="cls-1" d="M0,.04C7.15.04,13.83-.12,20.48.23c.86.05,2.24,2.67,2.27,4.13.21,9.01.17,18.03.06,27.04-.03,2.79,1.03,3.83,3.77,3.82,22.31-.05,44.63-.03,67.62-.03,0-5.65.18-11.17-.06-16.67-.17-3.96,1.11-6.5,4.06-9.5C104.5,2.61,111.09-.16,120.35.13c21.58.69,43.2.07,64.8.02,1.23,0,2.47.29,3.99.48v23.61h-72.44v50.96h72.4v24.69h-95.18v-40.65H22.78c0,4.62,0,9.14,0,13.65,0,2.29-.4,4.66.06,6.85,1.85,8.83-2.96,14.69-9.51,18.59-3.44,2.05-8.61,1.18-13.33,1.66V.04Z"/>
  </g>
</svg>