<?xml version="1.0" encoding="UTF-8"?>
<svg id="_레이어_2" data-name="레이어 2" xmlns="http://www.w3.org/2000/svg" viewBox="0 0 65.11 100">
  <defs>
    <style>
      .cls-1 {
        fill: #fff;
        stroke-width: 0px;
      }
    </style>
  </defs>
  <g id="_레이어_1-2" data-name="레이어 1">
    <path class="cls-1" d="M57.81,11.61c-6.16,2.52-11.62,4.46-16.81,6.96-5.46,2.63-10.78,5.61-15.92,8.82-1.67,1.04-3.08,3.15-3.72,5.07-4.62,13.88-1.96,27.3,4.04,39.98,2.8,5.93,9.03,8.79,15.46,9.85,6.21,1.03,12.53,1.43,18.81,2.01,2.72.25,5.38-.16,5.44,4.12.1,6.94-.37,8.73-4.94,9.1-13.03,1.03-26.18,3.02-38.92-3.33-3.26,5.96-8.43,6.83-14.01,4.89-4.36-1.52-3.41-5.89-3.5-9.34-.1-3.89-1.1-8.49,5.19-9.36-.55-1.29-.85-2.36-1.41-3.28C-5.23,56.29-.7,38.56,13.14,21.64c6.1-7.45,12.89-14.19,21.84-18.53C41.65-.13,48.65.21,55.63,0c.94-.03,2.69,2.05,2.77,3.24.19,2.95-.38,5.94-.59,8.37Z"/>
  </g>
</svg>