<?xml version="1.0" encoding="UTF-8"?>
<svg id="_레이어_2" data-name="레이어 2" xmlns="http://www.w3.org/2000/svg" viewBox="0 0 138.21 100">
  <defs>
    <style>
      .cls-1 {
        fill: #fff;
        stroke-width: 0px;
      }
    </style>
  </defs>
  <g id="_레이어_1-2" data-name="레이어 1">
    <path class="cls-1" d="M135.53,1.24v25.75h-33.79c-16.45,0-32.9-.04-49.34.01-13.32.05-21.53,8.08-21.49,20.89.04,15.01,6.59,22,20.72,22.01,23.96.02,47.91-.07,71.87.03,14.71.06,14.71.18,14.71,14.9,0,4.59,0,9.19,0,15.12-28.45,0-56.21.13-83.96-.09-6.68-.05-13.57-.41-19.97-2.1C13.07,92.2-.5,71.82.01,47.47.46,26.33,15.99,6.14,36.14,1.51,42.55.03,49.38-.05,56.01.02c22.5.22,44.99.8,67.49,1.21,3.84.07,7.68,0,12.03,0Z"/>
  </g>
</svg>