<?xml version="1.0" encoding="UTF-8"?>
<svg id="_레이어_2" data-name="레이어 2" xmlns="http://www.w3.org/2000/svg" viewBox="0 0 138.71 100">
  <defs>
    <style>
      .cls-1 {
        fill: #fff;
        stroke-width: 0px;
      }
    </style>
  </defs>
  <g id="_레이어_1-2" data-name="레이어 1">
    <path class="cls-1" d="M138.71,70.08v28.83c-2.5.35-4.84.95-7.17.95-27.67.07-55.35.31-83.01-.04-22.48-.28-41.88-17.35-47.32-40.76C-3.69,37.98,6.64,14.46,25.84,5.68,33,2.4,41.39.52,49.27.35c29.32-.61,58.67-.24,88.86-.24v27.35c-15.96,0-32.14-.19-48.31.05-14.84.22-29.77-.02-44.46,1.68-11.22,1.3-17.77,12.1-16.42,23.15,1.43,11.71,8.39,17.71,20.71,17.72,29.36.03,58.72,0,89.07,0Z"/>
  </g>
</svg>