<?xml version="1.0" encoding="UTF-8"?>
<svg id="_레이어_2" data-name="레이어 2" xmlns="http://www.w3.org/2000/svg" viewBox="0 0 86.46 100">
  <defs>
    <style>
      .cls-1 {
        fill: #fff;
        stroke-width: 0px;
      }
    </style>
  </defs>
  <g id="_레이어_1-2" data-name="레이어 1">
    <path class="cls-1" d="M86.46,95.75c-25.72,9.09-50.83,4.81-60.73-24.6-5.46-16.22-10.63-32.55-16.51-48.62C7.18,16.98,3.38,12.08,0,6.22c2.54,1.66,5.58,2.91,7.57,5.11,3.15,3.48,5.39,7.76,8.4,11.39,3.5,4.23,7.42,8.12,11.98,13.05,5.1-16.34,13.09-28.27,28.08-33.21C62.57.42,69.9.58,76.89,0c.91-.08,2.82,1.74,2.75,2.57-.09,1.23-1.31,3.05-2.43,3.41-17.17,5.61-29.83,17.43-41.35,30.52-3.59,4.07-5.86,9.45-1.88,15.21,5.72,8.29,10.71,17.14,16.9,25.05,8.01,10.24,18.96,15.86,32.05,17.01.83.07,1.68.26,2.46.55.32.12.49.63,1.07,1.42Z"/>
  </g>
</svg>