<?xml version="1.0" encoding="UTF-8"?>
<svg id="_레이어_2" data-name="레이어 2" xmlns="http://www.w3.org/2000/svg" viewBox="0 0 71.43 100">
  <defs>
    <style>
      .cls-1 {
        fill: #fff;
        stroke-width: 0px;
      }
    </style>
  </defs>
  <g id="_레이어_1-2" data-name="레이어 1">
    <path class="cls-1" d="M71.43,71.1c-.8-1.32-.48-.97-.54-.87-5.69,8.28-10.26,17.82-17.55,24.32-4.72,4.21-13.42,5.51-20.32,5.45-24.31-.22-38.27-20.47-31.19-44.2,2.46-8.23,5.3-16.35,8.11-24.47C15.15,16.32,26.87,7.88,40.6,1.82c5.19-2.29,10.36-2.94,15.96,1.17,6.05,4.44,9.38,9.29,6.65,16.31-4.18,10.76-9.09,21.23-13.88,31.74-.41.9-2.23,1.15-4.34,2.15-.46-2.59-1.08-4.55-1.12-6.53-.25-10.19-.21-20.39-.56-30.58-.29-8.31-5.96-11.61-12.31-6.13-6.6,5.7-13.16,12.66-16.66,20.45-5.8,12.91-7.98,26.84-1.88,40.9,5.77,13.29,23.93,18.67,35.61,11.85,7.5-4.38,15.43-8,23.37-12.06Z"/>
  </g>
</svg>