<?xml version="1.0" encoding="UTF-8"?>
<svg id="_레이어_2" data-name="레이어 2" xmlns="http://www.w3.org/2000/svg" viewBox="0 0 81.21 87.62">
  <defs>
    <style>
      .cls-1 {
        fill: #fff;
        stroke-width: 0px;
      }
    </style>
  </defs>
  <g id="_레이어_1-2" data-name="레이어 1">
    <path class="cls-1" d="M77.95,63.81c-.99,7.28-4.55,12.88-10.18,16.62-18.44,12.22-52.03,10.23-63.16-16.7C-5.02,40.42-.34,14.21,25.93,2.97c13.42-5.74,38.6-4.17,49.68,13.98,1.51,2.47,3.3,4.76,5.6,8.04-7.31.57-14.06,1.1-21.88,1.71,1.26-2.03,1.86-2.99,2.58-4.16-7.66-5.74-16-8.91-25.6-7.2-11.32,2.02-18.69,10.92-19.54,22.63-.79,10.84.37,20.92,8.93,28.83,8.29,7.66,25.07,8.96,32.05-3.35,1.34-2.36,2.84-3.13,5.66-2.41,4.62,1.19,9.38,1.82,14.54,2.77Z"/>
  </g>
</svg>