<?xml version="1.0" encoding="UTF-8"?>
<svg id="_레이어_2" data-name="레이어 2" xmlns="http://www.w3.org/2000/svg" viewBox="0 0 76.47 90.77">
  <defs>
    <style>
      .cls-1 {
        fill: #fff;
        stroke-width: 0px;
      }
    </style>
  </defs>
  <g id="_레이어_1-2" data-name="레이어 1">
    <path class="cls-1" d="M67.83,70.32c2.19,4.82,4.17,9.19,6.55,14.43-2.64,1.06-5.65,2.66-8.87,3.48-12.65,3.24-25.43,3.95-37.64-1.36C10.57,79.35.24,66.52,0,46.92-.23,27.09,8.18,12.41,26.13,3.47,33.8-.35,42.07-.8,50.01,1.07c7,1.65,13.86,4.68,20.16,8.2,2.89,1.62,4.84,5.67,6.15,9.03.6,1.52-.83,4.92-2.34,5.88-1.4.88-4.55.28-6.21-.79-4.17-2.69-7.82-6.18-11.89-9.05-10.96-7.72-22.29-3.16-30.35,4.05-16.58,14.83-13.34,50.23,14.47,59.98,10.13,3.55,19.2,1.1,26.41-6.96.42-.46,1.01-.77,1.42-1.08Z"/>
  </g>
</svg>