<?xml version="1.0" encoding="UTF-8"?>
<svg id="_레이어_2" data-name="레이어 2" xmlns="http://www.w3.org/2000/svg" viewBox="0 0 80.88 100.8">
  <defs>
    <style>
      .cls-1 {
        fill: #fff;
        stroke-width: 0px;
      }
    </style>
  </defs>
  <g id="_레이어_1-2" data-name="레이어 1">
    <path class="cls-1" d="M76.83,24.58c-2.34-8-8.82-10.34-14.97-12.9-17.02-7.06-35.87.14-41.57,17-5.78,17.08-5.36,34.37,5.77,49.56,10.19,13.92,32.47,16.33,46.21,5.88,2.16-1.64,4.36-4.28,7.06-.56,2.56,3.54,2.01,5.89-1.94,8.52-16.19,10.77-33.74,11.16-50.45,3.33C11.87,88.36,3.15,74.74.79,58.05-.91,46.02-.27,33.9,6.62,23.31,18.14,5.62,34.66-2.23,55.67.54c5.66.75,11.21,2.88,16.61,4.91,8.08,3.04,9.84,8.49,4.55,19.13Z"/>
  </g>
</svg>