<?xml version="1.0" encoding="UTF-8"?>
<svg id="_레이어_2" data-name="레이어 2" xmlns="http://www.w3.org/2000/svg" viewBox="0 0 84.11 97.2">
  <defs>
    <style>
      .cls-1 {
        fill: #fff;
        stroke-width: 0px;
      }
    </style>
  </defs>
  <g id="_레이어_1-2" data-name="레이어 1">
    <path class="cls-1" d="M49.42,0c5.32,1.11,11.67,2.25,17.91,3.83,2.17.55,4.14,2.05,6.06,3.34,2.73,1.84,2,4.29.74,6.62-1.39,2.55-3.45,2.79-5.93,1.52-7.56-3.86-15.36-6-24.03-4.62-15.53,2.47-26.03,13.1-27.92,28.8-2.16,18.01,10.8,38.63,27.59,42.5,11.33,2.61,22.62,2.32,31.57-7.04,2.78-2.91,4.7-2.24,6.38,1.24,3.9,8.08,3.2,11.14-4.61,15.28-18.6,9.85-42.66,7.12-61.33-8.98C1.58,70.17-2.8,53.97,1.69,35.86,5.83,19.18,16.27,7.62,32.96,2.56c4.86-1.47,10.13-1.62,16.46-2.56Z"/>
  </g>
</svg>