<?xml version="1.0" encoding="UTF-8"?>
<svg id="_레이어_2" data-name="레이어 2" xmlns="http://www.w3.org/2000/svg" viewBox="0 0 86.34 100">
  <defs>
    <style>
      .cls-1 {
        fill: #fff;
        stroke-width: 0px;
      }
    </style>
  </defs>
  <g id="_레이어_1-2" data-name="레이어 1">
    <path class="cls-1" d="M85.79,81.85c-.5-.97-1-1.94-1.67-3.25-1.14,1.67-2.18,3.2-3.23,4.74-4.01,5.87-9.67,9.44-16.44,11.03-5.69,1.34-11.58,1.53-17.32.17-8.57-2.04-15.29-6.31-17.65-15.58-1.88-7.39-2.73-14.87-2.73-22.47,0-10.39-.47-20.79,1.4-31.13,1.69-9.31,6.85-15.6,15.54-18.89,7.96-3.02,16.17-2.79,24.33-.71,2.53.64,4.97,1.64,7.6,2.52.09.17.18.34.27.51V2.32c-1.39-.2-2.78-.45-4.16-.78-7.69-1.8-15.41-1.8-23.19-1.14-15.17,1.29-28.32,6.57-38.06,18.9C5.13,26.07,1.34,33.42.35,42.08c-.97,8.51.14,16.83,2.25,25.06,1.44,5.61,3.42,11.02,7.39,15.35,7.8,8.5,17.68,13.47,28.79,15.94,10.57,2.34,21.22,1.82,31.83,0,2.14-.37,3.96-1.26,5.36-2.98.6-.75,1.31-1.41,2.19-2.35.1,1.19.17,1.96.23,2.73,4.02-.82,6.24-3.33,6.73-7.28.18-1.46.67-2.88,1.01-4.31.07.03.14.05.21.08-.07-.89-.14-1.78-.2-2.67-.12.06-.23.13-.35.19Z"/>
  </g>
</svg>