<?xml version="1.0" encoding="UTF-8"?>
<svg id="_레이어_2" data-name="레이어 2" xmlns="http://www.w3.org/2000/svg" viewBox="0 0 80.65 100">
  <defs>
    <style>
      .cls-1 {
        fill: #fff;
        stroke-width: 0px;
      }
    </style>
  </defs>
  <g id="_레이어_1-2" data-name="레이어 1">
    <path class="cls-1" d="M79.09,12.69c-1.49,1.61-2.34,2.61-3.28,3.53q-7.21,7.08-16.57,2.9c-19.19-8.57-38.65,3.06-40.34,24.13-.74,9.24.03,18.19,5.18,26.3,9.6,15.11,26.86,18.54,41.47,8.17,1.68-1.19,3.27-2.49,5.68-4.33,3.24,3.73,6.3,7.27,9.4,10.85-12.85,17.28-40.83,21.06-59.62,7.8C-3.77,74.55-7.57,32.61,14.65,12.25c15.92-14.58,42.72-16.6,59.83-3.6,1.47,1.12,2.79,2.44,4.61,4.04Z"/>
  </g>
</svg>