<?xml version="1.0" encoding="UTF-8"?>
<svg id="_레이어_2" data-name="레이어 2" xmlns="http://www.w3.org/2000/svg" viewBox="0 0 73.27 90.51">
  <defs>
    <style>
      .cls-1 {
        fill: #fff;
        stroke-width: 0px;
      }
    </style>
  </defs>
  <g id="_레이어_1-2" data-name="레이어 1">
    <path class="cls-1" d="M71.1,12.11c-3.7,3.46-7.17,6.72-10.21,9.55-4.85-1.99-9.54-4.99-14.58-5.77-15.03-2.34-24.44,4.25-28.55,18.9-4.44,15.8,2.81,33.5,16.24,39.17,8.48,3.57,16.75,2.75,23.74-3.33,3.38-2.94,5.63-3.14,8.61.05,1.97,2.11,4.31,3.89,6.92,6.19-6.88,7.77-15.13,12.41-25.04,13.39C23.79,92.69,4.21,77.29.69,52.9-1.72,36.22,1.98,21.35,14.87,9.55c14.9-13.63,43.06-12.57,56.22,2.56Z"/>
  </g>
</svg>