<?xml version="1.0" encoding="UTF-8"?>
<svg id="_레이어_2" data-name="레이어 2" xmlns="http://www.w3.org/2000/svg" viewBox="0 0 81.92 100">
  <defs>
    <style>
      .cls-1 {
        fill: #fff;
        stroke-width: 0px;
      }
    </style>
  </defs>
  <g id="_레이어_1-2" data-name="레이어 1">
    <path class="cls-1" d="M73.99,24.81c-8.79-3.34-15.93-7.76-23.46-8.58-20.63-2.24-35.86,15.22-32.31,36.89,1.15,7.02,4.41,14.29,8.59,20.09,9.08,12.59,25.86,14.08,37.81,3.9,3.59-3.06,5.64-2.73,8.41.35,2.02,2.25,4.28,4.3,6.75,6.75-6.01,8.86-14.61,13.58-24.56,15.14-24.34,3.81-41.87-9.62-49.12-24.53C-4.31,53.4-1.17,28.17,13.78,13.7,31.36-3.31,59.48-4.6,78.67,10.49c3.65,2.87,4.63,5.09.83,8.47-2.4,2.14-4.43,4.69-5.51,5.86Z"/>
  </g>
</svg>