<?xml version="1.0" encoding="UTF-8"?>
<svg id="_레이어_2" data-name="레이어 2" xmlns="http://www.w3.org/2000/svg" viewBox="0 0 81.63 88.44">
  <defs>
    <style>
      .cls-1 {
        fill: #fff;
        stroke-width: 0px;
      }
    </style>
  </defs>
  <g id="_레이어_1-2" data-name="레이어 1">
    <path class="cls-1" d="M80.63,20.64c-3.86,2.24-7.47,4.16-10.89,6.37-2.35,1.53-3.48.63-5.01-1.28-8.57-10.78-21.79-13.8-33.96-7.96-11.38,5.47-17.34,17.98-14.72,30.89,2.94,14.46,10.75,22.74,24.19,24.93,10.58,1.72,19.24-2.34,25.63-10.64,2.43-3.16,4.25-3.73,7.46-1.61,2.64,1.74,5.54,3.08,8.28,4.56-7.63,16.63-27.5,25.43-47.78,21.68C15.63,84.22,1.17,67,.09,47.4-1.16,24.6,10.49,7.98,32.19,1.6c17.93-5.27,39.07,2.86,48.44,19.04Z"/>
  </g>
</svg>