<?xml version="1.0" encoding="UTF-8"?>
<svg id="_레이어_2" data-name="레이어 2" xmlns="http://www.w3.org/2000/svg" viewBox="0 0 105.5 100">
  <defs>
    <style>
      .cls-1 {
        fill: #fff;
        stroke-width: 0px;
      }
    </style>
  </defs>
  <g id="_레이어_1-2" data-name="레이어 1">
    <g>
      <path class="cls-1" d="M6.56,79.15c1.64-.12,1.64-1.89,1-2.07-4.39-1.24-4.18-5.07-4.8-8.27-.42-2.18-.2-4.38-1.25-6.58-.82-1.72.58-4.19-1.39-5.87-.21-.18-.11-.84-.02-1.25,1.51-6.71.66-13.84,3.84-20.26,2.34-4.71,4.1-9.78,9.07-12.57,0,.64.28,1.57-.04,1.88-4.35,4.19-4.87,9.91-6.53,15.27-1.47,4.76-1.48,9.52-1.07,14.22.7,8.01,3.64,15.16,10.83,20.7.39.13.19-.12-.02-.38-.19.19-.38.38-.58.58.26.2.5.42.78.57.05.03.26-.25-.18-.77-.59-1.67-.59-2.96-.59-4.25,3.7,1.32,4.84,5.16,6.78,7.87,1.77,2.48,3.92,4.22,6.19,5.54,4.1,2.38,8.34,4.58,12.93,6.17,2.72.94,5.26.91,7.92,1.11,7.59.55,14.62-.7,21.2-5.03,2.75-1.81,6.23-1.78,10.01-.69,5,1.43,10.04,2.78,14.98,4.46.94.32,1.74,1.05,2.8,1.72-4.1,2.33-8.13,3.71-12.72,3.48-1.98-.1-4.3-.96-5.98,1.07-6.15.46-11.94,3.07-18.24,2.82-2.6-.1-5.22.95-7.86,1.16-2.78.22-5.64.36-8.38-.02-4.8-.66-9.65-1.34-13.43-4.99-1.46-1.41-3.12-3.07-4.96-3.51-1.73-.42-3.81.25-5.74-.18-1.59,2.45-2.81-.26-4.22-.3.21-1.35-.47-2.25-1.22-3.34-1.53-2.24-4.48-6.14-6.4-7.33.52,1.54.89,2.63,1.26,3.71-2.05-1.13-4.42-1.85-3.98-4.68ZM15.03,80.45h.58c-.12-.33-.19-.71-.39-.98-.06-.08-.51.13-.78.21.2.26.4.51,1.17.77.43.43.86.86,1.29,1.29.43.43.86.86,1.29,1.29.86.86,1.72,1.72,3.77,3.34-.2-.25-.41-.5-.61-.75-.19.19-.38.38-.58.58.26.2.5.42.78.57.05.03.26-.25-.78-1.15,0-.86,0-1.72-2.63-5.77.88.85,1.75,1.71,2.63,2.56.67.65,1.34,1.29,2.01,1.93.07-3.15-1.5-4.59-2.01-1.3h-2.58c-.43-.43-.86-.86-1.29-1.29-.43-.43-.86-.86-1.87-1.29Z"/>
      <path class="cls-1" d="M12.92,22.28c1.87-2.49,3.67-4.98,5.58-7.39,5.2-6.55,12.87-9.06,20.21-11.91C45.99.15,53.8-.63,61.44.49c5.86.86,11.74,2.3,17.26,4.93,5.61,2.67,10.58,6,15.12,10.29,4.92,4.63,7.93,10.35,11.67,16.75-1.86,0-3.3.45-4.07-.08-2.56-1.76-4.84-3.91-7.28-5.83-4.99-3.93-9.51-8.52-15.28-11.38-3.91-1.94-7.91-3.72-11.93-5.44-.91-.39-2.05-.32-3.08-.33-3.44-.04-6.88.05-10.32-.03-5.2-.12-10,1.59-14.74,3.37-7.03,2.64-12.99,7.19-19.15,11.36-.52.36-1.07.82-1.35,1.37-1.94,3.7-3.82,7.44-5.92,11.55-.62-2.1-1.69-3.82-1.45-5.34.29-1.87,1.61-3.61,2.62-5.32.42-.72,1.28-1.17,1.77-1.86.86-1.2.2-1.81-2.4-2.2Z"/>
      <path class="cls-1" d="M12.55,40.54c1.06,4.64-3.54,8.09-2.41,12.75-2.09-4.86.49-8.73,2.41-12.75Z"/>
      <path class="cls-1" d="M17.74,91.66c-1.57.21-2.34.35-3.12.4-.39.02-1.03-.01-1.14-.23-.56-1.11-.98-2.29-2.01-4.8,2.62,1.93,4.1,3.03,6.27,4.64Z"/>
      <path class="cls-1" d="M14.31,67.52c-2.49-.61-.8-2.61-1.29-3.88,2.49.61.8,2.61,1.29,3.88Z"/>
      <path class="cls-1" d="M11.99,57.79c-.2.09-.66.28-1.12.48-.15-.35-.48-.76-.4-1.05.11-.42.52-.75.81-1.12.15.35.3.71.71,1.7Z"/>
      <path class="cls-1" d="M12.58,60.59c.2,1.37.32,2.22.44,3.06-.43-.5-.93-.96-1.25-1.52-.1-.17.31-.63.81-1.54Z"/>
      <path class="cls-1" d="M14.31,67.52c1.93.11,1.1,1.61,1.29,2.58-1.93-.11-1.1-1.61-1.29-2.58Z"/>
      <path class="cls-1" d="M5.98,79.15c-.2-.26-.4-.51-.6-.77.27-.08.72-.29.78-.21.2.27.27.64.39.98-.19,0-.38,0-.58,0Z"/>
    </g>
  </g>
</svg>