<?xml version="1.0" encoding="UTF-8"?>
<svg id="_레이어_2" data-name="레이어 2" xmlns="http://www.w3.org/2000/svg" viewBox="0 0 88.27 98.36">
  <defs>
    <style>
      .cls-1 {
        fill: #fff;
        stroke-width: 0px;
      }
    </style>
  </defs>
  <g id="_레이어_1-2" data-name="레이어 1">
    <path class="cls-1" d="M88.27,77.87c-7.1,10.4-16.42,18.83-29.1,20.29-11.36,1.31-21.27-4.01-27.54-14.31-3.53-5.8-10.08-3.03-14.81-5.39-.21-.11-1.36,1.66-3.19,3.96.71-14.05,1.36-26.9,2.04-40.39-4.61-.33-10.15-.72-15.68-1.11,0-.54,0-1.08,0-1.62,5.22-.37,10.49-.48,15.65-1.26,1.72-.26,3.61-1.93,4.69-3.48,5.38-7.71,10.02-15.99,15.88-23.29C42.47,3.48,51.64.7,61.5,0c-2.48,2.62-4.91,5.21-7.37,7.77-5.98,6.24-9.22,13.83-11.63,22.02-2.33,7.93-5.63,15.57-8.09,23.47-2.62,8.43-2.64,17.32.59,25.31,2.37,5.85,6.35,12.29,11.47,15.4,4.21,2.55,11.83,2.25,16.72.24,6.88-2.83,12.66-8.35,18.84-12.82,1.85-1.34,3.48-2.99,5.21-4.5.34.33.68.65,1.03.98Z"/>
  </g>
</svg>