<?xml version="1.0" encoding="UTF-8"?>
<svg id="_레이어_2" data-name="레이어 2" xmlns="http://www.w3.org/2000/svg" viewBox="0 0 77.9 100">
  <defs>
    <style>
      .cls-1 {
        fill: #fff;
        stroke-width: 0px;
      }
    </style>
  </defs>
  <g id="_레이어_1-2" data-name="레이어 1">
    <g>
      <path class="cls-1" d="M42.03,89.4c2.22-.51,3.39-.88,4.89-1.34-.87-.42-1.42-.68-1.98-.95,1.38-1.06,3.21-1.52,3.61-3.68.18-1,1.05-1.96,1.82-2.73.77-.77,1.8-1.28,2.72-1.89,2.65-1.76,5.27-3.55,7.98-5.22.33-.2,1.09.31,1.81,1.55.49.43.78.11.71,0-.22-.39-.57-.7-.86-1.05.08.58.17,1.17.15,1.06-.36-2.43.4-3.74,1.51-3.61,1.45.17,2.78-2.4,4.22-.15.06.1.75-.22,1.15-.31,1.08-.25,2.17-.49,3.29-.74,1.03,2.15-.38,3.43-1.17,4.83-.37.65-.97,1.01-1.83.5-.58-.34-1.38-.33-1.93-.7-1.11-.76-1.85,1.63-2.95.26-.06-.08-.2-.1-.31-.14-.72,3.34-5.06,2.46-6.2,5.31-.15.38-.34.75-.8,1.78.99-.41,1.43-.59,2.37-.98-.46,1.29-.8,2.24-1.21,3.41.94-.27,1.78-.32,2.32-.74.49-.38.81-1.14.96-1.79.35-1.51,2.31-1.77,2.5-3.35.63.13,1.26.26,2.22.45.81-.69,1.73-2.33,3.86-1.03-1.72,3.24-2.77,6.84-5.34,9.68-.95,1.04-1.64,2.31-2.55,3.39-3.59,4.3-8.79,5.82-13.69,7.86-.89.37-1.81.75-2.75.87-1.17.15-2.37.04-3.56.04-2.53,0-5.06-.03-7.58,0-5.67.08-10.78-1.64-15.4-4.82-9.3-6.4-14.85-15.24-17.16-26.27-.35-1.67-.22-3.65-.96-4.91-.96-1.64-.31-3.16-.76-4.62-1.84-5.91-.91-11.98-.7-17.92.16-4.55.74-9.3,2.58-13.59,1.79-4.17,3.61-8.48,6.29-12.08C13.97,9.48,20.31,4.94,27.53,1.89c2.02-.85,4.48-.68,6.73-.98.97-.13,2.07.41,2.87-.67.18-.24.84-.29,1.22-.2,5.44,1.27,11.21.9,16.38,3.52,2.69,1.36,5.55,2.38,8.32,3.61,3.44,1.52,6.26,3.73,8.15,7.1,2.1,3.75,4.4,7.4,6.58,11.1.13.22.08.56.12.96-3.67,1.86-7.45,3.57-10.72,6.2-1.5,1.2-3.71.71-4.42-.96-1.83-4.3-4.59-7.69-8.54-10.26-1.78-1.15-2.93-3.24-5.04-4.02-3.38-1.25-6.6-3.09-10.36-2.97-1.12.03-2.18-.19-3.31.69-.75.58-2.78.67-3.36.1-1.78-1.77-3.08-.18-4.06.51-2.47,1.75-4.74,3.82-6.92,5.93-3.85,3.73-5.81,8.96-6.76,14.17-.63,3.48-.62,6.9-.81,10.35-.08,1.51-.27,3.24-1.07,4.42-.79,1.16-.79,2.25-.62,3.31.3,1.81.97,3.51.91,5.44-.05,1.8.28,3.7.87,5.41,1.42,4.18,2.62,8.33,5.42,12.08,2.79,3.74,6.5,5.04,10.41,6.15,1.55.44,3.58-.42,5.29-1,5.12-1.74,10.14-3.71,14.43-7.19.92-.74,2.14-1.1,3.36-1.71-.41,5.25-3.66,8.44-12.08,12.16v2.41h3.58c-.46.77-.73,1.24-2.06,1.86-.43.49-.11.78,0,.71.39-.22.7-.57,1.05-.86-.58.08-1.17.17-1.06.15ZM60.93,8.95c-.08-1.33-1.11-.76-1.92-1q-1.03-.83-2.51,0c1,0,1.82,0,2.65.11.08,1.33,1.11.76,2.5.88-.27,0-.54.02-.82.03l.34,2.63c.2-.02.4-.04.6-.05-.04-.87-.08-1.73-.84-2.59ZM56.61,9.95q1.03.83,2.51,0c-1,0-1.82,0-2.42-.22-.97-1.42-2.33-.53-3.42-.69-.03,0-.12.37-.23.69,1.2,0,2.31,0,3.56.22ZM56.07,16.98h.4c-.08-.23-.13-.49-.27-.68-.04-.06-.35.09-.54.15.14.18.27.35.82.56.53,1.57,1.44,2.78,3.04,3.52,1,.46,1.94,1.12,2.76,1.86,1.55,1.41,2.99,2.95,4.47,4.43-.61-3.17-2.36-5.56-4.73-7.28-1.61-1.17-3.06-3.13-5.95-2.55ZM47.89,87.26c4.48.14,5.72-.59,9.33-5.12-3.68.46-5.79,3.4-9.33,5.12ZM42.22,10.24c-1.92-1.11-3.41.11-4.98.5-1.36.34-2.62,1.26-3.61,2.71,2.63-1.57,6.19-.62,8.59-3.21ZM49.33,12.29v-.45h-2.68v.45h2.68Z"/>
      <path class="cls-1" d="M60.12,67.29c-.55,1.07-1.23,2.39-1.9,3.7-.56,1.09-1.11,2.19-2.36,3.14-.13-1.06-.26-2.11-.28-2.28,1.86-1.87,3.27-3.29,4.54-4.56Z"/>
      <path class="cls-1" d="M63.61,62.97v-2.85c1.04-.43,2.12-.87,3.65-1.5-.25,2.76-1.91,3.35-3.65,4.35Z"/>
      <path class="cls-1" d="M60.93,66.05c-.3.3-.59.59-.89.89.3-.3.59-.59.89-.89Z"/>
      <path class="cls-1" d="M60.93,66.05c.3-.3.59-.59.89-.89-.3.3-.59.59-.89.89Z"/>
      <path class="cls-1" d="M62.34,64.34c.1.1.29.25.28.28-.11.19-.26.36-.4.54-.13-.13-.27-.27-.4-.4.17-.14.35-.28.52-.42Z"/>
      <path class="cls-1" d="M63.61,62.88c-.18.14-.35.27-.53.41-.06-.19-.2-.5-.15-.54.19-.14.45-.19.68-.27,0,.13,0,.27,0,.4Z"/>
    </g>
  </g>
</svg>