<?xml version="1.0" encoding="UTF-8"?>
<svg id="_레이어_2" data-name="레이어 2" xmlns="http://www.w3.org/2000/svg" viewBox="0 0 81.39 100">
  <defs>
    <style>
      .cls-1 {
        fill: #fff;
        stroke-width: 0px;
      }
    </style>
  </defs>
  <g id="_레이어_1-2" data-name="레이어 1">
    <path class="cls-1" d="M81.39,80.12c-.43,2.84-.15,4.71-.95,5.72-4.63,5.79-11.1,9.15-17.79,11.75-8.63,3.36-23.03,3.19-32.24-.44-8.33-3.28-15.97-7.61-17.75-17.65-7.31-9.65-6.11-20.99-5.13-31.76.47-5.12.76-12.24,8-14.48,1.65-3.7,4.48-6.85,4.96-11.12.12-1.1.98-2.11,1.6-3.36-6.55-.98-13.32-1.99-22.08-3.3,2.89-.67,3.97-1.03,5.08-1.14,1.25-.13,2.54-.17,3.78,0,9.75,1.33,18.35-1.7,26.68-6.48,3.5-2.01,7.11-3.89,11.13-5.15,3.59-1.13,7.18-.99,10.6-1.83,5.66-1.39,10.35-2,12.43,4.92,3.1,1.29,6.19,2.58,9.29,3.87-4.78.02-9.73,2.73-14.13-1.04-4.45.75-9.37-1.75-13.41,1.89-12.86,2.19-20.43,10.88-27.41,21.04-5.21,7.59-8.48,15.33-7.28,24.41.57,4.28,1.37,9.51,4.1,12.33,6.54,6.75,11.8,15.32,21.61,18.32,1.1.34,2.05,1.44,3.13,1.53,12.27,1.02,23.96-.86,35.78-8.03Z"/>
  </g>
</svg>