<?xml version="1.0" encoding="UTF-8"?>
<svg id="_레이어_2" data-name="레이어 2" xmlns="http://www.w3.org/2000/svg" viewBox="0 0 85.03 100">
  <defs>
    <style>
      .cls-1 {
        fill: #fff;
        stroke-width: 0px;
      }
    </style>
  </defs>
  <g id="_레이어_1-2" data-name="레이어 1">
    <path class="cls-1" d="M75.87,31.24c-5.05-3.66-8.12-7.97-12.62-10.93-3.54-2.33-7.3-4.09-11.07-4.78-3.64-.67-8.06-1.8-11.61,1.26-13.05.89-18.18,10.79-23.28,20.63-.53,1.01-.23,2.48-.24,3.73-.02,3.84.13,7.69-.04,11.53-.42,9.39,3.65,17.37,9.79,23.51,7.67,7.66,17.76,11.72,28.8,9.63,5.42-1.02,10.41-4.45,15.51-6.95,1.71-.84,3.19-2.17,4.93-3.39,2.9,2.41,5.78,4.81,9,7.49-2.51,4.38-7.31,6.25-11.08,9.17-8.04,6.22-17.59,8.74-27.47,7.6-11.39-1.32-22.13-4.7-30.44-13.72-5.37-5.83-9.88-11.92-13.17-19.18-1.02-2.25-.78-4.28-1.38-6.35-2.16-7.47-1.94-22.74.5-29.39,3.28-8.9,8.73-15.8,16.57-21.58C27.47,2.94,36.98-.65,47.66.1c5.8.41,11.76,1.79,17.36,4.27,6.1,2.7,10.75,6.96,15.11,11.7,1.12,1.22,2.01,2.73,2.7,4.25.76,1.65.75,3.27-.87,4.72-2.07,1.84-3.9,3.94-6.1,6.2Z"/>
  </g>
</svg>