<?xml version="1.0" encoding="UTF-8"?>
<svg id="_레이어_2" data-name="레이어 2" xmlns="http://www.w3.org/2000/svg" viewBox="0 0 85.46 100">
  <defs>
    <style>
      .cls-1 {
        fill: #fff;
        stroke-width: 0px;
      }
    </style>
  </defs>
  <g id="_레이어_1-2" data-name="레이어 1">
    <path class="cls-1" d="M85.46,34.7c-2.71.99-4.78,1.75-6.96,2.54-4.35-4.35-8.64-8.28-12.5-12.6-4.25-4.76-10.08-6.43-15.64-8.42-3.99-1.43-14.36,2.14-17.57,5.37-3.32,3.34-7.01,6.5-9.58,10.38-6.33,9.54-6.47,20.05-3.24,30.71.7,2.32,1.66,4.8,3.22,6.58,3.29,3.74,6.81,7.37,10.68,10.48,3.7,2.97,8.7,3.97,13.11,4.61,8.56,1.23,16.09-2.69,22.98-7.59.64-.46,1.12-1.12,1.7-1.67,4.75-4.54,5.4-4.52,9.94.31,2.83,3.01,2.77,3.26.16,7.13-4.33,6.43-9.05,12.29-16.69,15.14-4.2,1.57-17.69,3.2-21.45,1.79-3.09-1.15-6.31-.73-9.56-1.85-9.86-3.38-17.5-9.47-23.55-17.43-3.82-5.03-6.94-10.56-8.49-17.17C-.28,53.19-.4,53.02.59,43.37c.61-5.96,2.14-11.38,5.1-16.25,5.8-9.54,13.14-17.78,23.51-22.6C35.14,1.76,41.34-.81,48.08.24c9.06,1.41,17.99,3.48,26.15,7.93,1.1.6,2.39,1.34,2.96,2.37,4.07,7.42,7.41,15.12,8.28,24.17ZM54.87,95.11c4.98.93,9.52.14,13.85-2.46,3.37-2.03,3.52-1.76,6.8-7.19-7.04,4.1-12.85,8.98-24.32,10.84,1.12.61,1.69,1.12,1.9,1,.69-.39,1.26-1.01,1.87-1.54-1.04.15-2.08.3-.1-.65Z"/>
  </g>
</svg>