<?xml version="1.0" encoding="UTF-8"?>
<svg id="_레이어_2" data-name="레이어 2" xmlns="http://www.w3.org/2000/svg" viewBox="0 0 84.23 100">
  <defs>
    <style>
      .cls-1 {
        fill: #fff;
        stroke-width: 0px;
      }
    </style>
  </defs>
  <g id="_레이어_1-2" data-name="레이어 1">
    <path class="cls-1" d="M81.49,19.03c-2.82,4.42-8.17,4.97-12.07,7.75-.63.45-2.26-.05-3.17-.57-2.67-1.52-5.55-2.91-7.75-4.98-9.86-9.3-21.43-6.24-30.73,1.17-5.02,4-8.35,9.13-10.15,15.47-.67,2.34-.06,4.6-.78,6.69-.8,2.3-1.15,4.24-.03,6.64,1,2.15-.59,4.78,1.21,7.27,1.3,1.8.52,5.1,1.83,6.89,4.27,5.85,8.54,11.73,15.07,15.54,2.69,1.56,5.22,2.42,8.24,2.24.91-.06,2.18-.28,2.68.21,2.24,2.12,4.82,1.38,7.16.87,5.14-1.13,10.7-3.67,12.5-5.4,2.36-2.27,4.64-4.63,7.13-7.13,4.35.94,8.35,2.66,11.61,6.4-2.6,3.16-5.33,6.34-7.9,9.63-2.87,3.67-6.75,6-10.82,7.85-3.14,1.43-6.61,2.2-10,2.98-2.36.55-5.12-.85-7.14,1.46-3.57-2.72-7.88-1.1-11.81-1.97-14.15-3.13-22.36-13.58-30.77-23.9C3.65,67.25-.23,60.87.01,53.32c.09-2.81-.03-5.62.02-8.43.19-10.31,3.9-19.15,9.92-27.58,3.97-5.55,8.91-9.57,14.54-12.5C30.08,1.91,36.19-.52,42.93.1c3.25.3,6.56.19,9.83,0,2.82-.16,5.27,1.08,7.55,2.16,3.94,1.86,7.77,4.19,11.16,6.92,3.63,2.92,6.7,6.54,10.01,9.85Z"/>
  </g>
</svg>