<?xml version="1.0" encoding="UTF-8"?>
<svg id="_레이어_2" data-name="레이어 2" xmlns="http://www.w3.org/2000/svg" viewBox="0 0 82.08 100">
  <defs>
    <style>
      .cls-1 {
        fill: #fff;
        stroke-width: 0px;
      }
    </style>
  </defs>
  <g id="_레이어_1-2" data-name="레이어 1">
    <g>
      <path class="cls-1" d="M72.5,18.52c-1.76-1.29-2.87-1.7-3.32-2.49-4.79-8.31-10.94-10.32-19.54-7.12-4.31,1.6-9.66.94-13.51,3.12-5.41,3.07-12.03,6.87-14.34,12.05-7.96,17.88-7.68,36.06,3.31,53.13,3.63,5.64,14.35,8.22,21.14,5.92,5.2-1.76,10.71-2.59,16.11-3.84,2.15,12.09.08,14.2-10.05,11.98-6.92-1.51-13.79-3.19-20.69-4.8-.7,1.1-1.41,2.21-2.11,3.31,2.45,1.46,4.9,2.91,7.68,4.57-16.67,2.51-31.89-15.73-35.59-32.24C-2.88,42.11,1.88,24.72,17.89,11.37c3.78-3.15,9.11-4.42,13.63-6.74C40.73-.11,50.22-1.14,60.36,1.21c7.87,1.82,12.75,7.74,12.14,17.31Z"/>
      <path class="cls-1" d="M51.46,98.65c6.25-.51,12.51-1.03,18.76-1.54.04.59.09,1.18.13,1.77-6.26.37-12.53.75-18.79,1.12-.03-.45-.07-.9-.1-1.35Z"/>
      <path class="cls-1" d="M82.08,92.53c-1.2.84-2.39,1.68-3.59,2.52-.24-.33-.48-.66-.72-.99,1.07-.85,2.15-1.71,3.22-2.56.36.35.73.69,1.09,1.04Z"/>
    </g>
  </g>
</svg>