<?xml version="1.0" encoding="UTF-8"?>
<svg id="_레이어_2" data-name="레이어 2" xmlns="http://www.w3.org/2000/svg" viewBox="0 0 54.32 100">
  <defs>
    <style>
      .cls-1 {
        fill: #fff;
        stroke-width: 0px;
      }
    </style>
  </defs>
  <g id="_레이어_1-2" data-name="레이어 1">
    <g>
      <path class="cls-1" d="M39.37,2.56c-3.51,3.65-7.14,6.99-10.25,10.76-3.59,4.34-4.44,9.78-4.81,15.25-.63,9.11,1.1,17.84,3.69,26.57,2.63,8.84,5.94,17.36,10.06,25.58,3.28,6.56,7.95,11.87,14.29,15.65.62.37,1.14.9,1.98,1.58-10.56,3.99-19.82,1.95-28.44-4.22-6.19-4.43-10.55-10.59-13.28-17.39-4.5-11.19-8.07-22.78-11.82-34.26-1.89-5.78.06-11.39,1.86-16.82,2.87-8.63,7.55-16.14,15.1-21.5,7.12-5.06,14.56-4.54,21.64-1.19Z"/>
      <path class="cls-1" d="M43.35,7.32c-1.4,1.63-2.8,3.25-4.47,5.2-.82-2.92.04-3.94,4.47-5.2Z"/>
    </g>
  </g>
</svg>