<?xml version="1.0" encoding="UTF-8"?>
<svg id="_레이어_2" data-name="레이어 2" xmlns="http://www.w3.org/2000/svg" viewBox="0 0 54.45 100">
  <defs>
    <style>
      .cls-1 {
        fill: #fff;
        stroke-width: 0px;
      }
    </style>
  </defs>
  <g id="_레이어_1-2" data-name="레이어 1">
    <path class="cls-1" d="M49.96,8.31c-2.94,0-5.37.05-7.8-.01-4.48-.11-7.09,2.74-9.45,5.94-9.03,12.25-10.08,25.72-6,39.95,3.34,11.65,10.68,20.92,18.03,30.17,3.11,3.92,6.34,7.75,9.7,11.85-2.65,3.58-6.61,3.76-10.42,3.79-2.17.02-4.46-.49-6.5-1.26C14.38,90.08.13,71.16,0,45.46c-.05-10.13.77-19.95,5.4-29.23C10.11,6.79,17.9,2.18,27.97.54c4.59-.75,9.07-.89,13.49.72,3.55,1.29,6.23,3.62,8.51,7.05Z"/>
  </g>
</svg>