<?xml version="1.0" encoding="UTF-8"?>
<svg id="_레이어_2" data-name="레이어 2" xmlns="http://www.w3.org/2000/svg" viewBox="0 0 47.26 58.17">
  <defs>
    <style>
      .cls-1 {
        fill: #fff;
        stroke-width: 0px;
      }
    </style>
  </defs>
  <g id="_레이어_1-2" data-name="레이어 1">
    <path class="cls-1" d="M44.71,43.29c4.14,5.61,2.99,10.39-3.3,12.46-10.47,3.45-20.68,3.81-30.35-2.88C4.4,48.25,1.31,41.69.31,34.15c-.58-4.34-.34-8.82.71-13.32C3.29,11.04,13.29.76,26.47.06c7.76-.41,14.67,1.26,20.79,6.44-.93,2.74-2.24,5.14-3.88,7.55-3.12-.18-5.94-1.64-8.94-2.38-6.34-1.57-12.05-.69-16.79,4.37-2.34,2.49-2.89,5.6-3.32,8.59-.62,4.25-.36,8.58,1.18,12.74,1.95,5.29,6.36,8.6,12.01,8.83,4.49.18,8.92-.09,13.04-2.15,1.21-.6,2.4-1.18,4.16-.76Z"/>
  </g>
</svg>