<?xml version="1.0" encoding="UTF-8"?>
<svg id="_레이어_2" data-name="레이어 2" xmlns="http://www.w3.org/2000/svg" viewBox="0 0 90.35 100">
  <defs>
    <style>
      .cls-1 {
        fill: #fff;
        stroke-width: 0px;
      }
    </style>
  </defs>
  <g id="_레이어_1-2" data-name="레이어 1">
    <path class="cls-1" d="M88.23,40.14c-1.69-3.96-3.3-7.96-5.09-11.88-8.02-17.59-35.52-22.19-47.07-1.48-8.37,15.01-10.77,31.62-2.81,48.15,4.5,9.35,11.2,15.78,22.64,15.22-8.21,13.21-29.64,12.21-38.74,2.49C2.57,77.06-4.51,59.73,3.09,39.02,11.37,16.45,36.07-3,64.44.39c9.4,1.12,17.84,5.28,20.43,15.94,1.88,7.76,3.65,15.54,5.47,23.31-.71.17-1.41.33-2.12.5Z"/>
  </g>
</svg>