<?xml version="1.0" encoding="UTF-8"?>
<svg id="_레이어_2" data-name="레이어 2" xmlns="http://www.w3.org/2000/svg" viewBox="0 0 53.25 100">
  <defs>
    <style>
      .cls-1 {
        fill: #fff;
        stroke-width: 0px;
      }
    </style>
  </defs>
  <g id="_레이어_1-2" data-name="레이어 1">
    <path class="cls-1" d="M52.01.14v15.79c-1.85.23-3.57.49-5.3.66-7.91.74-15.82,1.39-23.72,2.21-2.76.29-4.46,2.23-4.91,5.01-.11.71-.13,1.44-.13,2.16-.02,16.87-.02,33.74-.06,50.61,0,2.53.35,4.86,2.91,6.01,1.18.53,2.56.95,3.83.88,6.57-.35,13.13-.91,19.7-1.31,2.31-.14,4.64-.02,7.53-.02.46,3.12,1.14,6.38,1.37,9.67.24,3.6-1.4,5.38-4.95,5.7-9.83.86-19.65,1.75-29.5,2.37-3.64.23-7.42.29-10.76-1.73C2.89,95.05-.01,90.44,0,84.48.04,62.87.23,41.27.48,19.66.57,11.62,4.7,5.88,12.28,3.31c2.53-.86,5.36-.92,8.07-1.13C30.19,1.4,40.03.71,49.88,0c.63-.04,1.26.07,2.13.13Z"/>
  </g>
</svg>