<?xml version="1.0" encoding="UTF-8"?>
<svg id="_레이어_2" data-name="레이어 2" xmlns="http://www.w3.org/2000/svg" viewBox="0 0 76.62 100">
  <defs>
    <style>
      .cls-1 {
        fill: #fff;
        stroke-width: 0px;
      }
    </style>
  </defs>
  <g id="_레이어_1-2" data-name="레이어 1">
    <path class="cls-1" d="M47.48,99.78C16.83,102.58,0,77.37,0,52.91c0-15.63,2.98-30.33,14.9-41.49C22.52,4.29,31.55-.32,42.52.07c8.98.32,18.01-.86,26.95,1.07,3.01.65,4.49,1.87,4.25,5.19-.37,5.14-.51,10.3-.49,15.46.02,4.07-.62,5.46-5.44,4.08-8.63-2.48-17.78-3.37-26.38-.08-9.96,3.82-12.47,12.54-12.66,22.3-.2,10.27,1.31,19.83,11.14,25.64,5.25,3.1,11.28,3.63,17.03,2.54,3.58-.68,7.35-.08,10.81-1.71,1.21-.57,2.66-.57,3.35,1.57,1.45,4.48,3.42,8.78,5.05,13.2,1.14,3.09.35,4.91-3.14,6.23-8.52,3.23-17.15,5.1-25.51,4.22Z"/>
  </g>
</svg>