<?xml version="1.0" encoding="UTF-8"?>
<svg id="_레이어_2" data-name="레이어 2" xmlns="http://www.w3.org/2000/svg" viewBox="0 0 102.84 100">
  <defs>
    <style>
      .cls-1 {
        fill: #fff;
        stroke-width: 0px;
      }
    </style>
  </defs>
  <g id="_레이어_1-2" data-name="레이어 1">
    <path class="cls-1" d="M76.64,75.4c.3.95.6,1.89.99,3.13,1.16-1.28,3.6-1.25,1.94-4.13,1.6.2,2.75.56,3.8.39.58-.09,1.01-1.1,1.74-1.98-1.2-.26-1.7-.37-2.38-.52.87-.47,1.58-.85,2.29-1.22.75-2.84,1.5-5.7,2.31-8.8.15-.05.59-.2,1.04-.35,0,1.29,0,2.5,0,3.7-.02,4.45-.15,8.91-.04,13.36.11,4.3.46,8.59.7,12.88.01.19-.09.38-.3,1.18-2.24-.36-4.53-.73-6.82-1.08-1.06-.16-2.12-.29-3.18-.41-1.32-.15-2.64-.37-3.96-.39-.6,0-1.21.38-1.85.6.18.52.31.88.46,1.33-.45.22-.84.41-1.46.71.93.96,1.74,1.78,2.83,2.9-2.27.22-4.53.44-6.66.65-2.9-3.73-1.6-7.77-1.64-11.64,0-.92,0-1.85,0-2.77-.25-.1-.5-.2-.74-.3-.64,1.01-1.4,1.96-1.91,3.04-1,2.1-1.72,4.34-2.8,6.39-2.19,4.18-6.36,5.76-10.47,6.69-14.15,3.2-26.8.36-37.12-10.35-3.46-3.59-5.99-7.84-7.96-12.43C1.1,65.79-.68,55.13.23,44.14c.63-7.61,2.22-14.95,6.56-21.66,3.64-5.62,7.58-10.76,12.89-14.83C25.59,3.13,32.41.77,39.71.49,51.33.03,62.97.1,74.6,0c1.53-.01,3.06.26,4.67.41,0,3.63-.07,6.86.01,10.08.19,7.29-.45,14.74.89,21.81,2.32,12.3,9.09,21.36,22.67,23.95-.24.69-.31,1.61-.64,1.71-1.3.41-2.48,1.94-4.03.67.51-.26,1.03-.53,1.55-.79-3.54.56-6.82,2-10.51,1.82-3.7-.18-7.44.3-11.15.2-3.62-.11-7.45,1.01-11.1-1.39-2.21,1.44-4.33-.04-6.5-1.12q.26-1.1,2.24-.94c1.08.09,2.16.17,3.69.29-.31-1.66-.24-3.18-.87-4.33-3.03-5.56-2.98-11.7-3.41-17.7-.39-5.49-.15-11.02-.45-16.52-.18-3.25-.6-6.56-1.46-9.69-.39-1.44-1.88-2.9-3.25-3.69-4.6-2.65-9.62-3.62-14.89-2.51-1.72.36-3.38,1.04-5.03,1.66-3.17,1.19-4.05,3.85-4.14,6.87-.25,8.33-.47,16.66-.65,25-.25,11.63-.57,23.25-.61,34.88-.01,3.46.51,7.01,1.36,10.38,1.96,7.72,7.05,9.94,14.73,7.3,6.13-2.1,10.14-6.78,13.4-12.04,1.8-2.9,2.97-6.19,4.33-9.34.94-2.18,2.49-3.36,4.87-3.4.13,4.39-1.91,9.65,4.5,11.61.67-1.05,1.39-2.19,2.11-3.32.21.1.41.2.62.3-.17,1.09-.34,2.18-.51,3.27-.13-.01-.27-.02-.4-.03Z"/>
  </g>
</svg>