<?xml version="1.0" encoding="UTF-8"?>
<svg id="_레이어_2" data-name="레이어 2" xmlns="http://www.w3.org/2000/svg" viewBox="0 0 92.64 100">
  <defs>
    <style>
      .cls-1 {
        fill: #fff;
        stroke-width: 0px;
      }
    </style>
  </defs>
  <g id="_레이어_1-2" data-name="레이어 1">
    <path class="cls-1" d="M82.89,65.68c-.41,2.84-.81,5.68-1.24,8.52-1.74,11.51-9.77,17.69-19.46,21.9-12.13,5.26-24.63,5.27-36.69-.33-12.7-5.89-20.44-16.26-23.56-29.71-3.03-13.07-2.66-26.32,2.22-38.89C9.36,13.76,19.27,4.9,33.41,1.51c16.11-3.86,30.83-.25,43.62,10.05,4.23,3.4,7.36,8.18,10.88,12.43,1.64,1.98,3.01,4.2,4.73,6.63-.86-.09-1.48-.11-2.08-.23-11.61-2.25-22.95-5.4-33.92-9.88-3.9-1.59-7.87-2.87-12.24-2.76-11.49.28-17.97,8.3-18.38,18.49-.43,10.99,2.79,20.85,9.53,29.54,3.72,4.8,8.71,7.07,14.71,7.24,9.99.28,19.56-1.44,28.5-6.1,1.08-.56,2.2-1.04,3.31-1.56.28.11.55.21.83.32Z"/>
  </g>
</svg>