<?xml version="1.0" encoding="UTF-8"?>
<svg id="_레이어_2" data-name="레이어 2" xmlns="http://www.w3.org/2000/svg" viewBox="0 0 86.4 100">
  <defs>
    <style>
      .cls-1 {
        fill: #fff;
        stroke-width: 0px;
      }
    </style>
  </defs>
  <g id="_레이어_1-2" data-name="레이어 1">
    <path class="cls-1" d="M74.04,76.69c11.62,10.18,14.15,10.4-1.65,18.1C44.24,108.53,1.7,95.49.05,50.82-.71,30.4,7.51,14.94,25.72,6.26c19.73-9.41,39.44-8.6,57.59,5.07,3.56,2.68,4.48,4.29.41,8.29-5.09,5.01-8.68,4.66-14.21,1.2-14.05-8.78-39.68-6.55-48.71,11.89-9.87,20.16.63,46.29,21.3,51.5,7.47,1.88,14.93,1.23,21.96-2.12,3.29-1.57,6.42-3.47,9.97-5.41Z"/>
  </g>
</svg>