<?xml version="1.0" encoding="UTF-8"?>
<svg id="_레이어_2" data-name="레이어 2" xmlns="http://www.w3.org/2000/svg" viewBox="0 0 76.14 86.93">
  <defs>
    <style>
      .cls-1 {
        fill: #fff;
        stroke-width: 0px;
      }
    </style>
  </defs>
  <g id="_레이어_1-2" data-name="레이어 1">
    <path class="cls-1" d="M75.96,12.86c-3.46,3.29-6.92,6.58-10.64,10.13-2.49-1.43-5.27-3.22-8.22-4.69-18.99-9.47-38.29,1.71-39.62,22.89-.87,13.82,4.92,24.94,15.74,29.41,9.99,4.12,19.13,1.39,27.7-4.3,1.24-.82,2.39-1.79,3.98-3,3.75,3.13,7.52,6.28,11.25,9.4-5.79,10.11-26.64,16.59-42.47,13.41C17.53,82.87,2.31,67.06.52,51.51-2.14,28.26,5.33,14.31,23.64,4.64,40.12-4.06,62.99-.08,75.96,12.86Z"/>
  </g>
</svg>