<?xml version="1.0" encoding="UTF-8"?>
<svg id="_레이어_2" data-name="레이어 2" xmlns="http://www.w3.org/2000/svg" viewBox="0 0 148.51 100">
  <defs>
    <style>
      .cls-1 {
        fill: #fff;
        stroke-width: 0px;
      }
    </style>
  </defs>
  <g id="_레이어_1-2" data-name="레이어 1">
    <path class="cls-1" d="M1.64,99.78v-29.88c1.67-.09,3.31-.23,4.95-.25,15.48-.1,30.96-.28,46.44-.24,12.71.03,25.42.55,38.13.43,6.21-.06,12.44-.83,18.6-1.75,6.73-1,10.97-5.19,12.34-11.84.72-3.51,1.06-7.17,1.01-10.76-.07-5.59-3.72-8.93-8.5-10.72-2.98-1.12-6.37-1.64-9.57-1.6-24.92.29-49.83.78-74.75,1.2-9.01.15-18.02.27-27.03.4-1,.01-2,0-3.27,0C.23,23.19.45,11.83.68.19,1.55.13,2.52,0,3.49,0c28.34.06,56.69.15,85.03.2,9.58.02,19.17-.17,28.75-.07,5.82.06,11.37,1.53,16.44,4.45,5.93,3.41,9.09,8.8,10.51,15.3,2.63,12,3.47,24.22,4.2,36.45.44,7.44-.86,14.53-3.48,21.49-4.02,10.7-11.96,16.77-22.55,20.01-6.41,1.97-12.96,2.22-19.59,2.16-17.95-.18-35.9-.26-53.85-.3-15.04-.03-30.08.05-45.11.08-.71,0-1.43,0-2.19,0Z"/>
  </g>
</svg>