<?xml version="1.0" encoding="UTF-8"?>
<svg id="_레이어_2" data-name="레이어 2" xmlns="http://www.w3.org/2000/svg" viewBox="0 0 97.43 100">
  <defs>
    <style>
      .cls-1 {
        fill: #fff;
        stroke-width: 0px;
      }
    </style>
  </defs>
  <g id="_레이어_1-2" data-name="레이어 1">
    <path class="cls-1" d="M0,0C.59,0,1.11,0,1.63,0c10.18.01,20.36.03,30.55.04,8.23,0,16.46.1,24.69-.02,7.93-.12,14.85,2.77,21.47,6.72,3.93,2.34,7.59,5,10.73,8.39,3.15,3.41,4.95,7.51,6.46,11.76,1.44,4.04,1.93,8.26,1.91,12.53-.04,6.99.13,14.01-.35,20.97-.36,5.27-1.36,10.54-2.51,15.71-1.01,4.51-2.47,8.95-4.01,13.32-1.58,4.5-4.85,7.27-9.48,8.72-6.48,2.02-13.09,1.97-19.73,1.8-8.01-.2-16.01-.46-24.02-.7-.35-.01-.69-.05-1.32-.11V16.77H15.93v82.17H0V0ZM45.04,16.39v65.68c4.73,0,9.47.2,14.18-.06,3.7-.21,7.09-1.65,8.81-5.25,1.13-2.37,2.1-4.92,2.56-7.49,1.43-8.01,1.48-16.13,1.18-24.23-.17-4.49-.51-9.04-1.46-13.42-1.48-6.78-5.47-11.8-12.33-13.89-4.08-1.24-8.38-1.17-12.94-1.35Z"/>
  </g>
</svg>