<?xml version="1.0" encoding="UTF-8"?>
<svg id="_레이어_2" data-name="레이어 2" xmlns="http://www.w3.org/2000/svg" viewBox="0 0 92.73 100">
  <defs>
    <style>
      .cls-1 {
        fill: #fff;
        stroke-width: 0px;
      }
    </style>
  </defs>
  <g id="_레이어_1-2" data-name="레이어 1">
    <g>
      <path class="cls-1" d="M5.04,90.81c8.83-4.52,7.09-2.83,7.17-12.71.13-15.49.14-30.98.03-46.47-.02-3.31-.54-6.69-1.31-9.92-1.23-5.17-3.98-9.32-9.2-11.38-.63-.25-1.16-.72-1.72-1.08C1.09,6.49,2.02,3.83,3.21,1.29,3.49.68,4.61.11,5.34.12c14.36.19,28.89-.88,43.02,1.06,20.87,2.86,35.65,15.21,42.15,35.49,4.9,15.27,1.66,29.68-9.43,41.66-5.58,6.03-12.9,9.59-20.92,11.12-5.14.98-10.47,1.23-15.72,1.3-13.13.17-26.27.06-39.41.06ZM33.22,86.49c3.43-1.4,7.7-2.31,10.98-4.63,12.48-8.84,19.1-20.85,17.63-36.49-.42-4.42-1.59-8.77-2.48-13.14-1.04-5.1-3.92-9.03-7.75-12.45-5.04-4.5-11.18-6.06-18.38-7.56v74.27Z"/>
      <path class="cls-1" d="M.05,94.91c3.11,0,6.04-.01,8.96,0,10.39.05,20.78.14,31.17.17,12.41.05,24.82.03,37.23.11,2.54.02,5.19.04,7.9,2.61-1.83.4-2.93.84-4.03.86-26.06.47-52.13.88-78.2,1.33-3.64.06-2.85-2.48-3.03-5.09Z"/>
    </g>
  </g>
</svg>