<?xml version="1.0" encoding="UTF-8"?>
<svg id="_레이어_2" data-name="레이어 2" xmlns="http://www.w3.org/2000/svg" viewBox="0 0 132.8 100">
  <defs>
    <style>
      .cls-1 {
        fill: #fff;
        stroke-width: 0px;
      }
    </style>
  </defs>
  <g id="_레이어_1-2" data-name="레이어 1">
    <path class="cls-1" d="M112.62,68.82c1.45.53,3.24,1.13,4.99,1.84,4.27,1.75,8.18,4.15,11.79,7,1.08.85,2.18,1.82,2.89,2.97,1.13,1.85.16,3.68-.75,5.31-1.81,3.27-4.26,5.96-7.7,7.6-4.96,2.36-10.19,3.74-15.68,3.88-3.38.09-6.51-.95-9.23-3.02-1.6-1.21-2.94-2.57-2.01-5.32-.86.59-1.36.86-1.78,1.22-5.23,4.43-11.42,6.58-18.05,7.81-7.92,1.47-15.89,1.93-23.92,1.88-17.07-.09-34.13-.06-51.2-.08-.45,0-.9,0-1.56,0,.09-1.85.18-3.6.26-5.34.02-.51.11-1.02.05-1.52-.18-1.54.49-1.96,1.99-2,3.6-.11,6.97-1.1,10.02-3.14,3.97-2.66,5.46-6.53,5.49-11.09.03-4.62-.14-9.24-.13-13.86,0-5.89.17-11.78.15-17.67-.02-4.87-.24-9.74-.34-14.62-.06-2.64-.14-5.27-.06-7.91.33-11.6-7.46-16.55-15.92-17.92-.49-.08-.99-.14-1.51-.21C.25,3.08.13,1.63,0,.1.54.06.93,0,1.33,0c17.67.2,35.35.17,53.01.72,9.36.29,18.78,1.04,27.87,3.56,13.99,3.87,23.99,12.41,29.08,26.21,3.05,8.27,3.81,16.91,3.23,25.63-.28,4.16-1.21,8.27-1.89,12.71ZM45.74,49.62h-.29c0,8.48-.01,16.96,0,25.44,0,2.54-.05,5.09.18,7.61.32,3.56,2.28,6.14,5.7,7.13,3.66,1.06,7.32.39,10.71-1.31,6.07-3.05,10.37-7.94,13.58-13.76,5.72-10.38,7.34-21.59,6.12-33.26-1.25-11.91-7.13-21.16-16.71-28.14-3.56-2.59-7.53-4.15-12.01-4.13-2.87.01-5.05,1.26-6.14,3.91-.62,1.52-1.09,3.22-1.1,4.84-.1,10.56-.05,21.12-.05,31.68ZM104.37,88.09c1.12.35,2.05.77,3.03.93,2,.33,4.03.46,6.03.78,1.18.19,1.75-.18,2.04-1.33.64-2.54,1.31-5.08,2.11-7.58.65-2.05-.2-3.92-2.35-4.34-1.32-.26-2.7-.2-4.04-.34-1.11-.11-1.81.35-2.29,1.32-1.13,2.32-2.35,4.59-3.42,6.94-.49,1.08-.71,2.29-1.1,3.62ZM29.22,6.68c.75-.07,1.29-.12,1.83-.16.6-.04,1.21-.1,1.81-.11,2.14-.05,2.31-.28,1.68-2.31h-5.65c.12.91.21,1.64.33,2.58ZM28.8,91.15c-.12.13-.23.26-.35.4.32.26.61.7.96.75,1.38.19,2.78.31,4.18.35,1.51.05,1.76-.43,1.12-1.95-.84.08-2.04-.17-2.47.3-1.23,1.32-2.32.16-3.45.16ZM41.12,91.66c.1-1.8-.56-2.09-3.67-1.65-.05.6-.1,1.22-.17,2.02,1.37-.13,2.54-.24,3.84-.36ZM29.38,86.73c2.49.41,3.79.18,4.25-.79-1.39.22-2.82-.36-4.25.79Z"/>
  </g>
</svg>