<?xml version="1.0" encoding="UTF-8"?>
<svg id="_레이어_2" data-name="레이어 2" xmlns="http://www.w3.org/2000/svg" viewBox="0 0 100.3 100">
  <defs>
    <style>
      .cls-1 {
        fill: #fff;
        stroke-width: 0px;
      }
    </style>
  </defs>
  <g id="_레이어_1-2" data-name="레이어 1">
    <path class="cls-1" d="M0,99.99v-12.44c1.85,0,3.59.04,5.33-.01,1.64-.05,3.27-.18,4.9-.33,2.55-.23,3.48-.97,3.68-3.57.32-4.17.52-8.36.55-12.55.13-17.8.2-35.59.23-53.39,0-1.87-.21-3.76-.52-5.6-.38-2.27-1.79-3.81-4.1-4-2.51-.2-5.05-.05-8-.05C1.65,5.51,1.21,2.94.73.11,1.88.06,2.59-.01,3.29,0c14.09.23,28.18.32,42.26.8,5.79.19,11.6.96,17.33,1.92,8.82,1.49,15.54,6.91,21.86,12.75,4.69,4.33,8.96,9.06,11.58,15.04,5.93,13.5,4.94,26.8-1.02,39.98-5.94,13.14-16.72,20.73-29.69,25.79-6.6,2.58-13.5,3.49-20.51,3.53-6.98.04-13.97-.22-20.95-.2-6.98.02-13.97.24-20.95.36-1.02.02-2.04,0-3.2,0ZM34.61,58.99c.17,0,.35,0,.52,0,0,8.38,0,16.76,0,25.13,0,1.15-.04,2.05,1.54,2.32,6.44,1.09,12.8.94,19.12-.77,5.39-1.46,10.29-3.8,13.76-8.31,3.4-4.42,4.5-9.68,5.05-15.14,1.41-14.09-9.18-25.36-19.38-28.74-5.99-1.99-12.19-1.79-18.39-1.52-1.69.07-2.28.48-2.26,2.27.1,8.26.04,16.51.04,24.77ZM35.29,14.21c.51.22.99.6,1.48.62,2.61.09,5.22.23,7.82.06,1.07-.07,2.19-.71,3.11-1.36,1.63-1.15,1.51-3.18-.24-4.16-2.85-1.6-5.77-.63-8.65,0-.2.04-.38.3-.51.5-.95,1.36-1.89,2.72-3.01,4.34Z"/>
  </g>
</svg>