<?xml version="1.0" encoding="UTF-8"?>
<svg id="_레이어_2" data-name="레이어 2" xmlns="http://www.w3.org/2000/svg" viewBox="0 0 71.06 85.13">
  <defs>
    <style>
      .cls-1 {
        fill: #fff;
        stroke-width: 0px;
      }
    </style>
  </defs>
  <g id="_레이어_1-2" data-name="레이어 1">
    <path class="cls-1" d="M0,84.61v-4.88c.4-.33.79-.66,1.19-.99.27.9.54,1.8.81,2.69.42-.09.84-.18,1.26-.27C2.48,54.1,1.7,27.05.93.34c13.99,0,26.67-.93,39.13.27,11.23,1.08,20.04,7.63,25.56,17.84,7.32,13.54,8.49,40.83-4.36,54.16-6.76,7.01-14.75,11.22-24.54,11.63-9.65.4-19.3.66-28.96.87-2.47.05-4.94-.31-7.77-.51ZM19.57,15.24c-.18,1.63-.39,2.76-.4,3.89-.1,11.49-.25,22.98-.2,34.48.02,4.75-1.27,11.39,1.24,13.72,2.65,2.46,9.12.75,13.92.97,8.03.37,13.4-3.8,16.6-10.55,4.92-10.37,4.25-21.09-.17-31.42-2.73-6.37-8.11-10.23-15.02-10.98-5.09-.55-10.28-.11-15.97-.11Z"/>
  </g>
</svg>