<?xml version="1.0" encoding="UTF-8"?>
<svg id="_레이어_2" data-name="레이어 2" xmlns="http://www.w3.org/2000/svg" viewBox="0 0 79.83 97.8">
  <defs>
    <style>
      .cls-1 {
        fill: #fff;
        stroke-width: 0px;
      }
    </style>
  </defs>
  <g id="_레이어_1-2" data-name="레이어 1">
    <path class="cls-1" d="M.7,97.36c-.16-1.98-.53-4.44-.54-6.9-.07-12.99.12-25.98-.16-38.96-.09-4.32,1.42-5.54,5.44-5.19,3.42.29,6.88.06,10.61.06v36c16.45,4.18,34.33-3.69,41.07-17.86,7.74-16.28,2.75-37.66-10.28-47.58-9.57,1.93-18.34,3.63-27.07,5.51-2.73.59-5.31,1.82-8.02,2.51-4.2,1.05-5.89-.81-4.9-4.95.53-2.22.96-4.52,1.02-6.8C8.11,4.87,11.73.71,20,.39c7.06-.27,14.33-.89,21.19.36,15.1,2.74,26.88,10.31,33.2,25.29,6.56,15.57,7.65,30.92.68,46.56-6.54,14.65-18.55,22.7-33.73,24.44-13.09,1.51-26.49.31-40.64.31Z"/>
  </g>
</svg>