<?xml version="1.0" encoding="UTF-8"?>
<svg id="_레이어_2" data-name="레이어 2" xmlns="http://www.w3.org/2000/svg" viewBox="0 0 73.57 86.53">
  <defs>
    <style>
      .cls-1 {
        fill: #fff;
        stroke-width: 0px;
      }
    </style>
  </defs>
  <g id="_레이어_1-2" data-name="레이어 1">
    <path class="cls-1" d="M0,0c6.76.41,13.17.76,19.57,1.2,8.37.57,17.14-.15,25.02,2.15,12.17,3.56,22.48,9.97,26.65,23.82,3.49,11.59,2.85,22.6-.61,33.66-3.51,11.24-19.21,22.65-31.12,23.53-6.54.48-13.03,1.63-19.57,1.98-6.55.35-13.12.08-19.94.08V0ZM19.7,69.7c4.49.22,8.3.88,12,.49,9.6-1.01,21.84-8.99,23.09-20.09,1.44-12.77-4.01-27.01-17.04-29.87-4.81-1.05-9.76-1.53-14.65-2.2-3.53-.48-4.61,1.22-4.55,4.66.21,12.49.13,24.99.29,37.48.04,3.1.55,6.2.86,9.53Z"/>
  </g>
</svg>