<?xml version="1.0" encoding="UTF-8"?>
<svg id="_레이어_2" data-name="레이어 2" xmlns="http://www.w3.org/2000/svg" viewBox="0 0 79.55 88.49">
  <defs>
    <style>
      .cls-1 {
        fill: #fff;
        stroke-width: 0px;
      }
    </style>
  </defs>
  <g id="_레이어_1-2" data-name="레이어 1">
    <path class="cls-1" d="M0,44.07C0,31.41-.01,18.75.01,6.1.02.4.9-.19,6.35.04c8.98.38,17.97.48,26.95.67,18.4.4,32.94,7.72,41.76,24.28,8.31,15.61,5.36,41.11-11.12,53.39-9,6.7-19.01,10.1-30.18,10.11-9.49,0-18.98-.2-28.47-.12-3.85.03-5.15-1.44-5.08-5.33.21-12.99.08-25.98.08-38.97-.09,0-.18,0-.26,0ZM13.01,80.69c9.36-.7,18.39-.63,27.08-2.34,4.88-.96,9.67-4.26,13.63-7.56,8.35-6.96,9.89-16.88,10.15-27.13.27-11.02-3.94-19.83-13.08-25.91-11.47-7.62-24.46-6.67-37.78-6.61v69.55Z"/>
  </g>
</svg>