<?xml version="1.0" encoding="UTF-8"?>
<svg id="_레이어_2" data-name="레이어 2" xmlns="http://www.w3.org/2000/svg" viewBox="0 0 76.33 100">
  <defs>
    <style>
      .cls-1 {
        fill: #fff;
        stroke-width: 0px;
      }
    </style>
  </defs>
  <g id="_레이어_1-2" data-name="레이어 1">
    <path class="cls-1" d="M52,.1c3.17,3.53,6.42,6.99,9.49,10.61,11.77,13.84,17.03,29.72,13.99,47.81-1.02,6.07-3.16,11.98-5.13,17.84-.6,1.77-2.3,3.19-3.57,4.71-12.47,14.9-28.32,20.9-47.6,18.37-6.94-.91-13.26-3.11-19.13-6.81,0-15.52,0-31.04,0-46.56,1.09,1.14,2.26,2.22,3.27,3.42,4.62,5.54,9.1,11.21,13.84,16.65,2.57,2.95,5.49,5.6,8.36,8.27,5.06,4.71,10.11,9.45,15.36,13.95,3.07,2.64,6.61,2.61,9.94.4,6.22-4.14,5.93-8.75,3.47-14.2-2.1-4.66-5.28-8.86-8.16-13.15-4.4-6.56-8.97-13.01-13.43-19.53-2.88-4.21-5.47-8.63-8.58-12.66-4.1-5.33-8.51-10.44-12.91-15.54C7.59,9.47,3.79,5.41.06,1.29-.31-.55,1.09.12,1.85.12c11.84-.03,23.68-.02,35.52-.02,4.88,0,9.75,0,14.63,0Z"/>
  </g>
</svg>