<?xml version="1.0" encoding="UTF-8"?>
<svg id="_레이어_2" data-name="레이어 2" xmlns="http://www.w3.org/2000/svg" viewBox="0 0 98.92 100">
  <defs>
    <style>
      .cls-1 {
        fill: #fff;
        stroke-width: 0px;
      }
    </style>
  </defs>
  <g id="_레이어_1-2" data-name="레이어 1">
    <path class="cls-1" d="M0,99.78V0c19.81.75,39.6.78,59.25,2.45,22.29,1.89,34.42,13.56,38.5,35.48,2.83,15.17.5,30.02-6.39,43.66-5.61,11.11-15.64,17.6-28.08,18.07-17.95.68-35.95.14-53.93.12-3.01,0-6.03,0-9.34,0ZM28.92,72.74c6.85,0,13.71-.68,20.38.13,20.86,2.51,28.15-14.86,25.22-29.61-1.35-6.8-5.62-10.76-11.56-13.45-7.46-3.38-15.32-4.16-23.43-4.01-10.45.2-10.52.02-10.6,10.36-.08,11.91-.02,23.83-.02,36.59Z"/>
  </g>
</svg>