<?xml version="1.0" encoding="UTF-8"?>
<svg id="_레이어_2" data-name="레이어 2" xmlns="http://www.w3.org/2000/svg" viewBox="0 0 131.98 100">
  <defs>
    <style>
      .cls-1 {
        fill: #fff;
        stroke-width: 0px;
      }
    </style>
  </defs>
  <g id="_레이어_1-2" data-name="레이어 1">
    <g>
      <path class="cls-1" d="M72.47,1.21c8.64,1.69,16.79,3.29,25.49,5-.84,1.24-1.27,2.66-2.01,2.85-6.44,1.67-5.73,6.71-5.63,11.49.34,16.21.71,32.42,1,48.64.11,6.59.02,13.18.02,20.64,3.41-.9,8.18-.83,10.97-3.15,9.21-7.64,18.45-15.82,20.42-28.54,1.14-7.41,1.38-15.05,1.17-22.56-.22-8.1-2.37-15.69-9.93-20.47-.8-.5-1.17-1.67-2.05-2.99,10.61,4.4,19.52,18.03,20.01,30.66.2,5.19-.22,10.45-.84,15.62-.6,4.95-1.96,9.31-7.37,11.92-2.38,1.15-3.25,5.37-4.86,8.17-.53.92-1.16,1.82-1.86,2.62-2.17,2.47-4.73,4.68-6.51,7.4-1.54,2.37-2.12,5.78,1.28,6.97,1.82.64,4.47-.72,6.62-1.53.87-.33,1.4-1.58,2.54-2.98.44,1.43,1.13,2.99.93,3.11-3.24,2-6.41,4.36-9.96,5.52-2.97.97-6.06.43-7.32-3.77-.51-1.68-3.04-3.99-4.56-3.93-8.8.39-17.55,1.74-26.35,2.13-23.04,1.02-46.09,1.71-69.14,2.51-.83.03-1.66-.19-4.51-.54,8.82-4.84,7.64-12.05,7.85-18.68.69-22.11,1.2-44.22,1.81-66.33.1-3.67.38-7.34.57-10.98,18.08.59,35.83,1.16,53.45,1.73-6.12,5.32-13.66,2.89-20.74,3.08-6.76.18-13.53.04-20.42.04-.48,22.33-.96,44.2-1.4,66.07-.05,2.58.03,5.16.11,7.74.03.91.01,2.48.42,2.63,6.27,2.26,7.96,10.66,15.77,11.14,8.05.5,15.88.85,22.65-4.4,2.85-2.21,5.38-4.84,8.67-7.84v12.57c2.13-.3,4.18-.59,6.6-.93.45-11.88,1.03-23.45,1.27-35.02.26-12.35.22-24.7.27-37.06,0-2.31.63-4.99-3.06-5.41-.54-.06-1.27-1.62-1.31-2.52-.15-3.46-.06-6.94-.06-10.64Z"/>
      <path class="cls-1" d="M57.77,27.02c.54,1.7,1.03,3.22,1.06,3.3-5.58,3.86-10.51,7.19-15.35,10.65-2.73,1.95-4.94,4.63-2.54,7.86,2.26,3.04,5.44,2.36,8.35.28.7-.5,1.65-.67,3.36-1.33-.59,7.03,1.25,13.31-5.95,18.4-3.27,2.32-3.61,8.77-5.5,13.97h-5.11c0-2.9-.05-5.77,0-8.63.23-11.24.33-22.48.88-33.7.09-1.82,1.79-4.48,3.41-5.14,5.41-2.21,11.12-3.69,17.39-5.67Z"/>
      <path class="cls-1" d="M60.87,68.44c.86-10.44,1.72-20.89,2.57-31.33.49.04.97.08,1.46.12-.71,10.48-1.41,20.97-2.12,31.45-.64-.08-1.27-.16-1.91-.24Z"/>
    </g>
  </g>
</svg>