<?xml version="1.0" encoding="UTF-8"?>
<svg id="_레이어_2" data-name="레이어 2" xmlns="http://www.w3.org/2000/svg" viewBox="0 0 92.61 100">
  <defs>
    <style>
      .cls-1 {
        fill: #fff;
        stroke-width: 0px;
      }
    </style>
  </defs>
  <g id="_레이어_1-2" data-name="레이어 1">
    <path class="cls-1" d="M0,99.16V0c2.28.34,4.64.96,7.01,1.01,14.88.33,29.78.28,44.65.85,12.42.47,23.74,4.11,31.58,14.57,5.05,6.75,7.07,14.86,8.35,22.98,1.83,11.63,1.61,23.24-3.92,34.04-4.59,8.94-10.22,17.12-19.78,21.51-2.46,1.13-5.11,2.22-7.76,2.51-15.58,1.73-31.15,3.63-46.89,1.76-4.1-.49-8.3-.07-13.23-.07ZM28.68,24.94v47.29c7.86,0,15.59.78,23.09-.2,9.3-1.21,15.4-9.75,15.03-19.09-.15-3.78-.28-7.57-.62-11.33-.75-8.24-5.52-14.72-12.08-15.36-8.27-.81-16.61-.89-25.42-1.3Z"/>
  </g>
</svg>