<?xml version="1.0" encoding="UTF-8"?>
<svg id="_레이어_2" data-name="레이어 2" xmlns="http://www.w3.org/2000/svg" viewBox="0 0 79.33 100">
  <defs>
    <style>
      .cls-1 {
        fill: #fff;
        stroke-width: 0px;
      }
    </style>
  </defs>
  <g id="_레이어_1-2" data-name="레이어 1">
    <g>
      <path class="cls-1" d="M64.59,84.86c-5.63,8.58-14.11,11.5-23.8,13.5-13.6,2.81-27.09.35-40.78,1.64V.16h20.33c5.53,0,11.09-.42,16.57.09,10.82,1.01,21.37,3.24,28.89,12.07,1.66,1.95,4.3,2.28,5.64,4.92,1.37,2.7,3.73,4.99,4.77,7.98,1.18,3.38,3.26,6.85,3.13,10.21-.29,8.06.57,16.03-1.02,24.27-1.65,8.58-5.34,15.31-10.4,21.82-.18-.46-.36-.92-.55-1.38-.37.46-.74.92-1.11,1.38-2.58-.27-4.33.7-4.98,3.32-1.26.25-3.18-.82-5.29,1.94-.79.92-.2,1.45.02,1.32.72-.41,1.31-1.05,1.95-1.61-1.09.16-2.17.31-1.97.28,3.22-.53,5.15.54,5.29-1.94h3.32ZM8.12,88.39c8.45-1.02,16.18.71,24.05-1.57,4.16-1.21,8.62-1.85,12.58-3.68,20.73-9.57,29.12-30.13,23.14-50.36-3.17-10.72-7.5-15.88-17.18-20.72-1.59-.79-3.28-1.63-5-1.86-2.44-.32-4.98.14-7.43-.14-2.56-.29-5.05-1.41-7.6-1.53-5.51-.24-11.03-.12-16.55-.06-5.31.06-5.98.71-5.99,6.2-.04,24.26-.02,48.53-.02,73.71ZM52.37,88.42c-.35.19-.71.39-1.07.59.18.18.41.55.55.52.39-.09.75-.33,1.11-.52-.18-.18-.37-.37-.59-.59Z"/>
      <path class="cls-1" d="M66.25,83.2c-.55.55-1.11,1.11-1.66,1.66.55-.55,1.11-1.11,1.66-1.66Z"/>
      <path class="cls-1" d="M67.91,81.54c-.55.55-1.11,1.11-1.66,1.66v-1.66c.55,0,1.11,0,1.66,0Z"/>
    </g>
  </g>
</svg>