<?xml version="1.0" encoding="UTF-8"?>
<svg id="_레이어_2" data-name="레이어 2" xmlns="http://www.w3.org/2000/svg" viewBox="0 0 61.25 100">
  <defs>
    <style>
      .cls-1 {
        fill: #fff;
        stroke-width: 0px;
      }
    </style>
  </defs>
  <g id="_레이어_1-2" data-name="레이어 1">
    <g>
      <path class="cls-1" d="M40.4,8.27c7.64,3.28,13.44,8.57,15.19,15.77,1.09,4.5,3.45,8.93,3.55,13.22.12,5.72,2.18,11.03,2.11,16.67-.04,3.36-.39,6.51-1.59,9.79-1.12,3.06-.44,6.73-1.02,10.04-.56,3.17-1.2,6.54-2.78,9.25-2.09,3.58-3.09,8.34-9.13,8.58-2.52.1-5.02,3.15-7.36,5.07-2.64,2.15-5.25,4.09-9.23,3.03v-4.04c9.09-5.61,15.33-13.13,15.47-24.69.03-2.09,1.72-4.21,1.56-6.23-.82-9.86-1.36-19.82-5.16-29.16-.51-1.25-1.49-2.31-2.3-3.53-5.59,0-11.08-.01-16.57.02-.52,0-1.05.26-1.32.33-3.64,7.64-3.45,15.9-2.05,23.45,1.11,5.96.7,11.67,1.53,17.7h-6.97c-.05-.25-.09-.51-.14-.76.9-.3,1.8-.6,2.79-.93.18-.36.61-.84.62-1.33.04-8.41-.14-16.83.1-25.23.13-4.49-1.03-8.18-4.2-11.37-.9-.91-1.27-2.35-1.76-3.32-.89.28-1.88.96-2.57.74-5.68-1.85-5.66-1.9-9.05-8.25,2.29-5.39,9.91-3.81,12.28-9.14,5.58-1.17,6.12-8.19,11.57-10.31.57,5.72,1.1,10.96,1.69,16.2,0,.04,1.07-.05,2.5-.11-.36-5.47.56-11-.88-16.87.25-.31,1.11-1.38,2.31-2.87,1.3,1.13,3.1,1.94,3.2,2.91.34,3.37,2.39,5.43,4.3,7.89,1.38,1.78,1.46,4.58,2.18,7.14h3.83c3.62-4.51-3.66-5.89-2.71-9.66Z"/>
      <path class="cls-1" d="M0,76c2.01-.86,4.11-1.75,6.12-2.61,2.56,8.14,4.86,15.46,7.25,23.08-.15.15-.76.76-1.85,1.85-5.15-6.55-9.15-13.54-11.52-22.32Z"/>
    </g>
  </g>
</svg>