<?xml version="1.0" encoding="UTF-8"?>
<svg id="_레이어_2" data-name="레이어 2" xmlns="http://www.w3.org/2000/svg" viewBox="0 0 85.31 100">
  <defs>
    <style>
      .cls-1 {
        fill: #fff;
        stroke-width: 0px;
      }
    </style>
  </defs>
  <g id="_레이어_1-2" data-name="레이어 1">
    <path class="cls-1" d="M11.71,75.76q-10.89-.69-11.71-7.5c2.33-1.01,5.2-1.48,6.72-3.17,1.26-1.41,1.24-4.25,1.26-6.46.09-16.54.1-33.09,0-49.63-.02-2.72-.72-5.44-1.14-8.33,14.66-1.86,29.35.25,43.33,5.82,13.48,5.37,24.52,14.29,32.19,26.78,1.68,2.74,1.61,6.42-1.7,8.9-6.73-3.58-13.49-7.17-20.24-10.76-.3-.16-1.51-2.87-2.3-4.28-3.7-6.65-8.36-12.71-16.05-14.49-5.29-1.22-10.59-3.12-16.36-2.37-2.66.35-5.54-.96-9.12-1.68-.19,2.84-.39,5.96-.64,9.72,8.75.89,18.47-1.82,24.6,7.13-4.26-1.47-8.55-.75-12.78-.81-4.34-.07-8.68-.02-13.67-.02,0,15.12-.08,29.89.09,44.66.02,2.09.79,4.51,2.02,6.19,5.42,7.47,11.78,14.47,20.69,17.2,6.01,1.84,12.7,2.25,19.15-1.03,8.31-4.23,16.75-7.97,19.51-18.02,1.34-4.88,3.57-9.54,3.44-14.8-.12-4.62-.02-9.24-.02-14.14,4.43.48,5.76,2.28,6.2,5.85.78,6.4-1.9,12.13-2.79,18.18-.54,3.66-1.92,7.29-3.46,10.69-6.08,13.42-17.41,18.92-31.37,20.21-.33.03-.68-.04-1.01.01-10.33,1.68-19.12-2.24-26.94-8.23-4.88-3.74-8.01-9.06-7.88-15.62Z"/>
  </g>
</svg>