<?xml version="1.0" encoding="UTF-8"?>
<svg id="_레이어_2" data-name="레이어 2" xmlns="http://www.w3.org/2000/svg" viewBox="0 0 93.06 100">
  <defs>
    <style>
      .cls-1 {
        fill: #fff;
        stroke-width: 0px;
      }
    </style>
  </defs>
  <g id="_레이어_1-2" data-name="레이어 1">
    <path class="cls-1" d="M.64,0c4.74,5.68,9.83,4.34,13.85,3.57,15.22-2.91,17.15-2.75,33.28-.02,5.98,1.01,11.36,1.87,17.04,4.7,14.64,7.28,23.53,17.39,27.22,33.99,2.27,10.2.73,16.79-4.42,25.5-5.98,10.11-12.86,18.32-22.64,24.3-3.3,2.02-6.88,4.59-10.49,4.88-7.68.61-14.88,3.7-22.9,2.98-9.95-.89-20.04-.21-30.94-.21v-50.44c0-5.46.37-10.95-.11-16.37-.43-4.81,3.24-8.9.54-14.51C-1.05,13.96.64,7.71.64,0ZM21.16,18.93v68.3c10.4-.92,20.43-1.67,30.41-2.8,2.18-.25,4.38-1.63,6.28-2.91,12.97-8.78,18.42-25.14,13.45-40-5.05-15.07-15.09-22.42-30.95-22.57-6.22-.06-12.44,0-19.18,0Z"/>
  </g>
</svg>