<?xml version="1.0" encoding="UTF-8"?>
<svg id="_레이어_2" data-name="레이어 2" xmlns="http://www.w3.org/2000/svg" viewBox="0 0 94.64 100">
  <defs>
    <style>
      .cls-1 {
        fill: #fff;
        stroke-width: 0px;
      }
    </style>
  </defs>
  <g id="_레이어_1-2" data-name="레이어 1">
    <path class="cls-1" d="M0,99.83V.42C2.87.29,5.8.04,8.72.03,21.08-.02,33.44,0,45.81.01c7.85,0,16.44,2.92,25.02,6.76,6.63,2.97,11.04,8.19,14.86,13.53,5.7,7.96,9.19,17.9,8.94,27.28-.24,9.07-1.08,18.85-5.92,27.48-6.51,11.62-17.24,17.6-28.86,22.31-4.35,1.77-9.01,2.76-14.06,2.61-15-.45-30.02-.16-45.79-.16ZM25.38,78.93c9.07,0,16.77.08,24.46-.02,7.88-.11,19.61-8.14,22.03-15.39,1.25-3.75,2.2-7.79,2.24-11.71.03-3.52-1.06-7.16-2.21-10.56-3.28-9.68-12.22-18.36-20.78-20.32-4.25-.97-8.56-1.92-12.89-2.27-4.87-.39-9.8-.09-15.01-.09,0,2.3.12,3.81-.02,5.29-1.76,18.23,3.71,36.1,2.19,55.07Z"/>
  </g>
</svg>