<?xml version="1.0" encoding="UTF-8"?>
<svg id="_레이어_2" data-name="레이어 2" xmlns="http://www.w3.org/2000/svg" viewBox="0 0 76.07 100">
  <defs>
    <style>
      .cls-1 {
        fill: #fff;
        stroke-width: 0px;
      }
    </style>
  </defs>
  <g id="_레이어_1-2" data-name="레이어 1">
    <path class="cls-1" d="M0,99.61V10.99C0,9.04.03,7.1,0,5.15-.05,2.02,1.86.34,4.58.3c11.03-.18,22.1-.62,33.08.11,8.17.54,16.09,3.79,22.55,8.7,7.51,5.7,11.35,14.24,13.89,23.33,2.54,9.06,1.72,18.26,1.95,27.44.06,2.36-.88,4.06-1.91,6.06-3.34,6.5-5.61,13.54-11.33,18.68-8.76,7.88-18.66,12.87-30.63,13.02-2.24.03-4.43-.2-5.97,1.89-1.46-2.43-3.89-2-6.04-1.81-3.98.35-8.05-1.05-11.99,1.7-1.72,1.2-4.97.2-8.18.2ZM17.01,84.85c5.63-1.11,9.79-2.33,14.02-2.7,14.67-1.28,22.3-12.36,23.45-25.02.53-5.8.25-11.68.05-17.52-.31-9.19-8.1-18.68-16.68-21.94-7.45-2.83-14.79-1.4-22.26-1.82,0,2.53.08,4.15-.01,5.77-1.12,20.56,3.88,40.92,1.42,63.25Z"/>
  </g>
</svg>