<?xml version="1.0" encoding="UTF-8"?>
<svg id="_레이어_2" data-name="레이어 2" xmlns="http://www.w3.org/2000/svg" viewBox="0 0 78.11 89.46">
  <defs>
    <style>
      .cls-1 {
        fill: #fff;
        stroke-width: 0px;
      }
    </style>
  </defs>
  <g id="_레이어_1-2" data-name="레이어 1">
    <path class="cls-1" d="M0,89.25v-54.73C2.73,23.26.67,11.76,1.62,0h33.98c4.33,2.09,9.36,1.4,13.74,3.82,4.05,2.23,7.75,4.84,11.59,7.35,7.24,4.72,11.41,11.38,14.58,19,.33.79,1.06,1.5,1.14,2.3.55,5.13,1.08,10.27,1.4,15.43.17,2.87,0,5.66-1.26,8.5-3.38,7.61-6.53,15.34-12.83,21.09-2.58,2.35-5.75,4.04-8.53,6.2-3.01,2.34-7.28,1.45-10.14,4.13-.25.23-.9.05-1.36.03-8.67-.4-17.14,2.21-25.87,1.49-5.75-.48-11.58-.09-18.04-.09ZM15.64,73.91c5.04,0,10.1.1,15.14-.04,2.86-.08,5.5-1.35,8.45-1.6,3.01-.26,6.1-2.11,8.72-3.9,5.33-3.64,8.12-9.35,10.51-15.07,1.44-3.45,2.16-7.37,1.45-11.19-.67-3.61-1.21-7.43-2.88-10.61-2.33-4.45-4.77-9.13-9.29-11.94-2.55-1.59-5.19-3.42-8.03-4.03-2.76-.6-5.66-1.09-8.44-1.39-5.66-.62-11.44-.19-17.54-.19.58.86.99,1.18.99,1.51.32,19.35.61,38.71.91,58.46Z"/>
  </g>
</svg>