<?xml version="1.0" encoding="UTF-8"?>
<svg id="_레이어_2" data-name="레이어 2" xmlns="http://www.w3.org/2000/svg" viewBox="0 0 91.96 100">
  <defs>
    <style>
      .cls-1 {
        fill: #fff;
        stroke-width: 0px;
      }
    </style>
  </defs>
  <g id="_레이어_1-2" data-name="레이어 1">
    <path class="cls-1" d="M0,100c1.02-7.37-1.3-14.29,1.71-21.06.68-1.54.1-3.64.1-5.48V.12h6.91C21.36.12,34.01-.22,46.63.24c7.9.29,15.46,2.37,22.73,6.06,9.42,4.78,16.07,13.68,19.44,26.69,3.2,3.18-.04,8.15,3.16,11.33-.63,2.92.78,5.86-1.36,8.98-1.67,2.44,1.23,6.67-1.8,9.46-2.43,10.79-8.37,19.59-17,26.01-6.41,4.77-13.92,7.95-22.09,9.5-16.31,3.1-32.68.45-49.7,1.72ZM22.37,85.19c8.26,1.22,15.97.33,23.4-1.43,5.12-1.21,10.58-2.78,14.47-6.88,11.02-11.6,14.1-25.03,8.92-40.23-3.34-9.82-10.05-16.73-19.48-20.59-6.09-2.49-19.55-2.33-27.32-.84v69.97Z"/>
  </g>
</svg>