<?xml version="1.0" encoding="UTF-8"?>
<svg id="_레이어_2" data-name="레이어 2" xmlns="http://www.w3.org/2000/svg" viewBox="0 0 80.2 100">
  <defs>
    <style>
      .cls-1 {
        fill: #fff;
        stroke-width: 0px;
      }
    </style>
  </defs>
  <g id="_레이어_1-2" data-name="레이어 1">
    <path class="cls-1" d="M.2,100c0-8.95.36-16.91-.08-24.83-.7-12.5,1.94-24.8,1.57-37.28-.37-12.36-.08-24.74-.08-37.7h6.17c8.65,0,17.33-.51,25.93.12,11.41.84,22.19,3.92,30.47,12.64,1.13,1.19,2.17,2.52,3.49,3.44,6.16,4.31,9.55,16.61,11.24,23.43,1.12,4.53,1.08,8.96,1.27,13.48.48,11.46-4.08,21.5-11.05,29.67-7.18,8.42-17.16,13.35-28.48,15.52-13.35,2.56-26.68.29-40.44,1.5ZM19.98,85.85c6.68-.51,13.18-1.01,19.68-1.51.22-.02.45-.05.64-.13,5.73-2.41,11.47-4.69,15.53-9.85,3.57-4.54,6-9.8,7.23-15.15,1.17-5.09,1.38-10.99-.07-15.93-1.4-4.79-3-9.75-6.19-14.25-4.67-6.58-10.29-10-18.04-10.61-.64-.05-1.34-.18-1.88-.5-5.41-3.19-11.21-2.19-16.9-2.24v70.19Z"/>
  </g>
</svg>