<?xml version="1.0" encoding="UTF-8"?>
<svg id="_레이어_2" data-name="레이어 2" xmlns="http://www.w3.org/2000/svg" viewBox="0 0 65.05 100">
  <defs>
    <style>
      .cls-1 {
        fill: #fff;
        stroke-width: 0px;
      }
    </style>
  </defs>
  <g id="_레이어_1-2" data-name="레이어 1">
    <g>
      <path class="cls-1" d="M44.83,96.54c.96-2.78,1.54-5.28,2.64-7.53,8.49-17.23,9.5-35.46,5.72-53.75-1.39-6.73-6.39-12.75-9.99-18.96-.58-1-2.46-1.72-3.7-1.67-.66.03-1.64,1.95-1.78,3.1-1.05,8.48-2.28,16.96-2.79,25.48-1,16.51-1.63,33.04-2.24,49.57-.06,1.67,1.07,3.38,1.7,5.23-4.01,1.74-5.93.77-6.39-4.78-.89-10.94-1.65-21.9-2.01-32.87-.4-12.34-.19-24.69-.43-37.03-.12-6.22-.65-12.42-.98-18.43,9.55-3.87,14.42,2.93,19.58,7.48,7.85,6.93,11.8,16.53,15.39,26.21,4.74,12.8,6.03,26.03,5.32,39.52-.17,3.25-.84,6.6-1.96,9.66-3.15,8.58-6.37,10.09-18.07,8.76Z"/>
      <path class="cls-1" d="M19.96,6.74c0,5.97-.34,11.66.06,17.31,1.45,20.69.17,41.2-4.15,61.44-.97,4.53-3.57,9.09-6.61,12.63-1.52,1.77-5.7,1.26-9.27,1.89,1.52-5.36,1.46-11.32,4.4-14.17,4.96-4.81,5.59-10.56,6.29-16.2,2.33-18.99,3.18-38.08-.25-57.07-.7-3.87-2.47-7.56-4.17-12.56,5.19,2.55,9.25,4.55,13.7,6.74Z"/>
    </g>
  </g>
</svg>