<?xml version="1.0" encoding="UTF-8"?>
<svg id="_레이어_2" data-name="레이어 2" xmlns="http://www.w3.org/2000/svg" viewBox="0 0 68.28 100">
  <defs>
    <style>
      .cls-1 {
        fill: #fff;
        stroke-width: 0px;
      }
    </style>
  </defs>
  <g id="_레이어_1-2" data-name="레이어 1">
    <path class="cls-1" d="M0,27.24c-.18-9.62,8.35-11.9,14.75-15.67,7.14-4.21,14.79-7.55,22.83-11.57,5.67,2.79,10.71,7.01,11.08,15.12.08,1.8,1.54,3.61,2.59,5.28,4.65,7.39,9.1,14.91,6.62,24.13-2.97,11.04.13,20.25,7.01,28.97,2.49,3.16,6.57,7.82-.81,10.94-2.97-2.1-5.83-4.11-9.25-6.52-1.26,16.66-7.55,22.21-23.57,22.08-17.37-.14-29.03-9.28-30.16-23.62-.93-11.82,2.86-21.61,13.68-35.38,14.64-4.3,23.13,3.7,30.86,17.77,1.15-4.32,2.74-7.38,2.02-8.08-4.33-4.26-8.89-8.47-14-11.7-3.13-1.98-7.47-1.92-11.11-3.21C15.02,33.1,7.6,30.14,0,27.24ZM33.55,60.92c-.21-1.11-.42-2.22-.63-3.33-4.04,0-8.6-1.14-11.96.37-2.57,1.16-3.63,5.68-5.37,8.7.84.81,1.69,1.62,2.53,2.43,5.14-2.72,10.28-5.44,15.43-8.17Z"/>
  </g>
</svg>