<?xml version="1.0" encoding="UTF-8"?>
<svg id="_레이어_2" data-name="레이어 2" xmlns="http://www.w3.org/2000/svg" viewBox="0 0 114.06 100">
  <defs>
    <style>
      .cls-1 {
        fill: #fff;
        stroke-width: 0px;
      }
    </style>
  </defs>
  <g id="_레이어_1-2" data-name="레이어 1">
    <path class="cls-1" d="M0,95.85V3.53c-.08.07.36-.67.9-.75C28.61-1.26,56.68-1.59,83.27,6.49c17.18,5.22,28.48,21.34,30.4,39.23,2,18.7-3.41,37.25-20.86,48.13-8.3,5.17-18.41,10.38-28.4.81-1.87-1.79-6.28-1.37-9.5-1.25-17.67.66-35.33,1.54-54.9,2.44ZM47.58,47.14c-1.26,5.94-2.9,11.25-3.4,16.66-.67,7.21,2.8,12.65,9.98,14.18,9.25,1.97,34.54-12.22,38.19-20.95.56-1.35.08-3.14.08-5.52-14.72-1.44-28.92-2.82-44.85-4.37Z"/>
  </g>
</svg>