<?xml version="1.0" encoding="UTF-8"?>
<svg id="_레이어_2" data-name="레이어 2" xmlns="http://www.w3.org/2000/svg" viewBox="0 0 89.73 100">
  <defs>
    <style>
      .cls-1 {
        fill: #fff;
        stroke-width: 0px;
      }
    </style>
  </defs>
  <g id="_레이어_1-2" data-name="레이어 1">
    <path class="cls-1" d="M0,.34c17.48,0,34.36-.95,51.07.3,13.68,1.02,23.98,9.36,31.01,21.16,12.99,21.8,9.27,50.28-9.88,66.69-6.18,5.29-14.76,9.84-22.66,10.64-16.14,1.63-32.57.49-49.55.49V.34ZM15.9,84.21c9.43,0,17.72.35,25.97-.08,15.5-.8,27.94-12,30.78-27.16,3.13-16.71-4.18-32.9-18.39-39.24-12.5-5.58-25.67-3.51-38.36-3.1v69.58Z"/>
  </g>
</svg>