<?xml version="1.0" encoding="UTF-8"?>
<svg id="_레이어_2" data-name="레이어 2" xmlns="http://www.w3.org/2000/svg" viewBox="0 0 88.73 100">
  <defs>
    <style>
      .cls-1 {
        fill: #fff;
        stroke-width: 0px;
      }
    </style>
  </defs>
  <g id="_레이어_1-2" data-name="레이어 1">
    <path class="cls-1" d="M88.73,94.18v5.82H1.35v-7.2c.33-.03.71-.08,1.09-.09,2.83-.04,3.8-.96,3.82-3.85.03-4.12-.02-8.24-.06-12.36-.04-3.37-.17-6.75-.17-10.12-.05-17.02-.06-34.04-.12-51.06,0-1.38-.17-2.77-.45-4.12-.43-2.11-1.76-3.46-3.93-3.68C.18,7.4-.11,6.79.03,5.59c.16-1.38.27-2.77.25-4.16C.27.34.62-.03,1.74,0c3.07.09,6.15.09,9.23.11,14.09.07,28.19.08,42.28.21,6.11.06,12.14.72,17.95,2.87,7.85,2.89,11.93,8.7,13.08,16.72.45,3.18.59,6.43.58,9.64-.07,17.02-.28,34.04-.31,51.06,0,3.8.47,7.59.73,11.39.08,1.13.55,1.86,1.83,1.86.53,0,1.05.2,1.62.32ZM30.55,91.97c6.36,0,12.51.23,18.63-.07,5.43-.26,9.4-3.13,10.61-8.57,1.16-5.2,2.16-10.51,2.41-15.81.52-10.79.54-21.61.66-32.42.03-2.31-.2-4.67-.62-6.94-1.32-7.14-5.21-10.9-12.34-12.17-6.59-1.17-13.24-.83-19.88-.75-.08,0-.15.12-.3.25-.09,25.45-.74,50.97.83,76.49Z"/>
  </g>
</svg>