<?xml version="1.0" encoding="UTF-8"?>
<svg id="_레이어_2" data-name="레이어 2" xmlns="http://www.w3.org/2000/svg" viewBox="0 0 118.49 100">
  <defs>
    <style>
      .cls-1 {
        fill: #fff;
        stroke-width: 0px;
      }
    </style>
  </defs>
  <g id="_레이어_1-2" data-name="레이어 1">
    <path class="cls-1" d="M22.19,48.67c0-12.07-.07-24.13.06-36.2.02-2.2-.67-3.3-2.71-3.68-3.99-.75-7.97-1.51-11.97-2.19-.94-.16-1.95.06-2.92-.01C2.82,6.46.16,7.21,0,4.48-.15,1.77,2.78,1.99,4.44,1.76,10.01.97,15.62.19,21.22.11c12.85-.18,25.7-.16,38.55.19,10.11.28,20.11,1.42,29.51,5.82,6.48,3.03,12.05,7,16.55,12.57,7.54,9.35,12.34,19.95,12.65,31.94.19,7.32-1.63,14.59-4.88,21.39-6.73,14.06-17.44,23.18-32.82,26.19-5.69,1.11-11.57,1.62-17.37,1.68-19.08.21-38.16.09-57.24.08-1.17,0-2.36.05-3.48-.21-.58-.13-1.02-.89-1.53-1.36.54-.44,1.02-1.15,1.63-1.28,2.47-.52,4.99-.79,7.46-1.3,1.89-.39,3.8-.82,5.58-1.54,4.16-1.69,6.56-4.67,6.46-9.39-.11-5.06-.17-10.12-.19-15.18-.03-7.01,0-14.02,0-21.03.03,0,.07,0,.1,0ZM45.8,49.96c0,11.87-.03,23.75.01,35.62.02,5.95,2.2,7.98,8.17,7.88.78-.01,1.56-.01,2.33-.12,11.45-1.5,21.07-6.61,28.81-15.08,5.93-6.49,9.66-14.31,10.11-23.04.59-11.21-1.76-21.97-7.44-31.88-2.72-4.75-6.38-8.29-11.36-10.44-8.39-3.64-17.29-4.19-26.24-3.74-4.03.2-4.38.88-4.39,5.19-.04,11.87-.02,23.75,0,35.62Z"/>
  </g>
</svg>