<?xml version="1.0" encoding="UTF-8"?>
<svg id="_레이어_2" data-name="레이어 2" xmlns="http://www.w3.org/2000/svg" viewBox="0 0 64.95 100">
  <defs>
    <style>
      .cls-1 {
        fill: #fff;
        stroke-width: 0px;
      }
    </style>
  </defs>
  <g id="_레이어_1-2" data-name="레이어 1">
    <path class="cls-1" d="M0,99.78V.29C.89.23,1.98.09,3.06.09c13.24,0,26.48.3,39.7-.08,8.46-.24,13.37,3.93,16.23,11.14,10.83,27.4,6.93,52.51-12.02,75.18-.8.95-1.67,1.85-2.41,2.84-6.06,8.08-13.98,11.54-24.15,10.7-6.62-.54-13.31-.1-20.41-.1ZM23.92,84.23c8.2-3.75,11.5-10.24,14.22-17.1,4.21-10.61,3.69-21.7,2.52-32.7-.49-4.61-2.01-9.25-3.86-13.53-2.32-5.39-6.98-8.12-12.88-9.09v72.42Z"/>
  </g>
</svg>