<?xml version="1.0" encoding="UTF-8"?>
<svg id="_레이어_2" data-name="레이어 2" xmlns="http://www.w3.org/2000/svg" viewBox="0 0 50.87 100">
  <defs>
    <style>
      .cls-1 {
        fill: #fff;
        stroke-width: 0px;
      }
    </style>
  </defs>
  <g id="_레이어_1-2" data-name="레이어 1">
    <path class="cls-1" d="M.11,56.32C.11,44.79-.22,33.25.25,21.74c.24-5.93,1.89-11.8,2.91-17.69C3.69,1.04,5.21-.09,8.5.01,16.78.27,25.07,0,33.35,0c9.9,0,15.79,4.64,16.74,14.54.87,9.02.86,18.17.68,27.24-.24,11.69-.82,23.38-1.7,35.04-.34,4.47-1.55,8.97-3.05,13.22-2.27,6.46-7.19,10.01-14.09,9.95-8.74-.07-17.47-.65-26.21-.82-3.71-.07-5.18-1.76-5.17-5.34.05-12.51.02-25.01.02-37.52-.15,0-.3,0-.46,0ZM29.19,70.94c0-2.86-.08-5.26.01-7.65.45-11.81.88-23.61,1.48-35.41.19-3.78-1.28-5.94-4.98-6.37-4.05-.47-3.92,2.78-4,5.21-.41,12.94-.78,25.88-.84,38.82-.02,4.74,3.46,6.69,8.33,5.4Z"/>
  </g>
</svg>