<?xml version="1.0" encoding="UTF-8"?>
<svg id="_레이어_2" data-name="레이어 2" xmlns="http://www.w3.org/2000/svg" viewBox="0 0 65.48 100">
  <defs>
    <style>
      .cls-1 {
        fill: #fff;
        stroke-width: 0px;
      }
    </style>
  </defs>
  <g id="_레이어_1-2" data-name="레이어 1">
    <path class="cls-1" d="M0,98.55c0-4.43,0-8.77,0-13.11,0-6.02-.03-12.04.06-18.06.13-8.64.35-17.28.53-25.92.11-5.06.2-10.12.31-15.19.17-7.86.36-15.71.51-23.57.02-1.12,0-2.04,1.58-2.08,6.7-.16,13.43-.91,20.08-.5,7.83.48,15.02,3.66,21.58,7.85,8.25,5.26,14.35,12.43,17.19,21.97,2.76,9.25,3.76,18.77,3.6,28.37-.16,9.69-3.63,17.96-10.42,25.15-6.4,6.77-13.61,12.07-22.2,15.47-1.94.77-4.18,1.1-6.27,1.05-7.31-.18-14.61-.6-21.92-.96-1.46-.07-2.91-.3-4.65-.48ZM22.16,76.71c2.92-1.35,5.86-2.45,8.54-4,7.65-4.42,14.77-9.42,16.57-18.96,1.89-10.02.93-19.42-7.38-26.47-3.45-2.92-7.54-5.1-11.46-7.43-1.81-1.08-3.89-1.7-6.27-2.71v59.57Z"/>
  </g>
</svg>