<?xml version="1.0" encoding="UTF-8"?>
<svg id="_레이어_2" data-name="레이어 2" xmlns="http://www.w3.org/2000/svg" viewBox="0 0 139.55 100">
  <defs>
    <style>
      .cls-1 {
        fill: #fff;
        stroke-width: 0px;
      }
    </style>
  </defs>
  <g id="_레이어_1-2" data-name="레이어 1">
    <path class="cls-1" d="M12.45,92.43c7.31.38,8.58-3.76,8.31-9.44-.89-19.17-1.39-38.36-2.5-57.52C17.59,14,14.54,3.66,0,1.67.36,1.11.72.56,1.07,0c13.43.88,26.86,1.77,40.98,2.7-.54,1.79-.63,4.65-1.62,5.01-7.03,2.54-5.66,8.6-5.86,13.66-.7,17.33-1.08,34.67-1.45,52.01-.07,3.31-.31,6.95.92,9.85,1.44,3.4,3.91,8.17,6.78,8.86,18.99,4.57,38.15,6.38,57.67,2.16,27.93-6.03,32.07-21.67,23.35-44.58-4.7-12.36-13.2-23.51-21.24-34.25-3.3-4.4-9.92-6.31-16.29-10.1v67.67c-.49.07-.99.13-1.48.2-.22-1.83-.55-3.65-.65-5.49-.95-17.51-1.93-35.01-2.74-52.52-.15-3.2.48-6.43.78-10.02-3.01-.61-6.37-1.3-10.54-2.14C90.43-.02,107.74,5.43,123.09,18.32c21.61,18.14,22.19,52.69.27,68.28-11.29,8.02-24.41,13.62-38.36,13.4-22.24-.36-44.46-2.44-66.68-3.91-1.92-.13-3.78-1.13-5.67-1.72-.07-.64-.14-1.28-.2-1.92Z"/>
  </g>
</svg>