<?xml version="1.0" encoding="UTF-8"?>
<svg id="_레이어_2" data-name="레이어 2" xmlns="http://www.w3.org/2000/svg" viewBox="0 0 43.31 100">
  <defs>
    <style>
      .cls-1 {
        fill: #fff;
        stroke-width: 0px;
      }
    </style>
  </defs>
  <g id="_레이어_1-2" data-name="레이어 1">
    <path class="cls-1" d="M33.15,53.22c-4.85-1.01-10.07-2.44-15.38-3.1-6.81-.85-12.72,4.59-13.8,11.48-1.93,12.29,2.79,22.06,11.32,30.25,1.82,1.75,4.89,2.81,7.49,3.03,5.78.48,11.62.23,17.43.27.82,0,1.65,0,2.44,0,1.32,3.74.77,4.89-2.7,4.85-5.42-.07-10.87-.12-16.25-.72-6.35-.72-11.27-3.98-15.07-9.3C1.97,80.64-.69,70.41.15,59.01c.41-5.52,7.39-12.18,13.6-12.56,6.41-.39,12.31,1.52,18.38,2.67,1.59.3,2.93,1.92,4.68,3.14-.26-8.82-.17-17.46-.86-26.04-.7-8.66-2.19-17.25-3.32-25.81,4.21-.93,4.73-.44,5.4,3.07,3.68,19.38,3.17,38.99,3.36,58.57.08,7.79.35,15.58.46,23.37.03,1.78.81,4.54-2.02,4.47-2.45-.06-1.7-2.75-1.75-4.38-.23-6.95-.26-13.91-.48-20.86-.08-2.45-.14-4.88-2.65-6.61-.98-.68-1.05-2.69-1.79-4.81Z"/>
  </g>
</svg>