<?xml version="1.0" encoding="UTF-8"?>
<svg id="_레이어_2" data-name="레이어 2" xmlns="http://www.w3.org/2000/svg" viewBox="0 0 77.07 100">
  <defs>
    <style>
      .cls-1 {
        fill: #fff;
        stroke-width: 0px;
      }
    </style>
  </defs>
  <g id="_레이어_1-2" data-name="레이어 1">
    <path class="cls-1" d="M76.47,34.83c-1.23-16.2-9.69-28.41-21.61-30.18C37.13,2.02,19.09,1.5.07,0c0,30.91,0,59.08,0,87.25,0,1.68.17,3.37,0,5.03-.57,5.78,2.19,7.57,7.69,7.46,12.74-.25,25.59.91,38.21-.34,13.54-1.35,29.96-14.29,30.59-28.36.55-12.05.81-24.2-.1-36.21ZM22.86,82.99V21.72c27.27-2.98,34.26,1.45,35.61,21.74,2.32,34.93-1.2,38.92-35.61,39.52Z"/>
  </g>
</svg>