<?xml version="1.0" encoding="UTF-8"?>
<svg id="_레이어_2" data-name="레이어 2" xmlns="http://www.w3.org/2000/svg" viewBox="0 0 60.75 100">
  <defs>
    <style>
      .cls-1 {
        fill: #fff;
        stroke-width: 0px;
      }
    </style>
  </defs>
  <g id="_레이어_1-2" data-name="레이어 1">
    <path class="cls-1" d="M60.43,92.84h-2.93c0-8.89.05-17.36-.01-25.83-.11-14.69-.16-29.39-.54-44.07-.08-3.17-1.39-6.33-2.23-9.46-.3-1.13-1.08-2.16-1.28-3.3-.41-2.29-.58-4.63-.92-7.59-3.23,3.95-3.53,4.06-7.52,1.52C40.37,1.15,35.5-.51,29.9.14c-5.52.63-10.87,4.86-11.61,10.02,2.74-.63,5.29-1.25,7.84-1.81,2.9-.63,5.56-.54,8.28,1.22,5.27,3.43,7.21,8.2,6.62,14.35,1.48-.36,2.79-.69,4.56-1.12.48,2.52,1.31,4.9,1.32,7.28.1,17.3.17,34.59-.03,51.89-.1,8.13-3.37,10.96-11.51,11.07-2.78.04-5.59.02-8.35.34-7.49.86-11.94-4.57-12.2-11.33-.61-15.77-.47-31.58-.5-47.37-.03-10.77.16-21.54.25-32.52H.99v90.38h-.99c.07,1.86.09,3.73.08,5.59,4.81-.18,9.62-.7,14.42-.68,3,.01,5.97,1.27,8.99,1.42,5.13.27,10.28,0,15.41.19,2.6.09,5.19,1.06,7.76.94,2.96-.14,5.86-1.38,8.82-1.56,1.75-.11,3.51-.16,5.27-.19-.09-1.8-.19-3.59-.32-5.39Z"/>
  </g>
</svg>