<?xml version="1.0" encoding="UTF-8"?>
<svg id="_레이어_2" data-name="레이어 2" xmlns="http://www.w3.org/2000/svg" viewBox="0 0 101.56 100">
  <defs>
    <style>
      .cls-1 {
        fill: #fff;
        stroke-width: 0px;
      }
    </style>
  </defs>
  <g id="_레이어_1-2" data-name="레이어 1">
    <path class="cls-1" d="M0,100V.9C3.34.64,6.26.24,9.18.23,31.69.16,54.21.39,76.72,0c5.71-.1,9.93,1.35,13.69,5.49,2.06,2.27,5.36,3.55,7.01,6.01,1.85,2.76,3.33,6.31,3.46,9.58.48,12.38.37,24.78.44,37.17.04,6.27-.53,12.6.15,18.79.58,5.25-1.6,8.65-4.97,11.92-3.05,2.97-5.88,6.21-9.15,8.9-1.46,1.2-3.77,1.9-5.7,1.91-24.08.17-48.16.17-72.24.22-2.98,0-5.96,0-9.41,0ZM78.23,24.73H22.66v49.88h55.57V24.73Z"/>
  </g>
</svg>