<?xml version="1.0" encoding="UTF-8"?>
<svg id="_레이어_2" data-name="레이어 2" xmlns="http://www.w3.org/2000/svg" viewBox="0 0 75.68 100">
  <defs>
    <style>
      .cls-1 {
        fill: #fff;
        stroke-width: 0px;
      }
    </style>
  </defs>
  <g id="_레이어_1-2" data-name="레이어 1">
    <path class="cls-1" d="M75.68,94.94c.09,2.61-1.75,4.53-4.45,3.96-6.68-1.4-13.16-.16-19.76.51-6.79.68-13.67.61-20.51.58-3.9-.02-7.88-.2-11.66-1.03-7.51-1.64-13.38-5.6-16.3-13.17-3.82-9.87-4.01-19.93-.4-29.69,2.94-7.94,8.12-14.63,17.21-16.07,6.44-1.02,13.1-1.58,19.88,2.59-.34-5.91-.6-11.02-1-16.12-.05-.62-.77-1.46-1.38-1.72-4.12-1.77-5.28-4.91-4.77-9.14.37-3.13.56-6.31.48-9.45-.06-2.31.83-3.08,2.91-2.7,7.33,1.34,14.45-.07,21.55-1.62,1.85-.41,3.62-1.2,5.46-1.69,1.96-.53,2.98.1,2.87,2.35-.37,7.72-.98,15.44-.85,23.16.1,6.17,1.11,12.34,1.76,18.5.33,3.14.97,6.25,1.11,9.4.46,10.6.78,21.21,1.12,31.82.03,1.01-.15,2.03-.24,3.04-.45,5.06,3.47,5.49,7,6.5ZM41.25,67.62c-.6-6.03-1.09-11.67-1.75-17.29-.23-1.99-1.27-4.09-3.42-3.96-1.91.12-3.86,1.26-5.57,2.33-.83.52-1.26,1.84-1.66,2.88-2.41,6.37-2.66,13.07-3.32,19.76-.68,6.9.6,13.28,3.31,19.5,1.37,3.14,4.8,3.62,6.92.89,1.09-1.41,2.19-3.09,2.49-4.79,1.18-6.5,2.04-13.06,2.98-19.33Z"/>
  </g>
</svg>