<?xml version="1.0" encoding="UTF-8"?>
<svg id="_레이어_2" data-name="레이어 2" xmlns="http://www.w3.org/2000/svg" viewBox="0 0 153.32 100">
  <defs>
    <style>
      .cls-1 {
        fill: #fff;
        stroke-width: 0px;
      }
    </style>
  </defs>
  <g id="_레이어_1-2" data-name="레이어 1">
    <path class="cls-1" d="M0,99.97V.31c2.04,0,3.86,0,5.67,0C33.57.22,61.48.19,89.38,0c11.21-.07,22.15,1.06,32.62,5.41,24.37,10.12,36.87,35.96,28.95,61.12-5.5,17.47-18.64,26.92-35.77,31.15-5.91,1.46-12.15,2.15-18.25,2.19-30.3.21-60.6.1-90.9.1-1.84,0-3.67,0-6.04,0ZM42.26,79.34c18.53,0,36.62.41,54.68-.17,9.14-.3,15.52-5.93,18.52-14.68,6.81-19.89-4.39-40-25-43.6-8.99-1.57-18.37-.97-27.58-1.18-6.78-.16-13.56-.03-20.62-.03v59.66Z"/>
  </g>
</svg>