<?xml version="1.0" encoding="UTF-8"?>
<svg id="_레이어_2" data-name="레이어 2" xmlns="http://www.w3.org/2000/svg" viewBox="0 0 86.02 100">
  <defs>
    <style>
      .cls-1 {
        fill: #fff;
        stroke-width: 0px;
      }
    </style>
  </defs>
  <g id="_레이어_1-2" data-name="레이어 1">
    <path class="cls-1" d="M0,90.04c2.73-.66,4.89-1.14,7.03-1.71,1.55-.42,2.22-1.44,2.2-3.12-.2-21.67-.28-43.35-.55-65.02-.08-6.1-2.9-11.41-5.84-16.81.28-.24.92-.51.95-.85C4.09-.52,6.32.04,8.26.04c10.62,0,21.23.06,31.85-.03,7.36-.07,14.42,1.22,21.32,3.79,11.73,4.37,18.26,13.17,21.72,24.74,2.98,9.97,3.07,20.21,2.76,30.45-.17,5.46-.47,11.03-1.68,16.34-2.82,12.4-11.48,19.4-23.3,22.55-4.89,1.31-10.08,1.99-15.14,2.06-14.55.2-29.1-.09-43.65-.12C.55,99.81,0,99.17,0,97.75c0-2.59,0-5.17,0-7.72ZM30.98,53.18s-.09,0-.13,0c0,4.15.01,8.31,0,12.46-.02,6.9,0,13.8-.12,20.7-.03,2.04.81,2.42,2.66,2.38,11.18-.23,22.15-10.2,22.99-21.58.47-6.33.22-12.74-.06-19.09-.28-6.3-.88-12.68-3.57-18.46-3.31-7.1-10.29-13.96-19.55-11.4-1.71.47-2.26.98-2.24,2.7.07,10.76.03,21.52.03,32.28Z"/>
  </g>
</svg>