<?xml version="1.0" encoding="UTF-8"?>
<svg id="_레이어_2" data-name="레이어 2" xmlns="http://www.w3.org/2000/svg" viewBox="0 0 81.64 100">
  <defs>
    <style>
      .cls-1 {
        fill: #fff;
        stroke-width: 0px;
      }
    </style>
  </defs>
  <g id="_레이어_1-2" data-name="레이어 1">
    <g>
      <path class="cls-1" d="M65.35,79.86c-.68-.3-1.04-.56-1.4-.56-.15,0-.31.57-.44.89-.7,1.73-1,3.82-2.16,5.14-7.68,8.69-16.84,14.44-28.97,14.36-9.12-.06-18.23.2-27.35.31-.95.01-1.9,0-3.01,0v-8.5c1.42-.19,2.85-.42,4.29-.57,1.69-.18,2.27-1.16,2.25-2.75-.04-2.89-.05-5.78-.03-8.67.07-7.83.16-15.66.27-23.48,0-.57.25-1.14.83-1.67.1,1.34.2,2.68.3,4.02.28.07.55.14.83.21.39-.8.8-1.59,1.18-2.39.11-.22.13-.68.22-.69,1.41-.08,2.84-.24,4.24-.09.46.05,1.14.88,1.18,1.39.11,1.57.96,1.58,2.2,1.62.72.03,1.41.81,2.11,1.25-.58.36-1.12.8-1.74,1.07-.45.2-1.03.11-1.5.3-.26.1-.57.54-.54.78.09.73,2.55,1.57,3.39,1.05.68,2.36,1.16,4.75,2.08,6.97.56,1.34,1.69,2.49,2.74,3.57,1.5,1.54.94,2.29.31,4.07-.73,2.05-1.5,3.93-2.64,5.78-.26.43.84,1.93,1.58,2.68,2.19,2.21,4.43,4.38,6.82,6.37.62.52,1.85.32,2.8.42.17.02.36-.18.54-.17,2.49.18,4.56-.49,5.68-3.12.14.07.29.14.43.21.17.58.35,1.16.57,1.92.52-.14,1.15-.32,1.87-.52-.1-.68-.19-1.27-.31-2,2.17.34,3.04-.75,4-2.47,1.75-3.15,2.83-6.4,3.32-9.93.31-2.25.61-4.53,1.21-6.71.4-1.47,1.27-2.82,2.01-4.17.64-1.17,1.41-2.28,2.22-3.57.12.5.2.85.28,1.2.33-.13.85-.17.97-.41.89-1.74,3.08-3,1.85-5.56-.29-.6.42-1.67.64-2.53.69-2.78,1.53-5.53,2.01-8.35.37-2.19.33-4.45.42-6.68.28-7.1-.04-14.08-3.47-20.59-2.88-5.46-6.83-9.79-12.58-12.19-1.61-.67-3.47-.91-5.23-1-5.13-.26-10.26-.37-15.4-.47-2.55-.05-2.64.25-2.67,2.75-.12,10.2-.3,20.41-.5,30.61-.02.98-.3,1.95-.43,2.76-.52-1.05-1.1-2.21-1.54-3.08-.15-.87-.25-1.49-.36-2.12-.98.44-2,.83-2.94,1.36-.22.12-.21.67-.39,1.35-.39-.68-.63-1.11-.91-1.6-.7.33-1.33.62-2.03.95-.27-.85-.49-1.57-.73-2.32.61-.16,1.18-.31,1.83-.48-.86-2.63-2.76-1.47-4.72-1.64.9,1.91,1.65,3.51,2.61,5.56-.9-.74-1.44-1.18-1.97-1.62-2.24,2.98-1.51,6.03-.4,9.03.16.44,1.21.73,1.87.77,1.76.11,3.54.04,5.4.04-1.55,2.17-5.24,3.17-7.23,1.96-.16.32-.24.72-.48.93-.35.31-.85.7-1.23.65-.33-.04-.85-.67-.83-1.01.16-2.45.44-4.88.69-7.32.02-.24.24-.54.16-.71-1.68-3.39-.87-6.91-.66-10.43.15-2.61-.06-5.25-.2-7.87-.26-4.87-.57-9.73-.89-14.6-.17-2.51-1.7-4.22-4.18-4.8-.06-.01-.13-.03-.19-.04Q-.16,3.89.1.02C2.87.02,5.66-.04,8.44.03c8.28.21,16.56.44,24.83.73,9.85.34,19.58,1.5,28.75,5.39,11.29,4.79,17.65,13.41,19.24,25.53,1.41,10.73-1.3,20.74-5.63,30.41-1.25,2.8-2.7,5.53-4.23,8.18-.61,1.06-1.69,1.85-2.56,2.77-.21.22-.64.46-.61.63.54,2.85-2.33,3.97-2.88,6.19ZM13.24,22.12c-.94-.11-1.73-.23-2.51-.26-.34-.01-.97.13-.99.26-.05.38.02.9.27,1.17.88.98,2.84.27,3.23-1.17ZM22.89,30.57c-.33-.12-.66-.25-.99-.37-.22.6-.51,1.19-.61,1.82-.02.15.57.4.88.6.24-.68.48-1.37.73-2.05ZM19.82,34.16c-1.04.06-1.77.1-2.87.17,1.13,1.51,1.88,1.67,2.87-.17ZM16.8,31.3c-.33-.12-.65-.24-.98-.35-.21.78-.42,1.56-.63,2.34.22.08.44.15.66.23.31-.74.63-1.48.94-2.21ZM16.81,58.12c.03-.27.05-.54.08-.8h-2.57c0,.19-.02.39-.03.58l2.53.22ZM14.62,18.76c-.07-.25-.14-.5-.22-.75-.4.09-.79.18-1.19.26.08.27.18.76.24.76.4-.03.78-.17,1.17-.27ZM14.2,31.68c-.2-.07-.4-.14-.6-.21-.17.47-.34.94-.5,1.4.21.07.41.14.62.21.16-.47.32-.94.48-1.41ZM11.86,17.8c-.3.32-.5.53-.7.74.2.18.42.52.61.5.25-.02.48-.31.72-.49-.18-.22-.36-.43-.62-.76ZM57.57,64.83c-.36-.28-.59-.58-.81-.57-.19,0-.52.35-.52.55,0,.19.32.52.53.54.21.02.44-.27.8-.51ZM17.89,30.31c-.21.32-.45.53-.42.68.04.19.28.42.48.46.14.03.34-.21.52-.33-.16-.22-.31-.45-.57-.81Z"/>
      <path class="cls-1" d="M77.81,88.28c-2.26,3.77-5.21,6.75-10.19,8.33.47-3.78.91-7.22,1.38-11.04,1.66,1.22,2.75,2.56,4.07,2.85,1.36.29,2.94-.45,4.43-.73.1.2.21.39.31.59Z"/>
      <path class="cls-1" d="M22.16,54.77c-1.36.23-2.71.46-4.07.69-.03-.24-.06-.48-.09-.73l4.09-.44c.02.16.04.31.06.47Z"/>
      <path class="cls-1" d="M21.37,45.72c.42-.05.83-.09,1.25-.14,0,.24.02.7,0,.7-.41.05-.82.03-1.24.03,0-.2,0-.39,0-.59Z"/>
      <path class="cls-1" d="M20.9,41.77c0-.18,0-.35.01-.53,0-.01.19,0,.3,0-.03.17-.06.35-.09.52-.07,0-.15,0-.22.01Z"/>
      <path class="cls-1" d="M21.5,56.65s0,.09,0,.13c-.11,0-.22,0-.34,0,0,0,0-.08,0-.12.11,0,.22,0,.34,0Z"/>
      <path class="cls-1" d="M12.36,42s-.03.13-.05.13c-.05,0-.11-.03-.16-.05.02-.05.03-.1.05-.14.06.02.11.04.17.06Z"/>
    </g>
  </g>
</svg>