<?xml version="1.0" encoding="UTF-8"?>
<svg id="_레이어_2" data-name="레이어 2" xmlns="http://www.w3.org/2000/svg" viewBox="0 0 81.07 92.88">
  <defs>
    <style>
      .cls-1 {
        fill: #fff;
        stroke-width: 0px;
      }
    </style>
  </defs>
  <g id="_레이어_1-2" data-name="레이어 1">
    <path class="cls-1" d="M21.91,91.64c-5.82,0-11.64-.07-17.46.03-3.06.05-4.6-.9-4.45-4.31.93-20.27,1.76-40.54,2.57-60.81.31-7.65.35-15.31.83-22.95C3.49,2.31,5.22.03,6.17.04c12.8.14,25.78-.64,38.34,1.27,20.9,3.19,34.1,18.79,36.25,39.79,1.29,12.61-1.52,24.14-8.57,34.58-8.93,13.21-22.41,16.92-37.33,17.19-4.32.08-8.64-.42-12.96-.66,0-.19,0-.38,0-.57ZM14.29,11.7c0,23.07-.05,45.2.14,67.33,0,1.09,1.99,3,3.15,3.09,5.64.39,11.41.99,16.95.22,12.26-1.7,23.66-5.65,28.57-18.56,4.31-11.35,3.9-22.92-1.08-34.04-4.16-9.27-10.86-16.48-21.26-17.82-8.31-1.07-16.87-.22-26.47-.22Z"/>
  </g>
</svg>