<?xml version="1.0" encoding="UTF-8"?>
<svg id="_레이어_2" data-name="레이어 2" xmlns="http://www.w3.org/2000/svg" viewBox="0 0 81.87 91.72">
  <defs>
    <style>
      .cls-1 {
        fill: #fff;
        stroke-width: 0px;
      }
    </style>
  </defs>
  <g id="_레이어_1-2" data-name="레이어 1">
    <path class="cls-1" d="M26.6,0c8.56.85,17.3.89,25.64,2.73,18.41,4.07,26.39,13.36,29.04,32.13,2.02,14.27-1.21,27.2-9.33,39.23-6.65,9.84-15.64,15.56-27.17,16.41-13.59,1-27.25,1-40.89,1.22-1.31.02-3.05-1.2-3.8-2.36-.44-.68.75-2.35,1.07-3.62.46-1.83,1.16-3.7,1.11-5.54C1.69,59.6.98,38.99.33,18.38c-.11-3.66.06-7.33-.13-10.98C0,3.5,1.41,1.43,5.57,1.48c6.98.09,13.97.03,20.95.03.03-.5.05-1,.08-1.51ZM17.38,12.99c0,3.3-.03,5.11,0,6.91.36,18.78.8,37.57,1.02,56.35.04,3.58.91,5.24,4.82,4.79,3.62-.41,7.32-.15,10.97-.41,15.61-1.14,29.8-12.46,31.7-25.98.87-6.19.9-12.67.18-18.89-1.51-13.04-10.35-21.85-22.7-22.67-8.57-.57-17.22-.11-25.99-.11Z"/>
  </g>
</svg>