<?xml version="1.0" encoding="UTF-8"?>
<svg id="_레이어_2" data-name="레이어 2" xmlns="http://www.w3.org/2000/svg" viewBox="0 0 62.53 100">
  <defs>
    <style>
      .cls-1 {
        fill: #fff;
        stroke-width: 0px;
      }
    </style>
  </defs>
  <g id="_레이어_1-2" data-name="레이어 1">
    <path class="cls-1" d="M11.28,4.68c3.41-.26,7.63-.58,12.19-.93-1.91,31.64.34,62.9,3.86,94.11,10.79,1.68,16.75-2.2,20.81-12.4,5.38-13.5,4.11-27.3,2.67-41.12-.52-4.97-1.97-9.86-3.13-14.76-1.89-7.99-5.22-15.29-10.7-21.52-1.97-2.24-3.04-4.61-.13-8.05,6.42,4.81,12.73,9.58,16.5,17.02,6.27,12.38,8.93,25.65,9.12,39.39.11,8.38.18,16.87-1.05,25.12-.8,5.37-3.78,10.49-6.25,15.49-.62,1.26-2.99,2.16-4.65,2.32-11.44,1.09-22.79,1.24-33.94-2.55-5.34-1.82-11.01-2.67-16.59-4.51,2.1.15,4.21.35,6.31.42,2.26.07,4.53.02,7.87.02-1.29-29.29,1.9-58.52-2.91-88.03Z"/>
  </g>
</svg>