<?xml version="1.0" encoding="UTF-8"?>
<svg id="_레이어_2" data-name="레이어 2" xmlns="http://www.w3.org/2000/svg" viewBox="0 0 86.11 98.8">
  <defs>
    <style>
      .cls-1 {
        fill: #fff;
        stroke-width: 0px;
      }
    </style>
  </defs>
  <g id="_레이어_1-2" data-name="레이어 1">
    <path class="cls-1" d="M0,1.73c17.05-.72,33.95-3.69,50.79.34,22.99,5.5,38.54,29.13,34.75,52.38-.72,4.42-1,8.96-2.24,13.23-5.4,18.62-19.96,26.27-37.35,29.4-8.26,1.48-16.89.91-25.35,1.22-4.82.18-9.67.1-14.47.46-4.02.3-5.78-1.21-5.78-5.26-.02-11.99-.19-23.97-.27-35.96C.02,48.38.02,39.22,0,30.06,0,20.92,0,11.79,0,1.73ZM16.29,10.23c0,4.01-.07,7.97.01,11.93.42,20.3.85,40.61,1.34,60.91.06,2.56-.26,5.35,3.75,5.79,27.74,3.03,47.51-12.56,48.39-38.84.81-24.38-21.54-46.12-53.5-39.79Z"/>
  </g>
</svg>