<?xml version="1.0" encoding="UTF-8"?>
<svg id="_레이어_2" data-name="레이어 2" xmlns="http://www.w3.org/2000/svg" viewBox="0 0 86.37 100">
  <defs>
    <style>
      .cls-1 {
        fill: #fff;
        stroke-width: 0px;
      }
    </style>
  </defs>
  <g id="_레이어_1-2" data-name="레이어 1">
    <path class="cls-1" d="M0,0c17.23.79,33.82.59,50.14,2.57,18.23,2.2,29.42,14.28,33.24,32.18,3.01,14.11,4.2,28.24,1.44,42.47-2.67,13.75-11.87,22.42-25.68,22.68-19.79.37-39.6-.37-59.14-.63V0ZM23.06,26.12c0,15.95-.08,31.51.18,47.05.02,1.03,2.64,2.85,4.08,2.88,5.23.12,10.47-.28,15.7-.65,7.87-.55,12.85-5.18,14.93-12.33,2.89-9.88,3.58-20.02.27-30.04-1.77-5.34-6.68-8.86-11.87-8.56-7.36.43-14.72,1.02-23.3,1.63Z"/>
  </g>
</svg>