<?xml version="1.0" encoding="UTF-8"?>
<svg id="_레이어_2" data-name="레이어 2" xmlns="http://www.w3.org/2000/svg" viewBox="0 0 81.93 100">
  <defs>
    <style>
      .cls-1 {
        fill: #fff;
        stroke-width: 0px;
      }
    </style>
  </defs>
  <g id="_레이어_1-2" data-name="레이어 1">
    <path class="cls-1" d="M0,99.94V.5C2.33.32,4.47.03,6.6.03,16,0,25.39-.02,34.78.06c24.26.22,40.16,12.47,45.36,36.33,4.38,20.1,1.28,38.71-15.33,52.95-7.82,6.7-17.08,10.37-27.44,10.55-12.21.21-24.43.05-37.38.05ZM18.82,17.7v64.54c14.3.33,28.78,3.02,38.47-11.23,7.9-11.61,7.46-31.17-.87-42.87-9.71-13.65-23.85-10.33-37.6-10.44Z"/>
  </g>
</svg>