<?xml version="1.0" encoding="UTF-8"?>
<svg id="_레이어_2" data-name="레이어 2" xmlns="http://www.w3.org/2000/svg" viewBox="0 0 81.53 100">
  <defs>
    <style>
      .cls-1 {
        fill: #fff;
        stroke-width: 0px;
      }
    </style>
  </defs>
  <g id="_레이어_1-2" data-name="레이어 1">
    <path class="cls-1" d="M0,99.92V.14C14.98.14,29.88-.29,44.74.35c6.25.27,11.72,4.36,17.35,7.19,6.12,3.07,9.48,8.56,12.55,14.26,1.55,2.87,2.7,5.95,4.09,8.91.32.69,1.19,1.24,1.26,1.91.63,6.57,1.74,13.17,1.5,19.72-.19,5.29-1.34,10.8-3.34,15.69-2.28,5.58-5.31,11.15-9.19,15.71-6.08,7.16-14.32,11.59-23.26,14.55-1.68.56-3.32,1.35-5.04,1.57-2.14.27-4.34.07-6.52.07H0ZM18.13,14.86v68.84c7.87-.6,15.46-1.17,23.05-1.8.45-.04.82-.63,1.28-.81,10.89-4.15,17.27-12.89,19.23-23.45,1.99-10.74.59-21.82-6.14-31.48-4.98-7.15-11.6-10.97-20.21-11.26-5.65-.19-11.32-.04-17.22-.04Z"/>
  </g>
</svg>