<?xml version="1.0" encoding="UTF-8"?>
<svg id="_레이어_2" data-name="레이어 2" xmlns="http://www.w3.org/2000/svg" viewBox="0 0 110.5 100">
  <defs>
    <style>
      .cls-1 {
        fill: #fff;
        stroke-width: 0px;
      }
    </style>
  </defs>
  <g id="_레이어_1-2" data-name="레이어 1">
    <path class="cls-1" d="M11.17,99.98V8.8C7.05,7.4,3.11,5.67,0,1.06,2.19.66,3.69.19,5.22.15,9.6.01,14-.05,18.39.04c10.74.22,21.48.46,32.22.83,7.85.27,15.66,1.15,22.85,4.53,15.15,7.13,27.15,17.72,34.49,33.01,3.76,7.83,3.17,15.76-.51,23.52-.9,1.91-1.9,3.78-2.91,5.64-2.45,4.51-5.43,8.31-10,11.19-10.51,6.63-21.41,12.45-33.15,16.38-7.31,2.45-14.7,4.89-22.86,4.24-7.19-.57-14.49.35-21.75.59-1.64.05-3.28,0-5.61,0ZM38.83,14.15c.29,4.55.81,8.69.78,12.83-.13,17.54-.45,35.08-.59,52.62-.02,1.92.69,3.85,1.16,6.3,5.54-.56,10.35-.8,15.07-1.57,6.75-1.1,13.28-3.17,18.89-7.14,2.45-1.73,5.39-4.31,5.94-6.94,2.73-13.23,3.14-26.47-5.02-38.29-2.87-4.16-5.8-9.01-9.95-11.41-8.04-4.65-16.95-7.82-26.28-6.38Z"/>
  </g>
</svg>