<?xml version="1.0" encoding="UTF-8"?>
<svg id="_레이어_2" data-name="레이어 2" xmlns="http://www.w3.org/2000/svg" viewBox="0 0 54.52 100">
  <defs>
    <style>
      .cls-1 {
        fill: #fff;
        stroke-width: 0px;
      }
    </style>
  </defs>
  <g id="_레이어_1-2" data-name="레이어 1">
    <g>
      <path class="cls-1" d="M2.68,3.96V1.28c.82.67,1.36,1.11,1.96,1.61,1.06-.85,2.11-1.71,3.18-2.56.18-.14.47-.38.6-.32,2.97,1.34,6.4-1.29,9.23,1.09,2.74-1.13,5.2,1.38,7.99.64.54-.14,1.44,1.1,2.1,1.64.56-.03,1.46-.32,1.75-.03.42.44.41,1.3.52,1.75,2,1.18,3.85,2.28,5.93,3.51.15-.04.67-.17.87-.22,1.34,1.24,2.47,2.34,3.65,3.37.59.52,1.27.94,1.93,1.37,1.02.66,2.17,1.17,3.05,1.97.77.7.04,2.28-1.28,3.1q1.45.9-.18,2.37c2.99.62-.45,2.75,1.39,3.78.08-.01.58-.08,1.12-.15.62,1.14-.53,3.23,1.91,3.28.25-.61.51-1.25.77-1.89.22.01.44.02.67.03.13,1.17.26,2.34.4,3.59h2.27c-.82.99-1.31,1.59-1.82,2.21,1.13.87,1.78,1.74,1.63,3.52-.13,1.55-1.24,3.5.51,4.99.16.14.12.61.05.89-.41,1.68-1.46,3.48-1.14,4.99.45,2.12.42,3.87-.57,5.75-.17.33.51,1.1.79,1.67.19-.05.38-.1.57-.15v-2.75h1.91c0,2.06.24,4.07-.05,6-.62,4.03.01,8.16-.7,12.08-.51,2.81-.48,5.94-2.41,8.5-.87,1.16-1.47,2.77-1.54,4.21-.08,1.83-1.51,2.51-2.34,3.65-.72.99-2.07,1.56-1.73,3.16.05.22-.42.61-.71.83-2.52,1.93-5.05,3.85-7.6,5.75-.23.17-.78.32-.83.24-.88-1.25-1.68-.2-1.97.3-1.57,2.72-4.42,2.5-6.88,3.19-.62.17-1.29.21-1.9.41-2.85.96-5.5,2-8.75.82-2.35-.86-5.15-.47-7.74-.63-.47-.03-.96.06-1.42-.01-1.97-.28-3.91-1.44-5.83.32,0-.95.23-1.67-.04-2.02-1.3-1.73-1.08-3.67-1.39-5.65-1.12-7.11-.22-14.2-.47-21.29-.15-4.23.23-8.48.28-12.72.02-1.91-.26-3.82-.24-5.73.16-12.72.34-25.43.6-38.15.06-2.82.5-5.63.75-8.44.02-.22-.07-.45-.11-.67-.07-.44-.13-.87-.19-1.31.4.21.8.42,1.48.78ZM33.65,18.83c-1.44-.57-3.13-1.01-4.57-1.88-1.84-1.11-3.52-.91-5.33-.16-.71.3-1.51.65-2.24.59-2.59-.24-2.74-.19-2.73,2.26.02,7.29.03,14.58.08,21.86.04,5.76.18,11.52.16,17.28-.01,3.42-.3,6.83-.37,10.25-.05,2.31.1,4.62.1,6.93,0,2.57-.09,5.14-.15,8.13,2.1-.49,3.72-.97,5.38-1.22,3.86-.59,5.6-3.94,8.19-6.17.23-.2.16-.76.21-1.15.31-2.27.52-4.56.94-6.82.26-1.41,1.13-2.74,1.21-4.14.28-5.12.29-10.25.51-15.37.19-4.46.39-8.88-.13-13.36-.64-5.56-.85-11.16-1.27-17.02Z"/>
      <path class="cls-1" d="M53.56,47.94c.41.52.78.78.78,1.04,0,.23-.39.53-.67.64-.12.05-.56-.32-.57-.51-.02-.29.22-.59.46-1.17Z"/>
    </g>
  </g>
</svg>