<?xml version="1.0" encoding="UTF-8"?>
<svg id="_레이어_2" data-name="레이어 2" xmlns="http://www.w3.org/2000/svg" viewBox="0 0 109.6 100">
  <defs>
    <style>
      .cls-1 {
        fill: #fff;
        stroke-width: 0px;
      }
    </style>
  </defs>
  <g id="_레이어_1-2" data-name="레이어 1">
    <path class="cls-1" d="M0,.12C20.08.12,39.67-.24,59.24.28c9.63.25,19.37,1.36,28.1,6.4,12.34,7.12,19.64,17.8,21.58,31.73,2.15,15.42-.64,30.03-11.57,41.7-8.04,8.58-18.11,14.27-29.86,17-22.31,5.19-44.85,1.13-67.5,2.9V.12ZM29.24,77.95c8.31,0,16.13.1,23.95-.06,2.36-.05,4.78-.59,7.04-1.31,16.92-5.36,25.45-25.15,20.47-41.41-2.67-8.72-12.57-17.2-22.8-16.18-7.16.71-14.45.09-21.68.17-2.17.02-4.34.41-6.98.67v58.11Z"/>
  </g>
</svg>