<?xml version="1.0" encoding="UTF-8"?>
<svg id="_레이어_2" data-name="레이어 2" xmlns="http://www.w3.org/2000/svg" viewBox="0 0 57.26 100">
  <defs>
    <style>
      .cls-1 {
        fill: #fff;
        stroke-width: 0px;
      }
    </style>
  </defs>
  <g id="_레이어_1-2" data-name="레이어 1">
    <g>
      <path class="cls-1" d="M0,0c5.26.65,10.31,1.92,15,4.55,6.85,3.85,12.77,8.75,17.24,15.22,4.06,5.9,7.47,12.23,8.7,19.34,1.21,6.98,1.38,14.08-.18,21.06-.78,3.49-2.25,6.83-3.06,10.33-1.21,5.25-4.33,9.33-7.68,13.25-4.07,4.77-9.18,8.35-14.81,10.91C10.34,96.89,5.09,98.26,0,100c0-1.23,0-2.45,0-3.68,3-.81,5.68-2.13,7.95-4.34,4.58-4.46,7.28-9.97,8.06-16.14.98-7.76,1.35-15.61,1.7-23.43.26-5.78.3-11.6-.01-17.38-.36-6.64-.95-13.24-3.64-19.53C11.3,9.03,6.58,5.2,0,3.34V0Z"/>
      <path class="cls-1" d="M42.12,1.5c3.61-.16,7.03-.31,10.43-.46,3.49,11.84,5.46,23.81,4.43,36.25-.37-.07-.83-.15-1.16-.21-.16-.71-.15-1.41-.46-1.88-.83-1.22-.88-1.18.23-2.06-.57-.83-1.14-1.65-1.84-2.67-2.72-9.81-6.2-19.61-11.63-28.98Z"/>
    </g>
  </g>
</svg>