<?xml version="1.0" encoding="UTF-8"?>
<svg id="_레이어_2" data-name="레이어 2" xmlns="http://www.w3.org/2000/svg" viewBox="0 0 64.14 100">
  <defs>
    <style>
      .cls-1 {
        fill: #fff;
        stroke-width: 0px;
      }
    </style>
  </defs>
  <g id="_레이어_1-2" data-name="레이어 1">
    <g>
      <path class="cls-1" d="M31.66,60.07c.97,3.19.12,6.42,1.93,9.24-5.27,1.6-9.96,2.14-14.79,1.84-6.81-.43-11.79-3.57-15.36-9.4-4.59-7.48-4.26-15.15-.92-22.73,2.6-5.91,7.97-8.89,14.08-9.84,4.34-.67,8.93-.74,13.24,1.58.71,2.95,1.27,5.77-1.38,8.35-5.49-2.19-10.35-1.11-13.5,3.84-2.98,4.68-2.61,9.88.45,14.48,4.26,6.4,10.39,3.93,16.25,2.64Z"/>
      <g>
        <path class="cls-1" d="M60.23,97.15c-2.56,1.37-3.81,2.54-5.16,2.67-3.06.3-6.16.12-9.25.09-5.73-.06-11.75-4.72-12.78-10.28-.79-4.26-1.79-8.46-1.58-12.93.35-7.58.38-15.2.04-22.78-.79-17.87,2.76-35.57,1.26-53.92C36.68,0,40.19.01,43.69,0c2.28,0,3.28,1.37,3.54,3.39.15,1.17.46,2.62-.05,3.51-2.4,4.18-1.25,8.66-1.29,12.98-.15,16.61.01,33.23-.14,49.84-.02,2.65,1.36,5.68-1.24,8.02-.25.22-.28,1.03-.08,1.34,3.08,4.63,4.36,10.51,9.52,13.71,1.71,1.06,3.31,2.29,6.27,4.35Z"/>
        <path class="cls-1" d="M64.14,89.8h-2.37v-6.88h2.37v6.88Z"/>
      </g>
    </g>
  </g>
</svg>