<?xml version="1.0" encoding="UTF-8"?>
<svg id="_레이어_2" data-name="레이어 2" xmlns="http://www.w3.org/2000/svg" viewBox="0 0 77.3 100">
  <defs>
    <style>
      .cls-1 {
        fill: #fff;
        stroke-width: 0px;
      }
    </style>
  </defs>
  <g id="_레이어_1-2" data-name="레이어 1">
    <path class="cls-1" d="M2.36,99.95c0-17.33.31-33.66-.09-49.97C1.88,33.82.78,17.69,0,1.65h23.68c-8.06,13.27-4.48,27.03-5.06,40.32-.6,13.56-.36,27.16-.21,40.75.12,11.32.35,11.38,11.46,13.89,13.15,2.97,18.46.33,22.59-12.45,6.61-20.48,6.03-41.68,4.93-62.78C56.66,7.5,47.15,1.95,34.67.1c8.94,0,17.9-.26,26.82.08,8.13.31,12.49,4.87,13.82,12.85,2.44,14.65,2.87,29.36-.12,43.86-3.24,15.73-8.69,30.58-23.61,39.46-2.55,1.52-5.44,3.36-8.22,3.44-13.52.36-27.06.16-41.02.16Z"/>
  </g>
</svg>