<?xml version="1.0" encoding="UTF-8"?>
<svg id="_레이어_2" data-name="레이어 2" xmlns="http://www.w3.org/2000/svg" viewBox="0 0 71.42 100">
  <defs>
    <style>
      .cls-1 {
        fill: #fff;
        stroke-width: 0px;
      }
    </style>
  </defs>
  <g id="_레이어_1-2" data-name="레이어 1">
    <path class="cls-1" d="M0,.56c9.09,2.51,17.82.65,26.63-.21,11.92-1.16,23.35.32,33.48,7.77,7.07,5.2,9.8,12.34,10.64,20.58,1.48,14.54.71,28.88-4.42,42.73-2.96,7.99-6.96,15.29-13.13,21.45-7,6.99-15.51,7.54-24.45,6.93-3.14-.21-6.31-.75-9.33-1.62-4.81-1.38-8.14-5.1-9.89-9.36-3.19-7.76-6.5-15.73-7.86-23.93-2.04-12.28-2.22-24.85.42-37.18,1-4.67,2.68-9.23,4.42-13.7,1.01-2.58.79-4.45-1.83-5.25C.46,7.48.67,4.03,0,.56ZM23.71,2.37c.36,5.27.88,10.37,1.02,15.49.15,5.16-.07,10.34-.11,15.51-.07,8.31-.22,16.62-.14,24.93.03,3.27.35,6.58.98,9.78,1.89,9.68,12.54,13.94,20.47,10.33,6.38-2.91,11.75-7.17,15.55-13.28,7.01-11.28,7.59-23.25,3.73-35.55-3.57-11.38-15.11-20.05-26.59-20.38-3.42-.1-6.9.08-9,3.67.53-3.28,1.05-6.56,1.6-9.97-2.28-.3-4.01-.58-5.74-.73-.67-.06-1.36.15-1.76.21Z"/>
  </g>
</svg>