<?xml version="1.0" encoding="UTF-8"?>
<svg id="_레이어_2" data-name="레이어 2" xmlns="http://www.w3.org/2000/svg" viewBox="0 0 52.84 100">
  <defs>
    <style>
      .cls-1 {
        fill: #fff;
        stroke-width: 0px;
      }
    </style>
  </defs>
  <g id="_레이어_1-2" data-name="레이어 1">
    <path class="cls-1" d="M52.84,12.35c0,1.52,0,3.34,0,5.15-.07,13.9-.16,27.81-.2,41.71-.01,4.55.15,9.1.15,13.65,0,3.23-.28,6.47-.21,9.7.08,3.98-1.77,6.94-4.52,9.53-3.24,3.05-6.83,5.56-11.04,7.04-1.54.54-3.26.82-4.9.83-10.11.07-20.22.03-30.34.01-.4,0-.8-.07-1.44-.13-.09-.81-.27-1.63-.27-2.45C.03,85.37,0,73.33,0,61.3,0,41.78.03,22.26.04,2.75c0-.7,0-1.4,0-2.22.84-.06,1.53-.15,2.22-.16,7.18-.04,14.36-.06,21.54-.1.91,0,1.83,0,2.73-.11,6.82-.84,12.53,1.66,17.76,5.73,2.74,2.13,5.53,4.18,8.54,6.46ZM16.61,13.73v77.73c1.37,0,2.82.02,4.27,0,4.29-.06,8.56-.27,12.74-1.48,3.98-1.15,7.24-4.46,7.18-9.62-.15-12.49-.07-24.98-.08-37.47,0-7.94-.06-15.88-.02-23.81.01-2.2-.86-3.69-2.87-4.5-.84-.34-1.71-.81-2.58-.82-6.1-.07-12.21-.04-18.63-.04Z"/>
  </g>
</svg>