<?xml version="1.0" encoding="UTF-8"?>
<svg id="_레이어_2" data-name="레이어 2" xmlns="http://www.w3.org/2000/svg" viewBox="0 0 84.29 100">
  <defs>
    <style>
      .cls-1 {
        fill: #fff;
        stroke-width: 0px;
      }
    </style>
  </defs>
  <g id="_레이어_1-2" data-name="레이어 1">
    <path class="cls-1" d="M56.66,3.42c1.41-1.28,1.85-2.05,2.39-2.11,7.91-.99,15.53-.13,21.97,4.92,1.32,1.03,1.71,3.76,1.82,5.75.65,12.11,1.71,24.24,1.4,36.33-.24,9.15-1.81,18.37-3.78,27.34-1.04,4.73-3.4,9.7-6.6,13.28-4.42,4.95-9.13,10.36-16.65,10.98-8.32.69-14.78-2.54-19.94-9.02-4.7-5.9-7.56-12.61-9.61-19.75-4.79-16.66-9.52-33.35-14.4-49.99-.91-3.1-2.22-6.11-3.65-9.01-1.58-3.19-3.71-5.84-7.69-6.45C1.1,5.56-.13,3.72.01,2.87.2,1.78,1.55.09,2.45.05c4.18-.18,8.38.15,12.57.25,2.99.07,5.99.03,8.98.11,4.59.12,9.19.16,13.75.6.83.08,1.99,1.79,2.14,2.86.31,2.21-.06,4.5.01,6.74.54,16.12.88,32.24,1.8,48.34.35,6.09.86,12.46,5.62,18.39,1.78-6.2,3.35-11.65,4.92-17.13.63.43,1.63,1.1,2.49,1.68-1.29,7.76-2.58,15.55-3.88,23.39.92.39,1.62.6,2.24.96,3.46,1.99,5.79,1.18,6.75-2.93,1.47-6.31,3.11-12.67,3.65-19.09,1.12-13.34,1.82-26.73,2.18-40.11.16-5.96-.84-11.97-1.5-17.93-.09-.77-1.22-1.74-2.07-2.02-1.35-.46-2.87-.42-5.47-.73ZM30.57,18.28c.56-.14,1.11-.29,1.67-.43-.32-1.49-.65-2.97-.97-4.46-.62.27-1.79.63-1.77.79.23,1.39.68,2.74,1.07,4.1ZM48.11,78.76c-.41.24-.82.49-1.24.73.62,1.09,1.23,2.18,1.85,3.27.34-.17.67-.35,1.01-.52-.54-1.16-1.08-2.32-1.62-3.48Z"/>
  </g>
</svg>