<?xml version="1.0" encoding="UTF-8"?>
<svg id="_레이어_2" data-name="레이어 2" xmlns="http://www.w3.org/2000/svg" viewBox="0 0 93.03 100">
  <defs>
    <style>
      .cls-1 {
        fill: #fff;
        stroke-width: 0px;
      }
    </style>
  </defs>
  <g id="_레이어_1-2" data-name="레이어 1">
    <path class="cls-1" d="M93.03,5.81c-.88,2.1-1.3,3.82-2.23,5.21-13.91,20.82-23.84,43.8-35.8,65.67-2.98,5.46-7.04,10.34-10.67,15.44-1.03,1.44-2.27,2.73-3.5,4.01-1.28,1.34-2.67,2.58-4.01,3.86-.6-1.83-1.41-3.63-1.77-5.51-2.1-11.03-4.82-21.81-8.75-32.43-5.12-13.84-13.14-25.59-22.52-36.64-5.05-5.95-5.17-5.92.29-11.28,3.7-3.64,7.48-7.2,11.32-10.7,1.45-1.32,3.13-2.38,4.57-3.45,8.56,9.1,16.78,17.83,25.42,27.02.91-1.68,1.76-2.89,2.27-4.24,2.46-6.52,4.95-13.04,7.17-19.65.82-2.42,1.77-3.27,4.32-2.37,3.56,1.25,7.24,2.16,10.84,3.28,6.3,1.96,12.71,2.56,19.27,1.79,1-.12,2.02-.02,3.77-.02Z"/>
  </g>
</svg>