<?xml version="1.0" encoding="UTF-8"?>
<svg id="_레이어_2" data-name="레이어 2" xmlns="http://www.w3.org/2000/svg" viewBox="0 0 79.2 88.63">
  <defs>
    <style>
      .cls-1 {
        fill: #fff;
        stroke-width: 0px;
      }
    </style>
  </defs>
  <g id="_레이어_1-2" data-name="레이어 1">
    <path class="cls-1" d="M39.64,60.58c6.09-15.77,11.88-30.75,17.67-45.73.31-.8.65-1.58.97-2.37Q63.87-1.1,79.2,1.05c-3.34,8.62-6.55,17.17-9.95,25.65-7.82,19.53-15.66,39.04-23.73,58.47-.61,1.47-3.03,2.98-4.68,3.07-2.71.14-6.22,1.71-7.87-2.52C22.28,58.34,11.49,31,.74,3.65c-.24-.62-.33-1.29-.74-2.9,5.06,0,9.76-.27,14.39.18,1.26.12,2.77,2.26,3.38,3.79,6.89,17.31,13.62,34.69,20.4,52.05.37.95.73,1.9,1.47,3.81Z"/>
  </g>
</svg>