<?xml version="1.0" encoding="UTF-8"?>
<svg id="_레이어_2" data-name="레이어 2" xmlns="http://www.w3.org/2000/svg" viewBox="0 0 92.95 92.11">
  <defs>
    <style>
      .cls-1 {
        fill: #fff;
        stroke-width: 0px;
      }
    </style>
  </defs>
  <g id="_레이어_1-2" data-name="레이어 1">
    <path class="cls-1" d="M50.26,75.96c8.67-23.89,17.01-46.39,24.9-69.04,1.73-4.96,4.07-6.91,9.21-6,2.41.43,4.96.07,8.58.07-1.36,4.41-2.3,8.12-3.64,11.68-9.31,24.79-18.78,49.52-27.96,74.36-1.43,3.87-3.39,5.11-7.4,5.07-12.79-.14-12.68-.04-18.1-12.04C25.01,56.08,14.01,32.17,3.12,8.2,2.05,5.84,1.24,3.36,0,.12,5.24.12,9.55-.26,13.73.32c1.58.22,3.4,2.42,4.19,4.14,9.81,21.31,19.45,42.71,29.12,64.08.93,2.06,1.81,4.16,3.22,7.42Z"/>
  </g>
</svg>