<?xml version="1.0" encoding="UTF-8"?>
<svg id="_레이어_2" data-name="레이어 2" xmlns="http://www.w3.org/2000/svg" viewBox="0 0 74.15 84.99">
  <defs>
    <style>
      .cls-1 {
        fill: #fff;
        stroke-width: 0px;
      }
    </style>
  </defs>
  <g id="_레이어_1-2" data-name="레이어 1">
    <path class="cls-1" d="M0,1.01c5.33,0,9.99-.27,14.58.17,1.35.13,3.08,2.07,3.65,3.55,6.27,16.58,12.35,33.23,18.8,50.73,1.92-4.57,3.77-8.61,5.34-12.76,4.77-12.6,9.5-25.22,14.11-37.89C57.86,1.02,60.17-.11,64.21,0c11.6.35,11.52.12,7.43,10.63-6.96,17.9-13.78,35.85-20.7,53.77-2.31,5.98-4.64,11.95-7.24,17.8-.52,1.17-2.22,2.05-3.57,2.53-1.18.42-2.67-.11-3.96.11-4.59.76-6.37-1.26-7.94-5.62C19.53,54.97,10.34,30.9,1.36,6.75.76,5.14.55,3.39,0,1.01Z"/>
  </g>
</svg>