<?xml version="1.0" encoding="UTF-8"?>
<svg id="_레이어_2" data-name="레이어 2" xmlns="http://www.w3.org/2000/svg" viewBox="0 0 86.38 100">
  <defs>
    <style>
      .cls-1 {
        fill: #fff;
        stroke-width: 0px;
      }
    </style>
  </defs>
  <g id="_레이어_1-2" data-name="레이어 1">
    <g>
      <path class="cls-1" d="M0,0c5.66.75,10.68,1.42,16.44,2.19,5.32,4.23,7.7,11.59,12.09,17.52,1.81,2.45,3.09,5.3,5.31,7.58,1.85,1.9,1.09,3.51-2.85,5.55,4.87.22,5.42,3.81,6.69,6.65,2.84,6.37,5.45,12.83,9.01,18.88,2.44,4.15,3.92,8.75,3.13,13.78-.23,1.44-.03,2.94-.03,5.93,1.52-1.96,2.47-2.82,2.97-3.9.57-1.22.73-2.62,1.15-4.22-.41-.14-1.27-.43-2.23-.75.08-.34.04-.87.25-1,.75-.46,2.13-.62,2.31-1.19,1.01-3.35,3.74-5.4,6.21-7.13,3.78-2.66,5.2-6.15,5.97-10.31.42-2.32,1.5-4.64,1.36-6.9-.16-2.61,1.06-4.64,1.68-6.91.48-1.78,1.31-3.47,1.97-5.2,1.17-3.08,2.14-6.14,2.68-9.48.82-5.12,1.14-10.33,2.67-15.41.91-3.04,2.06-4.18,4.96-4.04,1.23.06,2.46.01,3.63.01,2.32,4.12.23,8.17-1.2,11.21-1.94,4.13-2.6,8.54-3.85,12.7-.88,2.94-1.88,5.22-3.71,7.59-1.18,1.54-1.15,4-1.73,6.02-1.28,4.48-3.91,8.44-4.52,13.27-.18,1.42-.87,3.16-.92,4.8-.21,7.11-.08,7.18-4.15,12.6-3.8,5.06-5.36,10.97-6.3,16.95-.56,3.54-2.54,6.85-1.79,10.68.13.66-1.56,1.67-2.42,2.53-5.83-2.78-6.29-8.37-7.92-13.16-.64-1.89-.28-3.8,2.48-4.21.35-.05.39-2.19.57-3.34-5.16-1.35-5.42-1.26-6.89-5.3-3.68-10.11-9.18-19.31-13.86-28.92-1.35-2.78-2.8-5.38-4.7-7.88-2.94-3.88-4.06-8.85-6.38-13.13-3.55-6.54-7.34-12.94-14.39-16.56C1.37,6.31.46,4.03,0,0Z"/>
      <path class="cls-1" d="M67.89,80.09c-.19-3.4.29-6.49,2.48-9.4,2.19-2.9,3.15-6.71,6.57-8.7-1.14,5.51-4.56,10-6.78,15.02-.5,1.14-1.5,2.06-2.27,3.08Z"/>
      <path class="cls-1" d="M78.68,58.33c-.52,1.84-.78,2.75-1.04,3.65-.23-.7-.55-1.39-.65-2.11-.03-.21.54-.51,1.69-1.54Z"/>
      <path class="cls-1" d="M66.12,83.82c.54-1.91.8-2.82,1.06-3.73.23.7.55,1.39.65,2.11.03.22-.53.53-1.71,1.62Z"/>
      <path class="cls-1" d="M36.21,12.96c-.34.17-.66.39-1.01.47-.12.03-.33-.3-.5-.47.34-.17.66-.39,1.01-.47.12-.03.33.3.5.47Z"/>
      <path class="cls-1" d="M23.51,39.48c.17.17.5.42.46.48-.18.33-.44.61-.67.91-.22-.22-.45-.45-.67-.67.29-.24.59-.48.88-.71Z"/>
      <path class="cls-1" d="M22.63,40.87c-.5.5-1.01,1.01-1.51,1.51.5-.5,1.01-1.01,1.51-1.51Z"/>
      <path class="cls-1" d="M21.12,43.05c-.3.23-.6.46-.89.7-.09-.32-.34-.84-.25-.91.31-.24.75-.32,1.14-.46,0,.22,0,.45,0,.67Z"/>
    </g>
  </g>
</svg>