<?xml version="1.0" encoding="UTF-8"?>
<svg id="_레이어_2" data-name="레이어 2" xmlns="http://www.w3.org/2000/svg" viewBox="0 0 154.71 100">
  <defs>
    <style>
      .cls-1 {
        fill: #fff;
        stroke-width: 0px;
      }
    </style>
  </defs>
  <g id="_레이어_1-2" data-name="레이어 1">
    <g>
      <path class="cls-1" d="M56.12,93.16c-2.72-.65-4.17-1.85-5.18-4.24-2.72-6.41-5.95-12.61-8.95-18.9-2.92-6.11-6.01-12.1-7.96-18.68-.69-2.34-1.91-4.78-3.01-7.12-.52-1.1-1.59-1.93-2.42-2.89-.57.57-.88.88-1.18,1.18-1.89-2.89-2.04-3.07-1.24-5.14.51-1.3-.18-1.8-.69-2.71-3.97-6.97-7.47-14.23-12.08-20.78-1.97-2.8-4.96-5.33-8.05-6.77C2.23,5.66,1.61,3.26,0,.13,7.04.13,13.47-.27,19.79.34c2.21.22,5.66.58,6.52,4.14,1.99,8.23,6.72,15.31,9.86,23.03,3.15,7.74,7.55,14.9,9.84,23.07,1.65,5.88,4.75,11.36,7.16,17.03,1.86,4.39,3.65,8.82,5.54,13.4-3.46,3.26-5.47,6.99-2.6,12.15Z"/>
      <path class="cls-1" d="M120.41,31.59c2.17-4.53,3.12-8.93,7.19-11.82,1.82-1.3,2.77-3.83,4.35-6.16-3.45-.84-6.19-1.5-9.25-2.24-.53,2.24-.9,4.14-.65,6.06-3.02,3.01-6.04,6.01-9.19,9.14,1.15.54,2.01.94,3.89,1.81-2.21.11-3.38.17-4.89.25,0-1.18-.29-2.15.05-2.79,2.5-4.79,5.09-9.53,7.74-14.23.77-1.36,5.41-4.09,5.81-3.58,1.35,1.73,3.45.48,4.66,1.27,1.87,1.22,3.16,1.42,4.9-.01.27-.22,1.67.91,2.53,1.42-3.15,5.98-11.51,16.24-17.14,20.89Z"/>
      <path class="cls-1" d="M154.71,75.12c-1.52-.23-3.13,0-4.02-.7-6.69-5.19-13.64-10.07-19.88-15.83-1.18-1.09-2.56-2.1-4.03-2.68-1.28-.5-3.19.26-3.86-1.46-.57-1.46-.63-3.11-.95-4.82,5.91-1.49,9.09,2.69,12.77,5.23,2.85,1.97,4.27,5.71,8.07,6.75.65.18.92,1.68,1.39,2.56,1.66,3.13,3.72,5.96,7.26,7.05,1.79.55,2.95,1.3,3.25,3.89Z"/>
      <path class="cls-1" d="M60.87,100c-.66-.81-1.19-1.47-1.91-2.34,1.25-1.25,2.66-2.66,4.47-4.47-1.45-.83-2.39-1.37-3.28-1.89,0-.45-.12-1.2.02-1.25,5.12-1.89,7.12-7.93,12.99-10.07-2.74,4.97-5.35,9.12-7.34,13.56-1.09,2.44-1.46,5.12-4.95,6.46Z"/>
      <path class="cls-1" d="M101.61,40.12c3.16-3.94,5.49-6.93,7.96-9.79.3-.34,1.39,0,2.12.04-.04.58.15,1.32-.14,1.7-2.02,2.57-4.08,5.13-6.29,7.54-.43.46-1.58.26-3.65.52Z"/>
      <path class="cls-1" d="M92.25,57.89c.75-6.37,5.5-8.81,8.79-12.82,1.5,3.45-2.14,4.28-2.83,6.51-.7,2.28-3.55,3.9-5.96,6.31Z"/>
      <path class="cls-1" d="M83.27,75.72c.54,3.55-1.76,4.34-3.74,6.52-.09-3.69,2.33-4.41,3.74-6.52Z"/>
      <path class="cls-1" d="M114.19,38.2c1.82-1.79,2.91-2.87,4.11-4.05.15,2.38-1.38,3.06-4.11,4.05Z"/>
      <path class="cls-1" d="M110.89,54.47v-5.07c.19,0,.39,0,.58-.01v5.07c-.19,0-.39,0-.58,0Z"/>
      <path class="cls-1" d="M117.84,31.62c1.37-.2,2.22-.32,3.06-.44-.5.43-.96.93-1.52,1.25-.17.1-.63-.31-1.54-.81Z"/>
      <path class="cls-1" d="M115.05,55.98c-1.64-.47-2.42-.69-3.2-.91.6-.2,1.19-.47,1.81-.56.19-.03.45.45,1.39,1.47Z"/>
      <path class="cls-1" d="M90.95,60.19c.45-1.58.67-2.36.89-3.13.2.6.47,1.19.56,1.81.03.18-.46.44-1.45,1.32Z"/>
      <path class="cls-1" d="M84.48,74.42c.45-1.57.67-2.35.89-3.13.2.6.47,1.19.56,1.81.03.18-.46.44-1.45,1.32Z"/>
      <path class="cls-1" d="M114.25,30.34c-.15.27-.31.55-.46.83-.14-.14-.43-.32-.4-.43.07-.3.26-.58.4-.87.14.14.29.29.46.46Z"/>
      <path class="cls-1" d="M110.37,41.07c-.17.17-.32.32-.46.46-.14-.29-.34-.56-.4-.87-.02-.11.26-.28.4-.43.16.28.31.56.46.83Z"/>
      <path class="cls-1" d="M119.15,55.95c.17.17.32.32.46.46-.29.14-.56.34-.87.4-.11.02-.28-.26-.43-.4.28-.16.56-.31.83-.46Z"/>
      <path class="cls-1" d="M86.73,70.1c.15.15.43.36.4.41-.15.28-.38.52-.57.78-.19-.19-.38-.38-.58-.58.25-.2.5-.41.75-.61Z"/>
      <path class="cls-1" d="M84.14,75.27c.15.15.43.36.4.41-.15.28-.38.52-.57.78-.19-.19-.38-.38-.58-.58.25-.2.5-.41.75-.61Z"/>
    </g>
  </g>
</svg>