<?xml version="1.0" encoding="UTF-8"?>
<svg id="_레이어_2" data-name="레이어 2" xmlns="http://www.w3.org/2000/svg" viewBox="0 0 116.99 100">
  <defs>
    <style>
      .cls-1 {
        fill: #fff;
        stroke-width: 0px;
      }
    </style>
  </defs>
  <g id="_레이어_1-2" data-name="레이어 1">
    <g>
      <path class="cls-1" d="M83.2,63.98c1.31,7.69-2.47,14.54-4.04,21.71-.47,2.16-1.29,4.44-1.5,6.79-.38,4.4-2.89,6.59-9.31,7.51.72-2.27-2.72-5.51,2.72-5.82,2.92-4.55,5.35-9.3,5.9-14.78.04-.4-.74-.88-1.14-1.32,4.82-3.48,4.23-9.47,6.59-14.09.06-.13.59-.02.77-.02Z"/>
      <path class="cls-1" d="M20.99,14.86c.98.66,2.6,1.16,2.82,2.01,1.26,4.91,5.55,8.07,6.85,13.14,1.19,4.65,4.22,8.83,6.43,13.23,2.2,4.39,4.41,8.79,6.54,13.22.24.51.03,1.23.03,1.86-2.21-.65-2.93-2.25-3.91-4.32-5.39-11.41-11.19-22.63-16.91-33.88-.32-.64-1.22-.99-1.85-1.47v-3.78Z"/>
      <path class="cls-1" d="M49.33,86.65c-3.37-1.71-5.05-4.07-5.96-8.14-1.02-4.58-4.53-8.55-6.55-12.96-2.15-4.7-4.66-9.36-4.49-14.79,4.01,1.9,2.83,6.44,4.67,9.43.73-.65,1.38-1.23,2.64-2.35-.57,9.25,3.55,16.25,8.52,22.78,1.56,2.05.87,4.02,1.16,6.04Z"/>
      <path class="cls-1" d="M45.55,62.09c1.9,5.59,7.77,7.99,9.45,13.12,1.6,4.89,3.2,9.77,4.92,15.02-.51-.06-2.22.17-2.5-.36-4.07-7.64-8.03-15.35-11.79-23.15-.61-1.26-.09-3.07-.09-4.63Z"/>
      <path class="cls-1" d="M97.85,23.41c2.09-9.03,3.1-17.26,9.53-23.41-1.96,7.86-2.19,16.39-9.53,23.41Z"/>
      <path class="cls-1" d="M20.99,18.64c-.93,3.17.77,6.17,2.15,8.32,1.52,2.36,1.53,4.44,1.63,6.8-2.81-3.87-9.25-15.97-9.32-18.64-.03-1.23,1.34-2.49,2.48-4.44,1.22,1.67,2.14,2.93,3.05,4.18-.63.48-1.26.95-1.89,1.43.63.78,1.26,1.57,1.89,2.35Z"/>
      <path class="cls-1" d="M78.52,52.92c-.85-12.24.77-17.32,6.96-23.16-2.49,8.29-4.73,15.72-6.96,23.16Z"/>
      <path class="cls-1" d="M50.7,86.41c1.57,2.78,3.13,5.56,5.37,9.52-2.39-.36-4.41-.2-4.66-.79-1.13-2.66-1.76-5.53-2.57-8.33.62-.14,1.24-.27,1.86-.41Z"/>
      <path class="cls-1" d="M24.77,33.76c3.41,3.75,5.99,7.87,5.67,13.22-3.41-3.75-5.99-7.87-5.67-13.22Z"/>
      <path class="cls-1" d="M92.31,39.3c.99-3.69,1.97-7.37,3.18-11.9,2.49,5.41-.09,8.72-3.18,11.9Z"/>
      <path class="cls-1" d="M85.23,58.31c-.18-3.72.17-7.24,3.78-9.45.18,3.72-.17,7.24-3.78,9.45Z"/>
      <path class="cls-1" d="M1.5,14.68c.93,1.62,1.86,3.24,2.79,4.85-.39.34-.79.68-1.18,1.02-.65-.64-1.45-1.19-1.92-1.94-.55-.87-.81-1.92-1.19-2.89.5-.35,1-.7,1.5-1.04Z"/>
      <path class="cls-1" d="M72,71.54c0,1.78.2,3.59-.09,5.32-.13.82-1.17,1.49-1.8,2.24,0-1.78-.2-3.59.09-5.32.13-.82,1.17-1.49,1.8-2.24Z"/>
      <path class="cls-1" d="M75.78,60.2c0-1.78-.2-3.59.09-5.32.13-.82,1.17-1.49,1.8-2.24,0,1.78.2,3.59-.09,5.32-.13.82-1.17,1.49-1.8,2.24Z"/>
      <path class="cls-1" d="M90.89,45.09c.72-1.86-1.75-4.78,1.89-5.67-.72,1.86,1.75,4.78-1.89,5.67Z"/>
      <path class="cls-1" d="M83.34,63.98c.72-1.86-1.75-4.78,1.89-5.67-.72,1.86,1.75,4.78-1.89,5.67Z"/>
      <path class="cls-1" d="M75.78,60.2c-.72,1.86,1.75,4.78-1.89,5.67.72-1.86-1.75-4.78,1.89-5.67Z"/>
      <path class="cls-1" d="M73.89,65.87c-.72,1.86,1.75,4.78-1.89,5.67.72-1.86-1.75-4.78,1.89-5.67Z"/>
      <path class="cls-1" d="M34.54,90.07v-5.02c.33-.03.66-.05.99-.08.23,1.69.46,3.37.68,5.06-.56.01-1.11.02-1.67.04Z"/>
      <path class="cls-1" d="M31.86,9.2v3.78h-.94v-3.78h.94Z"/>
      <path class="cls-1" d="M96.27,27c.65-2.3.98-3.44,1.3-4.58.29.88.69,1.74.82,2.65.04.27-.67.65-2.12,1.93Z"/>
      <path class="cls-1" d="M90.89,45.09c-.28,1.43.94,3.62-1.89,3.78.28-1.43-.94-3.62,1.89-3.78Z"/>
      <path class="cls-1" d="M32.33,50.76c-2.83-.16-1.6-2.35-1.89-3.78,2.83.16,1.6,2.35,1.89,3.78Z"/>
      <path class="cls-1" d="M43.66,58.31c2.83.16,1.6,2.35,1.89,3.78-2.83-.16-1.6-2.35-1.89-3.78Z"/>
      <path class="cls-1" d="M67.93,83.67c.65-2.3.98-3.44,1.3-4.58.29.88.69,1.74.82,2.65.04.27-.67.64-2.12,1.93Z"/>
      <path class="cls-1" d="M115.72,6.63c.22-.4.45-.81.67-1.22.21.21.63.47.59.62-.1.44-.38.85-.59,1.27-.21-.21-.42-.42-.67-.67Z"/>
    </g>
  </g>
</svg>