<?xml version="1.0" encoding="UTF-8"?>
<svg id="_레이어_2" data-name="레이어 2" xmlns="http://www.w3.org/2000/svg" viewBox="0 0 86.66 100">
  <defs>
    <style>
      .cls-1 {
        fill: #fff;
        stroke-width: 0px;
      }
    </style>
  </defs>
  <g id="_레이어_1-2" data-name="레이어 1">
    <g>
      <path class="cls-1" d="M5.3,15.76c-1.95-2.45-3.2-4.47-4.45-6.47C-.89,6.53.11,3.49,3.27,3.3c2.72-.16,4.73-.79,6.5-2.88.46-.54,1.87-.28,3.25-.42,4.89,9.99,9.81,20.04,14.71,30.09,4,8.21,6.74,16.93,10.36,25.3,1.86,4.29,3.66,8.78,6.46,12.43,1.44,1.89,4.47,2.22,4.24,5.82-.33,5.09.67,10.55-2.73,14.8-2.81,3.51-3.83,7.18-3.38,11.56-3.9-1.05-4.48-3.64-4.83-7.02-.2-1.99-1.6-3.96-.88-6.92.15-.46-.15-.22-.44.02.23.23.45.45.68.68.23-.3.5-.59.68-.92.03-.06-.29-.3-.91.22-3.43-.4-4.68-3.04-5.98-5.61-6.6-13.08-11.16-27.1-18.55-39.81-1.08-7-6.54-11.82-9-18.13-.67-1.73-1.5-3.46-1.82-5.27-.45-2.54,1.63-1.81,3.68-1.48.46.15.22-.15-.02-.44-.23.23-.45.45-.68.68.3.23.59.5.91.67.06.03.31-.29-.22-.91ZM26.12,58.37c2.2,4.36,4.39,8.72,6.85,13.59,1.81-6.93-2.78-10.24-6.85-13.59ZM10.9,28.46c.2.2.37.37.54.54.17-.34.4-.66.48-1.02.03-.13-.31-.33-.48-.5-.18.33-.36.66-.54.98ZM12.42,31.06c.18.32.36.65.54.98.17-.17.5-.37.48-.5-.08-.36-.31-.68-.48-1.02-.17.17-.34.34-.54.54ZM35.22,83.18c.2.2.37.37.54.54.17-.34.4-.66.48-1.02.03-.13-.31-.33-.48-.5-.18.33-.36.66-.54.98Z"/>
      <path class="cls-1" d="M59.34,55.55c-.2-4.46,1.5-7.57,3.15-10.78,2.14-4.15,4.21-8.38,5.88-12.73,1.45-3.77,3.05-7.29,5.25-10.76,3.62-5.7,6.21-12.05,9.22-18.1h3.82c-.3,1.64-.23,3.32-.9,4.63-4.68,9.2-9.46,18.35-14.29,27.47-3.19,6.02-6.49,11.99-9.81,17.94-.44.79-1.31,1.34-2.32,2.33Z"/>
      <path class="cls-1" d="M57.34,59.67c.17,2.61,1.66,5.59-2.08,7.08-1.76-3.06.93-4.85,2.08-7.08Z"/>
      <path class="cls-1" d="M57.56,58.52c.53-1.85.79-2.77,1.05-3.68.24.71.55,1.4.66,2.13.03.22-.54.52-1.7,1.55Z"/>
    </g>
  </g>
</svg>