<?xml version="1.0" encoding="UTF-8"?>
<svg id="_레이어_2" data-name="레이어 2" xmlns="http://www.w3.org/2000/svg" viewBox="0 0 77.16 100">
  <defs>
    <style>
      .cls-1 {
        fill: #fff;
        stroke-width: 0px;
      }
    </style>
  </defs>
  <g id="_레이어_1-2" data-name="레이어 1">
    <g>
      <path class="cls-1" d="M0,1.6c3.28-.69,5.14-.22,5.83,2.7,1.35,5.66,3.49,11.03,6,16.29,1.1,2.3,1.93,4.86,2.25,7.39.84,6.53,3.68,12.4,5.79,18.49,1.61,4.63,3.44,9.35,6.8,13.16,1.3,1.47-.15,3.44.2,4.33,2.57,6.49,3.49,13.39,5.5,19.98.78,2.57,2.55,5.16,6.01,6.87.69-3.11,2.58-5.55,2.18-8.68-.61-4.73,1.42-8.25,4.81-11.23.77-.68,1.45-1.44,1.68-2.98-1.47.53-2.94,1.07-4.61,1.67-1.48-3.76.66-6.67,1.52-9.72.89-3.14,2.08-6.11,2.36-9.5.28-3.34,1.49-6.8,3.1-9.77,2.5-4.59,3.81-9.24,3.78-14.48-.02-3.28.06-6.98,1.5-9.75,1.73-3.31,1.18-6.84,2.27-10.18.84-2.55,1.87-4.43,3.71-6.15h8.35c-3.16,2.75-6.93,4.36-6.19,8.72-2.86,3.22-.53,6.91-.81,10.4,2.72-6.37,5.43-12.74,8.17-19.16h6.95c-3.06,6.07-6.24,11.57-8.66,17.39-3.13,7.51-5.66,15.27-8.43,22.93-2.33,6.45-4.72,12.88-6.94,19.37-2.15,6.29-3.69,12.73-6.72,18.78-2.28,4.54-2.99,9.87-4.44,14.84-.48,1.65-.8,3.45-1.72,4.82-.64.95-2.12,1.62-3.33,1.83-1.86.32-2.75-1.08-3.3-2.71-1.37-4.07-3.09-8.05-4.05-12.21-.56-2.44-1.54-4.4-2.73-6.55-5-9.04-7.92-18.96-11.27-28.68-1.68-4.88-2.93-9.9-4.57-14.8C7.8,25.46,4.52,15.93.76,6.58.19,5.17.27,3.5,0,1.6Z"/>
      <path class="cls-1" d="M34.79,58.54v3.69c-.24.02-.49.04-.73.07-.17-1.23-.34-2.46-.52-3.68.41-.02.83-.05,1.24-.07Z"/>
      <path class="cls-1" d="M38.15,68.03v-2.78h.7v2.78h-.7Z"/>
    </g>
  </g>
</svg>