<?xml version="1.0" encoding="UTF-8"?>
<svg id="_레이어_2" data-name="레이어 2" xmlns="http://www.w3.org/2000/svg" viewBox="0 0 111.88 100">
  <defs>
    <style>
      .cls-1 {
        fill: #fff;
        stroke-width: 0px;
      }
    </style>
  </defs>
  <g id="_레이어_1-2" data-name="레이어 1">
    <g>
      <path class="cls-1" d="M72.38,0v1.34c1.13.16,2.2.3,3.29.45.22.59.33,1.23.67,1.71,2.83,4.03,2.09,8.27.79,12.54-1.11,3.67-2.34,7.3-3.42,10.97-.2.67.09,1.48.18,2.56.01,0-.35.22-.71.45.15.52.3,1,.47,1.58-.54.09-.91.16-1.16.2-3.58,9.27-7.13,18.46-10.68,27.66-.23-.05-.45-.09-.68-.14-.25-.46-.55-.9-.73-1.38-1.94-5.23-3.9-10.46-5.78-15.71-1.38-3.85-2.57-7.78-4.03-11.6-.78-2.05-1.77-4.08-2.99-5.9-3.5-5.25-5.14-11.49-8.98-16.56-1.11-1.46-.55-3.48,1.16-4.32,1.01-.49,2.15-.73,3.2-1.08.36-1.77-.87-1.81-1.98-1.82-4.79-.02-9.58-.2-14.36.06-6.38.35-11.74.19-18.34-.33C5.3.45,2.94.35,0,.12c1.1,1.67,2.57,4.2,3.54,5.94.66.14,5.46-.36,8.12.53,1.23,2.36,2.72,4.76,3.77,7.34,1.78,4.41,3.31,8.92,4.89,13.41,2.5,7.11,4.91,14.25,7.44,21.35,1.45,4.09,3.04,8.13,4.61,12.17,2.13,5.47,4.29,10.93,6.45,16.4,1.53,3.86,3.16,7.68,4.58,11.58,1.34,3.65,2.47,7.38,3.73,11.16,4.02-.22,7.68-.41,11.89-.64,3.02-11.51,6.09-23.22,9.17-34.92l-.49-.16c.48-.24.97-.49,1.58-.8-.38-.64-.68-1.13-.95-1.58.49-.68.96-1.35,1.5-2.11.26.11.64.27,1.05.44.09-.6.17-1.19.25-1.77-.21-.36-.59-.71-.6-1.07-.05-1.42.14-2.77,1.7-3.42-.01-.27-.14-.6-.03-.8.77-1.37,1.58-2.71,2.38-4.07-.26-.02-.53-.05-.79-.07-.26-.82-.83-1.69-.72-2.46.22-1.46.81-2.87,1.28-4.29.8-2.46,1.57-4.92,2.46-7.35.38-1.04,1.11-1.95,1.55-2.98.55-1.26.96-2.57,1.44-3.85.11.05.21.09.32.14,2.23-8.27,4.46-16.54,6.68-24.76.8-.6,1.76-1.33,3.16-2.4-6.31-.39-11.93-.74-17.57-1.09Z"/>
      <path class="cls-1" d="M85.79,86.65h-4.63c.31-1.71.46-3.31.91-4.82,3.99-13.41,8.18-26.77,12-40.23,2.2-7.74,3.85-15.64,5.7-23.47,1.21-5.11,2.34-10.23,3.48-15.35.13-.59.14-1.21.24-2.09h8.4c-8.74,28.79-17.41,57.35-26.1,85.96Z"/>
      <path class="cls-1" d="M78.16,40.64c.17.14.4.33.49.41-.66,1.04-1.33,1.98-1.88,2.99-.51.95-.9,1.97-1.34,2.95.17.13.34.26.51.39-.53.09-1.06.17-2.08.34,2.3-5.49,4.44-10.56,6.57-15.64.18.06.37.13.55.19-.94,2.77-1.88,5.55-2.83,8.37Z"/>
    </g>
  </g>
</svg>