<?xml version="1.0" encoding="UTF-8"?>
<svg id="_레이어_2" data-name="레이어 2" xmlns="http://www.w3.org/2000/svg" viewBox="0 0 90.55 100">
  <defs>
    <style>
      .cls-1 {
        fill: #fff;
        stroke-width: 0px;
      }
    </style>
  </defs>
  <g id="_레이어_1-2" data-name="레이어 1">
    <g>
      <path class="cls-1" d="M45,96.9c-.21,1.22-2.04,1.33-2.22.84-.99-2.73-1.59-5.61-2.81-19.42-1.46-7.58-2.9-4.66-2.92-1.74-.02,2.93,1.24,5.92,2.22,8.78,1.35,3.92,1.47,3.88,6.29,3.35-.9-2.11-3.13-4.12-.46-6.56.57,1.19,1.12,2.33,1.15,2.4,1.23-.47,2.65-1.01,4-1.53-3.97-5.77-7.25-10.56-10.28-4.71-.22,10.57-1.26,10.32-1.62,9.7-4.53-7.93-9.51-15.77-11.86-24.61-1.54-5.81-1.14-12.07,3.36-16.93-1.99-3.24-2.66-6.7-6.89-8.27-3.61-1.34-5.17-5.34-3.66-10.31-1.77.94-2.58,1.37-3.38,1.8-1.98-6.34-8.05-11.31-5.74-18.53-3.7-2.32-3.74.27-4.29,2.25-.41-.13-.88-.17-1.23-.39-3.48-2.14-.59-6.85-4.66-8.48,5.68-4.19,9.64,2.39,14.47-.31,6.68,16.8,15.93,31.98,21.37,50.23.87-4.56,3.79-5.33,6.47-6.54,2.45.81,4.13,2.38,3.5,5.14-.9,3.96,1.23,7.29,1.96,10.89.3,1.49,1.79,2.75,3.21,4.8,2.7-3.32,6.17-5.79,6.96-8.93,1.43-5.68,4.57-10.87,4.28-17.16-.25-5.39,1.02-10.84,1.62-16.27.6,0,1.2,0,2.62.52.54.18.26-.17-.02-.52-.27.27-.53.53-.8.8.36.28.69.59,1.08.8.07.04.36-.35-.26-1.08-.09-3.83-2.57-7.74,1.06-10.5,2.36-1.79,1.73-6.52,6.23-6.37.25,0,.45-2.06.89-3.07,1.16-2.67,1.82-6.13,5.34-6.46,2-.19,4.29-1.33,6.43.6.78.7,2.72.11,4.14.11-1.55,3.81-2.88,7.07-4.31,10.59-1,.13-3.13-.2-3.69.58-1.76,2.45-3.41,5.18-4.24,8.05-2.24,7.77-3.71,15.77-6.11,23.49-1.47,4.71-4,9.1-6.23,13.54-4.97,9.9-7.42,20.82-12.55,30.67-1.27,2.43.5,5.8-2.13,8.1-1.22,1.07-2.04,2.59-3.2,3.75-.09.09-1.45-1.11-3.08-3.1-.49-.97-.21-.37.25-.18.71.31.73,3.14,2.02.87.67-1.18.12-3.06.12-5.33-1.55,1.55-2.39,2.39-2.38,4.63ZM74.38,22.61c-4.22,4.36-6.61,9.79-8.65,15.36-.26.7.73,1.85,1.14,2.79.79-.56,1.85-.96,2.32-1.72,3.11-4.97,3.85-10.76,5.66-16.53q1.67-2.07,0-5.06c0,2.01,0,3.67-.46,5.15Z"/>
      <path class="cls-1" d="M58.24,37.52v15.87c-2.33-5.93-2.16-12.26,0-15.87Z"/>
      <path class="cls-1" d="M60.24,29.98c0,1.69.19,3.41-.08,5.06-.13.78-1.12,1.42-1.72,2.13,0-1.69-.19-3.41.08-5.06.13-.78,1.12-1.42,1.72-2.13Z"/>
      <path class="cls-1" d="M63.84,26.39h-1.8c0-.59-.16-1.24.04-1.75.22-.58.77-1.03,1.17-1.54.2.51.47,1,.56,1.52.1.57.02,1.17.02,1.76Z"/>
      <path class="cls-1" d="M62.04,26.39c-.27,1.36.89,3.44-1.8,3.59.27-1.36-.89-3.44,1.8-3.59Z"/>
    </g>
  </g>
</svg>