<?xml version="1.0" encoding="UTF-8"?>
<svg id="_레이어_2" data-name="레이어 2" xmlns="http://www.w3.org/2000/svg" viewBox="0 0 79.25 100">
  <defs>
    <style>
      .cls-1 {
        fill: #fff;
        stroke-width: 0px;
      }
    </style>
  </defs>
  <g id="_레이어_1-2" data-name="레이어 1">
    <path class="cls-1" d="M.35,2.77C6.76,1.89,12.37,1.11,18.3.29c3.36,21.11,12.53,40.91,20.86,62.76,2.87-5.21,5.57-9.06,7.24-13.32,4.45-11.34,9.2-22.57,10.97-34.84.72-4.99,3.27-9.72,5.1-14.9h15.38c3.71,4.1-1.02,7.72-1.85,11.32-2.24,9.63-6.3,18.82-9.17,28.32-2.88,9.53-7.62,18.27-10.06,28.08-2.27,9.12-7.59,17.46-11.34,26.24-.7,1.64-.35,3.73-.47,5.49-1.18.24-2.06.72-2.63.48-10.96-4.73-10.77-4.79-13.88-18.47-1.3-5.72-3.05-11.46-5.5-16.77-4.65-10.05-7.75-20.64-11.79-30.88C7.79,25.28,5.9,16.13.5,8.38c-1.02-1.46-.15-4.25-.15-5.61Z"/>
  </g>
</svg>