<?xml version="1.0" encoding="UTF-8"?>
<svg id="_레이어_2" data-name="레이어 2" xmlns="http://www.w3.org/2000/svg" viewBox="0 0 101.6 100">
  <defs>
    <style>
      .cls-1 {
        fill: #fff;
        stroke-width: 0px;
      }
    </style>
  </defs>
  <g id="_레이어_1-2" data-name="레이어 1">
    <path class="cls-1" d="M88.09,2.81h13.51c-6.94,14.23-12.85,28.63-20.7,41.88-9.49,16.01-16.64,33.33-27.51,48.52-1.72,2.39-3.96,4.41-6.13,6.78-6.77-2.48-7.63-9.18-9.65-13.97-3.73-8.81-7.49-17.63-11.11-26.49C19.07,41.38,9.74,24.23,1.1,6.7.33,5.15.46,3.15,0,.28c6.95.97,13.53-2.32,19.94,2.05,1.36.93,2.59.91,3.68,2.95,5.39,10.07,9.4,20.68,13.77,31.18,4.36,10.48,7.46,21.66,14.81,31,8.5-17.11,16.64-34.1,25.39-50.77,2.72-5.18,7.1-9.49,10.49-13.89Z"/>
  </g>
</svg>