<?xml version="1.0" encoding="UTF-8"?>
<svg id="_레이어_2" data-name="레이어 2" xmlns="http://www.w3.org/2000/svg" viewBox="0 0 56.73 100">
  <defs>
    <style>
      .cls-1 {
        fill: #fff;
        stroke-width: 0px;
      }
    </style>
  </defs>
  <g id="_레이어_1-2" data-name="레이어 1">
    <path class="cls-1" d="M16.25,0c1.42,14.66,5.06,27.5,10.12,39.94,2.19,5.4,2.32,8.07-.58,14.48,1.24,1.32,3.26,2.63,3.96,4.45.72,1.87.16,4.25.16,7.28,1.88-.85,3.59-1.13,3.72-1.75,2.22-10.47,6.39-20.2,10.93-29.8.37-.79.67-1.75.6-2.59-.52-5.68,2.55-10.37,4.15-15.45.35-1.11,1.26-2.04,1.56-3.15.32-1.17-3.14-1.91-.66-3.42,1.66-1.02,3.64-1.52,5.72-2.34,2.21,8.7-.62,15.72-3.31,22.79-1.04,2.75-1.92,5.57-2.69,8.41-3.28,11.96-6.89,23.83-10.15,35.78-1.23,4.51-2.42,9.29-3.08,13.96-1.02,7.14-6.22,9.05-11.47,11.08-1.86.72-4.22.11-6.31.11-1.54-15.37-4.16-30.06-9.38-44.21-.51-1.39-.61-3.01-.58-4.51.23-12.26-3.07-23.82-6.85-35.29-.09-.27-.59-.43-.63-.68C.95,12.26-.59,9.08.24,6.74c1.27-3.58,5.39-2.53,8.34-2.23,3.51.36,5-2.05,7.67-4.51Z"/>
  </g>
</svg>