<?xml version="1.0" encoding="UTF-8"?>
<svg id="_레이어_2" data-name="레이어 2" xmlns="http://www.w3.org/2000/svg" viewBox="0 0 86.24 100">
  <defs>
    <style>
      .cls-1 {
        fill: #fff;
        stroke-width: 0px;
      }
    </style>
  </defs>
  <g id="_레이어_1-2" data-name="레이어 1">
    <path class="cls-1" d="M41.51,100c-1.97-1.97-3.45-2.76-3.76-3.86-1.91-6.98-5.59-13.51-6.61-20.58-1.29-8.9-5.2-16.83-7.48-25.3-1.77-6.58-4.92-12.44-7.77-18.49-.89-1.9-1.56-3.76-1.93-5.92-.62-3.64-7.9-14.49-11.03-17.92-.87-.95-1.66-1.98-2.92-3.49,3.72-1.77,6.99-.71,9.63-1.09,1.66,2.12,2.77,5.03,4.64,5.66,5.1,1.72,6.64,6.41,7.83,10.11,3.8,11.77,9.74,22.8,12.17,35.03,3.03,1.79.96,5.06,2.14,7.46,1.13,2.29,1.85,4.83,2.37,7.34.54,2.58.63,5.25.99,8.59,1.29-.82,2.55-1.16,2.78-1.84,2.74-8.28,12.98-30.22,17.37-37.03.54-.84.8-1.9,1.07-2.89.79-2.84,2.03-5.38,4.23-7.44.96-.9,2.27-2.03,2.36-3.14.62-7.61,5.67-13.26,8.47-19.88.4-.95.92-1.9,1.58-2.67,3.07-3.59,4.19-3.55,8.59.31-1.15,1.97-2.06,4.21-3.56,5.94-3.07,3.54-4.83,7.47-4.99,12.15-.02.75-.23,1.63-.68,2.2-3.91,4.97-6.04,10.75-8.36,16.57-3.14,7.87-7.49,15.24-10.91,23.01-2.59,5.87-4.6,12-6.73,18.06-2.25,6.39-5.59,12.16-9.5,19.11ZM18.99,21.15c-.19-.35-.39-.71-.59-1.08-.19.19-.55.41-.52.55.09.39.34.75.52,1.12.19-.19.37-.37.59-.59Z"/>
  </g>
</svg>