<?xml version="1.0" encoding="UTF-8"?>
<svg id="_레이어_2" data-name="레이어 2" xmlns="http://www.w3.org/2000/svg" viewBox="0 0 76.26 100">
  <defs>
    <style>
      .cls-1 {
        fill: #fff;
        stroke-width: 0px;
      }
    </style>
  </defs>
  <g id="_레이어_1-2" data-name="레이어 1">
    <path class="cls-1" d="M29.26,100c0-3.46.19-5.07-.06-6.62-.19-1.19-.7-3.06-1.47-3.3-4.84-1.51-5.31-6.22-5.86-9.58-1.05-6.41-4.59-11.62-6.64-17.5-3.44-9.85-7.8-19.38-11.14-29.26-1.27-3.76-2.38-7.75-2.42-11.96-.04-4.31-1.02-8.62-1.67-13.57,5.12,0,9.88-.06,14.65.02,3.54.06,4.94,1.12,4.8,4.55-.11,2.75.79,5.15,1.88,7.33.79,1.57,2.99,2.44,4.77,3.78-1.5.94-2.99,1.89-5.07,3.2,1.48,10.29,5.81,20.04,10.79,30.02,2.54-1.5,4.14-3.21,5.72-5.9,5.35-9.08,8.93-18.92,13.39-28.38.73-1.55.9-3.48.92-5.25.05-4.1,1.02-7.69,5.16-9.33,5.19-2.05,5.24-1.93,9.76-.11,4.38-1.11,3.57-7.69,9.49-8.15-.75,3.04.95,5.73-1.1,8.55-.79,1.1-.75,3.03-.6,4.54.47,4.82-1.43,9.06-3.35,13.16-3.81,8.12-7.69,16.24-12.18,23.99-5.27,9.09-9.7,18.6-14.76,27.78-1.1,2-2.46,3.91-3.99,5.59-2.78,3.06-5.91,5.66-6.34,10.36-.16,1.72-2.42,3.25-4.66,6.03Z"/>
  </g>
</svg>