<?xml version="1.0" encoding="UTF-8"?>
<svg id="_레이어_2" data-name="레이어 2" xmlns="http://www.w3.org/2000/svg" viewBox="0 0 71.37 100">
  <defs>
    <style>
      .cls-1 {
        fill: #fff;
        stroke-width: 0px;
      }
    </style>
  </defs>
  <g id="_레이어_1-2" data-name="레이어 1">
    <path class="cls-1" d="M16.92.02c2.77,8.9,4.84,17.79,7.49,26.52,1.35,4.45,2.88,8.83,4.25,13.27,1.38,4.45,2.48,8.98,3.8,13.45,1.31,4.41,2.74,8.79,4.3,13.78,3.24-10.88,6.15-21.14,9.16-31.35,2.41-8.18,5.24-16.26,7.31-24.54.77-3.05,1.36-6.15,2.11-9.58h15.92c0,.77.28,1.7-.04,2.33-4.9,9.72-7.14,20.39-10.96,30.51-3.41,9.02-6.56,18.18-9.21,27.51-1.41,4.98-3.48,9.81-4.9,14.85-1.36,4.82-3.28,9.48-4.94,14.22-1.18,3.39-2.58,6.64-5.44,9.01-1.68-1.01-3.99-1.53-3.46-4.31-3.28-6.15-4.97-12.94-7.83-19.29-2.92-6.49-4.8-13.45-7.06-20.23C11.74,39.11,6.12,22.05.46,4.99-.68,1.56.26.1,3.91.04c4.35-.08,8.71-.02,13-.02Z"/>
  </g>
</svg>