<?xml version="1.0" encoding="UTF-8"?>
<svg id="_레이어_2" data-name="레이어 2" xmlns="http://www.w3.org/2000/svg" viewBox="0 0 84.89 100">
  <defs>
    <style>
      .cls-1 {
        fill: #fff;
        stroke-width: 0px;
      }
    </style>
  </defs>
  <g id="_레이어_1-2" data-name="레이어 1">
    <path class="cls-1" d="M42.64,100c-2.94-1.86-3.64-4.9-4.66-7.49-2.19-5.55-4.23-11.14-6.74-16.56-1.82-3.93-3.77-7.88-4.9-12.02-1.39-5.11-3.85-9.76-5.56-14.72-1.94-5.63-4.52-11.02-6.41-16.69-1.08-3.24-2.89-6.22-4.3-9.35-2.52-5.6-5-11.22-7.46-16.84C1.76,4.38.99,2.41,0,0c3.22,1.73,6.05,1.04,8.78,1.13,2.91.1,5.82.02,8.88.02,4.42,10.76,9.19,21.32,13.09,32.18,3.9,10.86,9.56,21.03,12.23,32.5.79-.79,1.78-1.3,1.82-1.9.5-6.56,3.92-12.05,6.21-17.97,1.44-3.71,3.55-7.09,4.59-11.02,1.01-3.8,3.43-7.22,4.47-11.02,1.4-5.11,4.3-9.59,5.55-14.72.38-1.57,1.03-3.09,1.59-4.61.49-1.32,1.2-2.31,2.85-2.29,4.84.05,9.68.02,14.83.02-2.86,5.51-5.93,10.43-8.06,15.73-3.24,8.04-7.1,15.82-9.7,24.13-1.5,4.8-3.96,9.3-5.75,14.02-2.68,7.1-5.91,13.97-8.29,21.19-1.07,3.24-2.83,6.25-4.09,9.44-1.07,2.68-3.01,4.95-3.04,8.18-.01,1.79-1.37,3.73-3.31,4.98Z"/>
  </g>
</svg>