<?xml version="1.0" encoding="UTF-8"?>
<svg id="_레이어_2" data-name="레이어 2" xmlns="http://www.w3.org/2000/svg" viewBox="0 0 85.96 100">
  <defs>
    <style>
      .cls-1 {
        fill: #fff;
        stroke-width: 0px;
      }
    </style>
  </defs>
  <g id="_레이어_1-2" data-name="레이어 1">
    <path class="cls-1" d="M43.07,50.17c2.84-6.59,5.72-13.16,8.51-19.76,1.74-4.11,3.28-8.31,5.04-12.41,1.74-4.04,2.24-8.23,2.03-12.57-.07-1.55-.01-3.11-.01-4.71h27.31c-.69.93-1.26,1.62-1.75,2.37-2.88,4.39-4.55,9.32-6.36,14.2-2.41,6.51-4.88,13-7.46,19.45-3.21,8.02-6.52,15.99-9.86,23.96-2.7,6.44-5.52,12.83-8.28,19.24-.36.84-.69,1.69-1.16,2.83h19.51v17.22H15.33v-17.29c.77,0,1.31,0,1.84,0,5.12.03,10.23.07,15.35.09,1.6,0,1.79-.12,1.39-1.65-.86-3.24-1.8-6.46-2.84-9.65-2.71-8.35-5.35-16.73-8.27-25.01C17.98,32.83,11.93,19.72,4.58,7.23,3.21,4.91,1.65,2.7,0,.16c2.57,0,4.85.01,7.13,0C13.86.12,20.59.11,27.32,0c1.27-.02,1.67.27,1.99,1.62,1.4,5.99,2.96,11.95,4.6,17.89,2.61,9.48,5.33,18.93,8.01,28.4.21.74.49,1.46.74,2.19.14.03.27.05.41.08Z"/>
  </g>
</svg>