<?xml version="1.0" encoding="UTF-8"?>
<svg id="_레이어_2" data-name="레이어 2" xmlns="http://www.w3.org/2000/svg" viewBox="0 0 92.39 100">
  <defs>
    <style>
      .cls-1 {
        fill: #fff;
        stroke-width: 0px;
      }
    </style>
  </defs>
  <g id="_레이어_1-2" data-name="레이어 1">
    <path class="cls-1" d="M45.75,100c-.85-1.63-1.87-3.2-2.53-4.9-1.69-4.38-3.31-8.79-4.82-13.23-5.94-17.45-11.82-34.93-17.75-52.38-1.72-5.05-3.54-10.07-5.32-15.1-1.95-5.5-5.94-8.72-11.45-10.25-1.09-.3-2.19-.56-3.27-.9C.35,3.15-.04,2.74,0,2.6c.11-.33.39-.76.69-.84.69-.2,1.42-.28,2.14-.29,2.52-.04,5.04.06,7.55-.05,6.08-.25,12.15-.65,18.22-.88,3.73-.14,7.47-.08,11.2-.11C56.37.29,72.93.14,89.49,0c.65,0,1.3,0,1.95.03.76.03.9.58.95,1.18.07.78-.43.94-1.08.94-1.95,0-3.9.05-5.85,0-2.29-.06-4.06.91-5.53,2.58-2.08,2.36-3.33,5.14-4.32,8.08-4.64,13.87-9.31,27.74-13.95,41.61-4.52,13.49-9.03,26.99-13.54,40.48-.56,1.67-1.09,3.35-1.63,5.03-.25.02-.5.05-.75.07ZM63.33,36.95c-.24-.93-.37-1.82-.69-2.64-1.59-4.07-3.08-8.18-4.89-12.16-2.07-4.56-4.36-9.02-6.69-13.45-1.6-3.03-4.25-4.75-7.59-5.59-1.6-.4-3.42-.36-4.71-1.73-.16-.17-.59-.2-.85-.13-1.54.43-3.05.98-4.59,1.37-4.03,1.03-5.81,3.75-4.7,7.72,1.38,4.97,2.84,9.93,4.47,14.83,2.92,8.82,6.03,17.58,8.97,26.39,2.33,6.97,4.51,13.99,6.78,20.98.42,1.3.97,2.57,1.5,3.84.07.17.36.37.52.34.19-.03.45-.24.51-.43.18-.54.24-1.11.4-1.65,1-3.57,1.9-7.18,3.03-10.71,2.51-7.85,5.14-15.66,7.69-23.5.37-1.14.59-2.34.87-3.5ZM71.01,8.51c.2-1.29-.28-2.64-1.28-3.78-.86-.98-1.97-.83-2.51.37-.64,1.45-.67,2.98.11,4.42.57,1.05,1.23,2.43,2.55,2.14,1.29-.29,1.09-1.78,1.12-3.15Z"/>
  </g>
</svg>