<?xml version="1.0" encoding="UTF-8"?>
<svg id="_레이어_2" data-name="레이어 2" xmlns="http://www.w3.org/2000/svg" viewBox="0 0 76.03 94.25">
  <defs>
    <style>
      .cls-1 {
        fill: #fff;
        stroke-width: 0px;
      }
    </style>
  </defs>
  <g id="_레이어_1-2" data-name="레이어 1">
    <path class="cls-1" d="M0,.87C1.01.4,1.16.27,1.31.26,13.77-.47,13.81-.48,18.05,11.18c6.12,16.84,12.17,33.71,18.28,50.55.65,1.8,1.48,3.55,2.63,6.29,3.73-10.66,7.11-20.27,10.44-29.9,3.78-10.91,7.64-21.79,11.18-32.77,1.05-3.27,2.55-4.63,5.99-4.06,2.76.46,5.59.54,9.47.88-1.79,5.53-3.27,10.62-5.07,15.6-8.76,24.32-17.78,48.56-26.27,72.97-1.86,5.36-5.51,2.79-8.48,3.37-2.74.53-4.26-.4-5.32-3.49C21.42,63.01,11.68,35.49,2.06,7.93,1.25,5.62.68,3.24,0,.87Z"/>
  </g>
</svg>