<?xml version="1.0" encoding="UTF-8"?>
<svg id="_레이어_2" data-name="레이어 2" xmlns="http://www.w3.org/2000/svg" viewBox="0 0 154.79 100">
  <defs>
    <style>
      .cls-1 {
        fill: #fff;
        stroke-width: 0px;
      }
    </style>
  </defs>
  <g id="_레이어_1-2" data-name="레이어 1">
    <path class="cls-1" d="M0,.13C9.24.13,17.78.37,26.29,0c3.26-.14,4.57,1.67,5.68,3.76,4.02,7.63,7.83,15.39,11.7,23.1,9.26,18.4,18.53,36.79,27.75,55.21,2.16,4.32,4.11,8.76,6.19,13.2,4.31-8.53,8.63-17.26,13.1-25.91,10.08-19.52,20.23-39,30.35-58.5.14-.26,4.83-7.78,4.89-8.05C127.64.18,127.95,0,132.68,0c5.84.18,15.39.12,22.11.12-2.37,5.45-4.12,10.12-6.37,14.53-10.58,20.73-21.4,41.34-31.91,62.11-3.35,6.61-6.1,13.53-8.89,20.41-.85,2.11-1.86,2.84-4.13,2.82-16.92-.1-33.84,0-50.76-.16-1.37-.01-3.37-1.14-4-2.33-9.36-17.75-18.63-35.54-27.71-53.43C14.58,31.39,8.43,18.55,2.2,5.75,1.38,4.07.83,2.27,0,.13Z"/>
  </g>
</svg>