<?xml version="1.0" encoding="UTF-8"?>
<svg id="_레이어_2" data-name="레이어 2" xmlns="http://www.w3.org/2000/svg" viewBox="0 0 81.42 100">
  <defs>
    <style>
      .cls-1 {
        fill: #fff;
        stroke-width: 0px;
      }
    </style>
  </defs>
  <g id="_레이어_1-2" data-name="레이어 1">
    <path class="cls-1" d="M79.07,76.28c-2.52,1.04-4.23,1.88-6.03,2.46-1.24.4-3.08,1.11-3.83.55-7.68-5.7-15.19-11.62-22.87-17.57,11.96-5.95,23.16-7.42,35.07-1.56-.42-7.79-.82-15.02-1.21-22.24.09,3.67-2.35,3.32-4.76,3.38-3.41.1-6.86.17-10.19.81-6.61,1.27-6.58,1.43-4.81,7.71.07.23-.16.54-.25.82-6.92,1.19-14.86-.68-19.23,6.57-9.09-6.02-17.89-11.86-27.23-18.05,21.89-9.89,43.59-19.68,65.48-29.57-.98-3.87-1.36-6.2-3.16-9.59-.9.22-1.8.4-2.71.54.32.08.64.17.98.26-2.82.87-15.08,7.11-18.98,8.95-12.48,5.91-25.22,11.3-37.56,17.48-5.08,2.55-9.15,7.08-14.19,9.77-2.97,1.58-4.07,2.91-3.43,5.4,33.04,10.22,57.38,31.61,78.9,57.6v-23.72Z"/>
  </g>
</svg>