<?xml version="1.0" encoding="UTF-8"?>
<svg id="_레이어_2" data-name="레이어 2" xmlns="http://www.w3.org/2000/svg" viewBox="0 0 45.74 97.26">
  <defs>
    <style>
      .cls-1 {
        fill: #fff;
        stroke-width: 0px;
      }
    </style>
  </defs>
  <g id="_레이어_1-2" data-name="레이어 1">
    <path class="cls-1" d="M15.39,97.19c-.12-21.35-7.63-40.77-11.16-60.93-.29-1.64-2.35-2.96-4.08-5.02-.04.73-.1.23,0,.19,4.86-1.81,4.36-5.31,3.48-9.44-.87-4.1-.71-8.4-1.35-12.57C1.83,6.42.82,3.5,0,.32h18.46c-.06.54.06,1.17-.18,1.37-5.89,4.73-4.37,11.23-3.49,17.09,2.29,15.06,5.21,30.03,7.91,45.03.07.38.45.69.94,1.42,6.35-20.74,8.29-41.79,9.75-62.69,11.72-4.61,13.61-3.51,11.71,8.25-2.67,16.52-6.15,32.91-9.36,49.34-1.24,6.37-2.46,12.75-4.11,19.02-1.41,5.37-3.31,10.62-5.26,15.83-.36.97-1.89,1.98-2.99,2.12-2.5.31-5.06.1-8,.1Z"/>
  </g>
</svg>