<?xml version="1.0" encoding="UTF-8"?>
<svg id="_레이어_2" data-name="레이어 2" xmlns="http://www.w3.org/2000/svg" viewBox="0 0 82.48 100">
  <defs>
    <style>
      .cls-1 {
        fill: #fff;
        stroke-width: 0px;
      }
    </style>
  </defs>
  <g id="_레이어_1-2" data-name="레이어 1">
    <path class="cls-1" d="M37.5,100c-2.31-4.46-5.05-8.76-6.86-13.42-7.73-19.83-15.18-39.77-22.74-59.66C5.31,20.11,2.68,13.3,0,6.3c5.56-.66,11.49-1.37,17.72-2.11.45,17.88,7.96,33.4,13.07,50.55,2.8-6.2,5.26-11.42,7.46-16.74.49-1.18.28-2.82-.06-4.13-2.31-8.97-4.69-17.92-7.19-26.84-.28-1-1.42-1.75-2.52-3.05,7.17.39,13.99.76,21.41,1.16-4.39,8.61-2.83,17.37-1.89,26.01.94,8.66,3.33,17.02,6.7,25.22,6.81-19.37,18.1-36.7,23.33-56.37,5.32,4.25,5.47,4.31,2.59,10.71-8.15,18.13-16.42,36.2-24.65,54.29-.77,1.69-1.53,3.39-2.45,5.42-1.23-1.43-2.17-2.52-3.18-3.69-5.08,10.67-10.96,20.75-11.71,32.67-.38.2-.76.4-1.13.6ZM32.46,58.18c1.06,2.02,1.64,3.06,2.16,4.14,1.09,2.25,2.04,4.59,3.28,6.76.41.73,1.49,1.39,2.31,1.45.47.04,1.42-1.14,1.5-1.84.22-1.84.07-3.72.07-5.83,1.25.27,2.67.58,4.61,1.01,2.98-7.15-2.64-12.41-3.1-18.63-.36-.02-.72-.04-1.07-.06-3.37,4.48-6.73,8.97-9.77,13.01Z"/>
  </g>
</svg>