<?xml version="1.0" encoding="UTF-8"?>
<svg id="_레이어_2" data-name="레이어 2" xmlns="http://www.w3.org/2000/svg" viewBox="0 0 84.21 85.97">
  <defs>
    <style>
      .cls-1 {
        fill: #fff;
        stroke-width: 0px;
      }
    </style>
  </defs>
  <g id="_레이어_1-2" data-name="레이어 1">
    <path class="cls-1" d="M0,2.52C13.03-1.68,13.13-1.36,18.23,9.09c6.78,13.87,14.12,27.47,21.16,41.21,2.01,3.93,3.84,7.96,6.13,12.75,4.11-9.35,7.92-17.97,11.71-26.6,4.81-10.94,9.61-21.9,14.42-32.84,1.13-2.56,6.52-3.3,10.45-1.51,3.2,1.45,2.03,3.74,1.09,5.87-10.77,24.46-21.51,48.93-32.51,73.29-.95,2.1-3.86,4.92-5.49,4.7-2.2-.3-4.79-2.85-5.93-5.08C26.12,54.99,13.21,28.98,0,2.52Z"/>
  </g>
</svg>