<?xml version="1.0" encoding="UTF-8"?>
<svg id="_레이어_2" data-name="레이어 2" xmlns="http://www.w3.org/2000/svg" viewBox="0 0 81.08 100">
  <defs>
    <style>
      .cls-1 {
        fill: #fff;
        stroke-width: 0px;
      }
    </style>
  </defs>
  <g id="_레이어_1-2" data-name="레이어 1">
    <path class="cls-1" d="M38.85,73.3C47.53,48.64,55.49,23.7,66.09,0c4.2.39,8.27.6,12.26,1.23,1.46.23,4.37.76,1.53,3.38-.47,6.55-4.4,11.86-6.62,17.76-3.76,9.99-8.51,19.67-11.19,29.97-2.11,8.11-6.45,15.32-8.22,23.5-1.02,4.71-2.32,9.39-3.78,13.98-1.12,3.52-2.69,6.89-4,10.17h-12.62C21.05,67.23,10.86,33.82,0,.07h15.46c3.29,10.28,6.34,20.56,9.89,30.67,4.42,12.59,8.03,25.42,12,38.15.39,1.24.05,2.71.05,4.07.48.12.97.23,1.45.35Z"/>
  </g>
</svg>