<?xml version="1.0" encoding="UTF-8"?>
<svg id="_레이어_2" data-name="레이어 2" xmlns="http://www.w3.org/2000/svg" viewBox="0 0 80.29 100">
  <defs>
    <style>
      .cls-1 {
        fill: #fff;
        stroke-width: 0px;
      }
    </style>
  </defs>
  <g id="_레이어_1-2" data-name="레이어 1">
    <path class="cls-1" d="M36.07,100c-2.77-6.27-5.7-12.53-8.31-18.91-2.16-5.29-4.06-10.69-5.89-16.11-3.24-9.54-6.44-19.09-9.48-28.69C8.87,25.19,3.64,14.67,1.07,3.24-1.46.91,1.11.66,2.44.14c.74-.29,1.69-.05,2.54-.05h9.91c7.79,25.73,15.98,51.42,25.38,77.34,1.87-10.24,5.31-19.31,8.57-28.46,2.05-5.76,4.57-11.32,6.38-17.22,1.81-5.92,4.68-11.68,6.77-17.63,1.63-4.65,3.15-9.35,4.74-14.11,4.71.48,9.4-1.06,13.56,1.77-4.14,11.02-8.9,21.79-12.65,32.96-1.69,5.02-4.37,9.7-6.29,14.66-3.13,8.09-6.05,16.26-8.99,24.42-1.74,4.82-4.23,9.34-5.55,14.34-.66,2.48-2.19,4.69-2.18,7.42,0,1.9-1.17,2.86-3.1,3.14-1.76.25-3.48.8-5.45,1.27Z"/>
  </g>
</svg>