<?xml version="1.0" encoding="UTF-8"?>
<svg id="_레이어_2" data-name="레이어 2" xmlns="http://www.w3.org/2000/svg" viewBox="0 0 103.27 100">
  <defs>
    <style>
      .cls-1 {
        fill: #fff;
        stroke-width: 0px;
      }
    </style>
  </defs>
  <g id="_레이어_1-2" data-name="레이어 1">
    <path class="cls-1" d="M67.76,99.86c-.75.04-1.75.14-2.75.14-29.47-.06-28.7-.32-38.04-28.2C19.01,48.07,9.02,25.02,0,1.86,15.99-2.59,21.33.35,27.44,17.36c7.13,19.87,14.78,39.56,22.27,59.3.43,1.13,1.36,2.07,3.57,5.33,4.18-11.31,7.79-20.74,11.16-30.26,4.27-12.05,7.92-24.34,12.61-36.21C82.83.9,86.85-.79,103.27,2.22c-11.72,32.23-23.46,64.49-35.51,97.64Z"/>
  </g>
</svg>