<?xml version="1.0" encoding="UTF-8"?>
<svg id="_레이어_2" data-name="레이어 2" xmlns="http://www.w3.org/2000/svg" viewBox="0 0 75.49 87.66">
  <defs>
    <style>
      .cls-1 {
        fill: #fff;
        stroke-width: 0px;
      }
    </style>
  </defs>
  <g id="_레이어_1-2" data-name="레이어 1">
    <path class="cls-1" d="M0,.06c2.23.12,3.68.32,5.12.26,15.93-.6,11.54-1.85,17.21,12.29,5.25,13.09,10.05,26.36,15.64,41.09,3.49-9.7,6.47-17.96,9.43-26.23,3-8.36,5.96-16.74,8.99-25.09.31-.85.94-2.26,1.45-2.27,5.7-.16,11.4-.1,17.66-.1-3.41,9.39-6.22,17.62-9.38,25.72-7.59,19.43-15.52,38.72-22.87,58.23-1.62,4.3-4.52,3.08-7.29,3.61-3.42.65-3.69-2.06-4.46-4.1C21.78,57.73,12.12,31.99,2.43,6.26,1.74,4.43,1.01,2.62,0,.06Z"/>
  </g>
</svg>