<?xml version="1.0" encoding="UTF-8"?>
<svg id="_레이어_2" data-name="레이어 2" xmlns="http://www.w3.org/2000/svg" viewBox="0 0 85.03 86.97">
  <defs>
    <style>
      .cls-1 {
        fill: #fff;
        stroke-width: 0px;
      }
    </style>
  </defs>
  <g id="_레이어_1-2" data-name="레이어 1">
    <path class="cls-1" d="M46.42,65.63c3.5-9.03,7.07-17.48,10.05-26.13,3.91-11.36,7.39-22.87,10.95-34.35.82-2.65,1.46-4.49,5.06-3.64,2.46.58,5.24-.23,7.88-.33,3.77-.14,5.8.82,4.02,5.26-3,7.52-5.75,15.14-8.41,22.79-3.93,11.31-7.66,22.69-11.52,34.02-2.05,6.03-4.37,11.97-6.24,18.06-1.18,3.85-3.01,5.93-7.36,5.33-2.45-.34-5.06-.38-7.47.08-5.74,1.1-8.49-1.56-10.59-6.6C23.93,58.89,14.8,37.76,5.72,16.61c-1.62-3.76-3.54-7.39-5.12-11.17C.08,4.22-.23,2.55.21,1.42c.26-.66,2.2-.84,3.39-.9,3.32-.17,6.72.29,9.94-.31,4.99-.94,7.26,1.43,8.85,5.61,7.29,19.13,14.64,38.24,22.04,57.33.38.99,1.37,1.74,1.99,2.49Z"/>
  </g>
</svg>