<?xml version="1.0" encoding="UTF-8"?>
<svg id="_레이어_2" data-name="레이어 2" xmlns="http://www.w3.org/2000/svg" viewBox="0 0 93.87 101.54">
  <defs>
    <style>
      .cls-1 {
        fill: #fff;
        stroke-width: 0px;
      }
    </style>
  </defs>
  <g id="_레이어_1-2" data-name="레이어 1">
    <path class="cls-1" d="M49.78,72.7c6.07-16.23,11.92-31.92,17.81-47.6,2.37-6.32,4.9-12.59,7.21-18.93,1.25-3.44,2.75-5.72,7.16-4.98,3.49.58,7.16.12,11.92.12-1.45,3.12-2.71,5.5-3.69,7.99-9.79,24.9-19.53,49.83-29.31,74.74-.9,2.3-2.03,4.51-3,6.78-5.43,12.8-2.78,11.44-16.24,9.43C27.81,66.97,14.17,34.15,0,.07,6.21.07,12.24-.19,18.21.29c1.2.1,2.48,2.86,3.21,4.61,9.18,22.03,18.27,44.1,27.4,66.16.23.55.61,1.04.97,1.64Z"/>
  </g>
</svg>