<?xml version="1.0" encoding="UTF-8"?>
<svg id="_레이어_2" data-name="레이어 2" xmlns="http://www.w3.org/2000/svg" viewBox="0 0 100.24 100">
  <defs>
    <style>
      .cls-1 {
        fill: #fff;
        stroke-width: 0px;
      }
    </style>
  </defs>
  <g id="_레이어_1-2" data-name="레이어 1">
    <path class="cls-1" d="M0,.65h53.68c-2.99,24.44,5.63,47.28,10.53,70.72.47.11.94.21,1.41.32C72.28,47.93,78.93,24.16,85.69.01c3.14,0,6.51-.04,9.88,0,4.69.07,5.31.69,4.19,5.16-2.73,10.94-5.57,21.85-8.47,32.75-4.99,18.8-10.1,37.57-15.06,56.38-1,3.81-2.44,5.87-7.11,5.68-16.76-.67-12.45,1.99-16.41-13.36-4.75-18.39-8.9-36.94-13.27-55.43-.74-3.12-1.45-6.26-1.89-9.44-.37-2.66-1.79-3.26-4.22-3.23-6.92.1-13.83-.05-20.75.02-2.84.03-4.45-.88-5.57-3.77-1.31-3.38-3.64-6.35-5.38-9.57C.93,3.94.62,2.45,0,.65Z"/>
  </g>
</svg>