<?xml version="1.0" encoding="UTF-8"?>
<svg id="_레이어_2" data-name="레이어 2" xmlns="http://www.w3.org/2000/svg" viewBox="0 0 71.44 90.51">
  <defs>
    <style>
      .cls-1 {
        fill: #fff;
        stroke-width: 0px;
      }
    </style>
  </defs>
  <g id="_레이어_1-2" data-name="레이어 1">
    <path class="cls-1" d="M0,2.41C12.4-1.38,12.91-1.47,16.62,7.83c7.69,19.27,14.26,38.99,21.3,58.53.89,2.46,1.85,4.89,2.78,7.34.48.07.96.13,1.44.2,2.51-6.93,5.45-13.74,7.44-20.81,3.96-14.05,7.33-28.27,11.11-42.38.67-2.5,1.8-5.07,3.41-7.04.96-1.17,3.91-2.18,4.84-1.56,1.4.92,2.7,3.46,2.48,5.1-1.05,7.71-3.01,15.31-3.95,23.03-2.39,19.59-11.06,37.17-17.23,55.55-1.06,3.15-3.17,4.46-6.4,4.4-3-.06-6.06-.31-8.98.19-4.44.75-5.54-1.54-6.71-5.21C20.17,60.16,11.97,35.23,3.75,10.31,2.89,7.69,1.39,5.29,0,2.41Z"/>
  </g>
</svg>