<?xml version="1.0" encoding="UTF-8"?>
<svg id="_레이어_2" data-name="레이어 2" xmlns="http://www.w3.org/2000/svg" viewBox="0 0 76.89 84.3">
  <defs>
    <style>
      .cls-1 {
        fill: #fff;
        stroke-width: 0px;
      }
    </style>
  </defs>
  <g id="_레이어_1-2" data-name="레이어 1">
    <path class="cls-1" d="M0,52.51c.87-12.61,1.75-25.21,2.59-37.82.29-4.32,2.38-6.11,6.81-5.77,3.04.24,3.98,1.28,3.77,4.33-.83,11.78-1.56,23.56-2.04,35.36-.16,3.95.1,8.03.96,11.87,1.17,5.24,2.97,10.5,9.48,11.45,5.39.79,12.8-3.54,15.18-9.29,2.78-6.74,5.41-13.6,7.42-20.6,3.62-12.58,6.8-25.29,9.98-38,.73-2.93,1.93-4.28,5.07-4,4.63.42,9.29.53,13.93.82,3.66.23,4.59,1.97,3.03,5.33-9.43,20.33-18.95,40.62-28.15,61.06-8.64,19.18-23.24,19.36-39.1,14.14-5.95-1.96-7.75-8.39-8.23-14.38-.38-4.8-.08-9.65-.08-14.47-.2,0-.41-.02-.61-.03Z"/>
  </g>
</svg>