<?xml version="1.0" encoding="UTF-8"?>
<svg id="_레이어_2" data-name="레이어 2" xmlns="http://www.w3.org/2000/svg" viewBox="0 0 56.97 100">
  <defs>
    <style>
      .cls-1 {
        fill: #fff;
        stroke-width: 0px;
      }
    </style>
  </defs>
  <g id="_레이어_1-2" data-name="레이어 1">
    <path class="cls-1" d="M10.68,93.03c-1.52-8.18-1.77-15.62,5.06-21.3,3.08,3.92,4.68,8.19,4.64,13.23-.02,2.96.9,5.92,1.37,8.74,3.39.44,4.8-.3,6.42-3.45,2.67-5.16,3.94-10.75,4.94-16.45,2.09-11.89.94-23.86,1.17-35.79.17-8.97.02-17.95-.03-26.92,0-1.29-.15-2.58-.34-3.86-.3-2.08-1.12-3.61-3.48-4.16-1.5-.35-2.84-1.37-4.22-2.16-.13-.08-.02-.59-.02-.84C34.46.07,42.6.17,50.74,0c2.37-.05,3.91,1.26,5.63,2.34.46.29.69,1.37.57,2-.08.42-.98.67-1.5,1.01-1.84,1.23-3.44.71-5.17-.43-1.33-.88-3.08.22-3.53,2.24-.4,1.77-.59,3.63-.59,5.45-.03,17.81,0,35.63,0,53.44,0,5.58-.67,11.04-2.43,16.4-2.43,7.42-6.83,13.01-14.08,16.09-3.43,1.46-7.09,1.84-10.75,1.05-1.32-.29-2.69-.9-3.76-1.73-4.21-3.27-9.32-5.42-12.35-10.17-3.28-5.14-4.34-12.76.63-17.38,2.83-2.62,9.61-5.12,12.87-2.2-.16.58-.33,1.21-.51,1.86-3.84-3.02-8.32-.53-10.95,2.45-4.66,5.25-2.75,10.08-.03,14.7,1.37,2.32,3.05,4.38,5.89,5.9ZM23,96.4c-3.46-3.84-3.66-8.46-4.03-13.12-.2-2.59-1.01-5.21-2.01-7.62-.94-2.28-2.35-2.21-3.49.08-2.44,4.93-3.15,10.13-1.81,15.51.19.76,1.14,1.31,1.41,2.07,1.14,3.27,6.5,5.15,9.93,3.09Z"/>
  </g>
</svg>