<?xml version="1.0" encoding="UTF-8"?>
<svg id="_레이어_2" data-name="레이어 2" xmlns="http://www.w3.org/2000/svg" viewBox="0 0 79.06 100">
  <defs>
    <style>
      .cls-1 {
        fill: #fff;
        stroke-width: 0px;
      }
    </style>
  </defs>
  <g id="_레이어_1-2" data-name="레이어 1">
    <g>
      <path class="cls-1" d="M34.06,57.76c-2.45.38-4.36.67-6.28.96-.31.05-.66-.07-.93.04-3.23,1.3-6.44.21-9.65-.04-4-.31-7.86.14-11.51,1.95-.96.48-1.96.91-2.98,1.21-1.15.34-2.25-.49-2.02-1.67.27-1.4-.35-2.85,1.02-4.29.82-.86.16-3.1.19-4.72.06-3.34.15-6.67.21-10.01.03-1.53,0-3.05,0-4.83.57.32.92.52,1.41.79v-2.15c-.53.03-1.07.05-1.93.1,0-1.85.07-3.56-.01-5.26-.29-6.02-.63-12.03-.98-18.04-.08-1.4-.36-2.8-.45-4.2-.09-1.47-.27-2.97-.05-4.41C.52.37,2.36-.43,5.13.2c2.43.56,5.06,1.09,7.47.75,4.06-.58,7.93.53,11.9.61.8.02,1.59.82,2.49,1.32-1.1,1.35-2.13,2.56-3.1,3.83-.32.42-.7.94-.71,1.42-.12,4.53-.17,9.05-.21,13.58-.02,1.72-.1,3.45.09,5.14.22,1.99.72,3.95,1.09,5.92.54,2.88,1.25,5.75,1.57,8.66.36,3.29,1.4,5.97,3.8,8.47,1.92,1.99,2.89,4.89,4.55,7.86Z"/>
      <path class="cls-1" d="M70.43,21.88c-6.14-1.72-12.12-3.4-18.1-5.07-.22-.06-.44-.18-.66-.2-3.2-.28-3.29-.36-3.31-3.57-.02-2.98-.1-5.96.03-8.93.11-2.42.27-2.48,2.62-2.49,6.5-.02,13-.08,19.5,0,2.24.03,4.48.36,6.69.73,1.72.29,2.25,1.11,1.6,2.62-1.35,3.15-2.87,6.23-4.39,9.3-1.26,2.53-2.62,5.01-3.97,7.6Z"/>
      <path class="cls-1" d="M75.13,96.26c1.91-.47,2.01-.26,1.73,3.74h-5.7c-.99-1.72-1.99-3.31-2.84-4.97-.97-1.9-1.83-3.86-2.69-5.81-.57-1.29-.43-2.95-2.43-3.39-.6-.13-1.3-1.51-1.32-2.33-.09-3.3-3.25-4.52-4.54-7.01-.75-1.45-2.38-2.41-3.41-3.75-.53-.69-.6-1.74-.79-2.35-1.4-1.8-2.53-3.61-4.01-5.05-1.42-1.39-3.18-2.44-4.83-3.58-1.96-1.35-3.96-2.64-6.01-3.99,2.02-4.14,5.52-6.04,9.37-7.49,1.09-.41,1.51.45,1.96,1.2,1.72,2.87,3.36,5.8,5.19,8.6,3.38,5.2,6.91,10.29,9.69,15.89,1.51,3.05,3.9,5.65,5.56,8.64,1.89,3.41,3.41,7.02,5.06,10.55.14.3.02.72.02,1.09Z"/>
    </g>
  </g>
</svg>