<?xml version="1.0" encoding="UTF-8"?>
<svg id="_레이어_2" data-name="레이어 2" xmlns="http://www.w3.org/2000/svg" viewBox="0 0 173.74 100">
  <defs>
    <style>
      .cls-1 {
        fill: #fff;
        stroke-width: 0px;
      }
    </style>
  </defs>
  <g id="_레이어_1-2" data-name="레이어 1">
    <path class="cls-1" d="M64.66,36.5c4.49-1.39,8.97-2.85,13.48-4.15,12.96-3.74,26.11-6.9,38.86-11.26,12.13-4.14,23.86-9.46,35.74-14.35,2.06-.85,3.93-2.13,5.91-3.18,2.28-1.22,4.48-3.03,6.91-3.44,2.61-.44,5.45.46,8.18.77-1.51,2.28-2.51,5.44-4.63,6.69-9.62,5.67-19.53,10.87-29.41,16.11-5.31,2.82-10.7,5.51-16.15,8.05-6.67,3.11-13.48,5.92-20.17,9.01-18.52,8.54-36.13,18.6-51.98,31.53-1.38,1.12-2.37,2.71-4.19,4.83,7.64.26,14.31.14,20.89.82,6.49.68,12.99,1.84,19.31,3.45,4.36,1.11,6.98,4.46,7.8,10.18-15.89-6.27-31.51-4.53-47.12-3.71-15.64.82-30.27,4.95-44.69,12.15-.77-1.05-1.94-2.64-3.41-4.64,5.51-4.05,10.65-9.23,16.87-12.12,17.67-8.22,31.91-21.77,48.92-30.74,12.71-6.71,26.54-11.29,39.82-16.93,10.59-4.49,21.16-9.04,31.64-13.78,3.5-1.58,6.69-3.84,10.02-5.8-.31-.82-.63-1.65-.94-2.47-2.24.48-4.55.74-6.71,1.46-19.5,6.55-38.9,13.43-58.51,19.63-5.15,1.63-10.94,1.22-16.43,1.74l-.02.14Z"/>
  </g>
</svg>