<?xml version="1.0" encoding="UTF-8"?>
<svg id="_레이어_2" data-name="레이어 2" xmlns="http://www.w3.org/2000/svg" viewBox="0 0 85.29 100">
  <defs>
    <style>
      .cls-1 {
        fill: #fff;
        stroke-width: 0px;
      }
    </style>
  </defs>
  <g id="_레이어_1-2" data-name="레이어 1">
    <g>
      <path class="cls-1" d="M.73,96.99c1.29-1.13,2.27-1.99,2.99-2.63-.2-1.87-.51-3.53-.54-5.2-.39-19.37-.12-38.79-1.41-58.1C1.29,23.76-.13,16.44,0,9.02c.02-1.03.11-2.06.18-3.31,1.83-.78,3.64-1.56,5.67-2.43.75,1.11,1.64,2,2.04,3.06,3.93,10.29,7.9,20.56,11.62,30.92,3.01,8.38,5.41,16.98,8.6,25.29,2.14,5.58,5.18,10.81,7.82,16.2,1.32,2.7,2.65,5.4,4.23,8.61,1.01-1.11,1.63-1.51,1.82-2.06,5.13-15.16,10.28-30.31,15.27-45.52,1.28-3.92,2.03-8.01,3.04-12.02.34-1.34.45-2.82,1.13-3.96,2.75-4.6,3.86-9.45,2.38-15.11,2.53.37,2.68,1.89,2.76,3.34.19,3.69,1.69,6.85,3.27,10.14,3.2,6.69,5.89,13.62,6.1,21.22.02.86-.05,1.92.4,2.53,4.75,6.33,3.67,13.94,4.79,21.06.94,5.94,1.93,11.87,2.82,17.82.49,3.24.74,6.52,1.24,9.76.44,2.85-.45,4.72-3.4,5.43-.4-.27-1.06-.46-1.22-.85-1.76-4.47-5.67-7.91-5.72-13.25-.07-7.24-.57-14.47-1.01-21.7-.7-11.37-2.15-22.63-5.45-33.57-.43-1.41-1.33-2.67-2.61-5.17-1.36,3.2-2.64,5.25-3.09,7.47-2.27,11.15-5.95,21.84-9.63,32.58-3,8.75-6.44,17.43-7.42,26.78-.19,1.84-.52,4.1-2.91,4.31-1.9.17-2.87-1.27-3.61-3.07-.7-1.71-2.2-3.08-3.11-4.73-1.98-3.58-3.99-7.17-5.66-10.89-2.32-5.17-4.36-10.47-6.49-15.74-3.15-7.8-6.44-15.56-9.34-23.45-2.46-6.67-4.45-13.51-6.68-20.27-.09-.26-.51-.41-1.28-.99-.09,1.3-.25,2.32-.22,3.35.7,22.29,1.45,44.58,2.09,66.87.05,1.9,1.04,4.21-1.34,5.65-.24.15-.38,1.09-.22,1.21,1.44,1.1,2.36,2.76.67,3.74-1.37.8-3.51.33-5.3.28-.36-.01-.7-.69-1.5-1.54ZM4.93,13.76c.42-.14.83-.27,1.25-.41-.38-.78-.75-1.56-1.13-2.34-.27.11-.54.21-.81.32.23.81.46,1.62.69,2.43Z"/>
      <path class="cls-1" d="M63.53.88v6.51c-5.06-.26-7.98,3.33-10.8,6.65-3.77,4.44-7.1,9.27-10.54,13.99-2.12,2.9-4.1,5.89-6.32,9.09-1.85-2.64-3.42-4.9-4.7-6.73,2.64-2.83,5.29-5.69,7.95-8.53,3.17-3.39,6.11-7.05,9.59-10.08,3.26-2.84,6.65-5.42,8.64-9.39,1.21-2.42,3.06-3.12,6.18-1.5Z"/>
    </g>
  </g>
</svg>