<?xml version="1.0" encoding="UTF-8"?>
<svg id="_레이어_2" data-name="레이어 2" xmlns="http://www.w3.org/2000/svg" viewBox="0 0 124.28 100">
  <defs>
    <style>
      .cls-1 {
        fill: #fff;
        stroke-width: 0px;
      }
    </style>
  </defs>
  <g id="_레이어_1-2" data-name="레이어 1">
    <path class="cls-1" d="M0,45.16C.48,29.94,7,17.73,18.38,8.14,25.99,1.73,35.08-.44,45.04.07c8.09.41,16.25-.39,24.32.22,6.26.48,12.89,1.24,18.52,3.76,12.07,5.4,23.56,12.59,29.71,24.74,3.66,7.22,5.13,15.77,6.38,23.91.8,5.2-.11,10.83-1.14,16.09-1.87,9.49-9.73,13.93-17.07,18.64-10.37,6.66-22.3,9.29-34,11.63-8.16,1.63-16.92.75-25.37.29-10.22-.57-19.44-4.48-26.98-11.38C10.76,80.06,2.98,71.28.79,59.21c-.83-4.58-.56-9.36-.79-14.05ZM57.19,90.91c4.61-14.25,5.07-29.05,5.4-43.85,3.56.2,3.51.2,3.48,3.63-.09,13.86-1.4,27.53-6.16,40.88,10.14-1.02,14.59-8.19,16.78-16.2,3.94-14.42,2.26-29.28,1.03-43.95-.2-2.4-2.85-5.46-5.16-6.58-2.29-1.11-3.44-1.93-3.53-4.41-.05-1.26-.51-2.52-.88-3.75-1.83-6.16-5.28-8.85-12.31-9.17-5.39-.24-5.9,4.35-7.33,7.94-.57,1.43-1.3,2.81-1.68,4.29-3.75,14.65-3.63,29.64-3.23,44.56.16,5.94,1.94,11.87,3.29,17.74.37,1.6,1.83,2.94,3.04,4.79.57-12.58,1.07-24.21,1.68-35.84.03-.64.93-1.8,1.32-1.76,1.49.16,3,.58,4.36,1.21.35.16.43,1.51.21,2.19-.77,2.42-2.24,4.72-2.51,7.17-.92,8.17-1.52,16.38-2.06,24.59-.18,2.73.08,5.56,4.26,6.51ZM73.95,23c.7-.03,1.41-.06,2.11-.08,0-4.61.11-9.22-.12-13.82-.03-.64-1.69-1.2-2.98-2.06.38,6.13.69,11.04,1,15.96Z"/>
  </g>
</svg>