<?xml version="1.0" encoding="UTF-8"?>
<svg id="_레이어_2" data-name="레이어 2" xmlns="http://www.w3.org/2000/svg" viewBox="0 0 96.13 100">
  <defs>
    <style>
      .cls-1 {
        fill: #fff;
        stroke-width: 0px;
      }
    </style>
  </defs>
  <g id="_레이어_1-2" data-name="레이어 1">
    <g>
      <path class="cls-1" d="M11.32,78.61v21.39H0c2.35-4.16,1.38-8.79,1.46-13.33.1-5.25.02-10.5.02-15.75,0-4.92.16-9.85-.05-14.77-.19-4.7,1-9.63-1.15-14.35,2.81-1.41,6.15-4.08,11.06-1.96v36.8c12.78,0,25.5.49,38.14-.29,3.9-.24,8.25-1.49,12.29-3.4,4.38-2.08,8-5.3,11.16-8.24,3.73-3.47,5.61-9.34,7.22-14.5.72-2.29,1.4-4.67,2.09-7.02.68-2.34.36-4.67,1.8-7.19,1.36-2.39,1.04-6.53-2.51-8.5-6.15-3.41-10.98-8.86-18.24-10.75-2.1-.55-4.19-1.14-6.33-1.21-4.26-.14-8.54-.25-12.79.02-3.37.21-6.7,1.01-10.74,1.66-.13-2.11-.28-4.53-.49-7.8,11.88,1.07,23.23-.75,34.84,1.85,11.73,2.62,19.2,11,28.35,17.29-.61,2.16-1.89,4.53-1.81,6.86.31,8.95-3.59,16.59-8.82,22.88-5.6,6.73-11.32,13.96-20.39,16.98-4.4,1.46-8.5,3.5-13.37,3.42-13.13-.2-26.26-.07-40.42-.07Z"/>
      <path class="cls-1" d="M12.99.06v36.79c-2.36-6.03-1.43-12.28-1.61-18.44-.17-6.13-.04-12.27-.04-18.41.55.02,1.1.04,1.64.06Z"/>
      <path class="cls-1" d="M18.54,29c-.41-.23-.84-.47-1.27-.7.22-.22.49-.65.65-.62.46.1.89.4,1.32.62-.22.22-.44.44-.7.7Z"/>
    </g>
  </g>
</svg>