<?xml version="1.0" encoding="UTF-8"?>
<svg id="_레이어_2" data-name="레이어 2" xmlns="http://www.w3.org/2000/svg" viewBox="0 0 94.68 100">
  <defs>
    <style>
      .cls-1 {
        fill: #fff;
        stroke-width: 0px;
      }
    </style>
  </defs>
  <g id="_레이어_1-2" data-name="레이어 1">
    <g>
      <path class="cls-1" d="M94.68,98.67c-.49.33-.62.49-.76.51-16.58,1.83-16.77,1.89-21.51-13.65-3.37-11.05-6.25-22.26-9.05-33.47-.31-1.23.92-3.54,2.11-4.32,7.81-5.12,12.36-16.87,9.87-24.07-2.09-6.03-7.03-7.56-12.02-7.71-14.89-.44-29.79-.16-45.23-.16v83.47H0V.04C10.28.04,20.18.02,30.07.04c10.95.03,21.91-.25,32.83.31,5,.26,10.15,1.62,14.84,3.49,20.09,8.03,20.97,39.91,7,49.05-3.43,2.25-1.64,5.08-.75,7.91,3.52,11.23,6.95,22.5,10.32,33.77.4,1.35.27,2.87.37,4.09Z"/>
      <path class="cls-1" d="M36.53,99.59v-42.28c-5.61-1.13-11.23-2.26-16.84-3.39,11.32-5.58,18.55-13.88,24.36-24.73h8.62v70.4h-16.14Z"/>
    </g>
  </g>
</svg>