<?xml version="1.0" encoding="UTF-8"?>
<svg id="_레이어_2" data-name="레이어 2" xmlns="http://www.w3.org/2000/svg" viewBox="0 0 91.27 100">
  <defs>
    <style>
      .cls-1 {
        fill: #fff;
        stroke-width: 0px;
      }
    </style>
  </defs>
  <g id="_레이어_1-2" data-name="레이어 1">
    <path class="cls-1" d="M35.85,100c-.4-.61-.96-1.09-1.02-1.63-1.36-12.07-9.5-19.66-17.82-27.17C6.46,61.68-.89,50.49.09,35.6,1.43,15.21,11.99,2.04,32.82.45c11.9-.91,23.33-.8,34.7,3.59,4.09,1.58,9.11.92,13.71.97,2.9.03,5.81-.51,9.09-.83.23,1.51.53,2.67.55,3.83.15,7.74.1,15.5.39,23.23.14,3.59-1.32,4.64-4.65,4.39-5.25-.38-10.56-.24-15.76-.93-1.56-.21-3.56-2.17-4.15-3.78-3.57-9.7-11.37-15.14-20.08-18.85-9.3-3.97-22.19,5.82-23.8,16.71-1.81,12.22,3.85,20.45,13.31,26.98,4.2,2.9,8.55,5.63,12.48,8.88,2.94,2.44,5.72,5.29,7.86,8.44,4.43,6.54,3.76,11.88-1.76,17.51-5.16,5.26-11.64,7.96-18.84,9.41Z"/>
  </g>
</svg>