<?xml version="1.0" encoding="UTF-8"?>
<svg id="_레이어_2" data-name="레이어 2" xmlns="http://www.w3.org/2000/svg" viewBox="0 0 127.3 100">
  <defs>
    <style>
      .cls-1 {
        fill: #fff;
        stroke-width: 0px;
      }
    </style>
  </defs>
  <g id="_레이어_1-2" data-name="레이어 1">
    <path class="cls-1" d="M0,13.33c.74-.82,1.38-1.76,2.24-2.43,2.33-1.84,4.53-4.03,7.17-5.24C19.06,1.21,29.33,0,39.9.35c7.48.24,14.98.04,22.47.04.78,0,1.57.05,2.35,0,1.91-.12,2.69.78,3.43,2.59,2.54,6.26,5.41,12.39,8.16,18.57.23-.02.46-.05.68-.07.55-1.46,1.31-2.88,1.61-4.4.69-3.46,2.46-6.38,4.78-8.82,5.66-5.95,12.37-9.35,20.96-7.94,3.68.61,7.28,1.23,10.65,2.92,3.35,1.69,6.06,3.91,8.26,7.08,3.73,5.38,4.35,11.3,3.97,17.48-.13,2.12-.65,4.19-1.69,6.13-.78,1.45-1.49,3.04-1.77,4.65-.81,4.58-3.9,8.11-5.49,12.32-.44,1.17-1.48,2.12-1.96,3.29-1.55,3.84-3.12,7.69-4.41,11.62-3.04,9.26-5.89,18.58-8.9,27.85-.64,1.96-1.64,3.81-2.65,6.11-4.23.09-8.7.26-13.17.22-.59,0-1.41-.93-1.71-1.61-2.05-4.68-4-9.4-5.95-14.12-1.97-4.76-3.8-9.59-5.86-14.31-3.33-7.61-6.79-15.15-10.2-22.72-1.89-4.2-3.75-8.4-5.68-12.58-1.65-3.56-3.25-7.15-5.11-10.6-2.24-4.16-4.21-8.66-7.88-11.73-6.56-5.48-14.14-7.7-22.73-5.9-4.39.92-8.35,2.57-11.45,5.86-3.27,3.47-5.41,7.59-5.58,12.37-.36,10.33-.68,20.68-.59,31.01.06,6.35.61,12.73,1.49,19.02.71,5.1,2.87,9.86,5.71,14.19,3.28,5.02,7.55,5.87,12.56,2.6,5.99-3.91,10.41-9.18,13.29-15.74,1.04-2.36,2.1-4.72,3.2-7.18,1.23.13,2.37.25,3.61.38-.66,1.79-1.28,3.47-1.91,5.16-1.13,3-2.18,6.04-3.46,8.98-.48,1.1-2.07,1.84-.93,2.86-.5,1.65-1.11,2.94-1.23,4.28-.13,1.39-.63,2.13-1.94,2.51-6.24,1.83-12.36,4.24-18.72,5.38-5.23.94-10.73.39-16.11.5,0-28.42,0-56.84,0-85.27ZM98.89,79.92c.28-.04.56-.09.85-.13.45-2.05.83-4.11,1.38-6.13.32-1.17,1.03-2.24,1.37-3.41,1.05-3.67,1.78-7.45,3.03-11.05,2.33-6.67,3.21-13.63,4.1-20.54.9-6.99.52-14.07-1-21.02-.68-3.1-1.97-5.89-4.46-8.02-2.05-1.75-6.4-2.53-8.66-1.29-3.04,1.67-5.49,4.05-6.79,7.28-1.79,4.43-3.3,8.97-5.01,13.71-.55.15-1.41.38-2.01.54,5.75,16.73,11.48,33.4,17.21,50.08Z"/>
  </g>
</svg>