<?xml version="1.0" encoding="UTF-8"?>
<svg id="_레이어_2" data-name="레이어 2" xmlns="http://www.w3.org/2000/svg" viewBox="0 0 209.72 100">
  <defs>
    <style>
      .cls-1 {
        fill: #fff;
        stroke-width: 0px;
      }
    </style>
  </defs>
  <g id="_레이어_1-2" data-name="레이어 1">
    <g>
      <path class="cls-1" d="M209.72,88.3c-6.9,2.16-12.93,3.24-17.66,8.03-1.99,2.02-5.81,2.91-8.86,3.07-7.97.41-16.17,1.2-23.93-.16-7.55-1.33-15.24-.05-22.4-1.73-6.72-1.58-14.32.39-20.25-4.78-4.76-4.15-9.89-7.87-14.7-11.96-1.15-.98-2.33-2.68-2.36-4.08-.17-7.7-2.28-15.68,1.77-22.95,3.01-5.4,4.79-11.76,10.26-15.43,7.5-5.04,13.87-11.48,21.38-16.52,4.09-2.74,6.85-7.3,11.49-9.57,5.7-2.79,11.32-5.76,17.09-8.38,1.42-.65,3.32-.3,5.01-.31,6.57-.03,13.14.03,19.7-.02,6.66-.06,13.4.85,20.25-2.25,1.9,6.47-1.54,11.18-3.83,16.09-.37.78-1.72,1.4-2.71,1.56-5.44.89-10.77,2.33-16.42,1.84-5.77-.51-11.13,1.55-16.68,2.95-5.29,1.34-8.82,4.09-12.92,8.21.78,5.1-1.29,10.87,1.66,16.52.82,1.57.69,4.15.03,5.9-3.43,9.06-.6,18.35-1.87,28.09h18.25c2.57,0,5.15-.14,7.71.04,2.66.19,5.67-1.15,7.82,1.59,1.84-2.73,4.64-1.37,7.04-1.6,5.83-.57,9.52,3.82,15.12,5.89Z"/>
      <path class="cls-1" d="M0,2.57C6.1-.72,12.55.09,18.89.08c21.69-.04,43.39-.02,65.08,0,.26,0,.52.11.78.17,2.83,2.83,5.65,5.66,8.48,8.48,2.84,2.83,4.45,6.07,4.26,10.25-.22,4.84-.09,9.7-.04,14.56.04,3.7-1.3,6.16-4.68,8.29-5.53,3.49-10.54,7.82-16.33,12.22,5.63,2.36,10.76,4.51,16.21,6.78-5.57,2.76-11.04,2.76-16.57,2.73-15.41-.09-30.83-.03-46.77-.03-2.38-2.91-4.98-6.08-8.43-10.29,6.71,0,12.32.03,17.93-.02,1.66-.01,3.44.1,4.95-.45,1.72-.63,3.19-1.94,4.79-2.91.06-.04.35.44.59.52,1.49.52,2.99,1,4.48,1.49-.28-4.07-.9-7.74-.68-11.37.22-3.51-.59-6.72-2.55-9.23-2.87-3.7-6.25-7.35-10.84-8.77-3.85-1.19-8.06-1.23-12.09-1.85-4.8-.74-9.07-2.67-13.34-5.03C8.32,12.4,2.79,9.17,0,2.57Z"/>
    </g>
  </g>
</svg>