<?xml version="1.0" encoding="UTF-8"?>
<svg id="_레이어_2" data-name="레이어 2" xmlns="http://www.w3.org/2000/svg" viewBox="0 0 118.48 100">
  <defs>
    <style>
      .cls-1 {
        fill: #fff;
        stroke-width: 0px;
      }
    </style>
  </defs>
  <g id="_레이어_1-2" data-name="레이어 1">
    <path class="cls-1" d="M0,.06h23.16c5.96,12.43,11.52,24.98,18.49,37.33.81-1.29,1.36-2.12,1.86-3,1-1.75,1.98-3.51,2.94-5.27,1.09-1.99-.49-3.44-1.19-4.98-1.61-3.57-3.39-7.05-5.19-10.52-1.8-3.47-3.71-6.89-5.57-10.33-.7-1.3-.85-3.08-2.87-3.23h30.09c.58.75,1.09,1.41,1.77,2.29-.46.64-1.05,1.46-1.69,2.36,6.02,12,12.09,24.09,18.37,36.6,2.94-5.84,5.64-11.21,8.35-16.57,3.22-6.39,6.44-12.78,9.65-19.17.75-1.5,1.39-3.05,2.17-4.53.23-.43.79-.97,1.2-.98C107.19-.02,112.83,0,118.48,0c-1.61,2.68-3.25,5.17-4.65,7.79-1.56,2.92-2.8,6.01-4.37,8.92-1.08,1.98-2.52,3.77-3.75,5.67-.39.6-.53,1.37-.94,1.95-2.78,3.97-5.42,8-7.47,12.44-1.2,2.59-3.05,4.88-4.55,7.34-1.68,2.75-3.31,5.53-4.92,8.32-.22.37-.22.9-.22,1.36-.08,7.9-.16,15.8-.2,23.7-.02,4.3,0,8.6.03,12.9,0,.52.14,1.03.28,1.98-8.85.19-17.65-.19-26.81-.2,0-3.94,0-7.77,0-11.59.02-7.7.06-15.4.03-23.09,0-.92-.33-1.92-.75-2.76-3.12-6.24-6.29-12.46-9.47-18.67-.59-1.15-1.29-2.25-2.09-3.65-1.45,2.84-2.78,5.46-4.14,8.07-.33.63-.84,1.16-1.17,1.79-1.66,3.16-3.24,6.37-4.95,9.51-.61,1.11-1.51,2.06-2.23,3.12-.2.29-.3.7-.3,1.06-.05,9.08-.06,18.15-.14,27.23-.04,4.95-.2,9.9-.32,14.84-.02.63-.09,1.26-.15,1.98h-5.05c0-2.01,0-4.07,0-6.14-.04-11.94-.09-23.89-.14-35.83,0-1.61-.42-2.83-2.33-3.01-.43-.04-.99-.46-1.18-.86-1.34-2.84-2.53-5.76-3.92-8.58-2.17-4.43-4.49-8.79-6.69-13.21-3.65-7.29-7.25-14.6-10.88-21.9C3.67,7.74,2.3,5.03.95,2.31.63,1.64.37.94,0,.06Z"/>
  </g>
</svg>