<?xml version="1.0" encoding="UTF-8"?>
<svg id="_레이어_2" data-name="레이어 2" xmlns="http://www.w3.org/2000/svg" viewBox="0 0 112.39 100">
  <defs>
    <style>
      .cls-1 {
        fill: #fff;
        stroke-width: 0px;
      }
    </style>
  </defs>
  <g id="_레이어_1-2" data-name="레이어 1">
    <path class="cls-1" d="M0,100c2.89-4.14,5.63-8.38,8.69-12.39,11.01-14.45,22.26-28.71,33.13-43.26,6.13-8.21,11.73-16.81,17.49-25.29,2.23-3.29,3.65-6.86,2.54-11.36-1.27-.43-2.66-1.06-4.11-1.36-8.41-1.7-16.68.09-24.74,1.89-6.04,1.35-10.16,6.23-13.94,11.1-1.39,1.79-3.44,3.05-5.5,4.27-3.89,9.61-2.65,20.15-4.01,30.57h-5c-.91-17.9.31-35.43,3.4-53.35,5.59,0,11.44-.02,17.29,0,24.9.12,49.8.3,74.71.32,4.05,0,8.09-.72,12.45-1.14v12.86c-4.89,5.8-9.44,10.85-13.61,16.2-11.47,14.67-22.73,29.49-34.17,44.18-5.86,7.52-11.95,14.84-17.88,22.3-1.09,1.37-1.88,2.97-2.81,4.46H0Z"/>
  </g>
</svg>