<?xml version="1.0" encoding="UTF-8"?>
<svg id="_레이어_2" data-name="레이어 2" xmlns="http://www.w3.org/2000/svg" viewBox="0 0 283.94 100">
  <defs>
    <style>
      .cls-1 {
        fill: #fff;
        stroke-width: 0px;
      }
    </style>
  </defs>
  <g id="_레이어_1-2" data-name="레이어 1">
    <path class="cls-1" d="M.19,100c-.08-1.46-.13-2.49-.19-3.67,5.78-1.69,11.42-3.4,17.09-4.98,2.57-.72,3.59-2.21,3.59-4.89,0-22.54.12-45.09.12-67.63,0-5.26-1.19-6.43-6.45-7.4-1.95-.36-3.88-.84-5.84-1.18-1.81-.32-3.64-.52-5.68-.8V2.8c1.46,0,2.99,0,4.51,0,36.33.15,72.65.47,108.98.37,18-.05,36-.8,54-1.34,20.14-.6,40.28-2.13,60.4-1.79,21.4.36,38.04,10.66,48.88,29.18,7.62,13.02,4.7,34.96-5.03,46.95-8.39,10.34-19.37,16.64-31.55,21.2-1.82.68-3.9.92-5.86.96-9.91.16-19.82.16-29.73.24-23.33.2-46.66.46-69.99.62-44.16.3-88.31.54-132.47.8-1.45,0-2.89,0-4.78,0ZM46.46,89.79h57.05V14.29c-17.14,0-33.83-.05-50.51.03-5.19.03-5.72.71-5.82,6.14-.26,13.9-.53,27.81-.69,41.71-.1,8.98-.02,17.97-.02,27.62ZM129.34,89.08c2.26.31,4.07.78,5.87.78,13.92-.02,27.84-.09,41.76-.24,6.08-.07,5.96,1.26,6.04-5.92.24-21.47.53-42.94.89-64.4.04-2.71.57-5.42.89-8.28-1.65.24-2.8.53-3.96.57-8.07.27-16.15.42-24.21.73-7.01.27-14.02.66-21.03,1.08-3.58.21-6.28,3.38-6.27,6.86.04,22.78.02,45.55.02,68.84ZM210.98,89.68c13.74,1.93,25.44-.8,34.42-11.45,9.01-10.68,13.76-22.87,10.73-36.89-2.27-10.5-6.65-20.22-16.23-26.3-8.95-5.69-19-2.41-28.93-3.61v78.26Z"/>
  </g>
</svg>