<?xml version="1.0" encoding="UTF-8"?>
<svg id="_레이어_2" data-name="레이어 2" xmlns="http://www.w3.org/2000/svg" viewBox="0 0 137.14 100">
  <defs>
    <style>
      .cls-1 {
        fill: #fff;
        stroke-width: 0px;
      }
    </style>
  </defs>
  <g id="_레이어_1-2" data-name="레이어 1">
    <g>
      <path class="cls-1" d="M136.73,91.26c-15.79.81-31.57,1.61-47.65,2.43.91-15.39,2.28-29.56,2.45-43.74.17-14.29-1.18-28.47-14.16-39.21,2.56-.66,4.3-1.72,5.69-1.37,11.25,2.85,21.96-1.64,32.95-2.16,5.18-.25,10.62-1.23,12.49,6.9-2.41,1.06-4.8,2.74-7.39,3.16-9.38,1.51-11.6,7.54-11.47,15.96.21,13.78.13,27.58-.22,41.36-.2,7.97,3.15,11.66,11.11,11.78,5.55.08,11.08.75,16.63,1.15-.14,1.25-.28,2.5-.42,3.76Z"/>
      <path class="cls-1" d="M51.76,0c-3.1,6.66-7.73,12.75-8.68,19.36-2.88,20.12-4.35,40.45-6.33,60.7-.66,6.79,1.75,9.66,9.28,9.41,7.69-.26,15.45,1.5,23.07,3.75-15.96-.65-31.92-3.77-47.88,6.78,2.3-27.44,4.48-53.44,6.75-80.5-5.98-.56-11.84-1.52-17.67-1.37-1.55.04-3.81,3.29-4.34,5.42-.95,3.86-.85,7.99-1.19,12l-3.52.02c-.41-7.49-.82-14.99-1.26-22.94C18.44,8.13,36.06,3.83,51.76,0Z"/>
      <path class="cls-1" d="M65.23,35.83c7.57,7.36,7.78,13.74,3.98,20.3-4.32,7.46-14.32,11.99-21.04,9.06-1.72-.75-3.47-6.32-2.51-7.52,6.04-7.56,12.85-14.5,19.57-21.83Z"/>
    </g>
  </g>
</svg>