<?xml version="1.0" encoding="UTF-8"?>
<svg id="_레이어_2" data-name="레이어 2" xmlns="http://www.w3.org/2000/svg" viewBox="0 0 13.47 100">
  <defs>
    <style>
      .cls-1 {
        fill: #fff;
        stroke-width: 0px;
      }
    </style>
  </defs>
  <g id="_레이어_1-2" data-name="레이어 1">
    <g>
      <path class="cls-1" d="M12.92,78.32v5.89c-3.8,0-7.41.07-11.01-.08-.53-.02-1.33-.99-1.45-1.62-.23-1.24-.07-2.55-.07-4.19h12.53Z"/>
      <path class="cls-1" d="M12.35,9.76v6.53h-6.56c-.02-.17-.04-.34-.05-.51,1.04-.13,2.09-.25,3.18-.38-.34-2.34-1.88-2.72-3.8-2.57-.72.05-1.45.07-2.17.09Q-.07,13.01.06,9.76h12.3Z"/>
      <path class="cls-1" d="M.8,53.7c-.06-1.24-.12-2.42-.19-3.77h12.3c.17,1.16.35,2.37.55,3.77H.8Z"/>
      <path class="cls-1" d="M12.48,59.83c.06.97.12,1.97.19,3.12-2.35,0-4.56,0-6.76,0-.51,0-1.03-.18-1.53-.11-2.89.39-3.13.18-2.92-3.01h11.01Z"/>
      <path class="cls-1" d="M13.25,35.43c-3.28.98-6.45-.5-9.36,1.64-.99-.92-2.25-2.11-3.42.52-.16-1.8-.32-3.59-.48-5.39.23-.14.45-.28.68-.42-.11,2.79,1.6,2.57,3.27,2.56,2.58-.02,5.16,0,7.73.14.54.03,1.05.62,1.58.95Z"/>
      <path class="cls-1" d="M12.02,0c-.08,1.07-.13,1.77-.19,2.59-3.87.02-7.62.22-10.94-1.78.03-.27.07-.54.1-.82h11.02Z"/>
      <path class="cls-1" d="M.77,99.25c4.06-.17,8.14-.83,12.19-.07,0,.27,0,.54-.01.82H.82c-.02-.25-.03-.5-.05-.75Z"/>
      <path class="cls-1" d="M12.34,58.37c-3.7-.33-7.02-.63-10.34-.92,3.26-1.72,9.65-1.19,10.34.92Z"/>
      <path class="cls-1" d="M12.81,73.16H1.13c0-.12-.02-.24-.02-.36,3.86-.23,7.73-.45,11.59-.68.04.34.08.69.11,1.03Z"/>
      <path class="cls-1" d="M2.58,17.46c1.42-.37,1.92.87,1.99,2.19.11,2.28,1.32,2.77,3.3,2.5.85-.12,1.73-.02,2.59.31-3.12.23-6.25.45-9.37.68-.03-.24-.06-.48-.09-.72.94-.13,1.87-.26,3.32-.46-.63-1.63-1.19-3.08-1.74-4.5Z"/>
      <path class="cls-1" d="M11.5,91.55H.93c0-.18,0-.36,0-.55h10.56c0,.18,0,.36,0,.55Z"/>
      <path class="cls-1" d="M12.47,45.19h-6.82c0-.16-.02-.31-.02-.47h6.86c0,.16,0,.31-.01.47Z"/>
    </g>
  </g>
</svg>