<?xml version="1.0" encoding="UTF-8"?>
<svg id="_레이어_2" data-name="레이어 2" xmlns="http://www.w3.org/2000/svg" viewBox="0 0 60.9 100">
  <defs>
    <style>
      .cls-1 {
        fill: #fff;
        stroke-width: 0px;
      }
    </style>
  </defs>
  <g id="_레이어_1-2" data-name="레이어 1">
    <path class="cls-1" d="M60.89,98.75H22.09c-.1,1.29-1.09,1.21-2.09,1.21-6.11,0-12.22-.02-18.33.05-1.23.01-1.83-.3-1.64-1.62.07-.47.04-.97,0-1.45-.07-.88.27-1.34,1.16-1.61,3.38-1,5.16-3.37,5.16-6.9.02-15.28.02-30.57.03-45.85,0-3.87-.02-7.74.01-11.61.05-5.32.21-10.64.22-15.97.01-3.59-1.2-5.26-4.62-6.31-1.35-.42-1.79-1-1.64-2.42.16-1.52.02-3.08-.09-4.61C.21.57.54.19,1.67.22c2.82.07,5.64.03,8.46,0C14.97.17,19.81.12,24.65,0c1.23-.03,1.76.26,1.65,1.61-.13,1.53-.05,3.08-.05,4.62,0,.84-.27,1.4-1.18,1.62-3.28.79-4.97,3.07-5.03,6.27-.1,4.78.14,9.56.25,14.78.88-.63,1.57-.98,2.07-1.5,3.51-3.7,6.99-7.43,10.46-11.18,2.6-2.81,5.01-5.81,7.76-8.46,5.39-5.2,11.93-6.84,19.24-5.54.32.06.56.6.83.91.02.03,0,.09.01.13.02,1.23.45,2.7-.08,3.61-.44.75-2.02.83-3.1,1.2-3.57,1.25-6.34,3.53-8.51,6.6-2.23,3.16-4.45,6.34-6.78,9.43-2.29,3.04-5.42,5.12-8.59,7.12-.59.37-1.18.73-2.05,1.27,1.16.5,2.04.92,2.96,1.27,8.99,3.42,15.68,9.5,20.17,17.89,2.94,5.49,4.67,11.41,4.07,17.74-.62,6.56-2.7,12.52-7.74,17.11-.28.25-.5.56-.92,1.06.86.28,1.49.58,2.15.7,2.55.46,5.1.89,7.66,1.27.69.1,1.02.29,1.02,1.04-.03,2.64-.01,5.28-.01,8.16ZM20.94,90.51c1.14-.12,2.07-.12,2.95-.32,3.95-.89,7.54-2.59,10.81-4.96,2.9-2.11,5.55-4.48,7.13-7.79,1.4-2.93,1.59-6.01,1.35-9.23-.37-4.92-2.01-9.28-5.21-12.95-4.08-4.68-9.58-6.26-15.57-6.58-1.15-.06-1.5.28-1.49,1.46.04,12.85.03,25.7.03,38.55,0,.52,0,1.04,0,1.82Z"/>
  </g>
</svg>