<?xml version="1.0" encoding="UTF-8"?>
<svg id="_레이어_2" data-name="레이어 2" xmlns="http://www.w3.org/2000/svg" viewBox="0 0 64.71 91.43">
  <defs>
    <style>
      .cls-1 {
        fill: #fff;
        stroke-width: 0px;
      }
    </style>
  </defs>
  <g id="_레이어_1-2" data-name="레이어 1">
    <path class="cls-1" d="M14.52,57.22v33.42c-.85.43-1.14.71-1.43.71-14.89-.01-12.15,1.89-12.34-11.74C.42,55.97.24,32.33,0,8.69c0-.82.1-1.65.22-3.4,4.39,0,8.85-.35,13.18.25,1.03.14,2.25,3.44,2.3,5.31.24,9.09.11,18.18.11,28.64,4.36-5.13,8.03-9.52,11.77-13.84,6.31-7.29,12.47-14.73,19.09-21.72,4.36-4.59,12.55-5.22,18.05-1.58-14.1,13.81-28.07,27.48-42.82,41.92,4.38,4.51,8.42,8.81,12.61,12.95,8.53,8.41,17.21,16.66,25.67,25.14,1.27,1.27,1.68,3.39,2.48,5.12-1.96.5-3.96,1.55-5.86,1.39-7.11-.59-11.96-5.45-16.88-9.89-6.8-6.13-13.38-12.5-20.08-18.74-1.31-1.22-2.69-2.35-4.04-3.53-.43.17-.86.33-1.29.5Z"/>
  </g>
</svg>