<?xml version="1.0" encoding="UTF-8"?>
<svg id="_레이어_2" data-name="레이어 2" xmlns="http://www.w3.org/2000/svg" viewBox="0 0 93.91 100">
  <defs>
    <style>
      .cls-1 {
        fill: #fff;
        stroke-width: 0px;
      }
    </style>
  </defs>
  <g id="_레이어_1-2" data-name="레이어 1">
    <path class="cls-1" d="M92.75,23.2c-.77-.7-1.56-1.37-2.3-2.09-3.19-3.11-6.99-5.16-11.26-6.32-2.82-.77-5.45-.54-7.78,1.59-5.53,5.06-11.1,10.07-16.72,15.03-4.12,3.63-8.33,7.14-12.54,10.67-.81.68-1.76,1.2-2.65,1.79.2.32.41.64.61.96,2.72,0,5.45.07,8.17-.02,1.92-.06,3.83-.4,5.76-.51,1.52-.09,2.6.45,3.42,1.97,3.1,5.75,6.38,11.41,9.79,17.45-.95-.5-1.9-.76-2.51-1.36-2.19-2.15-4.39-4.3-6.35-6.65-2.68-3.22-6.25-4.94-10.03-6.24-3.76-1.3-7.66-2.13-11.9-1.81-.15,3.23-.4,6.35-.41,9.48-.05,11.14-.02,22.29-.03,33.43,0,4.02.98,5.28,4.98,5.1,5.97-.27,11.98-.59,17.88-1.51,9.11-1.42,16.37-6.46,22.61-13,3.59-3.77,6.93-7.77,10.53-11.82.23.03.7.09.82.11.17-.6.32-1.15.47-1.69.21.08.42.16.63.23v31.03c-1.05,0-1.88,0-2.71,0-10.36.03-20.71-.04-31.07.1-16.63.22-33.26.59-49.88.87-3.34.06-6.68,0-10.04,0-.53-2.92-.19-3.48,2.65-4.34,4.96-1.49,6.58-3.51,7.1-8.63,1.79-17.51,1.8-35.07,1.49-52.64-.11-6.36,0-12.72-.26-19.07-.1-2.44-.8-4.88-1.45-7.27-.19-.68-1.04-1.38-1.75-1.69-1.95-.84-3.99-1.48-6.24-2.28.05-1.13.11-2.43.19-4.07h40.47c.2,1.09.35,1.9.55,3-1.21,0-2.2-.06-3.18.01-2.66.18-3.58,1.04-3.74,3.7-.13,2.06-.08,4.14-.09,6.21,0,7.93,0,15.86,0,23.79,0,.91,0,1.83,0,3.13,12.93-8.28,23.54-18.64,34.24-29.04-1.15-3.35-4.02-4.61-6.99-5.7-2.23-.82-4.5-1.51-6.84-2.28V.77h27.87c.71.85,1.22,1.45,2,2.37,1.73-3.2,4.37-2.75,7.12-2.36v22.23c-.21.06-.41.13-.62.19Z"/>
  </g>
</svg>