<?xml version="1.0" encoding="UTF-8"?>
<svg id="_레이어_2" data-name="레이어 2" xmlns="http://www.w3.org/2000/svg" viewBox="0 0 107.91 100">
  <defs>
    <style>
      .cls-1 {
        fill: #fff;
        stroke-width: 0px;
      }
    </style>
  </defs>
  <g id="_레이어_1-2" data-name="레이어 1">
    <path class="cls-1" d="M34.71,46.91c1.2-.53,2.18-.9,3.11-1.38,7.2-3.68,12.88-9.19,18.19-15.13,6.2-6.94,12.37-13.9,18.52-20.88,2.12-2.41,2.24-3.2,1.23-5.54-.64-.2-1.35-.43-2.06-.65l-.25-.51c.51-.32,1-.86,1.54-.92,4.25-.44,8.5-.89,12.76-1.13,6.04-.34,12.1-.51,18.15-.74.63-.02,1.26,0,2.01,0v2.06c-7.01,1.54-11.84,6.53-17.16,10.71-7.97,6.25-15.87,12.59-23.77,18.94-1.35,1.09-2.54,2.39-3.94,3.73.58,1.2,1.17,2.29,1.66,3.42,2.69,6.14,5.19,12.38,8.07,18.43,4.95,10.4,10.13,20.69,15.24,31.02,2.65,5.36,7,8.24,12.97,8.65.56.04,1.11.08,1.94.14-.11.97-.21,1.79-.31,2.6-3.73,0-7.23.06-10.73-.01-6.56-.13-13.12-.41-19.69-.47-1.64-.01-2.56-.52-3.28-1.94-3.9-7.65-7.93-15.25-11.77-22.93-1.24-2.47-1.88-5.24-3.09-7.73-1.27-2.63-1.53-5.39-1.84-8.2-.37-3.28-1.96-4.37-5.18-4-2.21.25-4.44.34-6.66.53-1.19.1-2.37.23-3.73.37,0,2.86-.11,5.51.02,8.14.24,4.84.73,9.66.93,14.49.14,3.34.13,6.7-.12,10.04-.13,1.67-.9,3.24-1.98,4.71-.58.78-.18,2.32-.15,3.51.03,1.23.15,2.47.22,3.7-.2.03-.39.06-.59.1-.27-1.1-.33-2.29-.83-3.27-2.7-5.34-3.22-11.29-4.94-16.9-1.78-5.83-3.58-11.65-5.33-17.48-1.02-3.39-1.92-6.82-2.94-10.21-1.35-4.48-2.87-8.91-4.16-13.4-2.14-7.44-4.12-14.92-6.22-22.37-.65-2.29-1.06-4.78-2.28-6.75C6.6,6.87,4.04,4.93.38,4.78c-.12-.77-.23-1.49-.38-2.47.85-.09,1.57-.22,2.29-.22,6.31.02,12.62.12,18.93.08,1.84,0,2.67.41,2.87,2.5.21,2.1,1.31,4.1,1.84,6.19.91,3.58,1.64,7.2,2.53,10.78,1.39,5.54,2.89,11.05,4.28,16.58.7,2.76,1.26,5.56,1.96,8.67Z"/>
  </g>
</svg>