<?xml version="1.0" encoding="UTF-8"?>
<svg id="_레이어_2" data-name="레이어 2" xmlns="http://www.w3.org/2000/svg" viewBox="0 0 80.14 100">
  <defs>
    <style>
      .cls-1 {
        fill: #fff;
        stroke-width: 0px;
      }
    </style>
  </defs>
  <g id="_레이어_1-2" data-name="레이어 1">
    <path class="cls-1" d="M77.48.05c-4.66,6.91-8.68,12.98-12.81,18.98-3.67,5.34-7.46,10.59-11.17,15.89-2.76,3.95-3.32,7.97-.87,12.42,8.41,15.31,16.71,30.69,24.98,46.08.94,1.74,1.44,3.71,2.52,6.56-7.51,0-14.17.08-20.82-.1-.82-.02-1.88-1.3-2.35-2.23-6.95-13.79-13.81-27.62-20.7-41.43-.18-.36-.49-.65-.95-1.25-13.55,11.9-17.93,26.78-14.97,44.46-6.88,0-12.98.05-19.09-.09-.46-.01-1.28-1.37-1.26-2.08C.79,64.97,1.66,32.69,2.53.12h17.26v45.23c3.75-1.05,5.96-3.68,7.74-6.28,8.44-12.26,16.53-24.77,25.06-36.97.97-1.39,3.88-1.87,5.93-1.96,6-.25,12.01-.09,18.96-.09Z"/>
  </g>
</svg>