<?xml version="1.0" encoding="UTF-8"?>
<svg id="_레이어_2" data-name="레이어 2" xmlns="http://www.w3.org/2000/svg" viewBox="0 0 78.52 100">
  <defs>
    <style>
      .cls-1 {
        fill: #fff;
        stroke-width: 0px;
      }
    </style>
  </defs>
  <g id="_레이어_1-2" data-name="레이어 1">
    <path class="cls-1" d="M74.44,3.34c-7.88,8.22-14.49,15.46-21.49,22.32-6.89,6.76-14.16,13.14-21.4,19.82,16.52,17.9,31.75,34.39,46.97,50.89-.3.58-.6,1.17-.89,1.75-6.55,0-13.1.15-19.63-.14-1.18-.05-2.38-1.83-3.41-2.96-11.14-12.32-22.25-24.67-33.38-36.99-.36-.4-.96-.59-2.84-1.71-2.01,14.84-.15,29.07-1.21,43.69H0V0h17.39v37.54c.52.19,1.04.37,1.56.56,1.78-1.7,3.58-3.38,5.34-5.11,8.62-8.44,17.64-16.52,25.73-25.44,6.94-7.66,14.7-5.07,24.44-4.21Z"/>
  </g>
</svg>