<?xml version="1.0" encoding="UTF-8"?>
<svg id="_레이어_2" data-name="레이어 2" xmlns="http://www.w3.org/2000/svg" viewBox="0 0 80.24 100">
  <defs>
    <style>
      .cls-1 {
        fill: #fff;
        stroke-width: 0px;
      }
    </style>
  </defs>
  <g id="_레이어_1-2" data-name="레이어 1">
    <path class="cls-1" d="M77.66,3.49c-12.67,14.83-24.24,28.38-35.72,41.82,12.92,17.74,25.61,35.15,38.29,52.57-.35.47-.71.95-1.06,1.42-5.85,0-11.72.32-17.52-.2-1.66-.15-3.38-2.57-4.6-4.28-8.09-11.29-16.05-22.68-24.06-34.03-1.05-1.48-2.16-2.93-3.35-4.54-3.85,3.08-7.6,5.73-10.87,8.88-1.07,1.03-1.21,3.35-1.23,5.09-.11,9.78-.05,19.56-.05,29.79H.36c0-4.72.01-9.3,0-13.88C.27,59.41.29,32.7,0,6-.05,1.37,1.26-.39,5.93.07c3.46.34,6.98.07,11.28.07v45.03c.62.36,1.24.72,1.86,1.09,1.68-2.09,3.26-4.28,5.07-6.26,9.39-10.26,19.04-20.29,28.18-30.77,4.1-4.71,8.26-7.65,14.76-6.35,2.8.56,5.74.36,10.59.61Z"/>
  </g>
</svg>