<?xml version="1.0" encoding="UTF-8"?>
<svg id="_레이어_2" data-name="레이어 2" xmlns="http://www.w3.org/2000/svg" viewBox="0 0 78.87 100">
  <defs>
    <style>
      .cls-1 {
        fill: #fff;
        stroke-width: 0px;
      }
    </style>
  </defs>
  <g id="_레이어_1-2" data-name="레이어 1">
    <g>
      <path class="cls-1" d="M66.46,13.88c-2.34,3.11-4.45,6.44-7.09,9.28-3.12,3.36-4.1,7.14-3.59,11.43-5.19,2.9-9.17,6.88-12.35,11.7-2.38,3.61-4.9,7.13-7.05,10.87-.6,1.04-.57,2.95-.01,4.05,2.91,5.77,5.83,11.5,10.11,16.51,4.95,5.81,7.8,12.92,11.21,20.28h-12.69c-3.77-4.97-8.09-10.57-12.29-16.26-1.85-2.51-3.4-5.24-5.23-7.77-1.59-2.2-3.38-2.37-5.74-.77-1.16.78-2.27,1.62-4.71,3.37,1.33-5.27,2.21-9.03,4.47-12.33,3.61-5.27,6.89-10.78,11.85-15.02,1.28-1.1.87-4.26,3.95-3.11v3.07c-2.3.13-1.3,1.91-2.43,4.97.31.79.88.48.85.25-.1-.73-.43-1.44-.66-2.15-.26.93-.53,1.85-.18,1.9,3.19-2.03,2.2-3.81,2.43-4.97,2.21-1.46,4.88-2.64,4.27-6.16-1.13.64-1.93,1.1-2.73,1.56-.25-2.38.65-4,3.07-4.61.63.51,1.66,1.57,1.82,1.45,2.08-1.53,4.82-2.68,4.32-6.06,4.42.57,3.2-4.48,5.87-5.66-4.57-.73-4,3.68-5.87,5.66-2.04,1.53-4.09,3.07-6.13,4.6.17-.94.01-2.2.57-2.77,4.24-4.36,7.84-9.11,10.2-14.76.18-.43.65-.74.96-1.12,1.35-1.64,9.95-6.64,12.84-7.46ZM54.17,26.85v-.68c-.4.14-.84.22-1.16.46-.1.07.16.61.25.93.3-.24.61-.47,1.8-2.8-.3.24-.59.48-.89.73.23.23.46.46.68.68.24-.3.5-.59.68-.92.03-.06-.3-.31-1.37,1.61ZM57.02,22.54c-.18-.32-.36-.65-.55-.99-.17.17-.51.38-.48.5.08.36.31.69.48,1.03.17-.17.34-.34.55-.55Z"/>
      <path class="cls-1" d="M.43.24h4.36c.09.88.24,1.59.24,2.31.01,30.36,0,60.71.01,91.07,0,2.76.39,5.71-4.25,6.38-.74-4.16-.24-8.37-.34-12.51-.09-4.08-.02-8.16-.02-12.24v-25.26c0-4.34.44-8.73-.13-12.99-.51-3.74,2.06-6.93.44-11.11-1.46-3.77-.31-8.55-.31-12.89V.24Z"/>
      <path class="cls-1" d="M38.82,21.56c-.35,1.12-.36,2.57-1.1,3.29-5.39,5.29-8.65,12.02-12.88,18.1-2.51,3.6-3.01,8.66-7.51,10.85-.56-2.46,1.36-4.05,2.22-5.96,2.14-4.73,5.07-9.14,6.73-14.01.5-1.47,5.78-.79,1.9-3.94.99-1.63,2.16-3.18,2.92-4.91.84-1.94.99-4.22,2.01-6.04,1.3-2.31,3.02-4.43,4.81-6.41,2.49-2.75,5.22-5.28,8.83-8.9-3.81-.39-5.89-.6-9.14-.93C47.68-1.52,57.03.61,66.16.06c3.76,2.59,8.18.99,12.71,1.87-.29,1.5-.34,2.94-.87,4.17-.69,1.58-2.24,1.88-3.86,1.64-.12-1.35.58-3.61-1.9-2.98-2.92.74-6.02,1.06-8.51,3.27-1.06.94-2.89,1.03-5.33,1.82.95-1.74,1.32-2.42,2.18-4-6.08,2.18-11.21,4.15-14.1,9.68-.98,1.87-2.81,3.56-.32,6.06-1.93-.52-3.86-1.03-5.79-1.55.51-1.54,1.02-3.07,1.24-4.8,2-.7,4.06-1.37,2.78-4.92-1.25,1.93-2.16,3.33-2.78,4.92-4.91,1.66-5.83,2.97-5.13,7.68.75-.43,1.55-.89,2.35-1.35ZM56.95,4.64q-7.53.13-8.58,4.19c2.41-1.18,4.84-2.36,7.34-5.31,0,.23.02.46.03.69h6c0-.23-.02-.46-.02-.69-2,0-4,0-4.77,1.12Z"/>
      <path class="cls-1" d="M72.6,9.27c-.13,2.3-1.91,1.3-3.07,1.54.13-2.3,1.91-1.3,3.07-1.54Z"/>
      <path class="cls-1" d="M15.79,56.87c.23-1.16-.76-2.94,1.54-3.07-.23,1.16.76,2.94-1.54,3.07Z"/>
      <path class="cls-1" d="M14.01,60.59c.53-1.87.79-2.79,1.06-3.72.24.71.56,1.42.66,2.15.03.22-.55.52-1.72,1.57Z"/>
      <path class="cls-1" d="M37.28,46.12c.51-.51,1.02-1.02,1.54-1.54-.51.51-1.02,1.02-1.54,1.54Z"/>
      <path class="cls-1" d="M40.35,20.02c-.51.51-1.02,1.02-1.54,1.54.51-.51,1.02-1.02,1.54-1.54Z"/>
      <path class="cls-1" d="M67.99,12.34c-.51.51-1.02,1.02-1.54,1.54.51-.51,1.02-1.02,1.54-1.54Z"/>
      <path class="cls-1" d="M69.53,10.81c-.51.51-1.02,1.02-1.54,1.54.51-.51,1.02-1.02,1.54-1.54Z"/>
      <path class="cls-1" d="M72.6,9.27c.51-.51,1.02-1.02,1.54-1.54-.51.51-1.02,1.02-1.54,1.54Z"/>
    </g>
  </g>
</svg>