<?xml version="1.0" encoding="UTF-8"?>
<svg id="_레이어_2" data-name="레이어 2" xmlns="http://www.w3.org/2000/svg" viewBox="0 0 78.34 100">
  <defs>
    <style>
      .cls-1 {
        fill: #fff;
        stroke-width: 0px;
      }
    </style>
  </defs>
  <g id="_레이어_1-2" data-name="레이어 1">
    <g>
      <path class="cls-1" d="M30.77,55.22c.17-3.95-.83-8,1.85-11.53.45.39.89.78,1.95,1.71-.33-1.62-.54-2.62-.79-3.84,2.52-1.66,1.82-5.76,4.63-7.8.74-.54.91-1.79,1.57-2.5,6.6-7.09,13.27-14.1,19.85-21.2,2.68-2.89,6.02-4.8,9.35-6.77,2.71-1.61,5.5-2.56,9.15-1.39-1.37,1.25-2.37,2.6-3.71,3.31-3.31,1.75-4.97,3.92-5.74,7.98-1.09,5.74-5.46,9.72-11.32,11.17-2.7.67-4.82,1.86-6.81,3.7-1.79,1.66-3.99,2.89-5.74,4.58-4.67,4.51-5.22,7.2-2.09,12.23,2.23,3.58,4.64,7.04,7.04,10.51,6.16,8.9,11.24,18.51,17.77,27.17,1.55,2.06,2.37,4.79,4.18,6.51,2.75,2.6,4.12,5.97,6.09,9.01-2.11,3.2-5.42,1.26-8.06,1.91-2.64-2.48-4.38-5.33-6.19-8.36-4.03-6.76-9.22-12.81-13.78-19.27-3.12-4.42-5.95-9.04-8.98-13.53-1.9-2.81-3.92-5.54-6.06-8.56-1.22,1.45-2.68,3.18-4.16,4.94Z"/>
      <path class="cls-1" d="M2.03,0c3.45,1.07,5.81,2.9,5.74,6.96-.07,4.46.64,9.04-.14,13.36-2.3,12.77-.78,25.59-1.05,38.38-.12,5.54,1.59,11.02,1.23,16.68-.33,5.2-.12,5.22-5.97,5.18-1.06-2.19-1.95-4.31-1.83-6.92.24-5.51,0-11.05.11-16.57.03-1.88,1.38-4.47.56-5.49-2-2.52,1.69-3.49.83-5.72-.71-1.85-.15-4.19-.15-6.32V7.67c0-2.12-.02-4.25.02-6.37,0-.35.34-.7.64-1.3Z"/>
      <path class="cls-1" d="M19.34,77.26c-.46-8.77,5.43-13.68,9.66-19.42-.62,7.5-3.21,14.04-9.66,19.42Z"/>
      <path class="cls-1" d="M30.78,55.72c-.25.2-.51.39-.76.59-.08-.27-.29-.71-.21-.77.27-.2.64-.27.97-.39v.57Z"/>
    </g>
  </g>
</svg>