<?xml version="1.0" encoding="UTF-8"?>
<svg id="_레이어_2" data-name="레이어 2" xmlns="http://www.w3.org/2000/svg" viewBox="0 0 64.6 100">
  <defs>
    <style>
      .cls-1 {
        fill: #fff;
        stroke-width: 0px;
      }
    </style>
  </defs>
  <g id="_레이어_1-2" data-name="레이어 1">
    <g>
      <path class="cls-1" d="M32.96,80.48c-.78.46-1.57.92-2.35,1.37q-1.53-3.15-5.43-1.24c.65-2.69,1.17-4.83,2.1-8.71-2.56,3.25-4.78,5.03-5.55,7.3-1.39,4.1-4.14,4.85-7.5,4.24-2.01,4.12-3.83,7.84-5.73,11.73-1.25-.61-2.59-1.27-4.02-1.97.9-4.63,4.47-7.3,7.85-10.8-1.64-.24-2.95-.44-4.79-.71v-25.06c0-3.98-.19-7.97.06-11.93.22-3.54,1.11-7.04,1.39-10.58.25-3.21.71-6.65-.13-9.64-.86-3.05-1.41-5.99-1.28-9.04C-.06,11.32-1.98,5.84,2.08,0c1.57,1.27,4.98.82,4.04,4.47-.11.45.69,1.18,1.14,1.72,2.32,2.75,4.66,5.49,7.12,8.37,1.48-2.22.51-5.86,3.63-7.32-.5,3.53-.42,7.27-1.61,10.55-2.97,8.2-2.75,17.06-5.76,25.25-1.18,3.21.17,14.02,1.46,17.25.34.85,1.35,1.43,2.06,2.14,5.03-3.85,7.98-9.3,11.42-14.44,2.28-3.41,5.29-6.36,8.22-9.27.59-.59,2.26-.08,3.7-.08-.1,3.9-3.22,6.11-3.29,9.65-.04,1.76-2.27.6-3.33-.53-2.24,2.17-4.82,3.85-6.99,6.25-2.2,2.44-.27,5.24-2.31,7.43-1.66,1.79-2.44,4.41-3.52,6.71-.16.35.13.91.38,2.34.88-1.62,1.36-2.63,1.96-3.55.64-.99,1.4-1.91,2.11-2.86.38-.51.85-1.49,1.15-1.44,3.41.52,4.66-2.35,6.55-4.1,2.92-2.71,5.6-5.67,8.5-8.41,3.7-3.49,6.64-7.48,9.32-11.82,2.38-3.86,5.68-7.15,8.66-10.62.54-.63,1.54-.86,3.65-1.97-2.9,5.83-5.81,9.9-9.33,13.52-2.56,2.64-4.71,5.29-4.66,9.32.04,3.11-2.97,4.52-4.97,6-1.32.98-2.13,1.93-3,3.23-2.01,2.99-4.31,5.78-6.69,8.91,7.38.74,14.96.4,22.49.14,1.69-.06,4.64-1.12,4.88-5.67.95,6.25,1.67,11.02,2.39,15.75-9.11,2.4-17.66-1.56-26.35-.86-.74,1.53-1.44,2.98-2.13,4.44Z"/>
      <path class="cls-1" d="M29.83,99.91c2.06-3.98,5.86-4.02,8.57-4.27,7.03-.65,14.15-.22,21.33-.22v2.56c-5.04.65-9.94,1.53-14.87,1.85-4.85.32-9.74.07-15.03.07Z"/>
      <path class="cls-1" d="M32.96,80.81c10.32,0,20.65,0,30.98.02.1,0,.2.33.67,1.15-10.82-.03-21.25.04-31.64-1.17Z"/>
      <path class="cls-1" d="M19.76,3.54c-.54,1.9-.8,2.8-1.05,3.7-.23-.7-.55-1.38-.65-2.09-.03-.22.52-.52,1.7-1.6Z"/>
    </g>
  </g>
</svg>