<?xml version="1.0" encoding="UTF-8"?>
<svg id="_레이어_2" data-name="레이어 2" xmlns="http://www.w3.org/2000/svg" viewBox="0 0 79.92 100">
  <defs>
    <style>
      .cls-1 {
        fill: #fff;
        stroke-width: 0px;
      }
    </style>
  </defs>
  <g id="_레이어_1-2" data-name="레이어 1">
    <g>
      <path class="cls-1" d="M13.9,54.46c1.76-1.93,2.77-3.04,3.77-4.15,6.35-6.99,13.4-13.49,18.87-21.12,6.18-8.61,14.26-15.21,21.32-22.86,2.7-2.93,5.7-3.92,11.12-4.46-4.63,5.64-9.07,10.91-13.35,16.3-4.39,5.53-8.56,11.24-12.97,16.75-4.44,5.54-9.06,10.94-13.71,16.53,7.15,4.64,13.74,10.17,18.26,17.92,1.25,2.14,3.65,3.59,5.34,5.52,2.64,3.02,5.34,5.94,7.77,9.2,4.56,6.1,10.27,11.63,19.6,12.88-4.19,1.11-6.37,3.85-10.33,2.8-9.76-2.59-9.76-2.39-13.36-5.78-6.18-5.81-11.43-12.62-18.87-17.13-2.01-1.22-3.3-3.68-4.86-5.62-.95-1.19-1.66-3.39-2.71-3.54-6.03-.88-4.85-5.5-5.07-9.49-3.24-1.12-6.33-2.18-10.81-3.73Z"/>
      <path class="cls-1" d="M0,0h9.34v9.45c0,27.26.01,54.53,0,81.79,0,8.69-.1,8.74-9.33,8.51V0Z"/>
    </g>
  </g>
</svg>