<?xml version="1.0" encoding="UTF-8"?>
<svg id="_레이어_2" data-name="레이어 2" xmlns="http://www.w3.org/2000/svg" viewBox="0 0 73.06 98.12">
  <defs>
    <style>
      .cls-1 {
        fill: #fff;
        stroke-width: 0px;
      }
    </style>
  </defs>
  <g id="_레이어_1-2" data-name="레이어 1">
    <path class="cls-1" d="M66.98,91.38c-6.62,3.08-14.41,1.9-18.94-1.74-10.87-8.73-21.94-17.19-33.64-26.31,0,5.4-.05,10.44.02,15.48.04,3-.06,6.05.51,8.97.65,3.34,1.98,6.56,3.17,10.34H0c.24-8.74.66-17.93.72-27.12.14-22.32.11-44.64.14-66.96,0-1.14,0-2.29,0-3.91C5.26.13,9.41-.29,13.38.38c1.23.21,2.76,3.33,2.81,5.14.3,12.48.24,24.98.31,37.47,0,.98.14,1.95.29,4.05,1.88-1.65,3.22-2.7,4.41-3.89,10.55-10.64,21.2-21.19,31.56-32.02,5.34-5.58,11.32-8.74,20.31-7.22-1.56,2.47-2.73,5.06-4.54,7.05-12.11,13.29-24.36,26.44-36.55,39.65-1.34,1.45-2.57,3.01-4.19,4.91,12.25,12.78,28.53,20.97,39.2,35.87Z"/>
  </g>
</svg>