<?xml version="1.0" encoding="UTF-8"?>
<svg id="_레이어_2" data-name="레이어 2" xmlns="http://www.w3.org/2000/svg" viewBox="0 0 59.86 100">
  <defs>
    <style>
      .cls-1 {
        fill: #fff;
        stroke-width: 0px;
      }
    </style>
  </defs>
  <g id="_레이어_1-2" data-name="레이어 1">
    <path class="cls-1" d="M8,58.71c-1.34,14.44-1.34,27.7-1.34,40.94-5.4.14-6.58-.5-6.42-4.31.2-4.96.22-9.87,1.14-14.91.98-5.38,2.35-11.73-1.21-17.2.81-6.33-1.53-12.82,1.19-19.1.7-1.61.42-3.67.43-5.53.03-11.4.02-22.8.02-34.14,1.92-1.01,3.26-1.19,3.26,1.41,0,10.88,0,21.77,0,32.65v10.2c3.89-3.89,7-7,10.1-10.1,3.08-3.08,6.98-5.7,9.02-9.36,2.33-4.17,5.87-6.86,8.94-10.1,2.86-3.02,7.38-4.92,9.22-8.35,2.16-4.04,7.06-5.6,7.49-10.79,5.37,5.05,5.4,6.49,1.19,10.93-4.58,4.83-10.01,8.89-13.31,14.88-.38.68-1.29,1.1-1.59,1.79-1.09,2.54-1.56,5.48-3.14,7.64-1.46,1.99-4.31,2.91-6.05,4.77-3.05,3.26-5.73,6.88-8.61,10.42,5.08,6.91,9.23,14.79,17.39,19.42,2.39,1.35,5.74,3.36,5.37,7.48-.07.79.98,1.78,1.68,2.51,5.53,5.79,11.11,11.53,17.09,17.73-2.08,1.14-3.44,2.51-4.71,2.43-1.92-.13-5.21-.99-5.4-2.02-.68-3.64-4.1-3.69-5.89-5.66-3.38-3.71-7.39-6.73-10.05-11.29-2.05-3.52-6.01-5.77-9.4-8.35-5.04-3.85-8.87-9.22-14.45-12.53-.73-.44-1.53-.77-1.96-1.44,3.78-.34,5.97-1.04,4.61-4.82-1.33,2.05-2.3,3.54-4.61,4.82Z"/>
  </g>
</svg>