<?xml version="1.0" encoding="UTF-8"?>
<svg id="_레이어_2" data-name="레이어 2" xmlns="http://www.w3.org/2000/svg" viewBox="0 0 83.41 100">
  <defs>
    <style>
      .cls-1 {
        fill: #fff;
        stroke-width: 0px;
      }
    </style>
  </defs>
  <g id="_레이어_1-2" data-name="레이어 1">
    <path class="cls-1" d="M0,96.27V6.8C4.16,4.61,7.67,1.06,13.14,1.43c1.07,12.96-1.43,25.83,2.6,38.88C32.72,28.63,47.48,14.45,61.26,0h14.21c-9.83,6.11-16.16,14.24-23.49,21.3-7.32,7.05-14.4,14.34-21.88,21.82,2.24,2.65,4.36,5.46,6.79,7.96,5.7,5.88,11.62,11.54,17.31,17.43,2.64,2.73,5.51,5.14,7.4,8.76,2.21,4.22,8.63,8.05,16.8,12.25.71.37,1.44.96,1.84,1.64,1.06,1.79,1.94,3.69,3.18,6.09-7.39.95-14.29,1.84-21.38,2.76-7.25-7.25-14.56-14.25-21.51-21.6-6.65-7.03-12.92-14.41-19.06-21.31-3.92.7-4.74,2.62-4.72,5.51.1,11.55.04,23.11.04,35.28-2.7-.57-5.14-1.32-7.63-1.56-2.8-.26-5.64-.06-9.15-.06Z"/>
  </g>
</svg>