<?xml version="1.0" encoding="UTF-8"?>
<svg id="_레이어_2" data-name="레이어 2" xmlns="http://www.w3.org/2000/svg" viewBox="0 0 64.62 100">
  <defs>
    <style>
      .cls-1 {
        fill: #fff;
        stroke-width: 0px;
      }
    </style>
  </defs>
  <g id="_레이어_1-2" data-name="레이어 1">
    <path class="cls-1" d="M5.29,0h10.18v41.61c3.87-.9,7.33-1.57,10.72-2.53,6.99-1.97,12.78-5.51,15.32-12.82.32-.93.43-1.97.46-2.97.06-2.53.02-5.06.02-7.61,1.04-1.03,2.09-2.07,3.17-3.14h5.23c.74.79,1.59,1.72,2.47,2.62,5.56,5.63,6.08,12.1,1.48,18.55-3.84,5.39-6.25,7.11-12.52,9.23-.91.31-1.62,1.18-2.4,1.78,1.09,2.83,2.08,5.58,3.2,8.29,2.72,6.62,6.47,12.53,12.06,17.14.16.13.33.27.44.45,1.4,2.19,4.85,1.37,5.92,4.29.86,2.36,2.36,4.48,3.58,6.71-3.95,2.2-5.82-1.2-8.18-3.34-5.91.81-9.72-1.95-11.9-7.19-1.56-3.74-3.58-7.03-6.38-10.07-2.2-2.39-3.67-5.59-4.96-8.64-1.75-4.12-4.74-5.74-8.98-5.68-2.31.03-4.63,0-6.9,0-2.72,2.4-3.26,5.43-3.22,8.86.12,12.23-.02,24.46.11,36.69.02,2.37-.76,4.34-1.88,6.19-1.11,1.84-3.21,2.09-4.69.52-2.37-2.53-4.66-5.17-6.7-7.97-1.7-2.33-.99-9.71,1.43-11.27,2.9-1.87,2.92-4.34,2.92-7.09,0-24.04,0-48.08,0-72.63Z"/>
  </g>
</svg>