<?xml version="1.0" encoding="UTF-8"?>
<svg id="_레이어_2" data-name="레이어 2" xmlns="http://www.w3.org/2000/svg" viewBox="0 0 69.25 100">
  <defs>
    <style>
      .cls-1 {
        fill: #fff;
        stroke-width: 0px;
      }
    </style>
  </defs>
  <g id="_레이어_1-2" data-name="레이어 1">
    <path class="cls-1" d="M13.21,51.32c2.57-3.35,4.98-6.43,7.31-9.57.31-.42.1-1.25.43-1.61,1.16-1.27.15-4.16,3.34-4.08.94.02,2.09-1.66,2.86-2.76,3.54-5.12,8-9.51,11.32-14.81,1.47-2.34,3.67-4.21,5.38-6.42,2.45-3.19,5.09-6.23,7.14-9.73.88-1.5,2.62-2.25,4.46-2.27,3.33-.04,6.66-.01,9.99-.01.45,0,.97-.14,1.35.03.76.35,1.45.87,2.46,1.51-11.11,11.91-20.94,24.91-30.93,37.71,3.03,6.89,7.7,12.76,10.38,19.75,2.6,6.78,5.94,13.27,8.89,19.92,3,6.75,5.37,13.73,8.37,20.88h-18.31q-.7-1.52-2.19-.73c0-.88.04-1.6,0-2.31-.07-1.05.19-1.9.74-2.85.23-.39-1.1-1.54-1.44-2.45-.6-1.6.38-3.56-1.1-4.99-1.02-6.47-3.91-12.28-6.35-18.25-1.58-3.88-2.95-7.86-4.59-11.72-1.09-2.59-2.48-5.05-3.98-8.07-3.12,4.31-6.1,8.05-8.62,12.07-1.13,1.81-2.22,3.19-4.18,4.14-1.37.66-2.38,2.06-4.08,3.62,0,.66-.15,2.16.03,3.62.57,4.64-1.09,9.09-.96,13.7.13,4.67.03,9.35.03,14.37-2.93,0-5.76-.01-8.59,0-1.46.01-2.1-.86-2.29-2.13-.11-.74-.02-1.51-.02-2.27V7.99c0-.45-.01-.91,0-1.36.09-2.27.65-2.91,2.85-2.92,3.22-.02,6.49-.38,9.87,1.48v3.51c0,10.9.06,21.79-.05,32.69-.02,2.14.76,4.39-.74,6.51-.36.51.7,2.02,1.26,3.43Z"/>
  </g>
</svg>