<?xml version="1.0" encoding="UTF-8"?>
<svg id="_레이어_2" data-name="레이어 2" xmlns="http://www.w3.org/2000/svg" viewBox="0 0 144.64 100">
  <defs>
    <style>
      .cls-1 {
        fill: #fff;
        stroke-width: 0px;
      }
    </style>
  </defs>
  <g id="_레이어_1-2" data-name="레이어 1">
    <path class="cls-1" d="M0,99.04V.13C12.36.13,24.22-.24,36.03.43c2.42.14,4.77,3.98,6.89,6.34,2.03,2.27,3.73,4.84,6.44,8.41,1.22-4.61,1.86-8.12,3.15-11.37.58-1.48,2.43-3.49,3.72-3.5C84.97.05,113.74.04,142.5,0c.31,0,.62.28,2.14,1.02-7.14,10.82-14.19,21.5-21.73,32.92,8.41.73,8.36,6.24,8.54,12.04.47,15.93,1.09,31.85,2.01,47.76.28,4.88-1.18,6.32-6.03,6.26-37.54-.45-75.09-.67-112.64-.95-4.9-.04-9.8,0-14.79,0ZM90.96,27.94c-.59-.45-1.17-.9-1.76-1.34-13.98,12.13-24.02,27.64-35.92,42.95,5.25-.88,10.17,1.85,13.61-3.45,6.96-10.72,14.14-21.3,21.12-32.01,1.23-1.89,1.98-4.09,2.95-6.15Z"/>
  </g>
</svg>