<?xml version="1.0" encoding="UTF-8"?>
<svg id="_레이어_2" data-name="레이어 2" xmlns="http://www.w3.org/2000/svg" viewBox="0 0 148.15 100">
  <defs>
    <style>
      .cls-1 {
        fill: #fff;
        stroke-width: 0px;
      }
    </style>
  </defs>
  <g id="_레이어_1-2" data-name="레이어 1">
    <g>
      <path class="cls-1" d="M125.86,49.4c.74.59,1.45,1.24,2.23,1.77,9.87,6.7,14.4,16.68,16.44,27.86,1.21,6.68,1.32,13.56,1.95,20.65h-71.37V.43h65.8c0,8.05,0,15.7,0,23.35q0,5.32,5.12,5.41c.64.01,1.28.16,2.12.27-.49,7.78-.96,15.37-1.45,23.18-6.71-1.5-13.54-3.04-20.38-4.57-.16.44-.31.89-.47,1.33Z"/>
      <path class="cls-1" d="M51.17,100H0V0h51.17v100Z"/>
    </g>
  </g>
</svg>