<?xml version="1.0" encoding="UTF-8"?>
<svg id="_레이어_2" data-name="레이어 2" xmlns="http://www.w3.org/2000/svg" viewBox="0 0 153.61 100">
  <defs>
    <style>
      .cls-1 {
        fill: #fff;
        stroke-width: 0px;
      }
    </style>
  </defs>
  <g id="_레이어_1-2" data-name="레이어 1">
    <g>
      <path class="cls-1" d="M101.64,18.31c2.24-7.83,6.66-12.89,13.64-15.56,1.31-.5,2.71-1.07,4.07-1.08,9.76-.09,19.53-.05,29.88-.05-8.86,9.04-12.68,20.68-19.01,30.82-3.37,5.4-7.36,10.22-13.25,12.95-2.4,1.12-5.13,1.54-7.81,2.31,17.13,15.16,28.73,35.03,44.44,51.97-.91.16-1.44.33-1.96.33-22.96-.09-45.92-.17-68.89-.36-1.21,0-2.92-.56-3.54-1.46-9.13-13.03-17.11-26.7-21.24-42.23-.78-2.94-.76-6.25-.42-9.31.36-3.24,3.19-4.37,6.42-5.01-3.04-7.56-3.52-15.32-2.99-23.23.66-9.79,6.02-16.86,14-18.17,8.78-1.44,19.14,3.57,23.43,11.4,1.06,1.94,1.93,3.98,3.21,6.66Z"/>
      <path class="cls-1" d="M46.33,99.98H0V.22h46.33v99.75Z"/>
    </g>
  </g>
</svg>