<?xml version="1.0" encoding="UTF-8"?>
<svg id="_레이어_2" data-name="레이어 2" xmlns="http://www.w3.org/2000/svg" viewBox="0 0 77.03 100">
  <defs>
    <style>
      .cls-1 {
        fill: #fff;
        stroke-width: 0px;
      }
    </style>
  </defs>
  <g id="_레이어_1-2" data-name="레이어 1">
    <g>
      <path class="cls-1" d="M22.96,0v99.51H0C.61,66.35,0,33.24.3,0h22.67Z"/>
      <path class="cls-1" d="M57.63,58.04v12.6c.13.07.26.14.39.21.44-.42.96-.79,1.32-1.27,1.76-2.37,3.45-4.79,5.21-7.16.51-.69,1.18-1.26,1.78-1.89.17.02.33.05.5.07.52,3.47,1.22,6.92,1.5,10.41.32,3.9-1.67,6.76-4.86,8.84-.35.23-.71.45-1.07.68-.07.04-.13.11-.08.07,6.07,5.4,10.98,11.7,14.72,18.89-.13.14-.18.25-.24.25-4.14,0-8.27,0-12.41,0-1.09,0-1.9-.37-2.48-1.38-1.07-1.86-2.25-3.66-3.39-5.48-.25-.41-.5-.82-.75-1.23-.15.02-.3.05-.45.07v8.26c-3.15,0-6.01-.05-8.86.01-8.79.2-15.1-4.03-19.37-11.33-1.4-2.4-1.91-5.37-2.58-8.13-.39-1.62.39-3.09,1.82-4.02.87-.56.94-1.15.53-2-.22-.45-.35-.95-.46-1.44-.61-2.8-.45-3.35,1.93-4.91,1.58-1.04,3.26-1.92,4.93-2.8.52-.28,1.16-.34,2.04-.58.41-2.02.87-4.28,1.37-6.73h18.96Z"/>
      <path class="cls-1" d="M47.21,9.12c.58-1.14.97-2.03,1.46-2.86,1.37-2.34,3.5-3.62,6.14-3.64,3.86-.04,7.73.21,11.73.34-.12.27-.18.46-.28.62-2.46,3.67-4.91,7.35-7.41,11-.86,1.25-1.77,2.48-2.8,3.58-1.7,1.8-3.71,3.05-6.51,2.9,7.26,7.15,12.2,15.89,18.56,23.63-1.77,0-3.35,0-4.93,0-7.89-.05-15.78-.09-23.68-.16-.46,0-1.07-.12-1.34-.43-3.11-3.61-6.37-7.11-8.62-11.37-1.51-2.87-2.3-5.94-2.47-9.2-.08-1.68.57-2.83,1.87-3.74.45-.31.9-.62,1.13-.78-.15-2.62-.51-5.1-.35-7.54.11-1.8.61-3.7,1.43-5.29,2.47-4.78,8.91-4.34,12.09-2.17,1.8,1.23,3.06,2.86,3.97,5.12Z"/>
    </g>
  </g>
</svg>