<?xml version="1.0" encoding="UTF-8"?>
<svg id="_레이어_2" data-name="레이어 2" xmlns="http://www.w3.org/2000/svg" viewBox="0 0 61.23 100">
  <defs>
    <style>
      .cls-1 {
        fill: #fff;
        stroke-width: 0px;
      }
    </style>
  </defs>
  <g id="_레이어_1-2" data-name="레이어 1">
    <g>
      <path class="cls-1" d="M3.15,48.68c-.91.47-1.82.94-3.15,1.62.16-.97.14-1.53.34-1.99,1.53-3.52,2.73-7.12,5.65-10,2.27-2.23,4.23-4.73,7.05-6.34.07-.04.16-.08.2-.14,2.15-2.75,4.3-5.51,6.44-8.27.15-.19.24-.44.41-.62,1.61-1.71,3.2-3.45,4.87-5.1.91-.9,2.01-1.59,2.92-2.48.49-.48.73-1.21,1.18-1.75.71-.86,1.41-2.24,2.28-2.39,3.28-.55,4.48-3.04,5.68-5.5,1.02-2.08,1.9-4.08,4.75-3.87.32.02.64-.51,1.01-.62,1.56-.46,3.12-1.17,4.7-1.22,2.36-.08,4.73.32,7.29.53-.18.97-.31,1.7-.49,2.68,2.19-1.39,4.03-3.59,6.93-1.07-1.62,1.64-1.49,4.43-4.43,5.04-.8.17-1.31,1.46-2.12,1.98-.91.58-2.04,1.3-3.02,1.22-2.78-.22-5.53-.82-8.37-1.28.03.66.29,1.43,1.55,1.48.32.01.64.14.94.26,4.07,1.61,4.2,2.44,1.11,5.47-1.04,1.02-1.8,2.33-2.69,3.5-1.58,2.08-3.19,4.14-4.72,6.26-1.4,1.93-2.65,3.98-4.11,5.87-2.22,2.88-4.49,5.73-6.89,8.47-1.19,1.36-2.71,2.43-4.21,3.75.85,2.11,1.63,4.26,2.58,6.34.92,2.01,1.95,3.98,3.05,5.9,1.15,2,2.76,3.79,3.59,5.89.78,1.99,3.58,2.8,3.22,5.24,4.21,4.05,6.79,9,8.92,14.87-1.68-.14-2.84-.24-4.46-.37-1.24,1.15-.23,4.23,2.6,5.83.24,3.05.23,3.06-3.08,4.18,1.17-.13,2.51.05,3.48-.46,2.15-1.14,4.06-.2,5.46.89.79.62.76,2.76.51,4.11-.28,1.52-1.22,2.7-3.12,3.08-3.86.77-7.68-.02-11.51.08-1.9.05-3.81-.05-5.7-.21-1.88-.16-3.91-.02-5.15-1.97-.19-.29-.78-.64-1.01-.54-2.36.98-2.39-.73-2.74-2.22-.23-.96-.58-1.91-1-2.81-.58-1.23-2.21-2.36-.14-3.68.06-.04.09-.13.13-.19-.76-.43-1.27-.97-.18-1.5.17-.08.82.82,1.35,1.37.71-.5.36-2.55,1.84-1.73,1,.56,1.65,1.75,2.45,2.66.16.18.28.38.67.92.23-2.18,1.61-3.02,3.04-4.02.92-.65,1.9-1.96.54-3.45-.47-.52-.4-1.53-.57-2.28.77-.69,1.48-1.42,2.29-2.02.57-.43,1.25-.81,1.93-.98,2.53-.6,2.86-1.57.99-3.67-2.11,2.82-2.68-.71-4.48-1.06.69-1.66,1.36-3.25,2.06-4.94-.85-.18-1.96-.42-2.32,1.46-.82-.56-1.39-.95-2.31-1.58v5.38c-1.01.28-1.72.44-2.26-1.1-.64-1.83-1.52-3.7-3.45-4.93-.78,1.38-1.21,2.37-.83,4.01.4,1.76-.32,3.79-.55,5.7-.23.07-.46.14-.69.21-.41-.55-1.24-1.18-1.15-1.64.44-2.5-.95-4.32-1.91-6.46-1.66,3.37-1.54,4.16.86,6.51-1.27,1.6-2.54,1.57-3.49-.18-.45-.84-.74-1.3-1.93-1.18-1.55.15-2.01-.81-1.3-2.2.82-1.6,1.7-3.17,2.78-5.16-.98-.42-1.94-.82-3.07-1.3.14-.35.34-.87.55-1.39-.15-.06-.31-.19-.45-.18-3.38.37-5.42-1.69-7.09-4.13-.92-1.35-1.47-2.96-2.12-4.48-.63-1.47.15-2.5,1.13-3.52.6-.63,1.02-1.44,1.53-2.16-.2-.14-.39-.28-.59-.42ZM29.09,65.76c-.16-.12-.32-.25-.48-.37-.26.36-.51.71-.77,1.07.23.14.46.28.69.41.19-.37.37-.74.56-1.11Z"/>
      <path class="cls-1" d="M29.09,81.65c-.96,1.47-1.6,2.44-2.43,3.72-.38-.19-1.47-.52-1.45-.77.09-1.33-1.74-2.82.47-4.11.99.34,2.15.73,3.41,1.16Z"/>
      <path class="cls-1" d="M20.58,80.74c-.4-.59-.8-1.19-1.19-1.78.25-.18.5-.36.75-.53.42.57.84,1.14,1.26,1.7-.27.2-.54.41-.82.61Z"/>
    </g>
  </g>
</svg>