<?xml version="1.0" encoding="UTF-8"?>
<svg id="_레이어_2" data-name="레이어 2" xmlns="http://www.w3.org/2000/svg" viewBox="0 0 89.33 100">
  <defs>
    <style>
      .cls-1 {
        fill: #fff;
        stroke-width: 0px;
      }
    </style>
  </defs>
  <g id="_레이어_1-2" data-name="레이어 1">
    <path class="cls-1" d="M12.64,17.86c2.06-.38,1.95-2.02,2.15-3.56.11-.82-.76-2.34,1.25-2.16.08,0,.45-1.25.35-1.3-2.57-1.4-.63-3.82-1.33-5.61-.12-.3-.32-.57-.44-.79-.97.61-1.88,1.18-2.96,1.85,1.54,1.81,1.82,3.59.07,5.77-.69.86-.11,2.73-.29,4.24.43-6.06-4.29-7.52-8.3-9.67.15-3.25,1.23-4.02,4.37-3,2.06.67,4,.93,5.88-.61.48-.4,1.45-.26,2.2-.28,4.86-.11,9.72-.21,14.58-.3,2.3-.04,2.48.28,2.31,4.19-1.31,0-2.65.18-3.93-.04-1.95-.34-2.3.68-2.37,2.23-.15,3.68-.3,7.37-.52,11.04-.04.67-.5,1.31-.59,1.99-.08.65-.06,1.36.14,1.98.38,1.16,1.32,2.26,1.31,3.38-.03,3-.5,6-.68,9-.11,1.95-.02,3.92-.02,5.88.33.1.67.2,1,.3,2.31-2.57,4.68-5.1,6.93-7.72,3.77-4.39,7.36-8.93,11.24-13.21,1.2-1.33,3.12-1.98,4.63-3.07.73-.53,1.24-1.34,1.85-2.03l-.56-.58c-.76.71-1.52,1.42-2.28,2.13-.08-.06-.15-.12-.23-.18,1.97-2.54,3.81-5.19,5.95-7.58,1.97-2.2,1.64-3.89-.41-5.7-1.18-1.04-2.19-2.27-3.27-3.42.13-.23.27-.45.4-.68,1.72,0,3.44.02,5.16,0,5.62-.08,11.24-.03,16.85-.29,5.51-.25,5.97.13,5.21,5.94-4.4-.43-7.69,1.72-10.29,4.97-4.76,5.96-9.37,12.04-14.08,18.04-1.39,1.78-3,3.4-4.28,5.25-.42.6-.5,1.96-.1,2.52,8.58,12.18,17.31,24.26,25.87,36.45,2.59,3.68,4.78,7.64,7.16,11.47-.31.4-.63.8-.94,1.2.27.09.55.19.82.28.02-.51.04-1.03.06-1.54.79.59,1.59,1.18,2.62,1.94-1.75.94-3.02,1.62-4.29,2.3.11.22.22.44.32.67,1.42-.07,2.85-.31,4.24-.18,2.54.23,3.8,1.8,3.73,4.24-.01.42,0,.84.04,1.25.45,3.98.14,4.23-3.8,4.92-6.37,1.11-10.8-2.31-15.31-5.98-6.92-5.63-12.17-12.64-16.73-20.16-3.17-5.22-5.81-10.76-8.78-16.1-2.14-3.86-4.43-7.64-6.8-11.71-3.14,3.6-6.19,6.99-9.12,10.48-2.32,2.77-1.52,6.28-1.75,9.45-.45,6.07-.12,12.21-.75,18.26-.49,4.67,3.34,8.13,7.34,8.41-.11,1.78-.22,3.57-.37,5.96-1.92-.97-3.41-1.73-4.9-2.49-.02-.32-.04-.63-.05-.95-.85.7-1.66,1.91-2.57,1.98-1.45.12-3.22-.12-4.41-.89-2.64-1.7-2.53-1.87-4.26.98-.13.21-.3.39-.04.05-3.53.37-6.53.69-9.53,1.01l-.15-.75c.45-.28.9-.55.99-.61-.39-1.3-.6-2.47-1.1-3.49-.22-.44-1.08-.83-1.6-.78-.83.09-1.61.57-2.91,1.08-.75,1.91,1.65,2.68,2.85,4.3-1.3,0-2.5.13-3.64-.06-.51-.09-1.36-.93-1.29-1.27.36-1.64-1.76-4.17.81-4.81,3.22-.81,5.04-3.04,7.18-5.1.67-.64,1.5-1.11,2.16-1.59,0-4.67-.05-9.46.04-14.25.02-.89.77-1.76.86-2.67.07-.7-.39-1.44-.65-2.29,1.84-1.93,1.89-3.95.49-4.82.38-1.77.72-3.33,1.06-4.89-.23.03-.45.06-.68.1-.39-.94-1.1-1.88-1.1-2.82,0-6.45.15-12.9.25-19.35.01-.66-.1-1.35.03-1.98.34-1.55.79-3.08,1.27-4.88-2.79-2.35-.39-6.05-1.47-9.34.86,0,1.41,0,1.95,0,.28.5.57.99.85,1.49.18-.23.37-.46.55-.69-.48-.25-.97-.5-1.45-.75ZM19.85,12.04c-.25-.06-.51-.11-.76-.17-.08,1.72-.15,3.43-.23,5.15-.04.79-.11,1.57-.11,2.36,0,.82-.21,1.93.22,2.37.44.46,1.56.27,2.32.35.65.55,1.36,1.15,2.07,1.75.32-.41,1-1.03.9-1.19-.7-1.17-1.55-2.24-2.2-3.13-.73-2.49-1.47-4.99-2.21-7.49ZM12.61,48.17c-.35-.02-.69-.03-1.04-.05v4.32c.28.01.56.03.84.04.07-1.44.13-2.88.2-4.32ZM11.75,46.89c.32-.02.64-.03.96-.05-.09-1.55-.19-3.09-.28-4.64-.23.02-.45.03-.68.05v4.64ZM12.4,32.8l-.79.22c.14.61.28,1.22.41,1.82.34-.13.98-.34.97-.39-.14-.57-.38-1.11-.59-1.65ZM12.35,31.28c.33-.59.7-.95.63-1.19-.08-.28-.54-.45-.84-.66-.17.24-.5.5-.48.71.04.31.33.59.69,1.14ZM79.45,83.97c-.37.53-.77.85-.75,1.14.02.24.49.53.81.63.12.04.57-.4.56-.59-.03-.33-.31-.63-.62-1.18ZM2.83,93.85c-.63-.24-.97-.49-1.22-.42-.3.08-.61.41-.75.7-.06.13.35.68.45.65.33-.09.61-.34,1.52-.93Z"/>
  </g>
</svg>