<?xml version="1.0" encoding="UTF-8"?>
<svg id="_레이어_2" data-name="레이어 2" xmlns="http://www.w3.org/2000/svg" viewBox="0 0 74.52 100">
  <defs>
    <style>
      .cls-1 {
        fill: #fff;
        stroke-width: 0px;
      }
    </style>
  </defs>
  <g id="_레이어_1-2" data-name="레이어 1">
    <path class="cls-1" d="M19.64.18c.42,9.29.81,17.91,1.2,26.53.43.12.85.23,1.28.35,1.1-1.83,2.32-3.6,3.27-5.51,3.07-6.1,6.1-12.21,9.02-18.38C35.5.88,36.82-.12,39.58.01c5.82.29,11.66.07,17.5.06,1,0,2.01,0,3.95,0-2.58,4.67-4.72,8.69-6.99,12.63-4.86,8.42-9.76,16.82-14.71,25.18-1.02,1.73-.88,3.07.33,4.69,8.2,11.01,16.3,22.09,24.44,33.13,3.04,4.12,6.14,8.19,9.15,12.34.57.79.81,1.82,1.27,2.9-7.16,2.47-14.02,4.89-20.93,7.14-.79.26-2.29-.11-2.78-.73-4.4-5.59-8.69-11.26-12.92-16.98-4.15-5.62-8.16-11.33-12.27-16.97-.6-.82-1.39-1.5-2.78-2.12,0,1.32-.07,2.65.01,3.97.48,8.05.97,16.11,1.49,24.16.1,1.47.28,2.94.52,4.39.39,2.33-.98,3.52-2.9,3.8-6.16.9-12.36,1.58-18.54,2.36-1.94.25-2.56-.55-2.56-2.48.01-8.42-.08-16.83-.18-25.25C.47,55.68.19,39.14.02,22.6-.05,15.72.05,8.84.2,1.96c.01-.61.99-1.69,1.53-1.71,5.89-.12,11.78-.08,17.91-.08Z"/>
  </g>
</svg>