<?xml version="1.0" encoding="UTF-8"?>
<svg id="_레이어_2" data-name="레이어 2" xmlns="http://www.w3.org/2000/svg" viewBox="0 0 26.41 100">
  <defs>
    <style>
      .cls-1 {
        fill: #fff;
        stroke-width: 0px;
      }
    </style>
  </defs>
  <g id="_레이어_1-2" data-name="레이어 1">
    <path class="cls-1" d="M8.62,52.77c-.79,3.71-1.91,7.38-2.31,11.13-.64,6.07-.75,12.19-1.18,18.29-.34,4.73-.92,9.44-1.2,14.17-.15,2.59-1.4,2.74-3.93,1.79.53-9.28-.66-18.72.78-28.26,1.19-7.89,1.24-15.95,1.82-23.93.83-11.33,1.65-22.67,2.58-33.99.26-3.2.89-6.37,1.43-10.08,1.06-.4,2.56-.97,4.98-1.88-.35,7.63-.57,14.57-1,21.51-.46,7.54-1.1,15.06-1,22.7,8.58-12.55,8.62-27.56,12.34-41.4,1.59-.21,3-.4,4.48-.6-.62,1.31-1.58,2.46-1.69,3.68-1.06,12.67-3.88,24.96-8.11,36.9-1.27,3.59-1.53,6.9-.06,10.3,3.48,8.06,6.15,16.4,7.5,25.06.91,5.83,1.23,11.77,1.48,17.67.06,1.38-1.22,2.81-2.62,4.19-2.06-16.57-7.1-32.07-14.3-47.23Z"/>
  </g>
</svg>