<?xml version="1.0" encoding="UTF-8"?>
<svg id="_레이어_2" data-name="레이어 2" xmlns="http://www.w3.org/2000/svg" viewBox="0 0 189.17 100">
  <defs>
    <style>
      .cls-1 {
        fill: #fff;
        stroke-width: 0px;
      }
    </style>
  </defs>
  <g id="_레이어_1-2" data-name="레이어 1">
    <path class="cls-1" d="M138.81.85c-2.07,0-4.35.74-6.19,1.77-21.79,12.25-43.51,24.63-65.27,36.93-7.32,4.14-14.73,8.13-22.7,12.52V.08C31.36.08,18.46.22,5.57,0,1.34-.07-.02,1.38,0,5.55c.15,28.95.11,57.89.18,86.84,0,2.15.4,4.29.66,6.89h44.03v-37.14c2.65,1.01,4.76,1.57,6.64,2.57,19.66,10.46,39.21,21.12,58.97,31.37,3.9,2.02,8.55,3.53,12.88,3.62,20.43.41,40.86.25,61.3.28,1.28,0,2.56-.14,3.83-.21.23-.53.45-1.06.68-1.59-27.17-16.09-54.35-32.18-82.66-48.95,22.48-10.91,43.84-21.37,65.33-31.55,2.21-1.05,4.94-1.26,7.55-1.3.1-5.2.2-10.39.29-15.57-13.62.01-27.25.02-40.87.04Z"/>
  </g>
</svg>