<?xml version="1.0" encoding="UTF-8"?>
<svg id="_레이어_2" data-name="레이어 2" xmlns="http://www.w3.org/2000/svg" viewBox="0 0 172.16 100">
  <defs>
    <style>
      .cls-1 {
        fill: #fff;
        stroke-width: 0px;
      }
    </style>
  </defs>
  <g id="_레이어_1-2" data-name="레이어 1">
    <path class="cls-1" d="M0,57.48V.24h43.24v20.99c9.6-4.26,18.45-8.19,27.5-12.22,0,9.43.09,18.49-.13,27.55-.03,1.03-1.68,2.29-2.85,2.96-3.53,2.02-7.19,3.81-10.81,5.67-1.6.83-3.21,1.63-4.82,2.44.7.85,1.39,1.71,2.09,2.56,9.25-4.41,18.61-8.61,27.74-13.27,22.7-11.6,45.11-23.77,68.05-34.86C155.55-.61,162.69.01,169.4.19c-26.52,19.43-56.74,31.55-86.54,46.82,30.45,17.49,58.41,37.33,89.29,52.32.06-.03-.4.48-.86.49-19.9.11-39.81.26-59.71.13-2.9-.02-6.11-.87-8.65-2.28-20.9-11.69-41.74-23.5-62.45-35.52-5.82-3.38-11.86-4.77-18.45-4.68-7.13.1-14.27.02-22.03.02Z"/>
  </g>
</svg>