<?xml version="1.0" encoding="UTF-8"?>
<svg id="_레이어_2" data-name="레이어 2" xmlns="http://www.w3.org/2000/svg" viewBox="0 0 170.4 100">
  <defs>
    <style>
      .cls-1 {
        fill: #fff;
        stroke-width: 0px;
      }
    </style>
  </defs>
  <g id="_레이어_1-2" data-name="레이어 1">
    <path class="cls-1" d="M170.4,2.28c-1.71,1.73-3.15,3.92-5.18,5.12-14.23,8.43-28.43,16.9-42.92,24.87-15.68,8.63-31.66,16.72-47.5,25.05-1.01.53-1.97,1.17-3.62,2.17,29.67,13.67,57.25,30.16,89.46,39.94-2.38.31-3.42.58-4.45.57-14.85-.22-29.7-.34-44.54-.83-2.85-.09-5.89-1.24-8.45-2.63-16.6-9.02-33.08-18.25-50.73-28.04v30.33H0V.47C2.76.3,5.27,0,7.78,0c12.97,0,25.95.24,38.92.03,4.05-.07,5.28,1,5.2,5.13-.25,13.31-.08,26.63-.08,39.94,0,1.83,0,3.67,0,6.06,1.82-.66,3.12-.97,4.27-1.57,26.47-13.78,52.93-27.56,79.35-41.43,3.16-1.66,6.04-3.83,9.07-5.74.85-.53,1.75-1.36,2.64-1.38,7.45-.11,14.9-.06,22.35-.06.3.43.6.87.91,1.3Z"/>
  </g>
</svg>