<?xml version="1.0" encoding="UTF-8"?>
<svg id="_레이어_2" data-name="레이어 2" xmlns="http://www.w3.org/2000/svg" viewBox="0 0 76.81 100">
  <defs>
    <style>
      .cls-1 {
        fill: #fff;
        stroke-width: 0px;
      }
    </style>
  </defs>
  <g id="_레이어_1-2" data-name="레이어 1">
    <path class="cls-1" d="M17.91,0v38.79c.46.12.92.25,1.38.37,4.9-5.75,9.8-11.5,14.69-17.27,4.84-5.71,9.61-11.47,14.51-17.12.9-1.04,2.23-2.35,3.41-2.4,5.77-.25,11.56-.11,17.35-.11.16.56.32,1.11.48,1.67-5.3,6.42-10.59,12.84-15.9,19.24-5.57,6.71-11.29,13.31-16.59,20.22-.77,1.01-.22,3.99.76,5.25,12.34,15.92,24.88,31.68,37.32,47.51.6.77.77,1.87,1.49,3.7-5.9,0-11.2.44-16.36-.2-2.31-.28-4.85-2.3-6.44-4.23-10.43-12.61-20.63-25.41-30.92-38.14-.67-.83-1.46-1.58-3.1-3.34-5.24,14.04-1.41,27.95-3.28,41.85-2.34,0-4.67-.12-6.98.02C-.45,96.42.08,98.06.09,86.62.1,60.1.06,33.58,0,7.07-.01,0-.08,0,6.78,0c3.26,0,6.53,0,11.13,0Z"/>
  </g>
</svg>