<?xml version="1.0" encoding="UTF-8"?>
<svg id="_레이어_2" data-name="레이어 2" xmlns="http://www.w3.org/2000/svg" viewBox="0 0 84.13 99.13">
  <defs>
    <style>
      .cls-1 {
        fill: #fff;
        stroke-width: 0px;
      }
    </style>
  </defs>
  <g id="_레이어_1-2" data-name="레이어 1">
    <path class="cls-1" d="M39.81,52.21c13.58,15.57,26.62,30.52,39.67,45.47-.26.47-.52.94-.78,1.42-7.02,0-14.04.12-21.05-.12-1.18-.04-2.46-1.53-3.44-2.59-8.83-9.51-17.63-19.06-26.38-28.65-1-1.1-1.63-2.54-2.31-3.63-4.82,2.82-6.97,5.52-6.74,10.2.36,7.26.09,14.55.09,22.04H0V0h18.74v51.61c2.6-2.59,4.42-4.3,6.14-6.11,12.95-13.62,25.85-27.27,38.85-40.84.81-.84,2.27-1.43,3.45-1.47,5.14-.16,10.29-.07,16.95-.07-14.18,18.19-29.19,33.93-44.32,49.09Z"/>
  </g>
</svg>