<?xml version="1.0" encoding="UTF-8"?>
<svg id="_레이어_2" data-name="레이어 2" xmlns="http://www.w3.org/2000/svg" viewBox="0 0 104.22 100">
  <defs>
    <style>
      .cls-1 {
        fill: #fff;
        stroke-width: 0px;
      }
    </style>
  </defs>
  <g id="_레이어_1-2" data-name="레이어 1">
    <path class="cls-1" d="M0,100v-5.62c2.18-.17,4.41-.17,6.57-.54,3.35-.57,4.91-2.18,5.1-5.55.28-4.78.33-9.58.33-14.38,0-12.71-.08-25.41-.11-38.12-.02-8.58,0-17.17,0-25.75,0-4.73-1.29-6.06-6.12-6.27-1.73-.08-3.47-.01-5.31-.01V.45C17.14-.38,33.73.22,50.52.04c.11,1.43.21,2.61.31,3.9-2.45.44-4.83.89-7.21,1.28-2.47.4-3.81,1.86-4.17,4.28-.11.73-.25,1.47-.25,2.21-.01,10.21,0,20.41,0,30.62,0,.46.08.92.16,1.83,19.58-8.25,33.73-21.18,39.15-42.41.24.11.48.21.71.32.18.99.37,1.97.58,3.11,1.92.9,2.62-1.12,2.77-2.03.37-2.29,1.58-2.49,3.41-2.24.78.11,1.6.02,2.83.02-.45.82-.7,1.39-1.05,1.88-4.07,5.8-8.1,11.64-12.26,17.37-6.67,9.19-14.34,17.39-23.89,23.69-1.92,1.26-3.77,2.62-5.69,3.87-1.16.76-1.26,1.41-.41,2.6,7.38,10.22,15.5,19.73,25.3,27.77,3.85,3.16,7.27,6.84,10.92,10.26.47.44,1.11.71,1.68,1.03,5.24,2.93,10.36,6.17,16.9,6.31-.6,3.29,3.39,1.64,3.9,4.22h-33.69c0-1.95.1-4.02-.03-6.07-.09-1.37-.18-2.91-.84-4.04-1.56-2.67-3.2-5.38-5.27-7.65-6.91-7.6-13.99-15.03-21.07-22.47-1.33-1.39-2.95-2.5-4.59-3.88-.12.5-.28.85-.28,1.2.09,9.39.19,18.79.29,28.18,0,.67.08,1.35.13,2.02.36,4.33,2.71,6.69,7.01,7.27,1.52.2,2.99.71,4.62,1.11.12,1.53.23,2.91.35,4.4H0Z"/>
  </g>
</svg>