<?xml version="1.0" encoding="UTF-8"?>
<svg id="_레이어_2" data-name="레이어 2" xmlns="http://www.w3.org/2000/svg" viewBox="0 0 110.26 100">
  <defs>
    <style>
      .cls-1 {
        fill: #fff;
        stroke-width: 0px;
      }
    </style>
  </defs>
  <g id="_레이어_1-2" data-name="레이어 1">
    <g>
      <path class="cls-1" d="M14.8,46.94c4.89-.61,9.27-1.16,14.4-1.8,3.97-2.7,5.06-8.31,8.17-12.54,3.04-4.13,6.23-8.13,9.28-12.25,3.18-4.31,6.27-8.7,9.2-12.79,3.31,0,5.99-.17,8.65.04,3.23.26,5.62-.36,6.32-4.03.11-.59.98-1.05,1.41-1.48,7.11-.71,14.12-1.4,21.12-2.1.17.36.34.71.5,1.07-1.19.7-2.42,1.34-3.56,2.11-3.25,2.19-6.71,4.13-9.63,6.7-6.85,6.02-14.1,11.79-19.93,18.72-5.28,6.27-11.26,11.78-17.1,18.4,1.34,1.45,2.47,3.56,4.21,4.38,8.53,4.02,16.14,9.46,23.86,14.76,3.06,2.1,6.11,4.23,8.96,6.6,6.62,5.5,13.61,10.49,20.66,15.42,3.41,2.39,7.3,4.61,8.94,9.33-7.05,3.94-13.86,2.64-20.8.17-4.7-1.67-8.25-5.05-12.03-7.93-5.69-4.33-11.04-9.23-15.96-14.43-5.43-5.74-12.6-9.24-18-14.91-4.16-.39-3.86-3.42-3.82-6.35,0-.36-.5-.73-1.06-1.5-3.1,2.25-6.19,4.49-9.22,6.69q1.78,3.59-4.67,7.15c.79-2.26,1.35-3.83,2.14-6.09-5.79.59-11.26,3.32-16.61-.09-5.12,2.28-4.69,9.1-10.08,12V12.26c0-1.46-.41-3.1.11-4.34.55-1.3,1.88-2.95,3.07-3.14,2.85-.46,5.86-.4,8.73-.01,1.02.14,2.21,1.71,2.62,2.87.45,1.3.1,2.89.1,4.35v34.95Z"/>
      <path class="cls-1" d="M3.08,90.21c-.29.23-.58.45-.87.68-.09-.31-.33-.82-.24-.89.31-.23.73-.31,1.11-.44,0,.22,0,.44,0,.65Z"/>
      <path class="cls-1" d="M4.55,88.09c-.49.49-.98.98-1.46,1.46.49-.49.98-.98,1.46-1.46Z"/>
      <path class="cls-1" d="M4.55,88.09c.49-.49.98-.98,1.46-1.46-.49.49-.98.98-1.46,1.46Z"/>
      <path class="cls-1" d="M6.86,85.28c.17.17.48.41.45.46-.17.32-.42.59-.65.88-.22-.22-.44-.44-.65-.65.28-.23.57-.46.85-.69Z"/>
    </g>
  </g>
</svg>