<?xml version="1.0" encoding="UTF-8"?>
<svg id="_레이어_2" data-name="레이어 2" xmlns="http://www.w3.org/2000/svg" viewBox="0 0 81.37 100">
  <defs>
    <style>
      .cls-1 {
        fill: #fff;
        stroke-width: 0px;
      }
    </style>
  </defs>
  <g id="_레이어_1-2" data-name="레이어 1">
    <g>
      <path class="cls-1" d="M51.88,76.42c-9.75-4.24-13.09-13.46-18.74-21.19-3.76,2.64-6.65,5.27-8.31,9.09-1.68-3.86-7.38,2.71-8.01-4.13-.94,1.99-1.46,3.12-2.52,5.37-.21-2.65-.33-4.17-.45-5.68,7.97-.93,9.37-1.59,16.07-10.75,6.45-8.81,12.31-18.04,18.64-26.93,2.69-3.77,5.93-7.15,8.93-10.7.36-.43.83-.77,1.18-1.21,2.21-2.75,3.87-6.59,6.73-7.97,2.98-1.44,7.12-.34,10.71-.7,1.67-.17,3.25-1.18,5.24-1.24-2.97,3.01-5.43,6.16-9.07,8.62-3.85,2.61-6.24,7.37-9.24,11.21-1,1.27-1.8,2.72-2.93,3.85-6.75,6.75-12.44,14.26-17.55,22.33-1.71,2.69-4.98,4.39-7.36,6.39,4.79,9.2,12.4,14.97,16.66,23.63Z"/>
      <path class="cls-1" d="M25.36,71.61c-2.09,9.27-6.23,16.78-16.07,19.36-.26-.65-.66-1.61-1.07-2.62-.37.26-1.07.58-1.03.75.34,1.53.5,3.23,1.3,4.51,1.12,1.79,2.75,3.26,5.5,6.39-3.38-.9-4.84-1.46-6.35-1.65-1.64-.2-3.32-.04-5.59-.04v-8.43c0-25.38.04-50.76-.06-76.14-.01-2.61.7-5.21-1.41-7.93C-.96,3.83.76,1.1,3.55,0c3.14.53,3.63,2.73,3.61,5.49-.07,12.69.15,25.38-.11,38.07-.11,5.43.87,10.46,3.28,15.37-.98.22-1.75.4-3.17.72.4,4.36-1.32,8.99,1.67,13.25-3.01,4.26-1.29,8.88-1.67,13.63q7.94-2.8,18.21-14.92Z"/>
      <path class="cls-1" d="M63.06,89.83c-2.64-2.36-5.36-4.62-7.85-7.13-.61-.61-.44-2.01-.62-3.04,2.64,2.35,5.36,4.62,7.85,7.13.61.61.44,2.01.62,3.04Z"/>
      <path class="cls-1" d="M37.99,85.64c-.54,1.29-.73,1.76-.93,2.23-.37-.49-.91-.92-1.06-1.47-.1-.39.33-.92.52-1.38.6.26,1.2.51,1.46.63Z"/>
      <path class="cls-1" d="M69.84,96.61c2.54.14,1.44,2.1,1.69,3.39-2.54-.14-1.44-2.1-1.69-3.39Z"/>
      <path class="cls-1" d="M12.46,67.2c.2-.36.4-.72.6-1.09.19.19.56.42.53.56-.09.4-.34.76-.53,1.14-.19-.19-.38-.38-.6-.6Z"/>
      <path class="cls-1" d="M51.2,76.28c.56.56,1.13,1.13,1.69,1.69-.56-.56-1.13-1.13-1.69-1.69Z"/>
      <path class="cls-1" d="M52.89,77.97c.56.56,1.13,1.13,1.69,1.69-.56-.56-1.13-1.13-1.69-1.69Z"/>
      <path class="cls-1" d="M64.75,91.53c-.56-.56-1.13-1.13-1.69-1.69.56.56,1.13,1.13,1.69,1.69Z"/>
      <path class="cls-1" d="M66.45,93.22c-.56-.56-1.13-1.13-1.69-1.69.56.56,1.13,1.13,1.69,1.69Z"/>
      <path class="cls-1" d="M68.14,94.92c-.56-.56-1.13-1.13-1.69-1.69.56.56,1.13,1.13,1.69,1.69Z"/>
      <path class="cls-1" d="M69.84,96.61c-.56-.56-1.13-1.13-1.69-1.69.56.56,1.13,1.13,1.69,1.69Z"/>
    </g>
  </g>
</svg>