<?xml version="1.0" encoding="UTF-8"?>
<svg id="_레이어_2" data-name="레이어 2" xmlns="http://www.w3.org/2000/svg" viewBox="0 0 76.81 99.72">
  <defs>
    <style>
      .cls-1 {
        fill: #fff;
        stroke-width: 0px;
      }
    </style>
  </defs>
  <g id="_레이어_1-2" data-name="레이어 1">
    <path class="cls-1" d="M16.68,47.36c2.1-2.87,4.2-5.73,6.29-8.6,6.83-9.41,14.43-18.38,20.28-28.37C49.39-.1,58.01,4.2,66,3.74c.26.4.52.8.78,1.19-2.98,3.66-5.84,7.41-8.95,10.95-6.69,7.61-13.36,15.23-20.32,22.58-2.86,3.02-2.91,4.86-.17,8.25,12.84,15.89,25.28,32.09,37.82,48.21.67.86,1.01,1.99,1.66,3.3-5.14.59-9.95,1.77-14.64,1.44-2.5-.18-5.58-2.43-7.1-4.64-8.29-12.03-16.12-24.37-24.23-36.52-3.18-4.77-3.86-4.64-8.3-.75-4.22,3.7-6.64,7.71-5.93,13.8.73,6.25.06,12.65.22,18.97.07,2.74-.86,4.05-3.63,4.05-15.42-.03-13.06,3.32-13.08-11.67-.02-25.99.4-51.98.41-77.97C.53.92,1.64-.18,5.65.02c10.09.53,9.02-1.03,9.03,9.28.01,10.66-.14,21.33-.14,31.99,0,1.87.45,3.74.68,5.6.48.15.96.31,1.44.46Z"/>
  </g>
</svg>