<?xml version="1.0" encoding="UTF-8"?>
<svg id="_레이어_2" data-name="레이어 2" xmlns="http://www.w3.org/2000/svg" viewBox="0 0 76.86 100">
  <defs>
    <style>
      .cls-1 {
        fill: #fff;
        stroke-width: 0px;
      }
    </style>
  </defs>
  <g id="_레이어_1-2" data-name="레이어 1">
    <path class="cls-1" d="M50.87,6.52c-2.48,3.05-4.62,5.92-7.01,8.56-2.47,2.73-5.18,5.24-7.79,7.84s-4.94,5.59-7.89,7.71c-2.9,2.09-4.48,5.25-7.35,7.46,2.75,2.75,5.56,5.39,8.17,8.22,2.13,2.3,4.29,4.65,5.94,7.29,2.29,3.66,5.5,6.41,8.32,9.56,4.84,5.4,11.07,9.52,14.75,15.99.21.36.57.85.91.89,4.69.64,6.62,5.49,10.77,7.01.82.3,1.23,1.62,1.92,2.39,1.22,1.36,2.31,3.07,3.84,3.85,1.29.65,1.8,1.44,1.05,2.16-.5.48-2-.07-3.06-.16-.62,1.34-1.43,3.12-2.16,4.7-4.75-.56-8.02-3.2-11.99-4.23-2.92-.76-5.65-3.09-8.28-5.14-6.28-4.91-11.32-11.08-17.39-16.11-4.27-3.54-8.23-7.36-12.27-11.12-3.13-2.92-4.13-2.59-7.6-1.41-2.84.97-3.01,3.11-3.23,5.13-.63,5.65-.81,11.35-1.41,17.01-.37,3.47-1.18,6.88-1.82,10.5-1.78-.49-3.67-1.01-5.37-1.48-2.47-4.58-1.85-9.48-1.86-14.29C.04,52.65.05,26.45.05,0h7.26c2.29,3.98,1.84,8.63,1.85,13.22,0,4.51,0,9.02,0,14.03,8.79-4.86,16.8-9.96,24.19-15.96,5.16-4.2,10.8-6.21,17.53-4.77ZM12.7,42.51c-.4.33-.57.44-.69.58-.77.88-2.16,1.51-1.3,3.04.15.26.7.45,1.05.43,2.11-.14,1.04-1.81,1.3-2.84.04-.16-.1-.37-.35-1.21Z"/>
  </g>
</svg>