<?xml version="1.0" encoding="UTF-8"?>
<svg id="_레이어_2" data-name="레이어 2" xmlns="http://www.w3.org/2000/svg" viewBox="0 0 90.96 100">
  <defs>
    <style>
      .cls-1 {
        fill: #fff;
        stroke-width: 0px;
      }
    </style>
  </defs>
  <g id="_레이어_1-2" data-name="레이어 1">
    <path class="cls-1" d="M66.06,27.71c2.88-6.95,6.01-13.82,8.43-20.93.52-1.52-1.56-3.92-2.83-6.78h19.3c-8.18,14.64-16.49,29.5-24.78,44.33-11.6-3.99-20.53-12.52-27.46-23.33-2.68-4.18-5.62-6.34-10.13-2.6.98,4.27,2.27,8.6,2.84,13.03.23,1.83-1,3.9-1.73,5.8-1.95,5.1-.6,7.1,4.44,9.12,6.7,2.68,13.16,5.99,19.57,9.34,1.23.64,1.73,2.69,3.11,4.99,3.65-2.41,7.36-4.97,11.19-7.33,1.25-.77,2.82-1.01,4.24-1.49.42,1.47,1.04,2.91,1.24,4.41,1.19,8.92,2.02,17.9,3.61,26.74.34,1.9,3.17,4.48,5.14,4.78,9.02,1.35,9.6,1.93,6.53,12.21-7.57-1.39-15.48-2.24-23-4.42-6.16-1.78-8.24-6.23-7.79-12.83.19-2.82,1.12-5.66.82-8.4-.15-1.35-2.27-3.47-3.58-3.53-7.51-.34-15.04-.17-22.54-.17-.53,3.8-1.2,7.42-1.44,11.07-.08,1.2.79,2.56,1.46,3.7,1.33,2.26,3.32,4.28,4.07,6.69.37,1.19-1.37,4.38-2.23,4.41-10.21.31-20.44.2-30.6.2v-13.35c.66-.34.97-.64,1.27-.64,10.53.15,11.47-.3,11.03-11.08-.63-15.39-1.85-30.76-3.3-46.1-.58-6.11-3.19-11.5-9.1-14.8-1.53-.85-2.19-3.25-3.85-5.9,8.25,0,14.95-.11,21.65.03,6.73.15,13.5.22,20.17,1.01,2.81.33,6.02,1.85,7.95,3.87,3.15,3.28,5.42,7.42,8.05,11.2,1.89,2.72,3.77,5.45,5.65,8.18.86-.48,1.72-.96,2.58-1.44ZM33.12,61.56c.6-1.2,1.14-1.84,1.16-2.5.01-.42-.96-1.31-1.14-1.23-.67.31-1.54.87-1.65,1.45-.09.5.78,1.16,1.62,2.27Z"/>
  </g>
</svg>