<?xml version="1.0" encoding="UTF-8"?>
<svg id="_레이어_2" data-name="레이어 2" xmlns="http://www.w3.org/2000/svg" viewBox="0 0 78.2 100">
  <defs>
    <style>
      .cls-1 {
        fill: #fff;
        stroke-width: 0px;
      }
    </style>
  </defs>
  <g id="_레이어_1-2" data-name="레이어 1">
    <path class="cls-1" d="M26,63.77c-6.33,6.26-11.97,12.54-11.48,22.11.21,4.1.04,8.22.04,12.5H0c0-1.41,0-2.85,0-4.28.04-15.62.07-31.25.12-46.87,0-.79,0-1.58.06-2.36.14-2.24.68-2.45,2.83-1.77.95.3,2.11-.04,3.46-.11-.4-.94-.59-1.72-1.02-2.32-2.71-3.8-3.03-8.18-3.2-12.62-.04-1.09.2-1.86,1.6-1.83,3.57.06,7.14.02,11.05.02,0,1.06.01,2,0,2.93-.03,2.18-.13,4.36-.09,6.54.03,1.63.04,3.14-1.66,4.07-.32.18-.64,1.1-.56,1.16.62.47,1.34.82,2.49,1.46v12.68c.22.08.44.16.65.23,12.43-14.29,23.42-29.76,36.23-44.42-1.79,0-3.09,0-4.39,0-3.15,0-6.3-.02-9.45.04-1.16.02-1.81-.3-1.87-1.57-.15-3.07-.36-6.13-.56-9.36h42.52c-.35.57-.54.98-.81,1.32-12.11,14.71-24.23,29.43-36.37,44.12-1.65,2-3.35,3.99-5.23,5.78-1.04,1-.95,1.74-.33,2.8,2.97,5.07,5.93,10.14,8.85,15.23,5.51,9.61,11,19.23,16.49,28.85.29.52.54,1.06.9,1.78-.6.04-1.05.1-1.49.1-4.06,0-8.12-.01-12.17.01-.9,0-1.48-.15-2-1.08-5.73-10.29-11.53-20.55-17.33-30.8-.8-1.42-1.72-2.76-2.71-4.35Z"/>
  </g>
</svg>