<?xml version="1.0" encoding="UTF-8"?>
<svg id="_레이어_2" data-name="레이어 2" xmlns="http://www.w3.org/2000/svg" viewBox="0 0 94.52 100">
  <defs>
    <style>
      .cls-1 {
        fill: #fff;
        stroke-width: 0px;
      }
    </style>
  </defs>
  <g id="_레이어_1-2" data-name="레이어 1">
    <g>
      <path class="cls-1" d="M47.19,51.24c6.8,9.01,11.24,17.7,16.76,25.99-2.96-1.94-5.96-3.83-8.87-5.83-2.79-1.92-5.69-3.75-8.17-6.01-2.12-1.94-3.72-4.45-5.58-6.68-5.2-6.22-12.38-9.52-19.4-13.04-2.41,2.64-3.08-1.45-4.9-1.5,1.4-.2,2.81-.4,5.07-.72-5-4.2-9.42-7.92-14.4-12.11.1,3.83-1.05,7.31,2.56,9.87.39.28.59,1.69.3,1.96-2.73,2.57-.14,6.16-1.52,8.54-1.75,3.01.8,5.26.39,8.02-.25,1.68,1.81,3.7,2.83,5.57-.77,0-2.06-.26-2.21.04-.94,1.89-2.11,3.87-2.28,5.9-.35,4.05-.1,8.15-.1,12.23,0,2.3-.03,4.59,0,6.89.07,4.02.1,3.96,4.95,5.61.65.22,1,1.32,1.94,2.64H0v-50.33c3.27-12.94.81-26.11,1.48-39.15.16-3.18.35-6.12,3.56-9.12,1.4,4.3,3.25,7.54,2.48,11.79,2.04-1.05,3.44-1.81,4.87-2.48.64-.3,1.6-.83,1.99-.59,4.93,3.12,10.53.13,15.42,1.64,4.69,1.45,9.29,1.51,13.95,1.29,5.64-.27,11.26-1.07,16.89-1.64,2.19-2.73,2.76.3,3.56,1.22.49.57.09,1.92.09,3.55-2.09,0-4.06-.14-6,.03-5.15.43-10.28,1.2-15.44,1.45-5.34.26-10.78-.48-16.03.27-2.82.4-5.7.97-8.55,1.49-1.68.31-3.06,2.3-4.15,3.19,1.19,5.86,6.19,7.61,10.08,10.34,5.39,3.79,11.35,6.8,14.32,13.22.29.63,1.66.76,2.53,1.12-.3.72-1.03,1.63-.82,2.13.8,1.86,2.24,1.94,4.16.44,3.99-2.07,5.97-1.18,6.13,2.74.11,2.54-1.76,1.71-3.33.04-.85-.73-1.33-.19-1.22.02.38.67.97,1.21,1.48,1.8-.14-1-.29-2-.26-1.81Z"/>
      <path class="cls-1" d="M62.75,97.44c-3.85-.3-6.11-3.36-9.05-5.22-3.2-2.02-4.03-6.35-7.75-7.93-.27-.11-.04-1.41.85-4.01-.29-.81-.86-.51-.83-.29.1.73.42,1.43.66,2.15.26-.92.52-1.84.17-1.85-1.83,1.68-3.09,1.83-3.66,1.27-3.52-3.44-7.51-6.55-9.45-11.29-1.18-2.88-5.31-2.5-5.65-7.31-.34.6.17-.18.56-1.01.39-.85.65-1.75.91-2.49,3.26.2,3.68,4.74,7.22,4.32,1.44,2.32,3.69,4,4.75,6.73.53,1.37,4.04,1.01,2.92,3.99-.51.51-1.02,1.02-1.53,1.87,0,.11,0-.11,0-.34-.4.14-.84.22-1.16.46-.1.07.16.6.25.93.3-.24.6-.47.91-1.05.51-.85,1.02-1.36,1.53-1.87,3.48,1.4,4.68,4.62,6.12,7.99,0,.11,0-.11,0-.34-.4.14-.84.22-1.16.46-.1.07.16.6.25.93.3-.24.6-.47.91-1.05,4.08,4.76,8.16,9.86,12.24,14.96ZM39.23,72.15q.48-1.93-3.73-1.73c2.04.95,3.09,1.43,3.73,1.73ZM36.19,67.04c-.32.18-.65.36-.99.54.17.17.38.51.5.48.36-.08.69-.31,1.03-.48-.17-.17-.34-.34-.54-.54ZM31.16,63.54c.32-.18.65-.36.99-.54-.17-.17-.38-.51-.5-.48-.36.08-.69.31-1.03.48.17.17.34.34.54.54Z"/>
      <path class="cls-1" d="M94.52,82.44c-1.92,6.86-5.8,12.42-11.33,16.38-3.24,2.32-7,1.06-9.84-2.36,8.16-3.12,15.18-7.71,21.17-14.02Z"/>
      <path class="cls-1" d="M30.61,72.95c.23,1.09-.72,2.62,1.21,3.07,1.57.37,3.11.82,5.31,1.41-1.97,2.93-3.61,4.21-6.33,2.59-1.23-.73-2.57-1.3-3.67-2.19-4.49-3.62-8.91-7.33-13.35-11.01,5.11-.67,9.16,1.83,12.94,4.66,1.28.96,2.33,1.66,3.89,1.46Z"/>
      <path class="cls-1" d="M47.42,6.87c-8.28.9-16.23.04-24.17-1.71,2.21-2.46,5.02-2.81,8.11-2.66,3.27.16,6.57-.2,9.82.12,2.04.2,4.02,1.18,5.95,2,.31.13.18,1.28.29,2.25Z"/>
      <path class="cls-1" d="M69.29,68.33c2.4,6.41,4.43,12.79,11.4,15.76.33.14.52,1.49.24,1.93-.3.46-1.63.87-1.86.64-2.45-2.42-5.11-4.74-7.05-7.54-2.79-4.05-3.06-5.99-2.73-10.79Z"/>
      <path class="cls-1" d="M72.59,96.57c-2.94-1.15-4.61-1.81-6.49-2.55v-6.59c2.26,3.18,3.95,5.57,6.49,9.14Z"/>
      <path class="cls-1" d="M67.74,68.36v-8.45c2.03,3.39.46,5.93,0,8.45Z"/>
      <path class="cls-1" d="M43.87,44.83c.23,1.62.38,2.62.52,3.62-.51-.59-1.1-1.13-1.48-1.8-.11-.2.37-.75.96-1.83Z"/>
      <path class="cls-1" d="M32.38,69.24c-.53,1.86-.79,2.79-1.05,3.71-.24-.71-.56-1.41-.66-2.15-.03-.22.55-.52,1.72-1.56Z"/>
      <path class="cls-1" d="M64.16,98.33c-.18.18-.43.5-.48.47-.33-.18-.62-.44-.92-.68.23-.23.46-.45.68-.68.24.3.48.59.72.89Z"/>
      <path class="cls-1" d="M12.24,65.29c.51.51,1.02,1.02,1.53,1.53-.51-.51-1.02-1.02-1.53-1.53Z"/>
      <path class="cls-1" d="M26.24,50.97c.18-.32.36-.65.54-.99.17.17.51.38.48.5-.08.36-.31.69-.48,1.03-.17-.17-.34-.34-.54-.54Z"/>
    </g>
  </g>
</svg>