<?xml version="1.0" encoding="UTF-8"?>
<svg id="_레이어_2" data-name="레이어 2" xmlns="http://www.w3.org/2000/svg" viewBox="0 0 75.53 99.08">
  <defs>
    <style>
      .cls-1 {
        fill: #fff;
        stroke-width: 0px;
      }
    </style>
  </defs>
  <g id="_레이어_1-2" data-name="레이어 1">
    <path class="cls-1" d="M72,98.86c-6.75,0-12.72.38-18.6-.19-2.25-.22-4.69-2.26-6.34-4.1-7.63-8.54-15.03-17.27-22.45-25.99-1.49-1.75-2.68-3.76-4.01-5.65-.73.31-1.47.62-2.2.92-.53,2.03-1.44,4.05-1.54,6.1-.37,8.14-.63,16.29-.62,24.43,0,3.43-1.07,4.94-4.57,4.67-3.77-.29-7.56-.4-11.69-.6V.83C.49.56.76.28,1.05.26,13.67-.48,13.61-.48,14.03,11.96c.43,12.56.99,25.11,1.56,39.17,5.42-5.42,10.5-9.86,14.81-14.95,7.09-8.38,13.66-17.21,20.54-25.78.6-.75,1.93-1.4,2.86-1.34,6.1.43,12.2,1,18.27,1.68,1.19.13,2.3.96,3.45,1.46-.57,1.28-.83,2.89-1.77,3.78-2.94,2.79-6.34,5.11-9.21,7.95-9.8,9.7-19.4,19.59-29.19,29.3-2.15,2.13-2.13,3.53.03,5.69,7.59,7.61,15.09,15.32,22.38,23.21,4.83,5.23,9.26,10.84,14.23,16.71Z"/>
  </g>
</svg>