<?xml version="1.0" encoding="UTF-8"?>
<svg id="_레이어_2" data-name="레이어 2" xmlns="http://www.w3.org/2000/svg" viewBox="0 0 75.93 101.09">
  <defs>
    <style>
      .cls-1 {
        fill: #fff;
        stroke-width: 0px;
      }
    </style>
  </defs>
  <g id="_레이어_1-2" data-name="레이어 1">
    <path class="cls-1" d="M18.04,44.69c7.77-8.83,15.57-17.63,23.29-26.5,3.81-4.39,7.25-9.12,11.3-13.26,1.53-1.57,4.32-2.63,6.54-2.66,4.94-.06,9.89.69,15.71,1.18-1.64,2.28-2.9,4.3-4.43,6.11-10.73,12.69-21.44,25.41-32.36,37.94-1.98,2.27-2.05,3.57-.17,5.85,11.6,14.06,23.07,28.22,34.55,42.38,1.18,1.45,2.05,3.14,3.47,5.34-6.58,0-12.2.07-17.82-.07-.97-.02-2.21-.69-2.83-1.46-10.55-12.99-21.03-26.04-31.64-39.22-4.64,3.31-7.07,7.85-7,13.78.09,7,.09,14,.07,20.99,0,1.8-.25,3.59-.43,5.91H.01c0-11.36-.03-22.64,0-33.93C.08,46.42.3,25.75.19,5.09.17,1.09,1.33-.04,5.29,0c11.34.13,11.28-.04,11.2,11.45-.08,10.97-.02,21.94-.02,32.91.52.11,1.04.22,1.57.33Z"/>
  </g>
</svg>