<?xml version="1.0" encoding="UTF-8"?>
<svg id="_레이어_2" data-name="레이어 2" xmlns="http://www.w3.org/2000/svg" viewBox="0 0 76.58 105.04">
  <defs>
    <style>
      .cls-1 {
        fill: #fff;
        stroke-width: 0px;
      }
    </style>
  </defs>
  <g id="_레이어_1-2" data-name="레이어 1">
    <path class="cls-1" d="M22.49,57.27c-5.92,3.53-7.25,8.45-6.96,14.62.44,9.47.04,18.99.15,28.48.04,3.15-.94,4.59-4.33,4.34-3.62-.26-7.28-.06-11.35-.06V3.3h15.97v40.66c13.32-13.53,25.96-26.09,38.25-38.99C58.22.77,62.44-.76,67.98.35c2.54.51,5.17.56,8.61.91-6.37,7.16-12.14,13.94-18.24,20.41-6.4,6.78-12.98,13.41-19.77,19.8-3.02,2.84-3.21,4.91-.81,8.3,12.29,17.36,24.33,34.89,36.45,52.37.45.65.78,1.4,1.58,2.86-6.64,0-12.7.16-18.74-.14-1.18-.06-2.53-1.71-3.36-2.92-9.47-13.75-18.85-27.56-28.29-41.33-.84-1.22-1.96-2.25-2.92-3.33Z"/>
  </g>
</svg>