<?xml version="1.0" encoding="UTF-8"?>
<svg id="_레이어_2" data-name="레이어 2" xmlns="http://www.w3.org/2000/svg" viewBox="0 0 71.94 100">
  <defs>
    <style>
      .cls-1 {
        fill: #fff;
        stroke-width: 0px;
      }
    </style>
  </defs>
  <g id="_레이어_1-2" data-name="레이어 1">
    <path class="cls-1" d="M17.34.13c0,7,.12,13.35-.03,19.68-.15,6.31-.56,12.61-.85,18.92l1.54.25c3.87-7.26,7.74-14.51,11.63-21.77,2.47-4.62,4.69-9.39,7.56-13.74,1.08-1.63,3.58-2.97,5.58-3.21,4.13-.49,8.36-.15,12.05-.15-8.26,15.55-16.61,31.02-24.68,46.65-1.5,2.9-1.86,6.4-1.76,9.95,3.32-3.8,6.64-7.59,10.86-12.42,11.33,17.98,22.02,34.94,32.71,51.9-.25.5-.5,1-.75,1.49-6.17-.36-12.34-.68-18.5-1.17-.59-.05-1.15-1.1-1.64-1.75-5.32-7.06-10.31-14.39-16.07-21.07-2.17-2.51-6.04-3.59-9.21-5.18-2.04-1.02-4.18-1.83-6.31-2.65-1.09-.42-2.6-1.2-3.29-.78-.82.5-1.33,2.11-1.34,3.25-.1,9.65-.06,19.3-.07,28.95,0,.72-.06,1.45-.12,2.71H.4c0-4.14.02-8.62,0-13.1C.23,58.99.03,31.08,0,3.17,0,2.16,1.59.32,2.51.27,7.59-.02,12.69.13,17.34.13Z"/>
  </g>
</svg>