<?xml version="1.0" encoding="UTF-8"?>
<svg id="_레이어_2" data-name="레이어 2" xmlns="http://www.w3.org/2000/svg" viewBox="0 0 72.55 100">
  <defs>
    <style>
      .cls-1 {
        fill: #fff;
        stroke-width: 0px;
      }
    </style>
  </defs>
  <g id="_레이어_1-2" data-name="레이어 1">
    <path class="cls-1" d="M13.6,71.84c6.32-11.13,13-22.08,18.85-33.46,6.02-11.71,11.16-23.87,16.84-35.76.55-1.14,2.2-2.43,3.38-2.48,6.44-.24,12.89-.12,19.81-.12,0,3.36.22,6.43-.1,9.45-.14,1.3-1.13,2.88-2.22,3.65-5.37,3.77-11.56,6.69-14.04,13.38-.71,1.92-1.08,4.24-.73,6.22,3.8,21.59,7.77,43.15,11.68,64.71.05.25-.16.55-.37,1.23h-15.42c-2.43-15.48-4.93-31.35-7.42-47.22-.43-.05-.85-.1-1.28-.14-3.62,6.96-7.26,13.92-10.85,20.89-4.36,8.46-8.64,16.97-13.11,25.38-.56,1.05-2.03,2.22-3.13,2.28-4.96.24-9.94.11-15.25.11,0-5.27.01-10.07,0-14.86C.16,59.05.06,33,0,6.95-.01.92.07.92,5.94.91c4.25,0,8.51,0,13.12,0v17.49c-2.36.11-4.66.21-6.98.32v52.63c.51.16,1.01.33,1.52.49Z"/>
  </g>
</svg>