<?xml version="1.0" encoding="UTF-8"?>
<svg id="_레이어_2" data-name="레이어 2" xmlns="http://www.w3.org/2000/svg" viewBox="0 0 60.55 100">
  <defs>
    <style>
      .cls-1 {
        fill: #fff;
        stroke-width: 0px;
      }
    </style>
  </defs>
  <g id="_레이어_1-2" data-name="레이어 1">
    <path class="cls-1" d="M.23,100c-.08-8.81-.15-17.59-.23-26.45,1.68-.15,3.31-.32,4.94-.43,2.94-.19,5.88-.29,8.81-.51,3.9-.29,7.8-.65,11.69-.99,1.49-.13,2.98-.21,4.45-.42,1.63-.23,3.28-.44,4.84-.9,2.2-.65,4.02-2.28,3.82-5.12-.28-4.05-1.84-7.36-5.62-9.23-.99-.49-2.21-.66-3.33-.68-5.04-.08-10.09-.05-15.14-.06-4.54,0-9.09,0-13.63,0-.2,0-.39,0-.72,0C.41,36.82.68,18.49.26.14c.49,0,.98,0,1.47,0,7.52,0,15.03.01,22.55,0,3.84-.01,7.68-.15,11.53-.12,3.21.02,6.41.1,9.57.84,2.21.52,4.36,1.13,6.34,2.29,2.77,1.64,4.39,4.03,5.14,7.13.93,3.81.95,7.65.52,11.52-.15,1.33-.25,2.67-.38,4.06-.19,0-.33,0-.47,0-9.81-.06-19.63-.14-29.44-.18-2.42,0-4.84.03-7.26.17-2.09.13-3.99.96-5.56,2.33-.6.52-1.04,1.34-1.32,2.11-.94,2.58-1.01,5.25-.12,7.84.7,2.03,2.1,3.56,4.24,4.22,2.52.78,5.13,1.02,7.75,1.14,3.86.18,7.72.34,11.58.56.9.05,1.34-.31,1.68-1.11.67-1.61,1.07-3.26,1.1-5.01.01-.92.11-1.84.17-2.83h18.11s.1.11.1.17c.02,2.77.13,5.54,0,8.31-.08,1.67-.3,3.37-1.07,4.94-.7,1.42-1.78,2.39-3.19,3.01-.98.43-1.98.81-2.96,1.23-.73.31-.86.66-.3,1.22.61.61,1.28,1.2,2.03,1.63,2.56,1.48,4.8,3.27,6.49,5.75,1.47,2.17,2.01,4.59,2,7.1,0,2.48-.19,4.99-.64,7.43-.52,2.76-2.65,4.3-5.07,5.39-2.25,1.02-4.69,1.33-7.11,1.67-2.91.41-5.83.75-8.75,1.06-4.39.46-8.78.87-13.17,1.28-2.48.23-4.97.37-7.44.68-3.29.42-6.58.91-9.7,2.11-1.6.62-3.14,1.41-4.69,2.14-.27.13-.49.36-.74.54l.1.18c2.33-.94,4.62-2.03,7.01-2.78,2.41-.76,4.93-1.2,7.57-1.82v13.67H.23Z"/>
  </g>
</svg>