<?xml version="1.0" encoding="UTF-8"?>
<svg id="_레이어_2" data-name="레이어 2" xmlns="http://www.w3.org/2000/svg" viewBox="0 0 68.97 100">
  <defs>
    <style>
      .cls-1 {
        fill: #fff;
        stroke-width: 0px;
      }
    </style>
  </defs>
  <g id="_레이어_1-2" data-name="레이어 1">
    <path class="cls-1" d="M4.53,97.14v-24.38c3.35,2.15,6.34,4.14,9.4,6.02,6.33,3.89,13.04,6.42,20.58,4.43,5.46-1.44,8.51-5.45,9.78-10.73.68-2.81-.86-5.09-3.3-6.32-3.88-1.95-7.91-3.61-11.91-5.32-4.78-2.05-9.8-3.65-14.36-6.12C-1.35,45.99-2.8,31.27,3.39,17.34,9.08,4.52,26.99-3.91,42.46,2.38c3.23,1.31,6.46,2.61,9.95,4.02.45-2.17.85-4.07,1.34-6.39,2.8.72,5.38,1.23,7.83,2.1.69.24,1.44,1.51,1.46,2.31.07,5.75.02,11.5-.16,17.24-.02.75-.91,1.85-1.64,2.12-2.69.97-5.48,1.64-8.22,2.47-2.08.63-3.27-.45-4.62-1.86-5.87-6.14-13.14-8.43-21.46-6.99-3.32.58-6.19,2.24-7.9,5.39-2.15,3.95-1.54,6.46,2.55,8.27,6.89,3.06,13.94,5.73,20.84,8.75,5.63,2.46,11.32,4.87,16.66,7.88,8.35,4.69,10.93,12.27,9.55,21.48-3.11,20.68-18.11,32.65-39,30.62-6.18-.6-12.22-2.52-18.38-3.51-1.91-.31-3.99.48-6.7.87Z"/>
  </g>
</svg>