<?xml version="1.0" encoding="UTF-8"?>
<svg id="_레이어_2" data-name="레이어 2" xmlns="http://www.w3.org/2000/svg" viewBox="0 0 77.33 100">
  <defs>
    <style>
      .cls-1 {
        fill: #fff;
        stroke-width: 0px;
      }
    </style>
  </defs>
  <g id="_레이어_1-2" data-name="레이어 1">
    <g>
      <path class="cls-1" d="M.06,61.21c4.55,1.68,8.95,3.27,13.32,4.96.25.09.22.9.34,1.49-2.59.31-5.05.61-8.23,1,1.06,2.24,1.6,4.45,2.91,5.99,6.99,8.18,15.42,14.27,26.12,16.61,8.02,1.76,14.79-1.31,16.75-7.79.71-2.34.41-5.07.11-7.57-.09-.7-2.16-1.95-2.75-1.68-6.55,3.01-12.03.5-17.84-2.44-3.24-1.64-5.94-3.38-7.83-6.58,5.99-2,11.29,2.23,17.84,2.25-.85-.89-1.22-1.6-1.77-1.8-8.87-3.19-16.43-8.42-22.23-15.71-7.03-8.84-10.42-18.86-6.69-30.21C13.38,9.79,20.31,3.77,30.36,1.29,39.54-.98,48.62-.01,57.64,2.32c3.66.95,7.36,1.75,11.2,2.65.17-1.32.3-2.29.48-3.72,2.12,0,4.3-.18,6.42.11.62.09,1.49,1.5,1.51,2.32.12,6.4.07,12.8.07,19.75-2.27-.19-3.81-.44-5.33-.42-2.58.03-5.2-.02-7.71.43-1.6.29-2.45.1-3.04-1.38-.48-1.2-1.02-2.39-1.56-3.57-4.36-9.4-11.01-13.14-21.36-12.08-2.71.28-5.55-.08-7.85,1.89-.78.67-1.88,1.13-2.36,1.96-4.72,8.11-.79,16.72,8.54,19.33,6.62,1.86,13.51,3.28,19.66,6.2,11.78,5.6,18.75,14.86,18.78,28.6.01,6.81-.17,13.42-4.26,19.27-3.15,4.5-6.86,8.47-11.94,10.69-4.63,2.02-9.35,4.34-14.26,5.12-9.4,1.48-18.44-.15-26.46-5.86-1.47-1.05-3.39-1.65-5.2-1.99-.84-.16-2.17.59-2.78,1.34-.78.97-.91,2.44-1.6,3.51-.52.8-1.49,1.3-2.26,1.94-.64-.89-1.68-1.72-1.85-2.69-.77-4.21-1.28-8.47-1.89-12.72-.84-5.9-1.71-11.8-2.49-17.71-.17-1.26-.02-2.56-.02-4.1ZM46.55,51.21c-.37-.01-.73-.03-1.1-.04-.04.76-.08,1.52-.11,2.28.46-.01.92-.03,1.37-.04-.05-.73-.11-1.47-.16-2.2ZM37.85,51.69c.25-.12.5-.23.76-.35-.26-.42-.5-.84-.79-1.23-.03-.03-.47.17-.46.18.14.47.32.94.49,1.4ZM66.36,72.28c-.13.33-.37.65-.29.8.12.22.47.31.72.46.09-.23.31-.51.24-.68-.08-.22-.39-.35-.68-.57ZM35.02,96.21c0,.24.02.48.03.72.42-.03.83-.06,1.25-.13.03,0,.04-.47.02-.48-.43-.06-.86-.09-1.29-.12Z"/>
      <path class="cls-1" d="M39.91,90.05c-.35.02-.69.04-1.04.05,0-.09-.01-.17-.02-.26.35-.02.69-.04,1.04-.06l.02.27Z"/>
    </g>
  </g>
</svg>