<?xml version="1.0" encoding="UTF-8"?>
<svg id="_레이어_2" data-name="레이어 2" xmlns="http://www.w3.org/2000/svg" viewBox="0 0 47.17 100">
  <defs>
    <style>
      .cls-1 {
        fill: #fff;
        stroke-width: 0px;
      }
    </style>
  </defs>
  <g id="_레이어_1-2" data-name="레이어 1">
    <path class="cls-1" d="M44.31.17v11.13c-6.78.69-13.45.55-19.67,2.17-10.04,2.61-13.25,10.92-11.07,20.23.63,2.68,3.32,5.2,5.65,7.07,2.17,1.74,5.06,2.69,7.75,3.67,14.45,5.27,20.15,13.33,20.2,28.78.05,14.16-8.01,23.87-21.93,26.43C12.33,102.03,0,91.77,0,78.64,0,76.33,0,74.02,0,70.64c4.2.77,7.8,1.13,11.2,2.15,2.36.71,4.07,2.01,3.06,5.5-1.27,4.41,5.99,8.85,11.69,7.46,6.02-1.46,10.1-6.38,10.43-12.57.39-7.32-3.14-12.55-10.04-15.18-5.08-1.94-10.34-3.6-15.06-6.21C2.19,46.79-.93,38.99.48,28.55c.8-5.89,1.53-11.7,4.9-16.75C10.85,3.63,19.4,1.24,28.4.28c5.14-.55,10.4-.1,15.92-.1Z"/>
  </g>
</svg>