<?xml version="1.0" encoding="UTF-8"?>
<svg id="_레이어_2" data-name="레이어 2" xmlns="http://www.w3.org/2000/svg" viewBox="0 0 68.42 103.74">
  <defs>
    <style>
      .cls-1 {
        fill: #fff;
        stroke-width: 0px;
      }
    </style>
  </defs>
  <g id="_레이어_1-2" data-name="레이어 1">
    <path class="cls-1" d="M0,81.28c5.5-1.67,10.33-3.44,15.32-4.44,1.16-.23,3.29,1.87,4.21,3.36,5.35,8.69,12.49,11.8,22.45,9.43,8.85-2.1,12.78-13.08,6.81-20.14-2.36-2.79-5.85-4.85-9.18-6.54-6.65-3.38-13.64-6.1-20.33-9.42-11.28-5.6-16.92-14.54-15.6-27.44C4.89,14.18,12.26,5.09,24.7,1.66c21.38-5.9,35.87,4.37,42.58,24.37.2.59.02,1.3.02,2.48-2.51.56-5.04,1.17-7.58,1.69q-7.75,1.6-10.73-5.44c-4.43-10.46-18.67-13.07-26.17-4.8-5.06,5.58-4.68,13.35,1.8,17.09,6.84,3.95,14.36,6.74,21.66,9.88,7.63,3.29,14.57,7.55,18.78,14.92,7.44,13.03,2.06,31.42-11.62,37.61-16.65,7.53-38.62,6.29-50.65-12.95-.93-1.49-1.67-3.11-2.79-5.21Z"/>
  </g>
</svg>