<?xml version="1.0" encoding="UTF-8"?>
<svg id="_레이어_2" data-name="레이어 2" xmlns="http://www.w3.org/2000/svg" viewBox="0 0 51.59 100">
  <defs>
    <style>
      .cls-1 {
        fill: #fff;
        stroke-width: 0px;
      }
    </style>
  </defs>
  <g id="_레이어_1-2" data-name="레이어 1">
    <path class="cls-1" d="M32.74,37.52c.11.31.23.48.2.58-2.99,8.86,4,12.3,9.51,15.23,5.18,2.75,7.07,6.74,8.4,11.6,3.21,11.71-4.24,27.98-15.01,33.16-6.48,3.12-12.74,2.25-18.53-1.43-4.01-2.54-7.53-5.84-11.37-8.66C-.31,83.41.26,77.28,1.68,70.54c5.46,4.3,10.63,8.44,15.87,12.47,1.59,1.23,3.31,2.35,5.12,3.22,5.92,2.86,9.99,1.06,12.07-5.18,3.6-10.81-1.47-20.24-12.62-22.96-10.93-2.67-18.55-9.04-20.93-20.06C-1.32,26.45-.31,15.19,8.66,6.09,14,.68,20.97.1,27.96,0c3.58-.05,7.16.52,11.18.85v14.77c-1.76-.13-3.48.22-4.67-.42-9.85-5.32-18.54-2.16-20.9,8.42-1.4,6.3-2.05,13.13,3.72,18.15,1.99,1.73,3.98,4.19,7.01.31,1.74-2.22,5.35-2.98,8.44-4.56Z"/>
  </g>
</svg>