<?xml version="1.0" encoding="UTF-8"?>
<svg id="_레이어_2" data-name="레이어 2" xmlns="http://www.w3.org/2000/svg" viewBox="0 0 51.68 91.43">
  <defs>
    <style>
      .cls-1 {
        fill: #fff;
        stroke-width: 0px;
      }
    </style>
  </defs>
  <g id="_레이어_1-2" data-name="레이어 1">
    <path class="cls-1" d="M1.98,75.01c6.34,2.48,12.15,5.33,18.28,6.98,6.39,1.72,14.7-2.19,16.86-6.9,2.69-5.87,1.13-12.23-5.02-17.31-3.94-3.26-8.5-5.77-12.83-8.55-2.94-1.88-6.1-3.43-8.9-5.49C-4.44,32.9-2.58,12.37,13.94,3.87,21.5-.02,29.58-1.12,37.67,1.22c3.04.88,5.72,3.69,8.02,6.13.88.93.23,3.29.28,5-1.55,0-3.18.32-4.64-.05-3.37-.84-6.6-2.35-9.99-2.97-7.69-1.4-12.5,2.31-16.27,12.06-2.11,5.46-.17,10.49,5.91,14.25,3.38,2.09,7.1,3.62,10.58,5.55,3.63,2.01,7.46,3.81,10.66,6.38,6.85,5.51,10.88,12.28,8.97,21.74-1.94,9.64-7.08,16.04-16.24,19.78-11.45,4.68-21.82,1.77-31.96-3.62-3.76-1.99-3.88-5.01-1.03-10.46Z"/>
  </g>
</svg>