<?xml version="1.0" encoding="UTF-8"?>
<svg id="_레이어_2" data-name="레이어 2" xmlns="http://www.w3.org/2000/svg" viewBox="0 0 51.14 90.46">
  <defs>
    <style>
      .cls-1 {
        fill: #fff;
        stroke-width: 0px;
      }
    </style>
  </defs>
  <g id="_레이어_1-2" data-name="레이어 1">
    <path class="cls-1" d="M20.88,90.46c-5.68-2.08-11.41-4-17-6.29-2.75-1.13-3.72-3.81-1.75-6.07.74-.84,3.85-.49,5.32.32,12.73,7.09,21.24,4.42,26.51-8.56,2.68-6.6,1.58-10.62-4.43-14.47-5.75-3.67-11.65-7.1-17.57-10.5C4.23,40.46-.01,33.81,0,24.96.01,15.8,4.03,8.9,12.31,4.2,24.09-2.48,35.79-.03,47.55,3.6c1.07.33,2.26,3.1,1.91,4.31-.3,1.04-2.75,2.12-4.2,2.05-5.63-.26-11.24-1.46-16.85-1.4-8.55.09-13.53,5.21-13.93,13.21-.23,4.55,1.32,8.28,5.29,10.57,3.88,2.24,8.25,3.68,11.91,6.2,5.26,3.61,10.85,7.23,14.9,12.02,6.63,7.84,5.8,19.89-1.07,27.54-6.4,7.13-14.48,11.05-24.63,12.37Z"/>
  </g>
</svg>