<?xml version="1.0" encoding="UTF-8"?>
<svg id="_레이어_2" data-name="레이어 2" xmlns="http://www.w3.org/2000/svg" viewBox="0 0 56.57 100">
  <defs>
    <style>
      .cls-1 {
        fill: #fff;
        stroke-width: 0px;
      }
    </style>
  </defs>
  <g id="_레이어_1-2" data-name="레이어 1">
    <path class="cls-1" d="M0,0c7.83.63,15.73.84,23.47,2.04,4.33.67,8.73,2.41,12.51,4.65,5.49,3.24,8.27,2.36,9.3-3.98.08-.52.19-1.03.36-1.91.77.35,1.74.47,1.92.92.78,1.89,1.59,3.84,1.9,5.85,1,6.63,1.73,13.3,2.68,19.93.59,4.16,1.38,8.3,2.13,12.76h-6.52c-.49-3.2-1.02-6.33-1.46-9.49-1.08-7.8-4.88-14.14-10.93-18.94-4.08-3.24-9.12-4.03-14.3-3.64-7.26.54-12.04,4.68-14.63,11.06-2.82,6.92-3.14,14.25-1.3,21.54.33,1.32,1.36,2.46,1.8,3.23,1.49.11,2.56-.11,3.3.28,6.79,3.6,14.23,5.28,21.54,7.28,7.02,1.93,13.46,5.1,18.66,10.01,4.29,4.05,6.96,9.4,5.92,15.74-.44,2.68-.74,5.49-1.78,7.95-2.3,5.41-6.16,9.52-11.88,11.43-8.79,2.92-17.9,3.64-27.07,3.16C10.39,99.59,5.2,98.71,0,98.1c0-2.29,0-4.58,0-6.88,7.56,3.52,15.62,5.11,23.81,4.48,7.85-.6,9.62-1.32,11.56-9.46.75-3.15.32-6.71-.15-10-.64-4.46-2.29-8.72-5.62-11.89-3.28-3.13-6.86-5.95-10.47-8.71-2.28-1.74-4.69-3.52-7.33-4.55-4.11-1.59-8.26-2.98-11.8-5.71C0,30.26,0,15.13,0,0Z"/>
  </g>
</svg>