<?xml version="1.0" encoding="UTF-8"?>
<svg id="_레이어_2" data-name="레이어 2" xmlns="http://www.w3.org/2000/svg" viewBox="0 0 98.32 100">
  <defs>
    <style>
      .cls-1 {
        fill: #fff;
        stroke-width: 0px;
      }
    </style>
  </defs>
  <g id="_레이어_1-2" data-name="레이어 1">
    <path class="cls-1" d="M2.5,60.27c14.13,7.62,28.98,9,43.45,11.87,1.72.34,3.52,1.07,5.16.82,2.76-.43,5.41-1.51,8.11-2.32-1.97-1.59-3.71-3.72-5.95-4.68-8.9-3.82-17.97-7.26-26.96-10.9-2.95-1.19-5.97-2.32-8.72-3.89-7.45-4.25-13.95-9.6-13.99-19.05-.04-10.52,2.51-20.34,13.37-24.87,6.04-2.52,12.58-4.25,19.06-5.24,7.69-1.17,15.61-.78,23.35-1.73,10.24-1.25,19.23,1.75,27.6,7.11,2.2,1.41,4.1,3.58,5.57,5.78,5.34,8.04,7.45,25.59,4.31,35.73h-23.82c-.11.38-.22.76-.33,1.14,1.98,1.11,3.92,2.29,5.93,3.33,12.7,6.62,16.43,17.71,9.86,30.44-5.03,9.74-13.01,16.31-24.16,16.18-15.42-.18-31.01-.58-46.14-3.19-6.37-1.1-11.79-7.98-17.45-12.49-.81-.65-.83-2.73-.68-4.09.66-6.32,1.51-12.61,2.43-19.96ZM49.96,26.75c-2.94,0-6.3-.22-9.61.07-2.47.21-5.38.58-5.37,4.13.02,3.44,2.79,3.88,5.31,4.31,9.05,1.54,18.09,3.11,27.18,4.38,1.1.15,3.24-1.19,3.53-2.23,1.64-5.9-.72-9.19-6.82-9.77-4.58-.43-9.19-.59-14.21-.89Z"/>
  </g>
</svg>