<?xml version="1.0" encoding="UTF-8"?>
<svg id="_레이어_2" data-name="레이어 2" xmlns="http://www.w3.org/2000/svg" viewBox="0 0 75.55 100">
  <defs>
    <style>
      .cls-1 {
        fill: #fff;
        stroke-width: 0px;
      }
    </style>
  </defs>
  <g id="_레이어_1-2" data-name="레이어 1">
    <g>
      <path class="cls-1" d="M49.55,99.48c7.05-14.77,2.23-27.8-12.6-32.62-8.8-2.86-16.97-8.52-24.54-14.12C-4.86,39.95-3.07,23.22,11.4,9.45,23.29-1.88,38.09-1.56,52.84,2.83c5.98,1.78,6.21,9.24.66,18.27-3.02-2.76-6.13-5.24-8.81-8.11-5.63-6.04-12.24-6.74-19.76-4.52-6.61,1.95-7.73,7.35-8.13,12.87-.56,7.77-1.13,15.61,7.33,20.48,13.69,7.88,27.44,15.71,40.64,24.37,10.26,6.73,12.61,13.26,9.5,20.66-4.62,11.01-11.44,14.63-24.73,12.63Z"/>
      <path class="cls-1" d="M45.52,40.74c-7.86-2.07-8.32-7.78-6.45-13.35.58-1.75,7.03-3.73,7.86-2.84,5.14,5.47,1.69,10.77-1.41,16.2Z"/>
    </g>
  </g>
</svg>