<?xml version="1.0" encoding="UTF-8"?>
<svg id="_레이어_2" data-name="레이어 2" xmlns="http://www.w3.org/2000/svg" viewBox="0 0 60.45 100">
  <defs>
    <style>
      .cls-1 {
        fill: #fff;
        stroke-width: 0px;
      }
    </style>
  </defs>
  <g id="_레이어_1-2" data-name="레이어 1">
    <path class="cls-1" d="M1.43,75.14c5.19,1.06,9.44,1.85,13.64,2.82,3.72.86,7.35,2.3,11.11,2.79,3.4.45,4.73-1.35,3.28-4.49-1.59-3.44-3.56-6.96-6.22-9.6-5.71-5.68-11.87-10.92-18.02-16.12-3.67-3.1-5.86-6.56-5.06-11.52,1.27-7.82,2.42-15.66,3.77-23.46.2-1.18,1.11-2.32,1.91-3.29C13.85,2.5,24.19-1.37,36.6.43c4.83.7,9.57,1.98,14.39,2.78,3.45.57,4.36,2.63,3.93,5.68-.87,6.12-1.8,12.23-2.74,18.64-5.94-.66-11.71-1.22-17.45-1.96-4.19-.54-7.59.93-10.48,3.77-3.69,3.62-3.18,7.96,1.14,10.69,8.28,5.24,16.63,10.38,24.78,15.83,2.47,1.65,4.51,4.04,6.46,6.34,6.2,7.32,3.9,17.36-.09,23.18-4.91,7.16-11.24,13-19.99,14.28-5.85.85-12.03-.16-18.02-.75-4.17-.41-8.3-1.38-12.37-2.39-1.01-.25-2.33-1.57-2.47-2.55-.86-5.75-1.42-11.54-2.25-18.84Z"/>
  </g>
</svg>