<?xml version="1.0" encoding="UTF-8"?>
<svg id="_레이어_2" data-name="레이어 2" xmlns="http://www.w3.org/2000/svg" viewBox="0 0 80.03 100">
  <defs>
    <style>
      .cls-1 {
        fill: #fff;
        stroke-width: 0px;
      }
    </style>
  </defs>
  <g id="_레이어_1-2" data-name="레이어 1">
    <path class="cls-1" d="M77.82,0v21.56c-1.26,0-2.73.02-4.21,0-12.52-.22-25.04-.5-37.56-.64-2.68-.03-5.4.28-8.04.78-2.99.57-5.4,2.2-5.43,5.61-.02,3.39,2.08,5.72,5.16,6.46,3.98.96,8.11,1.38,12.2,1.81,6.15.65,12.45.52,18.45,1.81,7.88,1.69,16.14,3.51,19.48,12.55.44,1.21,1.03,2.41,1.2,3.66,1.38,9.92,1.41,19.81-.8,29.63-1.08,4.78-3.87,8.03-8.14,10.69-7.57,4.71-15.53,6.41-24.34,6.04-13.4-.56-26.82-.68-40.24-.8-3.96-.04-5.6-1.71-5.55-5.56.08-6.53.02-13.05.02-19.34,11.72.27,23.16.71,34.59.72,5.13,0,10.28-.7,15.37-1.42,1.67-.24,3.47-1.23,4.74-2.39,3.48-3.17,2.48-8.61-1.99-10.18-3.1-1.09-6.47-1.62-9.77-1.88-4.11-.33-8.26-.24-12.39-.13-7.43.19-13.42-2.65-18.66-7.85C5.67,44.94,1.16,38.03.31,29.04-.84,16.81,3.05,7.62,13.57,1.66c1.52-.86,3.39-1.57,5.11-1.58C38.14-.03,57.61,0,77.82,0Z"/>
  </g>
</svg>