<?xml version="1.0" encoding="UTF-8"?>
<svg id="_레이어_2" data-name="레이어 2" xmlns="http://www.w3.org/2000/svg" viewBox="0 0 73.49 100">
  <defs>
    <style>
      .cls-1 {
        fill: #fff;
        stroke-width: 0px;
      }
    </style>
  </defs>
  <g id="_레이어_1-2" data-name="레이어 1">
    <path class="cls-1" d="M4.55,79.41c4.44,0,8.03-.08,11.62.04,1.18.04,2.55.32,3.48.98,4.36,3.13,9.07,2.54,13.64,1.16,5.75-1.73,6.8-7.67,2.26-11.59-1.19-1.03-2.59-1.81-3.81-2.81-2.11-1.74-3.96-1.93-6.31-.1-1.25.97-3.35,1.41-4.98,1.25-6.6-.67-13.16-1.68-20.22-2.62-.24-7.93-1.06-15.89,3.01-23.3,3.29-6,7.43-11.33,12.83-15.58,4.37-3.44,6.71-7.77,6.7-13.38,0-3.69,1.41-6.55,5.09-7.99,1.15-.45,2.22-1.12,3.27-1.77,9.41-5.77,18.55-4.42,27.27,1.39,7.22,4.82,9.94,7.95,12.16,12.75-1.15.9-2.3,1.95-3.59,2.77-8.44,5.31-14.89,12.73-21.15,20.28-3.37,4.06-1.86,8.86,2.88,10.91,6.95,3.01,13.76,6.27,19.11,11.89,8.33,8.77,7.45,20.54-2.13,28.02-11.27,8.81-28.1,10.7-41.21,5.11-7.15-3.05-13.24-7.23-17.87-13.46-.82-1.1-1.28-2.46-2.04-3.96Z"/>
  </g>
</svg>