<?xml version="1.0" encoding="UTF-8"?>
<svg id="_레이어_2" data-name="레이어 2" xmlns="http://www.w3.org/2000/svg" viewBox="0 0 88.8 100">
  <defs>
    <style>
      .cls-1 {
        fill: #fff;
        stroke-width: 0px;
      }
    </style>
  </defs>
  <g id="_레이어_1-2" data-name="레이어 1">
    <path class="cls-1" d="M6.14,95.81c.47-6.24.91-12.21,1.3-17.5,10.44.64,20.47,1.39,30.52,1.81,4.2.18,8.44-.21,12.63-.63,1.19-.12,2.28-1.25,3.41-1.92-.9-1-1.66-2.65-2.73-2.89-4.79-1.05-9.66-1.75-14.51-2.46-3.57-.52-7.19-.72-10.75-1.28C9.26,68.36-2,52.79.3,35.74,2.23,21.37,8.57,9.94,21.98,3.25,28.22.14,34.91-.55,41.68.39c11.08,1.53,22.13,3.36,32.12,8.9,2.42,1.34,5.06,2.42,7.18,4.14,1.08.87,2.13,3.36,1.64,4.33-3.14,6.21-6.69,12.22-10.16,18.27-1.28,2.22-2.82,1.96-5.12,1.03-7.09-2.87-14.2-6.18-21.63-7.62-8.14-1.57-15.15,2.88-21.4,7.83-2.03,1.61-1.4,3.65.47,5.2,2.73,2.25,5.88,2.07,9.23,1.98,15.1-.43,29.91.84,42.78,9.94,8.66,6.12,12.58,14.78,11.95,25.25-.58,9.7-9.4,18.43-19.04,19.4-18.07,1.81-36.05,1.12-53.95-1.95-2.95-.5-5.93-.78-9.61-1.26Z"/>
  </g>
</svg>