<?xml version="1.0" encoding="UTF-8"?>
<svg id="_레이어_2" data-name="레이어 2" xmlns="http://www.w3.org/2000/svg" viewBox="0 0 64.69 94.03">
  <defs>
    <style>
      .cls-1 {
        fill: #fff;
        stroke-width: 0px;
      }
    </style>
  </defs>
  <g id="_레이어_1-2" data-name="레이어 1">
    <path class="cls-1" d="M62.78,12.67c-2.68,3.22-5.17,6.23-7.98,9.61-1.92-1.26-3.6-2.34-5.25-3.46-5.5-3.75-11.62-4.83-18.1-4.03-4.22.52-7.49,2.76-8.77,6.89-1.32,4.25.96,7.48,4.42,9.47,4.56,2.63,9.42,4.74,14.17,7.02,2.46,1.18,5,2.18,7.46,3.36,11.22,5.38,17.04,14.13,15.79,26.72-1.21,12.21-8.48,19.72-19.76,23.73-15.88,5.64-35.87-.8-44.76-14.76,3.43-2.87,6.91-5.78,10.53-8.81,2.47,2.07,4.63,4.02,6.93,5.77,7.14,5.43,15.03,7.3,23.59,4.04,4.37-1.66,7.48-4.75,8.09-9.74.68-5.52-1.31-9.88-6.18-12.47-5.11-2.71-10.48-4.92-15.7-7.43-3.07-1.48-6.17-2.95-9.07-4.73-9.16-5.62-13.07-13.96-11.17-24.45C8.83,9.45,15.79,3.99,25.12,1.23c12.65-3.74,29.64,1.29,37.66,11.44Z"/>
  </g>
</svg>