<?xml version="1.0" encoding="UTF-8"?>
<svg id="_레이어_2" data-name="레이어 2" xmlns="http://www.w3.org/2000/svg" viewBox="0 0 78.32 100">
  <defs>
    <style>
      .cls-1 {
        fill: #fff;
        stroke-width: 0px;
      }
    </style>
  </defs>
  <g id="_레이어_1-2" data-name="레이어 1">
    <path class="cls-1" d="M26.04,100c-5.69-2.99-11.37-5.98-17.06-8.97-.22-.12-.43-.27-.64-.42-8.58-5.93-8.61-6.06-4.05-15.06.8-1.58,1.56-3.18,2.56-5.22,1.99.97,3.88,1.89,5.77,2.8,9.09,4.36,18.22,8.74,28.68,8.13,3.13-.18,6.35-.75,9.28-1.82,7.58-2.76,9.01-9.97,2.56-14.91-4.14-3.17-9.27-5.22-14.21-7.12-7.47-2.88-15.15-5.22-22.76-7.73C6.88,46.6,1.51,40.13.25,30.57-1.09,20.46,3.04,12.39,10.86,6.19,19.08-.33,28.66-.87,38.47.81c10.85,1.86,20.65,5.92,26.92,15.63,1.82,2.83,3.55,6.12,3.97,9.37.99,7.76,1.16,15.62,1.66,23.44-.41.16-.81.32-1.22.47-2-1.22-4.04-2.37-5.99-3.66-4.13-2.72-8.05-5.81-12.37-8.16-2.91-1.58-3.65-3.57-3.24-6.48.11-.76.22-1.51.34-2.27,1.16-7.36-.31-10.16-7.8-11.75-3.92-.83-8.3-.44-12.3.31-3.91.73-5.69,4.18-5.92,7.97-.22,3.69,2.41,5.92,5.43,7.15,6.71,2.73,13.58,5.04,20.35,7.63,4.28,1.63,8.59,3.24,12.71,5.22,15.7,7.53,21.96,25.35,13.57,40.58-2.49,4.53-7.54,7.66-11.49,11.36-1,.94-2.27,1.6-3.41,2.39H26.04Z"/>
  </g>
</svg>