<?xml version="1.0" encoding="UTF-8"?>
<svg id="_레이어_2" data-name="레이어 2" xmlns="http://www.w3.org/2000/svg" viewBox="0 0 60.76 100">
  <defs>
    <style>
      .cls-1 {
        fill: #fff;
        stroke-width: 0px;
      }
    </style>
  </defs>
  <g id="_레이어_1-2" data-name="레이어 1">
    <g>
      <path class="cls-1" d="M31.84,22.03c1.69-2.52,3.3-4.93,5.06-7.56-3.91-5.65-9.92-4.01-15.6-4.37-1.72,2-3.52,4.11-6.01,7.02v9.01c10.33,6.22,22.03,8.4,32.48,13.84,8.48,4.41,14.21,15.68,12.77,23.28-1.32,6.94-4.14,13.64-8.86,19.01-5.18,5.9-11.01,11.22-16.63,16.73-.5.49-1.45.51-3.03,1.01.29-2.47.52-4.39.82-6.88.38.34.07-.13-.35-.26-.51-.16-1.11-.03-1.67-.04-12.64-.12-12.82.21-23.06-5.29-2.57-1.38-7.05-.2-7.77-4.4,3.34-3.06,6.58-6.04,10.31-9.46,1.77,1.79,5.38,3.8,8.74,5.99,3.55,2.32,7.89-.66,10.56,2.92,2.92-1.08,5.86-2.12,8.76-3.25,4.82-1.89,6.78-5.78,7.1-10.65.17-2.52-.02-5.05.04-7.58.07-3.15-1.05-5.78-3.36-7.88-3.56-3.23-7.57-5.78-12.01-7.61-4.08-1.69-8.28-3.1-12.27-4.95-3.78-1.75-7.62-3.57-10.97-6-3.32-2.42-5.73-5.87-5.23-10.39.35-3.19.02-6.28,1.05-9.64C4.77,7.96,9.41,4.44,14.81,1.22c.67-.4,1.36-1.13,2.04-1.12,9.43.04,19.02-1.29,27.58,4.62,2.7,1.86,6.21,2.55,9.66,3.89-1.99,2.5-3.48,4.65-5.25,6.53-1.56,1.65-3.32,3.18-5.23,4.39-1.04.66-2.58.5-3.88.77-2.58.54-5.15,1.13-7.89,1.73Z"/>
      <path class="cls-1" d="M32.01,21.98c-.14,2.52-2.1,1.43-3.37,1.69.14-2.52,2.1-1.43,3.37-1.69Z"/>
      <path class="cls-1" d="M28.63,23.66c-.14,2.52-2.1,1.43-3.37,1.69.14-2.52,2.1-1.43,3.37-1.69Z"/>
      <path class="cls-1" d="M25.26,26.1c-.33.26-.67.52-1,.78-.1-.35-.38-.94-.28-1.02.35-.27.84-.35,1.28-.51,0,.25,0,.5,0,.75Z"/>
    </g>
  </g>
</svg>