<?xml version="1.0" encoding="UTF-8"?>
<svg id="_레이어_2" data-name="레이어 2" xmlns="http://www.w3.org/2000/svg" viewBox="0 0 86.78 100">
  <defs>
    <style>
      .cls-1 {
        fill: #fff;
        stroke-width: 0px;
      }
    </style>
  </defs>
  <g id="_레이어_1-2" data-name="레이어 1">
    <g>
      <path class="cls-1" d="M36.47,50.77c9.9-2,17.54-8.45,25.73-13.89,4.93-3.27,10.25-5.23,16.12-4.61,2.67.28,5.2,1.89,8.45,3.14-5.7,9.91-7.6,21.11-14.05,30.5-7.06,10.28-14.54,20.18-25.46,26.42-7.62,4.35-15.92,7.68-25.07,7.64-5.27-.02-10.55.12-15.82-.15-.71-.04-1.33-1.99-2.81-4.38,4.64,0,7.91,0,11.17,0,2.57,0,4.69-.71,7.14-1.92,3.27-1.61,7.44-5.23,11.72-.52.6.66,3.95-.78,5.81-1.7,11.28-5.57,17.01-15.7,22.65-26.86-6.61-1.08-12.23-2.03-17.87-2.91-4.29-.67-6.87-4.08-7.71-10.79Z"/>
      <path class="cls-1" d="M18.37,12.94v10.07c0,1.12.43,2.94-.07,3.25-5.79,3.56-4.62,10.24-6.35,15.32-1.7,5.01-.37,11.04-.37,17.83-2.92-1.71-5.53-2.96-7.81-4.65-2.41-1.78-3.46-4.03-3.69-7.45-.72-10.9,2.89-19.68,10.82-26.95,2.41-2.21,4.64-4.6,7.47-7.43Z"/>
      <path class="cls-1" d="M20.48,12.06c3.79-5.72,10.08-7.73,15.07-11.4,2.44-1.79,25.29.41,29.09,2.23,1.7.81,2.7,3.1,4.91,5.81-2.96.4-4.59.8-6.22.81-7.83.07-15.67-.06-23.5.06-6.46.1-13.15-1.44-19.36,2.49Z"/>
      <path class="cls-1" d="M18.37,14.06c.75-.75,1.51-1.51,2.26-2.26-.75.75-1.51,1.51-2.26,2.26Z"/>
    </g>
  </g>
</svg>