<?xml version="1.0" encoding="UTF-8"?>
<svg id="_레이어_2" data-name="레이어 2" xmlns="http://www.w3.org/2000/svg" viewBox="0 0 92.82 100">
  <defs>
    <style>
      .cls-1 {
        fill: #fff;
        stroke-width: 0px;
      }
    </style>
  </defs>
  <g id="_레이어_1-2" data-name="레이어 1">
    <g>
      <path class="cls-1" d="M18.57,67.16c5.3,11.77,13.76,16.7,26.5,14.48.99-1.14,2.4-2.77,4.29-4.94.45-2.49-.61-5.34-3.14-7.51-5.29-4.51-11.25-8.15-17.73-10.43-5.04-1.77-9.69-4.16-13.88-7.16-3.78-2.71-7.68-5.72-10.06-9.91-1.79-3.15-4.12-6.26-3.32-10.3-2.83-3.62,0-7.02.68-10.35.94-4.62,2.86-9,6.76-12.1C15.02,3.88,21.65-.22,30.33,0c5.46.15,10.72.77,15.79,2.73,1.86.72,3.54,2.08,5.44,2.48,2.07.44,4.35-.16,6.46.18,1.94.31,3.83,1.16,5.66,1.96,3.6,1.57,3.58,1.62,3.86,6.39-6.25,6.42-13.6,12.28-17.05,22.09-3.06-3.42-6.1-5.51-6.52-10.01-.3-3.16-3.05-5.64-5.65-7.24-2.49-1.53-5.61-2.47-8.54-2.74-4.56-.42-12.36,5.67-12.79,10.06-.21,2.21.68,5.06,2.09,6.79,2.61,3.2,5.63,5.97,9.64,7.85,8.35,3.92,16.48,8.36,24.5,12.94,5.25,3,10.16,6.58,13.04,12.24.37.73,1.1,1.35,1.8,1.84,2.3,1.6,2.43,3.79,1.85,6.21-3.72,1.91-4.33,3.13-3.69,7.45.47,3.18.16,5.25-1.46,6.74-1.51,1.38-3.15,2.74-4.97,3.65-4.82,2.44-9.7,4.78-14.69,6.84-1.66.69-4.35-.31-5.48.69-1.93,1.72-2.82.45-4.32-.15-1.12-.45-2.57-.02-3.86-.1-6.67-.39-12.68-2.07-18.14-6.48-3.81-3.09-7.31-6.42-10.79-9.82-1.99-1.94-1.91-3.86.23-5.29,5.05-3.37,10.22-6.56,15.82-10.13Z"/>
      <path class="cls-1" d="M84.1,72.72c-.72,2.53-1.06,2.88-3.5,3.53.98-.99,2.59-2.62,3.5-3.53Z"/>
      <path class="cls-1" d="M86.27,68.89c2.12-1.42,2.84-3.85,6.55-3.76-2.19,1.99-2.99,4.31-6.55,3.76Z"/>
      <path class="cls-1" d="M87.02,69c-.43.43-.87.87-1.3,1.3.43-.43.87-.87,1.3-1.3Z"/>
      <path class="cls-1" d="M85.72,70.3c-.43.43-.87.87-1.3,1.3.43-.43.87-.87,1.3-1.3Z"/>
    </g>
  </g>
</svg>