<?xml version="1.0" encoding="UTF-8"?>
<svg id="_레이어_2" data-name="레이어 2" xmlns="http://www.w3.org/2000/svg" viewBox="0 0 64.78 100">
  <defs>
    <style>
      .cls-1 {
        fill: #fff;
        stroke-width: 0px;
      }
    </style>
  </defs>
  <g id="_레이어_1-2" data-name="레이어 1">
    <g>
      <path class="cls-1" d="M14.75,74.79c2.03,6.76,5.24,10.81,12.22,10.65,2.06-.05,3.75,2.6,6.47.96,1.67-1.01,3.95-1.02,6.31-1.55,1.44-1.44,3.18-3.18,5.26-5.26,0-1.52-.17-3.4.03-5.24.51-4.69-1.78-6.91-5.86-9.06-5.25-2.77-10.87-4.11-16.3-6.16-3.85-1.45-7.74-2.32-10.82-5.69-3.05-3.34-4.13-7.11-4.69-11.2-.42-3.08.32-6.21-1.55-9.23-.86-1.38-.91-4.3,0-5.53,2.6-3.53.99-7.29,1.48-10.89.71-5.16-1.27-9.26-5.11-12.63C1.46,3.31.99,2.36,0,1,3.09-.15,5.1-.2,7.85,1.09c1.74.82,4.62-.79,5.98-1.09,2.77,3.12,4.47,6.08,7.02,7.65,3.29,2.02,1.98,5.98,4.46,8.06-2.12,2.12-4.25,4.25-6.52,6.52,0,2.56-.01,5.27,0,7.98.05,8.77,7.19,17.03,15.83,17.32,8.73.3,15.4,4.26,21.18,10.17,2.75,2.81,5.99,5.13,7.79,9.02.87,1.88,1.62,3.93.94,5.21-1.88,3.55-1.46,7.2-1.47,10.86-.01,3.76-1.33,7.13-3.5,9.99-2.13,2.81-5.37,3.53-8.9,4.18-5.56,1.03-11,3.38-16.68,2.99-8.98-.62-17.57-2.61-23.46-10.55-2.32-3.12-3.54-8.77-1.48-11.04,1.26-1.39,3.28-2.1,5.73-3.58Z"/>
      <path class="cls-1" d="M53.2,15.61c0,1.33.17,2.45-.03,3.5-.69,3.59-2.95,4.83-6.23,3.39-5.99-2.63-11.94-5.36-17.91-8.05.04-5.24.61-5.75,4.52-6.19,6.15-.69,11.15,1.68,15.85,5.22,1,.75,2.19,1.24,3.81,2.14Z"/>
    </g>
  </g>
</svg>