<?xml version="1.0" encoding="UTF-8"?>
<svg id="_레이어_2" data-name="레이어 2" xmlns="http://www.w3.org/2000/svg" viewBox="0 0 43.61 100">
  <defs>
    <style>
      .cls-1 {
        fill: #fff;
        stroke-width: 0px;
      }
    </style>
  </defs>
  <g id="_레이어_1-2" data-name="레이어 1">
    <g>
      <path class="cls-1" d="M19.43,82.31c6.4-8.25,4.36-15.71.61-22.97-4.24-8.22-8.99-16.18-13.18-24.43C1.07,23.52,4.27,10.21,15.26,3.99c4.88-2.76,11.33-2.75,17.06-3.99.15.57.31,1.14.46,1.71-.98.41-1.94.88-2.93,1.23-12.58,4.5-19.13,19.31-11.38,30.75,5.34,7.88,10.18,16.23,14.13,24.88,4.32,9.47-.75,18.34-13.17,23.74Z"/>
      <path class="cls-1" d="M40.36,74.25c3.66,2.75,4.18,6.07,1.81,9.04-3.19,4-7.38,7.21-10.63,11.17-6.17,7.5-13.92,5.69-21.66,4.23-3.15-.59-9.68-7.35-9.85-9.91-.28-4.18,2.8-9.25,6.78-10.63,2.94-1.02,5.96-2.26,6.6,2.99.4,3.28,8.03,5.58,12.55,3.73,2.76-1.13,5.15-3.24,7.6-5.06,2.33-1.73,4.5-3.66,6.81-5.56Z"/>
    </g>
  </g>
</svg>