<?xml version="1.0" encoding="UTF-8"?>
<svg id="_레이어_2" data-name="레이어 2" xmlns="http://www.w3.org/2000/svg" viewBox="0 0 59.07 100">
  <defs>
    <style>
      .cls-1 {
        fill: #fff;
        stroke-width: 0px;
      }
    </style>
  </defs>
  <g id="_레이어_1-2" data-name="레이어 1">
    <path class="cls-1" d="M.33,72.19c3.81,3.81,7.09,6.93,10.19,10.22,7.9,8.41,16.9,8.54,25.85,5.08,4.47-1.73,8.32-5.29,9.24-11.42.61-4.09,1.89-7.89-.36-11.57-2.08-3.4-4.36-6.39-8.14-8.74-6.94-4.31-14.13-7.16-22.02-8.85-3.84-.83-7.33-2.91-10.87-5.59.81-1.14,1.62-2.28,2.56-3.61.58,1.23,1.04,2.24,1.51,3.25.26-.06.53-.12.79-.18-.29-1.49-.1-3.42-.97-4.4-2.57-2.9-3.95-5.98-3.57-9.88.2-2.08-3.09-4.19.03-6.28-1.37-3.69,1.62-6.15,3.21-8.41C11.1,7.06,15.39,2.92,21.17,1c4.02-1.34,8.1-1.34,12.15.05,3.86,1.33,7.67,2.46,11.91,2.31,3.28-.11,6.69.61,9.87,1.56,1.11.33,3.34,1.72,1.57,4.51-1.12-.54-2.25-1.38-3.48-1.6-1.81-.32-3.57-3.36-5.7-.23-.18.27-2.42-1.24-3.72-1.28-5.27-.16-10.62-.58-15.8.11-3.62.48-7.46,2.07-9.79,5.22-1.91,2.59-3.79,5.61-4.34,8.67-.45,2.56.25,6.12,1.86,8.07,3.03,3.7,6.03,7.45,10.74,9.83,7.92,3.99,15.97,7.84,23.24,13.18,5.92,4.35,8.85,9.47,9.32,16.78.69,10.67-3.64,18.83-11.4,25.43-3.01,2.56-6.5,4.53-10.83,4.79-4.07.25-8.03,1.32-12.18,1.56-8.47.49-14.1-4.07-18.33-10.13-2.98-4.27-4.24-9.75-6.18-14.72-.23-.59.1-1.4.26-2.93Z"/>
  </g>
</svg>