<?xml version="1.0" encoding="UTF-8"?>
<svg id="_레이어_2" data-name="레이어 2" xmlns="http://www.w3.org/2000/svg" viewBox="0 0 71.41 100">
  <defs>
    <style>
      .cls-1 {
        fill: #fff;
        stroke-width: 0px;
      }
    </style>
  </defs>
  <g id="_레이어_1-2" data-name="레이어 1">
    <path class="cls-1" d="M70.95,24.78h-11.32c-11.12-10.85-12.09-12.87-27.49-11.6-1.08,1.08-2.28,2.08-3.23,3.27-3.79,4.76-4,10.18,0,14.18,4.67,4.68,9.62,9.52,16.32,11.14,5.14,1.24,8.98,4.15,12.64,7.55,2.09,1.93,3.93,4.14,6.07,6,4.75,4.11,5.85,9.86,6.94,15.51.53,2.74.91,6.02-.12,8.43-1.25,2.93-1.64,6.29-4.26,8.79-3.54,3.38-7.16,6.31-11.88,7.89-4.58,1.53-9.07,3.02-14.04,2.67-1.75-.12-3.55.89-5.36,1.2-4.74.83-9.13-1.57-13.79-1.56-1.99-2.12-4.63-1.18-6.77-.9-3.78.49-7.09-1.17-10.61-1.67-1.52-.21-2.72-2.74-4.05-4.2.94-1.13,1.51-2.83,3.29-2.14,10.99,4.29,22.46,2.07,33.73,2.59,2.4.11,4.9.42,7.2-.07,4.36-.92,8.93-1.16,12.55-4.63,4.51-4.33,4.66-9.61,3.11-14.7-1.53-5-5-8.92-9.92-11.58-5.94-3.21-11.56-7.02-17.29-10.6-2.96-1.85-5.86-3.81-8.81-5.69-4.75-3.03-8.01-7.04-9.6-12.61-1.8-6.3-1.46-13.79,1.96-18.61,2.51-3.55,4.78-7.45,9.15-9.27,1.87-.78,3.72-2.76,5.41-2.58,4.28.45,8.21-3.41,12.79-.48,1.6,1.02,4.45,1.17,6.57,1.3,4.89.3,7.85,3.59,11.37,5.97,2.14,1.45,3.74,3.67,5.63,5.49,3.08,2.97,3.97,6.64,3.83,10.92Z"/>
  </g>
</svg>