<?xml version="1.0" encoding="UTF-8"?>
<svg id="_레이어_2" data-name="레이어 2" xmlns="http://www.w3.org/2000/svg" viewBox="0 0 60.99 100">
  <defs>
    <style>
      .cls-1 {
        fill: #fff;
        stroke-width: 0px;
      }
    </style>
  </defs>
  <g id="_레이어_1-2" data-name="레이어 1">
    <path class="cls-1" d="M22.18,19.32c-1.57,9.22,4.51,13.44,11.63,16.88,5.82,2.81,11.13,6.58,16.51,10.02,5.9,3.77,10.01,9.79,10.53,17.57.72,10.9-1.14,18.72-7.01,27.06-1.9,2.7-9.07,6.41-12.73,7.65-5.78,1.96-11.67,1.61-17.41,1.1-6-.53-11.5-3.39-16.35-7.06-2-1.51-4.02-3.29-5.29-5.4-1.2-1.98-3.15-3.91-1.28-7.12,1.21-2.08.52-5.3.59-8.01.09-3.58,1.2-6.75,3.56-9.86,1.87,3.47,3.6,6.68,5.34,9.88,5.02,9.25,15.86,14.64,25.75,12.43,1.98-.44,3.77-2.1,5.45-3.44,1.31-1.04,5-7.97,5.41-9.48.47-1.71-1.91-8.72-3.69-10.81-2.92-3.42-6.66-6.09-10.64-7.65-6.62-2.59-11.84-7.13-17.54-10.99-3.51-2.38-6.01-6.18-7.17-10.07-1.11-3.72-1.39-8.18-.44-11.91,1.25-4.95,3.42-9.74,7.52-13.48,3.53-3.21,7.84-5.07,12.01-5.99,5.26-1.16,10.97-.43,16.48-.27,1.14.03,2.32,1.07,3.36,1.8,1.98,1.4,3.93,2.84,5.78,4.39,3.1,2.6,4.75,5.98,3.99,10.01-.22,1.16-1.73,2.42-2.94,2.95-1.25.55-1.94-.14-2.65-1.86-1.47-3.57-5.51-4.01-8.85-4.87-1.73-.44-3.68.1-5.5-.11-5.85-.67-10.65,1.03-14.4,6.63Z"/>
  </g>
</svg>