<?xml version="1.0" encoding="UTF-8"?>
<svg id="_레이어_2" data-name="레이어 2" xmlns="http://www.w3.org/2000/svg" viewBox="0 0 50.34 100">
  <defs>
    <style>
      .cls-1 {
        fill: #fff;
        stroke-width: 0px;
      }
    </style>
  </defs>
  <g id="_레이어_1-2" data-name="레이어 1">
    <path class="cls-1" d="M50.34,19.83c-9.91,5.93-11.5,5.55-16.89-4.1-3.57-6.39-8.8-9.49-16.13-7.65-6.87,1.73-7.66,7.21-7.88,13.24-.42,11.35,2.11,15.73,12.47,20.34,2.57,1.15,5.12,2.34,7.61,3.65,18.76,9.79,23.06,22.59,14.15,41.97-6.23,13.55-32.55,17.72-40.48,5.32-3.76-5.88-2.82-15-3.01-22.67-.03-1.17,5.42-2.47,9.13-4.05.81,6.96,1.19,11.98,2.02,16.93,1.57,9.36,6.84,13.71,15.5,13.16,7.85-.5,11.49-4.76,12.16-14.23.96-13.58-3.95-21.42-16.64-27C11.82,50.13,2.58,44.65.37,31.57-1.88,18.21,6.28,4,19.12,1.14c17.38-3.87,27.2,2.01,31.21,18.69Z"/>
  </g>
</svg>