<?xml version="1.0" encoding="UTF-8"?>
<svg id="_레이어_2" data-name="레이어 2" xmlns="http://www.w3.org/2000/svg" viewBox="0 0 56.31 100">
  <defs>
    <style>
      .cls-1 {
        fill: #fff;
        stroke-width: 0px;
      }
    </style>
  </defs>
  <g id="_레이어_1-2" data-name="레이어 1">
    <path class="cls-1" d="M43.49,25.38c-1.18-3.48-1.66-6.61-3.19-9.09-4.1-6.67-11.98-8.72-17.11-4.88-5.38,4.02-6.21,11.87-.52,17.59,6.6,6.63,13.84,12.86,21.64,18.01,10.25,6.76,15.09,21.63,9.88,34.41-7.64,18.75-34.01,24.88-47.57,11.12C.45,86.27-.49,78.43.19,70.35c.13-1.54,3.31-4.12,4.86-3.96,3.06.3,6.32,1.73,8.79,3.62,1.06.81.38,3.93.44,5.99.28,8.92,4.39,14.28,13.07,16.87,5,1.49,9.63,1.64,13.22-3.21,5.37-7.25,6.43-16.92,1.19-23.1-4.96-5.84-11.25-10.54-16.46-16.19-5.15-5.58-10.15-11.42-14.37-17.71-6.06-9.03-3.05-18.27,2.46-26.02C18.87-1.06,27.79-.77,36.11,1.13c6.29,1.44,13.6,1.37,16.77,9.1,4.42,10.77,2.31,14.35-9.4,15.16Z"/>
  </g>
</svg>