<?xml version="1.0" encoding="UTF-8"?>
<svg id="_레이어_2" data-name="레이어 2" xmlns="http://www.w3.org/2000/svg" viewBox="0 0 54.13 100">
  <defs>
    <style>
      .cls-1 {
        fill: #fff;
        stroke-width: 0px;
      }
    </style>
  </defs>
  <g id="_레이어_1-2" data-name="레이어 1">
    <path class="cls-1" d="M0,87.58c1.69-3.03,3.18-5.7,5-8.96,1.68,1.82,2.96,3.15,4.19,4.53,3.76,4.2,8.63,6.29,14.06,6.92,6.23.73,11.45-1.3,14.96-6.74,3.7-5.73,3.46-11.78-.07-17.23-2.45-3.78-5.96-6.95-9.33-10.04-4.49-4.11-9.45-7.7-13.94-11.8C5.94,36.1,2.96,25.76,6.8,16.15,11.22,5.09,20.55,1.04,31.5.13c8.82-.73,16.76,1.54,22.63,9.19-.88,2.68-1.75,5.33-2.42,7.39-5.59-2.2-10.78-5.25-16.33-6.22-10.17-1.79-18.19,5.17-16.79,14.23.57,3.67,2.74,7.67,5.39,10.32,4.69,4.7,10.31,8.46,15.51,12.66,6.37,5.13,11.78,11.07,13.6,19.3,3.72,16.84-7.53,31.67-24.92,32.9-11.21.79-20.68-2.8-28.16-12.32Z"/>
  </g>
</svg>