<?xml version="1.0" encoding="UTF-8"?>
<svg id="_레이어_2" data-name="레이어 2" xmlns="http://www.w3.org/2000/svg" viewBox="0 0 61.65 100">
  <defs>
    <style>
      .cls-1 {
        fill: #fff;
        stroke-width: 0px;
      }
    </style>
  </defs>
  <g id="_레이어_1-2" data-name="레이어 1">
    <path class="cls-1" d="M51.82,79.34c.7,1.7-.27,3.64-1.32,5.4-5.14,8.63-12.68,13.48-22.7,14.95-6.37.93-12.2-.37-18.09-2.33-4.52-1.51-6.44-5.28-8.46-9.03-1.02-1.89-1.33-3.82-1.22-6.04.25-5.36.08-10.75.08-16.45.23-.09.9-.33,1.86-.68.19,2.18.32,4.05.52,5.92.39,3.67.57,7.38,1.33,10.98.58,2.75,1.61,5.5,2.96,7.96,1.66,3.03,4.47,4.65,7.91,5.69,5.11,1.54,10.16,1.52,15.25.6,8.57-1.54,17.77-9.25,19.28-18.64.25-1.53.33-3.16.53-4.76.27-2.13-1.65-3.47-2.94-4.92-1.1-1.24-2.58-2.17-3.57-3.48-3.2-4.24-7.56-7.19-11.48-10.64-3.26-2.86-6.68-5.58-9.69-8.68-4.38-4.52-6.47-10.13-6.53-16.43-.08-8.05,2.07-15.39,7.19-21.72,2.33-2.89,5.53-4.47,8.99-5.53,7.05-2.17,14.13-1.78,21.2-.12,2.67.63,5.58,2.34,8.73,5.08-3.82,7.12-10.5,11.87-15.1,18.32-.6-.27-.91-.37-1.18-.55-.18-.12-.29-.33-.76-.9,3.83-4.84,7.73-9.78,11.74-14.86-3.46-3.37-7.65-4.72-12.1-5.32-6.84-.93-13.3.69-18.62,4.87-3.64,2.86-6.49,7.28-6.27,12,.22,4.63,1.5,9.47,5.26,12.99.16.15.39.26.5.45,2.72,4.63,7.66,6.67,11.52,9.98,2.69,2.31,5.24,4.84,7.58,7.51,2.21,2.52,4.12,5.31,6.05,8.07,3.42,4.91,4.32,10.47,3.67,16.28-.13,1.2-1.16,2.3-2.12,4.06Z"/>
  </g>
</svg>