<?xml version="1.0" encoding="UTF-8"?>
<svg id="_레이어_2" data-name="레이어 2" xmlns="http://www.w3.org/2000/svg" viewBox="0 0 67.6 100">
  <defs>
    <style>
      .cls-1 {
        fill: #fff;
        stroke-width: 0px;
      }
    </style>
  </defs>
  <g id="_레이어_1-2" data-name="레이어 1">
    <path class="cls-1" d="M45.92,9.86v3.41c-2.63,1.39-5.02,1.12-6.8-.81-3.73-4.03-8.19-6.65-13.65-7.62-2.57-.45-4.83-.34-7.28.92-5.27,2.7-5.85,4.03-5.54,9.69.37,6.83,3.87,11.59,8.71,15.81,3.74,3.27,7.5,6.54,11.02,10.04,5.29,5.25,11.42,9.27,17.91,12.77,6.16,3.32,11.17,7.9,14.82,13.75,1.41,2.26,1.99,5.23,2.28,7.95,1.32,12.28-4.03,16.75-14.57,21.04-4.64,1.89-9.68,3.4-14.79,3.15-3.85-.2-7.71-1.15-11.47-2.13-5.89-1.53-11.7-3.34-17.53-5.1-.94-.28-1.77-.91-2.55-1.33.2-4.45,1.3-8.39,3.25-12.13.91-1.75,2-2.16,3.82-1.12.83,4.02,3.59,6.5,7.07,8.7,6.63,4.19,13.72,6.62,21.54,6.29,7.61-.32,14.58-2.6,18.94-9.35,2.4-3.71,4.15-7.93,2.55-12.61-1.2-3.48-3.55-6.13-6.57-8.09-1.79-1.16-3.79-2.34-5.83-2.7-6.73-1.18-12.61-4.38-18.66-7.21-9.61-4.5-18.16-10.45-25.87-17.77-3.39-3.21-5.65-6.82-6.28-11.3-.6-4.21-.86-8.57.83-12.6C4,5.06,9.09,1.87,16.01.54c10.08-1.94,18.44,1.59,26.49,6.86,1.06.7,2.07,1.48,3.42,2.45Z"/>
  </g>
</svg>