<?xml version="1.0" encoding="UTF-8"?>
<svg id="_레이어_2" data-name="레이어 2" xmlns="http://www.w3.org/2000/svg" viewBox="0 0 54.94 100">
  <defs>
    <style>
      .cls-1 {
        fill: #fff;
        stroke-width: 0px;
      }
    </style>
  </defs>
  <g id="_레이어_1-2" data-name="레이어 1">
    <path class="cls-1" d="M45.38,9.71c-2.32.56-3.91.2-5.57-1.19-3.43-2.87-7.8-3.21-12.01-3.42-2.91-.15-5.92.19-8.77.81-5.92,1.29-10.84,8.85-10.44,14.94.44,6.82,3.46,12.13,8.66,16.31,7.64,6.13,15.28,12.25,22.99,18.29,5.21,4.08,9.67,8.8,12.38,14.88,2.52,5.66,3.56,11.79.22,17.28-3.09,5.07-7.68,8.87-13.7,10.59-8.51,2.43-17.01,2.23-25.56.36-3.21-.7-4.37-1.65-4.56-4.93-.16-2.84-.24-5.79,1.11-9.05,1.04.64,1.98.93,2.46,1.56,4.96,6.61,11.7,8.83,19.64,8.01,4.54-.47,8.54-2.1,10.91-6.31,2.03-3.62,1.69-7.49.46-11.24-2.22-6.75-7.66-10.67-13.06-14.69-4.93-3.67-9.72-7.56-14.32-11.62-3.54-3.12-6.87-6.53-9.98-10.08-2-2.28-3.81-4.9-5-7.67C.26,30.26-.05,27.52,0,24.99c.1-4.73,1.04-9.33,3.27-13.62C5.95,6.23,10.5,3.51,15.68,1.77,19.84.37,24.2-.36,28.65.17c5.95.71,11.9,1.48,17.62,2.19,1.42,3.04-.44,5.02-.89,7.35Z"/>
  </g>
</svg>