<?xml version="1.0" encoding="UTF-8"?>
<svg id="_레이어_2" data-name="레이어 2" xmlns="http://www.w3.org/2000/svg" viewBox="0 0 119.29 100">
  <defs>
    <style>
      .cls-1 {
        fill: #fff;
        stroke-width: 0px;
      }
    </style>
  </defs>
  <g id="_레이어_1-2" data-name="레이어 1">
    <path class="cls-1" d="M30.32,63.98c4.65,6.16,8.23,12.26,13.1,17.08,13.02,12.88,28.97,14.91,45.99,10.19,1.97-.55,3.13-4.01,4.96-6.51.49.36,2,1.46,3.73,2.72,1.29-7.72-4.27-18.49-10.74-20.13-19.87-5.03-39.85-9.62-59.75-14.53-10.46-2.58-19.61-6.49-21.78-19.08-1.08-6.25-.29-12.12,3.96-15.95,5.53-4.98,11.99-9.62,18.87-12.27C50.34-2.88,72.49-.34,94.64,4.25c4.07.84,8.56-.38,13.83-.71v33.48c-5.33.78-9.35.98-12.8-5.92C84.98,9.7,56.98,1.04,35.27,10.06c-6.74,2.8-7.23,9.38-8.35,14.18-1.11,4.76,4.55,7.82,9.56,10.2,16.28,7.75,34.48,6.73,51.17,12.07,8.86,2.83,17.34,6.97,25.74,11.02,5.64,2.72,6.91,8.37,5.17,14.44-5.16,17.99-18.31,26.91-35.57,27.92-12.49.73-25.25-2.54-37.83-4.39-6.05-.89-11.92-3.11-17.98-3.77-3.13-.34-6.59,1.15-9.74,2.26-11.84,4.16-14.56,2.93-17.09-9.21-.74-3.57-.19-7.52.41-11.19.24-1.47,2.18-2.66,3.35-3.98,1.2,1.28,2.95,2.37,3.5,3.89,1.25,3.41,1.92,7.03,3.22,12.12,6.96-7.73,12.86-14.29,19.48-21.65Z"/>
  </g>
</svg>