<?xml version="1.0" encoding="UTF-8"?>
<svg id="_레이어_2" data-name="레이어 2" xmlns="http://www.w3.org/2000/svg" viewBox="0 0 93.72 100">
  <defs>
    <style>
      .cls-1 {
        fill: #fff;
        stroke-width: 0px;
      }
    </style>
  </defs>
  <g id="_레이어_1-2" data-name="레이어 1">
    <g>
      <path class="cls-1" d="M26.19,43.81c4.16.27,7.51.5,10.86.72.22-.57.44-1.14.65-1.71-3.79-3.94-7.62-7.83-11.33-11.85-1.57-1.7-3.07-3.54-4.25-5.53-3.12-5.29-2.38-9.77,2.01-14.09C32.31,3.3,42.62.34,53.57.04c11.72-.32,23.27,1.45,33.88,6.97,2,1.04,3.63,2.81,6.27,4.92-2.63,1.12-3.85,1.99-5.15,2.14-13.64,1.58-22.29,9.94-29.43,20.82-2.51,3.82-5.8,7.33-9.37,10.2-7.26,5.84-15.19,5.35-23.58-1.28ZM42.56,43.85c8.94-.96,12.71-7.62,14.66-14.15,1.58-5.28-.18-11.53-.36-17.36-.19-6.25-2.3-8.57-8.45-8.41-2.83.07-5.72.62-8.44,1.43-5.51,1.65-6.7,4.06-5.42,9.72.18.81-.1,1.72-.08,2.58.08,3.12-.56,6.5.44,9.29,2.1,5.83,5.07,11.35,7.63,16.89Z"/>
      <path class="cls-1" d="M48.27,52.54c5.53.72,10.62,1.19,15.62,2.18,1,.2,2.31,2.37,2.27,3.59-.12,3.18-.34,6.57-1.54,9.45-3.73,8.88-8.67,17.04-15.99,23.56-6.14,5.47-13.17,8.61-21.44,8.66-5.56.03-11.12.04-16.66-.25-4.55-.23-10.83-4.99-10.5-9.21.33-4.1,3.19-8,4.93-11.99.61.06,1.22.13,1.83.19.84,1.65,1.73,3.28,2.51,4.96,5.02,10.76,18.31,12.14,25.64,2.75,7.75-9.94,13.69-20.57,13.34-33.9Z"/>
    </g>
  </g>
</svg>