<?xml version="1.0" encoding="UTF-8"?>
<svg id="_레이어_2" data-name="레이어 2" xmlns="http://www.w3.org/2000/svg" viewBox="0 0 64.87 100">
  <defs>
    <style>
      .cls-1 {
        fill: #fff;
        stroke-width: 0px;
      }
    </style>
  </defs>
  <g id="_레이어_1-2" data-name="레이어 1">
    <path class="cls-1" d="M35.2.09c7.14-.66,14.06,2.28,20.51,6.57,3.78,2.52,3.99,4.07.94,7.48-2.79,3.12-6.47,5.1-9.96,7.3-1.43.9-2.1-.01-2.92-1-2.03-2.46-4.47-4.43-7.36-5.81-5.9-2.8-13.29.02-15.81,6.02-2.01,4.79-.79,7.82,4.21,10.25,6.04,2.94,12.12,5.81,18.16,8.76,5.57,2.71,10.98,5.52,15.47,10.04,9.01,9.08,7.9,28.42.51,37.4-13.26,16.12-36.55,17.39-51.05,2.39-4.28-4.43-6.3-10.02-7.8-15.84-.31-1.2-.13-2.26,1.25-2.98,3.46-1.8,6.86-3.73,10.25-5.67,1.53-.87,2.49-.67,3.27,1.03,1.59,3.44,3.23,6.86,5.03,10.19,3.67,6.78,11.09,10.35,18.22,8.92,6.11-1.23,10.35-6.46,10.9-13.27.47-5.79-1.13-10.57-5.72-14.47-5.2-4.41-10.77-7.87-17.32-10.01-6.34-2.08-12.71-4.3-16.93-10.21C1.14,26.05,4.47,10.7,16.52,4.14,22.05,1.12,28.01-.31,35.2.09Z"/>
  </g>
</svg>