<?xml version="1.0" encoding="UTF-8"?>
<svg id="_레이어_2" data-name="레이어 2" xmlns="http://www.w3.org/2000/svg" viewBox="0 0 44.34 100">
  <defs>
    <style>
      .cls-1 {
        fill: #fff;
        stroke-width: 0px;
      }
    </style>
  </defs>
  <g id="_레이어_1-2" data-name="레이어 1">
    <path class="cls-1" d="M0,69.22c4.87-1.3,9.04-2.41,13.63-3.64.33,2.66.62,5.38,1.02,8.09.43,2.85.89,5.71,1.49,8.53.67,3.15,2.27,4.55,5.02,4.68,2.91.14,5.8-1.56,6.56-4.27,1.51-5.41.08-10.34-3.07-14.79-5.96-8.42-11.95-16.83-18.01-25.18-4.37-6.02-4.3-12.73-3.15-19.58,1.15-6.84,2.74-13.39,8.24-18.48C20.45-3.49,34.78-.52,38.89,10.59c1.32,3.57,1.79,7.49,3.41,10.89,1.49,3.13,1.05,6.08,1.04,9.35-3.69.31-7.17.59-10.44.86-.66-3.11-1.27-5.77-1.79-8.45-.53-2.73-4.53-5.79-7.76-5.84-3.33-.06-5,1.43-5.85,5.12-1.22,5.32.48,9.99,3.45,14.23,2.46,3.51,5.33,6.72,7.88,10.17,4.11,5.55,8.37,11,12.07,16.82,4.66,7.32,3.96,15.37,1.58,23.23-.87,2.87-2.55,5.6-4.33,8.05-2.48,3.41-5.96,5.27-10.39,4.93-1.85-.14-3.73.05-5.59-.09-.68-.05-1.33-.63-1.98-.99-.47-.26-.94-.86-1.36-.82-3.69.39-5.5-2.24-7.13-4.7-3.53-5.33-7.04-10.7-10.03-16.34-1.27-2.4-1.22-5.51-1.67-7.8Z"/>
  </g>
</svg>