<?xml version="1.0" encoding="UTF-8"?>
<svg id="_레이어_2" data-name="레이어 2" xmlns="http://www.w3.org/2000/svg" viewBox="0 0 136.18 100">
  <defs>
    <style>
      .cls-1 {
        fill: #fff;
        stroke-width: 0px;
      }
    </style>
  </defs>
  <g id="_레이어_1-2" data-name="레이어 1">
    <path class="cls-1" d="M56.45,99.91c-17.1,0-34.2-.12-51.3.09-4.08.05-5.27-1.33-5.14-5.23.24-7.2.22-14.42.02-21.62-.13-4.62.86-7.02,6.38-6.52,28.38,2.6,56.88.85,85.31,2.06,2.18.09,4.37.14,6.54-.02,2.11-.16,4.28-1,4.03-3.47-.21-2.07-2.11-2.77-4.22-2.52-.99.12-2.01.02-3.02.02-20.62,0-41.25-.23-61.87.12-7.94.14-14.57-2.21-20.81-6.79C-.51,46.58-3.9,22.5,6.16,10.17,11.62,3.47,18.62-.05,27.48,0c33.2.19,66.39.3,99.59.24,3.69,0,4.76,1.55,4.79,4.65.06,5.7-.23,11.41.16,17.09.28,4-1.27,4.6-4.83,4.58-28.5-.14-57.01-.08-85.51-.08-1.17,0-2.35.02-3.52,0-2-.05-3.84.2-3.8,2.78.04,2.29,1.53,3.16,3.65,3.25,5.86.26,11.72.72,17.58.77,17.1.16,34.2.13,51.3.25,13.62.1,26.74,10.49,28.7,23.79,1,6.77.64,13.95-.38,20.76-1.75,11.71-9.39,18.63-21.05,20.86-3.97.76-7.92,1-11.93.99-15.26-.05-30.52-.02-45.77-.02v-.02Z"/>
  </g>
</svg>