<?xml version="1.0" encoding="UTF-8"?>
<svg id="_레이어_2" data-name="레이어 2" xmlns="http://www.w3.org/2000/svg" viewBox="0 0 106.5 100">
  <defs>
    <style>
      .cls-1 {
        fill: #fff;
        stroke-width: 0px;
      }
    </style>
  </defs>
  <g id="_레이어_1-2" data-name="레이어 1">
    <path class="cls-1" d="M106.31,35.83c-8.93,0-17.35.19-25.75-.15-1.84-.08-4.08-1.68-5.32-3.22-2.63-3.29-5.71-5.15-9.93-5.15-9.64.02-19.28.02-28.92.02-3.51,0-6.17,1.77-6.21,5.12-.05,3.56,2.86,4.83,6.3,4.9,11.92.24,23.84.36,35.75.94,11.2.55,21.4,4.53,28.33,13.41,10.81,13.84,6.38,32.33-9.26,41.62-7.32,4.35-15.22,6.79-23.88,6.64-8.76-.16-17.54.24-26.29-.09-16.82-.65-35.12-10.91-39.47-26.67-.59-2.12-1.07-4.27-1.66-6.63,7.66-.34,15.03-.72,22.4-.95,3.25-.1,5.69,1.09,8.14,3.7,2.1,2.24,5.78,3.91,8.88,4.11,9.48.63,19.02.46,28.53.54,2.11.02,4.3.07,6.31-.46,3.48-.92,5.16-3.39,4.79-7.09-.38-3.89-3.37-2.73-5.54-2.75-11.79-.08-23.58.12-35.36-.09-10.26-.18-19.78-2.64-27.66-9.87C-.55,43.58.62,25.15,9.95,15.09,18.5,5.86,29.13,1.24,41.38.44c13.53-.89,27.12-.89,39.97,4.35,12.18,4.97,21.73,12.63,24.38,26.48.24,1.26.33,2.54.58,4.56Z"/>
  </g>
</svg>