<?xml version="1.0" encoding="UTF-8"?>
<svg id="_레이어_2" data-name="레이어 2" xmlns="http://www.w3.org/2000/svg" viewBox="0 0 83.64 100">
  <defs>
    <style>
      .cls-1 {
        fill: #fff;
        stroke-width: 0px;
      }
    </style>
  </defs>
  <g id="_레이어_1-2" data-name="레이어 1">
    <path class="cls-1" d="M41.65,54.11c11.6-6.68,34.6-.79,39.91,12.3,2.89,7.12,2.04,14.63-3.84,19.68-5.23,4.5-11.5,8.45-17.98,10.71-22.05,7.68-44.29,1.28-58.74-16.21-.99-1.2-1.38-4.5-.55-5.33,4-4.02,8.03-8.48,12.96-10.99,7.29-3.71,9.85-1.39,12.01,6.46,2.1,7.62,3.42,16.19,13.77,18.1,9.84,1.82,18.86,1.37,26.47-6.01,4.59-4.45,6.92-10.5,4.01-15.73-2.17-3.9-7.5-7.1-12.05-8.38-6.48-1.82-13.63-1.13-20.33-2.37-5.35-.99-11.1-2.27-15.55-5.16-12.31-7.99-13.99-20.79-5.15-32.61C27.78,3.62,56.24-4.42,73.45,2.52c6.87,2.77,12.71,20.19,9.06,27.61-3.16-6.7-3.44-15.58-13.21-16.81-13.42-1.69-27.27-3.66-38.61,5.74-13.5,11.2-11.27,19.44,3.7,30.58,2.02,1.51,4.3,2.66,7.26,4.46Z"/>
  </g>
</svg>