<?xml version="1.0" encoding="UTF-8"?>
<svg id="_레이어_2" data-name="레이어 2" xmlns="http://www.w3.org/2000/svg" viewBox="0 0 85.75 100">
  <defs>
    <style>
      .cls-1 {
        fill: #fff;
        stroke-width: 0px;
      }
    </style>
  </defs>
  <g id="_레이어_1-2" data-name="레이어 1">
    <path class="cls-1" d="M43.2,100c-17.15-.61-31.02-6.97-42.38-18.91-1.16-1.22-1.1-2,.23-3.06,4.01-3.21,8.07-6.38,11.82-9.88,2.49-2.32,4.83-2.95,7.99-1.63,5.43,2.28,10.84,4.76,16.48,6.32,3.53.97,7.49.49,11.25.47,1.03,0,2.12-.57,3.06-1.09,4.46-2.45,4.75-6.55.31-8.98-4.11-2.25-8.6-3.82-12.95-5.61-7.25-2.98-14.43-6.07-20.77-10.82-11.79-8.83-12.69-27.67-3.22-36.81C21.39,3.86,28.93,1.14,37.3.28c11.2-1.15,21.8,1.38,31.95,6.09,2,.93,2.55,1.88,1.11,3.78-2.2,2.89-4.3,5.85-6.36,8.85-.87,1.27-1.77,1.41-3.21,1-3.55-1.01-7.13-2.02-10.77-2.6-3.12-.49-7.02,2.45-7.04,5.48-.01,1.42,1.36,3.43,2.67,4.16,3.07,1.7,6.46,2.86,9.76,4.12,7.55,2.9,14.69,6.52,20.54,12.22,12.47,12.14,13.17,30.92,1.35,44.02-6.51,7.21-15.1,10.27-24.37,11.73-3.41.54-6.89.63-9.73.87Z"/>
  </g>
</svg>