<?xml version="1.0" encoding="UTF-8"?>
<svg id="_레이어_2" data-name="레이어 2" xmlns="http://www.w3.org/2000/svg" viewBox="0 0 77.94 100">
  <defs>
    <style>
      .cls-1 {
        fill: #fff;
        stroke-width: 0px;
      }
    </style>
  </defs>
  <g id="_레이어_1-2" data-name="레이어 1">
    <path class="cls-1" d="M68.54,32.01c-4.75-1.37-7.53-4.31-9.96-8.14-5.54-8.74-12.85-15.14-24.02-14.54-3.09.16-6.22,1.33-9.12,2.55-2.85,1.2-3.29,3.76-.79,5.55,3.34,2.38,7.12,4.14,10.75,6.1,7.52,4.07,15.15,7.95,22.56,12.21,5.53,3.18,11.18,6.32,14.79,11.98,2.77,4.33,5.55,8.23,3.9,14.15-.92,3.32.76,7.35,1.18,11.07.54,4.85-1.11,9.06-4.14,12.75-7.66,9.33-17.22,14.35-29.64,14.31-11.41-.03-21.9-2.54-30.97-9.38-4.73-3.57-8.74-8.12-12.86-12.44-.51-.53-.11-2.84.62-3.49,2.79-2.5,5.81-4.76,8.88-6.91,2.16-1.51,4.06-1.3,5.48,1.34,2.4,4.48,6.27,7.31,10.82,9.44,4.03,1.89,7.89,4.13,11.84,6.2,3.97,2.09,8.2,2.54,11.92,0,3.67-2.5,4.13-6.67,3.87-10.89-.67-10.99-6.02-17.87-16.76-21.28-10.41-3.31-20.47-7.69-30.68-11.6-3.7-1.41-5.61-4.04-5.25-8.04.41-4.55.63-9.16,1.51-13.63C4.24,10.39,10.03,4.54,18.62,2.56c9.05-2.09,18.92-4.27,27.6-.51,17.61,7.62,23.65,10.77,22.31,29.96Z"/>
  </g>
</svg>