<?xml version="1.0" encoding="UTF-8"?>
<svg id="_레이어_2" data-name="레이어 2" xmlns="http://www.w3.org/2000/svg" viewBox="0 0 78.06 100">
  <defs>
    <style>
      .cls-1 {
        fill: #fff;
        stroke-width: 0px;
      }
    </style>
  </defs>
  <g id="_레이어_1-2" data-name="레이어 1">
    <path class="cls-1" d="M78.06,6.94v26.04c-3.48.2-7.13.5-10.78.56-.71.01-1.93-.83-2.06-1.46-.96-4.58-3.82-7.46-7.97-9.04-4.58-1.74-9.5-1.8-13.76.39-3.24,1.66-6.12,4.43-8.46,7.28-2.42,2.95-1.98,6.72-.13,9.95,2.69,4.7,6.63,7.97,12.01,9.3,4.84,1.2,9.75,2.2,14.47,3.76,8.83,2.9,14.24,10.2,14.53,19.01.35,10.56-3.96,18.24-13.38,21.62-6.25,2.25-12.93,3.48-19.52,4.55-5.32.86-10.78.98-16.18,1.07-7.91.13-15.82-.08-23.73-.12-2.4,0-3.31-.85-3.04-3.48.58-5.67.78-11.37,1.15-17.23,13.17-2.04,26.91-.32,40.36-3.96-1.03-.39-2.04-.95-3.1-1.13-11.94-1.93-22.23-6.95-30.69-15.75C1.51,51.8-.27,44,.09,35.35.62,22.59,7.28,13.3,17.98,7.7,31.58.59,46.32-2.17,61.64,1.87c5.29,1.39,10.46,3.22,16.42,5.08Z"/>
  </g>
</svg>