<?xml version="1.0" encoding="UTF-8"?>
<svg id="_레이어_2" data-name="레이어 2" xmlns="http://www.w3.org/2000/svg" viewBox="0 0 100.04 100">
  <defs>
    <style>
      .cls-1 {
        fill: #fff;
        stroke-width: 0px;
      }
    </style>
  </defs>
  <g id="_레이어_1-2" data-name="레이어 1">
    <g>
      <path class="cls-1" d="M22.19,47.56C14.1,49.78,7.26,46.38,0,43.27c-.04-10.13,3.3-19.06,10.42-26.42,5.12-5.31,9.84-11.18,17.38-13.49,4.49-1.38,8.69-3.92,13.63-3.24,6.69.92,13.32-1.06,20.26,1.73,12.46,5.03,18.91,9.42,26.87,19.39,4.43,5.55,7.75,11.06,10.08,17.89,2.26,6.63,1.04,12.93,1.28,19.33.07,1.87-2.99,3.87-5.2,6.5-3.07-5.11-5.97-9.59-8.52-14.26-3.27-5.99-5.68-12.32-9.9-17.93-6.39-8.49-16.13-14.14-25.97-14.77-14.38-.92-24.35,6.43-33.27,16.24-.78.86-.92,2.27-1.46,3.37-2.69,5.51-2.02,6.94,4.07,8.53.6.16,1.24.22,1.82.44.22.08.33.45.69.98Z"/>
      <path class="cls-1" d="M.15,52.25h14.59c4.76,5.95,9.27,12.16,14.37,17.83,8.24,9.15,19.09,11.27,30.79,10.06,5.5-.57,9.25-4.84,10.23-10.71-4.39-3.13-9.05-5.89-13.01-9.43-6.2-5.54-13.42-9.2-20.84-12.6-1.67-.76-3.63-1.03-5.49-1.2-2.19-.2-4.41-.05-6.62-.97,3.19-1.03,6.34-2.27,9.59-3.03,5.41-1.26,9.96,1.39,14.32,3.99,10.21,6.09,19.42,13.73,30.08,19.17,2.74,1.4,4.63,4.19,7.59,5.79,2.11,1.14,2.97,4.59,4.59,7.36-6.13,10.97-14.86,18.46-28.08,19.71-6.22,4.36-12.04-.54-17.97-1.11-5.41-.52-10.62-3.16-15.9-4.91-.87-.29-1.81-.64-2.48-1.22-6.09-5.34-13.39-8.99-18.41-15.96C2.59,68.17-.29,61.34.15,52.25Z"/>
    </g>
  </g>
</svg>