<?xml version="1.0" encoding="UTF-8"?>
<svg id="_레이어_2" data-name="레이어 2" xmlns="http://www.w3.org/2000/svg" viewBox="0 0 77.42 100">
  <defs>
    <style>
      .cls-1 {
        fill: #fff;
        stroke-width: 0px;
      }
    </style>
  </defs>
  <g id="_레이어_1-2" data-name="레이어 1">
    <path class="cls-1" d="M77.42,3.43c-1.51,2.57-3.06,5.22-4.78,8.16-.28-.82-.52-1.55-.95-2.83-3.56-.11-7.4-.67-11.43,2.28,2.65,2.61,5.21,5.14,7.92,7.81-3.92,3.56-9.48,3.43-13.08,7.26-3.88-2.67-7.67-5.51-11.69-7.98-2.42-1.49-5.12-2.66-7.83-3.54-3.64-1.18-6.53,1.29-9.46,2.79-2.35,1.21-2.91,3.71-2.82,6.3.06,1.91.01,3.82.01,6.21,2,1.43,4.06,3.35,6.48,4.54,3.41,1.68,6.85,3.08,9.93,5.53,2.89,2.3,6.87,2.95,10.31,4.42,8.96,3.83,14.26,10.96,17.17,19.35,2.32,6.7,1.29,14.38-2.74,20.58-5.37,8.26-7.64,10.13-18.3,14.16-.83.31-1.73.57-2.61.6-2.15.09-5.01-.84-6.29.22-2.31,1.9-3.58-.56-5.43-.3-4.84.68-9.59-.06-13.85-2.76-2.97,1.08-4.2-1.71-5.91-2.96-5.57-4.05-9.54-9.45-12.06-15.37,4.16-4.16,7.8-7.8,11.49-11.49,2.51,1.79,1.59,6.02,4.63,7.83,3.28,7.5,10.1,9.45,17.19,10.36,3.03.39,6.42-.41,9.35-1.47,2.25-.82,4.16-2.77,6.02-4.45,3.05-2.76,3.53-7.68,2.11-11.72-2.84-8.08-9.21-10.51-16.79-10.81-2.88-.11-5.7-.26-8.83,1.07-4.88,2.08-13.6-3.21-16.23-6.53-6.23-7.84-6.04-17.05-5.73-26.3,3.97-7.51,6.63-15.89,15.18-20.08C23.11,1.99,28.15,1.12,33.14.19c4.79-.89,9.3,1.49,13.81,2.84,2.29.69,4.21,2.53,6.47,3.37,1.61.6,3.8,1.09,5.24.47,9.88-4.2,9.84-4.3,18.76-3.46Z"/>
  </g>
</svg>