<?xml version="1.0" encoding="UTF-8"?>
<svg id="_레이어_2" data-name="레이어 2" xmlns="http://www.w3.org/2000/svg" viewBox="0 0 43.35 100">
  <defs>
    <style>
      .cls-1 {
        fill: #fff;
        stroke-width: 0px;
      }
    </style>
  </defs>
  <g id="_레이어_1-2" data-name="레이어 1">
    <path class="cls-1" d="M31.81,24.94c-1.78-3.74-2.87-8.09-5.52-11.05-2.76-3.08-7.02-4.82-11.49-7.71.66-.12.04-.15-.42.1-10.12,5.55-11.23,26.95-2.01,33.71,7.26,5.32,14.84,10.5,21,16.96,9,9.44,12.84,21.07,7.6,33.85-1.32,3.22-4.95,6.53-8.26,7.71-9.9,3.53-18.91.46-26.72-6.13-5.73-4.84-5.96-12.04-1.09-20.02,2.84.42,5.63.67,8.31,1.33,1.04.26,2.33,1.33,2.62,2.29.33,1.07.06,2.8-.66,3.63-5.61,6.56-5.07,11.68,2.3,16.41,2.25,1.44,5.07,2,8.33,3.23-2.69-4.07-4.77-7.21-6.85-10.36.51-.36,1.02-.72,1.53-1.07,3.23,2.97,12.86-.5,8.3,10.41,4.99-3.18,7.14-6.59,6.19-11.49-2.31-11.93-8.11-21.74-17.46-29.6-4.67-3.93-9.13-8.22-13.1-12.85C-.28,38.8-1.14,32.35,1.41,25.39,4.8,16.14,8.35,7.18,17.2,1.4c3.46-2.26,6.06-1.56,8.88.44,8.5,6.02,9.55,9.35,5.73,23.1Z"/>
  </g>
</svg>