<?xml version="1.0" encoding="UTF-8"?>
<svg id="_레이어_2" data-name="레이어 2" xmlns="http://www.w3.org/2000/svg" viewBox="0 0 83.96 100">
  <defs>
    <style>
      .cls-1 {
        fill: #fff;
        stroke-width: 0px;
      }
    </style>
  </defs>
  <g id="_레이어_1-2" data-name="레이어 1">
    <g>
      <path class="cls-1" d="M51.31,4.18c13.08-1.5,18.46,2.1,19.85,13.45,1.07,8.74,1.5,17.67-4.84,25.24-1.17,1.4-1.3,3.68-2.03,5.92-3.04-.43-6.13-.89-9.23-1.31-6.26-.84-11.07,1.1-12.46,4.99-1.47,4.11,1.89,13.07,5.81,15.49q6.34,3.92,17.95,3.34c-.74,1.03-1.43,1.86-1.97,2.78-1.62,2.74-1.82,7.41-6.1,6.95-5.15-.55-10.94-1.21-15.03-3.95-4.96-3.32-8.55-8.77-12.49-13.49-2.61-3.13-2.4-6.7-.68-10.34,3.51-7.45,9.68-11.66,17.12-14.42,2.97-1.11,5.89-2.4,8.89-3.4,7.13-2.38,8.7-6.92,8.93-13.91.22-6.65-3.49-11.42-9.68-13.96-1.19-.49-2.08-1.7-4.04-3.36Z"/>
      <path class="cls-1" d="M83.96,94.78c-12.99,1.72-25.15,3.75-37.39,4.8-7.06.61-14.48.69-21.36-.78C3.36,94.13-7.3,73.27,5.55,51.58c2.01-3.4,4.77-6.48,7.68-9.18,1.71-1.58,4.38-2.8,6.66-2.86,1.63-.04,3.69,1.86,4.78,3.44.44.64-1.03,2.82-1.92,4.1-1.7,2.42-4.3,4.42-5.31,7.07-4.69,12.26-4.52,23.92,4.55,34.65,7.12,8.43,16.27,9.51,25.87,7.48,8.23-1.74,16.09-5.18,24.21-7.55,5.41-1.58,8.75.02,11.9,6.06Z"/>
      <path class="cls-1" d="M28.45,5.5c1.09-1.51,2.53-3.5,3.98-5.5,1.82,1.41,4.49,2.45,5.3,4.3,2.77,6.36,5.14,12.93,7.17,19.57,1.24,4.06-1.12,7.96-5.06,7.63-2.61-.22-6.39-2.92-7.18-5.32-2.05-6.25-2.75-12.95-4.21-20.69Z"/>
    </g>
  </g>
</svg>