<?xml version="1.0" encoding="UTF-8"?>
<svg id="_레이어_2" data-name="레이어 2" xmlns="http://www.w3.org/2000/svg" viewBox="0 0 88.52 100">
  <defs>
    <style>
      .cls-1 {
        fill: #fff;
        stroke-width: 0px;
      }
    </style>
  </defs>
  <g id="_레이어_1-2" data-name="레이어 1">
    <g>
      <path class="cls-1" d="M45.68,14.63c-1.35,6.34,2.05,8.45,7.01,9.38,3.76.7,7.57,1.17,11.32,1.91,20.92,4.13,28.71,18.9,22.36,38.71-2.49,7.77-3.86,15.89-6.01,23.77-2.19,8.07-6.38,12.53-13.54,11.44-21.66-3.29-43.39-3.05-66.82-1.93,6.58-13.89,8.49-27.11,6.18-41.04,10.97,9.31,25.97,15.64,23.01,34.06.41.31.69.7,1.01.74,10.96,1.58,21.9,3.4,32.9,4.59,8.02.87,15.39-5.32,16.25-13.27,1.78-16.55-1.32-30.68-16.5-41.12-5.96-4.1-11.12-8.09-18.46-8.83-6.43-.66-3.36-6.1-3.19-8.91.19-3.24,2.88-6.33,4.49-9.49Z"/>
      <path class="cls-1" d="M53.38,60.88c-14.38,4.37-27.2,4.04-37.24-3.98-6.95-5.55-15.01-12.66-14.52-23.51.2-4.44.83-9.57,3.19-13.08C12.77,8.48,24.06,1.3,38.54.04c2.84-.25,5.77.64,8.66,1.54-14.41,2.48-23.13,11.82-29.47,23.68-4.39,8.21-3.4,10.99,4.77,15.4,8.35,4.51,17.12,8.24,25.42,12.84,2.19,1.22,3.32,4.37,5.47,7.39Z"/>
    </g>
  </g>
</svg>