<?xml version="1.0" encoding="UTF-8"?>
<svg id="_레이어_2" data-name="레이어 2" xmlns="http://www.w3.org/2000/svg" viewBox="0 0 64.21 100">
  <defs>
    <style>
      .cls-1 {
        fill: #fff;
        stroke-width: 0px;
      }
    </style>
  </defs>
  <g id="_레이어_1-2" data-name="레이어 1">
    <path class="cls-1" d="M.04,81.45c4.66,2.45,8.29.1,13.1-1.57-2.51-.91-1.1-3.62-3.9-3.77-1.04-.06-1.11-2.47.17-3.52,1.11-.91,2.48-1.51,4.3-2.57-1.04,5.02,2.48,7.88,4.42,11.29,1.96,3.45,5.62,5.46,9.29,6.99,3.05,1.27,12.42,1.83,14.73.22,2.99-2.09,6.7-3.54,8.33-7.28.62-1.42,1.6-2.67,1.24-4.42-1.11-5.42-2.6-10.35-8.25-13.16-4.44-2.21-9.05-3.87-13.59-5.79-9.39-3.97-18.46-8.56-24.97-16.75-1.49-1.87-2.55-4.34-3.02-6.69-1.05-5.25-1.54-10.6,1.02-15.68.43-.85.95-1.66,1.29-2.54C7.62,7.25,15.52,4.01,23.68,1.45,26.99.41,30.54-.15,34.2.03c10.13.51,18.62,4.3,25.06,12.12,1.35,1.64,1.86,4.2,2.17,6.41.3,2.08.65,4.36-1.59,6.1-1.24.96-1.9,2.67-3.27,4.73-1.08-2.05-1.84-3.29-2.41-4.6-3.43-7.84-10.22-11.29-17.83-13.55-1.29-.38-2.71-.99-3.79-1.12-5.66-.64-10.93.69-15,5.08-4.19,4.53-4.9,8.56-2.74,15.05,1.38,4.14,4.87,8.08,9,10.44,6.46,3.7,13.39,6.18,20.37,8.71,7.65,2.78,14.4,7.11,18.23,14.86,2.33,4.72,2.17,9.65.94,14.45-.89,3.44-2.82,6.6-4.25,9.9-1.45,3.36-4.79,4.44-7.54,6.13-7.87,4.84-16.78,6.1-25.55,4.73-7.13-1.11-14.41-3.28-19.32-9.67-1.96-2.56-4.41-4.74-6.61-7.12-.1-.11-.01-.4-.01-1.25Z"/>
  </g>
</svg>