<?xml version="1.0" encoding="UTF-8"?>
<svg id="_레이어_2" data-name="레이어 2" xmlns="http://www.w3.org/2000/svg" viewBox="0 0 75.52 100">
  <defs>
    <style>
      .cls-1 {
        fill: #fff;
        stroke-width: 0px;
      }
    </style>
  </defs>
  <g id="_레이어_1-2" data-name="레이어 1">
    <path class="cls-1" d="M5.32,10.62c2.28-1.61,4.03-3.36,6.13-4.21,4.11-1.66,8.35-3.08,12.66-4.1,4.48-1.07,9.09-1.67,13.68-2.21,1.57-.18,3.77-.13,4.74.8,3.13,2.97,5.94,6.31,8.57,9.74.63.83.09,2.55.09,3.33-5.03-2.27-10.04-4.71-15.21-6.77-1.67-.67-3.76-.62-5.61-.43-4.84.49-7.96,2.49-8.89,8.04-1.35,8.06-4.29,15.99.6,23.77.79,1.26,2.25,2.64,3.62,2.92,7.28,1.48,15.02,1.59,21.87,4.14,9.48,3.54,18.85,8.12,25.51,16.28,4.06,4.96,2.82,15.39-1.93,20.91-15.71,18.22-36.59,20.37-58.2,13.82C4.43,94.04-.83,84.99.11,76.15c1.33-12.59,1.77-25.5,5.08-37.59,2.69-9.85-2.09-18.85.13-27.93ZM51.83,55.18c-1.16,1.74-2.01,3.8-3.53,5.07-1.58,1.32-4.17,3.03-5.67,2.55-5.39-1.72-10.97-3.61-15.61-6.72-6.09-4.08-13.32-2.96-16.04,3.76-2.9,7.17-3.43,14.61-.97,21.94,1.96,5.84,4.88,11.28,11.29,13.5,10.93,3.79,23.6.27,31.25-8.59,8.57-9.93,8.35-23.21-.72-31.52Z"/>
  </g>
</svg>