<?xml version="1.0" encoding="UTF-8"?>
<svg id="_레이어_2" data-name="레이어 2" xmlns="http://www.w3.org/2000/svg" viewBox="0 0 57.63 100">
  <defs>
    <style>
      .cls-1 {
        fill: #fff;
        stroke-width: 0px;
      }
    </style>
  </defs>
  <g id="_레이어_1-2" data-name="레이어 1">
    <path class="cls-1" d="M47.31,6.08c3.46,5.53,1.38,11.49.09,17.27-1.46,6.58-7.14,7.9-14.46,3.45,5.01-1.08,5.6-4.87,5.17-8.64-.45-3.94-1.4-7.9-2.75-11.63-1.12-3.07-10.83-5.34-13.9-3.27-8.17,5.53-12.51,11.2-6.35,21.21,7.62,12.38,16.42,23.2,28.98,30.83,7.84,4.76,11.5,12.56,13.3,21.17,1.37,6.58-3.31,14.44-9.78,18.3-8.89,5.3-18.16,4.51-27.59,2.23-1.03-.25-2.05-.58-3.01-.86-1.93,3-7.98,4.85-10.84,3.29-.67-.36-1.22-1.35-1.4-2.15-1.63-6.94-3.19-13.9-4.7-20.86-.7-3.21,4.29-9.74,8.92-11.62.9,3.1,1.37,6.38,2.76,9.21,3.72,7.57,16.9,13.59,25.17,11.86,1.68-.35,3.34-.77,5.02-1.1,4.69-.93,8.78-2.84,9.88-7.96,1.17-5.47-.92-10.11-4.81-13.94-5.22-5.13-12.02-6.36-18.85-7.13C9.76,53.66-1.9,38.12,1.22,19.57,3.43,6.4,18.78-2.92,32.45.84c5.02,1.38,9.86,3.45,14.86,5.24Z"/>
  </g>
</svg>