<?xml version="1.0" encoding="UTF-8"?>
<svg id="_레이어_2" data-name="레이어 2" xmlns="http://www.w3.org/2000/svg" viewBox="0 0 52.65 100">
  <defs>
    <style>
      .cls-1 {
        fill: #fff;
        stroke-width: 0px;
      }
    </style>
  </defs>
  <g id="_레이어_1-2" data-name="레이어 1">
    <path class="cls-1" d="M33.61,69.27c.52-4.05-2.12-6.42-4.82-8.61-2.37-1.92-5.08-3.44-7.46-5.35-2.62-2.09-5.04-4.43-7.55-6.65-2.58-2.27-4.83-4.82-6.08-8.06-2.12-5.52-2.65-11.22-1.55-17.04.45-2.42.79-4.91,1.62-7.21,1.99-5.53,5.12-10.2,10.53-13.09C21.8,1.37,25.39-.19,29.43.02c4.39.23,8.52,1.46,11.94,4.37,3.39,2.88,6.46,6.07,8.77,9.93,1.13,1.9.78,5.56-1.04,6.83-2.22,1.54-3.43,3.84-4.98,5.87-1.4,1.83-2.12,1.73-3.57-.15-1.55-2-2.72-4.28-4.96-5.8-5.21-3.56-11.98-1.24-13.61,4.83-.63,2.34.5,4.89,3.12,6.35,4.99,2.77,9.05,6.7,13.35,10.34,1.81,1.53,3.91,2.8,5.46,4.55,2.04,2.3,3.92,4.82,5.44,7.49,2.8,4.94,3.6,10.29,3.2,16.01-.46,6.59-2.43,12.65-5.86,18.08-4.01,6.35-9.89,10.39-17.66,11-2.07.16-4.19.47-6.21.17-4.56-.68-8.6-2.72-11.7-6.15-2.17-2.4-4.04-5.09-5.93-7.73-1.01-1.41-1.78-2.98-2.66-4.48-.34-.58-.63-1.23-1.07-1.72-1.71-1.89-1.95-3.51-.55-5.66,1.72-2.65,3.57-5.23,5.33-7.86.98-1.45,1.9-2.94,2.83-4.42.88-1.41,1.8-1.48,2.64-.08,1.49,2.5,2.76,5.13,4.35,7.56,2.31,3.55,4.69,6.96,9.41,7.86,4.45.85,7.96-1.6,8.14-6.18.02-.58,0-1.17,0-1.75Z"/>
  </g>
</svg>