<?xml version="1.0" encoding="UTF-8"?>
<svg id="_레이어_2" data-name="레이어 2" xmlns="http://www.w3.org/2000/svg" viewBox="0 0 59.75 100">
  <defs>
    <style>
      .cls-1 {
        fill: #fff;
        stroke-width: 0px;
      }
    </style>
  </defs>
  <g id="_레이어_1-2" data-name="레이어 1">
    <path class="cls-1" d="M33.39,100c-2.71-.23-5.99-.3-9.18-.86-3.1-.55-5.96-1.93-8.52-3.84-1.55-1.16-3.4-2.01-4.69-3.4-2.1-2.26-3.86-4.84-5.77-7.28-.95-1.21-2.04-2.32-2.85-3.62-.89-1.41-1.72-2.92-2.21-4.5-.44-1.41,0-2.73,1.16-3.96,2.16-2.3,4.09-4.82,6.07-7.28,1.23-1.53,2.14-1.61,3.54-.21,3.38,3.38,6.72,6.82,11.01,9.05,1.68.87,3.61,1.27,5.43,1.85.87.28,1.78.41,2.63.72,1.09.4,4.36-.46,5.39-1.53,2.88-2.99,3.1-5.71,1.27-9.57-1.02-2.16-2.91-3.35-4.73-4.54-1.89-1.23-3.97-2.22-6.08-3.06-4.3-1.72-7.79-4.46-10.79-7.91-.54-.62-1.11-1.21-1.74-1.73-4.07-3.37-6-7.92-6.97-12.94-1.44-7.48-1.36-14.83,1.88-21.94,2.47-5.42,6.61-9.03,11.86-11.55C25.71-.78,31.6-.03,37.45.59c4.36.46,7.96,2.9,11.7,4.92.34.18.65.42,1,.57,1.74.78,3.15,1.88,3.98,3.67.53,1.14,1.1,2.3,1.83,3.31,2.14,2.98.92,5.24-1.45,7.19-1.64,1.35-3.43,2.52-5.1,3.85-1.25,1-2.38,2.14-3.6,3.18-.91.77-1.93.74-2.78-.05-1.28-1.18-2.5-2.43-3.67-3.71-1.96-2.14-4.21-3.81-7.19-4.01-4.24-.29-6.23,2.54-6.57,6.19-.35,3.79,1.91,6,4.62,7.85,5.9,4.01,12.01,7.71,17.79,11.88,3.32,2.4,5.91,5.57,7.94,9.3,2.29,4.22,3.29,8.6,3.7,13.29.59,6.7-1.46,12.8-4.16,18.67-1.62,3.51-3.93,6.79-7.46,8.79-2.59,1.47-5.21,3-7.99,3.97-1.86.65-4.04.37-6.64.54Z"/>
  </g>
</svg>