<?xml version="1.0" encoding="UTF-8"?>
<svg id="_레이어_2" data-name="레이어 2" xmlns="http://www.w3.org/2000/svg" viewBox="0 0 119.88 100">
  <defs>
    <style>
      .cls-1 {
        fill: #fff;
        stroke-width: 0px;
      }
    </style>
  </defs>
  <g id="_레이어_1-2" data-name="레이어 1">
    <path class="cls-1" d="M80.01,47.15c.99-17.65,5.76-33.18,22.08-42.99C110.35-.8,116.48-.06,119.13,6.77c1.86,4.8.16,7.12-4.04,8.61-8.58,3.04-18.12,3.76-22.37,14.43-5.41,13.58-4.63,27.02-.28,40.15,2.96,8.94,8.26,17.1,12.47,25.52-9.87,2.16-24.94-6.85-27.6-16.42-5.85-21.03-11.87-42.02-18.18-62.91-.59-1.97-3.69-4.47-5.63-4.47-4.14,0-9.95-2.27-11.45,4.62-1.61,7.37-3.1,14.77-4.58,22.17-2.4,11.98-5.01,23.92-7.02,35.96-.94,5.63-.7,11.47-1.06,18.42,6.34-1.36,11.47-2.46,16.94-3.63-1.96,9.41-15.13,13.02-33.62,9.38,3.38-8.46,6.28-16.88,10.04-24.89,8.17-17.38,9.2-35.78,7.95-54.39-.16-2.44-4.56-6.07-7.44-6.57-7.05-1.23-14.36-.95-23.26-1.35C12.57,6.36,22.11-2.3,36.34.57c8.34,1.68,17.29.31,26.75.31,4.44,15.4,9,31.22,13.55,47.03,1.12-.25,2.25-.51,3.37-.76Z"/>
  </g>
</svg>