<?xml version="1.0" encoding="UTF-8"?>
<svg id="_레이어_2" data-name="레이어 2" xmlns="http://www.w3.org/2000/svg" viewBox="0 0 92.36 100">
  <defs>
    <style>
      .cls-1 {
        fill: #fff;
        stroke-width: 0px;
      }
    </style>
  </defs>
  <g id="_레이어_1-2" data-name="레이어 1">
    <path class="cls-1" d="M92.36,87.23c-1.62,1.01-3.32,2.21-5.13,3.18-8.57,4.57-17.61,7.77-27.29,8.99-9.92,1.25-19.65.75-28.91-3.44-7.08-3.21-13.07-7.92-18.2-13.74-5.98-6.78-10.26-14.43-11.9-23.41-1.13-6.2-1.32-12.46-.07-18.65,2.23-11.02,7.29-20.61,15.38-28.43C22.8,5.4,30.95,2.21,39.86.79c5.73-.91,11.48-1,17.26-.45,8.87.84,16.57,4.62,24.03,9.23,8.39,5.19,11.91,15.83,9.18,25.19-1.31,4.49-3.03,8.76-5.84,12.58-4.32,5.87-10.28,9.02-17.21,10.48-7.94,1.68-16.03,1.18-24.07,1.46-3.1.11-6.21.14-9.31.22-.47.01-.93.07-1.7.14.94,1.04,1.68,1.91,2.48,2.71,2.96,2.94,5.83,5.97,8.94,8.73,2.81,2.5,6.15,3.89,10.02,4.08,5.32.26,10.57-.03,15.73-1.31,2.9-.72,5.48-2.12,7.77-4.13,5.05,5.8,10.06,11.55,15.24,17.5ZM30.11,38.32c2.1,0,4.02,0,5.95,0,7.61-.01,15.22,0,22.83-.05,4.29-.03,6.52-3.4,5.14-7.49-1.25-3.68-3.62-6.42-6.65-8.76-4.27-3.28-8.87-4.01-13.76-1.86-7.75,3.4-11.69,9.75-13.5,18.16Z"/>
  </g>
</svg>