<?xml version="1.0" encoding="UTF-8"?>
<svg id="_레이어_2" data-name="레이어 2" xmlns="http://www.w3.org/2000/svg" viewBox="0 0 89.97 100">
  <defs>
    <style>
      .cls-1 {
        fill: #fff;
        stroke-width: 0px;
      }
    </style>
  </defs>
  <g id="_레이어_1-2" data-name="레이어 1">
    <path class="cls-1" d="M75.97,59.33V2.24h12.78c.13.69.31,1.21.31,1.73-.03,19.81-.01,39.62-.23,59.43-.03,2.3,1.36,5.74-2.7,6.63.36,1.18.38,3.05,1.14,3.43,2.66,1.32,2.73,3.4,2.69,5.86-.11,5.72-.13,11.44,0,17.16.06,2.74-.91,3.62-3.68,3.52-9.62-.35-9.64-.25-12.84-8.86-8.53-22.91-17.06-45.83-25.56-68.76-1.01-2.72-1.85-5.5-3.13-9.36-1.39,2.22-2.74,3.72-3.37,5.48-4.54,12.62-9.04,25.26-13.36,37.96-3.52,10.35-6.87,20.76-10.07,31.21-1.2,3.94-3.56,5.64-7.53,5.71-3.17.06-6.34.36-10.43.62,1.02-3.27,1.92-6.18,2.84-9.08C11.21,58.59,19.64,32.29,27.9,5.93,29.23,1.67,31.27-.4,36.05.06c4.82.47,9.72.27,14.58.1,2.63-.09,3.4,1.15,4.2,3.41,6.42,18.26,13,36.45,19.55,54.66.13.37.45.67.68,1.01.3.03.61.06.91.09Z"/>
  </g>
</svg>