<?xml version="1.0" encoding="UTF-8"?>
<svg id="_레이어_2" data-name="레이어 2" xmlns="http://www.w3.org/2000/svg" viewBox="0 0 75.82 80.88">
  <defs>
    <style>
      .cls-1 {
        fill: #fff;
        stroke-width: 0px;
      }
    </style>
  </defs>
  <g id="_레이어_1-2" data-name="레이어 1">
    <path class="cls-1" d="M12.7,79.87c-4.19.33-8.38.67-12.7,1.01V0c3.04,1.43,5.61,2,7.31,3.54,7.79,7.01,15.37,14.27,22.98,21.48,11.56,10.96,23.09,21.95,34.69,32.99V5.7c1.15-.43,1.87-.81,2.63-.97,6.81-1.45,7.57-.82,7.64,5.96.21,20.64.52,41.28.57,61.92,0,2.16-1.03,5.82-2.29,6.17-2.32.63-5.97.19-7.68-1.34-15.84-14.23-31.39-28.78-47.02-43.24-1.79-1.66-3.55-3.35-6.12-5.78v51.47Z"/>
  </g>
</svg>