<?xml version="1.0" encoding="UTF-8"?>
<svg id="_레이어_2" data-name="레이어 2" xmlns="http://www.w3.org/2000/svg" viewBox="0 0 78.77 94.94">
  <defs>
    <style>
      .cls-1 {
        fill: #fff;
        stroke-width: 0px;
      }
    </style>
  </defs>
  <g id="_레이어_1-2" data-name="레이어 1">
    <path class="cls-1" d="M.92,0c2.99,2,5.23,3.08,6.94,4.71,17.6,16.76,35.12,33.62,52.67,50.43.82.79,1.77,1.45,3.19,2.6.23-1.77.51-2.97.51-4.18.05-14.66.2-29.31-.02-43.97-.07-4.35.83-6.71,5.68-6.11,1.63.2,3.33.02,4.99-.1,2.73-.2,3.89.88,3.88,3.73-.06,28.96-.03,57.93-.03,86.87-4.34,2.29-7.29.06-9.93-2.55-6.15-6.09-12.26-12.23-18.23-18.51-11.69-12.31-23.28-24.72-35.63-37.86,0,8.68-.05,16.48.01,24.28.07,7.83.26,15.65.38,23.48.05,3.26-.54,5.99-4.69,6.15-.93.03-2.49.49-2.65,1.06-.89,3.24-3.28,2.8-4.94,1.62-1.32-.94-2.41-3.1-2.47-4.77C.21,76.77,0,66.63,0,56.5-.01,39.85.16,23.2.29,6.55c.01-1.48.28-2.96.63-6.55Z"/>
  </g>
</svg>