<?xml version="1.0" encoding="UTF-8"?>
<svg id="_레이어_2" data-name="레이어 2" xmlns="http://www.w3.org/2000/svg" viewBox="0 0 197.79 100">
  <defs>
    <style>
      .cls-1 {
        fill: #fff;
        stroke-width: 0px;
      }
    </style>
  </defs>
  <g id="_레이어_1-2" data-name="레이어 1">
    <path class="cls-1" d="M10.14,100c0-6.14-.69-12.37.13-18.39,1.21-8.84,3.45-17.55,5.39-26.28.29-1.29,1.3-2.44,2.03-3.62,1.25-1.99,1.04-3.66-1.37-5.49-.68,1.76-1.25,3.26-1.82,4.76-.27,0-.54-.02-.81-.03,0-5.18.6-10.46-.17-15.53-.77-5.01-2.92-9.82-4.61-15.17-3.15-1.85-3.81-4.87-2.21-8.14,1.42-.87,2.52-1.55,3.62-2.22-.11-.34-.21-.69-.32-1.03-1.95-.16-3.9-.31-6.35-.5-.9-1.18-2.13-2.79-3.64-4.76h18.59c1.05,2.69,1.94,4.98,2.99,7.69-.22.26-.81.93-1.45,1.66.31.77.98,1.63.9,2.4-.47,4.41-.97,8.83-1.79,13.18-.29,1.53-1.53,2.87-2.39,4.39.67,4.49,1.4,9.33,2.21,14.78.94-.68,1.7-.97,2.04-1.52C37,20.32,61.45,7.79,90.16,2.25c14.81-2.86,29.91-2.95,44.73-.5,15.46,2.55,28.28,10.54,38.78,22.23,11.41,12.71,16.28,28.34,20.09,44.45,2.46,10.37,4.39,20.83,3.96,31.57h-70.26c-.42-10.05-.6-20.11-1.3-30.13-1.13-16.05-.73-32.25-5.08-47.99-2.65-9.58-12.18-15.32-22.02-13.7-10.72,1.76-17.31,8.8-22.01,17.24-3.47,6.23-5.72,13.69-6.41,20.8-1.4,14.38-1.37,28.89-1.92,43.35-.13,3.48-.19,6.96-.28,10.44H10.14Z"/>
  </g>
</svg>