<?xml version="1.0" encoding="UTF-8"?>
<svg id="_레이어_2" data-name="레이어 2" xmlns="http://www.w3.org/2000/svg" viewBox="0 0 114.17 100">
  <defs>
    <style>
      .cls-1 {
        fill: #fff;
        stroke-width: 0px;
      }
    </style>
  </defs>
  <g id="_레이어_1-2" data-name="레이어 1">
    <path class="cls-1" d="M79.67,2.69h34.5v85.41c-4.49-2.53-7.59-3.92-10.29-5.86-12.14-8.75-24.03-17.83-36.26-26.44-11.3-7.96-22.86-15.56-34.44-23.11-2.88-1.88-6.3-2.93-10.13-4.66-.8,24.46-1.57,47.81-2.33,70.83-6.83.37-13.39.73-20.71,1.14V1.99C9.97,1.37,20.19.86,30.37.04c2.59-.21,3.93.42,5.58,2.51,8.95,11.39,20.36,20.06,32.38,27.87,5.49,3.57,7.34,2.66,8.41-3.79,1.27-7.66,1.92-15.42,2.93-23.94Z"/>
  </g>
</svg>