<?xml version="1.0" encoding="UTF-8"?>
<svg id="_레이어_2" data-name="레이어 2" xmlns="http://www.w3.org/2000/svg" viewBox="0 0 87.91 100">
  <defs>
    <style>
      .cls-1 {
        fill: #fff;
        stroke-width: 0px;
      }
    </style>
  </defs>
  <g id="_레이어_1-2" data-name="레이어 1">
    <path class="cls-1" d="M65.93,8.78c7.37-.36,14.28-.7,21.98-1.08-.66,30.41-1.32,60.57-1.99,91.14-4.8,0-9.33.08-13.86-.07-.86-.03-1.9-.79-2.52-1.5-8.18-9.36-16.2-18.87-24.47-28.15-6.27-7.04-12.81-13.84-19.29-20.69-1.01-1.07-2.32-1.86-4.45-3.53v55.1H0V0c2.17,1.07,4.18,1.58,5.54,2.8,9.43,8.51,18.84,17.05,28.04,25.82,9.67,9.22,19.09,18.7,28.63,28.05.52.51,1.22.84,2.48,1.69.42-16.85.83-33.11,1.24-49.59Z"/>
  </g>
</svg>