<?xml version="1.0" encoding="UTF-8"?>
<svg id="_레이어_2" data-name="레이어 2" xmlns="http://www.w3.org/2000/svg" viewBox="0 0 106.14 100">
  <defs>
    <style>
      .cls-1 {
        fill: #fff;
        stroke-width: 0px;
      }
    </style>
  </defs>
  <g id="_레이어_1-2" data-name="레이어 1">
    <path class="cls-1" d="M32.29,56.87v43.13H0V2.03c.08-.08.31-.47.57-.49C10.01.97,19.45.33,28.9,0c1.53-.05,3.67.82,4.59,2,7.9,10.05,15.59,20.25,23.33,30.43,3.99,5.25,7.94,10.54,12.43,16.52.84-16.47,1.65-32.41,2.49-48.77,10.66,0,21.06-.11,31.45.17,1.06.03,2.96,2.46,2.96,3.77-.07,24.61-.38,49.22-.61,73.83-.06,6.6,0,13.19,0,21.04-12.07,0-24.01.15-35.93-.15-2.01-.05-4.45-1.66-5.86-3.27-4.26-4.86-8.21-10.01-12.11-15.18-5.99-7.92-11.85-15.95-17.76-23.93-.52.14-1.04.27-1.57.41Z"/>
  </g>
</svg>