<?xml version="1.0" encoding="UTF-8"?>
<svg id="_레이어_2" data-name="레이어 2" xmlns="http://www.w3.org/2000/svg" viewBox="0 0 91.67 100">
  <defs>
    <style>
      .cls-1 {
        fill: #fff;
        stroke-width: 0px;
      }
    </style>
  </defs>
  <g id="_레이어_1-2" data-name="레이어 1">
    <path class="cls-1" d="M0,.17C4.48.02,8.25-.68,11.99,2.54c14.54,12.52,29.36,24.73,44.18,36.91,2.33,1.91,5.24,3.11,8.46,4.98.5-15.16.97-29.08,1.44-43.3h25.35c.07,1.3.19,2.59.19,3.88,0,18.41.18,36.82-.08,55.23-.17,11.45-1,22.9-1.6,34.34-.06,1.17-.45,2.35-.86,3.46-.8,2.16-2.07,2.63-3.89.94-6.35-5.89-12.89-11.58-19.05-17.65-12.44-12.26-24.66-24.73-37.01-37.08-1.28-1.28-2.83-2.28-4.69-3.77v52.79c-6.88.33-14.02.67-21.78,1.04C1.77,63.03.89,31.81,0,.17Z"/>
  </g>
</svg>