<?xml version="1.0" encoding="UTF-8"?>
<svg id="_레이어_2" data-name="레이어 2" xmlns="http://www.w3.org/2000/svg" viewBox="0 0 99.01 100">
  <defs>
    <style>
      .cls-1 {
        fill: #fff;
        stroke-width: 0px;
      }
    </style>
  </defs>
  <g id="_레이어_1-2" data-name="레이어 1">
    <path class="cls-1" d="M32.47,100H0V3.57C6.59,2.5,12.99,1.83,19.2.34c5-1.2,7.09.92,9.92,4.71,5.59,7.51,12.25,14.21,18.48,21.24,4.64,5.24,9.35,10.4,13.88,15.73,1.04,1.22,1.45,2.96,2.15,4.47.85-.53,1.71-1.07,2.56-1.6V.47h29.01c1.27,30.86,2.52,61.51,3.82,93.11-9,.26-17,1.56-24.58.3-4.64-.77-8.98-5.06-12.84-8.47-9.38-8.28-18.4-16.98-27.59-25.49-.71-.66-1.58-1.15-3.46-2.48.67,14.92,1.3,28.77,1.92,42.55Z"/>
  </g>
</svg>