<?xml version="1.0" encoding="UTF-8"?>
<svg id="_레이어_2" data-name="레이어 2" xmlns="http://www.w3.org/2000/svg" viewBox="0 0 120.44 100">
  <defs>
    <style>
      .cls-1 {
        fill: #fff;
        stroke-width: 0px;
      }
    </style>
  </defs>
  <g id="_레이어_1-2" data-name="레이어 1">
    <path class="cls-1" d="M32.28,35.14c1.19,18.86,2.38,37.72,3.57,56.57-.89.11-1.78.22-2.68.33-.29-2.7-.74-5.38-.84-8.09-.67-17.74-1.19-35.49-1.95-53.23-.13-3.07-.9-6.21-1.93-9.12C22.64,5.2,22,4.83,4.54,4.72c-.78,0-1.55-.53-4.54-1.61C8.26-1.34,15.58.32,22.37.24c7.05-.09,14.11,1.02,21.71,1.65-.92,18.97,13.52,31.35,23.23,46.16,4.81,7.34,9.04,15.06,13.9,23.22,8.77-5,7.57,7.9,14.74,9.78,9.77-5.73,12.97-16.32,13.97-26.93.95-10.18-4.05-18.57-13.41-24-10.63-6.16-10.09-21.97.56-27.93,2.72,8.06,5.15,16.27,8.27,24.21,2.1,5.35,4.63,9.86,10.51,13.43,3.68,2.24,5.72,12.43,3.94,17.43-5.29,14.9-12.84,29-19.2,42.75-10.03-4.98-20.42-9.4-29.96-15.21-4.34-2.64-7.52-7.72-10.33-12.25-6.47-10.44-12.44-21.2-18.51-31.9-1.67-2.94-2.95-6.09-4.41-9.15-1.7,1.21-3.4,2.43-5.09,3.64Z"/>
  </g>
</svg>