<?xml version="1.0" encoding="UTF-8"?>
<svg id="_레이어_2" data-name="레이어 2" xmlns="http://www.w3.org/2000/svg" viewBox="0 0 111.49 100">
  <defs>
    <style>
      .cls-1 {
        fill: #fff;
        stroke-width: 0px;
      }
    </style>
  </defs>
  <g id="_레이어_1-2" data-name="레이어 1">
    <path class="cls-1" d="M111.49,99.2c-1.4,0-3.07-.32-4.56.05-11.84,2.93-20.09-3.26-28.71-10.08-7.78-6.16-14.77-13.06-22.01-19.74-4.71-4.34-9.33-8.78-14.66-13.8,0,1.89-.17,3.24.03,4.53,2.37,15.33-4.99,26.42-15.77,35.92-1.25,1.1-3.47,1.49-5.26,1.54-6.36.18-12.74.07-19.63.07C-.49,65.07-.47,32.66,2.37.04,11.78.04,21.35-.1,30.9.15c1.95.05,4.43,1.07,5.7,2.5,12.21,13.75,24.23,27.67,36.27,41.58.95,1.1,1.64,2.43,2.44,3.65.54-.28,1.08-.57,1.62-.85V2.15h34.55v97.05Z"/>
  </g>
</svg>