<?xml version="1.0" encoding="UTF-8"?>
<svg id="_레이어_2" data-name="레이어 2" xmlns="http://www.w3.org/2000/svg" viewBox="0 0 90.6 100">
  <defs>
    <style>
      .cls-1 {
        fill: #fff;
        stroke-width: 0px;
      }
    </style>
  </defs>
  <g id="_레이어_1-2" data-name="레이어 1">
    <path class="cls-1" d="M0,5.41C9.81,3.57,18.74,1.92,27.66.19c2.29-.44,3.72-.27,5.13,2.22,2.47,4.36,5.7,8.3,8.68,12.36,7.04,9.59,14.15,19.14,21.16,28.75,1.94,2.66,3.61,5.53,5.71,8.77V2.19c5.88-.34,11.85-.62,17.82-1.05,2.64-.19,3.64.82,3.64,3.45,0,11.37.06,22.74.18,34.11.15,13.63.42,27.25.57,40.88.08,6.63.01,13.27.01,20.06-4.68.66-8.75.8-12.18-2.76-7.51-7.79-15.3-15.31-22.67-23.23-10.16-10.91-20.04-22.08-30.04-33.13-.34-.38-.76-.69-1.54-1.4v51.72H1.62C1.07,61.88.53,33.4,0,5.41Z"/>
  </g>
</svg>