<?xml version="1.0" encoding="UTF-8"?>
<svg id="_레이어_2" data-name="레이어 2" xmlns="http://www.w3.org/2000/svg" viewBox="0 0 88.15 100">
  <defs>
    <style>
      .cls-1 {
        fill: #fff;
        stroke-width: 0px;
      }
    </style>
  </defs>
  <g id="_레이어_1-2" data-name="레이어 1">
    <path class="cls-1" d="M75.03,99.99c-5.21,0-9.96.02-14.7-.01-1.32,0-3.05-.14-2.44-2,2.2-6.73-1.1-12.14-4.44-17.2-6.53-9.92-13.58-19.5-20.44-29.21-.38-.54-.97-.94-2.05-1.96-.89,16.31.95,31.92,1.13,48.09H7.8c0-3.69-.41-7.66.09-11.52,1.06-8.19-1.49-15.03-6.84-21.01-1.3-1.45-1.27-2.61-.56-4.47,3.28-8.54,5.18-17.44,5.88-26.58.8-10.46,1.57-20.92,2.39-31.76,3.19-.38,6.88-.79,10.55-1.26C21.94.76,24.57.28,27.22,0c.62-.06,1.56.3,1.91.79,3.88,5.49,7.77,10.97,11.46,16.59,7.5,11.42,14.87,22.92,22.33,34.38,1.18,1.81,2.49,3.54,3.74,5.31.47-.13.93-.27,1.4-.4.61-18.02,1.23-36.04,1.85-54.43h18.17c0,1.49,0,3.33,0,5.17,0,11.89.22,23.8-.12,35.68-.17,5.89-1.16,11.8-2.24,17.62-1.07,5.78-4.59,10.44-7.86,15.19-.93,1.35-1.51,3.17-1.64,4.82-.53,6.49-.82,13-1.19,19.29Z"/>
  </g>
</svg>