<?xml version="1.0" encoding="UTF-8"?>
<svg id="_레이어_2" data-name="레이어 2" xmlns="http://www.w3.org/2000/svg" viewBox="0 0 79.69 100">
  <defs>
    <style>
      .cls-1 {
        fill: #fff;
        stroke-width: 0px;
      }
    </style>
  </defs>
  <g id="_레이어_1-2" data-name="레이어 1">
    <g>
      <path class="cls-1" d="M6.02,25.77c.28,7.15.12,14.31.34,21.46.15,4.96-2.23,9.67-1.29,14.62.86,4.51.72,9.17,2.22,13.59.38,1.13.62,2.62.2,3.65-1.96,4.73-.78,9.72-1.33,14.45-2.28,1.23-3.65.04-4.91-1.49,0-21.66.07-43.33-.06-65-.03-4.46-1-8.9-1.15-13.37-.19-5.52,0-5.53,5.56-5.59.84,0,1.68,0,2.52,0,1.5,4.63,2.97,9.26,4.52,13.87.24.73.76,1.42,1.32,1.97,6.38,6.33,11.65,13.55,16.95,20.76.25.33.6.59.89.9,6.1,6.52,12.19,13.05,18.31,19.56,3.05,3.24,5.39,7.02,8.13,10.48,3.1,3.92,6.99,7.23,11,11.28.3-4.56,1.06-8.57-2.32-11.88,2.94.54,2.88-2.14,3.71-3.66.44-.81.08-2.06.08-3.11,0-5.67-.12-11.34.03-17.01.17-6.6-1.87-12.98-1.4-19.65.48-6.69.21-13.44.06-20.15-.07-3.23.6-6,3.09-8.26h5.42c.33,3.1,2.28,5.7,1.66,8.91-2.71,14.24-.91,28.63-1.22,42.95-.31,14.27-.07,28.56-.07,42.84v2.13h-5.72c-1.17-1.86-2.32-4.17-3.9-6.12-2.97-3.66-6.43-6.93-9.26-10.69-5.15-6.84-11.99-12.12-17.29-18.7-5.33-6.62-11.29-12.71-16.24-19.66-2.84-3.99-7.04-7.07-9.56-11.22-2.49-4.1-6.39-5.6-10.28-7.84-.09,0,.09,0,.28,0-.12-.33-.18-.69-.38-.96-.06-.08-.5.13-.76.21.19.25.39.5.86.75ZM3.59,56.53c-.17-.17-.31-.31-.45-.45-.14.28-.33.55-.39.85-.02.1.25.27.39.41.15-.27.3-.55.45-.81Z"/>
      <path class="cls-1" d="M41.66,30.82c-2.86-.29-5.34-1.02-5.75-5.14-.25,1.15-.5,2.3-.76,3.45-.36-.34-.71-.67-1.07-1.01,1.26,2.16,2.52,4.32,3.79,6.49-2.66.55-4-1.63-4.91-3.18-3.85-6.51-8.59-12.25-13.91-17.58-1.11-1.11-2.02-2.4-2.89-3.8-1.57-2.53-3.54-5.04-7.39-7.03,2.22-1.22,3.69-2.03,5.48-3.02.81.53,1.34,3.05,3.42,4.08-.52,3.08,2.52,3.96,3.72,5.97-.3.3-.6.6-1.16,1.16.45.25.83.66,1.17.63,2.25-.21,3.41.86,3.86,2.98.15.72.32,1.79.81,2.03,1.07.52,3.03-.82,3.09,1.86.01.68,1.56,1.34,2.4,2-.82.54-1.63,1.09-3.16,2.11,1.2.87,2.1,1.67,3.13,2.22.71.38,1.6.43,2.28.59-.41-1.51-.7-2.59-.98-3.66,3.98.33,5.46,3.7,7.55,6.29.59.72.87,1.69,1.29,2.55Z"/>
      <path class="cls-1" d="M53.02,52.29c-5.49-4.02-9.81-9.17-13.85-14.57-.3-.4-.04-1.22-.04-1.85.41,0,.84-.06,1.23.02.27.06,6.09,7.62,6.36,7.91,1.51,1.64,3.02,3.3,4.61,4.86,1.04,1.02,2.11,1.95,1.69,3.62Z"/>
      <path class="cls-1" d="M61.35,54.7c3.3.74,3.87,1.7,4.05,6.8-.95-1.49-1.62-2.47-2.22-3.49-.58-.98-1.11-1.99-1.83-3.32Z"/>
      <path class="cls-1" d="M59.8,66.24c-.62-1.54-1.24-3.09-2.04-5.08,3.28.96,2.79,3.11,2.04,5.08Z"/>
      <path class="cls-1" d="M41.66,30.82c1.99.49,2.73,1.83,2.53,3.79-1.99-.49-2.73-1.83-2.53-3.79Z"/>
      <path class="cls-1" d="M59.34,51.02c1.99.49,2.73,1.83,2.53,3.79-1.99-.49-2.73-1.83-2.53-3.79Z"/>
      <path class="cls-1" d="M49.3,39.43c1.14,1.76,1.72,2.66,2.37,3.66-2.44,1.02-2.51-.49-2.37-3.66Z"/>
      <path class="cls-1" d="M53.02,52.29c2.07-.38,2.91.46,2.53,2.53-.84-.84-1.68-1.68-2.53-2.53Z"/>
      <path class="cls-1" d="M57.07,49.09c-.2.08-.64.28-1.09.47-.14-.35-.47-.74-.39-1.03.11-.41.51-.73.79-1.1.14.35.29.69.69,1.66Z"/>
      <path class="cls-1" d="M31.56,20.72c.42.42.84.84,1.26,1.26-.42-.42-.84-.84-1.26-1.26Z"/>
      <path class="cls-1" d="M37.87,34.61c.42.42.84.84,1.26,1.26-.42-.42-.84-.84-1.26-1.26Z"/>
      <path class="cls-1" d="M45.34,35.34c-.15.15-.35.41-.4.39-.27-.15-.51-.37-.76-.56.19-.19.38-.38.56-.56.2.25.4.49.6.73Z"/>
      <path class="cls-1" d="M46.15,38.4c-.19-.25-.39-.5-.58-.75.27-.08.7-.29.76-.21.2.26.27.63.38.96h-.56Z"/>
      <path class="cls-1" d="M47.97,39.66c-.42-.42-.84-.84-1.26-1.26.42.42.84.84,1.26,1.26Z"/>
      <path class="cls-1" d="M49.24,40.92c-.42-.42-.84-.84-1.26-1.26.42.42.84.84,1.26,1.26Z"/>
      <path class="cls-1" d="M58.77,51.02c-.19-.25-.39-.5-.58-.75.27-.08.7-.29.76-.21.2.26.27.63.38.96h-.56Z"/>
      <path class="cls-1" d="M56.71,55.55c-.15.15-.35.41-.4.39-.27-.15-.51-.37-.76-.56.19-.19.38-.38.56-.56.2.25.4.49.6.73Z"/>
      <path class="cls-1" d="M57.51,58.6c-.19-.25-.39-.5-.58-.75.27-.08.7-.29.76-.21.2.26.27.63.38.96h-.56Z"/>
      <path class="cls-1" d="M59.24,59.34c-.15.15-.35.41-.4.39-.27-.15-.51-.37-.76-.56.19-.19.38-.38.56-.56.2.25.4.49.6.73Z"/>
      <path class="cls-1" d="M61.76,66.91c-.15.15-.35.41-.4.39-.27-.15-.51-.37-.76-.56.19-.19.38-.38.56-.56.2.25.4.49.6.73Z"/>
      <path class="cls-1" d="M63.83,71.23c-.19-.25-.39-.5-.58-.75.27-.08.7-.29.76-.21.2.26.27.63.38.96h-.56Z"/>
      <path class="cls-1" d="M65.55,71.96c-.15.15-.35.41-.4.39-.27-.15-.51-.37-.76-.56.19-.19.38-.38.56-.56.2.25.4.49.6.73Z"/>
      <path class="cls-1" d="M66.35,75.02c-.19-.25-.39-.5-.58-.75.27-.08.71-.29.76-.21.2.26.27.63.38.96h-.56Z"/>
    </g>
  </g>
</svg>