<?xml version="1.0" encoding="UTF-8"?>
<svg id="_레이어_2" data-name="레이어 2" xmlns="http://www.w3.org/2000/svg" viewBox="0 0 86.73 100">
  <defs>
    <style>
      .cls-1 {
        fill: #fff;
        stroke-width: 0px;
      }
    </style>
  </defs>
  <g id="_레이어_1-2" data-name="레이어 1">
    <g>
      <path class="cls-1" d="M79.37,93.25c1.08-.1,1.79-.16,2.57-.24-.79-4.46-2.39-8.53-2.18-12.88.12-2.37-.86-4.26-2.41-5.82-10.69-10.75-21.09-21.82-32.29-32.02-5.39-4.92-10.6-10.01-15.83-15.07-2.65-2.56-5.61-4.55-8.74-6.4-4.88-2.88-9.94-5.48-14.54-8.82-.54-.39-1.19-.62-2.42-1.24.16,1.27,0,2.12.36,2.49,1.1,1.14,1.13,2.33.37,3.51-1.13,1.76-.95,3.2-.01,5.1.63,1.28-2.46,1.91-1.89,4,.56,2.07,1.01,4.21,1.13,6.34.18,3.4.19,6.83,0,10.23-.18,3.27.48,6.5-.9,9.85-.78,1.89-.82,4.68.51,7.03.58,1.02.41,2.51.41,3.79.03,9.66-.03,19.33.05,28.99.02,2.49.42,4.97.68,7.83-1.78.42-2.92-.84-2.91-2.55.03-5.57-1.38-10.97-1.32-16.59C.26,57.29.11,33.79.11,10.29v-5.39c.44-.27.59-.45.74-.45,2.84-.02,5.69.1,8.53-.04,2.74-.13,5.24-.12,5.94,3.29,2.95.74,4.36,3.36,6.33,5.26,4.92,4.73,9.62,9.68,14.53,14.42,2.79,2.69,5.96,4.99,8.71,7.7,2.21,2.18,3.92,4.87,6.11,7.09,2.18,2.22,4.24,4.53,7.05,6.2,2.27,1.35,3.74,3.93,5.42,6.14,3.48,4.57,8.34,7.81,12.85,11.34.12.09.37.01.94.01.07-.84.2-1.72.2-2.59.01-17.25-.01-34.49.03-51.74,0-2.64-.38-5.05-2.87-6.99.9-.94,1.49-1.6,2.12-2.22,3.06-3.03,3.05-3,6.71-.47.55.38,1.3.48,1.65.6.97,7.24,1.93,14.25,1.47,21.33-.12,1.84.11,3.82-.51,5.48-.66,1.74,1.05,2.69.6,4.41-2.45,9.2-.92,18.61-1.17,27.94-.25,9.47,0,18.95-.1,28.42-.02,2.11-.61,4.2-1,6.7-1.43-.27-2.63-.18-3.38-.73-.76-.56-1.07-1.74-1.63-2.75Z"/>
      <path class="cls-1" d="M60.4,78.95c-2.84-2.85-5.11-5.14-7.4-7.4-5-4.93-9.41-10.36-13.67-15.92-.57-.75-1.35-1.33-1.99-2.02-4.83-5.19-9.88-10.2-14.36-15.68-2.23-2.72-4.54-5.32-6.91-7.9-2.36-2.58-4.49-5.37-6.87-7.92-1.9-2.03-2.59-4.3-2.11-7.21,1.95.78,2.75,2.3,3.68,4.02.95,1.75,2.82,2.97,4.11,4.57,2.15,2.67,4.18,5.45,6.23,8.21,2.83,3.8,6.41,6.97,8.89,11.07.86,1.42,2.41,2.39,3.55,3.66,4.61,5.14,10.23,9.29,14.22,15.09.94,1.38,2.34,2.91,3.81,4.03,3.9,2.97,5.41,7.8,8.78,11.17.28.28.04,1.1.04,2.24Z"/>
      <path class="cls-1" d="M11.29,96.37c-.74,3.75-2.6,1.96-4.54,2.55.49-2.2,1.24-4.02,1.26-5.85.12-9.58.06-19.17.04-28.76,0-.52,0-1.33-.3-1.53-1.82-1.17.81-1.69.31-2.61.32.13.93.28.93.4-.24,5.17,2,10.12,1.33,15.31-.29,2.25-.76,4.48-.43,7.18.49-.94.97-1.87,1.43-2.77.82.67,1.24.84,1.26,1.05.3,3.25-.33,6.48,1.01,9.78.88,2.16-.33,4.72-2.31,5.24-.63-.54-.99-.14-.91.01.28.49.72.9,1.1,1.34-.11-.74-.21-1.49-.19-1.35Z"/>
      <path class="cls-1" d="M76.33,87.48c-.83-.65-1.99-1.12-2.45-1.97-1.65-3.1-4.25-5.32-6.69-7.68-.89-.86-1.25-1.71-1.1-2.87,3.82,2.99,7.47,6.15,9.86,10.47.32.57.26,1.36.38,2.04Z"/>
      <path class="cls-1" d="M47.86,27.24c3.14-.65,3.12,2.35,4.46,3.97-.38.42-.85.92-1.55,1.68-1.01-1.97-1.97-3.82-2.91-5.65Z"/>
      <path class="cls-1" d="M69.6,91.37c1.24,1.86,3.37,2.48,3.29,5.73-1.74-1.92-3.77-2.61-3.29-5.73Z"/>
      <path class="cls-1" d="M67.23,88.62c1.8.45,2.46,1.65,2.28,3.41-1.8-.45-2.46-1.65-2.28-3.41Z"/>
      <path class="cls-1" d="M77.47,89.75c1.8.45,2.46,1.65,2.28,3.41-1.8-.45-2.46-1.65-2.28-3.41Z"/>
      <path class="cls-1" d="M63.75,85.41c-1.03-1.59-1.55-2.39-2.13-3.3,2.2-.92,2.26.44,2.13,3.3Z"/>
      <path class="cls-1" d="M48.1,25.99c-2.86.13-4.22.07-3.3-2.13.91.59,1.71,1.11,3.3,2.13Z"/>
      <path class="cls-1" d="M7.69,57.48c.17,1.21.28,1.95.39,2.69-.38-.44-.82-.84-1.1-1.34-.09-.15.28-.55.71-1.36Z"/>
      <path class="cls-1" d="M66.09,86.34c1.7.1.97,1.41,1.14,2.28-1.7-.1-.97-1.41-1.14-2.28Z"/>
      <path class="cls-1" d="M77.47,89.75c-1.7-.1-.97-1.41-1.14-2.28,1.7.1.97,1.41,1.14,2.28Z"/>
      <path class="cls-1" d="M47.89,27.19c-.38-.38-.76-.76-1.14-1.14.38.38.76.76,1.14,1.14Z"/>
      <path class="cls-1" d="M50,58.31c-.13.24-.27.49-.4.73-.13-.13-.38-.28-.36-.37.06-.27.23-.51.36-.76.13.13.25.25.4.41Z"/>
      <path class="cls-1" d="M63.31,72.69c-.18-.22-.35-.45-.53-.67.24-.07.64-.26.69-.19.18.24.24.57.34.86h-.51Z"/>
      <path class="cls-1" d="M63.81,72.69c.38.38.76.76,1.14,1.14-.38-.38-.76-.76-1.14-1.14Z"/>
      <path class="cls-1" d="M66.09,74.97c-.38-.38-.76-.76-1.14-1.14.38.38.76.76,1.14,1.14Z"/>
      <path class="cls-1" d="M61.45,79.04c-.13.13-.32.37-.36.35-.25-.13-.46-.33-.68-.5.17-.17.34-.34.51-.51.18.22.36.44.54.66Z"/>
      <path class="cls-1" d="M63.81,84.07c.38.38.76.76,1.14,1.14-.38-.38-.76-.76-1.14-1.14Z"/>
      <path class="cls-1" d="M66.09,86.34c-.38-.38-.76-.76-1.14-1.14.38.38.76.76,1.14,1.14Z"/>
    </g>
  </g>
</svg>