<?xml version="1.0" encoding="UTF-8"?>
<svg id="_레이어_2" data-name="레이어 2" xmlns="http://www.w3.org/2000/svg" viewBox="0 0 88.95 100">
  <defs>
    <style>
      .cls-1 {
        fill: #fff;
        stroke-width: 0px;
      }
    </style>
  </defs>
  <g id="_레이어_1-2" data-name="레이어 1">
    <g>
      <path class="cls-1" d="M40.69,54.87c2.85.61,4.73,1.01,6.61,1.41.09-.24.17-.49.26-.73-3.25-2.81-6.6-5.51-9.7-8.46-1.67-1.59-2.85-3.67-4.35-5.45-2.53-3.02-5.1-6.01-7.73-8.94-1.96-2.18-3.76-3.97-4.14-7.49-.38-3.54-2.32-7.3-5.69-9.72-1.3-.93-2.31-2.25-3.47-3.41,2.17-3.65.87-8.6,4.09-11.82,3.08.68,4.38,2.85,6.22,4.8,5.53,5.83,9.41,12.74,14.01,19.17.23.32.58.57.85.87,4.87,5.27,9.75,10.52,14.58,15.82,1.72,1.89,3.23,3.98,5.03,5.79,1.6,1.61,3.45,2.97,5.21,4.43,2.26,1.87,4.56,3.68,6.78,5.59,2.22,1.9,4.36,3.89,6.92,6.18.61-4.38,2.68-8.09,1.64-11.96-2.29-8.5-.71-17.09-1.04-25.62-.11-2.82.92-5.69,1.47-8.76-1.43-.27-2.54-.47-3.82-.71V2.02c4.45-2.06,8.53,1.69,13.17,1.37-2.07,1.58-4.13,3.16-6.06,4.63,0,6.79,0,13.26,0,19.74,0,1.75,1.95,11,2.65,12.25.14.25.66.29,1.44.6.86-1.61,1.75-3.27,3.2-5.98,0,2.05.32,3.16-.05,3.93-2.53,5.21-1.03,11.43-3.99,16.89-1.57-3.16-1.2-6.7-4.63-9.54.93,9.37-2.29,17.77-.92,26.25,1.02,6.33,1.04,12.61,1.08,18.94,0,.79,0,1.57,0,2.97-4.12-3.13-8.38-5.26-10.45-9.92-.46-1.04-1.69-1.71-2.51-2.61-3.33-3.66-7.16-6.8-10.01-10.99-1.69-2.48-4.23-4.49-6.98-6.28-3.41-2.22-6-5.71-9.69-9.4ZM66.95,70.38c0-1.39.08-2.79-.01-4.18-.37-5.82-2.93-10.25-8.32-12.83-2.43-1.17-3.47-1.03-4.57.57-1.11,1.61-.5,3.2,1.76,4.72,4.6,3.1,8.48,6.83,11.14,11.72ZM39.34,37.64c-.89,3.3.65,5.31,2.26,7.1.97,1.08,2.41,1.03,3.72-.48-1.38-2.57-3.85-4.13-5.99-6.63Z"/>
      <path class="cls-1" d="M5.29,99.79H0c.64-5.04-.95-9.98,1.26-14.77.46-1,.07-2.4.07-3.61,0-9.71.16-19.41-.05-29.12-.16-7.32-1.56-14.56-1.23-21.95.33-7.47,0-14.96.12-22.44.04-2.45.59-4.89.99-7.91,2.41,2.36,2.69,4.55,2.65,7.01-.11,7.28-.04,14.56-.04,21.84,0,2.63-.18,5.27.05,7.88.21,2.27-1.16,4.85,1.13,6.77-2.39,2.14-.9,4.93-1.13,7.4-.24,2.61-.05,5.25-.05,7.88v15.17c0,2.63-.06,5.26.01,7.89.17,5.89-.81,11.86,1.52,17.96Z"/>
      <path class="cls-1" d="M12.27,61.43c0,5.33.62,9.64-.21,13.64-.6,2.89-.95,5.69-1,8.58-.04,2.81,0,5.62,0,8.45-1.14.84-2.48,1.17-2.36-.72.29-4.46-.86-8.92.97-13.43.98-2.42.26-5.56.15-8.37-.1-2.57.14-5,2.46-8.15Z"/>
      <path class="cls-1" d="M6.5.08q4.51,1.49,4.12,7.03C9.19,4.67,8.15,2.9,6.5.08Z"/>
      <path class="cls-1" d="M85.08,94.35v5.2c-1.37.72-2.53.74-2.27-1.08.23-1.58,1-3.09,1.53-4.63.25.17.49.34.74.51Z"/>
      <path class="cls-1" d="M88.61,73.48v8.08c-1.38-2.67-.81-5.41,0-8.08Z"/>
      <path class="cls-1" d="M10.05,56.05v-5.79c.45.23.96.36.97.5.06,1.75.04,3.5.04,5.25-.33.01-.67.03-1,.04Z"/>
      <path class="cls-1" d="M88.68,83.85c-.67,2.2-1.13,3.7-1.58,5.19-.17-1.77-2.25-4.03,1.58-5.19Z"/>
      <path class="cls-1" d="M8.84,47.49v-3.23c.21-.02.42-.03.64-.05.15,1.09.29,2.18.44,3.27-.36,0-.72,0-1.08.01Z"/>
      <path class="cls-1" d="M11.32,36.19c-.4.95-.54,1.29-.67,1.62-.27-.35-.65-.66-.76-1.05-.07-.28.28-.95.37-.94.45.07.88.3,1.07.38Z"/>
    </g>
  </g>
</svg>