<?xml version="1.0" encoding="UTF-8"?>
<svg id="_레이어_2" data-name="레이어 2" xmlns="http://www.w3.org/2000/svg" viewBox="0 0 102.08 100">
  <defs>
    <style>
      .cls-1 {
        fill: #fff;
        stroke-width: 0px;
      }
    </style>
  </defs>
  <g id="_레이어_1-2" data-name="레이어 1">
    <g>
      <path class="cls-1" d="M87.84,8.72h13.31c2.63,13.13-1.13,26.26-1.31,39.49-.18,13.21-.04,26.42-.04,41.01-6.74-6.74-12.53-12.44-18.22-18.25-5.64-5.75-12.04-10.41-18.66-15-5.02-3.48-8.76-8.83-12.97-13.43-2.17-2.37-3.7-5.62-6.29-7.26-7.81-4.94-13.51-11.64-18.98-18.93C20.53,10.84,14.97,6.38,10.03,1.44c3.91-3.14,7.56-.39,10.64,1.19,3.9,2,7.07,5.4,10.63,8.09,7.69,5.81,13.96,13.34,22.3,18.36.55.33.94.94,1.42,1.39,10.55,9.85,21.11,19.69,32.43,30.24.15-3.24.13-5.96.42-8.64.85-7.69-2.16-15.7,1.97-23.1-2.63-3.36-1.93-7.32-1.99-11.14-.05-2.94,0-5.87,0-9.1ZM59.2,46.04c.27-.27.49-.49.71-.71-.44-.22-.87-.52-1.34-.62-.16-.04-.43.4-.66.62.43.24.87.48,1.29.71Z"/>
      <path class="cls-1" d="M3.42,100H.06v-6.8c0-22.55-.01-45.1,0-67.65,0-7.03-.77-14.18,2.7-20.65,1.75,6.06,2.27,75.32.66,95.1Z"/>
    </g>
  </g>
</svg>