<?xml version="1.0" encoding="UTF-8"?>
<svg id="_레이어_2" data-name="레이어 2" xmlns="http://www.w3.org/2000/svg" viewBox="0 0 61.36 100">
  <defs>
    <style>
      .cls-1 {
        fill: #fff;
        stroke-width: 0px;
      }
    </style>
  </defs>
  <g id="_레이어_1-2" data-name="레이어 1">
    <g>
      <path class="cls-1" d="M47.74,69.61c-.83-23.21-.83-45.9-.83-68.58,5.87-.96,7.21-.18,7.23,4.8.08,16.63.05,33.27,0,49.91,0,1.4-.15,3.03-.87,4.14-1.31,2.02-1.4,3.66-.03,5.64.6.87.97,2.17.88,3.22-.69,8.66,3,16.18,6.33,23.71,1.19,2.7,1.08,4.93.4,7.54-3.09-.06-4.25-1.76-4.89-4.26-2.71-10.64-8.34-19.7-15.05-28.28-3.1-3.96-4.92-8.91-7.86-13.02-4.21-5.9-8.94-11.43-13.38-17.17-1.03-1.33-1.8-2.86-3.23-5.18-.15,3.26-.31,5.77-.39,8.29-.46,16.39-2.84,32.7-1.93,49.16.09,1.65-1.35,3.39-2.73,6.58-.48-2.59-1.02-3.59-.73-4.2,2.52-5.32,1.73-10.97,1.74-16.52.04-16.33.09-32.67-.04-49-.03-3.67-.75-7.33-1.21-11.54,1.96.74,3.44,2.51,4.65,4.13,10.5,14.16,20.4,28.71,28.25,44.54.91,1.84,1.4,3.88,2.09,5.83.26-.1.52-.2,1.61.23.55.18.26-.18-.02-.53-.27.27-.54.54-.81.81.36.28.7.59,1.09.81.07.04.36-.35-.26-1.09Z"/>
      <path class="cls-1" d="M0,.44C3.45-.3,6.57-.46,8.79,2.85c0,18.65.04,37.34-.02,56.03-.04,11.53.87,23.12-3.12,35.46-.74.32-2.93,1.26-5.65,2.44V.44Z"/>
    </g>
  </g>
</svg>