<?xml version="1.0" encoding="UTF-8"?>
<svg id="_레이어_2" data-name="레이어 2" xmlns="http://www.w3.org/2000/svg" viewBox="0 0 223.37 100">
  <defs>
    <style>
      .cls-1 {
        fill: #fff;
        stroke-width: 0px;
      }
    </style>
  </defs>
  <g id="_레이어_1-2" data-name="레이어 1">
    <g>
      <path class="cls-1" d="M68.64,0c7.76.72,14.17,2.23,20.39,1.69,12.31-1.08,23.56,2.77,34.94,6.08,3.32.97,6.47,3.21,9.17,5.5,14.55,12.39,28.6,25.4,43.52,37.33,7.25,5.8,16,9.73,24.09,14.49,1.53.9,3.11,1.71,4.57,2.51,4.87-31.21,4.86-31.46-1.37-44.27,1.75-1.04,5.11-2.26,5.01-3.07-1.6-13.44,1.01-16.98,14.42-18.02v93.87c-7.87,2.67-15.04-2.82-22.78-4.03-13.13-2.05-21.68-12.33-32.62-18.31-1.21-.66-1.95-2.13-3.12-2.9q-13.95-9.19-36.02-8.02c1.24,10.89,2.48,21.74,3.67,32.19-13.13,7.91-26.61,2.98-40.13,4.94v-41.69c-5.1-3.81-8.03-9.2-14.28-11.41-3.77-1.33-4.71-5.51-3.01-10.01,5.09-2.16,12.54,2.46,16.71-5.7-2.52-7.17-6.93-13.72-14.6-17.82-5.73-3.06-10.13-6.94-8.57-13.37ZM134.31,53.36v-16.74h-4.79v16.74h4.79ZM117.13,20.98c-.33-.6-.68-1.23-1.02-1.85-.32.32-.95.71-.9.94.15.68.58,1.29.9,1.93.32-.32.64-.64,1.02-1.02Z"/>
      <path class="cls-1" d="M34.96,50.99c-3.24-9.68-8.93-16.6-13.78-24.23C16.45,19.34,7.99,14.97,4.85,6.62c4.26-3.91,10.03.39,13.69-4.31.67-.86,6.47.66,8.32,2.59,13.59,14.16,29.74,26.1,40.14,45.17h-22.07c-1.73,1.73-2.67,2.29-3.04,3.11-2.01,4.38-6.83,8.31-4.35,13.61,2.84,6.05,9,3.91,14,4.02,7.17.17,14.35.04,21.91.04.32,1.24,1.08,2.58.92,3.79-.68,4.93,2.76,11.42-2.74,14.47-6.65,3.7-14.12,6.56-22.18,4.11-1.68-.51-3.33-2.34-4.79-2.13-14.34,2.09-26.28-6.26-39.5-8.96-2.1-.43-4.49-3.39-5.12-5.63-.38-1.34,2.03-4.14,3.82-5.29,3.71-2.39,7.65-4.86,11.85-5.95,8.15-2.12,13.41-7.63,19.25-14.27Z"/>
    </g>
  </g>
</svg>