<?xml version="1.0" encoding="UTF-8"?>
<svg id="_레이어_2" data-name="레이어 2" xmlns="http://www.w3.org/2000/svg" viewBox="0 0 129.54 100">
  <defs>
    <style>
      .cls-1 {
        fill: #fff;
        stroke-width: 0px;
      }
    </style>
  </defs>
  <g id="_레이어_1-2" data-name="레이어 1">
    <path class="cls-1" d="M28.11,12.1c-3.3-.29-5.72-.5-8.87-.77.41-1.35.73-3.28,1.03-3.28,2.02,0,4.04.44,6.5.79-.23.34.23-.1.41-.64,1.18-3.55,3.38-6.32,7.25-6.13,3.37.17,5.21,2.92,6.39,6.04,1.16,3.07,2.47,6.09,3.87,9.05,1.66,3.52,3.12,7.21,5.32,10.37,6.75,9.69,12.26,20.08,17.86,30.42,1.83,3.37,2.62,7.3,3.99,10.93.63,1.68,1.51,3.27,2.33,5.01,7.18-5.91,11.53-13.03,15.83-20.71,4.69-8.38,8.42-17.4,14.52-25.11,3.03-3.83,3.73-9.33,5.9-13.97,3.86-8.27,3.34-8.52,8.93-14.1,2.85.93,5.85,1.92,10.18,3.34-6.4,3.69-7.09,9.65-9.29,14.9-2.19,5.23-5.12,10.15-7.66,15.24-2.67,5.35-5.21,10.77-7.91,16.1-1.09,2.15-2.5,4.13-3.73,6.21-3.55,5.96-7.26,11.82-10.57,17.91-3.13,5.78-4.44,12.48-8.83,17.65-1.21,1.42-2.14,3.21-3.61,4.25-1.4,1-3.32,1.25-5.29,1.92-1.92-5.92-3.78-11.21-5.06-16.91-1.73-7.73-2.68-15.94-8.35-22.71-5.62-6.7-8.4-15.47-14.46-22.08-1.29-1.41-1.42-3.89-2.05-5.89-1.7-5.4-2.2-6.06-8.51-10.94-4.61,8.43-7.54,17.43-10.91,26.24-3.42,8.94-4.11,18.79-9.21,27.21-.87,1.44.12,3.91-.57,5.56-2.65,6.33-5.79,12.45-8.53,18.75-.51,1.17-2.31,1.79-4.34,3.26-1.21-7.5-1.32-13.57,4.44-18.66.55,1.45.97,2.56,1.81,4.79.45-1.88.94-2.85.84-3.76-.25-2.15-.32-8.63.05-10.03,4.96-18.85,12.68-36.84,17.52-55.73.35-1.36,1.51-2.5,2.79-4.51Z"/>
  </g>
</svg>