<?xml version="1.0" encoding="UTF-8"?>
<svg id="_레이어_2" data-name="레이어 2" xmlns="http://www.w3.org/2000/svg" viewBox="0 0 89.83 100">
  <defs>
    <style>
      .cls-1 {
        fill: #fff;
        stroke-width: 0px;
      }
    </style>
  </defs>
  <g id="_레이어_1-2" data-name="레이어 1">
    <path class="cls-1" d="M26,98.46c-3.22.58-5.9,1.05-8.66,1.54C11.36,68.54,5.5,37.65,0,8.71c7.33-1.3,13.22-.95,17.59-3.36C34.75-4.12,53.49-.67,68.08,12.87c16.02,14.86,22.01,33.88,21.74,55.17-.1,7.7-.86,15.39-1.3,22.67-3.8-1.31-7.7-2.65-12.43-4.28-.65-5.11-.76-11.11-2.25-16.74-3.62-13.67-7.38-27.35-12.1-40.67-2.65-7.48-8.34-13.16-16.98-14.09-14.7-1.58-22.47,7.27-23.48,25.64-.87,15.82-.08,31.42,3.58,46.87.81,3.44.76,7.08,1.15,11.01Z"/>
  </g>
</svg>