<?xml version="1.0" encoding="UTF-8"?>
<svg id="_레이어_2" data-name="레이어 2" xmlns="http://www.w3.org/2000/svg" viewBox="0 0 78.69 100">
  <defs>
    <style>
      .cls-1 {
        fill: #fff;
        stroke-width: 0px;
      }
    </style>
  </defs>
  <g id="_레이어_1-2" data-name="레이어 1">
    <path class="cls-1" d="M64.76,62.95c2.96-18.95-.03-37.23,1.31-55.79h12.22c0,10.64.66,21.34-.31,31.88-.41,4.46-1.59,8.98-1.42,13.55.14,3.65-.03,7.18,1.33,10.99,1.14,3.21,1.27,7.65-.9,11.83-1.58,3.05-.25,7.53-.54,11.35-.27,3.6-.96,7.16-2.1,10.83-1.98-5.43-5.58-9.43-8.88-13.74-6.95-9.09-15.58-16.78-21.61-26.64-2.38-3.89-6.2-6.66-8.97-10.49-6.4-8.86-14.01-16.86-21.23-25.12-1.01-1.15-2.59-1.8-4.95-3.39v73.12c0,1.78.09,3.57-.02,5.35-.2,3.44-1,3.81-5.1,2.88-1.07-.24-2.24-.04-3.58-.04V0h7.77c7.35,7.8,15.5,15.45,22.39,24.1,4.2,5.28,9.68,9.45,13.23,14.98,4.74,7.38,12.56,11.96,16.64,19.79.75,1.44,2.34,2.43,4.72,4.08.61-.2.33-.54.05-.89-.27.27-.53.53-.8.8.35.27.69.58,1.07.79.07.04.36-.34-.33-.7Z"/>
  </g>
</svg>