<?xml version="1.0" encoding="UTF-8"?>
<svg id="_레이어_2" data-name="레이어 2" xmlns="http://www.w3.org/2000/svg" viewBox="0 0 124.62 100">
  <defs>
    <style>
      .cls-1 {
        fill: #fff;
        stroke-width: 0px;
      }
    </style>
  </defs>
  <g id="_레이어_1-2" data-name="레이어 1">
    <path class="cls-1" d="M41.96,54.85c-18.62,18.4-26.97,11.3-36.03,5.89-4.23-2.52-3.08-7.15-5.32-10.46-1.36-2.01-.24-5.54,1.66-8.45,3.26-4.99,5.34-10.6,4.48-16.96-.17-1.25,1.58-2.77,2.42-4.12,3.19,1.2,3.81,3.45,3.74,6.37-.15,6.6.1,13.21-.1,19.81-.15,4.94,1.05,9.22,4.99,12.97h16c2.42-3.95,5.31-8.34,7.8-12.93.74-1.36.99-3.6.38-4.95-3.05-6.74-3.59-14.45-8.27-20.59-2.34-3.07-3.97-6.68-6.12-10.4,5.2-5.66,13.46-3.5,19.24-7.68,7.43,7.43,15.47,13.85,21.33,21.87,4.31,5.9,9.75,10.41,14.34,15.86,4.36,5.18,8.8,10.29,13.29,15.34.82.92,2.08,1.44,3.08,2.09.81-.88,1.61-1.33,1.62-1.81.26-9.48.2-18.87,1.81-28.39,1.53-9.08.33-18.62.33-28.31h20.88v7.59c0,27.46-.03,54.92.05,82.39,0,3.12.65,6.23,1.07,9.9-1.19-.06-3.27.48-4.38-.33-8.85-6.46-17.75-12.9-26.16-19.91-5.59-4.65-10.45-10.18-15.55-15.41-3.04-3.12-5.65-6.63-8.39-9.97-4.67-5.69-10.92-10.09-16.65-14.86-.45-.37-2.15.39-3.03.98-4.59,3.1-5.39,8.31-6.1,13.04-.68,4.54-2.11,7.63-6.23,9.94-1.62.91-2.11,3.81,3.82-8.53,7.86-15.53,8.17-15.53,8.48-15.53-.19-.54-.3-1.15-.63-1.58-.1-.13-.82.22-1.26.35.32.41.64.82-6.59,16.77Z"/>
  </g>
</svg>