<?xml version="1.0" encoding="UTF-8"?>
<svg id="_레이어_2" data-name="레이어 2" xmlns="http://www.w3.org/2000/svg" viewBox="0 0 108.64 100">
  <defs>
    <style>
      .cls-1 {
        fill: #fff;
        stroke-width: 0px;
      }
    </style>
  </defs>
  <g id="_레이어_1-2" data-name="레이어 1">
    <path class="cls-1" d="M20.46,48.73c-1.36,3.13-2.73,6.25-4.17,9.57,2.27.74,2.74-1.03,3.47-1.82,1.07-1.15,1.72-2.71,2.5-4.12.65-1.17,1.32-2.33,1.81-3.57.49-1.24,1.06-2.55,1.09-3.85.13-5.03-.28-10.23,6.14-12.06.37-.11.88-.96.78-1.33-1.6-6.25,4.74-9.48,5.64-15.06.77-4.78,4.12-9.18,6.56-13.62,1.81-3.3,4.92-3.21,8.55-2.37,5.17,14.05,10.19,28.38,15.74,42.51,2.63,6.68,6.2,13,9.54,19.38.51.98,2.1,1.39,3.45,2.22,1.76-9.6,5.09-18.11,7.68-26.84,5.22-4.6,5.18-11.7,8.22-17.34,2.14-3.97,4.29-7.93,6.74-12.46,1.67,1.33,2.92,2.33,4.41,3.52-3.37,6.54-4.99,13.6-7.37,20.4-2.54,7.27-5.68,14.36-9,21.33-2.65,5.58-3.86,11.62-6.27,17.29-1.77,4.15.84,8.59,2.47,12.64,1.28,3.19,1.53,5.96-1.43,8.23-.55.42-1.51.3-2.23.42-2.96-2.56,5.79-6.92-2.15-8.07-3.18,4.29-6.54,9.23-5.3,16.29h-10.72c.95-2.76-.74-5.49,1.25-8.69,2.59-4.17.15-8.98-1.57-12.63-6.65-14.08-10.83-28.97-15.69-43.65-.06-.17-.46-.22-1.41-.64-.49.95-1.01,1.94-1.51,2.94-3.46,6.92-6.74,13.95-10.46,20.72-1.84,3.34-4.74,6.07-6.76,9.32-3.66,5.91-7.72,11.62-9.16,18.69-.4,1.98-2.21,3.68-3.4,5.57-.57-.31-1.05-.44-1.36-.74-7.59-7.59-7.83-10.37-2.19-23.71.3-.71.37-1.52.59-2.5-7.56,4.96-8.22,6.02-9.43,14.92-1.91-2.12-3.77-4.2-5.53-6.15,1.32-1.97,2.85-4.51,4.66-6.85.81-1.04,2.09-1.79,3.27-2.46,2.73-1.56,4.51-3.34,5.44-6.8.91-3.39,3.92-6.22,6-9.3.36.23.73.46,1.09.69Z"/>
  </g>
</svg>