<?xml version="1.0" encoding="UTF-8"?>
<svg id="_레이어_2" data-name="레이어 2" xmlns="http://www.w3.org/2000/svg" viewBox="0 0 88.06 100">
  <defs>
    <style>
      .cls-1 {
        fill: #fff;
        stroke-width: 0px;
      }
    </style>
  </defs>
  <g id="_레이어_1-2" data-name="레이어 1">
    <path class="cls-1" d="M66.88,62.55V0h18.41c1.97,3.28,2.81,6.94,2.77,11.12-.2,21.77.13,43.54-.21,65.3-.12,7.66-1.6,15.3-2.53,23.58-5.05-2.26-9.93-4.08-13.89-8.12-12.32-12.58-24.73-25.07-37.36-37.33-4.83-4.69-10.34-8.69-16.49-13.8-1.43,10.52-.54,19.94-.7,29.29-.17,9.59-.04,19.18-.04,28.92-2.73-.01-5.03-2.49-8.17-.13-1.92,1.44-5.4.81-8.67,1.16V3.23c2.04.62,4.17.8,5.74,1.84,4.82,3.19,9.39,6.42,12.41,11.89,1.78,3.22,4.74,6.55,9.04,7.87,1.63.5,2.81,2.48,4.16,3.82,4.31,4.29,8.52,8.69,12.93,12.88,7.06,6.7,14.25,13.27,22.59,21.02Z"/>
  </g>
</svg>