<?xml version="1.0" encoding="UTF-8"?>
<svg id="_레이어_2" data-name="레이어 2" xmlns="http://www.w3.org/2000/svg" viewBox="0 0 90.09 100">
  <defs>
    <style>
      .cls-1 {
        fill: #fff;
        stroke-width: 0px;
      }
    </style>
  </defs>
  <g id="_레이어_1-2" data-name="레이어 1">
    <path class="cls-1" d="M81.68,77.69V2.31h8.39v88.83c0,1.36.05,2.72-.01,4.08-.16,3.41-1.28,4.51-4.84,4.74-1.36.09-2.72.01-4.11.01-7.88-8.41-16.14-16.52-23.57-25.35-10.17-12.08-20.74-23.73-31.74-35.05-3.71-3.82-6.16-8.84-9.29-13.23-.97-1.36-2.28-2.46-3.41-3.65-.76.65-1,.79-1.15,1-.15.19-.3.45-.3.68-.01,23.92-.01,47.84-.01,72.33-2.58,0-4.97-.01-7.35,0-2.62.01-3.79-1.57-4.05-3.89-.18-1.61-.03-3.26-.03-4.9C.19,70.77.62,53.61.04,36.48-.33,25.7,2.1,15.19,1.8,4.49c-.06-2.26,1.21-3.63,3-4.13,4.78-1.36,12.13,1.31,14.79,5.51,3.53,5.56,7.95,10.37,12.06,15.45,6.45,7.96,14.29,14.62,20.7,22.49,4.42,5.42,9.4,10.2,14.02,15.36,2.08,2.33,3.86,4.93,5.81,7.38,1.78,2.24,4.47,3.63,5.33,6.79.41,1.47,2.35,2.53,4.17,4.35Z"/>
  </g>
</svg>