<?xml version="1.0" encoding="UTF-8"?>
<svg id="_레이어_2" data-name="레이어 2" xmlns="http://www.w3.org/2000/svg" viewBox="0 0 79.15 100">
  <defs>
    <style>
      .cls-1 {
        fill: #fff;
        stroke-width: 0px;
      }
    </style>
  </defs>
  <g id="_레이어_1-2" data-name="레이어 1">
    <path class="cls-1" d="M0,0h10.77c3,3.57,6.18,7.83,9.85,11.61,9.37,9.63,19.03,18.97,28.41,28.58,3.26,3.34,6.07,7.14,9.91,11.71V0h18.17v8.09c0,21.39-.19,42.77.09,64.16.11,8.53,1.28,17.05,1.95,25.33-2.56,1.9-4.24,1.26-6.09-.43-3.13-2.86-6.61-5.34-9.72-8.21-5.08-4.68-9.25-10.08-12.94-15.98-2.66-4.24-6.39-7.83-9.78-11.6-5.95-6.61-12.15-13-17.95-19.75-2.74-3.19-4.79-6.99-7.89-11.62v61.38c-1.17.4-2.12.73-4.03,1.39,1.55.64,2.46,1.02,3.61,1.49v5.75H.21c.55-2.08,1.06-3.97,1.72-6.44h7.59c.02-.38.03-.76.05-1.14-3.1-.18-6.19-.36-9.57-.55V0Z"/>
  </g>
</svg>