<?xml version="1.0" encoding="UTF-8"?>
<svg id="_레이어_2" data-name="레이어 2" xmlns="http://www.w3.org/2000/svg" viewBox="0 0 73.51 100">
  <defs>
    <style>
      .cls-1 {
        fill: #fff;
        stroke-width: 0px;
      }
    </style>
  </defs>
  <g id="_레이어_1-2" data-name="레이어 1">
    <path class="cls-1" d="M42.77,62.58c0,.46-.2,1.1.03,1.36,10.07,11.31,20.18,22.58,30.4,33.98-.74.7-1.51,1.43-2.21,2.09-.6-.11-1.28-.05-1.42-.3-3.2-5.43-8.89-8.82-11.81-14.48-.3-.59-.97-.98-1.44-1.48-5.71-6.17-11.46-12.31-17.11-18.53-1.47-1.62-2.73-3.45-3.92-5.29-3.2-4.92-8.39-7.81-12.2-12.11-2.67-3.02-5.93-5.52-7.86-9.21-.32-.61-1.4-.81-2.74-1.52-.09,1.69-.19,2.76-.19,3.84-.01,16.84.08,33.68-.12,50.52-.03,2.09,1.81,3.94.58,5.96-1.99,3.25-3.78-1.1-5.87-.27-.99.4-2.28.07-3.43.07H0V.8c4.17-2.56,6.36,1.73,9.39,2.94,1.57.63,2.9,2.33,3.92,3.82,4.89,7.17,11.57,12.9,16.21,20.26.36.57.97.98,1.45,1.48,7.67,8.13,15.45,16.15,22.95,24.43,3.71,4.09,6.91,8.64,10.8,13.57V10.41q8.51-.67,8.52,7.08c0,3.46.71,7.11-.15,10.34-1.8,6.74-1.07,13.48-1.21,20.23-.14,6.69-.18,13.38.03,20.07.11,3.51,1.05,6.99,1.27,10.5.23,3.68.05,7.38.05,11.07v3.43c-3.24-.18-4.41-2.19-5.51-4.06-2.28-3.85-4.95-7.33-8.16-10.48-2.87-2.82-5.78-5.55-8.01-9.08-1.97-3.12-5-5.71-8.78-6.94-.46-.46-.92-.92-1.38-1.38-.46-.46-.92-.92-1.38-1.38-1.62-2.31-3.18-4.66-4.92-6.88-.26-.33-1.32-.05-2-.05-.46-.46-.92-.92-1.69-1.38-.1,0,.1,0,.31,0-.13-.36-.2-.76-.42-1.05-.07-.09-.55.14-.84.23.21.27.43.55.95.82.77.46,1.23.92,1.69,1.38.46.96.86,1.95,1.4,2.86,1.27,2.11,2.46,4.37,5.53,4.07.46.46.92.92,1.38,1.38.46.46.92.92,1.38,1.38Z"/>
  </g>
</svg>