<?xml version="1.0" encoding="UTF-8"?>
<svg id="_레이어_2" data-name="레이어 2" xmlns="http://www.w3.org/2000/svg" viewBox="0 0 77.12 100">
  <defs>
    <style>
      .cls-1 {
        fill: #fff;
        stroke-width: 0px;
      }
    </style>
  </defs>
  <g id="_레이어_1-2" data-name="레이어 1">
    <path class="cls-1" d="M0,97.21v-5.81c2.46-1.3,4.9-2.6,8.31-4.4-1.55-.65-2.42-1.01-2.74-1.15-1.02,1.02-2.48,2.48-3.83,3.83-1.13-1-1.7-1.28-1.71-1.56C0,64.61-.02,41.1.02,17.58c0-4.05,2.95-8.06,1.27-11.92C.25,3.26,1.76,2.06,1.95,0c4.37-.05,7.86.38,10.33,5.27,2.11,4.17,6.01,7.47,9.25,11.03,6.24,6.85,12.71,13.49,18.84,20.45,3.76,4.26,6.84,9.12,10.61,13.38,3.76,4.26,7.99,8.1,12.02,12.13.18-.08.39-.12.52-.25.16-.16.35-.39.35-.58.02-16.81.01-33.62.01-50.73h13.23v89.31c-2.79-2.17-5.31-3.7-7.29-5.76-7.12-7.39-14.71-14.45-20.89-22.56-9.06-11.89-19.66-22.23-30.08-32.78-2.89,2.36-2.52,5.62-2.51,8.82.03,10.15.04,20.3-.02,30.45,0,1.65-.31,3.31-.63,4.93-1.06,5.38-6.14,7.19-9.55,10.44-1.61,1.53-3.88,2.37-6.13,3.68Z"/>
  </g>
</svg>