<?xml version="1.0" encoding="UTF-8"?>
<svg id="_레이어_2" data-name="레이어 2" xmlns="http://www.w3.org/2000/svg" viewBox="0 0 69.21 100">
  <defs>
    <style>
      .cls-1 {
        fill: #fff;
        stroke-width: 0px;
      }
    </style>
  </defs>
  <g id="_레이어_1-2" data-name="레이어 1">
    <path class="cls-1" d="M2.44,83.72C-.56,78.16.17,72.63.13,67.2c-.05-5.87-.3-11.76.06-17.61.49-7.87,1.8-15.66,1.47-23.62-.33-8.01-.07-16.05-.07-24.28h10.46c14.37,20.26,28.55,40.26,42.74,60.26.38-.11.75-.22,1.13-.33V7.56c0-1.47-.12-2.95.03-4.4.19-1.89,1.34-3,3.27-3.12,1.22-.07,2.45-.02,3.67-.01,5.93.03,6.23.27,6.24,6.05.02,28.62-.04,57.25.09,85.87.01,3.01-.88,5.45-2.33,8.05-1.1-.21-3.15-.22-3.24-.66-.63-2.91-2.97-4.38-4.86-6.06-10.18-9.06-17.43-20.36-24.93-31.53-3.38-5.03-7.17-9.78-10.85-14.59-1.94-2.53-4.04-4.93-6.72-8.19v22c0,6.12.05,12.23-.02,18.35-.03,3.17-1.13,4.3-4.2,4.39-3.18.09-6.36.02-9.61.02Z"/>
  </g>
</svg>