<?xml version="1.0" encoding="UTF-8"?>
<svg id="_레이어_2" data-name="레이어 2" xmlns="http://www.w3.org/2000/svg" viewBox="0 0 94.26 100">
  <defs>
    <style>
      .cls-1 {
        fill: #fff;
        stroke-width: 0px;
      }
    </style>
  </defs>
  <g id="_레이어_1-2" data-name="레이어 1">
    <path class="cls-1" d="M78.56,64.29V6.31h15.66v2.65c0,28.33,0,56.66,0,84.99,0,2.28.54,4.76-2.2,6.05-5.63-5.41-10.76-11.66-18.06-15.34-2.78-6.44-9.69-8.65-13.94-13.67-4.22-4.99-9.11-9.42-13.85-13.95-1.93-1.85-4.14-3.54-6.14-5.24-2.93-2.5-6.72-4.06-8.76-8.02-1.93-3.74-6.71-5.04-9.9-7.74-1.3-1.1-2.9,2.91-3.19-.72-.08-.97-2.07-2.02-3.38-2.58-1.33-.57-2.9-.57-4.64-.87-.72,1.84-1.68,4.25-2.6,6.67-.23.6-.59,1.68-.37,1.83,2.2,1.59,1.24,3.87,1.27,5.82.11,7.26,1.15,14.74-.28,21.71-1.29,6.27-.52,12.33-1.01,18.46-.08.97.76,1.99,1.13,3.01.72,1.99.08,3.57-1.54,4.76-1.6-.47-3.2-.94-4.8-1.42C-.6,87.45.09,81.71.08,76.05.06,53.57.11,31.09.03,8.61.01,5.59.49,2.86,2.42,0c4.29,3.24,9.14,5.56,12.53,10.12,1.83,2.46,4.16,4.65,7.17,6.21,2.58,1.34,4.37,4.16,6.55,6.28,4.78,4.65,9.12,9.75,14.8,13.43,6.66,4.31,11.56,10.57,17.34,15.84,5.09,4.64,10.63,8.73,17.75,12.41ZM8.65,27.9c1.36-1.17,2.65-1.87,2.56-2.27-.49-2.29-1.31-4.51-2.02-6.75-.18.05-.36.1-.54.15,0,2.45,0,4.91,2.61,5.36,1-.2,1.91-.38,1.47-.29-.13-.64-.36-1.73-.58-2.81-.23.16-.47.31-.7.47-.06.83-.12,1.66-2.8,6.15ZM29.47,29.27c-.22-.27-.44-.54-.66-.82-.21.21-.42.42-.63.63.28.22.54.46.85.62.05.03.28-.27-.19-1.08-2.48-3.33-5.88-3.98-8.96-5.49v3.4c2.82.66,5.56,1.3,9.59,2.74ZM84.14,46.93c-.39.02-.77.04-1.16.06,0,4.36-.01,8.72.04,13.08,0,.16.6.31,1.12.57v-13.71ZM14.47,19.96c.41,1.68.6,3.08,1.12,4.34.25.59,1.15.91,1.76,1.35.33-.49.91-.96.95-1.47.21-2.64-1.08-3.95-3.83-4.22ZM11.31,15.46v-.7h-2.81v.7h2.81Z"/>
  </g>
</svg>