<?xml version="1.0" encoding="UTF-8"?>
<svg id="_레이어_2" data-name="레이어 2" xmlns="http://www.w3.org/2000/svg" viewBox="0 0 106.03 100">
  <defs>
    <style>
      .cls-1 {
        fill: #fff;
        stroke-width: 0px;
      }
    </style>
  </defs>
  <g id="_레이어_1-2" data-name="레이어 1">
    <path class="cls-1" d="M103.74,2.26c-5.07-.77-9.93-3.33-15.29-1.77-4.86,1.41-9.75,2.72-14.08,3.92.4.07,1.71.13,2.88.57,1.82.69,3.8,1.32,5.26,2.53,5.25,4.32,6.31,10.56,6.62,16.78.62,12.85.87,25.72,1.18,38.59.07,2.85-.24,5.7-.37,8.55-.33.13-.66.27-1,.4-1.4-1.51-2.74-3.08-4.2-4.53C64.41,47.16,45.58,25.76,29.58,1.95c-.58-.86-2.17-1.5-3.28-1.49-8.6.08-17.2.18-25.79.27-.07,2.54-.26,5.08-.5,7.63h15.82c-.66,29.5-1.32,58.49-1.97,87.47q-6.96.85-8.4,4.17c12.33-.88,24.28-1.74,36.22-2.59.06-.42.12-.83.18-1.25-.84-.27-1.68-.76-2.52-.76-4.25,0-8.5.04-12.74.24-2.92.14-4.95-.43-5.34-3.87-.53-4.66-1.92-9.28-1.94-13.92-.09-17.39.21-34.78.42-52.17.02-2.07.33-4.14.5-6.21,3.35,4.36,5.37,9.24,8.45,13.33,8.47,11.26,17.19,22.34,26.17,33.2,6.81,8.22,14.41,15.79,21.18,24.04,3.09,3.77,6.38,6.06,11.2,6.66,5.69.7,11.33,1.87,16.99,2.84.12-.31.24-.63.36-.94-1.65-1.32-3.2-2.8-4.97-3.93-2.47-1.58-3.71-3.64-3.76-6.58-.4-23.69-1.23-47.39-1.07-71.07.07-10.05.43-11.05,10.19-12.59.08-.01.12-.2.18-.3.29-.29.59-.58.88-.87-.76-.33-1.49-.85-2.29-.97Z"/>
  </g>
</svg>