<?xml version="1.0" encoding="UTF-8"?>
<svg id="_레이어_2" data-name="레이어 2" xmlns="http://www.w3.org/2000/svg" viewBox="0 0 72.01 100">
  <defs>
    <style>
      .cls-1 {
        fill: #fff;
        stroke-width: 0px;
      }
    </style>
  </defs>
  <g id="_레이어_1-2" data-name="레이어 1">
    <path class="cls-1" d="M11.78,29.4v70.15H0V.69c3.65-2.08,6.85,1.29,10.4.9.62-.07,1.48.76,2,1.37,2.22,2.55,4.48,5.08,6.48,7.8,5.9,8,12.25,15.6,18.85,23.06,3.87,4.38,8,8.62,11.43,13.49,3.68,5.22,8.49,9.64,13.28,14.94.08-5.44,1.86-10.05,1.75-15.15-.31-14.6-.11-29.21-.11-43.73.58-.23.96-.51,1.33-.51,6.51.05,6.53.06,6.53,6.39,0,28.17,0,56.35,0,84.52,0,2.28.75,4.9-2.73,6.24-.6-.5-1.62-1-2.12-1.81-4.88-7.97-10.34-15.48-16.09-22.87-5.9-7.58-12.6-14.53-17.88-22.65-2.76-4.25-6.7-7.73-10.07-11.58-2.8-3.2-5.54-6.45-8.36-9.63-.52-.58-1.29-.93-2.9-2.06Z"/>
  </g>
</svg>