<?xml version="1.0" encoding="UTF-8"?>
<svg id="_레이어_2" data-name="레이어 2" xmlns="http://www.w3.org/2000/svg" viewBox="0 0 107.67 100">
  <defs>
    <style>
      .cls-1 {
        fill: #fff;
        stroke-width: 0px;
      }
    </style>
  </defs>
  <g id="_레이어_1-2" data-name="레이어 1">
    <path class="cls-1" d="M0,3.48h30.9v12.78c12.09,9.11,23.12,17.42,35.24,26.55.41-4.69.73-8.28,1.09-12.42-6.91-3.21-13.46-6.25-20.25-9.4V5.49c6.94,0,13.17-.12,19.39.03,6.04.15,11.12-.81,16.88-4.08,5.03-2.85,12.96-.59,18.48-.59,11.96,8.61,2.08,17.41,2.56,26.43-3.98.71-7.58,1.35-12.4,2.2v70.19c-23.77,2.85-34.97-13.43-47.18-27.64-4.97-5.78-8.82-12.52-13.18-18.83-.79.22-1.58.43-2.36.65.74,14.32,1.47,28.63,2.23,43.41H0V3.48Z"/>
  </g>
</svg>