<?xml version="1.0" encoding="UTF-8"?>
<svg id="_레이어_2" data-name="레이어 2" xmlns="http://www.w3.org/2000/svg" viewBox="0 0 153.14 100">
  <defs>
    <style>
      .cls-1 {
        fill: #fff;
        stroke-width: 0px;
      }
    </style>
  </defs>
  <g id="_레이어_1-2" data-name="레이어 1">
    <path class="cls-1" d="M38.06,95.07H0V0h80.06c.39,2.88,1.09,6.41,1.31,9.97.83,13.14,1.04,26.34,2.47,39.41.48,4.4,3.03,9.39,6.2,12.52,6.17,6.09,14.2,3.62,16.35-4.83,3.66-14.38,6.62-28.93,9.89-43.41.69-3.03,1.45-6.05,2-8.34.94-.76,1.14-1.04,1.39-1.1,21.42-5.31,30.78.77,32.5,22.64,1.05,13.32,1.57,26.98-.25,40.12-1.19,8.61-7.01,16.57-10.82,24.96-10.75,2.69-21.16,6.51-31.86,7.71-17.27,1.93-32.52-3.5-42.52-18.56-2.63-3.96-3.19-9.72-3.47-14.72-.53-9.35-.15-18.74-.15-27.26h-25.03v55.98Z"/>
  </g>
</svg>