<?xml version="1.0" encoding="UTF-8"?>
<svg id="_레이어_2" data-name="레이어 2" xmlns="http://www.w3.org/2000/svg" viewBox="0 0 94.98 100">
  <defs>
    <style>
      .cls-1 {
        fill: #fff;
        stroke-width: 0px;
      }
    </style>
  </defs>
  <g id="_레이어_1-2" data-name="레이어 1">
    <path class="cls-1" d="M.27,1.09C1.93.76,3.45.21,4.98.18,14.16.04,23.35-.08,32.54.07c1.49.02,3.16,1.19,4.4,2.24,8.93,7.61,15.37,17.34,22.42,26.55,2.49,3.24,5.31,6.23,7.97,9.34.36-.18.71-.36,1.07-.54-.58-5.99-.61-12.11-1.91-17.95-1.27-5.7-3.85-11.11-6.02-17.08h34.52c-.19,4.36-1.38,6.61-4.75,9.04-1.99,29.09-.22,58.48-.79,88.33-6.81-.65-11.18-4.01-14.88-8.51-2.17-2.63-4.34-5.27-6.38-8-5.34-7.17-10.75-14.29-15.86-21.62-6.09-8.72-11.9-17.63-18.01-26.73v63.55c-7.78-.21-15.74.16-23.83-.47V14.27c-1.73-1.26-3.96-3.21-6.47-4.66C.15,7.4-.46,6.46.27,1.09Z"/>
  </g>
</svg>