<?xml version="1.0" encoding="UTF-8"?>
<svg id="_레이어_2" data-name="레이어 2" xmlns="http://www.w3.org/2000/svg" viewBox="0 0 95.77 100">
  <defs>
    <style>
      .cls-1 {
        fill: #fff;
        stroke-width: 0px;
      }
    </style>
  </defs>
  <g id="_레이어_1-2" data-name="레이어 1">
    <path class="cls-1" d="M25.7,58.51c2,1.76,3.66,3.21,5.76,5.05-1.08,2.8-2.12,5.49-3.42,8.83-9.81-6-18.74-11.45-28.05-17.14v-5.38c.79-.44,1.33-1,1.68-.9,4.62,1.36,8.34-.38,10.83-3.99,6.26-9.1,12.51-18.23,18.09-27.75,3.06-5.21,4.74-11.23,7.19-17.25,3.79,1.62,7.7,3.3,12.41,5.32v10.26c20.7-3.31,31.77,9.65,40.48,26.57,1.87-1.31,3.23-2.26,5.09-3.57-.19,1.16-.07,2.04-.45,2.4-1.49,1.41-3.14,2.66-4.77,4-2.54,10.01-6.86,19.2-12.51,27.87-2.45,3.77-3.99,8.13-6.23,12.83,3.7,2.25,6.66,4.05,10.11,6.14-1.66,2.63-3.22,5.09-5.17,8.18-11.3-6.6-22.27-13.02-33.52-19.6,1.29-2.15,2.3-3.83,3.34-5.57,2.76.47,5.19.89,8.35,1.43,1.72-2.38,3.84-4.63,5.14-7.27,3.39-6.88,6.54-13.9,9.58-20.95,3.59-8.34,2.43-13.98-3.37-17.92-8.25-5.59-17.61-5.69-23.38.3-7.74,8.04-12.61,17.91-17.18,28.09Z"/>
  </g>
</svg>