<?xml version="1.0" encoding="UTF-8"?>
<svg id="_레이어_2" data-name="레이어 2" xmlns="http://www.w3.org/2000/svg" viewBox="0 0 75.93 99.55">
  <defs>
    <style>
      .cls-1 {
        fill: #fff;
        stroke-width: 0px;
      }
    </style>
  </defs>
  <g id="_레이어_1-2" data-name="레이어 1">
    <path class="cls-1" d="M22.31,44.7c0,7-.06,14.01.02,21.01.09,8.27.37,16.54.42,24.81.03,5.55-2.7,8.37-8.23,8.36-3.2,0-6.57-.04-9.56-1.01C1.29,96.69,0,93.38.03,89.55c.08-11.65.1-23.3.12-34.95.02-14.1.4-28.21-.14-42.29C-.27,5.05,4.7.6,11.21.13c3.52-.26,7.3-.2,10.58.88,2.18.72,4.18,3.22,5.42,5.39,4.87,8.57,9.42,17.33,14.08,26.02,3.5,6.53,6.99,13.07,10.6,19.81.12-.76.32-1.46.33-2.17.17-12.77.32-25.54.46-38.31.04-3.6-.18-7.2,3.81-9.25,4.59-2.37,9.22-3.26,14-.78,3.39,1.76,5.15,4.29,5.14,8.52-.05,25.44.19,50.88.32,76.32.04,7.3-2.06,10.54-7.75,12.1-8.92,2.43-14.97.04-19.47-8.05-6.62-11.89-13.05-23.89-19.63-35.81-1.94-3.51-4.11-6.89-6.17-10.32-.2.08-.39.16-.59.24Z"/>
  </g>
</svg>