<?xml version="1.0" encoding="UTF-8"?>
<svg id="_레이어_2" data-name="레이어 2" xmlns="http://www.w3.org/2000/svg" viewBox="0 0 92.8 100">
  <defs>
    <style>
      .cls-1 {
        fill: #fff;
        stroke-width: 0px;
      }
    </style>
  </defs>
  <g id="_레이어_1-2" data-name="레이어 1">
    <path class="cls-1" d="M3.46,7.69C5.78,4.09,9.27,1.48,11.9.8c10-2.6,16.18,1.32,23.46,9.57,12.67,14.36,8.6,31.55,13.04,47.13,1.57,5.49,5.26,10.38,9.06,17.57,17.37-16.53,10.57-35.74,14.51-53.24h20.77c0,21.39.23,42.9-.19,64.39-.09,4.47-2.14,12.52-3.97,12.72-8.03.89-17.34,3.61-23.3-5.66-5.57-8.66-11.4-17.15-17.67-26.55-8.7,7.74-10.2,15.64-8.38,24.71.48,2.38.5,4.87.42,7.3-.01.31-2.82.87-2.86.78-.91-2.51-2.12-5.05-2.3-7.65-1.36-19.47-5.66-37.44-25.88-49.87C-1.13,36.71-2.25,17.47,3.46,7.69Z"/>
  </g>
</svg>