<?xml version="1.0" encoding="UTF-8"?>
<svg id="_레이어_2" data-name="레이어 2" xmlns="http://www.w3.org/2000/svg" viewBox="0 0 81.56 100">
  <defs>
    <style>
      .cls-1 {
        fill: #fff;
        stroke-width: 0px;
      }
    </style>
  </defs>
  <g id="_레이어_1-2" data-name="레이어 1">
    <path class="cls-1" d="M65.94,88.46q-1.68.49-1.45,2.23c-1.87.82-3.45-.02-5.05-.88-.44-.24-1.07-.57-1.43-.42-1.06.45-2.08,1.05-3.03,1.71-1.59,1.1-1.39,2.54-.7,4.1.17.38-.15.97-.24,1.46-.5-.17-1.2-.18-1.48-.53-1.46-1.85-2.93-3.7-4.17-5.7-2.34-3.77-4.66-7.56-6.73-11.47-2.14-4.05-3.87-8.32-6-12.38-1.57-3-3.55-5.78-5.21-8.73-1.22-2.18-2.56-4.38-3.25-6.75-1.42-4.87-3.4-9.39-6.9-13.82-.12,1.92-.29,3.44-.29,4.97.02,6.95.08,13.91.15,20.86.05,5.42.22,10.83.2,16.25-.03,5.75-.15,11.5-.36,17.25-.11,3.11-.65,3.45-3.67,3.36-4.5-.13-8.99-.2-13.49-.25-1.93-.02-2.65-.66-2.71-3.17-.12-4.76-.07-9.53-.1-14.29-.02-3.81-.07-7.61-.03-11.42.03-3.21.21-6.43.23-9.64.06-7.3.05-14.6.09-21.9.02-4.96.09-9.92.09-14.88,0-2.75-.16-5.51-.16-8.26,0-3.29.06-6.58.17-9.86.04-1.23.31-2.44.47-3.67.18,0,.37,0,.55,0,.11.33.21.66.32.98.37,1.12.84,1.2,1.67.31.51-.55,1.29-1.15,1.97-1.18,1.76-.07,3.53.16,5.3.26,1.45.09,2.87.69,4-1.13.8-1.28,3.55-.58,4.62.9,1.11-.15,2.21-.38,3.31-.42,1.99-.08,3.54.24,4.72,2.4,1.92,3.53,4.54,6.69,6.68,10.11,2.05,3.28,3.85,6.72,5.79,10.07,3.18,5.52,6.46,10.98,9.55,16.54,2.67,4.81,5.13,9.74,7.69,14.61.67,1.28,1.35,2.56,2.11,3.99.22-.32.44-.49.44-.66.13-8.59.23-17.19.36-25.78.14-9.55.27-19.11.46-28.66.02-.95.31-1.95.73-2.8.27-.55.95-1.13,1.54-1.27,5.82-1.34,11.74-.88,17.64-.77.14,0,.27.14.47.25-.13,2.12-.34,4.27-.36,6.41-.02,1.81.27,3.62.27,5.43,0,2.18-.3,4.37-.27,6.55.11,7.29.43,14.59.45,21.88.02,5.91-.4,11.81-.39,17.72,0,5.72.37,11.43.46,17.15.05,3.32-.11,6.64-.19,9.96,0,.38-.22.84-.08,1.13,1.55,3.09.41,6.35.64,9.51.03.41-.36.84-.63,1.44-.58-.36-1.03-.64-1.48-.92-.25.43-.5.86-.81,1.4.62.16,1.27.32,2.61.66-.98.59-1.53,1.21-2.08,1.22-3.47.03-6.95-.06-10.42-.16-2.25-.07-2.68-.63-2.51-3.15-1.04-.11-2-.38-2,1.33,0,.38-1.08,1.13-1.6,1.07-2.12-.24-4.23-.53-5.37-2.89-.59-1.23-.23-1.84.81-1.89,2.86-.13,5.74-.05,8.72-.05-.03-.52-.1-1.55-.19-2.97-.07-.03-.54-.27-1.08-.53.17-.65.34-1.32.59-2.27Z"/>
  </g>
</svg>