<?xml version="1.0" encoding="UTF-8"?>
<svg id="_레이어_2" data-name="레이어 2" xmlns="http://www.w3.org/2000/svg" viewBox="0 0 74.4 100">
  <defs>
    <style>
      .cls-1 {
        fill: #fff;
        stroke-width: 0px;
      }
    </style>
  </defs>
  <g id="_레이어_1-2" data-name="레이어 1">
    <path class="cls-1" d="M52.85,45.69c2.78-5.7,1.71-11.38,1.96-16.84.34-7.62.04-15.27.11-22.91.05-5.28.61-5.87,5.75-5.85,3.52.01,7.04.3,10.54.62,2.18.2,3.24,1.6,3.18,3.81-.13,4.84-.17,9.68-.39,14.51-.16,3.52-.73,7.02-.83,10.54-.54,18.18.2,36.36-.07,54.54-.06,4.26-.67,8.5-.9,12.76-.11,2.11-1.1,3.04-3.12,3.05-2.05,0-4.1.09-6.15,0-5.29-.23-6.19-.69-7.62-6.03-2.26-8.46-8.13-14.47-13.56-20.77-2.79-3.23-5.38-6.43-7.5-10.23-2.78-4.98-6.59-9.41-10.12-13.95-1.5-1.93-3.62-1.59-4.12.86-.88,4.33-1.52,8.78-1.54,13.18-.02,6.11.55,12.23,1.01,18.34.2,2.74.97,5.44,1.07,8.17.1,2.84-.15,5.72-.61,8.53-.13.76-1.56,1.83-2.42,1.86-4.83.15-9.69.18-14.5-.14-1.01-.07-2.32-1.63-2.76-2.78-.49-1.31-.19-2.94-.18-4.43.06-16.18.13-32.37.21-48.55.02-3.65.12-7.31.18-10.96,0-.37-.19-.81-.04-1.09,3.44-6.67,1.14-13.84,1.76-20.75.32-3.59,1.76-6.43,3.99-8.95C8.62-.49,10.64-.52,14.04,1.05c7.55,3.5,12.26,10.07,17.33,16.11,6.57,7.82,12.59,16.09,18.81,24.2.89,1.17,1.56,2.51,2.67,4.32ZM12.33,47.57c-.43,2.58-1.51,4.78-.89,6.3.82,2.03,2.96,3.52,5.19,5.97-1.15-4.5-.59-8.61-4.3-12.27ZM53.41,48.01c-1.6.86-2.72,1.15-2.75,1.52-.32,3.88-.01,7.72,1.76,11.47.3-3.96.6-7.92.99-12.99ZM16.78,31.36c-1.14-1.3-2.04-2.33-2.94-3.35-.66.72-1.74,1.35-1.91,2.17-.33,1.7.78,2.83,2.45,2.87.65.02,1.32-.89,2.39-1.69Z"/>
  </g>
</svg>