<?xml version="1.0" encoding="UTF-8"?>
<svg id="_레이어_2" data-name="레이어 2" xmlns="http://www.w3.org/2000/svg" viewBox="0 0 57.33 100">
  <defs>
    <style>
      .cls-1 {
        fill: #fff;
        stroke-width: 0px;
      }
    </style>
  </defs>
  <g id="_레이어_1-2" data-name="레이어 1">
    <path class="cls-1" d="M57.24,29.04c-.05-6.3-1.11-12.7-4.63-18.08-1.89-2.89-4.65-6.3-7.67-7.13-5.18-1.43-10.87-1.03-16.35-1.37-.03,0-.09.33-.13.49,1.33.39,2.64.78,3.97,1.17-1.6,3.72-6.21,5.22-12.84,3.97,1.25-2.41,2.39-4.63,3.77-7.28-1.06-.21-2.76-1.03-4.24-.74-4.59.88-9.1,2.18-14,3.4v85.05c1.61.2,2.96.36,4.32.52-.03.44-.06.87-.09,1.31H.75c-.26.33-.42.75-.52,1.15-.23.89-.25,1.82-.23,2.74.01.5.05,1,.1,1.51,3.99,0,7.98,0,11.98,0,4.89-.01,9.92,1.29,14.68-1.12.58-.3,1.5.01,2.26.12,1.67.24,3.33.74,5,.77,5.13.08,10.26-.06,15.38-.02,3.22.03,6.14.75,7.34,4.51.35-.84.5-1.53.5-2.22.03-22.91.17-45.83-.01-68.74ZM43.57,90.27h-25.46c0-2.04,0-3.86,0-5.68.09-18.96.12-37.91.31-56.87.04-4.34.66-8.68.95-13.02.14-2.02,1.08-2.72,3.14-2.08v3.83c1.66-1.09,3.05-1.77,4.15-2.76,2.95-2.65,5.97-1.86,9.06-.46,5.01,2.27,7.14,6.33,7.22,11.67.2,13.17.46,26.34.61,39.51.09,8.27.02,16.54.02,25.86Z"/>
  </g>
</svg>