<?xml version="1.0" encoding="UTF-8"?>
<svg id="_레이어_2" data-name="레이어 2" xmlns="http://www.w3.org/2000/svg" viewBox="0 0 89.81 100">
  <defs>
    <style>
      .cls-1 {
        fill: #fff;
        stroke-width: 0px;
      }
    </style>
  </defs>
  <g id="_레이어_1-2" data-name="레이어 1">
    <path class="cls-1" d="M18.06,22.04c-1.3,24.6,1.88,49.64-1.51,75.58-5.19.51-9.72.96-14.07,1.39C-.49,87.68-.88,17.56,1.79,1.77,4.08,1.22,6.7.06,9.31.05c23.86-.1,47.71-.02,71.57.07,1.94,0,3.88.52,6.91.95.97,32.52,3.26,64.59,1.18,97.26-4.01.71-7,1.24-9.4,1.67-1.03-.91-1.44-1.11-1.61-1.44-.52-1.06-1.34-2.17-1.35-3.27-.08-24.24-.06-48.49-.06-72.34-9.96-4.08-46.78-4.57-58.49-.91Z"/>
  </g>
</svg>