<?xml version="1.0" encoding="UTF-8"?>
<svg id="_레이어_2" data-name="레이어 2" xmlns="http://www.w3.org/2000/svg" viewBox="0 0 90 100">
  <defs>
    <style>
      .cls-1 {
        fill: #fff;
        stroke-width: 0px;
      }
    </style>
  </defs>
  <g id="_레이어_1-2" data-name="레이어 1">
    <path class="cls-1" d="M22.7,57.54c.57,13.96-1.12,27.95,1,41.76-5.97,0-12.04.34-18.06-.12-3.99-.31-6.15-3.54-5.55-7.76,2.27-16.18,1.62-32.49,2.3-48.74.43-10.31.09-20.66-.02-30.99-.01-.97-.86-1.93-1.34-2.89-.16-.33-.53-.63-.53-.95-.05-2.28-.03-4.56-.03-7,7.97,0,15.79-.02,23.61.05.49,0,1.2.56,1.44,1.04,4.34,8.61,8.55,17.28,12.92,25.86,7.13,14,14.35,27.96,21.56,41.92,1.52,2.95,3.17,5.85,4.74,8.75,0-6.47-.02-12.79,0-19.11.05-12.09.19-24.18.19-36.27,0-8.57-2.58-11.04-11.2-11.01-1.74,0-3.47.16-5.24.25,0-3.81-.03-7.43.04-11.05,0-.33.64-.92.98-.92,8.7.05,17.44-1.16,26.08.52,8.36,1.62,13.75,7.45,13.9,16.06.39,22.62.38,45.24.49,67.87,0,1.41-.24,2.83-.49,4.22-1.17,6.55-4.16,10.21-12.85,10.75-9.21.57-18.49-.18-27.74-.3-1.9-.02-2.74-1.25-3.46-2.66-4.08-7.99-8.05-16.04-12.21-23.99-2.34-4.48-4.94-8.83-7.48-13.2-.51-.88-1.33-1.59-2.01-2.37-.35.09-.7.18-1.04.26Z"/>
  </g>
</svg>