<?xml version="1.0" encoding="UTF-8"?>
<svg id="_레이어_2" data-name="레이어 2" xmlns="http://www.w3.org/2000/svg" viewBox="0 0 116.2 100">
  <defs>
    <style>
      .cls-1 {
        fill: #fff;
        stroke-width: 0px;
      }
    </style>
  </defs>
  <g id="_레이어_1-2" data-name="레이어 1">
    <path class="cls-1" d="M115.76,91.21c-.37-.41-.21-.32-.19-.19,1.79,8.03-.07,10.1-8.06,8.46-5.54-1.14-10.98-2.79-16.49-4.13-9.59-2.33-18.86-.55-28.06,2.23-4.57,1.38-8.75,2.52-13.63-.76-2.55-1.72-7.31-.32-11.05-.07-3.91.26-7.79.9-11.69,1.23-4.61.39-8.94-.23-12.6-3.56-.66-.59-1.88.15-2.9.55-2.1.83-.01,1.25-10.51,2.22-1.11-5.3-.33-5.32,0-7.61.51-2.56,2.32-2.33,2.98-2.27.4-.04.73-.12,1.33-1.17.54-.97-.15-36.28-.12-37.33.33-11.59.51-23.19.98-34.78.23-5.71,3.31-8.33,8.56-6.81,6.61,1.91,12.98,4.69,19.45,7.08.66.24,1.43.73,2.02.57,5.06-1.35,6.47,2.03,7.22,5.76,1.54,7.65,3.15,15.31,4.13,23.04,1.68,13.18,2.9,26.43,4.31,39.65.2,1.89.34,3.8.51,5.69.36-.01.73-.02,1.09-.03.12-1.2.33-2.39.33-3.59.02-18.55.05-37.09-.03-55.64-.01-2.89-.03-5.99-1.04-8.6-.91-2.35-3.04-4.34-4.95-6.16-1.06-1.01-2.77-1.35-3.78-1.81,2.59-4.11,4.8-7.94,7.4-11.5.73-1.01,2.57-1.65,3.93-1.69,15.89-.52,27.79,7.26,38.27,18.3,5.08,5.36,10.33,10.45,11.5,18.16.43,2.85.69,5.78.58,8.65-.2,5.28-1.01,10.54-1.07,15.82-.09,8.04.14,16.08.46,24.12.15,3.92,2.03,6.74,6.39,6.88,1.3.04,2.63-.4,4.72-.74Z"/>
  </g>
</svg>