<?xml version="1.0" encoding="UTF-8"?>
<svg id="_레이어_2" data-name="레이어 2" xmlns="http://www.w3.org/2000/svg" viewBox="0 0 139.04 100">
  <defs>
    <style>
      .cls-1 {
        fill: #fff;
        stroke-width: 0px;
      }
    </style>
  </defs>
  <g id="_레이어_1-2" data-name="레이어 1">
    <path class="cls-1" d="M5.7,91.01c2.7,3.44,6.77,4.33,10.29,2.67,3.24-1.53,4.79-5.22,4-9.03-.34-1.66-.36-3.4-.41-5.11-.3-9.46-.78-18.91-.79-28.37-.01-8.45.63-16.89.72-25.34.03-2.98-.22-6.14-1.21-8.9-2.4-6.67-8.6-8.91-16.44-6.44-.48.15-.95.35-1.84.68V3.07c1.99,0,4.12.14,6.21-.02C19.04,2.03,31.84.74,44.68.02c3.09-.17,6.79.71,9.3,2.44,4.41,3.05,10.1,5.38,10.62,12.12.08,1.05,1.58,1.95,2.29,3.01,1.6,2.39,1.85,4.65-.54,6.85-.86.79-1.73,2.1-1.76,3.19-.39,17.84-.69,35.68-.92,53.52-.07,5.68,5.4,11.67,10.27,10.78,2.14-.39,4.12-2.47,5.82-4.14,1.46-1.44,2.41-3.4,3.65-5.21-4.1-1.22-10.02-1.23-10.82-8.02-.61-5.16-1.24-10.38,3.43-14.72-2.61-.98-4.71-1.77-7-2.64v-3.44c.26-.25.36-.42.48-.44,4.16-.74,9.34-.16,11.47-4.55,2.94-6.08,4.73-12.74,2.8-19.62-1.21-4.3-1.54-9.55-8.04-9.45,3.32-7.58,8.98-11.59,16.65-12.75,2.07-.31,4.33-.26,6.37.21,7.61,1.74,14.65,4.68,20.99,9.45,5.9,4.44,8.64,10.36,8.66,17.36.04,11.79-.46,23.59-.78,35.38-.19,7,.5,13.33,8.28,16.53,3.19,1.32,3.71,4.72,2.72,7.82-.94,2.93-3.25,3.83-6.45,3.62-5.16-.35-10.5-.96-15.5-.05-19.36,3.53-38.86,2.64-58.33,2.56-16.35-.07-32.69-.4-49.03-.89-5.5-.17-2.9-4.6-3.58-7.95Z"/>
  </g>
</svg>