<?xml version="1.0" encoding="UTF-8"?>
<svg id="_레이어_2" data-name="레이어 2" xmlns="http://www.w3.org/2000/svg" viewBox="0 0 52.31 95.58">
  <defs>
    <style>
      .cls-1 {
        fill: #fff;
        stroke-width: 0px;
      }
    </style>
  </defs>
  <g id="_레이어_1-2" data-name="레이어 1">
    <path class="cls-1" d="M37.84,58.23c0-17.94.08-35.88-.07-53.81-.03-3.13.77-4.33,3.97-3.96,2.47.29,5.02.34,7.5.14,2.51-.2,3.08.73,3.06,3.11-.11,14.79-.06,29.59-.07,44.38,0,14.47-.09,28.94.03,43.4.02,2.93-.74,4.24-3.83,3.94-3.35-.32-7.1.91-9.98-.68-2.97-1.64-2.89-5.78-4.27-8.76-6.26-13.56-12.69-27.05-18.32-40.89-.31-.75-.42-1.75-1.67-2.09-.86,1.32-.48,2.87-.48,4.29-.04,14.58-.01,29.15-.02,43.73,0,4.3-.02,4.29-4.18,4.25-2.18-.02-4.36-.08-6.53.07-2.17.16-2.92-.8-2.9-2.83.03-3.26-.13-6.53-.06-9.79C.56,56.74.34,30.74.42,4.74Q.43.15,5.06.13c.98,0,1.99.14,2.93-.04,2.36-.44,2.97.82,3.78,2.81,2.99,7.29,6.24,14.48,9.54,21.64,5.2,11.3,10.51,22.54,15.78,33.8.25-.04.49-.07.74-.11Z"/>
  </g>
</svg>