<?xml version="1.0" encoding="UTF-8"?>
<svg id="_레이어_2" data-name="레이어 2" xmlns="http://www.w3.org/2000/svg" viewBox="0 0 92.42 100">
  <defs>
    <style>
      .cls-1 {
        fill: #fff;
        stroke-width: 0px;
      }
    </style>
  </defs>
  <g id="_레이어_1-2" data-name="레이어 1">
    <path class="cls-1" d="M88.71,78.96v21.04H0C1.15,66.5,2.29,33.47,3.44,0h88.94c0,5.91.19,11.74-.2,17.54-.06.89-2.77,2.26-4.27,2.28-13.16.19-26.32.13-39.48.14-4.65,0-9.3,0-14.32,0v28.61c.21,0,.41,0,.62,0,.14-2.39.27-4.78.44-7.71h42.37v20.22h-43.05v16.87c2.24.32,4.65.95,7.07.96,15.55.09,31.1.05,47.15.05Z"/>
  </g>
</svg>