<?xml version="1.0" encoding="UTF-8"?>
<svg id="_레이어_2" data-name="레이어 2" xmlns="http://www.w3.org/2000/svg" viewBox="0 0 126.21 100">
  <defs>
    <style>
      .cls-1 {
        fill: #fff;
        stroke-width: 0px;
      }
    </style>
  </defs>
  <g id="_레이어_1-2" data-name="레이어 1">
    <path class="cls-1" d="M94.14,55.6c0-16.57.35-31.03-.14-45.46-.26-7.58,2.47-9.54,9.79-9.33,21.51.63,21.43.34,21.54,22.03.11,22.23,0,44.47.86,66.68.34,8.74-2.68,10.49-10.73,10.47-8.84-.02-16.55-1.22-23.29-7.37-19.2-17.53-40.51-32.46-62.27-50.03,0,16.77-.41,32.4.18,47.99.28,7.48-1.95,9.47-9.38,9.33-20.47-.38-20.47-.02-20.47-20.34C.22,55.94.53,32.29,0,8.65-.15,1.36,2.24-.29,8.95.04c8.31.41,15.03,2.38,21.98,7.99,20.34,16.45,41.75,31.58,63.2,47.57Z"/>
  </g>
</svg>