<?xml version="1.0" encoding="UTF-8"?>
<svg id="_레이어_2" data-name="레이어 2" xmlns="http://www.w3.org/2000/svg" viewBox="0 0 141.8 100">
  <defs>
    <style>
      .cls-1 {
        fill: #fff;
        stroke-width: 0px;
      }
    </style>
  </defs>
  <g id="_레이어_1-2" data-name="레이어 1">
    <g>
      <path class="cls-1" d="M111.22,54.82c0-16.89.09-32.92-.07-48.94-.04-3.82,1.02-5.23,5.05-5.05,7.1.33,14.23.23,21.34.03,3.24-.09,4.28.93,4.25,4.21-.21,23.15-.24,46.3-.36,69.45-.04,7.1-.25,14.21-.26,21.31,0,2.29-.27,3.57-3.15,3.6-8.75.12-17.51-.39-26.27.52-3.72.39-6.89-2.02-9.72-4.25-14.49-11.4-28.83-22.97-43.38-34.29-4.89-3.81-10.2-7.09-15.4-10.48-1.38-.9-2.49-1.21-2.43-3.52.39-14.37.42-28.75.63-43.13.02-1.38-.8-3.28.73-4.04,1.66-.83,3.22.63,4.4,1.62,7.34,6.12,14.5,12.47,21.85,18.59,13.3,11.06,26.7,22.02,40.07,33,.48.39,1.12.58,2.7,1.37Z"/>
      <path class="cls-1" d="M31.5,50.25c0,14.87-.1,29.74.08,44.6.04,3.41-.78,4.57-4.34,4.44-7.43-.28-14.89-.36-22.3.02C.67,99.53-.04,97.68,0,94.12c.18-16.35.2-32.7.3-49.05.09-13.21.33-26.43.26-39.64-.02-3.41.89-4.68,4.43-4.58,7.6.22,15.21.24,22.8,0,3.46-.11,4.08,1.22,4.05,4.33-.14,15.02-.06,30.05-.06,45.07-.09,0-.19,0-.28,0Z"/>
    </g>
  </g>
</svg>