<?xml version="1.0" encoding="UTF-8"?>
<svg id="_레이어_2" data-name="레이어 2" xmlns="http://www.w3.org/2000/svg" viewBox="0 0 132.38 100">
  <defs>
    <style>
      .cls-1 {
        fill: #fff;
        stroke-width: 0px;
      }
    </style>
  </defs>
  <g id="_레이어_1-2" data-name="레이어 1">
    <path class="cls-1" d="M24.55,34.84v65.11c-7.47,0-14.45.21-21.38-.22-1.08-.07-2.8-3.02-2.84-4.68C0,83.6,0,72.15,0,60.7,0,42.24.05,23.78.1,5.32c0-1.33.15-2.66.22-3.96,8.29-2.22,13.93.04,20.29,6.17,23.76,22.84,48.52,44.65,72.88,66.87,3.12,2.84,6.11,5.82,9.87,9.41V.01c9.3,0,18.11-.07,26.92.12.75.02,2.1,1.77,2.09,2.71-.15,29.38-.43,58.76-.72,88.14,0,.84-.29,1.68-.56,3.14-4.81,0-9.73-.37-14.57.11-4.52.44-9.18,1.21-13.35,2.89-3.24,1.31-5.18.99-7.68-1.18-22.05-19.17-44.18-38.23-66.3-57.32-1.15-.99-2.36-1.92-4.65-3.79Z"/>
  </g>
</svg>