<?xml version="1.0" encoding="UTF-8"?>
<svg id="_레이어_2" data-name="레이어 2" xmlns="http://www.w3.org/2000/svg" viewBox="0 0 94.87 99.25">
  <defs>
    <style>
      .cls-1 {
        fill: #fff;
        stroke-width: 0px;
      }
    </style>
  </defs>
  <g id="_레이어_1-2" data-name="레이어 1">
    <path class="cls-1" d="M27.64,58.7c1.47-1.7,3.04-3.32,4.39-5.11,8.52-11.3,17.02-22.62,25.45-33.99,4.1-5.52,8.04-11.15,12.03-16.76.84-1.18,1.78-1.79,3.33-1.77,6.35.09,12.7.1,19.05,0,1.89-.03,2.47.54,2.45,2.44-.09,9.21-.09,18.42-.03,27.63.13,20.55.31,41.1.47,61.65,0,.24,0,.48.02.71q.23,5.76-5.67,5.75c-5.48,0-10.96,0-16.43,0q-3.16,0-3.16-3.05c0-15.24,0-30.49-.02-45.73,0-.98-.31-1.97-.48-2.95-.35-.14-.69-.27-1.04-.41-.7.94-1.41,1.88-2.1,2.83-10.21,13.97-20.43,27.93-30.63,41.91-1.45,1.98-2.74,4.09-4.31,5.96-.62.74-1.83,1.38-2.77,1.39-5,.03-10-.18-15-.27-1.66-.03-2.39-.61-2.81-2.42-1.46-6.39-3.28-12.64-8.34-17.41-1.04-.98-1.63-2.91-1.64-4.41-.16-18.72-.18-37.45-.23-56.17,0-1.98.13-3.99-.11-5.94-.27-2.19.52-3.85,1.9-5.38.69-.77,1.63-1.42,2.04-2.31C6.06.36,9.74-.3,14.17.1c3.23.29,6.51.15,9.76.02,2.01-.08,2.79.45,2.77,2.64-.09,9.92,0,19.85,0,29.77,0,7.76-.03,15.53-.04,23.29,0,.83.09,1.66.13,2.49.29.13.57.26.86.38Z"/>
  </g>
</svg>