<?xml version="1.0" encoding="UTF-8"?>
<svg id="_레이어_2" data-name="레이어 2" xmlns="http://www.w3.org/2000/svg" viewBox="0 0 126.04 100">
  <defs>
    <style>
      .cls-1 {
        fill: #fff;
        stroke-width: 0px;
      }
    </style>
  </defs>
  <g id="_레이어_1-2" data-name="레이어 1">
    <path class="cls-1" d="M0,.14C12.39.14,24.04-.3,35.62.39c3.63.22,7.89,2.73,10.49,5.49,15.69,16.66,30.99,33.69,48.1,52.44V.17c9.59,0,17.96-.46,26.2.32,2.06.2,5.33,4.39,5.36,6.79.37,30.32.24,60.65.24,92.46-9.53,0-18.94-.68-28.21.17-12.11,1.1-15.68-8.55-21.84-15.33-13.42-14.78-27.09-29.33-42.64-46.1v60.72H0V.14Z"/>
  </g>
</svg>