<?xml version="1.0" encoding="UTF-8"?>
<svg id="_레이어_2" data-name="레이어 2" xmlns="http://www.w3.org/2000/svg" viewBox="0 0 85.34 100">
  <defs>
    <style>
      .cls-1 {
        fill: #fff;
        stroke-width: 0px;
      }
    </style>
  </defs>
  <g id="_레이어_1-2" data-name="레이어 1">
    <g>
      <path class="cls-1" d="M0,0c9.03.76,18.45,1.56,28.01,2.37-.31,12.13-.88,24.75-.91,37.36-.03,16.51.32,33.02.63,49.52.04,2.19.78,4.38,1.2,6.56.5,2.58.2,4.26-3.18,4.19-7.32-.16-14.64,0-21.96-.03-1.05,0-2.11-.38-3.8-.71V0Z"/>
      <path class="cls-1" d="M85.34,99.53h-32.49c6.88-2.84,8.76-9.05,9.88-15.61,1.14-6.68.58-13.24-1.24-19.84-3.32-12.04-10.94-21-19.8-29.17-2.23-2.05-4.96-3.59-7.03-5.77-1.1-1.15-1.81-3.17-1.79-4.78.1-5.81.58-11.61.99-18.6,2.03,1.17,3.54,1.84,4.81,2.82,3.64,2.79,7.18,5.71,10.76,8.58,8.35,6.69,13.7,15.42,18.26,25,5.76,12.09,7.55,24.96,9.33,37.93.49,3.56.97,7.24,2.32,10.51,1.25,3.02,3.67,5.55,6,8.92Z"/>
    </g>
  </g>
</svg>