<?xml version="1.0" encoding="UTF-8"?>
<svg id="_레이어_2" data-name="레이어 2" xmlns="http://www.w3.org/2000/svg" viewBox="0 0 90.96 100">
  <defs>
    <style>
      .cls-1 {
        fill: #fff;
        stroke-width: 0px;
      }
    </style>
  </defs>
  <g id="_레이어_1-2" data-name="레이어 1">
    <g>
      <path class="cls-1" d="M60.47,3.94c-.44-.28-.87-.55-1.31-.83l-.34.36c.47,1.61.94,3.22,1.48,5.06-.43-.35-.91-.61-1.21-1-.36-.46-.56-1.04-.83-1.57-.56.29-1.12.59-1.71.9.09-1.31.19-2.83.31-4.65h34.11v4.99c-1.7.23-3.31.34-4.88.68-4.48.95-7.07,3.85-8.58,8.1-1.4,3.94-1.62,7.96-1.59,12.04.16,23.13.32,46.27.49,69.4,0,.78,0,1.56,0,2.35-.19.07-.37.15-.56.22-.85-1.11-1.75-2.18-2.53-3.33-10.62-15.63-21.2-31.29-31.86-46.9-3.43-5.03-7.07-9.91-10.63-14.85-.38-.53-.82-1.04-1.66-1.43-.09,1.79-.26,3.58-.25,5.37.09,11.12.16,22.24.35,33.35.07,3.89.3,7.78.71,11.65.42,3.95,3.19,6.54,7.14,7.11.98.14,1.97.31,2.94.47-.32,2.81-.64,5.52-.98,8.52H9.12c-.07-.18-.15-.35-.22-.53.62-.44,1.24-.87,2.08-1.47-.89-.76-1.79-1.53-3.11-2.65,3.1-.4,2.49-2.39,2.61-3.87.51,0,1.13.18,1.34-.04.29-.31.51-1.07.33-1.35-1.41-2.21.63-2,1.67-2.47.27-.12.61-.08.94-.12,1.64-7.06,3.58-14.05,3.23-21.36-.37-7.82-1.02-15.63-1.32-23.45-.07-1.8-.58-3.97,1.38-5.53-1.88-1.03-1.37-2.88-1.43-4.46-.17-4.94-.26-9.89-.22-14.84.04-5.76-3.42-9.42-8.13-11.17-.81-.3-1.91.17-2.88.27-.41.04-1.01.22-1.21.02-.29-.28-.46-.89-.38-1.3.34-1.71.79-3.4,1.12-4.76C10.87.6,16.67.21,22.49.06c1.59-.04,3.18.74,4.79.87.95.08,1.95-.4,2.92-.62.47-.1.95-.18,1.62-.31-.05.59.05,1.08-.14,1.38-1.35,2.2-.57,3.99.78,5.88.85,1.18,1.96,2.27,1.48,4.19-.36,1.44.95,2.05,2.64,1.61-1.29,1.8-.71,2.51,1.01,2.77.38.06.78.54,1.02.92,1.73,2.83,3.18,5.86,5.17,8.5,6.72,8.92,13.6,17.71,20.47,26.52.71.91,1.7,1.6,2.97,2.78.25-1.76.6-3.02.59-4.28-.07-10.81-.17-21.62-.33-32.43-.06-3.7-1.25-6.86-4.65-8.92-.57-.35-.76-1.43-.99-2.21-.3-1,.2-2.36-1.32-2.78h-.04ZM72.91,57.37c-1.15,3.55-1.14,3.6.78,4.74-.29-1.77-.53-3.25-.78-4.74ZM72.31,63.45q.1,2.32,1.35,2.63c.04-.88.09-1.75.14-2.7-.52.03-.93.05-1.49.07ZM73.65,71.61c-.6.44-.96.71-1.73,1.28,1.14.16,1.69.24,2.56.36-.36-.72-.56-1.12-.82-1.63ZM35.25,30.22c-.47-.39-.83-.82-.95-.76-.34.17-.59.53-.87.81.22.22.47.64.67.62.33-.03.63-.35,1.15-.68ZM72.84,41.38c.27-.13.54-.26.81-.4-.42-.59-.84-1.19-1.26-1.78-.18.12-.36.24-.54.35.33.61.66,1.22.99,1.82ZM70.72,7.18c.05-.26.11-.52.16-.78-.43-.1-.86-.24-1.29-.27-.06,0-.16.49-.25.76.46.1.92.2,1.37.3ZM71.5,18.25c.19.03.37.07.56.1.09-.52.18-1.04.28-1.56-.19-.03-.38-.07-.56-.1-.09.52-.18,1.04-.27,1.56ZM63.74,8.4c.24-.28.52-.49.48-.59-.09-.24-.32-.44-.5-.65-.16.13-.46.3-.44.4.04.25.24.47.45.84ZM71.99,49.3c.22-.03.43-.05.65-.08-.09-.43-.18-.87-.27-1.3l-.47.08c.03.43.06.87.09,1.3ZM72.67,68.14c.18.07.36.13.53.2.08-.15.26-.34.22-.45-.1-.26-.3-.48-.46-.72-.1.32-.19.64-.29.96Z"/>
      <path class="cls-1" d="M0,91.74c1.66.14,2.27.83,2.19,2.1-.08,1.32-.74,2.62.19,3.97.16.23-.55,1.47-1.07,1.64-1.06.37-1.34-.46-1.32-1.42.03-2.03,0-4.07,0-6.29Z"/>
      <path class="cls-1" d="M5.2,93.35c-.12.68-.21,1.17-.3,1.66-.14.02-.29.05-.43.07-.22-.44-.44-.87-.66-1.31.39-.12.79-.24,1.39-.43Z"/>
      <path class="cls-1" d="M4.01,98.72c-.06-.79-.11-1.59-.17-2.38.22-.01.44-.03.66-.04.22.78-.11,1.6-.49,2.42Z"/>
      <path class="cls-1" d="M60.51,3.93c-.04.07-.08.14-.13.21.05.03.1.05.16.08-.02-.09-.05-.18-.07-.27,0,0,.04-.02.04-.02Z"/>
      <path class="cls-1" d="M8.24,97.41s.03.09.04.13c-.06.01-.11.04-.17.04-.02,0-.03-.08-.05-.12.06-.01.11-.03.17-.04Z"/>
    </g>
  </g>
</svg>