<?xml version="1.0" encoding="UTF-8"?>
<svg id="_레이어_2" data-name="레이어 2" xmlns="http://www.w3.org/2000/svg" viewBox="0 0 100.26 100">
  <defs>
    <style>
      .cls-1 {
        fill: #fff;
        stroke-width: 0px;
      }
    </style>
  </defs>
  <g id="_레이어_1-2" data-name="레이어 1">
    <path class="cls-1" d="M50.02,51.67h-7.1c-.07,1.37-.2,2.56-.18,3.75.18,10.96.33,21.93.68,32.89.05,1.45,1.32,2.83,1.73,4.32.55,1.96.81,4,1.22,6.15H5.73c.11-2.03.19-3.63.29-5.41,3.72-.27,7.16-.49,10.6-.78,3.9-.33,4.69-1.14,4.73-4.94.22-20.59.45-41.18.59-61.77.02-3.68-.34-7.37-.62-11.05-.32-4.1-1.61-5.86-5.85-6.53-5.05-.79-10.19-.99-15.45-1.47V.96h42.1v14.42c2.33-.88,4.25-1.19,5.64-2.21,2.42-1.77,4.81-3.74,6.7-6.04,6.57-7.98,14.82-8.31,23.77-5.57,9.05,2.77,13.5,9.62,14.2,18.46.87,10.91.8,21.9,1.01,32.87.21,11.18.1,22.37.43,33.55.13,4.28,1.51,8.36,4.85,11.45.44.41.73.97,1.56,2.11-2.72,0-4.8.02-6.88,0-9.96-.09-19.92-.14-29.88-.35-1.63-.03-4.08.68-4.3-2.28.16-.22.25-.51.42-.55,6.19-1.68,7.93-5.23,7.64-11.95-.79-18.21-.34-36.48-.45-54.72-.02-2.9-.12-5.85-.67-8.68-.31-1.59-1.45-3.99-2.56-4.21-1.5-.29-3.92.73-4.91,2-2.1,2.68-4.28,5.7-5.08,8.92-1.62,6.57-2.35,13.35-3.41,20.05-.17,1.08-.12,2.19-.17,3.46Z"/>
  </g>
</svg>