<?xml version="1.0" encoding="UTF-8"?>
<svg id="_레이어_2" data-name="레이어 2" xmlns="http://www.w3.org/2000/svg" viewBox="0 0 82.7 100">
  <defs>
    <style>
      .cls-1 {
        fill: #fff;
        stroke-width: 0px;
      }
    </style>
  </defs>
  <g id="_레이어_1-2" data-name="레이어 1">
    <g>
      <path class="cls-1" d="M73.39,10.91c-1.42,15.84-.22,31.69-.21,47.54,0,9.8-.14,19.6-.37,29.39-.09,3.96-.59,7.91-.89,11.59-3.83.55-6.38-1.27-9.03-2.85-.29-.17-1.14.35-1.59.72-1.78,1.46-2.26,1.44-3.44-.59-1.82-3.14-3.43-6.4-5.35-9.48-2.47-3.96-5.22-7.74-7.74-11.67-6.06-9.46-12.05-18.96-18.1-28.42-.53-.83-1.25-1.53-1.88-2.29-.21.05-.41.09-.62.14-.2,1.24-.55,2.48-.59,3.73-.27,9.99-.6,19.98-.64,29.97-.01,2.99.6,6.03,1.32,8.95.31,1.26,1.39,2.66,2.52,3.34,2.51,1.5,5.26,2.57,8.18,3.94-.23,1.36-.53,3.1-.87,5.09-1.7-.1-3.38-.25-5.07-.28-3.37-.06-6.74-.06-10.11-.08-.21,0-.44.04-.62-.05-5.12-2.55-10.47-.01-15.68-.71-.8-.11-1.63-.01-2.62-.01v-8.56c.64.31.99.49,1.34.66-.27.2-.54.4-.81.6.11.1.21.2.32.29l.45-.93c1.86-.04,3.72,0,5.56-.15,2.41-.2,3.96-1.81,4.44-4.14.17-.83.69-1.6,1.09-2.39.58-1.15,1.2-2.28,1.87-3.55,1.17.98,2.23.89,3.18-.58.92-1.42.75-2.41-.54-3.5-.53-.45-.94-1.38-.93-2.09.04-5.24.16-10.48.31-15.71.13-4.35.72-8.72.44-13.04-.49-7.57-1.67-15.04-5.83-21.71-2.64-4.23-4.97-8.66-7.5-12.95-.61-1.03-1.49-1.9-2.36-2.98,1.2.3,2.2.56,2.83.72,1.01-1.87,1.82-3.6,2.84-5.19.36-.56,1.17-1.05,1.83-1.13,2.59-.33,5.2-.55,7.81-.65,1.13-.05,2.27.41,3.41.42,1.49,0,2.99-.15,4.47-.36,1.45-.2,2.02.23,1.86,1.77-.48,4.55-.45,4.55-4.85,5.39-2.71.52-3.75,2.43-2.27,4.71,5.21,8.04,10.59,15.97,15.81,24,5.55,8.55,10.91,17.21,16.5,25.73,2.32,3.53,5.02,6.8,7.56,10.17.23.3.61.48,1.25.96.21-1.28.52-2.25.51-3.22-.06-7.18-.2-14.35-.27-21.53-.07-7.45.03-14.9-.16-22.35-.12-4.66-.3-9.38-2.12-13.79-.49-1.19-1.13-2.37-1.9-3.4-1.3-1.75-2.98-2.73-5.34-2.44-2.72.34-5.46.44-8.35.65.11-2.47.21-4.82.34-7.63,13.28-.32,26.53-.64,39.92-.97v4.37c-2.48.38-4.96.76-7.45,1.14-.23,1.01-.41,1.78-.63,2.75-.28-.46-.43-.71-.77-1.26-.19,1.53-.35,2.74-.5,3.96-.47-.2-.94-.4-1.41-.6-.03.43-.06.86-.09,1.29.51-.25,1.02-.49,1.52-.74ZM75.54,3.01c-.09-.28-.17-.56-.26-.84-.46.18-.93.34-1.37.56-.03.01.2.67.24.67.47-.09.93-.25,1.39-.39ZM14.78,4.18c.27-.4.58-.65.57-.88-.02-.22-.36-.42-.56-.63-.22.22-.58.41-.62.66-.03.2.32.46.62.85ZM70.33,18.9c-.64-.25-.94-.44-1.25-.45-.18,0-.55.36-.53.43.12.28.33.56.57.74.07.05.38-.21,1.2-.71ZM27.28,29.43c-.3-.22-.49-.46-.71-.48-.12-.02-.43.33-.4.47.03.2.28.5.45.52.17.01.37-.27.66-.5Z"/>
      <path class="cls-1" d="M15.39,79.87c.19.01.37.02.56.04,0,.05,0,.11.01.16l-.6.05c0-.08.02-.16.02-.24Z"/>
    </g>
  </g>
</svg>