<?xml version="1.0" encoding="UTF-8"?>
<svg id="_레이어_2" data-name="레이어 2" xmlns="http://www.w3.org/2000/svg" viewBox="0 0 106.54 100">
  <defs>
    <style>
      .cls-1 {
        fill: #fff;
        stroke-width: 0px;
      }
    </style>
  </defs>
  <g id="_레이어_1-2" data-name="레이어 1">
    <path class="cls-1" d="M37.82,0c.13.29.54.82.57,1.37.31,5.63,4.2,9.24,7.47,13.14,5.68,6.78,11.45,13.48,17.24,20.16,8.14,9.38,16.32,18.71,24.51,28.03.63.72,1.47,1.25,2.64,2.24.13-1.81.27-3.09.3-4.37.17-8.26.44-16.52.41-24.78-.02-5.08-.33-10.17-.85-15.22-.51-5.04,1.4-8.83,5.08-12.02,3.4-2.94,6.9-5.71,11.33-7.18-.49.43-1.05.81-1.47,1.3-2.75,3.2-5.62,6.31-8.12,9.69-.95,1.28-1.41,3.2-1.44,4.84-.09,4.75.16,9.5.27,14.25.13,5.49.34,10.97.35,16.46.02,15.08-.04,30.16-.11,45.25,0,1.91-.2,3.82-.36,5.73-.03.38-.29.74-.45,1.11-.18-.07-.36-.13-.54-.2.16-.49.33-.99.51-1.53-.1-.13-.19-.3-.33-.44-11.62-11.64-23.28-23.25-34.86-34.93-2.78-2.81-5.25-5.92-7.99-8.78-6.2-6.47-12.46-12.88-18.71-19.3-3.59-3.69-7.19-7.38-10.83-11.04-1.37-1.38-2.84-2.66-4.63-4.33,0,1.26,0,2.03,0,2.8-.01,22.76-.03,45.51-.04,68.27,0,2.93.51,3.72,3.48,3.9,4.09.24,8.19.15,12.29.2.91.01,1.82,0,2.94,0v3.67H1.1c-.1-1.42-.19-2.69-.29-4.21.83-.1,1.53-.16,2.21-.26,2.41-.35,4.83-.66,7.23-1.1,1.49-.28,2.23-1.29,2.68-2.8,1.58-5.39,1.13-10.9,1.03-16.36-.17-9.36-.76-18.71-.95-28.07-.21-10.18-.28-20.37-.19-30.56.06-6.79-4.08-10.24-10.07-10.17-.85,0-1.7-.11-2.73-.18V0h37.82Z"/>
  </g>
</svg>