<?xml version="1.0" encoding="UTF-8"?>
<svg id="_레이어_2" data-name="레이어 2" xmlns="http://www.w3.org/2000/svg" viewBox="0 0 106.42 100">
  <defs>
    <style>
      .cls-1 {
        fill: #fff;
        stroke-width: 0px;
      }
    </style>
  </defs>
  <g id="_레이어_1-2" data-name="레이어 1">
    <path class="cls-1" d="M36.15,100H0C.55,69.06,1.09,38.34,1.64,7.02c2.24-.16,4.45-.47,6.66-.46,9.73.05,19.37-.36,28.63-3.87,2.6-.99,5.03-.86,7.47,1.14,11.96,9.82,23.63,19.91,33.03,32.35.29.39.76.65,1.89,1.58.44-12.84.85-24.96,1.28-37.75h25.82c-.7,30.49-1.37,60.2-2.08,91.08-3.4-.81-6.85-.81-9.29-2.37-8.14-5.22-16.13-10.72-23.78-16.63-11.57-8.95-22.79-18.35-35.12-28.33v56.25Z"/>
  </g>
</svg>