<?xml version="1.0" encoding="UTF-8"?>
<svg id="_레이어_2" data-name="레이어 2" xmlns="http://www.w3.org/2000/svg" viewBox="0 0 86.03 100">
  <defs>
    <style>
      .cls-1 {
        fill: #fff;
        stroke-width: 0px;
      }
    </style>
  </defs>
  <g id="_레이어_1-2" data-name="레이어 1">
    <g>
      <path class="cls-1" d="M63.41,28.81c.15,1.41-.17,3.16.55,4.16,1.25,1.76,2.16,3.35,2.78,5.55.54,1.93,1.76,3.16-.27,4.71,2.1,1.31,1.4,3.41,1.49,5.28-2.46-1.54-2.46-4.1-3.16-6.58-1.66-5.86-3.05-12.02-8.26-16.12-3.46,1.77-3.22,1.54-5.32-.61-2.53-2.58-5.29-5.1-8.38-6.92-3.38-1.99-7.26-3.12-10.9-4.67-.86-.36-2.22-.73-2.38-1.35-.68-2.64-3.05-3.74-4.89-4.52-2.78-1.18-6.05-1.27-9.13-1.67-1.48-.19-3.01-.03-5.22-.03,0,3.21-.41,6.46.12,9.57.5,2.95-1.36,5.51-.32,8.66.94,2.83-1.99,5.74-1.43,9.15.53,3.19.11,6.53.11,9.81v9.83c-.42.17-.84.33-1.26.5.42.34.84.68,1.26,1.02.64,1.22-2.81,1.89-.42,3.52.53.36.48,1.85.39,2.78-.37,3.8,1.16,7.81-1.25,11.37,2.77,3.32.91,7.21,1.21,10.81.34,4,.14,8.06.06,12.09-.08,4.03-.47,4.31-5.73,4.84V1.4c1.76.56,3.42,1.49,5.09,1.52,1.54.03,3.09-1.26,4.66-1.33,3.37-.15,6.62,0,10.01,1.29,5.45,2.08,11.3,3.14,16.95,4.73,1.78.5,3.82.95,5.13,2.11,2.22,1.96,5.11,2.66,7.25,4.35,1.54,1.21,6.56.62,3.96,5.17,1.53,1.17,2.92,2.64,4.63,3.43,1.73.8.93,2.04,1.15,3.12-.42.17-.84.33-1.26.5.42.34.84.68,1.26,1.02l1.52,1.52ZM34.82,11.15c.18.32.36.65.54.98.17-.17.5-.37.47-.5-.08-.36-.31-.68-.47-1.02l-.54.54Z"/>
      <path class="cls-1" d="M69.48,52.22c1.81,3.7,3.24,6.36,4.44,9.12,1.85,4.29,2.63,8.53.18,13.04-2.1,3.86-3.81,7.96-5.31,12.1-.86,2.37-.95,5.01-2.34,7.52,0-2.93.76-6.14-.21-8.71-1.01-2.69-.86-4.8.22-7.1,3.07-6.57,3.38-13.52,3.03-20.59-.07-1.5-.01-3.01-.01-5.37Z"/>
      <path class="cls-1" d="M13.65,20.76c-.24-.24-.92-.92-2.06-2.06,1.75-.23,3.11-.41,4.46-.58.19.35.37.7.56,1.06-.99.53-1.98,1.06-2.97,1.59Z"/>
      <path class="cls-1" d="M63.41,86.44c-.58,1.49,1.41,3.84-1.52,4.55.58-1.49-1.41-3.84,1.52-4.55Z"/>
      <path class="cls-1" d="M70.69,36.37c.07,1.47.14,2.95.21,4.42-.34.03-.68.06-1.01.09-.19-1.49-.39-2.98-.58-4.47.46-.02.93-.03,1.39-.05Z"/>
      <path class="cls-1" d="M69.48,53.08c-2.92-.71-.94-3.06-1.52-4.55,2.92.71.94,3.06,1.52,4.55Z"/>
      <path class="cls-1" d="M66.44,31.85c-2.27-.13-1.29-1.88-1.52-3.03,2.27.13,1.29,1.88,1.52,3.03Z"/>
      <path class="cls-1" d="M67.96,33.36c2.27.13,1.29,1.88,1.52,3.03-2.27-.13-1.29-1.88-1.52-3.03Z"/>
      <path class="cls-1" d="M60.12,94.74c.55-1.92.81-2.84,1.07-3.75.24.71.55,1.4.66,2.13.03.22-.53.53-1.72,1.63Z"/>
      <path class="cls-1" d="M64.29,85.05c.18.18.5.42.47.48-.18.33-.44.61-.67.91-.23-.23-.45-.45-.68-.68.29-.24.59-.48.88-.72Z"/>
      <path class="cls-1" d="M86.03,67.61c-.18.18-.42.5-.48.47-.33-.18-.61-.44-.91-.67.23-.23.45-.45.68-.68.24.29.48.59.72.88Z"/>
      <path class="cls-1" d="M83.12,65.21l1.52,1.52-1.52-1.52Z"/>
      <path class="cls-1" d="M83.12,65.21l-1.52-1.52,1.52,1.52Z"/>
      <path class="cls-1" d="M80.93,63.69c-.23-.3-.47-.6-.7-.9.32-.09.85-.35.92-.25.24.32.32.76.46,1.15-.23,0-.45,0-.68,0Z"/>
      <path class="cls-1" d="M8.82,53.08c.42.34.84.68,1.26,1.02-.42.17-.84.33-1.26.5v-1.52Z"/>
      <path class="cls-1" d="M66.44,31.85l1.52,1.52-1.52-1.52Z"/>
      <path class="cls-1" d="M63.41,27.3l1.52,1.52h-1.52v-1.52Z"/>
      <path class="cls-1" d="M61.89,25.78l1.52,1.52h-1.52v-1.52Z"/>
      <path class="cls-1" d="M1.02.54c-.18.32-.36.65-.54.98C.31,1.35-.03,1.14,0,1.02.08.66.31.34.48,0l.54.54Z"/>
    </g>
  </g>
</svg>