<?xml version="1.0" encoding="UTF-8"?>
<svg id="_레이어_2" data-name="레이어 2" xmlns="http://www.w3.org/2000/svg" viewBox="0 0 82.29 100">
  <defs>
    <style>
      .cls-1 {
        fill: #fff;
        stroke-width: 0px;
      }
    </style>
  </defs>
  <g id="_레이어_1-2" data-name="레이어 1">
    <g>
      <path class="cls-1" d="M72.83,75.89c-1.15-6.98-1.83-13.54-2.06-20.1-.24-6.99-.05-14-.05-21s.28-13.54-.12-20.27c-.19-3.21,1.47-5.8,1.73-8.81.1-1.12,1.97-2.09,4.01-4.08v10.87c.68.36.9.57,1.01.52.21-.08.5-.32.5-.49.03-3.56.02-7.11.02-11.34,1.44.53,2.91.96,2.88,1.07-.8,3.73,3.64,7.28.23,11.24-.84.97-.12,3.27-.12,4.96v79.35c-7.12-6.82-13.35-13.12-18.2-20.76-2.15-3.38-5.68-5.89-8.58-8.79-2.75.82-1.69-2.9-3-2.8-2.35.17-1.73-1.71-2.48-2.64-6.28-7.79-12.72-15.46-18.9-23.34-6.41-8.17-13.05-16.13-20.55-23.36-2.52-.06-5.32-.76-6.82,3.31,3.28,3.73,6.74,7.8,10.37,11.72,1.06,1.14,1.86,2.15,1.5,3.75-3.19-2.84-6.38-5.68-9.92-8.82-.5,3.83.15,7.66-.3,11.38-.39,3.26,1.07,6.27.27,9.7-.86,3.65-.19,7.67-.19,11.52v34.01H0V.52c3.16-1.31,5.85.11,8.32,1.74,10.27,6.78,20.59,16.84,29.22,27.32,1.12,1.36,2.47,2.83,3.81,4.11,6.22,5.98,10.56,13.24,14.99,20.54,3.1,5.1,7.05,9.77,11.12,14.15,2.03,2.18,1.93,5.56,5.36,7.5.44.14.21-.14-.02-.42-.22.22-.43.43-.65.65.29.22.56.47.87.64.05.03.29-.28-.21-.87ZM77.71,45.32c-1.71,10.8-1.5,24.05,0,29.35v-29.35Z"/>
      <path class="cls-1" d="M48.98,72.57c-3.77-3.04-7.93-5.72-11.22-9.21-5.72-6.09-10.93-12.66-16.27-19.1-.35-.43-.05-1.4-.05-2.12,5.54,4.66,10.76,9.51,15.03,15.52,3,4.22,7.23,7.59,11.04,11.2,1.16,1.1,1.68,2.19,1.47,3.71Z"/>
      <path class="cls-1" d="M55.65,79.82c1.06,0,1.74-.21,1.99.03,6.82,6.39,13.6,12.82,21.01,19.84-1.53.11-2.6.52-3.01.17-4.82-4.18-9.66-8.37-14.25-12.8-2.11-2.04-3.7-4.63-5.74-7.24Z"/>
      <path class="cls-1" d="M10.07,43.57c-4.63.08-2.49-2.55-2.45-4.21.7,1.2,1.4,2.4,2.45,4.21Z"/>
      <path class="cls-1" d="M15.65,36.34c-.48-.48-.97-.97-1.45-1.45.48.48.97.97,1.45,1.45Z"/>
      <path class="cls-1" d="M15.65,36.34c.48.48.97.97,1.45,1.45-.48-.48-.97-.97-1.45-1.45Z"/>
      <path class="cls-1" d="M18.55,39.24c-.48-.48-.97-.97-1.45-1.45.48.48.97.97,1.45,1.45Z"/>
      <path class="cls-1" d="M18.55,39.24c.48.48.97.97,1.45,1.45-.48-.48-.97-.97-1.45-1.45Z"/>
      <path class="cls-1" d="M20,40.69c.48.48.97.97,1.45,1.45-.48-.48-.97-.97-1.45-1.45Z"/>
      <path class="cls-1" d="M48.98,72.57c.48.48.97.97,1.45,1.45-.48-.48-.97-.97-1.45-1.45Z"/>
      <path class="cls-1" d="M50.43,74.02c.48.48.97.97,1.45,1.45-.48-.48-.97-.97-1.45-1.45Z"/>
      <path class="cls-1" d="M51.88,75.47c.48.48.97.97,1.45,1.45-.48-.48-.97-.97-1.45-1.45Z"/>
      <path class="cls-1" d="M54.77,78.37c-.48-.48-.97-.97-1.45-1.45.48.48.97.97,1.45,1.45Z"/>
      <path class="cls-1" d="M56.22,79.82c-.48-.48-.97-.97-1.45-1.45.48.48.97.97,1.45,1.45Z"/>
    </g>
  </g>
</svg>