<?xml version="1.0" encoding="UTF-8"?>
<svg id="_레이어_2" data-name="레이어 2" xmlns="http://www.w3.org/2000/svg" viewBox="0 0 106.51 100">
  <defs>
    <style>
      .cls-1 {
        fill: #fff;
        stroke-width: 0px;
      }
    </style>
  </defs>
  <g id="_레이어_1-2" data-name="레이어 1">
    <g>
      <path class="cls-1" d="M98.63,84.92c-.09,2.69-2.16,3.89-3.72,4.92-1.95,1.28.46,3.46-1.75,4.75-1.42.83-1.88,3.3-2.96,5.4-.98-.7-2.03-1.26-2.84-2.06-3.33-3.27-7.33-5.68-10.93-8.57-3.14-2.52-5.83-5.84-7.97-9.27-1.1-1.78-2.34-3.3-3.75-4.71-9.33-9.41-18.64-18.84-28.13-28.08-3.09-3.01-3.63-7.28-6.59-10.24,14.08,8.33,25.31,19.65,36.38,31.13,5.72,5.93,12.08,11.07,18.99,16.19,1.3-1,2.33-2.97,4.79-2.49,1.62.32,3.11.18,4.44,1.64.8.88,2.53.92,4.03,1.39Z"/>
      <path class="cls-1" d="M88.43.98c3.99.75,6.66,3.48,9.37,6.21.68-1.27,1.59-2.13,2.95-2.87,1.91-1.05,2.64.83,4.13.95,0,4.57-.06,9.15.02,13.72.06,3.41-.5,6.87,1.12,10.2.36.74,1.31,3.01-1.14,3.44-.69-.99-1.39-1.98-2.05-2.92,1.8-7.11,1.08-13.77-4.28-20.87,0,11.06.17,20.9-.16,30.72-.06,1.73,2.88,2.18,1.05,4.43-.98,1.2-.73,3.46-.87,5.26-.13,1.67-.03,3.36-.03,5.05v20.79c-1.29.84-2.48,1.14-2.5-.88-.08-5.89.03-11.78-.05-17.67-.05-3.29.38-6.85-.71-9.8-1.07-2.91.8-6.21-1.73-8.79-.53-.54-.08-2.03-.08-3.08,0-4.21-.25-8.43.06-12.62.5-6.87-.93-13.14-4.64-18.94-.4-.62-.33-1.54-.48-2.32Z"/>
      <path class="cls-1" d="M24.1,91.92c-.11-7.43-2.56-13.4-1.43-19.55,2.12-11.57.79-23.22,1.27-34.82.05-1.29.87-2.55,1.6-4.54,1.06,2.43,1.5,4.21,2.51,5.56,1.2,1.6.95,2.76.16,4.4-.58,1.2-.51,2.78-.51,4.19-.03,12.41-.06,24.82,0,37.23.01,2.67-.43,4.97-3.61,7.53Z"/>
      <path class="cls-1" d="M17.28,30.08c-.25.42-.79.84-1.33,1.27-1.53-1.99-2.9-.91-4.63-.08-2.42,1.16-5.11,1.77-7.68,2.61.19-.9-.61-2.4,1-2.48,2.35-.11,4.05-1.32,6-2.38,1.58-.86,3.49-1.7,5.69-1.56,3.61.23,6.17-1.33,8.82-4.29.36-.4,1.01-.55,1.99-1.06.65,2.57.8,5.37,4.06,5.96.56.1.63,1.9-.98,2.02-.14-.35-.28-.7-.42-1.05-.28.35-.57.7-.85,1.05h-2.53c-.33-.42-.82-1.26-.97-1.2-1.37.52-2.48,1.02-4.1.09-.79-.45-2.5.69-4.08,1.11-.09,0,.09,0,.28,0-.12-.33-.18-.69-.38-.96-.06-.08-.5.13-.77.21.19.25.39.5.87.75Z"/>
      <path class="cls-1" d="M6.21,26.55c5.05-4.77,10.27-5.18,13.72-1.93-4.6.65-9.16,1.29-13.72,1.93Z"/>
      <path class="cls-1" d="M104.6,32.62c0,7.48,0,14.95-.02,22.43,0,.08-.28.17-1.01.58.16-7.91-.2-15.5,1.02-23.02Z"/>
      <path class="cls-1" d="M103.4,59.39v12.11c-1.59-2.79-.9-4.76-1.02-6.58-.12-1.83-.03-3.67-.03-5.5.35-.01.7-.02,1.05-.03Z"/>
      <path class="cls-1" d="M8.69,91.76c-.07-3.98,2.18-4.42,3.68-6.85.31,3.74-1.94,4.41-3.68,6.85Z"/>
      <path class="cls-1" d="M28.61,23.88c1.2-.87,2.39-1.73,3.67-2.66,1.7,3.72-2.64,1.83-3.67,2.66Z"/>
      <path class="cls-1" d="M2.86,36.73c-.75,1.15-1.5,2.31-2.53,3.9-1.06-2.93.64-3.48,2.53-3.9Z"/>
      <path class="cls-1" d="M105.08,75.11c-.44,1.54-.66,2.3-.87,3.07-.2-.59-.46-1.17-.55-1.77-.03-.18.45-.43,1.42-1.29Z"/>
      <path class="cls-1" d="M38.27,20.79c-1.34.19-2.17.31-3,.43.49-.42.94-.91,1.49-1.22.17-.09.62.31,1.51.79Z"/>
      <path class="cls-1" d="M2.37,36.41c.19-.96-.63-2.42,1.27-2.53-.19.96.63,2.42-1.27,2.53Z"/>
      <path class="cls-1" d="M87.86.98c-.19-.25-.39-.5-.58-.75.27-.08.71-.29.77-.21.2.26.27.63.38.96-.19,0-.38,0-.56,0Z"/>
      <path class="cls-1" d="M35.28,21.79c-.25.19-.5.39-.75.58-.08-.27-.29-.71-.21-.77.26-.2.63-.27.96-.38,0,.19,0,.38,0,.56Z"/>
      <path class="cls-1" d="M6.17,26.85c-.25.19-.5.39-.75.58-.08-.27-.29-.71-.21-.77.26-.2.63-.27.96-.38v.56Z"/>
      <path class="cls-1" d="M26.42,30.65c-.25.19-.5.39-.75.58-.08-.27-.29-.71-.21-.77.26-.2.63-.27.96-.38v.56Z"/>
      <path class="cls-1" d="M30.21,30.08c-.28.35-.57.7-.85,1.05-.14-.35-.28-.7-.42-1.05h1.27Z"/>
      <path class="cls-1" d="M28.77,33.06c-.15.27-.3.54-.45.82-.14-.14-.42-.31-.4-.42.07-.3.26-.57.4-.85.14.14.28.28.45.45Z"/>
      <path class="cls-1" d="M103.17,57.74c-.27-.15-.54-.3-.82-.45.14-.14.31-.42.42-.4.3.07.57.26.85.4-.14.14-.28.28-.45.45Z"/>
      <path class="cls-1" d="M103.62,78.74c-.25.19-.5.39-.75.58-.08-.27-.29-.71-.21-.77.26-.2.63-.27.96-.38,0,.19,0,.38,0,.56Z"/>
      <path class="cls-1" d="M99.29,83.34c.15.15.42.35.39.4-.15.27-.37.51-.56.76-.19-.19-.38-.38-.56-.56.25-.2.49-.4.74-.6Z"/>
    </g>
  </g>
</svg>