<?xml version="1.0" encoding="UTF-8"?>
<svg id="_레이어_2" data-name="레이어 2" xmlns="http://www.w3.org/2000/svg" viewBox="0 0 83.6 100">
  <defs>
    <style>
      .cls-1 {
        fill: #fff;
        stroke-width: 0px;
      }
    </style>
  </defs>
  <g id="_레이어_1-2" data-name="레이어 1">
    <g>
      <path class="cls-1" d="M78.65,68.06c-2.08.02-1.48,1.62-1.49,2.71-.04,9.53-.02,19.06-.02,29.23-1.25-.35-2.7-.44-2.78-.83-1.24-5.67-4.66-10.33-7.72-14.92-5.72-8.59-12.71-16.32-18.45-24.9-7.1-10.63-16.07-19.77-23.16-30.4-2.83-4.25-6.68-7.83-10.05-11.73-1.01-1.17-1.94-2.4-2.94-3.57-.1-.11-.47.02-1.42.08v4.19c0,9.82-.95,19.76.23,29.43,1.55,12.67.99,25.29,1.26,37.93.05,2.37-.04,2.37-2.01,5.2-2.74-.86-2.53-3.07-2.52-5.28.03-11.83.02-23.67.02-35.5,0-4.28-.27-8.58.05-12.84.87-11.45-1.64-22.73-1.63-34.13,0-.4-.94-.8-1.45-1.2,3.43-2.01,4.46-2.05,6.64-.15,3.5,3.06,6.19,6.75,8.49,10.77,3.93,6.85,9.09,12.83,13.89,19.04,1.88,2.42,4.49,4.27,6.56,6.19-.04.9-.63,2.47-.08,3.29,3.55,5.34,7.38,10.5,11.06,15.75,4.63,6.6,9.24,13.21,13.8,19.86,1.86,2.71,3.6,5.51,5.38,8.25.72-.91,1.5-1.89,2.85-2.88.33,0,.11.02-.12.02v5.91c.23,0,.45-.02.68-.02,0-1.97,0-3.94-.56-5.91-.56-16.31-.51-32.61-.61-48.92-.02-2.58.87-5.25-1.19-7.83-.69-.86,1.34-3.49,1.14-5.2-.71-6.21,1.78-11.95,1.86-18.64,1.27.63,2.6.92,2.67,1.4.26,1.72.1,3.5.1,5.25,0,17.81.01,35.62-.01,53.43,0,2.43-.22,4.87,1.52,6.9Z"/>
      <path class="cls-1" d="M3.66,53.94C.75,49.03.07,47.4.06,44.83c-.04-7.3-.13-14.59.06-21.88.06-2.32,1.26-4.6,1.35-6.93.08-2.01.03-8.28.76-9.79.31-.64,1.03-1.08,1.56-1.62,1.08,5.85,1.11,41.98-.13,49.33Z"/>
      <path class="cls-1" d="M1.81,76.85v-17.61c1.61,5.84,1.07,11.74,0,17.61Z"/>
      <path class="cls-1" d="M78.8,68.03c3.98-.63,2.74,3.53,4.81,4.65-1.66,1.98-2.75,2.29-3.44.02-.47-1.55-.91-3.1-1.37-4.67Z"/>
      <path class="cls-1" d="M1.3,80.43v10.05c-1.76-3.29-1-6.7,0-10.05Z"/>
      <path class="cls-1" d="M64.74,16.72c.12.82.3,1.49.26,2.15-.01.21-.61.38-.95.57-.17-.66-.42-1.31-.47-1.98-.01-.18.6-.4,1.15-.75Z"/>
      <path class="cls-1" d="M64.74,27.19c-.56-.35-1.16-.57-1.15-.75.04-.67.29-1.32.47-1.98.33.19.93.36.95.57.04.66-.14,1.34-.26,2.15Z"/>
      <path class="cls-1" d="M2.94,56.84c-.18.18-.42.5-.48.47-.33-.18-.61-.44-.91-.67.22-.22.45-.45.67-.67.24.29.48.59.71.88Z"/>
      <path class="cls-1" d="M.88,55.97c-.23-.3-.47-.6-.7-.9.32-.09.84-.34.92-.25.24.32.32.75.46,1.15-.22,0-.45,0-.67,0Z"/>
      <path class="cls-1" d="M61.48,39.12c-.32-.18-.65-.36-.97-.54.17-.17.37-.5.5-.47.36.08.68.3,1.01.47-.17.17-.34.34-.54.54Z"/>
      <path class="cls-1" d="M4.58,2.22c-.3.23-.6.47-.9.7-.09-.32-.34-.84-.25-.91.32-.24.75-.32,1.15-.46v.67Z"/>
    </g>
  </g>
</svg>