<?xml version="1.0" encoding="UTF-8"?>
<svg id="_레이어_2" data-name="레이어 2" xmlns="http://www.w3.org/2000/svg" viewBox="0 0 81.49 100">
  <defs>
    <style>
      .cls-1 {
        fill: #fff;
        stroke-width: 0px;
      }
    </style>
  </defs>
  <g id="_레이어_1-2" data-name="레이어 1">
    <g>
      <path class="cls-1" d="M19.24,7.03c-1.96-1.3-4.01-2.66-6.78-4.49v9.72c4.96,4.37,11.68,8.44,15.73,14.34,4.18,6.1,10.49,9.62,14.7,15.48,4.31,5.99,9.92,11.04,14.62,16.77,4.61,5.62,8.8,11.6,13.19,17.43,4.01-3.26,3.36-7.38,3.36-11.31,0-18.21.03-36.43-.02-54.64,0-3.08-.13-6.06,4.54-7.19.84,1.39,2.17,2.89,2.67,4.63.48,1.68.1,3.61.1,5.43v67.39c0,3.34.31,6.71-.09,10.01-.37,3.06-1.48,6.03-2.29,9.14h-8.18c-1.25-3.84-2.67-7.53-3.62-11.33-1.73-6.91-6.33-12.24-10.5-17.45-12.12-15.14-24.77-29.89-39.14-43.02-.59-.54-1.49-.75-2.97-1.46-.25,1.77-.6,3.08-.6,4.4-.04,13.05.2,26.11-.1,39.16-.2,8.56-1.05,17.11-1.8,25.65-.22,2.54-1.67,4.33-4.6,4.24-1.81-.05-3.74.31-5.39-.21-.95-.3-2.3-2.34-2.03-3.03,4.91-12.36,2.6-25.26,2.89-37.93.32-13.65-.06-27.32.17-40.97.05-3.12-.95-6.26,1.01-9.61,1-1.7-.89-5.1-1.57-8.17h12.57c1.33,2.14,5.27,3.04,4.13,7.03Z"/>
      <path class="cls-1" d="M34.88,3.33c4.85.02,6.37,1.63,6.38,4.8.01,5.6,0,11.21-.59,16.86-2.66-6.74,1.25-14.92-5.79-21.66Z"/>
      <path class="cls-1" d="M24.86,12.46c2.73.16,1.55,2.26,1.82,3.64-2.73-.16-1.55-2.26-1.82-3.64Z"/>
      <path class="cls-1" d="M31.78,48.97c.14.99.36,1.8.31,2.6-.01.25-.74.46-1.14.69-.21-.79-.51-1.58-.56-2.39-.01-.22.72-.48,1.39-.9Z"/>
      <path class="cls-1" d="M28.36,17.16c-.21.21-.51.6-.58.56-.4-.21-.74-.53-1.1-.81.27-.27.54-.54.81-.81.29.35.58.71.86,1.06Z"/>
      <path class="cls-1" d="M23.04,10.64c.61.61,1.21,1.21,1.82,1.82-.61-.61-1.21-1.21-1.82-1.82Z"/>
      <path class="cls-1" d="M23.04,10.64c-.61-.61-1.21-1.21-1.82-1.82.61.61,1.21,1.21,1.82,1.82Z"/>
      <path class="cls-1" d="M19.4,6.99c.61.61,1.21,1.21,1.82,1.82-.61-.61-1.21-1.21-1.82-1.82Z"/>
    </g>
  </g>
</svg>