<?xml version="1.0" encoding="UTF-8"?>
<svg id="_레이어_2" data-name="레이어 2" xmlns="http://www.w3.org/2000/svg" viewBox="0 0 77.78 100">
  <defs>
    <style>
      .cls-1 {
        fill: #fff;
        stroke-width: 0px;
      }
    </style>
  </defs>
  <g id="_레이어_1-2" data-name="레이어 1">
    <g>
      <path class="cls-1" d="M76,98.21c-4.54.72-8.33-.64-9.82-3.88-1.65-3.6-4.48-5.74-6.98-8.28-8.45-8.63-16.52-17.51-23.93-27.13-7.17-9.32-15.93-17.42-24.8-26.92v68.01H.05v-8.5C.05,63.62.04,35.73.06,7.84c0-2.77-.73-5.82,2.89-7.84,10.72,13.05,20.81,26.78,31.38,40.11,10.48,13.21,22.17,25.45,34.76,39.73v-8.67c0-21.28-.02-42.55.01-63.83.01-7.11.07-7.11,8.62-7.12v24.73c0,8.05-.16,16.1.04,24.15.21,8.17-2.58,16.03-1.91,24.31.65,8,.14,16.09.14,24.79Z"/>
      <path class="cls-1" d="M33.38,12.34c-1.29-2.17-2.57-4.35-4.8-8.11,2.67,1.34,4.21,1.61,4.72,2.49.91,1.57,1.2,3.5,1.75,5.28-.56.12-1.11.23-1.67.35Z"/>
      <path class="cls-1" d="M36.3,15.59c-2.58-.15-1.47-2.14-1.73-3.45,2.58.15,1.47,2.14,1.73,3.45Z"/>
      <path class="cls-1" d="M37.88,16.59c-.2.2-.48.57-.55.53-.38-.2-.7-.5-1.04-.77.26-.26.51-.51.77-.77.27.34.54.67.82,1Z"/>
    </g>
  </g>
</svg>