<?xml version="1.0" encoding="UTF-8"?>
<svg id="_레이어_2" data-name="레이어 2" xmlns="http://www.w3.org/2000/svg" viewBox="0 0 126.83 100">
  <defs>
    <style>
      .cls-1 {
        fill: #fff;
        stroke-width: 0px;
      }
    </style>
  </defs>
  <g id="_레이어_1-2" data-name="레이어 1">
    <g>
      <path class="cls-1" d="M10.04,83.75c5.77-12.42,3.94-25.51,3.5-38.51-.35-10.32-.55-20.64-.66-30.97-.07-6.51-.95-8.1-7.22-9.52C3.37,4.24,2.17,3.4,1.98.26c17-.69,34.1.18,51.63.19.22,2.38.41,4.39.6,6.4-.33.08-.65.16-.98.25-.59-1.05-1.18-2.1-1.98-3.53-3.48,3.15-9.14,1.53-12.56,5.62,1.76,0,3.55-.53,4.53.13,1.22.83,1.85,2.6,2.59,4.04,2.25,4.34,4.4,8.72,6.64,13.06,6.93,13.39,13.97,26.73,20.78,40.18,3.35,6.62,6.32,13.43,9.42,20.18.34.74.34,1.62.52,2.52-6.93.7-13.58,1.49-20.24,1.92-1.13.07-2.84-1.12-3.46-2.2-12.6-21.95-25.08-43.96-37.59-65.96-.42-.73-.95-1.39-2.49-2.25-.94,3.33-2.36,6.6-2.74,10-1.68,14.91-2.1,29.92-.45,44.82.77,6.97,4.17,13.27,11.34,16.37.5.22.97.52,1.49.66q5.65,1.49,4.84,7.35H.47c-.17-2.46-.32-4.49-.43-6.52-.16-2.91.04-5.07,4.05-5.5,2.13-.23,4.01-2.8,6.01-4.31-.22,1.43-.44,2.86-.67,4.31,3.29.12,3.79-.79,2.85-5.23-.8.35-1.52.68-2.24,1ZM39.57,12.36c-1.04-1.06-2.08-2.12-3.12-3.18-.29.39-.85,1.11-.83,1.13,1.08.9,2.21,1.74,3.34,2.57.02.01.15-.13.6-.52ZM13.29,91.27c-.91-.59-1.37-1.13-1.82-1.12-.47.01-.93.55-1.4.86.41.38.77,1,1.23,1.08.45.08,1-.38,1.99-.82ZM14.13,84.03c.55-.69.97-1.01,1.08-1.42.06-.24-.41-.91-.56-.88-.43.07-1.07.32-1.16.64-.1.36.3.86.64,1.67Z"/>
      <path class="cls-1" d="M126.52.23c.87,3.05-.07,4.32-2.9,5.45-5.83,2.33-10.28,6.1-11.46,12.98-.65,3.77-2.51,7.34-3.76,11.01-.37,1.07-.51,2.22-.81,3.33-.55,2.06-.67,3.95-2.64,5.82-1.62,1.53-1.21,5.27-1.58,8.04-.1.76.49,1.64.31,2.36-2.74,11.05-5.51,22.1-8.38,33.12-.58,2.24-1.61,4.37-2.44,6.55-.41.05-.81.11-1.22.16-13.15-26.45-26.31-52.9-39.66-79.74,5.77,0,11.57,0,17.36,0,2.5,0,5.03.27,7.5-.02,3.71-.45,4.45,1.59,4.93,4.63,2.53,16.18,5.16,32.34,7.9,48.49.3,1.76,1.47,3.37,2.24,5.05.46-.05.92-.1,1.38-.15,3.87-17.93,7.74-35.86,11.66-54,.94.17,1.84.34,3.57.65-.46-2.9-.87-5.4-1.27-7.91-.33-.14-.65-.27-.98-.41-.75,1.3-1.51,2.6-2.4,4.14-.19-1.82-3.47-2.19-1.81-4.79-.41-.25-.99-.82-1.19-.7-3.05,1.73-5.11-1.37-7.75-1.59-.33-.03-.91-1.06-.8-1.44.13-.44.91-.93,1.43-.96,1.95-.12,3.91-.07,5.86-.07,8.93,0,17.86,0,26.89,0ZM111.7,12.98c-.69-.54-1.12-.86-1.54-1.19-.51.71-1.12,1.38-1.47,2.16-.09.2.65.76,1.01,1.15.6-.63,1.19-1.27,2-2.13ZM60.5,13.01l-.78-.83c-.45.41-.94.78-1.3,1.26-.06.07.45.58.7.89.46-.44.92-.88,1.38-1.31Z"/>
      <path class="cls-1" d="M50.33,6.13c.08-.03.16-.05.24-.08.02.11.04.22.07.33-.09-.01-.19,0-.25-.05-.04-.03-.04-.13-.05-.19Z"/>
    </g>
  </g>
</svg>