<?xml version="1.0" encoding="UTF-8"?>
<svg id="_레이어_2" data-name="레이어 2" xmlns="http://www.w3.org/2000/svg" viewBox="0 0 110.05 100">
  <defs>
    <style>
      .cls-1 {
        fill: #fff;
        stroke-width: 0px;
      }
    </style>
  </defs>
  <g id="_레이어_1-2" data-name="레이어 1">
    <g>
      <path class="cls-1" d="M27.61.28c6.68-1.05,11.11.91,14.99,4.81,15.28,15.38,30.76,30.55,45.89,46.07,5.3,5.44,9.81,11.65,15.01,17.9,2.07-12.55,1.66-60.84-.54-66.68h7.08c-2.23,10.09-.79,20.41-1.04,30.66-.25,10.3-.05,20.61-.05,30.91v32.42c-2.91-3.46-5.3-6.07-7.44-8.87-10.29-13.47-23.65-24.12-34.44-37-7.92-9.45-17-17.65-25.05-26.86-4.91-5.61-9.22-11.75-13.54-17.84-.86-1.21-.55-3.25-.87-5.52Z"/>
      <path class="cls-1" d="M6.09,6.04c-3.47,25.74-1.11,50.7-1.63,75.6-.08,3.61-1.53,7.5,1.6,11.1,1.49,1.72-2.11,6.23-5.24,7.26-.25-.61-.71-1.22-.71-1.83C.07,70.07.14,41.96,0,13.85c-.02-4.01.86-6.75,6.09-7.81Z"/>
    </g>
  </g>
</svg>