<?xml version="1.0" encoding="UTF-8"?>
<svg id="_레이어_2" data-name="레이어 2" xmlns="http://www.w3.org/2000/svg" viewBox="0 0 81.45 100">
  <defs>
    <style>
      .cls-1 {
        fill: #fff;
        stroke-width: 0px;
      }
    </style>
  </defs>
  <g id="_레이어_1-2" data-name="레이어 1">
    <path class="cls-1" d="M68.19,70.46c-.29-10.65.71-20.77,1.07-30.91.36-10.08.18-20.18.02-30.27-.05-2.9,1.17-4.43,3.63-5.42,2.67.77,3.94,2.39,3.8,5.25-.16,3.36-.19,6.73.01,10.08.16,2.57-.94,5.27,1.53,7.69.93.91.93,3.92.13,5.24-3.65,6.04-2.32,11.2,3.06,16.43-2.05.84-3.25,1.34-4.06,1.67.38,4.75,1.01,9.34,1.07,13.95.15,11.56.05,23.12.05,35.71-1.9-.91-3.34-1.19-4.17-2.05-9.15-9.63-19.23-18.6-26.95-29.27-5.97-8.25-15.13-12.45-21.01-20.37-5.52-7.43-11.38-14.61-17.43-22.34-.34,4.14.3,8.39-2.01,11.99,3.17,3.4,1.78,6.74.66,10.65-1.13,3.94-.8,8.39-.57,12.59.2,3.74,1.41,7.43,1.68,11.17.31,4.26.07,8.56.07,12.84v11.93c-2.89.98-5.54,1.87-8.79,2.97V.72c3.86-2.04,6.28.63,7.55,3.07,4.67,8.94,12.49,15.06,18.84,22.49,10.92,12.78,21.98,25.38,33.69,37.44,2.33,2.4,4.04,5.21,8.11,6.73.71.23.42-.13.13-.49-.27.27-.55.55-.82.82.36.28.71.6,1.11.82.07.04.37-.35-.42-1.15Z"/>
  </g>
</svg>