<?xml version="1.0" encoding="UTF-8"?>
<svg id="_레이어_2" data-name="레이어 2" xmlns="http://www.w3.org/2000/svg" viewBox="0 0 81.79 100">
  <defs>
    <style>
      .cls-1 {
        fill: #fff;
        stroke-width: 0px;
      }
    </style>
  </defs>
  <g id="_레이어_1-2" data-name="레이어 1">
    <path class="cls-1" d="M29.83,31c-6.35,3.83-10.59-1.89-15.86-1.65v7.52c0,6.67,1.2,13.64-.34,19.94-1.55,6.36-.84,12.49-1.13,18.7-.32,6.66-.01,13.34-.1,20.02-.04,3.28-1.22,4.34-4.55,4.47-1.28.05-2.57-.01-3.85.01-2.48.05-3.58-1.46-3.86-3.62-.2-1.51-.04-3.07-.04-4.61v-43.89c0-6.42-.25-12.85.07-19.25.3-5.91,1.22-11.78,1.91-18.01,6.6,0,13.36-.81,19.82.25,5.22.86,10.35,1.12,15.57,1.32,5.38.2,9.16,3.41,12.33,7.34,3.39,4.2,6.34,8.75,9.88,12.81,4.99,5.73,8.57,12.38,12.89,18.55.9,1.28,2.23,2.25,4.62,4.61-.59-6.09,1.51-10.51-1.41-14.74-.37-.53-.15-1.48-.15-2.23,0-12.78,0-25.56,0-38.51h4.62v4.38c0,16.43.23,32.86-.15,49.27-.1,4.37,1.79,8.22,1.71,12.45-.08,4.36-.02,8.73-.02,13.09v4.81c-7.41-8.74-10.56-19.13-19.79-25.68H22.31c-2.14-2.97.06-5.43,1.25-6.92,2.95-3.69,4.08-7.59,4.37-12.15.18-2.85,1.28-5.64,1.9-8.25,1.02-.68,1.72-1.78,2.52-3-2.98-1.25-3.06.6-2.52,3ZM60.72,55.24c-3.92-5.67-7.25-10.7-10.82-15.56-2.35-3.2-5.03-6.15-7.59-9.18-1.54-1.83-3.3-2.06-5.18-.72-.4,4.03-.08,7.87-1.28,11.89-.91,3.04,1.03,7.02,2.06,10.47.23.78,1.96,1.22,3.08,1.6,6.05,2.05,12.31,1.61,19.71,1.5Z"/>
  </g>
</svg>