<?xml version="1.0" encoding="UTF-8"?>
<svg id="_레이어_2" data-name="레이어 2" xmlns="http://www.w3.org/2000/svg" viewBox="0 0 104.3 100">
  <defs>
    <style>
      .cls-1 {
        fill: #fff;
        stroke-width: 0px;
      }
    </style>
  </defs>
  <g id="_레이어_1-2" data-name="레이어 1">
    <g>
      <path class="cls-1" d="M76.85,67.95c2.39-22.21,4.79-44.42,7.2-66.82h13.73c7.09,10.05,7.4,20.63,5.6,32.33-2.96,19.23-4.3,38.71-6.32,58.09-.28,2.73-.54,5.45-.83,8.46h-47.11c1.15-7.6,2.35-14.66,3.23-21.76.45-3.6,1-7.4.34-10.89-1.88-9.95-4.37-19.78-6.58-29.67-.99-4.4.28-7.8,4.74-9.4,4.64-1.67,5.07,2.1,6.52,4.97,5.96,11.8,12.13,23.49,18.23,35.22.42-.18.84-.35,1.27-.53Z"/>
      <path class="cls-1" d="M12.46.05c8.01-.87,19.15,9.15,18.67,17.87-.76,13.64-2.57,27.22-4.08,40.81-1.51,13.59-3.21,27.16-4.89,41.25H0C4.18,66.46,8.32,33.24,12.46.05Z"/>
    </g>
  </g>
</svg>