<?xml version="1.0" encoding="UTF-8"?>
<svg id="_레이어_2" data-name="레이어 2" xmlns="http://www.w3.org/2000/svg" viewBox="0 0 82.2 100">
  <defs>
    <style>
      .cls-1 {
        fill: #fff;
        stroke-width: 0px;
      }
    </style>
  </defs>
  <g id="_레이어_1-2" data-name="레이어 1">
    <path class="cls-1" d="M18.66,99.05H.15C.09,98.16,0,97.49,0,96.82c.02-23.25.05-46.5.09-69.75,0-4.57.03-9.14.03-13.72,0-2.18,4-6.53,6.69-6.63,5.54-.21,11.16-.71,16.44,1.7.9.41,1.91.79,2.55,1.48,4.2,4.55,8.48,9.05,12.41,13.83,5.05,6.12,9.78,12.5,14.67,18.75,1.46,1.87,3,3.68,5.03,5.41-.19-2.46-.53-4.91-.53-7.37,0-3.09.19-6.18.54-9.25.12-1.06.7-2.49,1.52-2.95,1.7-.96,1.8-2.26,1.82-3.88.06-4.89.47-9.8.25-14.68-.14-3.13,1.12-5.24,3.04-7.37,1.56-1.74,3.23-2.57,5.64-2.36,2.62.24,5.28.05,7.93.05,2.8,0,3.85.92,4.03,3.81.12,2,0,4.02,0,6.03,0,28.23,0,56.46,0,84.68,0,3.09-2.35,5.37-5.52,5.37-6.07,0-12.13.07-18.2-.06-1.07-.02-2.43-.61-3.14-1.4-7.62-8.54-15.13-17.18-22.71-25.76-1.1-1.24-2.09-2.34-1.88-4.24.09-.8-.6-1.85-1.21-2.53-2.44-2.73-4.96-5.39-7.51-8.03-.42-.44-1.2-.96-1.65-.84-.63.17-1.28.82-1.58,1.44-.27.58-.1,1.37-.1,2.07,0,11.82,0,23.64,0,35.46v2.96Z"/>
  </g>
</svg>