<?xml version="1.0" encoding="UTF-8"?>
<svg id="_레이어_2" data-name="레이어 2" xmlns="http://www.w3.org/2000/svg" viewBox="0 0 108.51 100">
  <defs>
    <style>
      .cls-1 {
        fill: #fff;
        stroke-width: 0px;
      }
    </style>
  </defs>
  <g id="_레이어_1-2" data-name="레이어 1">
    <path class="cls-1" d="M15.69,37.18v61.5H0V.15C6.6.15,12.84-.33,18.93.42c1.97.24,3.82,3.5,5.25,5.69,9.54,14.55,18.89,29.22,28.42,43.78,4.81,7.35,9.85,14.54,14.81,21.79.93,1.36,1.98,2.63,2.98,3.94.36-.25.73-.5,1.09-.75.24-1.02.48-2.04.77-3.28h12.83V.71h23.2c.07,1.42.22,2.93.22,4.43-.04,23.3-.05,46.6-.28,69.9-.02,1.71-1.39,3.73-2.71,5.03-3.28,3.24-7.04,6-10.33,9.23-7.51,7.36-15.99,10.27-26.88,10.69-11.96.46-16.51-5.98-21.2-14.47-3.46-6.27-7.67-12.12-11.46-18.21-5.58-8.97-11.09-17.98-16.65-26.97-.74-1.19-1.6-2.31-2.4-3.46-.31.1-.61.2-.92.3Z"/>
  </g>
</svg>