<?xml version="1.0" encoding="UTF-8"?>
<svg id="_레이어_2" data-name="레이어 2" xmlns="http://www.w3.org/2000/svg" viewBox="0 0 85.76 100">
  <defs>
    <style>
      .cls-1 {
        fill: #fff;
        stroke-width: 0px;
      }
    </style>
  </defs>
  <g id="_레이어_1-2" data-name="레이어 1">
    <path class="cls-1" d="M.14,48.9c0-14.25.23-28.5-.13-42.74C-.12,1.43,1.62,0,5.84.08c3.51.07,7.03-.11,10.54-.06,4.6.07,8.4.92,7.78,7.06-.29,2.93,1.35,3.1,3.83,1.87,5.03-2.49,9.55-5.83,15.09-7.55,17.53-5.44,39.76,5.14,41.63,26.38,1.96,22.16.5,44.31.82,66.45.06,3.82-1.57,5.79-6.09,5.75-6.1-.05-12.11-1-18.17-1.13-3.76-.08-3.28-2.62-3.37-5.03-.6-16.65.84-33.25,1.19-49.87.08-3.57-.48-7.03-1.39-10.31-1.23-4.45-4.19-7.53-9.22-8.27-10.81-1.58-18.31,4.58-19.56,15.29-2,17.15-.6,34.33-.91,51.48-.09,4.91-1.36,7.16-6.6,6.83-5.53-.36-11.1-.26-16.64-.09-3.74.11-4.72-1.57-4.69-5.04.13-14.99.05-29.97.05-44.96Z"/>
  </g>
</svg>