<?xml version="1.0" encoding="UTF-8"?>
<svg id="_레이어_2" data-name="레이어 2" xmlns="http://www.w3.org/2000/svg" viewBox="0 0 55.54 100">
  <defs>
    <style>
      .cls-1 {
        fill: #fff;
        stroke-width: 0px;
      }
    </style>
  </defs>
  <g id="_레이어_1-2" data-name="레이어 1">
    <path class="cls-1" d="M39.23,1.67c5.18.23,10.18.45,16.31.73v94.56h-13.65c.82-23.91,1.61-47.32,2.46-72.07-6.56,14.5-16.23,26.13-18.87,41.12-1.59,9.06-3.49,18.07-5.44,27.06-.36,1.65-1.39,3.29-2.48,4.63-2.78,3.43-5.47,3.02-6.64-1.25-2.51-9.18-4.72-18.44-6.94-27.7C-1.27,46.86-.75,24.81,2.21,2.69c.12-.92.66-1.79,1.65-2.69,5.54,19.07,4.35,39.35,10.6,58.17.42.09.83.18,1.25.27,1.98-4.37,3.7-8.89,6-13.08,5.83-10.63,11.57-21.35,18.07-31.57,3.02-4.75.19-8.16-.55-12.12Z"/>
  </g>
</svg>