<?xml version="1.0" encoding="UTF-8"?>
<svg id="_레이어_2" data-name="레이어 2" xmlns="http://www.w3.org/2000/svg" viewBox="0 0 122.19 100">
  <defs>
    <style>
      .cls-1 {
        fill: #fff;
        stroke-width: 0px;
      }
    </style>
  </defs>
  <g id="_레이어_1-2" data-name="레이어 1">
    <path class="cls-1" d="M49.25,3.21c1.49,3.72,2.98,7.43,4.47,11.15.67-.17,1.34-.35,2.01-.52.17-3.09.4-6.17.48-9.26.12-4.47,1.7-6.04,5.85-3.04-4,8.29-3.53,17.26-2,25.65,2.5,13.68,6.45,27.12,10.15,40.56,1.51,5.49,4.36,10.02,10.84,11.56,1.92.46,3.08,4.08,5.43,7.45,1.66-6.51,3.45-12.08,4.47-17.79,2.9-16.15,5.47-32.36,8.22-48.54.8-4.71,1.72-9.39-3.44-13.17h26.44c-12.95,29.44-13.23,59.07-5.73,89.2.26-1.29.51-2.59.87-4.4.47,2.01.84,3.56,1.31,5.55-10.99,1.61-21.56,1.61-32.25-2.1-.23-2.01-.46-4.06-.67-5.94-8.36-.61-11.92-6.89-15.87-13.08-4.49,7.12,1.19,16.82-5.9,23.51-3.15-15.46-6.12-30.02-9.01-44.2-4.39,1.5-7.85,2.43-11.05,3.9-1.39.64-2.88,2.26-3.23,3.71-.58,2.35-.17,4.92-.33,7.39-.93,14.16-9.66,22.81-23.93,24.03-5.32.46-10.6,1.4-15.91,2.12-.17-.6-.33-1.19-.5-1.79,3.01-1.16,5.96-2.53,9.05-3.43,9.14-2.67,13.33-9.15,14.31-18.14,1.81-16.46-.06-32.41-6.73-47.69-1.48-3.39-2.45-7.05-4.26-10.24-1.28-2.26-3.69-3.86-5.39-5.93-.97-1.17-1.52-2.68-2.13-3.79,10.54-.85,20.14-1.63,29.91-2.42.91,3.91,1.02,6.68-3.35,8.75-4.48,2.12-5.33,8.97-3.14,13.74,3.16,6.89,5.76,14.03,8.87,20.94.7,1.55,2.51,2.59,3.81,3.87.41-.34.83-.67,1.24-1.01-.3-2.9-.6-5.81-.9-8.71.33-.08.66-.17.99-.25.45,1.49.94,2.97,1.32,4.48.86,3.41,2.48,4.71,6.39,3.92,4.63-.94,2.72-3.53,2.27-5.9-1.49-7.97-3.36-15.9-4.39-23.93-.67-5.23-.13-10.62-.13-15.94.5-.09,1-.19,1.5-.28Z"/>
  </g>
</svg>