<?xml version="1.0" encoding="UTF-8"?>
<svg id="_레이어_2" data-name="레이어 2" xmlns="http://www.w3.org/2000/svg" viewBox="0 0 92.38 100">
  <defs>
    <style>
      .cls-1 {
        fill: #fff;
        stroke-width: 0px;
      }
    </style>
  </defs>
  <g id="_레이어_1-2" data-name="레이어 1">
    <path class="cls-1" d="M.12,30.38C.12,22.11-.23,14.39.26,6.73.53,2.5,3.8,1.29,8.09.44c9.95-1.98,15.4,2.95,21.08,10.04,7.56,9.43,13.46,19.65,18.77,30.39,2.63,5.32,5.89,10.34,9.13,15.32.91,1.39,2.64,2.41,4.19,3.2,7.21,3.62,13.48,8.26,17.43,15.59.42-.11.84-.23,1.27-.34-.86-5.41-1.17-10.99-2.72-16.19-1.59-5.31-4.58-10.18-6.63-15.38-2.34-5.94-4.79-11.9-6.31-18.07-2.03-8.23-7.29-12.99-14.54-16.44-1.72-.82-2.85-2.89-4.25-4.39,1.79-.97,3.54-2.7,5.36-2.78,6.7-.3,13.43.05,20.15-.04,5.52-.07,11.04-.37,16.56-.68,2.49-.14,4.91.2,4.79,3.12-.05,1.28-1.87,3.06-3.29,3.63-7.84,3.13-9.64,5.03-9.41,13.68.31,11.79,1.31,23.57,1.87,35.36.37,7.79.31,15.6.76,23.38.25,4.26.9,8.54,1.84,12.7,1.23,5.47.06,7.27-5.37,7.38-8.75.18-16.68.94-21.78-9.72-4.06-8.5-12.29-14.93-18.14-22.68-7.63-10.11-14.98-20.44-21.92-31.03-2.63-4.02-5.36-5.96-10.1-5.47-2.02.21-4.12-.36-6.73-.63Z"/>
  </g>
</svg>