<?xml version="1.0" encoding="UTF-8"?>
<svg id="_레이어_2" data-name="레이어 2" xmlns="http://www.w3.org/2000/svg" viewBox="0 0 96.85 100">
  <defs>
    <style>
      .cls-1 {
        fill: #fff;
        stroke-width: 0px;
      }
    </style>
  </defs>
  <g id="_레이어_1-2" data-name="레이어 1">
    <g>
      <path class="cls-1" d="M8.19,4.43c.69-.55,1.38-1.55,2.09-1.57,5.11-.14,10.22-.07,14.95-.07,3.21,2.48,5.3,5.47,8.76,7.29,2.21,1.16,4.5,3.3,5.62,6.43.65,1.82,3.72,2.28,4.99,5.06,1.54,3.38,5.2,5.74,9.52,5.83.38,1.2.44,2.71,1.21,3.55,2.48,2.7,4.66,5.63,7.02,8.41,4.82,5.68,9.79,11.24,14.84,16.73.55.6,2.03.36,4.69.73-3.66-5.3-6.28-9.39-9.2-13.25-3.32-4.4-6.9-8.6-10.37-12.89,1.21.39,2.79.41,3.56,1.21,5.76,6,12.54,11.08,16.69,18.51.36-.26.6-.37.74-.55.15-.19.32-.45.32-.68.01-15.26.01-30.53.01-45.6,4.37-1.19,8.49-2.31,13.12-3.57v5.99c0,27.59,0,55.18-.01,82.77,0,2.62.84,5.55-2.34,7.32-5.05-3.67-8.48-9.22-14.13-12.51-2.3-1.34-3.11-5.13-4.78-7.69-5.78-8.83-12.21-17.08-19.48-24.82-3.98-4.24-7.73-8.8-11.78-13.05-3.5-3.68-8.01-6.26-11.08-10.48-.53-.73-1.44-1.41-2.16-2.41-2.93-4.08-6.47-7.71-9.62-11.64-2.07-2.58-3.87-5.38-6.49-9.05h-6.71Z"/>
      <path class="cls-1" d="M8.19,4.43c-.51,1.4-1.86,3.51-1.39,4.07,1.61,1.89,1.39,5.42,4.75,5.76,1.52.15,2.82-.37,3.41,2.17.52,2.24,2.51,4.56,4.48,5.92,2.35,1.61,2.7,3.91,3.8,6.05,1.18,2.28,3.05,4.2,4.54,6.33,1.03,1.47,1.76,3.19,2.95,4.5,2.58,2.82,5.13,5.76,8.15,8.06,2.66,2.02,4.29,4.94,6.47,7.25,2.45,2.59,6.27,3.75,7.71,7.16,1.4,3.33,4.11,5.47,6.4,8.02,3.74,4.16,7.4,8.39,10.98,12.69.4.48.05,1.59.05,2.41-1.01-.19-2.44-.03-2.97-.64-3.49-4.01-8.38-6.76-10.59-11.98-.59-1.4-2.23-2.36-3.39-3.51-7.54-7.54-15.2-14.95-22.58-22.64-8.76-9.12-16.91-18.79-25.9-27.72C1.7,14.95-.82,10.41.25,4.43h7.95Z"/>
      <path class="cls-1" d="M4.55,28.93c.67,1.51,1.77,2.98,1.91,4.55.3,3.24-.51,6.66.19,9.76,3.2,14.11.51,28.39,1.83,43.11h6.03c.93,5.23-4.44,4.22-5.64,6.83-1.33,2.91-2.78,5.58-6.79,6.8-.92-8.08-.33-15.83-.43-23.55-.11-8.16.45-16.36-.16-24.48-.59-7.82,2.47-15.08,3.05-23.02Z"/>
      <path class="cls-1" d="M72.52,86.47c2.98,4.46,10.28,5.89,9.25,13.53-4.62-4.12-7.96-8.25-9.25-13.53Z"/>
      <path class="cls-1" d="M54.12,27.39c.53-3.57,1.3-4.21,3.19-2.48,1.29,1.19,2.26,2.74,3.37,4.12-1-.18-2.01-.3-2.99-.55-1.2-.31-2.38-.72-3.57-1.09Z"/>
      <path class="cls-1" d="M48.97,21.9c-1.11-.56-2.21-1.1-3.79-1.9,3.35-1.31,4.53-.91,3.79,1.9Z"/>
      <path class="cls-1" d="M60.68,29.03c.55.55,1.09,1.09,1.64,1.64-.55-.55-1.09-1.09-1.64-1.64Z"/>
      <path class="cls-1" d="M70.52,84.8c.55.55,1.09,1.09,1.64,1.64-.55-.55-1.09-1.09-1.64-1.64Z"/>
      <path class="cls-1" d="M67.24,39.69c-.36.18-.72.43-1.1.51-.13.03-.36-.33-.54-.51.36-.18.72-.43,1.1-.51.14-.03.36.33.54.51Z"/>
    </g>
  </g>
</svg>