<?xml version="1.0" encoding="UTF-8"?>
<svg id="_레이어_2" data-name="레이어 2" xmlns="http://www.w3.org/2000/svg" viewBox="0 0 93.14 100">
  <defs>
    <style>
      .cls-1 {
        fill: #fff;
        stroke-width: 0px;
      }
    </style>
  </defs>
  <g id="_레이어_1-2" data-name="레이어 1">
    <g>
      <path class="cls-1" d="M33.43,18.19c-11.44,1.93-22.91-2.18-31.83,7.04-.54-.3-1.07-.6-1.61-.9,1.86-5.32,3.5-10.74,5.8-15.85.42-.93,3.8-1.32,5.45-.79,21.38,6.78,42.16,2.04,62.9-3.09,4.24-1.05,8.3-2.86,12.52-4.01,5.82-1.59,7.1-.02,6.2,6-.7,4.68-1.48,9-5.86,11.78-4.76,3.02-6.71,2.44-8.79-3.39h-21.87c-1.09,3.95-3.39,8.59-3.48,13.28-.36,18.66-.44,37.35.29,55.99.2,5.19,3.54,10.25,5.58,15.75-9.79-.58-20.39.63-31.18-1.72,5.63-7.22,5.22-14.73,5.17-22.41-.09-15.83.43-31.67.69-47.5.05-3.02,0-6.05,0-10.18Z"/>
      <path class="cls-1" d="M75.06,25.27h-11.66c-.27-.37-.54-.74-.81-1.11,1.31-.76,2.57-2.03,3.95-2.18,7.57-.82,7.58-.72,8.52,3.29Z"/>
    </g>
  </g>
</svg>