<?xml version="1.0" encoding="UTF-8"?>
<svg id="_레이어_2" data-name="레이어 2" xmlns="http://www.w3.org/2000/svg" viewBox="0 0 74.43 100">
  <defs>
    <style>
      .cls-1 {
        fill: #fff;
        stroke-width: 0px;
      }
    </style>
  </defs>
  <g id="_레이어_1-2" data-name="레이어 1">
    <path class="cls-1" d="M46.17,16.75c5.75,28.15,11.32,55.47,16.99,83.22-6.03,0-11.32.14-16.59-.15-.83-.05-2.02-1.94-2.26-3.14-5.05-25.35-10.01-50.72-14.91-76.11-.54-2.82-1.56-4.16-4.75-4.04-6.67.25-13.36-.04-20.03.1C1.39,16.69-.21,15.75.02,12.18.27,8.33.08,4.45.08.1h29.68C42.95.1,56.15.27,69.34,0c4.03-.08,4.99,1.38,5.05,5.04.18,11.71.29,11.71-11.46,11.71h-16.76Z"/>
  </g>
</svg>