<?xml version="1.0" encoding="UTF-8"?>
<svg id="_레이어_2" data-name="레이어 2" xmlns="http://www.w3.org/2000/svg" viewBox="0 0 84.89 93.15">
  <defs>
    <style>
      .cls-1 {
        fill: #fff;
        stroke-width: 0px;
      }
    </style>
  </defs>
  <g id="_레이어_1-2" data-name="레이어 1">
    <path class="cls-1" d="M0,20.28C.35,10.99,7.59,2.2,15.48,1.35,37.79-1.05,59.99-.67,81.71,5.97c4.95,1.51,2.72,5.48,2.39,8.33-.37,3.24-2.86,4.78-6.25,3.95-5.64-1.38-11.26-2.87-16.9-4.25-1.92-.47-3.88-.78-5.13-1.02,0,9.36.03,18.58,0,27.8-.06,12.78.16,25.57-.5,38.32-.15,2.93-2.77,6.55-5.31,8.39-6.36,4.63-13.98,6.28-21.77,5.46-9.71-1.02-16.85-10.22-15.95-20.05.12-1.27,1.28-2.44,1.96-3.66,1.3.74,2.99,1.18,3.82,2.27,2.41,3.17,4.39,6.66,6.71,9.9,2.41,3.37,5.72,4.99,9.95,4.27,4.55-.77,7.55-3.36,8.75-7.81.51-1.9.91-3.93.85-5.88-.58-18.95-1.22-37.9-2.07-56.84-.05-1.17-1.9-3.09-3.11-3.26-9.33-1.28-18.6-1.01-27.49,2.58-1.65.67-3.04,1.97-4.65,2.78-2,1-4.11,1.79-7.01,3.02Z"/>
  </g>
</svg>