<?xml version="1.0" encoding="UTF-8"?>
<svg id="_레이어_2" data-name="레이어 2" xmlns="http://www.w3.org/2000/svg" viewBox="0 0 60.71 100">
  <defs>
    <style>
      .cls-1 {
        fill: #fff;
        stroke-width: 0px;
      }
    </style>
  </defs>
  <g id="_레이어_1-2" data-name="레이어 1">
    <path class="cls-1" d="M0,35.48C.86,24.25,1.67,13.63,2.51,2.72c3.68.21,6.88.73,10.02.53,13.6-.9,27.18-1.99,40.77-3.05,7.03-.55,7.31-.37,7.37,6.71.06,7.51.01,15.01.01,23.15-1.9.21-4.38.48-7.15.79.62,22.75,1.24,45.49,1.89,69.15-10.21,0-20.13.05-30.05-.09-.86-.01-2.19-1.13-2.44-1.98-.58-2.02-.93-4.21-.86-6.31.57-17.63,1.26-35.25,1.89-52.87.05-1.5,0-3,0-4.89-7.99.54-15.7,1.07-23.98,1.63Z"/>
  </g>
</svg>