<?xml version="1.0" encoding="UTF-8"?>
<svg id="_레이어_2" data-name="레이어 2" xmlns="http://www.w3.org/2000/svg" viewBox="0 0 62.73 100">
  <defs>
    <style>
      .cls-1 {
        fill: #fff;
        stroke-width: 0px;
      }
    </style>
  </defs>
  <g id="_레이어_1-2" data-name="레이어 1">
    <path class="cls-1" d="M19.23,100V22.33H0V.01C2.39.01,5.42-.02,8.45.02c16.43.19,32.85.42,49.28.56,4.97.04,4.98-.07,4.99,4.73.01,5.96,0,11.92,0,17.72-4.9,0-9.3,0-13.7,0-5.3,0-5.75.53-5.57,5.77.47,13.93.81,27.87,1.36,41.8.31,7.95.93,15.9,1.38,23.85.1,1.71.01,3.43.01,5.55h-26.96Z"/>
  </g>
</svg>