<?xml version="1.0" encoding="UTF-8"?>
<svg id="_레이어_2" data-name="레이어 2" xmlns="http://www.w3.org/2000/svg" viewBox="0 0 80.18 100">
  <defs>
    <style>
      .cls-1 {
        fill: #fff;
        stroke-width: 0px;
      }
    </style>
  </defs>
  <g id="_레이어_1-2" data-name="레이어 1">
    <path class="cls-1" d="M26.5,24.22c-7.62,0-15.05-.12-22.48.06C.84,24.35-.1,23.23,0,20.1.24,13.76.08,7.41.08,1.33,27.3.88,53.55.44,80.18,0c-.35,7.18-.68,14.09-1.02,21.01-.11,2.37-1.17,3.12-3.68,3.04-7.17-.23-14.35-.08-21.49-.08-.59,13.31-1.19,25.86-1.71,38.42-.52,12.47-.97,24.94-1.46,37.62h-26.41c.69-25.01,1.38-50.01,2.08-75.78Z"/>
  </g>
</svg>