<?xml version="1.0" encoding="UTF-8"?>
<svg id="_레이어_2" data-name="레이어 2" xmlns="http://www.w3.org/2000/svg" viewBox="0 0 75.21 100">
  <defs>
    <style>
      .cls-1 {
        fill: #fff;
        stroke-width: 0px;
      }
    </style>
  </defs>
  <g id="_레이어_1-2" data-name="레이어 1">
    <path class="cls-1" d="M75.11,15.34c-7.77,0-14.94.25-22.08-.09-4.28-.2-5.34,1.36-5.3,5.39.23,24.05.23,48.11.31,72.17,0,2.19,0,4.39,0,7.08-5.05,0-9.65.37-14.12-.25-1.17-.16-2.7-3.4-2.72-5.24-.23-23.13-.2-46.26-.24-69.39,0-2.74,0-5.47,0-9.09-8.1,0-15.6-.02-23.1,0C-.06,15.95-.05,15.98.01,8.31c.02-2.37,0-4.75,0-7.71,2.37-.13,4.32-.33,6.27-.34C27.19.19,48.1.25,69.01,0c4.46-.05,6.58,1.11,6.15,5.85-.26,2.89-.05,5.83-.05,9.49Z"/>
  </g>
</svg>