<?xml version="1.0" encoding="UTF-8"?>
<svg id="_레이어_2" data-name="레이어 2" xmlns="http://www.w3.org/2000/svg" viewBox="0 0 58.03 100">
  <defs>
    <style>
      .cls-1 {
        fill: #fff;
        stroke-width: 0px;
      }
    </style>
  </defs>
  <g id="_레이어_1-2" data-name="레이어 1">
    <path class="cls-1" d="M23.6,89.92h12.77c.31,3.13.6,6.11,1,10.08-8.37-.56-16.07-.29-23.31-1.98-2.43-.57-5.04-6.08-5.21-9.46-.51-10.26.21-20.58.3-30.87.1-11.14.02-22.28.02-33.62-2.39-.19-5.36-.44-9.18-.75C6.65,15.15,12.67,7.77,18.99,0c.29,5.66.58,11.42.85,16.68,10.25,0,19.55-.28,28.83.1,5.69.23,9.63,3.17,9.34,9.61-.41,9.28-4.78,16.29-12.75,22.81-.43-10.36,6.14-18.87,2.25-27.28h-23.91v68Z"/>
  </g>
</svg>