<?xml version="1.0" encoding="UTF-8"?>
<svg id="_레이어_2" data-name="레이어 2" xmlns="http://www.w3.org/2000/svg" viewBox="0 0 86.28 100">
  <defs>
    <style>
      .cls-1 {
        fill: #fff;
        stroke-width: 0px;
      }
    </style>
  </defs>
  <g id="_레이어_1-2" data-name="레이어 1">
    <g>
      <path class="cls-1" d="M50.87,7.02c-2.6,6.15-1.65,12.29-1.67,18.32-.08,24.15-.03,48.31-.03,72.51-3,3.39-6.8,1.86-10.33,1.46-.64-.07-1.41-1.6-1.58-2.55-.26-1.5-.07-3.09-.07-4.64V8.47c-5.52-.62-10.8-1.44-16.11-1.73-5.3-.3-10.63-.11-15.95-.04-2.04.02-3.96,0-5.13-2.03.41-.45.96-.87,1.25-1.42.27-.52.26-1.18.39-1.89,12.79,0,25.53,1.12,37.98-.29C54.13-.59,68.55.74,82.98.03c1.06-.05,2.12,0,3.3,0v3.51c-5.96,1.12-11.85,2.41-17.93,1.81-5.87-.58-11.58.72-17.48,1.68Z"/>
      <path class="cls-1" d="M57.79,24.19c-.87,1.06-1.42,1.75-1.98,2.43-.44-.56-1.16-1.08-1.25-1.69-.14-.93-.48-2.4,1.27-2.24.58.05,1.09.81,1.96,1.5Z"/>
      <path class="cls-1" d="M63.58,10.44h-7.52c2.42-1.65,4.98-.83,7.52,0Z"/>
      <path class="cls-1" d="M61.38,21.52h4.86l.05.82c-1.63.11-3.26.22-4.89.33,0-.39-.01-.77-.02-1.16Z"/>
      <path class="cls-1" d="M67.98,20.45c.18-.18.33-.33.47-.47.15.3.35.58.42.89.02.11-.27.29-.42.44-.16-.29-.32-.58-.47-.86Z"/>
    </g>
  </g>
</svg>