<?xml version="1.0" encoding="UTF-8"?>
<svg id="_레이어_2" data-name="레이어 2" xmlns="http://www.w3.org/2000/svg" viewBox="0 0 71.68 100">
  <defs>
    <style>
      .cls-1 {
        fill: #fff;
        stroke-width: 0px;
      }
    </style>
  </defs>
  <g id="_레이어_1-2" data-name="레이어 1">
    <g>
      <path class="cls-1" d="M67.6,3.76c-4.34,2.64-8.23,4.16-12.5,3.38-1.65,5.63,4.83,4.7,5.65,8.62-4.03-.46-7.98.65-12.14-1.04-1.79-.73-4.45.66-7.28,1.19v3.91c0,18.08,0,36.15.01,54.23,0,2.13.27,4.11,1.07,6.25,2.48,6.67,1.76,12.04-1.73,19.7-4.68-1.3-7.52-4.45-8.78-9-.82-2.97-1.67-5.89-1.62-9.12.19-11.98.06-23.96.09-35.95,0-2.26-.44-4.61.93-6.69-1.8-2.1-.97-4.64-.86-6.92.27-5.72.94-11.43,1.44-16.96-2.63-1.86-5.23-2.28-8.05-2.08-2.22.16-4.47.03-6.7.03-3.05,0-6.11.2-9.13-.06-2.65-.23-5.26-.97-7.99-1.51V3.76h67.6Z"/>
      <path class="cls-1" d="M70.59,1.12c-.1,1.82-1.51,1.04-2.44,1.22.1-1.82,1.51-1.04,2.44-1.22Z"/>
      <path class="cls-1" d="M68.15,2.34c-.41.41-.81.81-1.22,1.22.41-.41.81-.81,1.22-1.22Z"/>
      <path class="cls-1" d="M71.3,0c.14.14.4.34.38.39-.14.26-.35.49-.54.73-.18-.18-.36-.36-.54-.54.24-.19.47-.38.71-.58Z"/>
    </g>
  </g>
</svg>