<?xml version="1.0" encoding="UTF-8"?>
<svg id="_레이어_2" data-name="레이어 2" xmlns="http://www.w3.org/2000/svg" viewBox="0 0 145.98 100">
  <defs>
    <style>
      .cls-1 {
        fill: #fff;
        stroke-width: 0px;
      }
    </style>
  </defs>
  <g id="_레이어_1-2" data-name="레이어 1">
    <g>
      <path class="cls-1" d="M144.54,23.12c-3.34-.68-5.67-1.81-7.72-4.89-3.37-5.08-9.1-7.7-14.64-10.91v8.1c2.11,2.34,5.02,4.64,7.69,8.29-4.73,1.63-8.66.55-12.78,1.06-.28-1.79-.53-3.39-.83-5.32-2.91,0-5.76-.2-8.58.04-9.39.79-18.58-1.2-27.87-1.76-1.44-.09-2.89-.09-4.33,0-2.27.15-3.85,1.49-3.79,3.7.09,3.14-1.25,5.92-1.65,8.84-1.07,7.78-1.37,15.66-1.89,23.51-.48,7.28-2.34,14.39-1.85,21.81.48,7.19.17,14.43,0,21.64-.02.75-1.46,1.47-2.84,2.76-2.17-14.38,3.89-27.85.81-40.7-3.15-13.13,1.94-26.59-3.36-39.55H23.6c-2.1,3.18-5.2,4.28-9.57,2.2.68-1.22,1.31-2.36,2.36-4.24-5.53,1.2-10.3,3.18-15.56,5.84C3.41,14.87,9.14,9.09,13.21,2.12c28.06,0,56.03.05,84-.05,4.12-.01,8.12.13,12.38-1.39,4.91-1.75,10.35.24,15.43,1.93,6.1,2.03,10.39,5.82,13.33,11.54,1.61,3.13,4.01,5.85,6.2,8.97ZM120.61,14.25c-1.08-3.88-2.52-5.35-5.68-5.26-6.35.19-12.7.06-19.05.06h-25.64c-.18,1.15-.52,2.02-.31,2.19,4.68,3.73,10.31,6.38,15.88,4.42,3.72-1.31,7.12-1.25,10.66-1.34,7.74-.2,15.48-.06,24.15-.06ZM64.53,9.05c-12.42,0-24.7-.08-36.98.1-1.5.02-2.99,1.41-6.31,3.08h43.29v-3.18ZM119.51,22.66c.23-.23.42-.42.62-.62-.39-.19-.76-.45-1.16-.54-.14-.03-.38.35-.57.54.38.21.75.42,1.12.62ZM119.51,17.97c-.36.2-.74.41-1.12.62.19.19.43.57.57.54.41-.09.78-.35,1.16-.54-.19-.19-.39-.39-.62-.62Z"/>
      <path class="cls-1" d="M90.91,96.05c-5.88-3.09-1.95-9.7-6.9-12.22v14.74c-1.95-1.95-3.48-2.75-3.53-3.65-.28-4.57-1.27-9.56.15-13.64,1.08-3.1,1.06-5.93,1.36-8.9.44-4.38-.19-8.67,1.44-13.2,1.45-4.01.3-8.95,1.48-13.57.19,1.13.44,2.26.55,3.4.26,2.78-.08,5.76.81,8.31.92,2.61-1.71,4.11-.97,6.7.76,2.66-.06,5.73.24,8.57.22,2.04,1.15,4,3.04,5.79.25-3.46.5-6.91.75-10.37,1.2,4.57,2.07,9.08.13,13.49,2.45,4.54.56,9.28,1.44,14.55Z"/>
      <path class="cls-1" d="M5.34,34.38c-.58,2.59-1.33,4.91-5.34,3.46,2.18-1.42,3.76-2.44,5.34-3.46Z"/>
      <path class="cls-1" d="M90.33,33.29c.08,1.68.16,3.37.24,5.05-.39.04-.77.07-1.16.11-.22-1.7-.45-3.4-.67-5.11.53-.02,1.06-.04,1.59-.05Z"/>
      <path class="cls-1" d="M87.55,33.34c-.08-1.68-.16-3.37-.24-5.05.39-.04.77-.07,1.16-.11.22,1.7.45,3.4.67,5.11-.53.02-1.06.04-1.59.05Z"/>
      <path class="cls-1" d="M88.59,48.97c.13.94.34,1.71.3,2.47-.01.24-.7.44-1.08.65-.2-.76-.48-1.5-.53-2.27-.01-.21.68-.46,1.32-.86Z"/>
      <path class="cls-1" d="M5.77,35.04c.58-.58,1.16-1.16,1.73-1.73-.58.58-1.16,1.16-1.73,1.73Z"/>
      <path class="cls-1" d="M8.51,31.72c.2.2.57.48.53.55-.2.38-.5.7-.77,1.04-.26-.26-.52-.52-.77-.77.34-.27.67-.55,1.01-.82Z"/>
      <path class="cls-1" d="M145.98,23.92c-.2.2-.48.57-.55.53-.38-.2-.7-.5-1.04-.77.26-.26.52-.52.77-.77.27.34.55.67.82,1.01Z"/>
    </g>
  </g>
</svg>