<?xml version="1.0" encoding="UTF-8"?>
<svg id="_레이어_2" data-name="레이어 2" xmlns="http://www.w3.org/2000/svg" viewBox="0 0 88.39 100">
  <defs>
    <style>
      .cls-1 {
        fill: #fff;
        stroke-width: 0px;
      }
    </style>
  </defs>
  <g id="_레이어_1-2" data-name="레이어 1">
    <g>
      <path class="cls-1" d="M81.39,1.37c5.3,1.47,3.28,6.23,5.67,8.66-.63,3.68.88,7.1,1.29,10.65.12,1-.07,2.04-.18,4.23-1.78-1.66-2.96-2.44-3.7-3.52-.67-.97-.88-2.25-1.25-3.41-.36-1.13-.32-2.79-1.07-3.29-1.3-.86-3.06-1.36-4.64-1.38-9.87-.12-19.74-.09-29.62-.04-3.35.02-4.15.91-4.36,4.04-.4,6.18-.79,12.37-1.35,18.54-.2,2.25-1.08,4.45-1.19,6.7-.06,1.33,1.16,2.7,1.17,4.06.09,14.23.06,28.46.06,42.91h-6.19c-.09-.34-.38-.92-.38-1.51-.02-23.69-.02-47.39-.02-71.08,0-1.54.04-3.07-.01-4.61-.06-1.75-1.11-3.03-2.74-2.95-4.08.19-7.84-.84-11.75-1.85-3.67-.94-7.68-.47-11.51-.91-3.08-.35-6.12-1.14-9.42-1.78C-.57,2.79.96,2.02,2.63,1.39c.38-.14.87-.06,1.31-.02C14.34,2.34,24.6-.17,34.98,0c10.31.18,20.62-.05,30.93.1,2.68.04,5.33,1,8.01,1.21,2.83.22,5.69.05,7.46.05Z"/>
      <path class="cls-1" d="M55.64,100v-59.69c1.38,4.94,1.68,48.57,0,59.69Z"/>
    </g>
  </g>
</svg>