<?xml version="1.0" encoding="UTF-8"?>
<svg id="_레이어_2" data-name="레이어 2" xmlns="http://www.w3.org/2000/svg" viewBox="0 0 63.73 100">
  <defs>
    <style>
      .cls-1 {
        fill: #fff;
        stroke-width: 0px;
      }
    </style>
  </defs>
  <g id="_레이어_1-2" data-name="레이어 1">
    <g>
      <path class="cls-1" d="M45.84,97.44h-3.98v-33.7c0-7.95.13-15.91-.09-23.85-.06-2.04-1.22-4.05-3.37-5.88-.18,1.71-.5,3.43-.5,5.14-.04,15.24-.08,30.48.03,45.72.02,2.46-.31,4.8,1.26,7.45,2.12,3.58,1.12,4.49-5.3,7.68v-9.02c0-9.94-.06-19.88.02-29.82.06-6.77-3.36-13.18-1.98-20.04.3-1.48.98-2.88,1.67-4.84-4.12-.89-8.65-.22-13.12-.37-3.31-.11-6.63.11-9.94-.06-2.85-.15-5.7-.57-8.52-1.02-.53-.09-1.43-1.15-1.34-1.31,1.72-3.07-2.05-5.93-.1-9.26h60.32c.74,2.82,4.27,5.27,2.19,9.49h-14.41c-4.83,15.63-2.23,31.36-2.81,46.89-.21,5.54-.03,11.1-.03,16.81Z"/>
      <path class="cls-1" d="M10.24,3.69C11.43-.16,14.25,0,17.17,0c13.87.07,27.74.03,42.09.03.18,1.06.37,2.19.62,3.66H10.24Z"/>
    </g>
  </g>
</svg>