<?xml version="1.0" encoding="UTF-8"?>
<svg id="_레이어_2" data-name="레이어 2" xmlns="http://www.w3.org/2000/svg" viewBox="0 0 115.05 100">
  <defs>
    <style>
      .cls-1 {
        fill: #fff;
        stroke-width: 0px;
      }
    </style>
  </defs>
  <g id="_레이어_1-2" data-name="레이어 1">
    <path class="cls-1" d="M.02,5.64C-.19,3.01,1.19,1.84,3.1,1.69c3.59-.26,7.23.27,10.66-1.41.76-.37,1.92-.29,2.77-.02,9.05,2.9,18.34.81,27.49,1.27,2.84.15,5.73-3.17,8.63.03,2.75-2.79,6.18-.96,9.27-1.27,3.24-.32,6.54-.07,9.81-.07h18.94c3.27,0,6.55,0,9.82,0,.92,0,2.11-.28,2.71.17,2.32,1.79,4.34,1.55,6.8.14,1.21-.69,3.07-.28,5.04-.38-.58,1.32-.98,2.21-1.38,3.1-.82,1.85-2.11,2.81-4.26,2.6-5.73-.55-11.14,2.02-16.96,1.5-5.8-.52-11.68-.12-17.53-.11-.92,0-2.17-.3-2.69.17-.93.84-2.25,2.8-1.95,3.2,2.56,3.41,1.15,7.21,1.15,10.74,0,3.54,1.47,7.38-1.23,10.69-.22.27.4,1.17.57,1.8.29,1.05,1.1,2.54.69,3.11-2.31,3.17-1.22,6.69-1.25,10.01-.14,14.96-.06,29.93-.06,44.9,0,1.4.07,2.81-.01,4.21-.14,2.51-1.27,3.63-3.7,3.83-4.96.4-6.09-.6-6.1-5.64-.03-13.09-.34-26.2.13-39.28.25-6.95-2.97-13.77-1.33-20.42,1.83-7.37.61-14.64,1.19-21.92.04-.46.03-.94,0-1.4-.18-2.91-1.2-3.96-4.24-3.99-6.78-.06-13.56-.02-20.34-.02-5.14,0-10.32-.34-15.43.08C13.39,7.91,6.84,5.73.02,5.64Z"/>
  </g>
</svg>