<?xml version="1.0" encoding="UTF-8"?>
<svg id="_레이어_2" data-name="레이어 2" xmlns="http://www.w3.org/2000/svg" viewBox="0 0 93.23 100">
  <defs>
    <style>
      .cls-1 {
        fill: #fff;
        stroke-width: 0px;
      }
    </style>
  </defs>
  <g id="_레이어_1-2" data-name="레이어 1">
    <path class="cls-1" d="M88.61,2.53c-1.57,4.55.69,7.71,4.62,10.66-3.45,2.92-6.42,3.98-10.19,3.93-11.86-.16-23.72-.06-35.87-.06v82.64c-3.55.1-6.86.23-10.18.27-3.41.05-6.81.01-10.84.01v-27.32c0-14.42-.02-28.83.03-43.25,0-2.11.12-4.29.61-6.33.94-3.9.12-5.86-3.26-5.98-5.32-.18-10.65-.05-15.98-.05H0V2.76C10.64-.99,21.73.22,32.71.12c9.4-.08,18.8-.02,28.21-.02,4.7,0,9.42-.28,14.1.09,4.14.33,8.22,1.38,13.6,2.34Z"/>
  </g>
</svg>