<?xml version="1.0" encoding="UTF-8"?>
<svg id="_레이어_2" data-name="레이어 2" xmlns="http://www.w3.org/2000/svg" viewBox="0 0 71.47 100">
  <defs>
    <style>
      .cls-1 {
        fill: #fff;
        stroke-width: 0px;
      }
    </style>
  </defs>
  <g id="_레이어_1-2" data-name="레이어 1">
    <path class="cls-1" d="M56.78,89.4c.82,3.38,1.57,6.46,2.58,10.6-4.67-.85-8.35.81-12.14-1.8-1.56-1.07-4.49-.36-6.76-.14-7.79.75-15.75-1.72-23.45,1.58-2.37,1.02-4.32-1.47-5-4.18-.82-3.29,2.59-4.81,1.85-7.7h7.5c.86-1.4,1.85-2.67,2.45-4.1.41-.98.36-2.19.36-3.29.02-21.5.01-42.99.01-64.8H.24C-.19,10.29.13,5.28,0,0h70.46c.08,2.44-.58,5.54.46,7.88,1.26,2.85.07,4.77-.84,7.34h-28.67v14.69c0,17.8-.02,35.6.02,53.39.01,4.99.98,5.97,5.73,6.09,2.87.07,5.74.01,9.61.01Z"/>
  </g>
</svg>