<?xml version="1.0" encoding="UTF-8"?>
<svg id="_레이어_2" data-name="레이어 2" xmlns="http://www.w3.org/2000/svg" viewBox="0 0 85.03 100">
  <defs>
    <style>
      .cls-1 {
        fill: #fff;
        stroke-width: 0px;
      }
    </style>
  </defs>
  <g id="_레이어_1-2" data-name="레이어 1">
    <path class="cls-1" d="M85.03,1.73c-1.58,1.46-2.95,3.37-4.8,4.29-2.91,1.45-6.09,2.46-9.26,3.24-3.16.77-6.45,1.02-10.51,1.63-.86,12.2-2.16,24.47-2.46,36.77-.34,14.17.33,28.36.3,42.54-.01,4.18,1.59,5.5,5.54,5.24,2.32-.15,4.68.35,7.03.56,0,.7,0,1.41-.01,2.11-12.07.63-24.15,1.26-36.22,1.89-.28-.38-.56-.76-.84-1.13,8.86-3.89,8.38-11.71,8.49-18.93.29-19.3.29-38.6.19-57.91-.04-7.71-1.92-9.33-9.64-9.7-6.5-.31-13.01-1.06-19.49-.82-2.89.11-5.68,2.19-8.55,3.3-3.4,1.32-5.1.24-4.74-3.54.02-.16.02-.33.04-.49C1.17.68,3.69-1.53,14.2.9c14.82,3.43,29.75,3.06,44.69,2.45,6.71-.27,13.37-1.67,20.05-2.56,1.59-.21,3.18-.46,4.77-.69.44.55.88,1.09,1.32,1.64Z"/>
  </g>
</svg>