<?xml version="1.0" encoding="UTF-8"?>
<svg id="_레이어_2" data-name="레이어 2" xmlns="http://www.w3.org/2000/svg" viewBox="0 0 75.98 100">
  <defs>
    <style>
      .cls-1 {
        fill: #fff;
        stroke-width: 0px;
      }
    </style>
  </defs>
  <g id="_레이어_1-2" data-name="레이어 1">
    <path class="cls-1" d="M50.92,98.45c-4.46.69-8.55-.79-12.08,1.55-.24-.16-.44-.24-.57-.38-.14-.14-.31-.33-.31-.5-.01-29.77-.01-59.53-.01-89.85-6.38,0-12.7.07-19-.04-1.98-.04-4.25.92-5.9-1.17-.17-.21-.84-.15-1.22-.04-1.32.36-2.62.81-3.93,1.22-.61-2.37-2.54.64-3.76-.94C3.55,7.53,1.42,7.96,0,7.85-.01,6.45.79,3.22,1.49,1.7c4.08-.63,8.32.92,12.29-1.28.97-.54,2.81-.57,3.73,0,3.34,2.1,6.93,1.11,10.37,1.14,15.94.12,31.88.05,48.1.05v7.49c-.66.06-1.26.19-1.86.16-7.73-.43-15.37.38-23.2,1.72v87.47Z"/>
  </g>
</svg>