<?xml version="1.0" encoding="UTF-8"?>
<svg id="_레이어_2" data-name="레이어 2" xmlns="http://www.w3.org/2000/svg" viewBox="0 0 84.59 100">
  <defs>
    <style>
      .cls-1 {
        fill: #fff;
        stroke-width: 0px;
      }
    </style>
  </defs>
  <g id="_레이어_1-2" data-name="레이어 1">
    <path class="cls-1" d="M32.73,100V10.14c-7.71,0-15.22-.04-22.73.02-2.52.02-4.99.27-6.69-2.27-.18-.27-1.68.33-2.97.62C-.34,6.52.26,4.14.01,1.94,2.41.15,4.96.02,7.64.02c22.67.06,45.34.05,68.01,0,2.45,0,5.52-.36,6.82,1.48,1.34,1.9,2.43,4.55,2.04,7.29-.11.77-.02,1.57-.02,2.8-11.86-2.63-23.41-.98-35.29-1.53,0,9.51.14,18.7-.06,27.88-.1,4.87-1.75,9.88-1.02,14.56,2.23,14.32.4,28.65,1.07,42.96.04.81,0,1.63,0,2.58-5.38.63-10.58,1.25-16.47,1.94Z"/>
  </g>
</svg>