<?xml version="1.0" encoding="UTF-8"?>
<svg id="_레이어_2" data-name="레이어 2" xmlns="http://www.w3.org/2000/svg" viewBox="0 0 91.93 100">
  <defs>
    <style>
      .cls-1 {
        fill: #fff;
        stroke-width: 0px;
      }
    </style>
  </defs>
  <g id="_레이어_1-2" data-name="레이어 1">
    <path class="cls-1" d="M10.35,85.97c1.27-2.76,2.29-5,3.13-6.82,4.51.65,8.44,1.21,12.83,1.85,7.24-19.12,14.21-37.52,21.47-56.69-8.8-3.59-16.79-6.85-24.73-10.09-8.99,3.29-13.12,11.63-19.96,17.09-.42-.16-1.07-.27-1.55-.62-.51-.36-.85-.95-1.54-1.74C4.42,19.42,8.88,9.78,13.42,0c13.64,5.71,26.53,11.24,39.53,16.53,12.76,5.19,25.04,11.69,38.98,14.06v17.71c-2.59-.42-4.93-.8-8.29-1.34-1.35,1.28-3.2,3.05-5.62,5.35.51-4.47.95-8.34,1.35-11.82-4.33-6.38-11.09-6.86-16.63-9.34-4.81,4.7-21.07,48.91-21.04,56.98,1.07.86,2.35,1.9,4.14,3.35-.55,2.65-1.14,5.5-1.76,8.53-11.3-4.7-22.11-9.19-33.73-14.03Z"/>
  </g>
</svg>