<?xml version="1.0" encoding="UTF-8"?>
<svg id="_레이어_2" data-name="레이어 2" xmlns="http://www.w3.org/2000/svg" viewBox="0 0 86.48 100">
  <defs>
    <style>
      .cls-1 {
        fill: #fff;
        stroke-width: 0px;
      }
    </style>
  </defs>
  <g id="_레이어_1-2" data-name="레이어 1">
    <path class="cls-1" d="M84.54,10.97c.64.76,1.83,1.51,1.85,2.29.14,7.29.08,14.58.08,22.26-5.15,0-9.71.12-14.27-.05-2.36-.08-3.04.76-3.06,3.04-.11,9.19-.06,18.4-.75,27.55-.43,5.76-1.46,11.63-3.31,17.09-3.04,8.96-10.33,13.55-19.32,14.84-8.22,1.18-16.59,1.4-24.48,2.01.44-13.63,1.02-26.62,1.23-39.61.21-12.94.05-25.88.05-39.48H0V.34C1.12.24,2.23.06,3.34.06,28.73.03,54.11,0,79.5,0c4.16,0,4.15.06,4.11,4.37-.02,2.29,0,4.59,0,6.88.31-.1.62-.19.94-.29Z"/>
  </g>
</svg>