<?xml version="1.0" encoding="UTF-8"?>
<svg id="_레이어_2" data-name="레이어 2" xmlns="http://www.w3.org/2000/svg" viewBox="0 0 109 100">
  <defs>
    <style>
      .cls-1 {
        fill: #fff;
        stroke-width: 0px;
      }
    </style>
  </defs>
  <g id="_레이어_1-2" data-name="레이어 1">
    <path class="cls-1" d="M109,6.41V0H.23C-.33,6.44-.33,6.38,5.65,6.37c14.89-.02,29.77.01,44.66.04.95,0,1.89.19,3.15.33,0,1.68,0,3.14,0,4.61.02,21.83.09,43.67.03,65.5-.03,9.88,3.44,17.51,12.88,21.71.03.01.06.03.08.06.56.62,1.24,1.13,2.07,1.16,5.82.26,11.65.38,17.4-.22,1.94-.2,3.77-.96,5.4-2.05.19-.13.38-.25.57-.36,6.42-3.7,9.41-9.29,9.2-16.62-.03-.93-.61-1.83-.94-2.75-2.34,7.59-7,12.25-13.82,14.99-4.02,1.61-6.53.9-9.66-2.21-4.56-4.53-5.82-10.39-5.97-16.3-.46-18.34-.53-36.7-.62-55.05-.02-4.16.46-8.32.73-12.8h38.19Z"/>
  </g>
</svg>