<?xml version="1.0" encoding="UTF-8"?>
<svg id="_레이어_2" data-name="레이어 2" xmlns="http://www.w3.org/2000/svg" viewBox="0 0 100.92 100">
  <defs>
    <style>
      .cls-1 {
        fill: #fff;
        stroke-width: 0px;
      }
    </style>
  </defs>
  <g id="_레이어_1-2" data-name="레이어 1">
    <path class="cls-1" d="M.62.13c6.02-.44,11.55.1,16.51,3.63.81.58,2.23.44,3.36.43,19.7-.26,39.4-.49,59.09-.9,4.7-.1,9.38-.83,14.07-1.27,2.98-.28,4.65.57,4.87,4.07.6,9.42,1.62,18.81,2.33,28.23.16,2.14.01,4.4-.53,6.47-.26,1.02-1.69,2.28-2.69,2.37-.76.07-2.17-1.4-2.44-2.42-1.98-7.39-3.5-14.91-5.65-22.25-1.65-5.64-5.03-10.34-11.16-11.57-3.74-.75-7.78-.72-11.55-.16-1.04.15-2.23,3.43-2.3,5.31-.45,12.53-.85,25.07-.81,37.6.04,12.92.36,25.84.99,38.75.32,6.56,1.87,7.46,8.27,5.71,3.02-.83,5.56-.7,7.79,1.41,1.13,1.07,1.93,2.51,3.4,4.48H17.38c-.03-.25-.06-.51-.09-.76.76-.18,1.51-.45,2.28-.53,9.04-.85,14.15-5.95,14.67-15.02.4-7.02.61-14.06.75-21.1.34-16.87.6-33.74.88-50.61.03-1.76,0-3.51,0-6.28-6.38.98-12.11,1.83-17.82,2.81-.31.05-.46,1.17-.64,1.81-3.41,12.32-7.05,24.55-14.02,35.45-.11.17-.42.21-.79.38C-1.55,30.95.48,15.56.62.13ZM3.42,1.62c-1.75,10.65-1.73,11.64.15,13.76,3.13-3.49,3.18-9.23-.15-13.76Z"/>
  </g>
</svg>