<?xml version="1.0" encoding="UTF-8"?>
<svg id="_레이어_2" data-name="레이어 2" xmlns="http://www.w3.org/2000/svg" viewBox="0 0 165.16 100">
  <defs>
    <style>
      .cls-1 {
        fill: #fff;
        stroke-width: 0px;
      }
    </style>
  </defs>
  <g id="_레이어_1-2" data-name="레이어 1">
    <path class="cls-1" d="M81.03,100c-5.77,0-9.63,0-13.49,0-23.33.01-23.23.01-22.96-23.85.18-15.8.03-31.61.03-48.37H1.24c-.57-1.86-1.13-2.82-1.13-3.78C.18-5.04-3.25.44,23.12.36c32.87-.1,65.74.68,98.6,1.11,1.37.02,2.73.38,4.85.69.48,3.33.95,6.59,1.42,9.85.85.38,1.7.76,2.55,1.13,1.93-3.24,3.87-6.47,6.41-10.73h28.21v25.19h-84.13v72.4Z"/>
  </g>
</svg>