<?xml version="1.0" encoding="UTF-8"?>
<svg id="_레이어_2" data-name="레이어 2" xmlns="http://www.w3.org/2000/svg" viewBox="0 0 80.43 100">
  <defs>
    <style>
      .cls-1 {
        fill: #fff;
        stroke-width: 0px;
      }
    </style>
  </defs>
  <g id="_레이어_1-2" data-name="레이어 1">
    <g>
      <path class="cls-1" d="M65.96,100H11.68c7.29-2.56,12.45-7.42,16.58-13.53.51-.75.9-1.93.71-2.76-2.82-11.87-2.07-23.93-2.01-35.94.04-7.49.34-14.98.64-22.46.03-.81.65-1.97,1.33-2.32,4.7-2.46,9.62-3.95,15.05-3.23,4.29.57,6.18,2.05,6.26,6.35.17,8.51-.35,17.04.02,25.54.5,11.55,1.6,23.07,2.38,34.61.49,7.36,4.58,11.25,11.62,12.48.61.11,1.18.42,1.78.63l-.07.63Z"/>
      <path class="cls-1" d="M0,27.53V.69c3.66-.12,6.76-1.85,9.99.7,1.22.97,3.49.83,5.28.84,20.78.07,41.57.07,62.35.09.66,0,1.32.06,2.81.13-.73,4.44-1.35,8.64-2.13,12.8-.36,1.9-2.12,2.2-3.01,1-2.12-2.85-5.27-2.49-8-2.96-13.25-2.26-25.72-.13-37.89,5.91C20.24,23.73,10.63,27.79,0,27.53Z"/>
    </g>
  </g>
</svg>