<?xml version="1.0" encoding="UTF-8"?>
<svg id="_레이어_2" data-name="레이어 2" xmlns="http://www.w3.org/2000/svg" viewBox="0 0 48.46 100">
  <defs>
    <style>
      .cls-1 {
        fill: #fff;
        stroke-width: 0px;
      }
    </style>
  </defs>
  <g id="_레이어_1-2" data-name="레이어 1">
    <path class="cls-1" d="M20.5,48.5c0,5.01,0,9.47,0,14.5,3.3.26,6.42.51,10.24.82,0,7.28.02,14.52,0,21.77q-.04,14.71,14.67,14.3c.56-.02,1.11-.14,2.36-.31.15-1.66.44-3.44.45-5.22.08-29.73.06-59.46.25-89.19C48.49,1.19,47.19-.05,43.3,0,30.5.18,17.7.17,4.9,0,1.27-.04-.11,1.1,0,4.84c.43,13.48-1.2,11.13,10.92,11.38,4.7.1,9.42.22,14.11-.05,4.05-.23,5.8.98,5.62,5.34-.27,6.76-.28,13.57.14,20.32.32,5-1.42,7-6.37,6.34-1.07-.14-2.2.17-3.93.33Z"/>
  </g>
</svg>