<?xml version="1.0" encoding="UTF-8"?>
<svg id="_레이어_2" data-name="레이어 2" xmlns="http://www.w3.org/2000/svg" viewBox="0 0 70.41 100">
  <defs>
    <style>
      .cls-1 {
        fill: #fff;
        stroke-width: 0px;
      }
    </style>
  </defs>
  <g id="_레이어_1-2" data-name="레이어 1">
    <path class="cls-1" d="M70.41,0v19.96c-7.75.39-15.72.79-24.28,1.21v78.79c-8.07,0-15.54-.07-23,.04-2.95.04-3.03-1.88-2.97-3.85.25-7.49.46-14.99.94-22.47.74-11.43,1.78-22.85,2.52-34.28.3-4.58.09-9.19.17-13.79.06-3.93,0-4.05-4.09-4-6.21.08-12.42.22-18.62.33-.51,0-1.03,0-1.07,0C0,15.6-.04,9.47.1,3.34c.01-.49,1.26-1.36,1.94-1.37,14.35-.19,28.71-.12,43.06-.44,8.22-.19,16.43-.98,25.32-1.54Z"/>
  </g>
</svg>