<?xml version="1.0" encoding="UTF-8"?>
<svg id="_레이어_2" data-name="레이어 2" xmlns="http://www.w3.org/2000/svg" viewBox="0 0 81.16 100">
  <defs>
    <style>
      .cls-1 {
        fill: #fff;
        stroke-width: 0px;
      }
    </style>
  </defs>
  <g id="_레이어_1-2" data-name="레이어 1">
    <g>
      <path class="cls-1" d="M41.78,96.61c-1.83,1.62-3.07,4.14-6.56,3.18.21-6.14-1.75-12.15-1.65-18.57.34-21.32.13-42.64.13-63.96v-6.24c-9.5,0-18.66.02-27.82,0C.11,10.99.06,10.91,0,4.94c0-.9,0-1.79,0-3.35,1.71,0,3.42-.04,5.12,0,7.26.22,14.33-1.94,21.67-1.46,7.15.47,14.38.45,21.53-.03,4.07-.27,7.62,1.71,11.57,1.52,3.81-.18,7.63.04,11.44-.08,1.46-.05,3.28-.1,4.27-.94,2.11-1.79,2.6.95,4.03,1.1,2.19.22.96,1.53.5,2.79-.3.85.51,2.09,1.02,3.83-2.71,0-5.1-.05-7.5.01-2.79.07-5.77-.74-7.92,2.15-.45.61-2.03.5-3.09.51-5.16.05-10.32-.02-15.49.04-2.91.03-3.9,1.04-4.04,3.86-.22,4.33.34,8.64-1.18,12.97-.67,1.93-1.25,4.89,1.17,6.79-.48,3.89.94,7.89-.9,11.75-.61,1.29-.43,3-.43,4.52-.03,15.25-.02,30.5-.02,45.69Z"/>
      <path class="cls-1" d="M54.47,79.65c1.68-1.67,3.36-3.34,5.34-5.32.2.39.88,1.47.79,1.54-2.05,1.54-4.19,2.98-6.31,4.43.06-.22.12-.43.18-.65Z"/>
      <path class="cls-1" d="M65.37,65.12c-.74-1.65-1.42-3.07-1.98-4.54-.09-.23.41-.69.63-1.04.22.22.43.47.67.67,1.67,1.29,1.87,2.82.67,4.91Z"/>
      <path class="cls-1" d="M64.63,75.83c-4.23-.35-2.05-2.61-1.87-4.17.58,1.3,1.17,2.6,1.87,4.17Z"/>
      <path class="cls-1" d="M63.35,32.58c-2.13-.53-2.91-1.95-2.7-4.04,2.13.53,2.91,1.95,2.7,4.04Z"/>
      <path class="cls-1" d="M66.04,36.62c-2.13-.53-2.91-1.95-2.7-4.04,2.13.53,2.91,1.95,2.7,4.04Z"/>
      <path class="cls-1" d="M66.28,52.53v-4.92l.82-.04c.11,1.66.23,3.32.34,4.98-.39,0-.78-.01-1.16-.02Z"/>
      <path class="cls-1" d="M69.07,74.36v-4.04h.67v4.04h-.67Z"/>
      <path class="cls-1" d="M73.86,48.73c.06,1.31.12,2.62.19,3.93-.3.03-.6.05-.9.08-.17-1.32-.35-2.65-.52-3.97.41-.01.82-.03,1.23-.04Z"/>
      <path class="cls-1" d="M53.86,18.83c-.73.1-1.33.27-1.92.23-.19-.01-.34-.55-.51-.84.59-.15,1.17-.38,1.76-.41.16-.01.36.53.67,1.03Z"/>
      <path class="cls-1" d="M60.65,28.54c-2.02-.11-1.14-1.67-1.35-2.7,2.02.11,1.14,1.67,1.35,2.7Z"/>
      <path class="cls-1" d="M72.32,45.56c.21,1.43.33,2.31.46,3.19-.45-.52-.97-1-1.3-1.58-.1-.18.33-.66.85-1.61Z"/>
      <path class="cls-1" d="M53.91,80.35c-.27.21-.53.41-.8.62-.08-.28-.31-.75-.22-.82.28-.21.67-.28,1.02-.41,0,.2,0,.4,0,.6Z"/>
      <path class="cls-1" d="M63.83,69.16c.28.16.58.32.87.48-.15.15-.33.45-.44.42-.32-.07-.61-.27-.9-.42.15-.15.3-.3.48-.48Z"/>
      <path class="cls-1" d="M72.3,64.73c-.28-.16-.58-.32-.87-.48.15-.15.33-.45.44-.42.32.07.61.27.9.42-.15.15-.3.3-.48.48Z"/>
      <path class="cls-1" d="M65.48,58.3c.16.16.44.38.42.43-.16.29-.39.55-.6.81-.2-.2-.4-.4-.6-.6.26-.21.52-.43.78-.64Z"/>
      <path class="cls-1" d="M67.28,37.41c-.16.16-.38.44-.43.42-.29-.16-.55-.39-.81-.6.2-.2.4-.4.6-.6.21.26.43.52.64.78Z"/>
      <path class="cls-1" d="M58.7,25.84c-.21-.27-.41-.53-.62-.8.28-.08.75-.31.82-.22.21.28.28.67.41,1.02-.2,0-.4,0-.6,0Z"/>
    </g>
  </g>
</svg>