<?xml version="1.0" encoding="UTF-8"?>
<svg id="_레이어_2" data-name="레이어 2" xmlns="http://www.w3.org/2000/svg" viewBox="0 0 61.35 100">
  <defs>
    <style>
      .cls-1 {
        fill: #fff;
        stroke-width: 0px;
      }
    </style>
  </defs>
  <g id="_레이어_1-2" data-name="레이어 1">
    <g>
      <path class="cls-1" d="M57.87,37.75c-1.35-13.35-3.15-16.87-10.56-23.34-3.74-3.27-7.81-4.97-13.47-3.48,0,11.9.12,23.99-.07,36.07-.06,3.58.63,7.04-1.67,10.83-1.57,2.59-.26,7.32.59,10.89,1.53,6.4,1.5,16.91-.46,23.88-.63,2.23-.54,4.65-.82,7.36h-7.37c.13.14-.31-.11-.31-.36-.03-27.79-.03-55.58-.03-83.73C18.87,11.56,15.25,5.39,7.33,6.3c-.31.99-.61,1.59-.67,2.22-.59,6.33.46,12.59-1.73,19.09-1.54,4.57.47,10.33.91,15.86-1.58-.76-3.41-1.65-5.84-2.82.56-1.8,1.24-3.6,1.68-5.46,1-4.27,1.85-8.51-.6-12.69-.62-1.06-1.15-3.04-.6-3.79,2.91-4,1.75-8.47,1.99-12.78C2.7,1.56,4.25-.25,8.72.03c4.6.29,9.11-.79,13.93,1.63,3.61,1.81,8.87.31,13.39.37,9.11.13,17.31,1.94,21.05,11.74,6.85,5.31,3.37,12.52,3.39,19.05,0,1.15-1.17,2.31-2.6,4.94Z"/>
      <path class="cls-1" d="M48.58,45.57c-2.76,10.48-3.08,10.75-12.13,10.31q.03-6.41,4.62-7.85c2.44-.77,4.87-1.6,7.5-2.46Z"/>
      <path class="cls-1" d="M48.48,45.94c.7-.7,1.39-1.39,2.09-2.09l-2.09,2.09Z"/>
      <path class="cls-1" d="M51.79,41.93c.24.24.69.58.64.66-.25.45-.61.85-.93,1.26-.31-.31-.62-.62-.93-.93.41-.33.81-.66,1.22-.99Z"/>
      <path class="cls-1" d="M56.1,37.88c.28.28.51.51.74.74-.46.23-.91.54-1.4.65-.17.04-.46-.42-.69-.65.45-.25.91-.5,1.35-.74Z"/>
    </g>
  </g>
</svg>