<?xml version="1.0" encoding="UTF-8"?>
<svg id="_레이어_2" data-name="레이어 2" xmlns="http://www.w3.org/2000/svg" viewBox="0 0 82.96 100">
  <defs>
    <style>
      .cls-1 {
        fill: #fff;
        stroke-width: 0px;
      }
    </style>
  </defs>
  <g id="_레이어_1-2" data-name="레이어 1">
    <g>
      <path class="cls-1" d="M48.73,8.39c0,12.42-.37,24.1.13,35.74.33,7.8-1.73,15.33-1.52,23.04.06,2.23-.98,4.74,1.29,6.64.36.3.04,1.36.1,2.07.23,2.78-3.02,5.44-1.25,7.87,1.84,2.53,1.03,4.95,1.2,7.41.2,2.83.05,5.69.05,8.83h-9.74c-.52-2.63-2.2-5.94-1.52-8.67,2.51-10.07,1.57-20.26.9-30.22-.52-7.68-.92-15.36-1.09-23.06-.04-1.91-.19-3.84.05-5.72.22-1.74,1.27-3.42,1.31-5.14.13-5.55.65-11.18-1.83-16.83H9.48C7.89,5.66,4.67,3.65.04,4.21c0-1.02-.09-1.88.01-1.9C2.86,1.64,5.33-.01,8.4,0c19.81.09,39.62,0,59.42.11,2.43.01,4.84,1.09,7.29,1.32,2.55.24,5.14.05,7.84.05v6.91h-34.22Z"/>
      <path class="cls-1" d="M21.73,19.07c-.66,3.62-1.32,7.23-2.25,12.27-1.47-5.29-.96-8.96,2.25-12.27Z"/>
    </g>
  </g>
</svg>