<?xml version="1.0" encoding="UTF-8"?>
<svg id="_레이어_2" data-name="레이어 2" xmlns="http://www.w3.org/2000/svg" viewBox="0 0 101.36 100">
  <defs>
    <style>
      .cls-1 {
        fill: #fff;
        stroke-width: 0px;
      }
    </style>
  </defs>
  <g id="_레이어_1-2" data-name="레이어 1">
    <path class="cls-1" d="M97.19,0c3.13,13.82,3.02,27.55,4.16,41.17-.43.06-.86.12-1.29.18-.67-3.51-1.15-7.07-2.07-10.51-1.53-5.76-3.23-11.48-5.09-17.14-1.36-4.16-4.37-6.61-8.83-6.93-6.9-.49-13.81-.91-20.47-1.34v89.12c4.84,1.86,9.23,3.54,14.19,5.44H18.64c-.06-.42-.11-.84-.17-1.26,2.94-.68,5.86-1.79,8.83-1.92,3.91-.17,4.89-2.38,4.96-5.54.15-6.6.24-13.21.25-19.81.05-20.3.07-40.61.05-60.91,0-4.86-.19-4.97-5.07-4.92-6.64.07-12.85,1.46-17.85,6.25-3.58,3.44-5.12,7.95-5.66,12.61-.71,6.16-.74,12.41-1.46,18.62C1.68,28.71.84,14.3,0,0h97.19Z"/>
  </g>
</svg>