<?xml version="1.0" encoding="UTF-8"?>
<svg id="_레이어_2" data-name="레이어 2" xmlns="http://www.w3.org/2000/svg" viewBox="0 0 53.71 100">
  <defs>
    <style>
      .cls-1 {
        fill: #fff;
        stroke-width: 0px;
      }
    </style>
  </defs>
  <g id="_레이어_1-2" data-name="레이어 1">
    <path class="cls-1" d="M53.71,5.23c-7.48,0-14.31-.04-21.13.02-3.1.03-3.96.88-4.01,3.9-.07,3.74-.77,7.67.14,11.17,1.87,7.12,1.61,14.33.9,21.3-1.8,17.69-.6,35.38-1.06,53.06-.02.8.05,1.68-.24,2.39-.43,1.04-1.15,1.96-1.75,2.94-2.92-2.11-3.56-3.97-2.58-7.29.33-1.12.79-2.26.8-3.39.06-9.55.87-19.19-.22-28.62-.9-7.77-.8-15.45-.95-23.18-.16-7.88-.1-15.78,0-23.66.03-2.72.46-5.44.75-8.58H0V1.76c2.87-.78,6.07.5,8.74-1.46.54-.4,1.85-.39,2.41,0,2.79,1.97,5.9,1.13,8.86,1.15,9.76.1,19.51.07,29.27.01,2.31-.01,3.92.6,4.42,3.77Z"/>
  </g>
</svg>