<?xml version="1.0" encoding="UTF-8"?>
<svg id="_레이어_2" data-name="레이어 2" xmlns="http://www.w3.org/2000/svg" viewBox="0 0 75.42 100">
  <defs>
    <style>
      .cls-1 {
        fill: #fff;
        stroke-width: 0px;
      }
    </style>
  </defs>
  <g id="_레이어_1-2" data-name="레이어 1">
    <path class="cls-1" d="M72.62.43c1,2.21,1.87,4.13,2.8,6.19-9.3,1.68-18.18,2.97-27.29,2.79-1.76-.03-2.65-3.31-4.94-.8-1.7,1.87-1.21,3.74-1.21,5.63-.06,18.89-.04,37.79-.04,56.68v29.02c-1.83,0-3.25.16-4.62-.03-2.45-.35-4.16-1.57-4.11-4.37.03-1.74,0-3.49,0-5.23V10c-9.05-2.53-18.31-2.96-27.65-2.58C2.27,7.55.09,6.56,0,2.17c9.79,0,19.31.1,28.82-.06,2.99-.05,6.18,1.19,9-1.55.9-.87,3.52-.6,5.07-.06,7.72,2.68,15.3,2.2,23.02.01,2.12-.6,4.55-.09,6.71-.09Z"/>
  </g>
</svg>