<?xml version="1.0" encoding="UTF-8"?>
<svg id="_레이어_2" data-name="레이어 2" xmlns="http://www.w3.org/2000/svg" viewBox="0 0 147.72 100">
  <defs>
    <style>
      .cls-1 {
        fill: #fff;
        stroke-width: 0px;
      }
    </style>
  </defs>
  <g id="_레이어_1-2" data-name="레이어 1">
    <path class="cls-1" d="M44.5,78.7c2.89-14.09,5.99-28.14,8.57-42.29,1.01-5.51.87-11.22,1.27-16.85.39-5.53-2.43-7.22-7.49-6.3-11.55,2.09-23.07,4.37-34.67,6.1-3.44.51-9.54.49-10.23-1.11C.04,13.82-.15,8.43.07,3.46.13,2.15,4.1.08,6.33,0c4.22-.14,8.46,1.18,12.72,1.43,11.49.66,22.99,1.53,34.49,1.49,22.58-.09,45.16-1.01,67.73-.99,7.38,0,14.79,1.66,22.1,3.02,1.71.32,3.89,2.3,4.31,3.92.32,1.25-1.45,3.53-2.85,4.65-9,7.22-18.15,10.2-29.31,3.4-9.33-5.68-20.02-5.01-30.62-3.09-4.41.8-6.22,3.12-6.15,6.94.14,8.02.72,16.04,1.12,24.06.09,1.88.33,3.76.27,5.63-.44,12.61-.82,25.23-1.49,37.83-.48,8.99-1.48,9.98-10.02,11.38-2.37.39-4.83.32-7.25.31-13.65-.07-15.19-1.65-15.1-15.24.01-1.89,0-3.77,0-5.66-.59-.13-1.18-.26-1.77-.39Z"/>
  </g>
</svg>