<?xml version="1.0" encoding="UTF-8"?>
<svg id="_레이어_2" data-name="레이어 2" xmlns="http://www.w3.org/2000/svg" viewBox="0 0 70.71 100">
  <defs>
    <style>
      .cls-1 {
        fill: #fff;
        stroke-width: 0px;
      }
    </style>
  </defs>
  <g id="_레이어_1-2" data-name="레이어 1">
    <path class="cls-1" d="M24.65,20.79c-10.8,1.01-15.92,8.18-19.91,16.76-3.44.29-5.38-1.98-4.55-5.54C2.27,23.1,4.43,14.2,6.56,5.3c.42-1.76.85-3.52,1.28-5.3h58.56c1.44,11.72,2.86,23.33,4.32,35.23-1.77.49-3.1.86-4.54,1.26-2.96-9.22-7.89-15.65-18.35-15.71-.05.65-.1,1.04-.1,1.44,0,20.22-.03,40.45.02,60.67,0,2.16.32,4.34.71,6.47.72,3.94,3.33,6.34,7.05,7.84.11.9.23,1.8.35,2.8H16.31v-3c.41-.28.75-.63,1.17-.77,4.76-1.61,6.36-5.45,6.88-9.94.3-2.62.4-5.28.41-7.91.02-18.4,0-36.8-.02-55.21,0-.63-.05-1.26-.11-2.38Z"/>
  </g>
</svg>