<?xml version="1.0" encoding="UTF-8"?>
<svg id="_레이어_2" data-name="레이어 2" xmlns="http://www.w3.org/2000/svg" viewBox="0 0 35.27 91.7">
  <defs>
    <style>
      .cls-1 {
        fill: #fff;
        stroke-width: 0px;
      }
    </style>
  </defs>
  <g id="_레이어_1-2" data-name="레이어 1">
    <path class="cls-1" d="M8.26,50.44c0-11.65-.04-23.3.02-34.95.02-3.36-1.16-5.22-4.79-5.25C.73,10.21-.1,8.25,0,5.83.12,3.46.66,1.33,3.55.9,12.38-.43,21.25.03,30.11.32c3.74.12,5.36,2.04,5.14,5.75-.13,2.19-1.17,3.3-3.42,3.34-3.09.05-6.18.36-9.27.3-2.55-.05-3.4,1.12-3.42,3.47-.05,7.48-.15,14.96-.27,22.44-.21,13.68-.44,27.36-.69,41.04-.1,5.54-.14,5.52,5.26,5.49,1.49,0,3.01-.04,4.48.17,2.59.35,3.99,1.83,3.87,4.58-.12,2.7-1.42,4.11-4.17,4.22-4.48.17-8.96.57-13.44.59-4.42.01-6.06-1.64-6.17-6.31-.15-6.41.01-12.83.03-19.24.01-5.24,0-10.47,0-15.71.08,0,.15,0,.23,0Z"/>
  </g>
</svg>