<?xml version="1.0" encoding="UTF-8"?>
<svg id="_레이어_2" data-name="레이어 2" xmlns="http://www.w3.org/2000/svg" viewBox="0 0 122.48 100">
  <defs>
    <style>
      .cls-1 {
        fill: #fff;
        stroke-width: 0px;
      }
    </style>
  </defs>
  <g id="_레이어_1-2" data-name="레이어 1">
    <g>
      <path class="cls-1" d="M14.74,21.47C11.85,14.07,7.46,7.94,0,4.25,10.12.4,20.23.52,30.24.2,39.51-.09,48.8.02,58.08.02c20.78,0,41.56.04,62.34.08.62,0,1.24.15,2.06.26-.14.72-.17,1.34-.38,1.9-3.02,8.11-2.95,7.61-11.55,6.29-6.35-.98-12.93-.43-19.41-.62-13.8-.4-27.59-.84-41.39-1.26-1.56-.05-3.12,0-5.19,0,0,6.13-.04,11.8,0,17.46.06,7.14.92,14.37.13,21.41-1.43,12.81,4.92,21.98,12.39,31.06,3.61,4.38,6.67,9.22,9.8,13.97.53.81.13,2.22.16,3.35-1.09-.38-2.5-.45-3.22-1.19-3.78-3.84-7.25-7.98-11.12-11.71-1.1-1.06-3.59-1.94-4.73-1.4-1.87.88-1.68,2.61-.79,5.04,1.59,4.31,1.66,9.19,2.42,14.21-4.54.35-9.37.72-14.39,1.11-.19-.88-.42-1.46-.43-2.04-.16-28.23-.34-56.46-.38-84.69,0-3.6-1.41-5.18-4.87-5.4-3.32-.21-6.62-.79-9.93-.82-2.83-.03-4.29,1.22-3.57,4.56.65,3.02.54,6.21.76,9.32-.68.18-1.37.36-2.05.54Z"/>
      <path class="cls-1" d="M90.15,66.27c-1.18-10.72-3.08-21.71,1.88-31.62,3.33-6.66,8.81-12.28,13.56-18.18.74-.92,2.68-.88,4.26-1.35-7.07,17.28-17.98,32.38-19.7,51.15Z"/>
    </g>
  </g>
</svg>