<?xml version="1.0" encoding="UTF-8"?>
<svg id="_레이어_2" data-name="레이어 2" xmlns="http://www.w3.org/2000/svg" viewBox="0 0 75.81 100">
  <defs>
    <style>
      .cls-1 {
        fill: #fff;
        stroke-width: 0px;
      }
    </style>
  </defs>
  <g id="_레이어_1-2" data-name="레이어 1">
    <path class="cls-1" d="M0,.84c10.59,0,21.55.1,32.51-.03,8.13-.1,16.27-.42,24.39-.79,2.82-.13,4.15.54,4.04,3.73-.22,6.27-.07,12.54-.07,19.7H20.31c0,7.82-.09,14.75.14,21.67.02.67,2.02,1.81,3.11,1.82,16.13.11,32.26.21,48.38-.07,3.34-.06,3.99,1.04,3.85,3.81-.24,4.85-.55,9.7-.54,14.55,0,2.95-1.31,3.51-3.93,3.47-15.71-.25-31.42-.24-47.12-.61-3.92-.09-4.74,1.11-4.6,4.86.33,8.83.11,17.69.11,27.05H1.46C.97,66.83.48,33.66,0,.84Z"/>
  </g>
</svg>