<?xml version="1.0" encoding="UTF-8"?>
<svg id="_레이어_2" data-name="레이어 2" xmlns="http://www.w3.org/2000/svg" viewBox="0 0 69 100">
  <defs>
    <style>
      .cls-1 {
        fill: #fff;
        stroke-width: 0px;
      }
    </style>
  </defs>
  <g id="_레이어_1-2" data-name="레이어 1">
    <path class="cls-1" d="M68.82,0v25.38H29.26v27.48h39.73c0,7.74.02,15.11,0,22.47-.01,3.69-2.74,3.52-5.23,3.54-10.75.1-21.5.17-32.25.26-.42,0-.84.12-1.73.26v12.94c2.72,0,5.47-.2,8.17.09,1.22.13,2.33,1.24,3.49,1.9-.66,1.04-1.08,2.5-2.03,3.04-1.98,1.12-4.22,2.43-6.38,2.48-10.59.25-21.19.11-31.52.11C1.01,66.62.51,33.54,0,0h68.82Z"/>
  </g>
</svg>