<?xml version="1.0" encoding="UTF-8"?>
<svg id="_레이어_2" data-name="레이어 2" xmlns="http://www.w3.org/2000/svg" viewBox="0 0 56.15 100">
  <defs>
    <style>
      .cls-1 {
        fill: #fff;
        stroke-width: 0px;
      }
    </style>
  </defs>
  <g id="_레이어_1-2" data-name="레이어 1">
    <path class="cls-1" d="M17.53,60.71c0,11.52-.24,22.24.1,32.93.16,5.04-1.52,6.8-6.47,6.27-3.32-.36-6.72-.07-11.17-.07,0-5.76-.01-11.13,0-16.5C.06,57.52.22,31.7.1,5.88.07,1.48,1.36-.06,5.81,0c15.07.2,30.15.18,45.23,0,4-.05,5.26,1.4,5.1,5.27-.49,11.63,1.29,10.58-10.7,10.73-9.17.11-18.34.02-27.58.02v28.71c8.14,0,15.84.23,23.52-.08,4.84-.19,6.64,1.27,6.4,6.38-.52,10.74,1.49,9.61-9.65,9.67-6.57.03-13.14,0-20.59,0Z"/>
  </g>
</svg>