<?xml version="1.0" encoding="UTF-8"?>
<svg id="_레이어_2" data-name="레이어 2" xmlns="http://www.w3.org/2000/svg" viewBox="0 0 64.05 100">
  <defs>
    <style>
      .cls-1 {
        fill: #fff;
        stroke-width: 0px;
      }
    </style>
  </defs>
  <g id="_레이어_1-2" data-name="레이어 1">
    <g>
      <path class="cls-1" d="M28.72,82.75c-1.88-3.93-3.47-8.04-5.74-11.74-1.34-2.18-1.56-5.88-5.52-5.73-1.07.44-2.37.64-3.16,1.39-.86.81-1.71,2.11-1.75,3.23-.18,5.14-.71,10.39.14,15.39.58,3.42.94,6.78,1.18,10.21.13,1.85,1.24,3.17,3.41,3.1,1.51-.05,3.01,0,4.51.57-5.16,1.01-10.34.62-16.03.81,0-5.26-.96-10.57.22-15.36,1.91-7.71.49-15.35,1.13-22.98.36-4.3-.68-8.6,1.15-12.94.9-2.15.45-5.41-.54-7.67-1.01-2.29,1.38-1.75,1.43-2.86,1.53,2.44,2.33,5,2.02,7.93-.21,1.99.1,4.03-.08,6.03-.15,1.66,2.17,3.29.04,4.93.82.71,1.99,2.2,2.4,2.01,3.86-1.77,7.87-.16,11.65-.87,2.39,2.99-1.1,2.35-1.88,3.36,1,.49,1.27,3.62,3.29.52.28.78.77,1.42.61,1.78-2.23,5.14.07,9.67,1.77,14.3.51,1.38.9,2.8,1.35,4.2-.53.12-1.07.25-1.6.37Z"/>
      <path class="cls-1" d="M37.83,6.4c-8.34,1.97-17.06-.93-25.36,2.49,0,5.98.19,11.76-.07,17.52-.15,3.36-.98,6.69-1.63,10.02-.05.25-1.11.31-1.89.51-.17-.76-.47-1.38-.41-1.96.95-8.59-2.01-16.97-1.37-25.53.16-2.17-1.2-3.11-3.03-3.48-1.21-.24-2.48-.2-4.07-.3C1.27,1.76,4.03.83,7.05.61c2.88-.22,5.81-.22,8.69,0,2.73.21,5.43.83,8.14,1.32.25.05.41.5.68.63,4.14,2.11,8.35,3.96,13.27,3.84Z"/>
      <path class="cls-1" d="M24.55,1.9c1.33-2.92,4.55-1.77,5.59-1.13,2.78,1.71,5.52.95,8.26,1.09,3.55.18,7.12.16,10.68,0,2.96-.13,5.93.6,8.88-1.15,1.36-.81,3.69.03,6.09.15-2.73,5.81-8.79,7.23-11.86,11.68-4.43.27-8.34,2.94-12.86,2.79,1.08-.86,2.04-2.18,3.26-2.47,3.11-.76,5.23-2.72,7.44-4.79,1.64-1.54,3.61-2.73,6.45-4.82h-14.37c-3.13,0-6.26,0-9.39,0-2.8,0-5.21-2.27-8.16-1.34Z"/>
      <path class="cls-1" d="M55.45,15.33c.2,2.95-1.87,4.19-4.03,5.37-.2-2.95,1.87-4.19,4.03-5.37Z"/>
      <path class="cls-1" d="M36.15,15.79c1.42-.2,2.3-.33,3.18-.46-.52.45-.99.97-1.58,1.3-.18.1-.66-.33-1.6-.84Z"/>
      <path class="cls-1" d="M50.07,23.39c.2-1.02-.67-2.57,1.34-2.69-.2,1.02.67,2.57-1.34,2.69Z"/>
      <path class="cls-1" d="M48.5,26.71c.48-1.7.71-2.51.95-3.32.21.63.49,1.24.58,1.88.03.2-.47.47-1.53,1.44Z"/>
      <path class="cls-1" d="M31.16,83.27c-.16.16-.38.44-.42.41-.29-.16-.54-.39-.81-.6.2-.2.4-.4.6-.6.21.26.42.52.63.78Z"/>
      <path class="cls-1" d="M57.57,12.76c.16.16.44.38.41.43-.16.29-.39.54-.6.81-.2-.2-.4-.4-.6-.6.26-.21.52-.42.78-.63Z"/>
      <path class="cls-1" d="M55.45,15.33c.45-.45.9-.9,1.34-1.34-.45.45-.9.9-1.34,1.34Z"/>
    </g>
  </g>
</svg>