<?xml version="1.0" encoding="UTF-8"?>
<svg id="_레이어_2" data-name="레이어 2" xmlns="http://www.w3.org/2000/svg" viewBox="0 0 75.13 100">
  <defs>
    <style>
      .cls-1 {
        fill: #fff;
        stroke-width: 0px;
      }
    </style>
  </defs>
  <g id="_레이어_1-2" data-name="레이어 1">
    <path class="cls-1" d="M0,.02C22.89.02,45.42-.07,67.95.15c2.49.02,4.96,1.8,7.16,2.65-1.31,2.62-2.19,4.35-3.49,6.94-8.92-.35-17.97,3.85-27.92,3.03-9.46-.78-19.03-.17-28.77-.17v37.75c17.55,0,35-.06,52.45.03,5.45.03,7.43,1.94,7.67,7.03.16,3.27.03,6.55.03,10.99-20.21-2.13-39.94-6.18-59.94.67v30.93H0V.02Z"/>
  </g>
</svg>