<?xml version="1.0" encoding="UTF-8"?>
<svg id="_레이어_2" data-name="레이어 2" xmlns="http://www.w3.org/2000/svg" viewBox="0 0 65.49 100">
  <defs>
    <style>
      .cls-1 {
        fill: #fff;
        stroke-width: 0px;
      }
    </style>
  </defs>
  <g id="_레이어_1-2" data-name="레이어 1">
    <path class="cls-1" d="M14.49,61.84c0,5.1.13,9.96-.03,14.82-.18,5.41-.66,10.81-.91,16.22-.06,1.21-.08,2.34.7,3.63,1.04,1.72-.29,3.41-2.39,3.46-3.89.08-7.79.02-11.86.02V.73C3.87-.03,48.76-.29,65.49.4c-.55,1.31-.85,2.62-1.57,3.64-1.97,2.8-4.25,5.38-6.13,8.24-1.09,1.65-2.29,2.62-4.25,2.62-.98,0-1.96,0-2.93,0H14.71v28.36h14.58c10.43,0,20.86-.01,31.29,0,3.38,0,3.76.43,3.78,3.91.02,3.75.03,7.5,0,11.24-.02,2.79-.58,3.4-3.29,3.41-7.82.03-15.64.01-23.46.01H14.49Z"/>
  </g>
</svg>