<?xml version="1.0" encoding="UTF-8"?>
<svg id="_레이어_2" data-name="레이어 2" xmlns="http://www.w3.org/2000/svg" viewBox="0 0 104.82 100">
  <defs>
    <style>
      .cls-1 {
        fill: #fff;
        stroke-width: 0px;
      }
    </style>
  </defs>
  <g id="_레이어_1-2" data-name="레이어 1">
    <g>
      <path class="cls-1" d="M30.89,17.92h31.77c.14,5.09,1.36,9.89,2.68,14.69.4,1.45.32,3.04.36,4.57.06,1.86.01,3.73.01,5.71h-20.85v56.83h-13.98V17.92Z"/>
      <path class="cls-1" d="M0,12.31V.66c.56-.05,1.16-.13,1.77-.14C13.54.33,25.32.06,37.09,0c8.29-.04,16.58.27,24.88.35,7.42.07,14.85.05,22.28.06,6.64.01,13.27.01,19.91.02.2,0,.4.05.67.08v11.8H0Z"/>
      <path class="cls-1" d="M17.07,100H3.04V17.88h14.03v82.12Z"/>
    </g>
  </g>
</svg>