<?xml version="1.0" encoding="UTF-8"?>
<svg id="_레이어_2" data-name="레이어 2" xmlns="http://www.w3.org/2000/svg" viewBox="0 0 94.49 100">
  <defs>
    <style>
      .cls-1 {
        fill: #fff;
        stroke-width: 0px;
      }
    </style>
  </defs>
  <g id="_레이어_1-2" data-name="레이어 1">
    <path class="cls-1" d="M94.18,38.13c-.53-.93-.91-1.51-1.2-2.13-2.41-5.14-4.74-10.32-7.21-15.43-1.9-3.94-4.34-7.62-5.67-11.83-.54-1.71-1.94-1.84-3.31-1.89-1.46-.05-2.93.05-4.37.26-.65.09-1.38.48-1.83.96-1.32,1.4-2.05,3.05-1.97,5.07.2,4.71.36,9.43.39,14.15.02,3.09-.31,6.17-.29,9.26.03,4.55.28,9.1.35,13.65.05,2.94.36,2.76-2.7,2.85-2.35.06-4.7.21-7.05.4-2.06.16-2.25.01-2.25-2,0-1.87,0-3.74-.1-5.61-.06-1.11-.65-1.7-1.92-1.65-6.42.21-12.84.37-19.27.5-1.18.02-1.63.64-1.61,1.66.03,1.62.2,3.25.21,4.87.03,5.13-.03,10.26.04,15.38.08,5.94.32,11.87.37,17.8.03,2.6-.27,5.2-.32,7.79-.02,1.12.28,2.25.33,3.38.06,1.24.76,1.58,1.85,1.83.88.2,2.51-.19,2.48.86-.04,1.18-1.59.57-2.45.66-2.5.24-5.01.38-7.52.47-6.83.22-13.66.41-20.49.59-1.3.03-2.6-.02-3.9-.09-.23-.01-.44-.36-.66-.56.24-.2.45-.52.71-.57.72-.12,1.46-.12,2.19-.19,2.53-.23,3.96-1.78,4.61-4.07.37-1.31.58-2.72.58-4.08.02-19.54.03-39.07-.04-58.61-.02-6.67-.28-13.34-.43-20-.13-5.67-3.53-9.07-9.17-9.14-.33,0-.65.01-.98,0C.25,2.58-.02,2.26,0,1.07.02-.06.79.04,1.53.03,6.82.02,12.11,0,17.4,0c9.28,0,18.56.01,27.84.03,1.19,0,2.35-.13,3.46.74.52.41,1.56.22,2.37.23,9.85.02,19.7.01,29.55.05,1.79,0,3.57.22,5.36.26,1.37.03,2.76.08,4.11-.1,1.99-.26,2.42.01,2.45,2.11.02,1.55-.03,3.09.01,4.64.16,5.85.24,11.71.57,17.55.18,3.15.78,6.27,1.22,9.4.13.93.34,1.86-.15,3.21ZM45.59,3.67c-2.62.87-5.13,1.72-7.38,3.18-.66.43-1.25,1.05-1.73,1.69-1.68,2.29-2.53,4.85-2.49,7.72.06,3.9,0,7.8.1,11.71.07,2.74.31,5.48.5,8.69,1.29-.99,2.33-1.71,3.28-2.54,2.56-2.25,4.98-4.68,7.64-6.8,6.85-5.47,13.8-10.81,20.71-16.21.45-.35.85-.76,1.3-1.1.85-.64.96-1.35.51-2.33-.51-1.11-1.26-1.59-2.47-1.57-4.31.09-8.61.12-12.92.22-1.46.03-2.92.25-4.37.25-1.66,0-1.81-.18-2.35-1.85-.09-.3-.18-.6-.32-1.05Z"/>
  </g>
</svg>