<?xml version="1.0" encoding="UTF-8"?>
<svg id="_레이어_2" data-name="레이어 2" xmlns="http://www.w3.org/2000/svg" viewBox="0 0 117.51 100">
  <defs>
    <style>
      .cls-1 {
        fill: #fff;
        stroke-width: 0px;
      }
    </style>
  </defs>
  <g id="_레이어_1-2" data-name="레이어 1">
    <g>
      <path class="cls-1" d="M115.7,0c.61,7,1.21,13.84,1.81,20.62-2.84,2.34-4.02,2.03-6.4-1.74-.05.8-.09,1.39-.12,1.99-.1.04-.21.08-.31.12-.21-.71-.43-1.41-.79-2.59-.27.93-.39,1.38-.52,1.8h-3.55c-.14.39-.29.82-.56,1.57-.73-1.06-1.28-1.86-1.81-2.63h-8.1c-.83,1.11-1.62,2.16-2.4,3.2-.14-.09-.28-.18-.43-.27-.08-.58-.17-1.16-.25-1.67-.73.12-1.46.24-2.3.37v-1.55c-2.2.22-4.37.43-6.9.68.07.12-.1-.18-.38-.7-.26.53-.41.84-.57,1.15-.07-.18-.13-.36-.2-.54h-4.45s-.02.07-.02.11c-.94,0-2.1.35-2.79-.07-1.45-.88-2.94-.64-4.4-.66-6.02-.07-12.04-.03-18.15-.03v58.07h20.25c.47,7.7.93,15.23,1.39,22.77-3.26-.69-2.3-3.52-2.98-6-.34,1.01-.51,1.49-.7,2.06h-1.92c-.29-.41-.6-.83-1-1.39-.32.26-.6.48-.98.78-.31-.27-.65-.56-.98-.85-.14.48-.29.95-.43,1.43-.13,0-.26,0-.38.01-.12-.68-.24-1.36-.38-2.12h-1.61c-.16.65-.32,1.3-.48,1.94l-.37.02c-.19-.63-.38-1.26-.63-2.11-.26.9-.47,1.62-.68,2.35-.14.02-.28.04-.42.05-.18-.42-.36-.83-.6-1.39-.36.57-.69,1.09-1.18,1.87-.33-.63-.51-.97-.73-1.4-.28.33-.54.64-1.07,1.26-.31-1.06-.53-1.8-.7-2.39-.08.61-.19,1.39-.3,2.17-.17.07-.34.15-.5.22-.54-.74-1.08-1.49-1.86-2.56.11,0-.25-.01-.71-.03-.06-.47-.12-.96-.18-1.45-.15,0-.3-.01-.45-.02-.06,1.18-.12,2.37-.18,3.55-.15.02-.29.04-.44.06-.16-1.03-.31-2.05-.47-3.08-.09-.02-.19-.03-.28-.05-.11.83-.22,1.66-.33,2.5-.12,0-.23,0-.35.01-.14-.44-.27-.89-.49-1.6-.1.82-.18,1.39-.3,2.38-.76-.66-1.3-1.14-1.75-1.53-.25.48-.53,1.01-.8,1.54-.11-.04-.23-.09-.34-.13v-3.47s-.33-.03-.74-.06c-.13.57-.25,1.12-.39,1.71-.42.06-.82.12-1.33.2.12.61.23,1.15.34,1.68-.17.09-.34.19-.51.28-.23-.43-.51-.85-.67-1.3-.19-.57-.28-1.17-.74-1.73-.11,1.01-.22,2.02-.33,3.03-.18.02-.35.04-.53.06-.19-1.11-.37-2.23-.56-3.36-2.02-.75-2.01-.75-2.12,1.31-.03.64-.15,1.27-.24,1.9-.18.07-.36.13-.54.2-.29-.66-.57-1.33-.92-2.13-.05-.01-.36-.08-.23-.05v-3.32c-3.57,0-7.17-.05-10.77.03-1.12.02-1.51-.49-1.62-1.43-.45-3.85-.89-7.7-1.37-11.88h13.07c-.01-19.52.77-38.75-.11-58.11-.73.37-1.16.6-1.62.83v1.6c.15.02.54.08.91.13.03.87-.42.96-4.51,1.04-.1-.61-.2-1.23-.3-1.85-.08,0-.16,0-.23,0v1.82c-.2.04-.4.07-.6.11-.15-1.15-.29-2.31-.44-3.48-1.15,0-2.75-.47-3.4.12-.75.68-.66,2.29-1.27,3.54-.12-.79-.25-1.59-.37-2.38-.08-.02-.16-.04-.24-.07-.06.39-.14.78-.17,1.17-.03.41,0,.82,0,1.23-.2.02-.41.04-.61.06-.1-.81-.21-1.62-.34-2.67-2.23.23-4.47.46-6.82.7-.12.47-.28,1.09-.43,1.7-.13,0-.25-.02-.38-.03-.11-.59-.22-1.17-.42-2.27-.24,1.23-.38,1.96-.52,2.68-.18-.02-.37-.03-.55-.05-.06-.73-.11-1.45-.17-2.21-2.3.51-4.71-1.35-7.06.52-1.24-.61-2.64-1.06-3.76-1.91-.9-.68-2-1.81-2.04-2.78C-.07,11.5.02,5.82.02,0h115.67ZM52.22,91.45c-.06.2-.11.4-.17.6.64.08,1.28.23,1.92.2.16,0,.3-.58.51-1.03-.91.09-1.59.16-2.26.23ZM62.22,90.81c-.13,0-.25,0-.38,0v1.74h.38v-1.74ZM26.87,88.21c.24-.03.47-.06.71-.09-.08-.56-.17-1.13-.25-1.69-.19.02-.38.04-.57.06.04.57.07,1.15.11,1.72ZM63.96,90.88c-.11,0-.21,0-.32,0v1.63c.11,0,.21,0,.32,0v-1.63Z"/>
      <path class="cls-1" d="M73.7,64.82c-.61-.97-1.12-1.78-1.79-2.83-.07.1.12-.17.26-.37-.93-2.79-4.73-3.81-4.08-7.6-1.51-.13-2.8-.24-4.3-.37v-13.69h17.6v24.85h-7.7Z"/>
      <path class="cls-1" d="M66.38,56.83c-.79.48-1.36.82-2.14,1.29-.17-.75-.39-1.71-.68-3.03.69.38,1.01.55,1.44.78.11-.59.21-1.09.3-1.6l.55-.12c.18.93.37,1.86.53,2.68Z"/>
      <path class="cls-1" d="M34.1,95.58c-.54-.9-1.08-1.8-1.87-3.13,1.12-.15,2.18-.34,2.19-.28.24,1.02.36,2.07.51,3.11-.27.1-.55.2-.82.31Z"/>
      <path class="cls-1" d="M53.27,23.85c.04-.67.08-1.34.13-2,.18.01.35.02.53.03v2.02c-.22-.02-.44-.03-.66-.05Z"/>
      <path class="cls-1" d="M64.16,62.25v2.65c-.13,0-.26.01-.38.02v-2.7c.13.01.26.02.38.03Z"/>
      <path class="cls-1" d="M28.41,23.15c-.51.09-1.01.19-1.68.31.03-.48.06-.79.08-1.14.58.19,1.08.36,1.59.53,0,.1.01.2.02.31Z"/>
      <path class="cls-1" d="M19.5,22.29c.02.39.04.79.06,1.18-.17.02-.34.04-.52.06-.06-.42-.11-.83-.17-1.25.21,0,.42,0,.62.01Z"/>
      <path class="cls-1" d="M17.66,23.73c-.28-.34-.51-.49-.51-.65,0-.17.22-.33.34-.5.15.13.39.24.43.4.04.16-.12.37-.27.76Z"/>
      <path class="cls-1" d="M30.41,95.6c.06-.26.11-.52.17-.78.17.19.39.35.51.57.05.11-.09.31-.15.47-.18-.09-.35-.18-.53-.27Z"/>
      <path class="cls-1" d="M29.5,93.15l-.74.39c-.09-.24-.19-.48-.28-.71.3-.04.6-.08.9-.13.04.15.08.3.13.45Z"/>
    </g>
  </g>
</svg>