<?xml version="1.0" encoding="UTF-8"?>
<svg id="_레이어_2" data-name="레이어 2" xmlns="http://www.w3.org/2000/svg" viewBox="0 0 46.07 100">
  <defs>
    <style>
      .cls-1 {
        fill: #fff;
        stroke-width: 0px;
      }
    </style>
  </defs>
  <g id="_레이어_1-2" data-name="레이어 1">
    <path class="cls-1" d="M17.22,49.56c6.98,0,13.4-.07,19.82.04,2.24.04,4.65-.2,4.99,3.36.61,6.49.16,8.73-3.68,9.78-4.95,1.35-10.05,2.18-15.09,3.19-1.64.33-3.3.5-4.99.74v33.33c-5.57-1.25-10.89-2.33-16.12-3.75C1.2,96-.02,94.32,0,93.31c.32-18.7.85-37.39,1.24-56.08.23-10.71.3-21.43.43-32.15C1.73.25,2.01-.27,6.72.09c9.7.74,19.4,1.54,29.04,2.78,3.52.45,6.87,2.2,10.31,3.36-1.63,7.1-5.06,9.7-12.3,9.46-5.31-.18-10.63-.27-15.94-.17-.84.02-2.22,1.19-2.36,2-.38,2.15-.36,4.4-.23,6.59.39,6.56.9,13.11,1.39,19.66.14,1.92.39,3.83.59,5.79Z"/>
  </g>
</svg>