<?xml version="1.0" encoding="UTF-8"?>
<svg id="_레이어_2" data-name="레이어 2" xmlns="http://www.w3.org/2000/svg" viewBox="0 0 84.11 100">
  <defs>
    <style>
      .cls-1 {
        fill: #fff;
        stroke-width: 0px;
      }
    </style>
  </defs>
  <g id="_레이어_1-2" data-name="레이어 1">
    <path class="cls-1" d="M66.8,39.59c.2,4.16.44,8.95.72,14.85-8.51-6.19-17.43-5.87-26.36-5.82-3.41.02-4.69,1.4-4.77,4.65-.27,12.1-.77,24.2-.87,36.3-.02,3,1.15,6,1.88,9.49-1.99.31-4.19.94-6.39.94-8.25.02-16.5-.06-24.74-.3-4.51-.13-6.26-2.54-3.57-5.86,7.26-8.98,5.96-19.38,6.13-29.61.26-15.26.21-30.54.74-45.79.22-6.14-1.56-10.48-7.09-13.34C1.39,4.52.82,2.89,0,1.75,1.3,1.14,2.61,0,3.91,0c25.62-.03,51.24.03,76.86.27,1.11.01,3.12,1.78,3.16,2.79.27,7.33.15,14.68.15,22.1-4.05.84-5.13-.92-5.24-4.42-.31-9.83-.4-9.92-10.44-10.33-8.94-.37-17.89-.42-26.83-.74-3.54-.13-5.01,1.12-4.92,4.87.21,8.71.07,17.43.07,27.24,9.68-.7,19.32-1.41,30.08-2.19Z"/>
  </g>
</svg>