<?xml version="1.0" encoding="UTF-8"?>
<svg id="_레이어_2" data-name="레이어 2" xmlns="http://www.w3.org/2000/svg" viewBox="0 0 54.23 100">
  <defs>
    <style>
      .cls-1 {
        fill: #fff;
        stroke-width: 0px;
      }
    </style>
  </defs>
  <g id="_레이어_1-2" data-name="레이어 1">
    <path class="cls-1" d="M54.23,20.42c-2.14,0-4.06-.04-5.98.02-.99.03-1.57-.34-2.15-1.15-1.31-1.84-2.51-3.89-4.23-5.27-3.35-2.69-7.32-2.78-11.32-1.53-1.4.44-2.04,1.36-2.03,2.95.07,6.56,0,13.12.03,19.69.01,2.16,1.47,3.59,3.67,3.6,3.41.02,6.82-.1,10.24-.16,3.05-.05,2.64-.33,2.59,2.48-.11,6.08-.22,12.16-.34,18.24,0,.47-.06.94-.09,1.46h-1.28c-.32-1.92-.68-3.8-.94-5.7-.13-.95-.6-1.61-1.47-1.79-3.17-.66-6.36-1.35-9.59-.53-2.34.59-3.1,1.49-3.14,3.88-.11,7.66-.12,15.31-.16,22.97,0,1.71-.02,3.41-.02,5.12,0,3.27,1.81,5.89,5.03,6.63,1.92.44,3.97.34,5.96.42.82.03,1.65-.13,2.57-.21v8.23c-.86,0-1.59,0-2.32,0-12.47.06-24.95.11-37.42.23-1.35.01-1.88-.34-1.83-1.72.08-1.99.02-3.99.02-6.1,1.69,0,3.35.09,4.99-.02,4.47-.28,7.82-3.64,7.84-8.11.04-11.64-.05-23.28-.07-34.92-.02-8.23.02-16.45-.03-24.68-.02-3.38-.32-6.73-1.6-9.91-1.78-4.41-5.28-6.52-10.02-6.01-.34.04-.69.04-1.15.07V.28c18.08-.4,36.15.75,54.23-.28v20.42Z"/>
  </g>
</svg>