<?xml version="1.0" encoding="UTF-8"?>
<svg id="_레이어_2" data-name="레이어 2" xmlns="http://www.w3.org/2000/svg" viewBox="0 0 48.46 100">
  <defs>
    <style>
      .cls-1 {
        fill: #fff;
        stroke-width: 0px;
      }
    </style>
  </defs>
  <g id="_레이어_1-2" data-name="레이어 1">
    <path class="cls-1" d="M27.96,48.5v14.5c-3.3.26-6.42.51-10.24.82,0,7.28-.02,14.52,0,21.77q.04,14.71-14.67,14.3c-.56-.02-1.11-.14-2.36-.31-.15-1.66-.44-3.44-.45-5.22C.17,64.63.2,34.9,0,5.17-.03,1.19,1.27-.05,5.16,0c12.8.18,25.6.17,38.4,0,3.63-.05,5.02,1.09,4.9,4.83-.43,13.48,1.2,11.13-10.92,11.38-4.7.1-9.42.22-14.11-.05-4.05-.23-5.8.98-5.62,5.34.27,6.76.28,13.57-.14,20.32-.32,5,1.42,7,6.37,6.34,1.07-.14,2.2.17,3.93.33Z"/>
  </g>
</svg>