<?xml version="1.0" encoding="UTF-8"?>
<svg id="_레이어_2" data-name="레이어 2" xmlns="http://www.w3.org/2000/svg" viewBox="0 0 82.11 100">
  <defs>
    <style>
      .cls-1 {
        fill: #fff;
        stroke-width: 0px;
      }
    </style>
  </defs>
  <g id="_레이어_1-2" data-name="레이어 1">
    <g>
      <path class="cls-1" d="M68.29.95c-1.11,4.06-6.23,6.65-4.95,12.07,1.39.22,2.91.45,4.85.75-.63.78-1.08,1.29-1.47,1.84-1.53,2.18-5.4-.08-6.18,2.96-.66,2.57-.7,5.34-.71,8.02-.07,10.81-.09,21.63,0,32.44.03,3.31-1,5.88-4.3,8.75-1.4-8.3-.54-15.62-.7-22.88-.16-7.47-.04-14.95-.04-22.81H19.81c0,1.32-.12,2.66.02,3.97.54,5.17-.99,10.09-1.58,15.13-.49,4.14,1.01,5.69,4.99,5.41,5.1-.36,10.39,1.59,15.3-1.15,2.5,1.68,4.98,1.69,7.76-.29.49,2.93-.6,6.17,2.57,8.23,2.49,1.61-.67,5.55,2.4,7.27-.89.89-1.65,2.26-2.71,2.57-1.54.44-3.29.11-4.96.11h-23.79c0,9.29-.06,18.37.07,27.44.02,1.16,1.21,2.26,1.56,3.48.82,2.91-1,5.6-4.02,5.68-5.75.14-11.52.04-17.43.04V3.38c5.73,0,11.49-.36,17.2.09,7.13.57,13.95-1.45,20.94-1.7,6.92-.25,13.86.03,20.79-.09,3.01-.05,5.72-3.21,9.35-.72Z"/>
      <path class="cls-1" d="M37.5,41.35c1.94-4.19,4.43-6.69,8.07-8.36.78,5.14.47,5.98-2.69,7.01-1.53.49-3.12.79-5.38,1.35Z"/>
      <path class="cls-1" d="M70.03,12.06c2.03-.29,4.08-.51,6.1-.91,1.66-.33,3.28-.87,5.99-1.62-4.14,4.37-8.03,4.18-12.09,2.53Z"/>
      <path class="cls-1" d="M45.39,78.56c.35.19.71.39,1.07.59-.19.18-.41.55-.55.52-.39-.09-.75-.34-1.12-.52.19-.18.37-.37.59-.59Z"/>
    </g>
  </g>
</svg>