<?xml version="1.0" encoding="UTF-8"?>
<svg id="_레이어_2" data-name="레이어 2" xmlns="http://www.w3.org/2000/svg" viewBox="0 0 74.48 100">
  <defs>
    <style>
      .cls-1 {
        fill: #fff;
        stroke-width: 0px;
      }
    </style>
  </defs>
  <g id="_레이어_1-2" data-name="레이어 1">
    <g>
      <path class="cls-1" d="M74.47,0H0c.13,3.7.25,7.29.37,10.8,1.9.14,3.56.21,5.21.39,2.62.28,5.21.75,7.59,1.99,1.24.65,1.93,1.65,2.07,3.02.09.89.19,1.78.2,2.67.09,7.1.19,14.2.21,21.3.05,12.73.05,25.46.08,38.18,0,1.69,0,3.39,0,5.16h-4.71c.19.99.36,1.91.48,2.53.49.58.87,1.02,1.37,1.61.49-.04,1.93,1.11,2.22,2.05.49,1.62-1.01,4.29-3.09,5.6.14.42.33.81.38,1.21.16,1.25-.3,2.27-1.21,2.9,2.15.02,4.29-.01,6.44.07,1.4.05,2.8.16,4.2.29.7.06,1.4.13,2.1.21.09,0,.19.02.28.03h20.11c.5-1.12.94-2.1,1.44-3.2-1.19-.6-2.65-1.16-3.9-2.02-.91-.62-1.8-1.52-2.25-2.49-.45-.96-.45-2.19-.47-3.3-.06-4.1-.03-8.2-.05-12.3-.03-4.54-.1-9.08-.12-13.61-.02-4.02,0-8.05,0-12.37h28.85c-1.53-4.44-1.32-8.71-1.19-12.97.02-.66.21-1.46.61-1.94,1.39-1.65.8-3.47.83-5.12h-29.35c.12-3.32.23-6.49.35-9.67.09-2.43.19-4.87.27-7.3.02-.74.35-.96,1.1-.96,3.84.04,7.69-.11,11.52.08,1.77.09,3.69.45,5.23,1.27,2.26,1.21,4.25,2.93,6.33,4.46,1.11.82,2.73,1.14,3.67.37,1.37-1.12,2.67-2.35,3.89-3.65.97-1.03,1.82-2.19,2.62-3.36.3-.44.43-1.07.46-1.63.15-2.78.25-5.57.35-8.35.02-.64,0-1.28,0-1.96ZM15.19,6.5c-.83-.12-1.59-.09-2.12.77-.18.29-.62.43-.94.63-.1-.1-.19-.21-.29-.31.15-.37.33-.73.45-1.11.25-.82,1.06-1.34,1.1-2.3,0-.26.57-.63.91-.69.25-.04.71.27.85.54.43.8.75,1.66,1.22,2.74-.56-.13-.87-.24-1.19-.28ZM26.13,6.89c-.16.87-1.29.97-3.88.6.07-1.44.15-2.81.22-4.17,1.34-.39,2.65-.45,3.31.62.48.78.53,2,.36,2.94ZM35.01,6.43c-.1.98-1,.94-1.73.88-.43-.03-.84-.22-1.26-.33.02-.12.04-.23.05-.35.6-.05,1.2-.11,1.79-.16.02-.09.03-.19.05-.28-.41-.13-.81-.32-1.22-.38-.65-.1-1.33-.22-1.26-1.03.07-.78.65-1.22,1.45-1.16.44.03.87.21,1.3.33-.02.13-.04.25-.06.38l-1.56.25c0,.09,0,.18-.01.28.36.1.73.2,1.09.29.71.17,1.45.49,1.36,1.31ZM43.8,6.75c-.12.32-.81.58-1.24.57-.59-.01-1.42.15-1.71-.99h2.25c0-.14.01-.28.02-.41-.44-.07-.91-.05-1.3-.23-.42-.19-.95-.49-1.1-.87-.27-.69.31-1.03.91-1.19.6-.16,1.24-.37,1.66.55-.55.1-1.01.18-1.63.3.77.86,2.82.43,2.13,2.27ZM51.59,8.78l-.41.03c-.88-1.55-1.76-3.11-2.67-4.71.77-.06.78-.06,1.56,1.17.39.62.76,1.25,1.29,2.14.53-1.18.92-2.19,1.43-3.15.2-.38.65-.63.99-.94.14.11.28.22.41.33-.87,1.71-1.74,3.41-2.61,5.12Z"/>
      <path class="cls-1" d="M23.62,5.45c.49.29.98.59,1.47.88-.36.14-.75.43-1.07.38-.31-.05-.55-.48-.82-.74.14-.17.28-.35.43-.52Z"/>
      <path class="cls-1" d="M25.04,4.75c-.25.01-.48.09-.67.02-.35-.13-.68-.34-1.02-.51.19-.13.38-.37.57-.37.51,0,1.21-.13,1.12.86Z"/>
    </g>
  </g>
</svg>