<?xml version="1.0" encoding="UTF-8"?>
<svg id="_레이어_2" data-name="레이어 2" xmlns="http://www.w3.org/2000/svg" viewBox="0 0 73.34 100">
  <defs>
    <style>
      .cls-1 {
        fill: #fff;
        stroke-width: 0px;
      }
    </style>
  </defs>
  <g id="_레이어_1-2" data-name="레이어 1">
    <path class="cls-1" d="M73.34.02v38.16c-1.68-1.43-3.53-2.29-4.23-3.72-1.49-3.06-3.02-6.34-3.41-9.67-.99-8.52-.75-8.56-9.28-8.43-3.78.06-7.57.1-11.34.28-3.02.14-5.05,1.73-5.9,4.67-.66,2.29-1.29,4.59-1.85,6.91-.41,1.71.37,2.89,2.02,3.35,1.24.35,2.54.66,3.83.7,4.71.15,9.42.18,14.13.26.06,0,.11.09.6.53,0,1.9-.06,4.2.01,6.49.21,7.1.65,14.2.61,21.3-.02,3.21-.97,6.41-1.5,9.61-.3-.04-.61-.07-.91-.11,0-.45.01-.9,0-1.35-.1-3.68.04-7.39-.38-11.03-.35-3.06-1.58-3.83-4.74-3.76-3.78.09-7.55.33-11.33.47-2.06.08-2.74,1.13-2.7,3.15.17,8.65.23,17.3.33,25.95.04,3.86.61,4.45,4.4,4.61.61.03,1.22.07,2.19.12v11.48H8.42v-11.83c1.25,0,2.29.02,3.34,0,3.2-.08,3.28-.15,3.28-3.26,0-10.35-.05-20.7-.04-31.05,0-13.29.05-26.57.08-39.86,0-3.18.02-3.18-3.07-3.18-3.85,0-7.7,0-12.01,0C.22,7.38.34,4.18.71,1,.76.58,2.09,0,2.82,0c8.5-.02,16.99.1,25.49.1,14.14,0,28.27-.05,42.41-.08.77,0,1.53,0,2.62,0Z"/>
  </g>
</svg>