<?xml version="1.0" encoding="UTF-8"?>
<svg id="_레이어_2" data-name="레이어 2" xmlns="http://www.w3.org/2000/svg" viewBox="0 0 59.29 100">
  <defs>
    <style>
      .cls-1 {
        fill: #fff;
        stroke-width: 0px;
      }
    </style>
  </defs>
  <g id="_레이어_1-2" data-name="레이어 1">
    <path class="cls-1" d="M0,.02C18.04.02,35.75.05,53.46,0c4.06-.01,6.21,1.4,5.78,5.87-.29,3.05-.06,6.16-.06,9.7-12.52,0-24.67-.11-36.81.14-1.59.03-4.41,1.84-4.49,2.97-.45,6.38-.32,12.81-.2,19.22.07,3.92,2.32,5.01,6.16,4.92,10.48-.26,20.96-.09,31.29-.09.45,1.08.79,1.58.86,2.12,1.53,12.68,1.24,13.01-11.59,13.01-7.01,0-14.03.17-21.03-.16-4.54-.21-6.3,1.3-6.21,5.94.21,11.87.07,23.74.07,35.51-.46.34-.79.78-1.08.76-4.97-.31-11.54,1.07-14.43-1.57-2.53-2.3-1.09-9.14-1.11-13.98-.11-25.52-.12-51.04-.2-76.56C.39,5.29.15,2.78,0,.02Z"/>
  </g>
</svg>