<?xml version="1.0" encoding="UTF-8"?>
<svg id="_레이어_2" data-name="레이어 2" xmlns="http://www.w3.org/2000/svg" viewBox="0 0 45.6 100">
  <defs>
    <style>
      .cls-1 {
        fill: #fff;
        stroke-width: 0px;
      }
    </style>
  </defs>
  <g id="_레이어_1-2" data-name="레이어 1">
    <g>
      <path class="cls-1" d="M16.92,34.76c5.23,0,9.87.14,14.49-.05,2.62-.11,3.5.8,3.39,3.38-.16,4.05-.04,8.11-.04,12.52h-18.3c0,4.34-.03,8.34,0,12.34.11,10.86.19,21.72.42,32.57.07,3.15-.75,4.93-4.28,4.39-.97-.15-1.97-.02-2.96-.02q-9.63,0-9.63-9.42c0-22.86-.03-45.72.03-68.58.01-5.08.85-9.89,3.53-14.5C7.42.75,13.7.34,20.03.14c8.15-.26,16.32-.06,25.54-.06,0,4.68.09,8.83-.04,12.98-.07,2.2-1.4,3.01-3.68,2.95-5.64-.15-11.29-.1-16.93-.05-5.38.05-7.69,2.22-7.96,7.62-.18,3.49-.03,7.01-.03,11.19Z"/>
      <path class="cls-1" d="M43.37,38.08v10.66c-.62.15-1.25.3-1.87.44-.79-2.11-2.27-4.25-2.16-6.31.1-1.91,1.9-3.73,2.95-5.59.36.26.73.53,1.09.79Z"/>
    </g>
  </g>
</svg>