<?xml version="1.0" encoding="UTF-8"?>
<svg id="_레이어_2" data-name="레이어 2" xmlns="http://www.w3.org/2000/svg" viewBox="0 0 67.47 89.1">
  <defs>
    <style>
      .cls-1 {
        fill: #fff;
        stroke-width: 0px;
      }
    </style>
  </defs>
  <g id="_레이어_1-2" data-name="레이어 1">
    <path class="cls-1" d="M.69,1.75c3.42-.27,6.21-.62,8.99-.68C27,.72,44.31.63,61.61,0c4.87-.18,5.58,2.31,5.83,5.91.29,4.09-2.63,3.98-5.37,3.98-15.48.02-30.96,0-46.85,0v25.72c3.02,0,6.11.11,9.19-.02,9.48-.41,18.95-.94,28.43-1.34,2.15-.09,4.96-1.18,5.42,2.49.47,3.77-2.11,7.97-5.27,8.15-7.48.42-14.96.59-22.45.92-4.8.21-9.59.54-14.42.82,0,8.72-.01,16.97.01,25.22,0,1.16.22,2.32.28,3.48.73,13.06-.17,14.09-13.37,13.67-1.11-.04-3.01-2.34-3.06-3.64-.15-4.47.56-8.95.58-13.44.1-21.48.07-42.97.09-64.45,0-1.64,0-3.29,0-5.76Z"/>
  </g>
</svg>