<?xml version="1.0" encoding="UTF-8"?>
<svg id="_레이어_2" data-name="레이어 2" xmlns="http://www.w3.org/2000/svg" viewBox="0 0 97.97 100">
  <defs>
    <style>
      .cls-1 {
        fill: #fff;
        stroke-width: 0px;
      }
    </style>
  </defs>
  <g id="_레이어_1-2" data-name="레이어 1">
    <path class="cls-1" d="M94.7,0c.19,7.27.37,14.54.57,21.81.38,14.34.69,28.68,1.22,43.01.13,3.46.97,6.9,1.49,10.35-.29.15-.58.3-.87.45-.36-.59-.9-1.13-1.04-1.76-1.41-6.59-2.22-13.36-4.25-19.74-3.08-9.64-9.96-15.16-20.33-15.85-1.7-.11-3.39-.34-5.78-.59.71,16.84-2.05,33.63,1.89,50.04,3.43,3.35,5.69,4.3,16.51,7.05v4.05c-27.97,1.9-55.86.82-83.79,1.19-.15-1.33-.27-2.02-.29-2.71-.04-1.2,0-2.4,0-4.02,2.02-.32,3.86-.72,5.72-.9,9.1-.85,14.91-5.25,17.15-14.13,1.47-5.84,2.55-11.92,2.68-17.92.36-16.16.08-32.34.13-48.51C25.69,7.87,25.98,3.93,26.14,0c13.15,0,26.29,0,39.44,0v27.58c4.87,0,9.48.03,14.09,0,4.2-.03,7.06-2.21,7.86-6.2C88.95,14.3,89.91,7.13,91.06,0c1.21,0,2.43,0,3.64,0Z"/>
  </g>
</svg>