<?xml version="1.0" encoding="UTF-8"?>
<svg id="_레이어_2" data-name="레이어 2" xmlns="http://www.w3.org/2000/svg" viewBox="0 0 49.01 100">
  <defs>
    <style>
      .cls-1 {
        fill: #fff;
        stroke-width: 0px;
      }
    </style>
  </defs>
  <g id="_레이어_1-2" data-name="레이어 1">
    <g>
      <path class="cls-1" d="M4.31,0c7.09,2.57,14,5.06,21.48,7.77-1.18,13.82-2.66,29.14-3.71,44.49-.57,8.42-1.33,17-.25,25.28.73,5.6,4.38,10.87,7.11,16.09.38.72,3.83.95,4.43.23,2.02-2.45,4.04-5.25,4.85-8.24,1.04-3.84.77-8.02,1.32-12.01.41-2.96,1.23-5.84,4.32-.47,1.54-2.84,2.73-5.05,4.55-8.43,1.65,12.36.02,22.73-6.45,32.03-1.09,1.57-3.41,3.33-5.1,3.27-7.48-.29-15.14-.38-22.36-2.11-8.42-2.01-9.03-9.86-8.65-16.74.96-17.72,2.49-35.42,4.02-53.11.36-4.13,1.62-8.18,2.47-12.29-6.72-1.08-7.87,1.13-9.12,16.35-4.22,1.23-3.19-1.58-2.88-3.78C1.66,18.83,3,9.33,4.31,0Z"/>
      <path class="cls-1" d="M46.04,31.22c-1.84-3.21-1.96-6.47,1.59-11.04v10.85c-.53.06-1.06.13-1.59.19Z"/>
    </g>
  </g>
</svg>