<?xml version="1.0" encoding="UTF-8"?>
<svg id="_레이어_2" data-name="레이어 2" xmlns="http://www.w3.org/2000/svg" viewBox="0 0 125.95 100">
  <defs>
    <style>
      .cls-1 {
        fill: #fff;
        stroke-width: 0px;
      }
    </style>
  </defs>
  <g id="_레이어_1-2" data-name="레이어 1">
    <path class="cls-1" d="M46.21,0c-3.73,15.5-4.7,31.09-1.48,46.82,2.23,10.9,6.39,20.76,13.88,29.22,12.24,13.82,28.98,12.76,41.68,2.93,8.07-6.25,13.34-14.52,17.37-23.67,2.06-4.69,3.72-9.57,5.67-14.31.27-.64,1.21-1.01,1.84-1.5.26.19.52.37.78.56-.31,1.52-.53,3.07-.96,4.55-1.93,6.58-3.54,13.28-5.98,19.66-3.21,8.4-8.94,14.82-16.4,20.1-7.87,5.57-15.77,10.79-25.09,13.57-8,2.39-15.99,2.74-24.19.9-13.75-3.1-23.39-11.81-32.08-22.25-7.05-8.45-12.23-17.92-16.15-28.04C2.24,41.14.02,33.43,0,25.33-.01,16.89.03,8.44.05,0h46.16Z"/>
  </g>
</svg>