<?xml version="1.0" encoding="UTF-8"?>
<svg id="_레이어_2" data-name="레이어 2" xmlns="http://www.w3.org/2000/svg" viewBox="0 0 150.19 100">
  <defs>
    <style>
      .cls-1 {
        fill: #fff;
        stroke-width: 0px;
      }
    </style>
  </defs>
  <g id="_레이어_1-2" data-name="레이어 1">
    <path class="cls-1" d="M73.29,0c-1.22,4.97-3.08,9.89-3.51,14.93-.77,9.14-.75,18.35,1.59,27.37,1.36,5.23,2.45,10.54,4,15.72.65,2.16,2.12,4.11,3.36,6.06,6.76,10.67,15.21,19.65,26.94,24.78,10.24,4.48,21.18,4.73,32.09,3.34,3.27-.42,6.38-2.07,9.56-3.17.83-.29,1.65-.61,2.85-1.05v11.99c-7.35,0-14.44.07-21.53-.03-4.28-.06-8.55-.42-12.84-.56-8.46-.27-17.09.48-25.35-.95-10.83-1.87-21.4-4.99-30.53-12.07-7.77-6.02-14.77-12.69-20.25-20.69-5.92-8.64-11.02-17.85-16.38-26.87-3.55-5.98-6.82-12.13-10.41-18.09C8.71,13.75,4.31,6.9,0,0c24.43,0,48.86,0,73.29,0Z"/>
  </g>
</svg>