<?xml version="1.0" encoding="UTF-8"?>
<svg id="_레이어_2" data-name="레이어 2" xmlns="http://www.w3.org/2000/svg" viewBox="0 0 49.14 100">
  <defs>
    <style>
      .cls-1 {
        fill: #fff;
        stroke-width: 0px;
      }
    </style>
  </defs>
  <g id="_레이어_1-2" data-name="레이어 1">
    <path class="cls-1" d="M49.04,99.08c-11.08.98-22.36,2.31-33-2.87C6.2,91.43.49,83.29.27,72.41-.17,50.61.07,28.8.02,7c0-2.36,0-4.73,0-7h27.16c.27,4.39.76,8.35.73,12.31-.16,17.56-.55,35.12-.66,52.67-.02,3.33.5,6.78,1.44,9.98,1.9,6.45,7.03,9.64,13.76,9.12.75-.06,1.5-.12,2.24-.24,3.08-.51,4.71.28,4.41,3.9-.3,3.58-.07,7.21-.07,11.35Z"/>
  </g>
</svg>