<?xml version="1.0" encoding="UTF-8"?>
<svg id="_레이어_2" data-name="레이어 2" xmlns="http://www.w3.org/2000/svg" viewBox="0 0 97.69 100">
  <defs>
    <style>
      .cls-1 {
        fill: #fff;
        stroke-width: 0px;
      }
    </style>
  </defs>
  <g id="_레이어_1-2" data-name="레이어 1">
    <path class="cls-1" d="M55.91,2.79c0,17.43.02,34.87-.02,52.32,0,4.03-2.89,4.46-5.91,4.16-2.07-.21-4.09-.93-6.12-1.41-2.37,4.31-.91,6.41,3.09,7.34,11.62,2.7,20.01-2.87,21.9-14.83.77-4.88.93-9.86,1.48-16.01,6.72,1.37,13.36,2.25,19.64,4.26,2.2.7,4.2,3.9,5.13,6.4,6.5,17.45,1.65,45.05-24.39,51.97-14.43,3.83-28.97,4.86-43.4-1.88C12.09,87.98,2.03,76.64.8,60.26-.7,40.44.37,20.42.36.49c0-.3.36-.59.27-.46,18.53.93,36.8,1.84,55.28,2.76Z"/>
  </g>
</svg>