<?xml version="1.0" encoding="UTF-8"?>
<svg id="_레이어_2" data-name="레이어 2" xmlns="http://www.w3.org/2000/svg" viewBox="0 0 90.28 100">
  <defs>
    <style>
      .cls-1 {
        fill: #fff;
        stroke-width: 0px;
      }
    </style>
  </defs>
  <g id="_레이어_1-2" data-name="레이어 1">
    <path class="cls-1" d="M0,37.4h21.52c0,1.65-.04,3.37,0,5.1.29,10.22.32,20.46,1.04,30.66.38,5.43,3.67,7.91,9.12,7.82,7.57-.11,15.15-.29,22.7-.85,10.44-.77,16.02-6.02,16.49-17.12.88-20.76.94-41.55,1.35-63.01,5.15.28,11.05.59,17.33.93.25,3.06.67,5.96.68,8.87.05,20.54.1,41.08-.05,61.62-.03,3.94-.49,7.97-1.46,11.79-2.76,10.94-7.78,15.54-19.01,16.13-12.93.67-25.93.89-38.87.42-13.2-.48-19.92-6.63-23.03-19.63-2.57-10.71-5.04-21.45-7.26-32.23-.68-3.33-.39-6.85-.55-10.49Z"/>
  </g>
</svg>