<?xml version="1.0" encoding="UTF-8"?>
<svg id="_레이어_2" data-name="레이어 2" xmlns="http://www.w3.org/2000/svg" viewBox="0 0 62.99 100">
  <defs>
    <style>
      .cls-1 {
        fill: #fff;
        stroke-width: 0px;
      }
    </style>
  </defs>
  <g id="_레이어_1-2" data-name="레이어 1">
    <path class="cls-1" d="M37.78,1.03c8.72-.37,16.35-.7,24-1.03.38,6.93.96,13.59,1.06,20.26.17,10.83.25,21.67-.05,32.49-.24,8.61-.83,17.23-1.76,25.79-.65,5.96-4.44,10.44-9.05,13.93-6.06,4.59-12.88,7.48-20.68,7.53-10.55.07-21.04-.22-31.3-5.07.85-1.91,1.67-3.89,2.6-5.82,2.69-5.57,5.56-11.07,8.08-16.72.93-2.09,1.73-2.32,3.73-1.43,4.29,1.91,8.71,3.54,13.1,5.25.48.19,1.03.2,1.55.24,4.19.35,5.21-.19,6.16-4.24.85-3.66,1.66-7.42,1.8-11.16.43-11.46.6-22.93.75-34.39.11-8.5.02-17.01.02-25.63Z"/>
  </g>
</svg>