<?xml version="1.0" encoding="UTF-8"?>
<svg id="_레이어_2" data-name="레이어 2" xmlns="http://www.w3.org/2000/svg" viewBox="0 0 71.4 100">
  <defs>
    <style>
      .cls-1 {
        fill: #fff;
        stroke-width: 0px;
      }
    </style>
  </defs>
  <g id="_레이어_1-2" data-name="레이어 1">
    <path class="cls-1" d="M27.14,65.11c.08.83.12,1.86.28,2.88,1.09,7.07,2.4,8.06,9.49,7.22,2.91-.34,4.88-3.44,3.25-5.85-2.81-4.18-2.84-8.89-2.88-13.45-.11-11.2.32-22.4.44-33.61.08-7.15.02-14.3.02-22.07,3.49,0,7.08.02,10.67,0,6.31-.05,12.62-.06,18.92-.22,2.27-.06,3.42.51,3.44,3.07.16,21.01.51,42.02.62,63.04.11,19.82-16.14,33.95-37.71,33.89-8.91-.03-17.34-1.7-25.3-5.88C1.87,90.69-.79,85.93.2,78.69c.48-3.46.95-6.92,1.28-10.4.2-2.05.92-3.22,3.19-3.2,7.34.05,14.68.02,22.47.02Z"/>
  </g>
</svg>