<?xml version="1.0" encoding="UTF-8"?>
<svg id="_레이어_2" data-name="레이어 2" xmlns="http://www.w3.org/2000/svg" viewBox="0 0 99.68 100">
  <defs>
    <style>
      .cls-1 {
        fill: #fff;
        stroke-width: 0px;
      }
    </style>
  </defs>
  <g id="_레이어_1-2" data-name="레이어 1">
    <path class="cls-1" d="M.13,28.03h23.77c0,4.29-.06,8.36.02,12.42.08,3.86.03,7.76.54,11.57,1.3,9.85,6.98,15.36,16.87,15.31,4.87-.03,10.16-1.16,14.5-3.32,5.71-2.84,7.62-8.55,7.62-14.99,0-15.35.29-30.7.46-46.04,0-.69.06-1.39.11-2.48,4.53,0,8.85.06,13.17-.01,5.8-.1,11.6-.28,17.39-.47,2.18-.07,3.4.14,3.5,3.07.34,10.37,1.59,20.73,1.6,31.09,0,9.76-.79,19.55-1.84,29.26-1.5,13.91-10.22,23.07-21.85,29.31-12.64,6.78-26.92,8.98-40.54,5.89-17.15-3.9-29.21-13.28-31.89-31.05C1.71,55.2,1.14,42.63.02,30.15c-.06-.69.07-1.4.12-2.12Z"/>
  </g>
</svg>