<?xml version="1.0" encoding="UTF-8"?>
<svg id="_레이어_2" data-name="레이어 2" xmlns="http://www.w3.org/2000/svg" viewBox="0 0 131.16 100">
  <defs>
    <style>
      .cls-1 {
        fill: #fff;
        stroke-width: 0px;
      }
    </style>
  </defs>
  <g id="_레이어_1-2" data-name="레이어 1">
    <g>
      <path class="cls-1" d="M46.5,66.18c5.26-4.97,7.38-11.03,7.08-18.28-.33-8.05-.41-16.15.03-24.19.38-6.9-1.9-11.31-8.81-12.63V.08c9.85,0,19.34-.23,28.81.1,4.28.15,7.2,2.63,7.19,7.48-.02,18.15.88,36.36-.38,54.43-.63,9.07-3.86,18.33-8.77,26.48-1.23,2.04-2.79,4.43-4.8,5.32-4.79,2.14-9.7,3.81-15.33,3.37-4.68-.37-8.67,5.96-14.58.55-2.57-2.35-9.14.23-12.73-1.65-7.13-3.73-13.95-8.43-19.95-13.79-5.55-4.96-5.5-15.51-.73-21.47,1.32-1.65,4-2.35,6.17-3.18,4.27-1.64,7.64,1.16,10.76,3.1,8.12,5.05,16.52,7.68,26.06,5.38Z"/>
      <path class="cls-1" d="M90.56,15.26c13.44,6.36,21.17,17.14,27.22,29.41,4.32,8.75,10.49,16.61,11.93,26.78.27,1.89,2.98,2.99.21,5.46-3.15,2.8-6.32,3.07-9.24.78-3.53-2.78-6.79-6.04-9.61-9.54-6.93-8.61-13.45-17.55-20.32-26.21-4.68-5.9-4.2-12.78-3.73-19.48.18-2.58,2.41-5.01,3.54-7.19Z"/>
    </g>
  </g>
</svg>