<?xml version="1.0" encoding="UTF-8"?>
<svg id="_레이어_2" data-name="레이어 2" xmlns="http://www.w3.org/2000/svg" viewBox="0 0 50.08 100">
  <defs>
    <style>
      .cls-1 {
        fill: #fff;
        stroke-width: 0px;
      }
    </style>
  </defs>
  <g id="_레이어_1-2" data-name="레이어 1">
    <path class="cls-1" d="M.05,92.45c3.71,0,7.44.2,11.13-.05,4.09-.28,8.58-.04,12.14-1.67,6.34-2.92,12.73-6.34,16.01-13.23,2.57-5.4,4.75-10.73,4.65-17.03-.3-18.15-.1-36.31-.12-54.46,0-2.51-.18-5.02,2.91-6,3.32.66,3.19,3.16,3.18,5.73-.04,16.14-.31,32.28.12,48.41.17,6.49-.89,12.84-1.98,18.99-1.39,7.83-5.87,14.89-12.98,19.23-4.54,2.77-8.69,6.99-14.8,6.23-2.13,2.67-4,.93-6.39.11-3.35-1.15-7.1-1.09-10.66-1.71-2.06-.36-3.55-1.46-3.22-4.51Z"/>
  </g>
</svg>