<?xml version="1.0" encoding="UTF-8"?>
<svg id="_레이어_2" data-name="레이어 2" xmlns="http://www.w3.org/2000/svg" viewBox="0 0 59.08 100">
  <defs>
    <style>
      .cls-1 {
        fill: #fff;
        stroke-width: 0px;
      }
    </style>
  </defs>
  <g id="_레이어_1-2" data-name="레이어 1">
    <path class="cls-1" d="M42.91,4.7h-7.74c-.38-3.26,1.27-4.56,3.86-4.62,6.33-.14,12.67-.05,19.56-.05.09,1.97.24,3.98.25,5.98.02,11.88-.44,23.78.14,35.63.56,11.24-1.64,22.24-2.05,33.39-.2,5.56-2.53,11.32-7.14,16.01-6.42,6.53-13.61,9.53-22.55,8.87-1.69-.12-9.92-2.85-11.06-3.87-5.22-4.64-10.4-9.33-16.18-14.53,1.28-.34,2.53-.68,3.79-1.01-.25-.6-.51-1.2-.76-1.8,2.41,1.7,4.9,3.31,7.22,5.13,3.21,2.52,6.12,5.46,9.48,7.76,7.95,5.47,19.27-.42,21.67-9.93.67-2.65,1.28-5.34,1.55-8.05.26-2.61.06-5.27.06-7.91,0-19.8,0-39.6,0-59.39,0-.26-.03-.52-.09-1.61Z"/>
  </g>
</svg>