<?xml version="1.0" encoding="UTF-8"?>
<svg id="_레이어_2" data-name="레이어 2" xmlns="http://www.w3.org/2000/svg" viewBox="0 0 54.01 100">
  <defs>
    <style>
      .cls-1 {
        fill: #fff;
        stroke-width: 0px;
      }
    </style>
  </defs>
  <g id="_레이어_1-2" data-name="레이어 1">
    <path class="cls-1" d="M39.75,0h14.17v3.27c0,21.55-.05,43.1.09,64.64.01,2.08-.71,3.85-1.1,5.73-.69,3.28-1.56,6.57-2.83,9.67-1.66,4.05-5.99,8.33-10.17,11.1-4.02,2.66-8.46,3.79-13.11,4.89-3.89.92-7.65.53-11.45.7-1.58.07-3.19-.58-4.8-.88-1.45-.27-3,.51-4.42-.85-.57-.55-2.11-.06-3.21-.1-2.03-.08-2.7-.76-2.86-2.69-.23-2.92.17-5.73,1.32-8.64,3.19,0,6.63-.62,9.71.17,3.09.79,6.06.64,9.09.75,3.66.13,7.05-1.03,10.12-2.86,2.36-1.41,4.38-3.3,5.68-5.85.87-1.69,2.29-3.21,2.72-4.99.68-2.77.99-5.69,1-8.55.08-21.71.04-43.41.04-65.51Z"/>
  </g>
</svg>