<?xml version="1.0" encoding="UTF-8"?>
<svg id="_레이어_2" data-name="레이어 2" xmlns="http://www.w3.org/2000/svg" viewBox="0 0 144.59 100">
  <defs>
    <style>
      .cls-1 {
        fill: #fff;
        stroke-width: 0px;
      }
    </style>
  </defs>
  <g id="_레이어_1-2" data-name="레이어 1">
    <path class="cls-1" d="M60.35,90.39c-11.18,7.25-23.1,8.04-35.37,3.94-12.78-4.27-20.46-13.42-23.27-26.48-2.55-11.88-2.25-23.79.86-35.58.36-1.36.92-2.68,1.5-3.96,1.41-3.12,2.52-6.46,4.4-9.27C15.2,8.98,24.46,2.46,36.71,1.49c16.54-1.3,30.09,6.3,36.37,22.18,3.07,7.75,5.8,15.66,6.73,23.94.83,7.34,1.03,14.83-1.05,22.07-.8,2.79-2.24,5.39-3.48,8.28,2.27.64,4.94,1.46,7.65,2.15,7.79,1.99,15.69,3.21,23.75,3.15,4.62-.04,9.14-.79,13.12-3.28,6.34-3.97,9.63-9.94,9.9-17.26.66-17.96,1.05-35.93,1.47-53.9.07-2.89-.3-5.79-.47-8.81h13.76c.05.59.14,1.12.14,1.64-.12,16.37-.08,32.75-.44,49.12-.18,8.31-.53,16.66-2.85,24.76-1.44,5.02-3.76,9.55-7.52,13.18-6.93,6.69-15.29,10.05-24.87,10.98-14.02,1.36-27.19-1.97-40.21-6.5-2.73-.95-5.47-1.84-8.34-2.81ZM66.72,73.37c2.14-2.55,3.63-5.64,4.42-9.43,1.62-7.77,1.64-15.57.24-23.37-.93-5.17-2.91-9.93-6.14-14.11-5.6-7.24-13.24-10.24-22.13-10.45-11.44-.26-21.16,6.69-24.87,17.96-1.26,3.82-1.75,7.91-2.36,11.91-1.25,8.14.35,15.85,4.08,23.11,2.83,5.51,6.79,10.1,13.06,11.47,3.97.86,8.19.63,12.3.79,1.05.04,2.12-.27,3.57-.48-5.88-5.79-11.62-11.16-15.45-18.72,11.42,3.89,22.35,7.6,33.28,11.32Z"/>
  </g>
</svg>