<?xml version="1.0" encoding="UTF-8"?>
<svg id="_레이어_2" data-name="레이어 2" xmlns="http://www.w3.org/2000/svg" viewBox="0 0 77.1 92.04">
  <defs>
    <style>
      .cls-1 {
        fill: #fff;
        stroke-width: 0px;
      }
    </style>
  </defs>
  <g id="_레이어_1-2" data-name="레이어 1">
    <path class="cls-1" d="M31.04,68.9c1.29,5.12,2.5,9.95,3.87,15.37,4.83-5.43,5.16-11.16,2.29-16.95-1.22-2.45-1.83-5.4-1.96-8.16-.8-17.59-1.36-35.2-2.1-52.79-.08-2.03-.76-4.03-1.22-6.37,15.09,1.21,29.62,2.37,45.18,3.61-6.23,5.21-5.71,11.56-5.91,17.85-.49,16.08-.61,32.2-2.09,48.2-.74,8-6.38,13.87-13.64,17.89-11.67,6.46-23.85,4.76-35.92,2.26-7.19-1.49-11.8-6.68-14.49-13.55-.77-1.95-2.29-3.6-3.21-5.51-.8-1.67-1.25-3.51-1.84-5.25,11.17,1.22,21.26,2.32,31.04,3.39Z"/>
  </g>
</svg>