<?xml version="1.0" encoding="UTF-8"?>
<svg id="_레이어_2" data-name="레이어 2" xmlns="http://www.w3.org/2000/svg" viewBox="0 0 37.52 100">
  <defs>
    <style>
      .cls-1 {
        fill: #fff;
        stroke-width: 0px;
      }
    </style>
  </defs>
  <g id="_레이어_1-2" data-name="레이어 1">
    <g>
      <path class="cls-1" d="M30.99,29.7c2.22,5.09,3.07,9.98,3.25,15.13.23,6.66,1.1,13.29,1.68,19.94.62,7.02.31,13.98-1.9,20.72-2.52,7.71-8.09,12.29-15.73,14.4-1.16.32-2.78-.13-3.89-.74-3.61-2-6.22-4.78-7.63-8.92-1.27-3.73-3.54-7.12-5.23-10.73-.72-1.53-1.26-3.19-1.53-4.86-.12-.72.44-1.93,1.05-2.27.55-.3,2.02.03,2.34.54.85,1.39,2.11,3.26,1.74,4.5-.68,2.25.36,3.4,1.35,5,1.88,3.02,3.17,6.43,5.22,9.31,2.62,3.66,2.23,3.91,7.14,2.72,4.61-1.12,7.79-3.3,10.12-7.28,2.12-3.63,4.18-7.15,3.71-11.66-1.19-11.39-2.2-22.8-3.32-34.2-.38-3.91.3-7.63,1.63-11.61Z"/>
      <path class="cls-1" d="M19.74,0c.8.61,1.88,1.05,2.36,1.86,3.68,6.16,8.27,11.51,13.57,16.33,2.44,2.22,2.38,3.54.31,7.37-6.13-6.47-12.27-12.67-16.63-20.34-.74-1.3-.55-3.13-.79-4.71.39-.17.78-.34,1.18-.51Z"/>
    </g>
  </g>
</svg>