<?xml version="1.0" encoding="UTF-8"?>
<svg id="_레이어_2" data-name="레이어 2" xmlns="http://www.w3.org/2000/svg" viewBox="0 0 70.85 100">
  <defs>
    <style>
      .cls-1 {
        fill: #fff;
        stroke-width: 0px;
      }
    </style>
  </defs>
  <g id="_레이어_1-2" data-name="레이어 1">
    <path class="cls-1" d="M41.46,0h28.71c.1.28.24.48.24.68.16,7.5.42,15.01.44,22.52.02,7.22-.28,14.44-.3,21.66-.02,7.86.27,15.73.15,23.58-.09,5.63-1.61,11.14-4.37,15.94-3.18,5.53-8.1,9.52-14.22,11.81-1.77.66-3.41,1.72-5.21,2.25-6.22,1.83-12.62,1.93-18.94.91-4.84-.78-9.69-1.97-14.29-3.65-2.33-.86-4.27-3.07-6.11-4.94C2.07,85.11-.09,78.13,0,70.39c0-.52.77-1.07,1.26-1.53.17-.15.56-.07.85-.08,6.99-.11,13.97-.16,20.96-.37,1.7-.05,2.45.62,3.05,2.07,1.17,2.86,2.74,5.38,5.99,6.38,3.51,1.09,7.26-.79,7.98-4.39.6-3.01,1.09-6.09,1.12-9.15.13-13.07.07-26.13.09-39.2.01-7.37.04-14.73.07-22.1,0-.64.06-1.28.09-2.02Z"/>
  </g>
</svg>