<?xml version="1.0" encoding="UTF-8"?>
<svg id="_레이어_2" data-name="레이어 2" xmlns="http://www.w3.org/2000/svg" viewBox="0 0 83 100">
  <defs>
    <style>
      .cls-1 {
        fill: #fff;
        stroke-width: 0px;
      }
    </style>
  </defs>
  <g id="_레이어_1-2" data-name="레이어 1">
    <path class="cls-1" d="M.69,6.79C.45,4.63.25,2.78,0,.53c14.06-1.1,28.07-.22,42.52.39-.22,1.64.04,3.33-.68,4.31-1.42,1.94-1.15,3.76-.36,5.59,1.56,3.62,3.31,7.15,5.2,11.17,1.09-1.94,1.97-3.54,2.89-5.11,1.23-2.09,2.41-4.22,3.76-6.23,2.32-3.45,2.04-5.49-1.32-7.95-.93-.68-1.91-1.29-3.51-2.38h33.74c.27,1.68.5,3.13.76,4.77-3.01.19-5.77.31-8.52.56-10.07.92-15.5,6.9-18.67,16.14-2.97,8.64-1.71,17.23-1.14,25.89.73,11.07.19,21.94-4.74,32.19-3.73,7.75-9.29,14-17.2,17.11-5.72,2.25-11.87,4.36-18.5,1.91-6.82-2.53-12.88-9.87-13.25-17.21-.09-1.71-.07-3.42-.03-5.13q.14-5.29,5.84-7.39c.47,1.6.81,3.22,1.43,4.73,1.42,3.45,2.75,6.98,4.55,10.23,1.73,3.13,4.62,4.91,8.36,4.02,3.83-.91,7.82-1.64,11.3-3.34,6.44-3.15,7.9-9.1,7.36-15.76-.96-11.71-3.57-23.08-7.49-34.11-2.72-7.64-6.59-14.74-11.46-21.29C16.49,7.81,10.88,5.34,3.68,6.45c-.88.13-1.76.2-2.99.34ZM27.79,5.74c-.01-.32-.03-.64-.04-.95-1.14.13-2.29.27-3.43.4.02.18.04.37.06.55h3.4ZM51.47,53.49c.42-.97.79-1.41.71-1.72-.11-.41-.57-.74-.92-1.05-.04-.03-.65.4-.63.58.04.43.3.84.85,2.19Z"/>
  </g>
</svg>