<?xml version="1.0" encoding="UTF-8"?>
<svg id="_레이어_2" data-name="레이어 2" xmlns="http://www.w3.org/2000/svg" viewBox="0 0 81.23 100">
  <defs>
    <style>
      .cls-1 {
        fill: #fff;
        stroke-width: 0px;
      }
    </style>
  </defs>
  <g id="_레이어_1-2" data-name="레이어 1">
    <path class="cls-1" d="M32.52,62.54c.41,1.07.56,3.17,1.65,3.96,2.62,1.9,5.6,4.01,8.62,4.32,1.14.12,3.98-4.46,3.97-6.89-.04-9.65-.82-19.3-1.48-28.94-.78-11.41-1.71-22.8-2.64-34.99h38.51c0,5.03,0,10.37,0,15.7,0,16.73.2,33.46-.07,50.18-.14,8.61-2.86,16.58-8.26,23.47-5.15,6.59-11.75,10.82-20.25,10.64-6.96-.15-14.11-.42-20.82-2.07C13.81,93.49,4.36,80.91,0,62.54h32.52Z"/>
  </g>
</svg>