<?xml version="1.0" encoding="UTF-8"?>
<svg id="_레이어_2" data-name="레이어 2" xmlns="http://www.w3.org/2000/svg" viewBox="0 0 51.83 100">
  <defs>
    <style>
      .cls-1 {
        fill: #fff;
        stroke-width: 0px;
      }
    </style>
  </defs>
  <g id="_레이어_1-2" data-name="레이어 1">
    <path class="cls-1" d="M50.16,79.49c-2.74,4.6-11.58,9.16-16.33,8.49-.21.37-.49.76-.65,1.19-1.9,5.36-6.09,8.09-11.13,10.02C12.83,102.73-1.11,94.2.07,82.36c.49-4.93,3.11-8.46,6.94-11.15,2.63-1.86,6.17-1.21,8.22,1.33.71.88.92,2.21,1.15,3.38.06.32-.61.91-1.06,1.16-2.31,1.3-4.09,3.1-4.34,5.78-.42,4.52,3.9,7.67,8.62,6.39,2.73-.75,4.89-2.27,6.08-5.01.72-1.65,1.7-3.18,2.48-4.81.26-.55.38-1.23.37-1.85-.18-5.55-.5-11.09-.58-16.64-.17-10.64-.23-21.27-.3-31.91-.05-6.84-.05-13.69-.01-20.53,0-.83.4-1.65.65-2.65-2.02-1.53-3.31-1.25-9.28,2.36-.12-2.57-.24-5.03-.37-7.63,3.16-.16,6.12-.29,9.09-.45,7.46-.41,14.83.23,22.12,1.91,1.44.33,2.12.88,1.96,2.45-.15,1.48-.05,2.99-.09,4.49-.06,2.33-.23,2.44-2.77,1.92-.12-.97-.35-1.96-.35-2.96,0-1.67-.89-2.13-2.36-2.01-.47.04-.94.05-1.22.06,0,22.39,0,44.7,0,67,0,1.01,0,2.04.12,3.04.34,2.61,1.07,3.23,3.75,3.36.36.02.72.06,1.26.11Z"/>
  </g>
</svg>