<?xml version="1.0" encoding="UTF-8"?>
<svg id="_레이어_2" data-name="레이어 2" xmlns="http://www.w3.org/2000/svg" viewBox="0 0 82.63 100">
  <defs>
    <style>
      .cls-1 {
        fill: #fff;
        stroke-width: 0px;
      }
    </style>
  </defs>
  <g id="_레이어_1-2" data-name="레이어 1">
    <path class="cls-1" d="M56.62,0h25.98c0,7.64.08,15.08-.02,22.52-.2,14.68-.37,29.37-.84,44.05-.15,4.72-.92,9.47-1.91,14.1-1.04,4.9-4.63,7.79-8.57,10.85-11.71,9.07-25.23,9-38.66,8.09-7.72-.52-14.17-4.99-18.43-12.01C6.64,75.16,2.33,61.64,0,47.4h37.73c-.15,1.69-.33,3.53-.48,5.38-.4,4.98-1.53,10.03,1.61,14.62,2.02,2.95,4.54,5,8.37,4.35,3.69-.63,6.1-2.97,6.82-6.53.79-3.88,1.35-7.87,1.45-11.82.42-16.49.63-32.98.92-49.47.02-1.26.12-2.51.19-3.92Z"/>
  </g>
</svg>