<?xml version="1.0" encoding="UTF-8"?>
<svg id="_레이어_2" data-name="레이어 2" xmlns="http://www.w3.org/2000/svg" viewBox="0 0 83.45 100">
  <defs>
    <style>
      .cls-1 {
        fill: #fff;
        stroke-width: 0px;
      }
    </style>
  </defs>
  <g id="_레이어_1-2" data-name="레이어 1">
    <path class="cls-1" d="M34.96,24.59C31.73,16.41,28.56,8.37,25.28.03c3.15,0,6.09-.1,9.02.07.73.04,1.5.85,2.1,1.45,2.62,2.63,5.19,5.31,7.83,8.02,3.64-3.09,7.02-5.96,10.59-9,.65,1.45,1.17,2.62,1.7,3.78l.73.08c.36-.93.8-1.84,1.08-2.8.36-1.25,1.58-1.68,2.96-.9,2.2,1.24,2.64,3.42,2.85,5.68,3.13-.88,6.08-4,5.82-6.29h13.5c-.11.42-.17.86-.34,1.25-3.11,6.67-6.22,13.33-9.35,20-8.58,18.29-16.92,36.71-25.87,54.83-4.27,8.65-10.09,16.39-18.77,21.39-.64.37-1.29.74-1.93,1.12-3.13,1.89-6.03,1.74-8.99-.57-5.81-4.54-11.04-9.6-15.06-15.8-4.13-6.37-4.16-13.94-.25-19.48,4.42-6.27,12.62-7.92,18.75-3.28,3.08,2.33,5.58,5.47,8.16,8.41,2.69,3.06,2.64,3.14,4.88-.3,5.63-8.65,5.63-8.77,1.45-18.14-2.56-5.74-5.13-11.48-7.59-17.26-.24-.55-.04-1.64.38-2.06,1.99-2,4.12-3.85,6.05-5.61Z"/>
  </g>
</svg>