<?xml version="1.0" encoding="UTF-8"?>
<svg id="_레이어_2" data-name="레이어 2" xmlns="http://www.w3.org/2000/svg" viewBox="0 0 107.42 100">
  <defs>
    <style>
      .cls-1 {
        fill: #fff;
        stroke-width: 0px;
      }
    </style>
  </defs>
  <g id="_레이어_1-2" data-name="레이어 1">
    <path class="cls-1" d="M107.42,64.86v33.36c-10.15.63-20.32,2.08-30.43,1.73-18.38-.63-36.72-2.35-55.08-3.56-3.21-.21-6.44-.28-9.65-.1C0,97,0,97.05,0,84.44c0-6.05,0-12.09,0-19.06,7.88.4,14.82.81,21.77,1.08,5.95.24,9.18-1.51,9.68-8.66C34.23,18.59,60.25-.53,98.99.01c2.39.03,6.33,4.11,6.76,6.76,1.24,7.55,1.15,15.34,1.37,23.04.19,6.82-3.77,7.76-9.59,6.9-7.89-1.16-15.85-1.92-23.81-2.38-5.1-.3-8.11,1.78-8.41,7.83-.26,5.27-2.08,10.53-3.67,15.64-1.94,6.22-.11,10.48,6.44,10.21,9.84-.4,19.62-2.13,29.45-3.1,3.31-.33,6.67-.05,9.9-.05ZM46.82,57.75c4.14-2.93,6.69-4.74,9.24-6.54-2.57-3.52-5.14-7.04-9.24-12.66v19.2Z"/>
  </g>
</svg>