<?xml version="1.0" encoding="UTF-8"?>
<svg id="_레이어_2" data-name="레이어 2" xmlns="http://www.w3.org/2000/svg" viewBox="0 0 89.77 100">
  <defs>
    <style>
      .cls-1 {
        fill: #fff;
        stroke-width: 0px;
      }
    </style>
  </defs>
  <g id="_레이어_1-2" data-name="레이어 1">
    <path class="cls-1" d="M43.29,34.13c0-9.64-.02-19.28.01-28.92.01-3.66,1-4.64,4.65-4.69C60.65.32,73.35.16,86.05,0c2.49-.03,3.64,1.08,3.64,3.56,0,16.31.24,32.62-.14,48.92-.29,12.56-4.45,24-12.59,33.73-5.07,6.06-11.8,9.57-19.36,11.61-10.66,2.88-21.37,2.98-31.93-.16-9.24-2.75-17.81-6.79-23.74-14.95-2.77-3.81-2.68-3.79.95-6.55,3.5-2.66,6.8-5.62,10.08-8.56,1.48-1.32,2.88-1.96,4.86-1.24,2.27.82,4.61,1.47,6.94,2.13,4.98,1.4,10.01,2.36,15.05.35,3.17-1.27,3.67-2.58,3.63-6.06-.11-9.55-.04-19.1-.04-28.65-.04,0-.07,0-.11,0Z"/>
  </g>
</svg>