<?xml version="1.0" encoding="UTF-8"?>
<svg id="_레이어_2" data-name="레이어 2" xmlns="http://www.w3.org/2000/svg" viewBox="0 0 75.1 100">
  <defs>
    <style>
      .cls-1 {
        fill: #fff;
        stroke-width: 0px;
      }
    </style>
  </defs>
  <g id="_레이어_1-2" data-name="레이어 1">
    <path class="cls-1" d="M20.64,62.96c.18-7.45.35-14.72.53-22.2.92,0,1.95,0,2.99,0,2.78,0,5.56-.05,8.34,0,.98.01,1.42-.24,1.27-1.3-.14-.99-.1-2.01-.26-3-.16-1.07.32-1.35,1.27-1.34,2.58.02,5.16,0,8.08,0,0-3.79,0-7.46,0-11.13,0-1.87,0-3.74.07-5.61.03-.87-.22-1.36-1.16-1.41-7.46-.44-14.92-1.14-22.34.48-3.58.78-6.77,2.11-8.7,5.49-.19.33-.6.72-.94.75-1.9.15-3.81.2-6.01.3,0-2.18-.04-4.27,0-6.35.11-4.55.25-9.1.4-13.65.02-.76.07-1.54.23-2.28.31-1.46,1.96-2.24,3.09-1.27,3.69,3.16,8.16,3.37,12.62,3.44,13.95.21,27.89.28,41.84.44,3.22.04,6.1-1.07,8.91-2.45.34-.17.72-.38.91-.68.68-1.07,1.66-1.29,3.16-1.02,0,1.21,0,2.53,0,3.85.04,7.38.06,14.76.15,22.15.01,1.06-.29,1.51-1.32,1.5-1.56,0-3.12,0-4.85,0,.12-1.64.12-3.23.42-4.76.1-.49.94-.92,1.52-1.2,1.29-.61,1.38-.9.39-1.93-1.38-1.43-3.05-2.26-5.02-2.58-1.8-.29-3.34.21-4.64,1.41-3.03,2.79-6.06,5.59-9.02,8.45-2.38,2.3-4.65,4.7-6.97,7.06-.18.19-.31.43-.55.76,1.78,0,3.38.04,4.99-.02.95-.04,1.28.35,1.26,1.26-.03,1.48,0,2.95,0,4.52h22.47c-.2,7.44-.41,14.93-.62,22.64h-21.42c0,.82.02,1.43,0,2.03-.17,5.26.04,10.57-.61,15.78-.9,7.22-4.58,12.65-11.72,15.38-6.91,2.65-13.98,4.11-21.37,3.33-5.46-.58-10.58-2.27-14.21-6.65-2.97-3.58-4.72-7.75-3.33-12.52,1.61-5.51,8.58-7.57,12.93-3.85.75.64,1.19,1.72,1.57,2.67.84,2.08,1.38,4.3,2.36,6.31,1.55,3.2,4.1,5.52,7.31,7.05,2.03.96,3.99.53,5.5-1.1,2.16-2.33,3.43-5.16,3.76-8.24.45-4.18.56-8.4.72-12.61.07-1.91-.08-3.83-.14-5.75-.07-1.98-.08-1.97-1.99-1.98-3.55-.02-7.09-.05-10.64-.09-.37,0-.74-.05-1.22-.08Z"/>
  </g>
</svg>