<?xml version="1.0" encoding="UTF-8"?>
<svg id="_레이어_2" data-name="레이어 2" xmlns="http://www.w3.org/2000/svg" viewBox="0 0 27.63 90.21">
  <defs>
    <style>
      .cls-1 {
        fill: #fff;
        stroke-width: 0px;
      }
    </style>
  </defs>
  <g id="_레이어_1-2" data-name="레이어 1">
    <path class="cls-1" d="M13.45,26.14c-1.45,9.86-3.05,19.71-4.31,29.6-.9,7.09-1.45,14.24-1.92,21.38-.07,1.08,1.09,3.17,1.69,3.17,1.49,0,3.63-.5,4.33-1.57,1.58-2.43,2.91-5.22,3.52-8.04,2.73-12.65,5.17-25.37,7.7-38.06.14-.72.04-1.52.33-2.17.21-.48.86-1.06,1.3-1.06.48,0,1.08.57,1.38,1.04.24.39.17,1.02.13,1.53-1.09,13.33-1.95,26.68-3.43,39.96-.49,4.37-2,8.88-4.12,12.73-1.3,2.35-4.42,4.43-7.11,5.13-6.46,1.68-11.24-1.67-12.43-8.27-.55-3.06-.64-6.33-.28-9.42,2.22-19.16,3.79-38.35,3.54-57.67-.05-3.57.36-7.15.71-10.71C4.64,1.91,5.08-.03,7.5,0c2.5.03,3.92,1.6,4.19,3.93.42,3.55.66,7.13.78,10.71.13,3.79.03,7.58.03,11.38.32.04.63.09.95.13Z"/>
  </g>
</svg>