<?xml version="1.0" encoding="UTF-8"?>
<svg id="_레이어_2" data-name="레이어 2" xmlns="http://www.w3.org/2000/svg" viewBox="0 0 47.99 100">
  <defs>
    <style>
      .cls-1 {
        fill: #fff;
        stroke-width: 0px;
      }
    </style>
  </defs>
  <g id="_레이어_1-2" data-name="레이어 1">
    <g>
      <path class="cls-1" d="M12.12,31.87c10.54-.72,20.04-1.37,29.24-1.99,6.27,25.56-3.32,46.34-15.38,66.57-2.44,4.09-5.51,4.72-8.7,1.55-5.86-5.83-11.47-11.93-16.87-18.19-.79-.92-.29-3.55.41-5.01.94-1.94,2.87-3.36,4.01-5.23,4.98-8.2,10.59-16.13,7.45-26.79-.95-3.24-.15-6.99-.15-10.91Z"/>
      <path class="cls-1" d="M10.99,18.6V0h34.93c.73,6.57,1.41,12.66,2.07,18.6H10.99Z"/>
    </g>
  </g>
</svg>