<?xml version="1.0" encoding="UTF-8"?>
<svg id="_레이어_2" data-name="레이어 2" xmlns="http://www.w3.org/2000/svg" viewBox="0 0 35.34 88.86">
  <defs>
    <style>
      .cls-1 {
        fill: #fff;
        stroke-width: 0px;
      }
    </style>
  </defs>
  <g id="_레이어_1-2" data-name="레이어 1">
    <path class="cls-1" d="M19.98.06c4.6,0,8.74-.21,12.83.16.93.09,2.38,2.21,2.39,3.4.1,23.15.31,46.3-.18,69.44-.15,7.2-3.96,13.48-11.78,14.84-6.23,1.08-12.72,1.02-19.08.84-3.21-.09-4.84-2.56-3.9-6.51,2.24,0,4.5-.05,6.75,0,6.06.14,9.87-2.51,11.06-8.5.77-3.88.91-7.91.96-11.88.24-19.48.35-38.97.53-58.45,0-.98.23-1.95.41-3.35Z"/>
  </g>
</svg>