<?xml version="1.0" encoding="UTF-8"?>
<svg id="_레이어_2" data-name="레이어 2" xmlns="http://www.w3.org/2000/svg" viewBox="0 0 37.56 100">
  <defs>
    <style>
      .cls-1 {
        fill: #fff;
        stroke-width: 0px;
      }
    </style>
  </defs>
  <g id="_레이어_1-2" data-name="레이어 1">
    <g>
      <path class="cls-1" d="M6.96,100c-3.63-.75-7.44-6.56-6.9-10.33.52-.23.78.01,1.07.47.66,1.05,1.27,2.18,2.14,3.03.73.72,1.74,1.3,2.73,1.56,1.13.3,2.2-.22,3.07-1.08,2.05-2.01,3.19-4.52,3.74-7.25.45-2.24.75-4.55.75-6.83,0-10.15-.12-20.31-.21-30.46-.03-3.1.01-6.2-.17-9.29-.21-3.57-.52-7.15-1.01-10.69-.5-3.6-1.1-7.2-1.99-10.72-.62-2.44-1.76-4.76-2.72-7.11-.99-2.41-2-4.81-3.07-7.19-.43-.96-1.05-1.85-1.7-2.97,3.81-.22,7.58.28,11.43-.02.73,2.56,1.41,5.02,2.14,7.46.48,1.6,1.13,3.14,1.56,4.75.97,3.69,2.28,7.31,2.13,11.23-.08,2.21-.04,4.42.05,6.63.03.8.39,1.58.55,2.37.09.44.15.89.14,1.34-.05,2.94-.16,5.88-.18,8.83-.05,6.17-.04,12.33-.1,18.5-.05,6.07-.13,12.14-.25,18.21-.07,3.55-.74,6.99-2.22,10.26-1.09,2.41-3.04,3.97-5.07,5.44-1.31.95-2.82,1.6-4.21,2.45-.61.38-1.13.91-1.72,1.39Z"/>
      <path class="cls-1" d="M21.61,13.41c-.07-4.24.07-7.18,1.39-9.9,2.08-4.27,6.83-4.49,9.68-1.48,1.56,1.65,2.3,3.76,3.03,5.83.71,2.01,1.24,4.12,1.63,6.22.34,1.8.32,3.64-.31,5.44-.8,2.25-2.5,3.4-4.7,3.54-2.15.14-4.34-.07-6.48-.35-1.59-.21-2.55-1.37-3.05-2.88-.83-2.5-1.22-5.06-1.19-6.41ZM31,15.08c.24-.99.57-1.91.67-2.85.21-2.04.4-4.1-.27-6.09-.1-.29-.44-.67-.69-.69-.26-.02-.66.31-.79.58-.23.49-.41,1.04-.43,1.58-.14,2.63-.23,5.26-.33,7.89-.05,1.29-.23,1.49-1.57,1.64-.05-.61-.1-1.22-.15-1.83q-.09-1.23-.73-1.24c-.47,2.8-.08,5.29,2.42,7.09.93.67,2.05.46,2.47-.61.69-1.76.64-3.59.31-5.42-.01-.07-.13-.13-.21-.2-.28.06-.56.12-.71.15Z"/>
    </g>
  </g>
</svg>