<?xml version="1.0" encoding="UTF-8"?>
<svg id="_레이어_2" data-name="레이어 2" xmlns="http://www.w3.org/2000/svg" viewBox="0 0 75.21 100">
  <defs>
    <style>
      .cls-1 {
        fill: #fff;
        stroke-width: 0px;
      }
    </style>
  </defs>
  <g id="_레이어_1-2" data-name="레이어 1">
    <g>
      <path class="cls-1" d="M25.43.06c4.82,0,9.64-.17,14.45.07,2.28.12,4.65.72,6.74,1.64,7.24,3.16,14.39.18,21.57.02,6.28-.15,8.63,3.73,5.89,9.59-.6,1.28-1.37,2.62-1.47,3.97-1.51,21.58-3.09,43.16-4.26,64.76-.3,5.64.73,11.35,1.19,17.51-23.2,4.46-45.96,1.51-68.94.53-1-3.84-1.32-6.72,3.55-8.32,8.56-2.81,10.11-2.77,12.74,2.45,1.71,3.38,9.1,6.09,14.45,4.22,5.67-1.98,11.24-4.67,16.3-7.91,4.59-2.94,7.34-7.46,7.88-13.37.87-9.56,2.34-19.07,3.54-28.49-10.71-2.36-21.27,1.83-26.84,9.36-1,1.35-4.6,1.99-6.25,1.26-1.4-.63-2.64-3.84-2.35-5.66.99-6.38,9.5-12.94,16.61-12.98,5.68-.03,11.36.51,17,.8C59.98,19.2,58.42.96,25.47,1.5c-.01-.48-.02-.96-.04-1.44Z"/>
      <path class="cls-1" d="M19.27,3.99c-.65,8.4-1.27,16.34-1.89,24.28-7.18-.48-10.62-4.53-10.54-12.15.06-6.04,5.48-11.57,12.43-12.13Z"/>
    </g>
  </g>
</svg>