<?xml version="1.0" encoding="UTF-8"?>
<svg id="_레이어_2" data-name="레이어 2" xmlns="http://www.w3.org/2000/svg" viewBox="0 0 76.38 100">
  <defs>
    <style>
      .cls-1 {
        fill: #fff;
        stroke-width: 0px;
      }
    </style>
  </defs>
  <g id="_레이어_1-2" data-name="레이어 1">
    <g>
      <path class="cls-1" d="M62.49,8.77c-1.63,1.56-3.56,1.13-5.34.88-1.82-.26-3.34.82-5.35.34-2.35-.57-5.05.28-7.6.5-.41.04-.82.04-1.23.03-2.26-.06-4.51-.14-6.77-.19-3.86-.08-7.73-.03-11.58-.25-5.45-.3-10.86-.49-16.22.85-.45.11-.97.1-1.43.01-1.18-.23-2.35-.78-3.53-.79-1.15-.01-2.3-.01-3.45-.01.07.97.18,1.95.3,2.92h3.05s0,42.16.01,50.91c0,6.57.06,13.15.09,19.72.01,2.21-.66,4.74.19,6.55,1.35,2.87,2.86,5.84,5.69,7.87,2.75,1.97,2.61,2.17,4.47-.06.09-.11.05-.32.02-.06-1.36-1.54-2.43-2.98-3.73-4.17-1.77-1.62-2.55-3.41-2.52-5.88.08-8.55.03-17.1-.13-25.65-.09-4.72-.71-9.44-.71-14.16,0-9.32.26-18.63.4-27.95.03-2.37,0-4.74,0-7.62,3.63-.2,7.35-.54,11.07-.6,14.41-.23,28.83.66,43.21-.94,1.22-.14,2.49-.03,3.32-1.85-.91-.18-1.94-.68-2.23-.4Z"/>
      <polygon class="cls-1" points="6.32 56.07 6.22 56.19 6.36 56.22 6.32 56.07"/>
      <path class="cls-1" d="M72.5,30.65c.24-.31.48-.62,1.07-1.4H25.02c-.04,2.59-.2,4.59-.07,6.58.13,2.03-.44,3.45-2.03,4.89-2.69,2.44-5.03,5.27-7.07,7.46v10.29c-3.41-1.54-3.3-4.54-3.52-7.41-.09-1.14-.39-2.27-.6-3.4-.21-.04-.42-.08-.63-.12,2.85-3.39,5.64-6.83,8.57-10.15,1.14-1.29,2.16-2.42,1-4.19-.09-.14-.16-.34-.15-.5.29-2.78.6-5.56.91-8.43-.03,0,.24-.13.29-.08,2.41,2.68,5.64,1.55,8.48,1.6,12.87.25,25.75.28,38.62.37,1.14,0,2.28-.15,3.47-.23.65-3.72,1.12-7.19.38-10.79-.32-1.57.02-3.27.04-4.92.02-2.39,0-4.78,0-7.2h-38.86c-2.07,2.56-3.12,5.75-6.87,6.41,1.29-2.09,2.57-4.19,3.87-6.31-7.34-.21-14.38-.42-21.44-.62C9.16-.09,10.58,0,11.94,0c6.18,0,12.35,0,18.53,0,9.75,0,19.51,0,29.26,0,5.09,0,10.19,0,15.36,0,.28.76.67,1.32.66,1.88-.08,5.69-.23,11.38-.34,17.07-.01.52,0,1.05.14,1.55.93,3.43.68,6.65-.44,10.13-.98,3.05-.67,6.53-.79,9.83-.14,3.84-.07,7.69-.23,11.54-.04.88-.42,2.17-1.05,2.52-2.62,1.42-2.24,3.83-2.29,6.07-.08,3.48-.02,6.97-.02,10.46-2.43.21-3.43-.24-4.49-2.24-10.47-.3-21.05-.63-31.64-.87-1.07-.02-2.86-.62-2.88,1.84,8.36.45,16.6.9,25.1,1.36.26.83.53,1.7.85,2.75-2.32.39-4.3.83-5.7-1.34-3.3,1.8-6.77.57-10.15.72-2.14.09-4.3-.14-6.44-.04-1.64.08-3.33-.04-4.76,1.28-.63.58-1.82.63-2.78.73-2.17.22-4.36.32-6.97.49.72,1.92,1.29,3.45,2.01,5.36h53.51v18.9h-23.86c.93-2.01,2.13-2.6,3.76-2.6,5.17.01,10.35,0,15.88,0v-12.81H18.54c-.37-7.36-3.48-13.6-6.83-19.79-.68-1.26-.81-2.81-1.19-4.23.2-.12.39-.24.59-.36,1.23,1.06,2.47,2.12,3.81,3.28.61-.46,1.15-.86,1.79-1.34.2.28.61.63.54.82-.35,1.01-.81,1.98-1.58,2.92,1.1,2.6,2.24,5.54,5.81,7.01,0-4.89.03-9.34,0-13.79-.04-4.7.19-6.49,6.67-6.53,13.78-.09,27.56.04,41.34.07.79,0,1.58-.09,2.94-.17v-21.87s.08.05.08.05ZM67.66,65.14v-8.02c-1.42.32-2.59.58-3.9.87-.16-.85-.26-1.41-.35-1.85H24.16c.21,4.7.38,9.21.63,13.72.06,1.12.45,2.13,2.33,1.75.38-2.12.77-4.34,1.16-6.47h39.38Z"/>
      <path class="cls-1" d="M69.15,34.3c-.45,1.4-.74,2.3-1.03,3.22H31.08c1.83-3.53,4.89-3.16,7.83-3.14,6.31.03,12.64-.19,18.94.18,2.75.16,5.34-.49,8.01-.49.95,0,1.89.13,3.29.23Z"/>
      <path class="cls-1" d="M48.32,98.85h-22.47c-.98,1.27-2.12,1.54-2.87.54-2.13.24-3.9.57-5.67.57-.44,0-.87-1.07-1.35-1.71,2.67-1.16,30.39-1.21,32.38-.2,0,.27-.01.53-.02.8Z"/>
      <path class="cls-1" d="M72.42,30.6s.09-.03.13-.04c-.02.03-.04.06-.05.09,0,0-.08-.05-.08-.05Z"/>
    </g>
  </g>
</svg>