<?xml version="1.0" encoding="UTF-8"?>
<svg id="_레이어_2" data-name="레이어 2" xmlns="http://www.w3.org/2000/svg" viewBox="0 0 127.51 93.08">
  <defs>
    <style>
      .cls-1 {
        fill: #fff;
        stroke-width: 0px;
      }
    </style>
  </defs>
  <g id="_레이어_1-2" data-name="레이어 1">
    <path class="cls-1" d="M127.51,70.05v22.94c-41.09,0-81.88-.05-122.67.08-3.79.01-4.89-.98-4.83-4.82C.36,62.69.46,37.11.69,11.54c.03-3.68.33-7.35.53-11.54h125.38v19.03H56.24v18.4c16.8-1.01,33.53-2.02,51.41-3.09-.58,4.74-1.14,9.61-1.8,14.46-.25,1.83-.28,4.82-1.24,5.2-2.43.97-5.32.97-8.03.99-11.55.09-23.1.04-34.65.05-1.76,0-3.52,0-5.9,0,0,4.69-.2,8.9.17,13.06.07.82,2.31,2.06,3.56,2.07,11.26.09,22.52-.08,33.78-.11,11.24-.04,22.48,0,33.98,0Z"/>
  </g>
</svg>