<?xml version="1.0" encoding="UTF-8"?>
<svg id="_레이어_2" data-name="레이어 2" xmlns="http://www.w3.org/2000/svg" viewBox="0 0 28.43 91.56">
  <defs>
    <style>
      .cls-1 {
        fill: #fff;
        stroke-width: 0px;
      }
    </style>
  </defs>
  <g id="_레이어_1-2" data-name="레이어 1">
    <path class="cls-1" d="M12.5,24.92c0,3.95,0,7.9,0,11.85,0,2.36,1.03,3.5,3.48,3.02.3-.06.62-.06.93-.09,6.06-.5,8.29,2.6,6.13,8.39-.88,2.35-2.82,2.46-4.82,2.63-5.08.43-5.12.43-4.94,5.48.24,6.86.39,13.72.87,20.57.29,4.08.84,4.33,4.85,4.24,1.35-.03,2.7-.11,4.05-.12,3.87-.04,5.12,1.01,5.34,4.43.25,3.91-.88,5.31-4.88,5.62-3.94.31-7.89.47-11.84.61-5.79.21-8.21-1.96-8.49-7.84-.51-10.6-.89-21.2-1.34-31.8C1.25,37.78.63,23.65.05,9.52-.02,7.75-.03,5.98.12,4.22.28,2.29,1.19,1.34,3.36.8c6.52-1.63,12.97-.28,19.45-.26,2.84,0,3.77,1.85,4.01,4.23.26,2.62-.79,4.65-3.51,5.04-2.55.36-5.18.35-7.76.24-2.69-.11-3.76.93-3.66,3.64.14,3.74.03,7.49.03,11.23.19,0,.38,0,.56,0Z"/>
  </g>
</svg>