<?xml version="1.0" encoding="UTF-8"?>
<svg id="_레이어_2" data-name="레이어 2" xmlns="http://www.w3.org/2000/svg" viewBox="0 0 28.06 92.94">
  <defs>
    <style>
      .cls-1 {
        fill: #fff;
        stroke-width: 0px;
      }
    </style>
  </defs>
  <g id="_레이어_1-2" data-name="레이어 1">
    <path class="cls-1" d="M12.31,52.63c-.28,4.69-.58,8.93-.79,13.17-.18,3.65-.25,7.3-.41,10.95-.23,5,1.07,6.25,6.12,5.72,1.24-.13,2.58-.76,3.69-.46,1.63.45,4.15,1.3,4.39,2.4.4,1.83-.56,4.04-1.24,5.99-.2.58-1.34,1.11-2.1,1.19-5.58.56-11.18,1.45-16.75,1.33C.82,92.84,0,91.57,0,87.15c.02-9.28.33-18.57.46-27.85.24-16.28.75-32.56.53-48.83C.86.44,6.88-.79,15.26.35c2.56.35,5.08.98,7.63,1.37,2.67.42,4.4,1.84,4.98,4.48.65,2.95-.33,4.42-3.35,4.72-2.59.26-5.21.29-7.81.24-2.11-.05-3.16.85-3.17,2.9-.04,8.65-.07,17.31-.07,25.96,0,2.53,1.31,3.59,3.82,3.16.41-.07.85-.16,1.24-.1,1.94.32,4.97.11,5.54,1.19.91,1.72.84,4.63-.03,6.44-1.17,2.42-3.95,3.25-6.77,2.87-1.5-.21-2.99-.56-4.98-.94Z"/>
  </g>
</svg>