<?xml version="1.0" encoding="UTF-8"?>
<svg id="_레이어_2" data-name="레이어 2" xmlns="http://www.w3.org/2000/svg" viewBox="0 0 62.95 100">
  <defs>
    <style>
      .cls-1 {
        fill: #fff;
        stroke-width: 0px;
      }
    </style>
  </defs>
  <g id="_레이어_1-2" data-name="레이어 1">
    <path class="cls-1" d="M0,100V.69C19.68.39,38.68.03,57.67,0c1.13,0,3.07,2.53,3.25,4.04.46,3.94.16,7.97.16,12.66H17.56c0,8.05-.17,15.44.22,22.79.05.91,3.07,2.35,4.73,2.37,8.95.12,17.91-.17,26.87-.23,2.81-.02,5.63.23,8.76.37,0,4.94.3,9.47-.24,13.88-.12.93-3.33,2.07-5.14,2.11-11.41.19-22.82.1-34.67.1v25.18c12.84,0,25.19.26,37.53-.12,5.41-.16,7.79,1.38,7.27,6.97-.3,3.16-.05,6.38-.05,9.88H0Z"/>
  </g>
</svg>