<?xml version="1.0" encoding="UTF-8"?>
<svg id="_레이어_2" data-name="레이어 2" xmlns="http://www.w3.org/2000/svg" viewBox="0 0 56.93 100">
  <defs>
    <style>
      .cls-1 {
        fill: #fff;
        stroke-width: 0px;
      }
    </style>
  </defs>
  <g id="_레이어_1-2" data-name="레이어 1">
    <g>
      <path class="cls-1" d="M24.73,54.23C6.26,44.76,5.45,26.54,4.99,7.83c-1.21-.08-2.77-.18-4.99-.32C.53,4.68.99,2.2,1.41,0c17.27.46,34.08.88,50.9,1.36,2.07.06,4.93-.53,4.6,2.99-.24,2.52-1.68,4.83-4.52,3.95-1.39-.43-2.19-2.75-3.85-5.03q-8.09-.43-10.84,6.11h-21.26c-3.3,13.36,4.52,28.12,16.9,33.96,2.5,1.18,6.03.17,9.63.17.54.44,1.95,1.58,3.88,3.15.13,2.48.29,5.77.46,9.07.19,3.49-1.5,4.4-4.67,3.57-1.1-.29-2.29-.3-3.44-.33-1.86-.04-4.75-.74-5.4.16-1.81,2.49-2.83,5.61-3.88,8.58-.42,1.18-.05,2.62-.1,3.94-.29,8.01,4.38,13.08,12.57,13.51,2.32.12,4.66.02,7.41.02v14.11c-7.6,2.02-20.45-.48-22.32-6.04-.78-2.32-1.37-4.72-1.95-7.1-1.06-4.34-2.87-8.69-2.89-13.05-.03-6.1,1.28-12.2,2.09-18.89Z"/>
      <path class="cls-1" d="M50.21,27.72c-1.13-2.54-2.26-5.09-3.68-8.27,3.07-.78,5.49-1.4,8.95-2.27-1.14,4.04-2.09,7.39-3.04,10.74l-2.23-.2Z"/>
    </g>
  </g>
</svg>