<?xml version="1.0" encoding="UTF-8"?>
<svg id="_레이어_2" data-name="레이어 2" xmlns="http://www.w3.org/2000/svg" viewBox="0 0 31.46 100">
  <defs>
    <style>
      .cls-1 {
        fill: #fff;
        stroke-width: 0px;
      }
    </style>
  </defs>
  <g id="_레이어_1-2" data-name="레이어 1">
    <g>
      <path class="cls-1" d="M0,100v-17.1c3.05,0,6.21-.02,9.37,0,6.04.04,12.08.26,18.11.07,2.97-.09,4.08,1.07,3.97,3.79-.17,4.23-.4,8.46-.63,13.24H0Z"/>
      <path class="cls-1" d="M30.71,59.35H.98v-16.11c9.18,0,18.27-.06,27.37.1.8.01,2.21,1.47,2.25,2.31.23,4.38.11,8.78.11,13.69Z"/>
      <path class="cls-1" d="M30.65,0v15.64H1.84C1.45,10.52,1.08,5.47.67,0h29.99Z"/>
    </g>
  </g>
</svg>