<?xml version="1.0" encoding="UTF-8"?>
<svg id="_레이어_2" data-name="레이어 2" xmlns="http://www.w3.org/2000/svg" viewBox="0 0 53.55 100">
  <defs>
    <style>
      .cls-1 {
        fill: #fff;
        stroke-width: 0px;
      }
    </style>
  </defs>
  <g id="_레이어_1-2" data-name="레이어 1">
    <path class="cls-1" d="M50.33,85.96c2.88,13.39,2.04,14.4-11.53,13.96-14.97-.49-31.97-13.54-36.26-27.94-.46-1.55-1.05-3.58-.45-4.85,4.14-8.73-1.25-16.63-1.85-24.92C-.71,29.04.84,16.61,10.92,6.76,15.77,2.03,21.77.18,28.34.07c8.25-.14,16.5-.03,25.2-.03v12.18c-8.31.55-16.74.57-25,1.78-10.35,1.5-14.3,11.49-11.46,20.6,1.8,5.78,8.04,6.9,13.45,7.91,3.41.64,6.91.9,10.39,1.08,3.46.18,6.93.04,10.49.04.27,1.03.48,1.7.63,2.38,2.56,11.51,1.33,13.07-10.1,13.11-6.62.02-13.23.33-19.84.15-3.97-.11-5.07,2.17-5.54,5.31-1.56,10.36,5.49,18.65,16.93,19.86,5.46.58,10.93,1,16.85,1.53Z"/>
  </g>
</svg>