<?xml version="1.0" encoding="UTF-8"?>
<svg id="_레이어_2" data-name="레이어 2" xmlns="http://www.w3.org/2000/svg" viewBox="0 0 62.69 91.41">
  <defs>
    <style>
      .cls-1 {
        fill: #fff;
        stroke-width: 0px;
      }
    </style>
  </defs>
  <g id="_레이어_1-2" data-name="레이어 1">
    <path class="cls-1" d="M14.75,49.2v32.51c8.67,0,17.24.06,25.8-.02,5.66-.06,11.33-.28,16.98-.53,4.22-.19,4.82,2.54,5.13,5.79.36,3.79-2.36,4.07-4.82,4.11-15.47.2-30.94.26-46.41.35-1,0-2-.06-3-.04Q-.06,91.54.01,83.28C.22,57.95.42,32.62.66,7.3c.02-2.28.32-4.55.52-7.26C20.48.03,39.29.07,58.1,0c3.12-.01,3.47,1.72,3.43,4.18-.05,3.13-.64,5.87-4.48,5.86-5.49-.03-10.98-.43-16.48-.48-8.97-.09-17.94-.02-27.33-.02v30.17h44.18c-.09.38-.29.97-.38,1.58-1.17,7.82-1.17,7.87-9.61,7.91-10.79.05-21.58.01-32.68.01Z"/>
  </g>
</svg>