<?xml version="1.0" encoding="UTF-8"?>
<svg id="_레이어_2" data-name="레이어 2" xmlns="http://www.w3.org/2000/svg" viewBox="0 0 91.71 100">
  <defs>
    <style>
      .cls-1 {
        fill: #fff;
        stroke-width: 0px;
      }
    </style>
  </defs>
  <g id="_레이어_1-2" data-name="레이어 1">
    <path class="cls-1" d="M20.97,70.65c7.71,0,15.06-.03,22.41,0,13.16.07,26.32.02,39.47.34,6.34.15,6.24.48,6.45,6.68.24,7.32.66,14.63,1.02,22.32-7.25,0-14,.02-20.74,0-6.78-.03-13.56-.13-20.35-.18-15.03-.11-30.06-.3-45.1-.24-3.46.01-4.15-1.67-4.14-4.48.02-8.82,0-17.64-.01-26.47C0,45.64,0,22.66,0,0h90.19v26.02c-2.15.1-3.98.26-5.8.26-19.52-.06-39.04-.15-58.56-.21-8.2-.02-8.41.25-7.16,9.28h73.04v25.35c-14.18,0-28.16.01-42.15,0-7.66-.01-15.33-.12-22.99-.11-6.62,0-6.63.05-6.1,6.49.08,1,.28,2,.5,3.57Z"/>
  </g>
</svg>