<?xml version="1.0" encoding="UTF-8"?>
<svg id="_레이어_2" data-name="레이어 2" xmlns="http://www.w3.org/2000/svg" viewBox="0 0 89.3 100">
  <defs>
    <style>
      .cls-1 {
        fill: #fff;
        stroke-width: 0px;
      }
    </style>
  </defs>
  <g id="_레이어_1-2" data-name="레이어 1">
    <path class="cls-1" d="M18.81,42.28c16.18,1.41,31.37-8.32,46.67-4.14.01,1.22.02,2.45.03,3.67-16.05,2.65-32.1,5.3-48.76,8.06-.19,14.75,4.01,27.34,15.01,37.58,7.13,6.64,15.91,7.23,24.28,5.98,3.05-.46,5.59-6.96,7.57-11.08,1.76-3.65,2.07-8,3.76-11.7.75-1.63,3.22-3.15,5.11-3.45,4.08-.65,15.26,7.59,16.34,11.51,2.25,8.17-3.82,11.02-9.29,13.69-19.72,9.59-40.18,10.21-59.89,1.2-6.39-2.92-12.72-10.15-15.13-16.84C-4.65,51.33.29,27.68,18.08,7.21c7.84-9.03,26.83-9.48,42.98-1.88,10.39,4.89,13.49,11.72,9.84,22.46-.8,2.35-2.66,4.34-4.81,6.26,3.11-10.1,1.92-18.76-6.97-24.83C50.55,3.38,41.1.82,31.66,6.91c-13.09,8.44-11.25,22.38-12.85,35.36Z"/>
  </g>
</svg>