<?xml version="1.0" encoding="UTF-8"?>
<svg id="_레이어_2" data-name="레이어 2" xmlns="http://www.w3.org/2000/svg" viewBox="0 0 79.85 100">
  <defs>
    <style>
      .cls-1 {
        fill: #fff;
        stroke-width: 0px;
      }
    </style>
  </defs>
  <g id="_레이어_1-2" data-name="레이어 1">
    <path class="cls-1" d="M.02,0c25.02.63,49.22,1.24,73.93,1.87,0,1.47.04,3.33,0,5.19-.19,8.06-.52,16.12-.56,24.18-.01,2.76-.7,4.9-3.16,6.13-7.1,3.55-9.46,9.22-8.34,16.92.57,3.91.31,7.93.47,11.9.16,4.04,1.61,5.19,5.74,4.81,3.5-.32,7.02-.53,10.82-.82.13,1.71.27,2.89.3,4.07.2,6.83.29,13.68.61,20.5.17,3.68-1.32,5.29-4.99,5.24-23.55-.32-47.1-.62-70.65-.85-2.47-.02-3.24-.89-3.26-3.4C.7,69.18.33,42.61.03,16.04-.03,10.72.02,5.41.02,0Z"/>
  </g>
</svg>