<?xml version="1.0" encoding="UTF-8"?>
<svg id="_레이어_2" data-name="레이어 2" xmlns="http://www.w3.org/2000/svg" viewBox="0 0 62.39 100">
  <defs>
    <style>
      .cls-1 {
        fill: #fff;
        stroke-width: 0px;
      }
    </style>
  </defs>
  <g id="_레이어_1-2" data-name="레이어 1">
    <path class="cls-1" d="M60.35,0c0,6.59-.09,12.67.04,18.75.06,2.74-.87,3.43-3.62,3.38-10.44-.21-20.9-.11-31.34-.11-.62,0-1.25.2-2.06.35v16.44c.8.07,1.54.19,2.27.18,9.8-.13,19.6-.25,29.4-.43,7.24-.14,7.27-.18,7.34,7.21.05,4.65,0,9.3,0,14.2H23.34v12.62h28.4v26.53c-16.74,2.08-33.01-.34-49.39.74C1.57,67.02.79,34.44,0,1.62,19.82,1.09,39.62.56,60.35,0Z"/>
  </g>
</svg>