<?xml version="1.0" encoding="UTF-8"?>
<svg id="_레이어_2" data-name="레이어 2" xmlns="http://www.w3.org/2000/svg" viewBox="0 0 52.39 100">
  <defs>
    <style>
      .cls-1 {
        fill: #fff;
        stroke-width: 0px;
      }
    </style>
  </defs>
  <g id="_레이어_1-2" data-name="레이어 1">
    <path class="cls-1" d="M.15,92.52c-.28-5.84-.72-10.71,4.7-14.47,7.94-5.51,15.34-11.79,23.36-18.05-6.75-7.22-13.19-14.11-19.73-21.11.48-.63.78-1.12,1.16-1.54,9.67-10.77,19.8-21.17,28.83-32.45C42.4,0,46.28-.69,52.31.51c-.95,2.52-1.44,5.22-2.84,7.31-6.21,9.29-12.63,18.45-19.11,27.56-1.31,1.84-1.13,2.79.36,4.51,6.94,7.98,13.66,16.16,20.42,24.3.47.56.69,1.33,1.24,2.43-4.07.29-7.73.4-11.36.85-3.74.46-7.51,1-11.15,1.95-3.01.78-3.24,1.81-1.17,4.16,5.28,5.99,10.7,11.87,16.03,17.82,2.31,2.58,4.55,5.23,7.47,8.61h-15.94c-1.77-2.24-3.25-4.51-5.13-6.38-3.89-3.88-8.05-7.47-11.96-11.33-1.44-1.43-2.51-1.47-4.05-.3-3.57,2.73-7.22,5.36-10.87,7.99-1.17.84-2.46,1.53-4.12,2.55Z"/>
  </g>
</svg>