<?xml version="1.0" encoding="UTF-8"?>
<svg id="_레이어_2" data-name="레이어 2" xmlns="http://www.w3.org/2000/svg" viewBox="0 0 79.63 100">
  <defs>
    <style>
      .cls-1 {
        fill: #fff;
        stroke-width: 0px;
      }
    </style>
  </defs>
  <g id="_레이어_1-2" data-name="레이어 1">
    <path class="cls-1" d="M66.25,83.59v-15.9h13.38v32.31H0V2.38h55c-.11-.88-.2-1.55-.31-2.38h10.01c-.98,2.35-1.88,4.6-2.85,6.82-.46,1.05-.12,1.66.89,1.95.92.26,2.01.89,2.4-.73.11-.45.32-.88.49-1.32.17-.03.34-.07.51-.1.29,1.1.8,2.19.84,3.3.11,2.83-.09,5.67.04,8.5.07,1.6-.5,1.96-1.99,1.96-14.55-.04-29.11-.02-43.66-.01-1.49,0-2.98,0-4.6,0v27.81h21.9v14.84h-21.9v20.56h49.49Z"/>
  </g>
</svg>