<?xml version="1.0" encoding="UTF-8"?>
<svg id="_레이어_2" data-name="레이어 2" xmlns="http://www.w3.org/2000/svg" viewBox="0 0 51.52 100">
  <defs>
    <style>
      .cls-1 {
        fill: #fff;
        stroke-width: 0px;
      }
    </style>
  </defs>
  <g id="_레이어_1-2" data-name="레이어 1">
    <g>
      <path class="cls-1" d="M45.48,10.94c-.96.23-1.08,2.85-3.03.99-.66-.63-2.2-.44-3.33-.44-7.59-.03-15.19-.02-23.09-.02v22.75h26.54v14.24h-6.35c-.81-1.44,2.27-2.39.39-4.03-1.11-.97-2.23-2.23-3.63-1.47-5.36,2.88-11.08.5-16.65,1.57-2.54,4.72-2.02,10.06-2.03,15.33,0,5.18,0,10.37,0,15.9,6.96,0,13.57.02,20.18-.03.87,0,1.74-.35,2.59-.61,5.13-1.53,7.07-1.04,9.97,3.79,1.17,1.94,2.48.61,4.26,1.45.07,6.44,1.52,13.28-3.78,19.62-1.74-.54-4.18.95-6.65-1-1.04-.82-3.16-.35-4.79-.35-10.22-.02-20.44.02-30.66-.02-4.72-.02-5.37-.63-5.38-5.12C0,63.99,0,34.51.02,5.03.02.96.86.08,4.82.05,14.8,0,24.79.11,34.77,0c4.23-.05,6.74,1.83,8.13,5.73.64,1.81,1.71,3.48,2.59,5.2ZM19.92,86.68c-3.14,1.14-4.98,1.81-6.82,2.48.72,1.93,2.28,2.15,4.23,2.35,8.16.82,15.94-2.2,24.08-2.06-3.3-.65-6.08-2.72-9.66-2.37-3.72.37-7.51.08-11.21.08-.79-2.96-2.23-3.9-5.05-2.02,1.07.37,1.89.66,4.42,1.54ZM28.1,85.32q3.19-.17,4.28-3.17c-1.61,1.19-2.7,2-4.28,3.17ZM22.86,84.67v.71h2.86v-.71h-2.86ZM48.36,82.37c-.17-.3-.34-.61-.51-.92-.16.16-.47.35-.45.47.07.34.29.64.45.96.16-.16.32-.32.51-.51Z"/>
      <path class="cls-1" d="M47.02,6.58c-.17.17-.4.47-.45.44-.31-.17-.58-.41-.86-.63.21-.21.42-.42.64-.64.23.28.45.55.67.83Z"/>
      <path class="cls-1" d="M44.28,4.32c.48.48.95.95,1.43,1.43-.48-.48-.95-.95-1.43-1.43Z"/>
      <path class="cls-1" d="M44.28,4.32h-1.43c.32-.39.64-.79.96-1.18.16.39.31.79.47,1.18Z"/>
    </g>
  </g>
</svg>