<?xml version="1.0" encoding="UTF-8"?>
<svg id="_레이어_2" data-name="레이어 2" xmlns="http://www.w3.org/2000/svg" viewBox="0 0 75.86 100">
  <defs>
    <style>
      .cls-1 {
        fill: #fff;
        stroke-width: 0px;
      }
    </style>
  </defs>
  <g id="_레이어_1-2" data-name="레이어 1">
    <g>
      <path class="cls-1" d="M11.95,90.2c15.07,1.6,30.11-2.03,44.66,2.68-.08,6.47-.54,7.08-6.23,7.1-15.77.05-31.54.02-48.23.02,0-3.02.24-6.09-.07-9.1-.28-2.62-1.73-5.17-1.68-7.74.06-3.22,1.64-6.41,1.67-9.63.18-18.29.09-36.59.08-54.89,0-3.94-2.81-7.28-2.01-11.54C.89,3.11,1.72,1.59,5.78,1.55c8.83-.1,17.67.11,26.5-.1,3.54-.08,7.07-.91,10.95-1.45.22.65.59,1.75,1.05,3.09,9.85,1.44,20.51-1.98,31.58,4.36-5.44,1.84-9.12,3.68-13.71,3.61-13.88-.2-27.76-.07-41.64-.07h-8.01c2.97,1.94,4.69,3.06,7.28,4.74-3.16,1.23-7.05.57-7.93,3.73-.78,2.82-3.08,5.35-2.12,8.61.09.29.01.63.01.94v15.21c12.39,3.94,24.93,3.81,37.96.04-1.96,4.81-3.35,8.24-4.94,12.13H11.95v33.8Z"/>
      <path class="cls-1" d="M64.93,74.92c-2.79,7.13-11.03,6.42-15.5,11.33.43-1.2.57-2.67,1.35-3.55,3.68-4.14,8.75-5.81,14.15-7.77Z"/>
      <path class="cls-1" d="M53.76,52.65v-3.79h.95v3.79h-.95Z"/>
      <path class="cls-1" d="M65.75,73.63c.22.22.62.53.58.6-.22.41-.55.77-.84,1.14l-.84-.84c.37-.3.74-.6,1.1-.9Z"/>
      <path class="cls-1" d="M21.09,25.19c-.42.21-.83.49-1.27.59-.16.03-.41-.38-.62-.59.42-.21.83-.49,1.27-.59.16-.03.41.38.62.59Z"/>
    </g>
  </g>
</svg>