<?xml version="1.0" encoding="UTF-8"?>
<svg id="_레이어_2" data-name="레이어 2" xmlns="http://www.w3.org/2000/svg" viewBox="0 0 68.5 100">
  <defs>
    <style>
      .cls-1 {
        fill: #fff;
        stroke-width: 0px;
      }
    </style>
  </defs>
  <g id="_레이어_1-2" data-name="레이어 1">
    <g>
      <path class="cls-1" d="M68.5,49.81c-1.92,3.32-4.26,3.46-6.85,3.45-15.03-.07-30.06-.04-45.09-.04h-4.82c-1.26,18.64-.88,26.89,1.74,33.5,7.68-.83,15.48.59,23.3,1.64,8.2,1.1,16.03-2.99,24.61-1.42,0,2.82.08,5.55-.02,8.28-.13,3.46-1.42,4.71-5.03,4.74-7.52.07-15.03.02-22.55.02H0V0h61.04v6.45c-8.42,0-16.74.38-25.02-.11-8.24-.49-16.14,1.66-24.48,2.03v34.83c1.64-.34,3.29-.71,4.95-1.03,1.3-.25,2.6-.61,3.91-.63,6.4-.07,12.82.24,19.2-.18,2.11-.14,3.79,2.8,6.33.35.76-.73,3.78,1.05,5.81,1.42,1.35.25,2.78.07,4.17.04,2.24-.05,4.68.62,6.34-1.66,2.04,2.69,4.08,5.39,6.27,8.28Z"/>
      <path class="cls-1" d="M61.86,41.11c-4.81,1.82-6.37-1.59-8.95-3.86,3.05-1.82,3.67.85,5.11,1.72,1.2.72,2.44,1.36,3.84,2.14Z"/>
      <path class="cls-1" d="M61.15,78.42c-1.73-3.09-2.54-4.54-3.35-5.98.35-.3.69-.6,1.04-.9.77.77,1.77,1.42,2.23,2.34.37.73.07,1.8.07,4.54Z"/>
    </g>
  </g>
</svg>