<?xml version="1.0" encoding="UTF-8"?>
<svg id="_레이어_2" data-name="레이어 2" xmlns="http://www.w3.org/2000/svg" viewBox="0 0 60.26 100">
  <defs>
    <style>
      .cls-1 {
        fill: #fff;
        stroke-width: 0px;
      }
    </style>
  </defs>
  <g id="_레이어_1-2" data-name="레이어 1">
    <g>
      <path class="cls-1" d="M1.67,2.36C11.5-1.39,21.11.54,30.55.19c.79-.03,1.63,1.34,2.43,2.06-1.81,4.19-5.25,4.72-9.24,4.54-4.39-.21-8.79-.05-13.48-.05v39.89c8.45,0,17.21.22,25.96-.11,3.17-.12,5.57,1.33,8.24,2.31.35.13.28,1.39.52,2.79h-27.46c-1.66,0-3.32.03-4.99,0-2.67-.05-4.12,1.58-4.15,3.9-.15,9.69-.2,19.39.1,29.08.04,1.23,2.37,3.51,3.5,3.42,8.08-.59,16.17,1.46,24.35-1.18,3.63-1.17,8.43-1.43,12.67,1.05,1.8,1.05,4.73.18,7.32.18v11.77c-11.27,0-22.56.32-33.81-.22-2.98-.14-6.54-2.58-9.18-1.23-4.29,2.18-8.46.9-13.15,1.63-.96-10.87,2.31-21.2,1.64-31.78-.7-11.03-.16-22.15-.16-33.23V2.36Z"/>
      <path class="cls-1" d="M45.16.68c-1.49,5.36-4.89,4.63-8.36,4.04Q38.24.15,45.16.68Z"/>
      <path class="cls-1" d="M50.02,49.96v-3.03h8.47c-.49,1.28-.75,2.87-1.16,2.92-2.38.24-4.79.12-7.31.12Z"/>
      <path class="cls-1" d="M59.33,27.87c-2.04-.61-4.08-1.23-6.41-1.93,1.16-.88,2.43-2.38,2.98-2.15,1.61.67,2.93,2.03,4.36,3.12-.31.32-.62.64-.92.96Z"/>
    </g>
  </g>
</svg>