<?xml version="1.0" encoding="UTF-8"?>
<svg id="_레이어_2" data-name="레이어 2" xmlns="http://www.w3.org/2000/svg" viewBox="0 0 56.94 100">
  <defs>
    <style>
      .cls-1 {
        fill: #fff;
        stroke-width: 0px;
      }
    </style>
  </defs>
  <g id="_레이어_1-2" data-name="레이어 1">
    <g>
      <path class="cls-1" d="M9.5,9.37c0,2.12.06,3.41-.01,4.69-.49,8.48,1.13,17.04-1.43,25.48-.87,2.85-.14,6.18-.14,9.64,11.17,0,21.93-.04,32.69.02,4.27.02,4.61.49,5.29,6.12H9.89c-.37,10.95-.72,21.34-1.11,31.72-.01.37-.43.73-1.02,1.68h49.17c-1.08,2.77-2.8,3.11-4.99,3.22-6.91.37-13.79,1.21-20.7,1.46-7.11.26-14.23.04-21.35.09-.66,0-1.32.38-3.11.94,16.82,2.16,32.9-1.8,48.39,3.26-9.61-.68-18.8,2.91-28.43,2.21-7.34-.54-14.75-.05-22.13-.13-3.39-.04-4.56-1.24-4.58-4.66-.07-9.22-.02-18.45-.02-27.68C.01,45.82.01,24.21.01,2.6,2.33,1.84,4.6.94,6.96.39c1.49-.35,3.22-.59,4.64-.17,10.49,3.09,21.2.84,31.79,1.49,2.83.17,5.69.03,8.66.03v7.63H9.5Z"/>
      <path class="cls-1" d="M54.01,56.85c-2.58,5.15-6.31,2.77-9.93,3.66,2.58-5.15,6.31-2.77,9.93-3.66Z"/>
    </g>
  </g>
</svg>