<?xml version="1.0" encoding="UTF-8"?>
<svg id="_레이어_2" data-name="레이어 2" xmlns="http://www.w3.org/2000/svg" viewBox="0 0 90.58 100">
  <defs>
    <style>
      .cls-1 {
        fill: #fff;
        stroke-width: 0px;
      }
    </style>
  </defs>
  <g id="_레이어_1-2" data-name="레이어 1">
    <path class="cls-1" d="M90.41,70.33c1.77,19.62-10.15,29.03-24.88,29.23-4.34.06-8.67.34-13.01.43-28.32.54-47.36-16.04-52.01-45.29C-3.07,32.18,12.56,9.34,36.81,1.66c24.77-7.84,50.68,13.21,47.89,39.16-.89,8.25-8,11.09-14.52,11.84-11.24,1.3-22.73,1.68-34.02,1-8.35-.51-10.75,2.58-10.16,10.07.28,3.51-.09,7.07.27,10.56,1.91,18.74,14.88,26.99,32.59,20.28,10.37-3.93,20.83-8.14,23.9-20.94.35-1.45,4.46-2,7.66-3.31ZM52.01,50.5c5.37-.63,11.56-1.24,17.71-2.11,4.74-.68,7.87-3.7,6.31-8.37-2.96-8.86-5.49-18.35-10.7-25.83-7.22-10.37-21.7-8.83-27.54,2.35-4.09,7.82-6.45,16.56-9.46,24.93-1.65,4.6-.14,7.25,5.02,7.57,5.94.36,11.87.92,18.66,1.46Z"/>
  </g>
</svg>