<?xml version="1.0" encoding="UTF-8"?>
<svg id="_레이어_2" data-name="레이어 2" xmlns="http://www.w3.org/2000/svg" viewBox="0 0 71.29 100">
  <defs>
    <style>
      .cls-1 {
        fill: #fff;
        stroke-width: 0px;
      }
    </style>
  </defs>
  <g id="_레이어_1-2" data-name="레이어 1">
    <g>
      <path class="cls-1" d="M71.29,85.81v5.97c-1.71,0-3.23.17-4.7-.04-1.82-.27-2.86.7-3.91,1.87-3.57,3.99-8.99,5.74-14.13,3.83-3.02-1.12-5.56-1.42-8.49.03-1.26.62-2.94.5-4.43.51-6.21.05-12.43-.09-18.64.07-2.93.08-5.74-.3-8.79,1.29-3.4,1.78-4.82-.11-6.77-4.45-1.11-2.44-1.4-4.71-1.4-7.19,0-17.86-.1-35.72.07-53.58.04-4.19,1.18-8.36,1.42-12.56.26-4.39-.33-8.85.21-13.18C2.04,5.85,3.79,3.52.34.55,5.45-.2,9.45.29,15.1,0c-3.15,2.34-5.08,3.77-6.68,4.96,1.1,3.52,2.15,6.88,3.32,10.64,3.48,1,1.76-4.3,4.69-4.44,3.29,2.5,2.77,5.83,1.44,9.15-2.36,5.92-2.43,5.89-1.85,13.98h31.67c1.81,0,3.63-.08,5.43.02,1.7.09,3.68-.73,4.9,1.26,1.35-.95,2.63-2.01,4.07-2.78.6-.33,1.52-.05,2.97-.05-.19,7.29,1.92,14.69-2.75,23.37v-19.31c-1.79.9-2.78,1.37-3.74,1.89-1.06.58-2.11,1.76-3.13,1.72-7.11-.3-13.93,2.64-21.11,1.7-2.8-.37-5.7-.24-8.53.02-1.36.12-2.64,1.08-5.37,2.27,7.17,1.37,12.92.58,18.6.73,5.94.15,11.88.03,17.91.03.5,2.41.99,4.74,1.57,7.53-2.61.62-5.91.05-9.14.24-11.12.64-22.25,1.3-33.5,1.96-.61,4.6-1.47,9.24-1.76,13.91-.31,4.87-.07,9.77-.07,15.2h27.96c4.92,0,9.85-.23,14.75.07,4.71.28,9.38,1.09,14.57,1.74ZM46.67,94.88c-.01-.25-.03-.5-.04-.75-2.52-.78-5.01-1.69-7.57-2.3-1.22-.29-3.08-.6-3.78.05-2.71,2.49-5.85,1.32-8.75,1.39-7.69.19-15.39.06-23.52.06.24,1.4.39,2.28.53,3.11,3.99,0,7.61.01,11.23,0,3.72-.02,7.5.41,10.96-1.48,3.22,2.7,6.17,1.21,9.66.16,3.47-1.04,7.5-.23,11.28-.23ZM12.5,18.37h4.38v-4.18c-1.54,1.47-2.87,2.74-4.38,4.18Z"/>
      <path class="cls-1" d="M14.12,4.03C16.32,1.15,19.27.06,22.91.09c10.06.09,20.12-.09,30.18.1,3.15.06,6.36.69,9.4,1.55,3.66,1.04,2.74,4.3,2.74,7.45-2.42.18-4.57.76-6.96-1.14-2.09-1.66-4.92-1.94-7.76-1.79-4.37.24-8.77.08-13.15.06-7.76-.05-15.6.68-23.24-2.3Z"/>
    </g>
  </g>
</svg>