<?xml version="1.0" encoding="UTF-8"?>
<svg id="_레이어_2" data-name="레이어 2" xmlns="http://www.w3.org/2000/svg" viewBox="0 0 67.28 100">
  <defs>
    <style>
      .cls-1 {
        fill: #fff;
        stroke-width: 0px;
      }
    </style>
  </defs>
  <g id="_레이어_1-2" data-name="레이어 1">
    <g>
      <path class="cls-1" d="M0,0h62.14v6.21c.12-.13-.07.26-.26.26-17.54.03-35.08.03-53.41.03,1.23,6.48-2.12,11.8-1.63,17.82.48,6.03.05,12.12.12,18.19.06,4.85,1.08,5.88,5.98,5.9,11.84.05,23.68-.03,35.52.04,4.3.03,4.78.79,4.95,6.71H7.13v44.85c-6.44,0-7.1-.48-7.11-5.61C-.01,68.11,0,41.82,0,15.54V0Z"/>
      <path class="cls-1" d="M23.65,89.24c4.93-1.58,9.2-2.9,13.99-2.75,9.74.29,19.49.09,29.63.09v10.41c-11.41,0-22.83-.12-34.25.07-3.79.06-6.65-.38-7.43-4.77-.17-.95-1.1-1.76-1.95-3.05Z"/>
    </g>
  </g>
</svg>