<?xml version="1.0" encoding="UTF-8"?>
<svg id="_레이어_2" data-name="레이어 2" xmlns="http://www.w3.org/2000/svg" viewBox="0 0 68.64 100">
  <defs>
    <style>
      .cls-1 {
        fill: #fff;
        stroke-width: 0px;
      }
    </style>
  </defs>
  <g id="_레이어_1-2" data-name="레이어 1">
    <path class="cls-1" d="M13.15,55.46v37.86c16.39,0,32.6.15,48.81-.08,5.81-.08,5.8-.5,6.68,5.55-.24.27-.44.59-.73.8-.27.2-.62.39-.94.39-22.19.02-44.39.02-66.98.02V0h57.09v7.94c-.45.14-1.41.7-2.37.7-13.67.06-27.33.04-41.37.04v34.93c-.15-.14.09.16.4.35.28.18.64.34.96.34,12.55.02,25.09.01,37.43.01,1.19,2.59,2.18,4.78,3.18,6.96-1.33,2.91-3.29,4.31-6.72,4.25-11.49-.19-22.98-.07-35.44-.07Z"/>
  </g>
</svg>