<?xml version="1.0" encoding="UTF-8"?>
<svg id="_레이어_2" data-name="레이어 2" xmlns="http://www.w3.org/2000/svg" viewBox="0 0 75.23 100">
  <defs>
    <style>
      .cls-1 {
        fill: #fff;
        stroke-width: 0px;
      }
    </style>
  </defs>
  <g id="_레이어_1-2" data-name="레이어 1">
    <path class="cls-1" d="M72.93,0c.86,1.91,1.42,3.16,2.3,5.11-1.4.6-3.1,1.99-4.75,1.92-18.55-.78-36.92,3.2-55.48,1.9-1.13-.08-2.27-.01-3.91-.01,0,8.64-.07,16.9.03,25.16.04,3.81,1.4,5.14,5.27,5.17,10.11.08,20.22.03,30.34.03,1.78,0,3.69-.4,5.32.11,1.76.54,5.32.51,2.26,4.44-.9,1.15,1.11,4.57,1.98,7.64-15.22.74-29.95,0-44.92.45v38.94h47.5c.82,3.86,1.03,6.94-2.27,9.13-18.4,0-36.84,0-55.28,0C-.07,92.46-.49,28.27.68,0h72.24Z"/>
  </g>
</svg>