<?xml version="1.0" encoding="UTF-8"?>
<svg id="_레이어_2" data-name="레이어 2" xmlns="http://www.w3.org/2000/svg" viewBox="0 0 57.03 100">
  <defs>
    <style>
      .cls-1 {
        fill: #fff;
        stroke-width: 0px;
      }
    </style>
  </defs>
  <g id="_레이어_1-2" data-name="레이어 1">
    <path class="cls-1" d="M0,2.19C4.96-.78,10.29-.08,15.16.57c9.2,1.23,12.38,1.31,20.69,0,3.78-.59,7.94-1.09,11.85.68,1.5.68,3.35.59,5.05.85-1.16,1.67-2.23,3.2-3.58,5.13H8.09c-.53,2.2-1.43,4.25-1.45,6.3-.14,11.77-.07,23.54-.07,35.86h29.15c3.4,0,6.82-.2,10.2.06,2.99.24,5.95,1,9.16,1.57,2.16,2.96,2.29,6.55,1.52,10.62-5.61,0-11.24-.12-16.86.05-2.78.08-5.73-.92-8.35,1.23-.68.56-2.4.48-3.3.02-5.12-2.66-10.54-.87-15.8-1.18-1.75-.11-3.58,1.08-5.42,1.7-1.3,4.83,2.38,9.35.59,14.65-1.49,4.45-.84,9.62-1.15,14.71h44.88v5.59c-10.44,0-20.83-.1-31.21.05-4.59.06-9.23-.8-13.77,1.2-1.69.74-3.97.12-6.21.12V2.19Z"/>
  </g>
</svg>