<?xml version="1.0" encoding="UTF-8"?>
<svg id="_레이어_2" data-name="레이어 2" xmlns="http://www.w3.org/2000/svg" viewBox="0 0 65.53 100">
  <defs>
    <style>
      .cls-1 {
        fill: #fff;
        stroke-width: 0px;
      }
    </style>
  </defs>
  <g id="_레이어_1-2" data-name="레이어 1">
    <path class="cls-1" d="M2.01,0h59.59c-.68,2.33-1.28,4.39-2.02,6.94H23.64c-1.9,0-3.8-.03-5.71,0-4.27.09-6.62,2.53-4.76,6.18,2.26,4.44.48,8.77,1.24,13.06-2.84,6.53-.72,13.39-1.56,20.04,12.59,3.48,25.28,1.62,38.24,2.21.68,2.52,1.4,5.21,2.22,8.29H13.31v32.4c5.01,2.7,10.38,2.01,15.66,2.03,12.1.04,24.2.01,36.56.01v7.85c-5.57,1.03-42.54,1.34-63.97.47v-6.91c0-23.06.05-46.12-.04-69.18-.02-4.1.8-8.27-1.24-12.32-.7-1.38.14-3.6.44-5.4.29-1.77.79-3.5,1.3-5.68Z"/>
  </g>
</svg>