<?xml version="1.0" encoding="UTF-8"?>
<svg id="_레이어_2" data-name="레이어 2" xmlns="http://www.w3.org/2000/svg" viewBox="0 0 68.37 100">
  <defs>
    <style>
      .cls-1 {
        fill: #fff;
        stroke-width: 0px;
      }
    </style>
  </defs>
  <g id="_레이어_1-2" data-name="레이어 1">
    <path class="cls-1" d="M11.43,56.82c-1.13,11.8,1.36,23.24-1.86,34.74h37.56v7.98c.12-.13-.01.07-.19.2-.17.12-.39.24-.59.24-14.82.01-29.65.01-44.22.01C-.49,95.12.05,90.12.04,85.2c-.01-28.3,0-56.61,0-85.2h66.22c1.24,2.17,2.93,4.57,1.66,7.9H10.1v39.08h44.03c.92,2.73-3.3,5.51.11,7.87-.66.66-1.22,1.7-1.99,1.88-1.32.31-2.77.09-4.16.09H11.43Z"/>
  </g>
</svg>