<?xml version="1.0" encoding="UTF-8"?>
<svg id="_레이어_2" data-name="레이어 2" xmlns="http://www.w3.org/2000/svg" viewBox="0 0 79.19 100">
  <defs>
    <style>
      .cls-1 {
        fill: #fff;
        stroke-width: 0px;
      }
    </style>
  </defs>
  <g id="_레이어_1-2" data-name="레이어 1">
    <path class="cls-1" d="M0,0h63.73c.69,4.69,1.36,9.27,2.03,13.92-13.87,3.91-28.43,2.22-43.54,2.59-.12,1.93-.3,3.93-.34,5.94-.14,6.56.72,13.2-1.8,19.57-.4,1.02-.06,2.33-.06,3.82h42.57c4.18,3.24,7.59,5.88,11.78,9.12H20.16c-.31,5.05-.1,9.87-.14,14.67-.04,4.88,0,9.76,0,15.24,9.16,0,18.31,1.41,26.78-.39,8.83-1.87,17.42-.94,26.1-1.38,5.13-.26,6.17,1.1,6.27,6.34.06,3.08.01,6.16.01,9.23-7.56,1.4-51.87,1.79-79.17.68V0Z"/>
  </g>
</svg>