<?xml version="1.0" encoding="UTF-8"?>
<svg id="_레이어_2" data-name="레이어 2" xmlns="http://www.w3.org/2000/svg" viewBox="0 0 71 100">
  <defs>
    <style>
      .cls-1 {
        fill: #fff;
        stroke-width: 0px;
      }
    </style>
  </defs>
  <g id="_레이어_1-2" data-name="레이어 1">
    <path class="cls-1" d="M16.42,58.86v27.33h54.57c0,3.57-.03,6.93,0,10.29.02,2.2-1.3,3.14-3.21,3.46-.89.15-1.82.03-2.73.03-20.99,0-41.97,0-62.96,0-.64,0-1.29-.11-2.1-.19V1.4h20.22c1.6,0,3.27.32,4.78-.05,6.88-1.71,6.88-1.87,15.55.02,1.31.29,2.73.04,4.1.04h24.54c.64,2.48,1.68,4.75,1.68,7.01,0,2.02-1.16,4.04-1.92,6.42-4.98,2.27-10.8,1.61-16.53,1.62-11.85.03-23.7,0-36.16,0v26.87c12.57,3.03,24.97,1.53,37.29,1.87,4.54.13,5.04.58,5.14,4.97.02.91,0,1.82,0,2.74v5.96c-14.03-.66-27.86,3.89-42.25,0Z"/>
  </g>
</svg>