<?xml version="1.0" encoding="UTF-8"?>
<svg id="_레이어_2" data-name="레이어 2" xmlns="http://www.w3.org/2000/svg" viewBox="0 0 79.61 100">
  <defs>
    <style>
      .cls-1 {
        fill: #fff;
        stroke-width: 0px;
      }
    </style>
  </defs>
  <g id="_레이어_1-2" data-name="레이어 1">
    <path class="cls-1" d="M79.61,71.35c-7.74,18.97-21.93,27.58-42.47,28.59-17.16.85-27.05-8.42-32.52-22.03C-4.71,54.71-.79,23.24,24.51,6.56c11.66-7.68,25.47-9.13,38.56-1.59,9.07,5.23,11.63,18.94,6.64,32.08-3.57,9.42-9.53,15.01-20.22,14.79-8.83-.18-17.67.31-26.5.36-4.45.02-5.95,1.45-5.68,6.37.45,8.28,2.24,15.53,7.14,22.55,9.54,13.66,22.84,16.56,36.03,6.35,4.73-3.66,8.64-8.4,12.9-12.67,1.63-1.64,3.2-3.33,4.8-5,.48.52.96,1.04,1.44,1.55ZM35.13,47.34c0,.06,0,.12.01.18,4.76-.31,9.61-.17,14.24-1.11,2.16-.44,4.71-2.56,5.66-4.59,1.66-3.57,2.81-7.61,3.11-11.53.47-6.17,3.49-13-3.69-17.85-6.54-4.42-12.96-4.4-21.01.43-8.47,5.08-11.54,13.6-14.07,22.27-3.28,11.24-2.48,12.05,8.97,12.19,2.26.03,4.52,0,6.78,0Z"/>
  </g>
</svg>