<?xml version="1.0" encoding="UTF-8"?>
<svg id="_레이어_2" data-name="레이어 2" xmlns="http://www.w3.org/2000/svg" viewBox="0 0 133.92 100">
  <defs>
    <style>
      .cls-1 {
        fill: #fff;
        stroke-width: 0px;
      }
    </style>
  </defs>
  <g id="_레이어_1-2" data-name="레이어 1">
    <path class="cls-1" d="M0,97c2.2-1.25,4.32-2.69,6.62-3.71,12.25-5.4,18.31-16.1,17.64-29.87-.79-16.04-8.23-29.62-15.1-43.46-1.16-2.35-2.27-4.72-3.46-7.19C28.9,8.42,51.53,3.54,74.4.28c6.77-.97,18.8.61,20.46,4.46,5.16,11.95,7,25.48,8.94,38.58.42,2.85-11.81,2.22-16.7-.59-16.51-9.5-34.03-16.23-53.32-17.3-1.02-.06-2.08.64-4.79,1.54,3.26,3.46,5.27,7.07,8.3,8.5,5.19,2.45,5.14,11.13,12.89,10.35.56-.06,2.27,3.66,2.1,5.49-.62,6.8-1.49,13.61-2.83,20.3-1.99,9.92.46,13.3,10.49,13.09,21.06-.43,42.12-1.16,63.19-1.26,4.01-.02,10.38-1.43,10.76,5.72.38,6.9-2.51,10.87-10.39,10.83-40.91-.21-81.82-.1-122.73-.1-.25-.97-.51-1.94-.76-2.91Z"/>
  </g>
</svg>