<?xml version="1.0" encoding="UTF-8"?>
<svg id="_레이어_2" data-name="레이어 2" xmlns="http://www.w3.org/2000/svg" viewBox="0 0 79.66 100">
  <defs>
    <style>
      .cls-1 {
        fill: #fff;
        stroke-width: 0px;
      }
    </style>
  </defs>
  <g id="_레이어_1-2" data-name="레이어 1">
    <g>
      <path class="cls-1" d="M34.56,12.11c10.85,1.11,20.64,2.11,30.43,3.11,3.6,2.22,7.19,4.44,12.23,7.55.92-8.19,1.63-14.49,2.45-21.73-3.63,0-5.73.03-7.83,0C47.89.68,23.94.31,0,0c.17,3.32.27,6.64.31,9.97,2.12.68,3.83,1.23,5.54,1.77v88.26h64.03v-23.44c-11.89,8.08-21.95,16.09-36.14,11.22.57-12.88-5.29-25.78.81-36.74V12.11Z"/>
      <path class="cls-1" d="M55.73,58.84c-6.44-2.57-12.32-4.91-18.19-7.26.04-.75.07-1.5.11-2.25,3.13-1.08,6.25-2.16,10.62-3.66,2.06-6.73,4.35-14.2,6.81-22.21,7.64,1.74,8.88,6.94,9.45,12.38,1.45,13.78.25,16.86-8.8,23Z"/>
    </g>
  </g>
</svg>