<?xml version="1.0" encoding="UTF-8"?>
<svg id="_레이어_2" data-name="레이어 2" xmlns="http://www.w3.org/2000/svg" viewBox="0 0 113.1 100">
  <defs>
    <style>
      .cls-1 {
        fill: #fff;
        stroke-width: 0px;
      }
    </style>
  </defs>
  <g id="_레이어_1-2" data-name="레이어 1">
    <path class="cls-1" d="M26.87,55.77c5.1,15.27,19.23,26.18,33.61,24.05,11.34-1.68,20.37-6.38,25.39-17.29,1.54-3.35,3.46-6.55,5.43-9.68,2.32-3.69,1.56-6.28-2.65-8.18,4.46-4.9,9.84-6.33,16.62-5.22,2.42,3.2,5.04,6.66,7.82,10.34-9.03,28.93-37.94,51.07-65.91,50.17C23.09,99.2,2.25,79.82.13,55.99c-.29-3.29-.12-6.85.82-10C8.96,19.13,39.89-1.43,63.12.08c14.5.94,22.31,8.62,29.23,19.09,2.19,3.31,3.2,7.41,5.05,11.85-23.59,8.46-48.35,12.38-70.53,24.76ZM26.99,47.86c.29.32.57.63.94,1.04-.47-.3-.84-.54-1.21-.78.29-1.35.57-2.7.98-4.6,2.63.96,4.56,1.66,5.74,2.08,6.58-3.11,12.57-5.87,18.5-8.77,6.08-2.97,12.1-6.06,18.88-9.47-18.86-13.92-42.68-2.74-48.81,21.83,1.94-.52,3.46-.92,4.99-1.33Z"/>
  </g>
</svg>