<?xml version="1.0" encoding="UTF-8"?>
<svg id="_레이어_2" data-name="레이어 2" xmlns="http://www.w3.org/2000/svg" viewBox="0 0 45.85 100">
  <defs>
    <style>
      .cls-1 {
        fill: #fff;
        stroke-width: 0px;
      }
    </style>
  </defs>
  <g id="_레이어_1-2" data-name="레이어 1">
    <path class="cls-1" d="M4.93.97c4.41.2,8.77.28,13.13-.97,0,.41,0,.68,0,.96,0,10.05,0,20.11-.02,30.16,0,1.26-.2,2.51-.3,3.77-.02.28,0,.57.03.85.12,1.09-.14,1.98-1.05,2.71-.49.39-.79,1.04-1.33,1.78,1.11.09,2.02.22,2.92.22,8.31.02,16.62.03,24.94.04.28,0,.56,0,.93,0v13.36c-.22,0-.5,0-.77,0-7.2-.01-14.39-.04-21.59-.02-1.72,0-3.45.24-5.17.26-1.93.02-3.86-.08-5.78-.13-.43-.01-.86,0-1.42,0,.93.41,1.71.77,2.68,1.2.19.03.69-.05.99.16.69.48,1.47.33,2.19.39.9.08,1.83.25,2.75-.08.69-.25,1.06.1,1.07.96.03,3.71.02,7.43.05,11.14.04,5.77.1,11.53.15,17.3.01,1.1.02,1.09,1.11,1.1,8.16.02,16.31.04,24.47.07.28,0,.56,0,.94,0v13.82c-.57,0-1.16,0-1.75,0-14.29-.03-28.57-.05-42.86-.08-1.18,0-1.18,0-1.2-1.19-.02-1.19-.02-2.39-.04-3.58,0-.36.07-.56.51-.59,1.1-.08,1.6-.54,1.7-1.69.12-1.45.21-2.9.21-4.36-.01-8.39-.11-16.78-.07-25.17.03-6.73.14-13.45.38-20.18.21-6.15.65-12.29.97-18.43.24-4.56.45-9.13.67-13.69.16-3.19.32-6.38.49-9.57,0-.13.04-.25.08-.5Z"/>
  </g>
</svg>