<?xml version="1.0" encoding="UTF-8"?>
<svg id="_레이어_2" data-name="레이어 2" xmlns="http://www.w3.org/2000/svg" viewBox="0 0 50.63 100">
  <defs>
    <style>
      .cls-1 {
        fill: #fff;
        stroke-width: 0px;
      }
    </style>
  </defs>
  <g id="_레이어_1-2" data-name="레이어 1">
    <path class="cls-1" d="M20.05,82.96c3.01.14,5.46.36,7.91.35,6.68-.03,13.36-.16,20.04-.26,1.46-.02,2.21.55,2.26,2.1.09,3.27.39,6.53.38,9.8-.02,3.97-1.43,4.45-4.68,4.81-5.5.6-10.93.01-16.38-.64-1.56-.19-3.2.38-4.8.32-3.49-.11-6.94-.56-10.47-.06-1.33.19-2.82-.88-4.27-1.27-1.2-.33-2.45-.5-3.67-.74-.2.16-.41.31-.61.47-.08-1.04-.09-2.1-.27-3.13-.23-1.26-.61-2.48-1.02-4.08-.83.68-1.22.99-1.9,1.55-.62-1.36-1.59-2.6-1.69-3.9-.36-4.91-.49-9.84-.62-14.76C.12,67.61-.05,61.71.01,55.82c.05-4.29.56-8.58.66-12.88.11-4.79-.02-9.59-.03-14.38,0-2.38.02-4.76.04-7.14.05-4.84.1-9.67.17-14.51C.94.17,2.25.53,8.17.35c3.15-.1,6.3-.31,9.45-.22,1.66.05,3.3.62,4.97.96.38-.16.95-.58,1.55-.63,1.35-.12,2.71-.04,4.07-.07C33.9.25,39.6.07,45.3,0c2.69-.03,3.04.14,3.25,2.7.37,4.44.49,8.9.58,13.35.04,1.73-.89,2.46-2.76,2.64-4.38.42-8.73.04-13.11-.2-4.03-.22-8.11.28-12.16.62-1.58.13-1.91,1.53-1.74,3.78.24,3.05.14,6.13.19,9.2.03,2.45.07,4.89.09,7.34.01,1.76,0,3.52,0,5.41,3.59.27,6.74.62,9.89.71,3.96.11,7.92-.01,11.88,0,2.72,0,3.51.55,3.65,3.29.2,3.98.2,7.98.04,11.96-.09,2.23-.69,2.49-2.92,2.46-2.84-.04-5.68.06-8.51,0-4.23-.09-8.46-.26-12.68-.44-.44-.02-.86-.33-1.62-.63.23,6.95.45,13.74.67,20.79Z"/>
  </g>
</svg>