<?xml version="1.0" encoding="UTF-8"?>
<svg id="_레이어_2" data-name="레이어 2" xmlns="http://www.w3.org/2000/svg" viewBox="0 0 44.21 100">
  <defs>
    <style>
      .cls-1 {
        fill: #fff;
        stroke-width: 0px;
      }
    </style>
  </defs>
  <g id="_레이어_1-2" data-name="레이어 1">
    <path class="cls-1" d="M33.78,17.45c-3.38,0-6.59.13-9.78-.04-3.43-.18-5.44.95-5.41,4.67,0,1.4-.1,2.82-.27,4.21-.95,7.86-.93,7.74,6.61,9.62,1.2.3,2.35,2.02,2.92,3.35,1.09,2.58,1.75,5.35,2.76,8.58-1.13,1.99-3.25,2.77-6.47,2.45-6.9-.69-7.5,0-6.65,7.08.84,6.97,1.97,13.91,3.32,20.79.21,1.08,2.26,2.47,3.5,2.51,1.67.06,3.4-1.02,5.07-1.71.24-.1.22-.78.34-1.18q2-6.37,9.17-5.31v6.31c1.72-.24,3.14-.44,4.94-.69.13,1.66.23,3.01.36,4.71h-6.89c.27,1.6.47,2.98.73,4.35.2,1.04.74,2.09.64,3.09-.93,9.91-.95,9.85-10.88,9.72-7.17-.1-14.33-.07-21.5-.01-4.59.03-6.25-1.53-6.14-6.41.51-22.49,1.26-44.98,1.53-67.48C1.79,19.07.72,12.06.06,5.07-.25,1.79.58.2,4.35.3,10.82.48,17.3.12,23.77,0c5.57-.1,5.56,1.24,8.25,6.26,2.09,3.9,1.77,7.2,1.76,11.18Z"/>
  </g>
</svg>