<?xml version="1.0" encoding="UTF-8"?>
<svg id="_레이어_2" data-name="레이어 2" xmlns="http://www.w3.org/2000/svg" viewBox="0 0 36.46 100">
  <defs>
    <style>
      .cls-1 {
        fill: #fff;
        stroke-width: 0px;
      }
    </style>
  </defs>
  <g id="_레이어_1-2" data-name="레이어 1">
    <g>
      <path class="cls-1" d="M18.11,99.98c-4.9,0-9.8-.03-14.7.02-1.87.02-2.57-.68-2.53-2.63.11-5.99.09-11.98,0-17.97-.02-1.69.45-2.32,2.23-2.31,9.33.07,18.67.03,28.01.04,2.45,0,4.33,1.77,4.35,4.17.06,5.52,0,11.05.1,16.57.03,1.76-.86,2.12-2.29,2.11-5.06,0-10.11,0-15.17,0h0Z"/>
      <path class="cls-1" d="M19.89.03c4.74,0,9.48.06,14.22-.03,1.66-.03,2.38.37,2.35,2.19-.1,5.21-.09,10.41,0,15.62.03,1.73-.61,2.36-2.31,2.33-10.41-.16-20.81-.26-31.22-.41C1.09,19.7,0,18.66,0,16.81,0,12.54.02,8.27.15,4,.22,1.55,2.11.09,5.2.05c4.9-.06,9.79-.02,14.69-.02Z"/>
      <path class="cls-1" d="M23.32,42.55c3.35,0,6.69.07,10.04-.03,1.61-.05,2.2.47,2.16,2.13-.09,4.2-.09,8.4,0,12.6.04,1.56-.57,2.07-2.02,2.06-6.92-.04-13.85-.05-20.77-.05-1.27,0-1.55-.65-1.55-1.77.03-4.36.05-8.72-.01-13.07-.02-1.41.44-1.93,1.88-1.9,3.42.08,6.85.02,10.27.02Z"/>
    </g>
  </g>
</svg>