<?xml version="1.0" encoding="UTF-8"?>
<svg id="_레이어_2" data-name="레이어 2" xmlns="http://www.w3.org/2000/svg" viewBox="0 0 73.57 100">
  <defs>
    <style>
      .cls-1 {
        fill: #fff;
        stroke-width: 0px;
      }
    </style>
  </defs>
  <g id="_레이어_1-2" data-name="레이어 1">
    <path class="cls-1" d="M21.14,59.16c.47,1.08.61,2.25,1.25,2.68,1.67,1.15,1.77,2.8,1.83,4.46.22,5.74,3.55,8.99,9.25,9.08,10.92.16,21.83.37,32.75.58,1.31.03,2.69.02,3.91.41.92.3,2,1.07,2.35,1.9.62,1.45.97,3.1,1.01,4.68.12,4.33.05,8.68.02,13.01-.02,2.77-1.44,4.08-4.2,4.03-6.65-.12-13.3-.23-19.95-.33-.53,0-1.08.03-1.61.12-2.37.4-3.02-.16-3.05-2.64-.02-1.94-.02-3.87-.08-5.81-.02-.93-.1-1.86-.24-2.77-.61-3.95-1.5-4.77-5.31-5.28-5.47-.73-10.93-1.6-16.4-2.28-2.91-.36-5.85-.59-8.78-.64-2.95-.05-5.7-.66-7.79-2.74C3.03,74.52-.06,71.56,0,66.44c.21-16.41.06-32.83.11-49.25.01-3.86.18-7.73.43-11.59C.75,2.26,3.26.03,6.6.03c16.12,0,32.24,0,48.36,0,3.64,0,7.29.04,10.93-.02,1.42-.03,2.13.29,2.1,1.92-.08,5.11-.07,10.23,0,15.34.02,1.45-.52,1.87-1.91,1.85-14.02-.19-28.04-.32-42.06-.52-.77-.01-1.53-.47-2.58-.81,0,1.33,0,2.6,0,3.87-.03,5.11-.16,10.21-.07,15.32.04,2.46,1.6,3.91,4.09,3.95,11.07.19,22.15.32,33.22.44,2.39.03,4.78-.13,7.16-.1,1.48.02,2.17.84,2.15,2.4-.06,4.57-.06,9.15,0,13.72.02,1.44-.64,1.96-1.95,1.94-4.41-.07-8.82-.19-13.23-.17-2.32,0-4.63.34-6.95.36-6.97.06-13.93.05-20.9.03-1.05,0-2.11-.2-3.81-.38Z"/>
  </g>
</svg>