<?xml version="1.0" encoding="UTF-8"?>
<svg id="_레이어_2" data-name="레이어 2" xmlns="http://www.w3.org/2000/svg" viewBox="0 0 70.92 100">
  <defs>
    <style>
      .cls-1 {
        fill: #fff;
        stroke-width: 0px;
      }
    </style>
  </defs>
  <g id="_레이어_1-2" data-name="레이어 1">
    <path class="cls-1" d="M66.09,41.98c0,5.39.06,10.57-.1,15.75-.02.5-1.35,1.36-2.1,1.38-4.88.19-9.78.25-14.67.25-7.45,0-14.89-.11-22.34-.11-3.38,0-6.84.33-8.84,3.46-.99,1.56-1.22,3.65-1.57,5.55-.23,1.2-.07,2.48-.05,3.72.05,3.51,2.01,5.43,5.62,5.43,15.38,0,30.76.03,46.14-.02,1.86,0,2.58.12,2.47,2.49-.25,5.65.01,11.32.24,16.98.11,2.83.2,2.94-2.57,2.94-16.39,0-32.77,0-49.16.01-3.88,0-7.76.32-11.63.15-3.66-.16-6.46-3.11-6.44-6.82.04-9.7.29-19.41.4-29.11.01-1.25-.29-2.52-.48-3.77-.28-1.84-.73-3.66-.88-5.51-.16-2.01-.19-4.05-.04-6.05.19-2.54.68-5.05.93-7.58.2-1.93.31-3.87.33-5.8.09-10.32-.19-20.65.34-30.95C1.96-.7.88.04,6.24.04c19.1.02,38.2.09,57.3.17,1.55,0,3.1.26,4.65.22,1.51-.04,1.82.69,1.8,2-.04,3.57.26,7.17-.06,10.71-.21,2.25-1.22,4.44-2.06,6.59-.15.39-1.21.61-1.84.61-8.61.03-17.22,0-25.82,0-6.05,0-12.11.04-18.16.12-2.82.04-4.05,1.2-4.11,4.08-.06,3.4-.16,6.83.24,10.2.58,4.89,3.55,6.98,9.17,7.13,11.88.32,23.77.1,35.65.1.85,0,1.7,0,3.1,0Z"/>
  </g>
</svg>