<?xml version="1.0" encoding="UTF-8"?>
<svg id="_레이어_2" data-name="레이어 2" xmlns="http://www.w3.org/2000/svg" viewBox="0 0 107.9 100">
  <defs>
    <style>
      .cls-1 {
        fill: #fff;
        stroke-width: 0px;
      }
    </style>
  </defs>
  <g id="_레이어_1-2" data-name="레이어 1">
    <path class="cls-1" d="M46.36.7C31.11.88,15.86,1.22.61,1.35c-.23,1.17-.43,2.35-.61,3.52,4.41.13,8.83.46,13.24.75,2.59.17,3.16,1.47,3.11,3.82-.41,20.36-.6,40.73-1.14,61.09-.16,5.95-1.18,11.88-1.91,17.8-.11.87-.51,2.03-1.16,2.44-2.72,1.72-5.59,3.21-8.41,4.78,31.17,2.35,62.28-2.21,93.3,4.45.94-14.05-2.69-26.79-4.29-39.83-.76.87-1,1.74-1.16,2.62-1.15,6.34-2.02,12.75-3.51,19.01-1.73,7.3-5,9.84-12.3,10.11-6.09.22-12.22-.27-18.27.27-11.63,1.04-23.21,2.46-35.54-1.98,0-6.46-.02-13.26.03-20.06,0-.67.39-1.39.75-1.99,2.21-3.67,5.29-5.82,9.74-6.16,4.47-.35,9.15-.45,13.29-1.93,5.65-2.02,6.66-1.96,8.42,3.89.5,1.68,1.37,3.24,2.06,4.86.52-.11,1.05-.21,1.57-.32.68-8.04,1.35-16.09,2.03-24.13-.32-.07-.64-.14-.96-.21-2.48,2.25-4.58,5.4-7.49,6.59-9.4,3.84-19.09,6.96-29.15,10.54-2.61-17.7.39-36.14-1.5-54.65,2.18-.12,4.1-.23,6.03-.34,16.19-.9,32.39-1.69,48.53.69,7.92,1.17,8.51,1.82,9.81,9.83,1.06,6.56,1.66,13.26,5.68,18.89.57.8,1.98,1.72,2.7,1.51.77-.22,1.58-1.66,1.68-2.63.4-3.98.38-8,.81-11.97.54-4.92,1.37-9.81,2.11-14.97h9.31c.24-2.55.43-5.1.5-7.65-20.51.22-41.03.46-61.54.7Z"/>
  </g>
</svg>