<?xml version="1.0" encoding="UTF-8"?>
<svg id="_레이어_2" data-name="레이어 2" xmlns="http://www.w3.org/2000/svg" viewBox="0 0 99.11 100">
  <defs>
    <style>
      .cls-1 {
        fill: #fff;
        stroke-width: 0px;
      }
    </style>
  </defs>
  <g id="_레이어_1-2" data-name="레이어 1">
    <path class="cls-1" d="M24.11,30.29C42.35,23.63,57.34,14.24,69.79,0c2.85,6.14,8.71.56,12.93,2.78,1.73,3.58,0,5.95-2.58,7.9-12.02,9.06-24.57,17.22-38.77,22.52-6.32,2.36-12.67,4.66-20.71,7.62,8.39,2.79,16.23-.85,22.69,3.83-1.14,4.42-4.91,5.01-7.81,5.33-6.53.73-13.17.77-19.76.73-5.57-.03-7.09,1.73-4.71,6.75,1.61,3.41,3.46,6.86,5.91,9.68,5.81,6.66,8.52,15.82,16.58,20.63,13.25,7.91,26.32,5.35,39.29-.8,2.03-.96,3.92-2.2,5.86-3.35,5.35-3.16,10.02-6.87,12.13-13.14,1.65-4.92,1.85-4.86,8.28-1.32-1.59,2.98-2.74,6.39-4.9,8.95-9.44,11.19-21.36,18.5-35.84,21.14-10.08,1.84-19.37.41-28.15-5.8-12.12-8.57-22.12-18.66-27.71-32.57C1.2,57.64.14,54.07.05,50.63c-.16-6.01-.03-12.14,1.02-18.04,1.1-6.23,4.95-11.19,10.69-14.12,5.16-2.63,8.58-.78,10.26,4.99.55,1.9,1.15,3.78,2.09,6.83Z"/>
  </g>
</svg>