<?xml version="1.0" encoding="UTF-8"?>
<svg id="_레이어_2" data-name="레이어 2" xmlns="http://www.w3.org/2000/svg" viewBox="0 0 101.39 100">
  <defs>
    <style>
      .cls-1 {
        fill: #fff;
        stroke-width: 0px;
      }
    </style>
  </defs>
  <g id="_레이어_1-2" data-name="레이어 1">
    <path class="cls-1" d="M29.9,71.16c16.7,0,33.22.02,49.74,0q19.51-.02,19.39,19.32-.06,9.45-9.89,9.45c-24.73-.05-49.48.38-74.19-.39-11.96-.37-15.31-3.45-14.93-14.23.73-20.75.8-41.51,1.41-62.27C1.78,11.41,9.82,3.95,21.12,3.87c19.36-.13,38.73-.14,58.08-.72,6.92-.21,13.79-1.91,22.16-3.15,0,8.85.17,18.74-.23,28.62-.04,1.11-3.31,3-5.04,2.96-6.68-.16-13.33-1.33-20-1.45-12.13-.21-24.27.09-36.41.12q-11.66.03-10.03,12.91c7.48,0,15.1,0,22.73,0,13.07,0,26.15.23,39.21-.14,5.82-.17,7.16,2.04,6.72,7.4-.85,10.27-.62,10.23-11.32,10.28-16.57.08-33.14.58-49.7.21-7.26-.16-9.25,2.51-7.37,10.24Z"/>
  </g>
</svg>