<?xml version="1.0" encoding="UTF-8"?>
<svg id="_레이어_2" data-name="레이어 2" xmlns="http://www.w3.org/2000/svg" viewBox="0 0 44 95.11">
  <defs>
    <style>
      .cls-1 {
        fill: #fff;
        stroke-width: 0px;
      }
    </style>
  </defs>
  <g id="_레이어_1-2" data-name="레이어 1">
    <path class="cls-1" d="M.21,51.21C-.44,32.85.66,17.97.58,3.08c-.01-2.06.52-2.81,2.72-2.82C15.16.26,27.02.05,38.88,0c4.47-.02,4.47.1,4.67,4.4q.35,7.26-6.9,7.27c-6.53,0-13.06.07-19.59-.01-2-.03-2.81.35-2.76,2.65.18,7.82.15,15.66.05,23.48-.02,1.99.51,2.61,2.55,2.57,7.07-.13,14.15,0,21.22-.12,1.8-.03,2.66.36,2.46,2.3-.11,1.08,0,2.17,0,3.26.03,7.08.03,7.14-7.18,7.22-5.44.06-10.88.03-16.32-.15-1.99-.06-2.62.44-2.59,2.51.13,7.5.14,15,0,22.5-.04,2.24.49,3.02,2.84,2.98,7.4-.12,14.8.08,22.19-.05,3.21-.06,4.6,1.03,4.32,4.37-.2,2.48,0,5,.12,7.5.08,1.6-.35,2.38-2.16,2.37-13.16-.04-26.33-.04-39.49.06-2.16.02-2.16-1.11-2.15-2.67.03-14.89.02-29.79.02-41.23Z"/>
  </g>
</svg>