<?xml version="1.0" encoding="UTF-8"?>
<svg id="_레이어_2" data-name="레이어 2" xmlns="http://www.w3.org/2000/svg" viewBox="0 0 118.56 100">
  <defs>
    <style>
      .cls-1 {
        fill: #fff;
        stroke-width: 0px;
      }
    </style>
  </defs>
  <g id="_레이어_1-2" data-name="레이어 1">
    <path class="cls-1" d="M26.43,36.81c26.84-2.35,53.43-.66,80-1.06,15.53-.24,8.6,11.21,9.87,18.14,1.53,8.33-3.26,9.93-10.71,9.69-22.09-.71-44.22.58-66.32-1-3.61-.26-8.76-2.4-9.27,5.05-.48,7.21,3.24,8.42,8.93,8.44,21.76.05,43.52.52,65.27.05,9.66-.21,14.22.84,14.35,12.86.15,13.29-7.24,10.86-14.72,10.86-31.39,0-62.78-.22-94.16.16C2.28,100.08-.05,98.13,0,90.51.17,62.73.42,34.98,2.13,7.23,2.47,1.69,4.1-.1,9.66,0c33.52.61,67.04,1.06,100.57,1.2,5.95.03,7.88,1.6,7.91,7.76.08,15.93.41,15.93-15.03,15.93-21.4,0-42.82.52-64.2-.24-9.56-.34-12.32,3.71-12.48,12.14Z"/>
  </g>
</svg>