<?xml version="1.0" encoding="UTF-8"?>
<svg id="_레이어_2" data-name="레이어 2" xmlns="http://www.w3.org/2000/svg" viewBox="0 0 127.21 100">
  <defs>
    <style>
      .cls-1 {
        fill: #fff;
        stroke-width: 0px;
      }
    </style>
  </defs>
  <g id="_레이어_1-2" data-name="레이어 1">
    <g>
      <path class="cls-1" d="M125.55,0C83.8,0,42.04.01.29.06c-.08,5.27-.18,10.55-.29,15.84.49,0,.98-.01,1.46-.02,40.19-.12,80.39-.13,120.58-.18,1.66,0,3.33-.15,4.87-.23V.29c-.7-.16-1.04-.29-1.37-.29Z"/>
      <path class="cls-1" d="M125.83,58.65v22.25H2.18v-22.25h123.66Z"/>
      <path class="cls-1" d="M2.45,47.24v-20.8h122.31v20.8H2.45Z"/>
      <path class="cls-1" d="M18.5,94.75c5.56,0,10.91-.01,16.26,0,29.11.08,58.22.14,87.33.27,2.7.01,6.49-.65,4.61,4.63-1.56.08-3.09.23-4.63.24-32.92.03-65.85.01-98.77.11-3.39.01-5.41-.77-4.81-5.25Z"/>
    </g>
  </g>
</svg>