<?xml version="1.0" encoding="UTF-8"?>
<svg id="_레이어_2" data-name="레이어 2" xmlns="http://www.w3.org/2000/svg" viewBox="0 0 105.26 100">
  <defs>
    <style>
      .cls-1 {
        fill: #fff;
        stroke-width: 0px;
      }
    </style>
  </defs>
  <g id="_레이어_1-2" data-name="레이어 1">
    <g>
      <path class="cls-1" d="M13.65,67.27c1.95,0,3.95-.62,5.1.1,8.25,5.21,17.38,5.24,26.57,4.85,5.27-.23,10.35.03,14.84,3.49v6.42c-2.62-.45-5.34-1.84-7.05-1.05-5.3,2.43-.86-4.07-4.53-3.37-.92,1.28-2.31,3.21-2.55,3.55-4.44-.69-7.27-1.12-12.8-1.98,10.42,9.11,20.11,3.55,29.69,5.86,0-4.01-.32-7.25.1-10.4.35-2.59,1.57-5.06,3.98-7.32,1.22,9.6,2.45,19.2,3.68,28.85-10.56,4.4-20.58,4.92-30.84,1.51-1.48-.49-3.5-1.12-4.66-.52-10.15,5.27-20.82.9-32.02,2.67,0-17.11.23-33.57-.1-50.02-.15-7.55,1.66-15.24-2.17-22.69-1.35-2.62-.39-6.53-.16-9.82.17-2.43,1.35-4.84,1.24-7.22C1.83,7.14.84,4.13,0,.04h19.26C43.28.04,67.3.08,91.31,0c3.1-.01,4.81.62,3.35,5.02-4.93,0-10.22.16-15.48-.03-13.06-.46-14.49,4.28-17.08,14.85H11.5c3.59,15.56.32,30.95,2.15,47.43ZM10.04,82.71c6.72,8.12,15.2,2.81,22.86,4.87.56-8.02-5.73-8.82-9.32-9.95-4.11-1.3-10.01-2.27-13.54,5.09Z"/>
      <path class="cls-1" d="M98.77,25.66c3.15,2.62,4.91,4.09,6.47,5.38-1.72,6.76-3.34,13.13-4.96,19.49,4.98,6.18,1.95,13.4,2.35,20.11.52,8.76,1.08,17.71-3.2,25.63-2.21-6.65-2.76-45.98-.65-70.61Z"/>
      <path class="cls-1" d="M15.84,44.86v-4.6c14.77-.35,29.39-.68,44.01-1.12.6-.02,1.17-1.09,2.54-2.47.23,3.75.41,6.77.66,10.98-8.37-.98-16.08-2.24-23.84-2.7-7.7-.45-15.44-.1-23.37-.1Z"/>
      <path class="cls-1" d="M95.46,18.74c2.66-2.67,3.08-10.13,9.8-5.03q-3.22,6.06-9.8,5.03Z"/>
    </g>
  </g>
</svg>