<?xml version="1.0" encoding="UTF-8"?>
<svg id="_레이어_2" data-name="레이어 2" xmlns="http://www.w3.org/2000/svg" viewBox="0 0 83.85 100">
  <defs>
    <style>
      .cls-1 {
        fill: #fff;
        stroke-width: 0px;
      }
    </style>
  </defs>
  <g id="_레이어_1-2" data-name="레이어 1">
    <g>
      <path class="cls-1" d="M13.97,100c-3.15-1.01-6.25-2.67-9.45-2.86-3.7-.23-4.16-3-4.21-4.97-.09-3.38-.75-6.77.87-10.38,1.16-2.6,1.19-6.39-.45-9.59-.59-1.16-1.04-3.03-.51-4.01,2.21-4.03,1.27-8.29,1.29-12.44.11-18.26.05-36.52.05-54.81,3.09-2.37,5.57.29,8.53,1.09v9.15c5.48,2.26,10.54-2.93,15.82-.39-.2.32-.37.89-.6.91-6.37.55-6.4.54-6.42,6.42-.02,10.09-.1,20.19.05,30.28.04,2.64.82,5.27,1.21,7.59,4.48-.34,8.33-.74,12.19-.88,3.84-.14,7.69.07,11.53-.08,2.02-.08,3.97.41,6.08-1.09,1.44-1.03,4.57-1.04,6.22-.15,3.31,1.79,6.83.79,10.35,1.57.12,2.84-1.25,4.02-3.74,4.03-7.69.04-15.45.65-23.04-.25-3.88-.46-7.75-1.19-11.69-1.17-7.41.04-10.54,3.1-10.61,10.36-.04,4.24,0,8.49-.9,12.75-.81-3.72-1.62-7.43-2.39-11.01-2.95,6.24-3.15,8.27-1.53,14.16.21.75.24,1.79-.12,2.43-1.65,2.92-.75,6.05-.68,9.03.03,1.16,1.77,2.29,2.73,3.43-.2.29-.4.58-.6.86Z"/>
      <path class="cls-1" d="M13.93,99.09c3.1-2.8,5.27-4.53,7.12-6.56.65-.72.79-2.18.7-3.26-.3-3.55-.3-3.79,2.63-3.84,6.01-.09,12.02.06,18.02-.07,2.01-.04,4.14.73,6.07-1.12.76-.74,3.27-.83,4.05-.15,2.02,1.76,4.39,1.13,6.51,1.35-2.1,2.1-4.03,4.03-7.19,7.19,7.45,0,13.13-.06,18.81.08.68.02,1.33,1.15,3.12,2.81-5.49,0-9.5-.07-13.51.01-12.55.25-25.02,2.19-37.62,1.54-2.6-.13-5.28,1.18-8.7,2.01Z"/>
      <path class="cls-1" d="M27.12,2.27c3.01-.8,5.35-1.7,7.76-1.99,2.59-.32,5.26-.07,7.89-.07h41.03c.36,3.11-1.18,4.34-3.53,4.28-7.99-.21-15.79,2.44-23.83,1.53-1.89-.22-3.83,0-5.74-.05-1.26-.04-2.44-2.07-3.77-.13-1.01-1.11-1.76-1.36-3.52-.7-5.64,2.12-10.95.87-16.28-2.86Z"/>
      <path class="cls-1" d="M75.07,9.75c-7.53.31-15.19-.13-22.56,1.15-7.33,1.27-14.47.66-21.86-.03.87-.18,1.74-.43,2.62-.54,4.11-.51,8.21-1.16,12.33-1.4,4.06-.24,8.14-.05,12.21-.05h17.08c.06.29.12.59.18.88Z"/>
      <path class="cls-1" d="M26.4,2.65c-.92,1.86-1.62,3.25-2.6,5.22-1.36-.61-2.69-1.49-4.14-1.78-1.55-.31-3.22-.07-4.8-.07-.21-2.23-1.16-3.64,1.86-4.63,3.6-1.18,6.55-2.3,9.69,1.26Z"/>
      <path class="cls-1" d="M20.35,63.9h3.84c1.75,2.85-1.24,6.68,2.43,9.63-1.56.14-2.64.25-3.72.33-1.54.12-2.77.06-2.6-2.15.2-2.55.05-5.12.05-7.81Z"/>
      <path class="cls-1" d="M49.01,64.95h-21.16c3.4-1.68,7-1.07,10.52-1.18,3.53-.11,7.07-.02,10.61-.02,0,.4.02.8.03,1.2Z"/>
    </g>
  </g>
</svg>