<?xml version="1.0" encoding="UTF-8"?>
<svg id="_레이어_2" data-name="레이어 2" xmlns="http://www.w3.org/2000/svg" viewBox="0 0 55.24 100">
  <defs>
    <style>
      .cls-1 {
        fill: #fff;
        stroke-width: 0px;
      }
    </style>
  </defs>
  <g id="_레이어_1-2" data-name="레이어 1">
    <path class="cls-1" d="M52.28,0v5.21H7.43v39.27c2.02,2.42,5.26,2.01,8.4,2.01,11.08-.01,22.17-.02,33.25,0,6.05.01,6.1.1,6.15,6.4,0,.94,0,1.88,0,3.5-1.81,0-3.61.1-5.4-.02-10.71-.7-21.24,2.54-31.95,1.37-1.55-.17-2.63,2.29-4.66.22-.92-.94-3.6-.16-5.81-.16v35c13.74,3.23,27.74,1.17,41.29,1.93,1.25,1.8,2.37,3.41,3.65,5.25H.02c0-9.73.06-19.35-.01-28.98-.09-11.86,2.06-23.58,1.54-35.5-.51-11.74-.11-23.52-.11-35.52h50.84Z"/>
  </g>
</svg>