<?xml version="1.0" encoding="UTF-8"?>
<svg id="_레이어_2" data-name="레이어 2" xmlns="http://www.w3.org/2000/svg" viewBox="0 0 83.95 100">
  <defs>
    <style>
      .cls-1 {
        fill: #fff;
        stroke-width: 0px;
      }
    </style>
  </defs>
  <g id="_레이어_1-2" data-name="레이어 1">
    <path class="cls-1" d="M56.69,47.59H22.08v41.41c3.8-1.02,6.82.28,8.76,3.32,4.56-1.96,5.33-1.33,11.52-2.09,4.2-.52,7.56-.24,11.27,1.58,1.77.87,4.26.3,6.43.31,7.88.02,15.77,0,23.85,0v7.88H.37c0-6.67-.95-13.37.2-19.68,2.36-12.92,1.12-25.85,1.39-38.76.26-12.86.05-25.72.07-38.58,0-.78.12-1.56.22-2.81h12.21C31.15.16,47.85.45,64.53,0c5.98-.16,11.46,2.13,17.31,2.06.57,0,1.16,1.08,2.11,2.03-.31.41-.68.88-1.02,1.38-.66.96-1.3,1.93-1.94,2.9-.93-1.04-1.87-2.07-2.86-3.18-.16.56-.47,1.28-.55,2.01-.63,5.77-2.48,7.7-7.82,7.72-13.96.05-27.91.02-41.87.02h-5.89v18.97c10.31,1.83,20.89,3.13,32.08,2.16.86,3.76,1.69,7.41,2.63,11.51Z"/>
  </g>
</svg>