<?xml version="1.0" encoding="UTF-8"?>
<svg id="_레이어_2" data-name="레이어 2" xmlns="http://www.w3.org/2000/svg" viewBox="0 0 118.67 100">
  <defs>
    <style>
      .cls-1 {
        fill: #fff;
        stroke-width: 0px;
      }
    </style>
  </defs>
  <g id="_레이어_1-2" data-name="레이어 1">
    <g>
      <path class="cls-1" d="M118.49,62.19v16.64c-32.68.03-65.26-.41-98.02.18-.07,1.46-.12,2.58-.19,4.07h98.4v16.92H3.63c0-2.18,0-4.4,0-6.62,0-.91,0-1.83,0-2.74q-.02-3.72-3.63-4.62V0h20.94v21.82h96.98v15.59c-32.13.38-64.37.76-96.74,1.14v4.5h97.19v14.99H21.34c-.08,1.4-.14,2.69-.22,4.16h97.37Z"/>
      <path class="cls-1" d="M36.32,16.6V.24h81.4v16.36H36.32Z"/>
    </g>
  </g>
</svg>