<?xml version="1.0" encoding="UTF-8"?>
<svg id="_레이어_2" data-name="레이어 2" xmlns="http://www.w3.org/2000/svg" viewBox="0 0 109.57 100">
  <defs>
    <style>
      .cls-1 {
        fill: #fff;
        stroke-width: 0px;
      }
    </style>
  </defs>
  <g id="_레이어_1-2" data-name="레이어 1">
    <g>
      <path class="cls-1" d="M23.16,100H0C2.75,66.67,5.46,33.76,8.21.49h21.48c-2.19,33.43-4.34,66.13-6.52,99.51Z"/>
      <path class="cls-1" d="M109.57,43.99c-.6,5.67-1.17,11.03-1.86,17.54H42.43c-5.22-4.97-2.79-12.81-3.42-20.31,23.42.92,46.2,1.81,70.55,2.77Z"/>
      <path class="cls-1" d="M103.4,83.2c-.35,5.43-.68,10.62-1.02,15.92H34.45v-18.96c22.89,1.01,45.39,2,68.95,3.04Z"/>
      <path class="cls-1" d="M45.27.03C64.34.03,82.21-.12,100.08.26c1.66.04,4.36,3.22,4.63,5.2.44,3.28-.7,6.77-1.29,11h-40.95c-.38,3.55-.67,6.24-1.06,9.84-3.7,0-7.66,1.1-10.35-.28-3.41-1.75-7.77-5.26-8.18-8.46-.7-5.44,1.38-11.23,2.39-17.53Z"/>
    </g>
  </g>
</svg>