<?xml version="1.0" encoding="UTF-8"?>
<svg id="_레이어_2" data-name="레이어 2" xmlns="http://www.w3.org/2000/svg" viewBox="0 0 54.92 97.61">
  <defs>
    <style>
      .cls-1 {
        fill: #fff;
        stroke-width: 0px;
      }
    </style>
  </defs>
  <g id="_레이어_1-2" data-name="레이어 1">
    <path class="cls-1" d="M24.2,21.01v15.6c6.13,0,12.12-.08,18.11.08.98.03,2.5.83,2.82,1.65,2.24,5.72,2.41,11.65,1.2,17.65-.47,2.35-1.99,3.04-4.2,3.01-5.72-.06-11.43-.02-17.5-.02v16.19c7.55,0,15.17-.09,22.79.03,5.22.09,7.56,2.67,7.49,7.87-.03,2.14-.14,4.29-.19,6.43-.11,5.02-2.61,7.63-7.72,7.7-12.65.19-25.31.32-37.96.4-5.14.03-8.94-4.25-8.99-10.25C-.03,76.52,0,65.69.02,54.85c.02-13.39.07-26.77.13-40.16C.21,4.62,5.06-.09,15.06,0c10.21.09,20.42.03,30.63.1,4.06.03,6.71,2.01,7.19,6.03.43,3.59.39,7.33-.11,10.9-.37,2.62-2.56,3.93-5.43,3.89-6.94-.09-13.88-.05-20.81-.05-.7,0-1.4.08-2.31.14Z"/>
  </g>
</svg>