<?xml version="1.0" encoding="UTF-8"?>
<svg id="_레이어_2" data-name="레이어 2" xmlns="http://www.w3.org/2000/svg" viewBox="0 0 83.81 100">
  <defs>
    <style>
      .cls-1 {
        fill: #fff;
        stroke-width: 0px;
      }
    </style>
  </defs>
  <g id="_레이어_1-2" data-name="레이어 1">
    <path class="cls-1" d="M83.81,81.59c-10.7-.3-16.55,8.23-24.48,12.9-10.15,5.97-20.68,6.95-31.32,3.61-15.83-4.97-25.19-15.94-27.38-32.84-1.74-13.42.41-26.53,3.03-39.46C6.06,13.99,21.89,1.81,34.58.42c9.23-1.01,18.22-.35,26.47,3.57-3.72,10.37-12.34,11.9-21.51,12.36-11.96.6-20.85,12.43-22.09,23.09,14.82.77,29.62,1.54,44.86,2.33v11.8H15.65c.04,9.29,1.76,17.92,9.12,24.09,8.18,6.87,17.65,8.28,27.28,3.44,9.15-4.6,18.4-4.71,27.99-2.44,1.27.3,2.46.92,3.69,1.39.03.51.06,1.03.09,1.54Z"/>
  </g>
</svg>