<?xml version="1.0" encoding="UTF-8"?>
<svg id="_레이어_2" data-name="레이어 2" xmlns="http://www.w3.org/2000/svg" viewBox="0 0 110.62 100">
  <defs>
    <style>
      .cls-1 {
        fill: #fff;
        stroke-width: 0px;
      }
    </style>
  </defs>
  <g id="_레이어_1-2" data-name="레이어 1">
    <path class="cls-1" d="M0,99.81V0h110.56v26.17H31.17v10.62c1.1.17,2.23.51,3.37.5,19.04-.1,38.09-.21,57.13-.44,3.06-.04,4.43.77,4.34,4.1-.19,7.29-.06,14.58-.06,22.37H31.2v9.92h79.39c0,8.46.13,16.48-.2,24.47-.03.82-2.86,2.18-4.39,2.19-17.22.12-34.44-.01-51.66-.01-16.92,0-33.84.08-50.75.11-1.04,0-2.07-.11-3.59-.19Z"/>
  </g>
</svg>