<?xml version="1.0" encoding="UTF-8"?>
<svg id="_레이어_2" data-name="레이어 2" xmlns="http://www.w3.org/2000/svg" viewBox="0 0 59.89 100">
  <defs>
    <style>
      .cls-1 {
        fill: #fff;
        stroke-width: 0px;
      }
    </style>
  </defs>
  <g id="_레이어_1-2" data-name="레이어 1">
    <g>
      <path class="cls-1" d="M14.23,40.55H.89c.21-8.06-.83-16.1,2.03-23.81C6.21,7.87,12.65,2.46,21.86.69c8.14-1.56,16.05-.48,23.55,3.28,6.84,3.43,12.03,10.46,13.17,18.44-4.73,0-9.43.02-14.13-.04-.42,0-.99-.42-1.24-.81-3.72-5.88-9.51-7.24-15.86-7.16-2.17.03-4.5.23-6.46,1.07-4.12,1.76-6.3,5.19-6.5,9.69-.17,3.88-.13,7.77-.17,11.65-.01,1.2,0,2.4,0,3.74Z"/>
      <path class="cls-1" d="M.86,60.74v-15.06h58.73v14.26c-19.5.27-39.01.53-58.73.8Z"/>
      <path class="cls-1" d="M0,86.26h59.89v13.69c-5.77,0-11.32,0-16.86,0-10.67.02-21.34.08-32,.02-1.19,0-2.36-.72-3.56-1.02-1.12-.28-2.27-.58-3.41-.6-1.27-.02-2.54.26-4.04.45v-12.54Z"/>
      <path class="cls-1" d="M53.76,32.9c1.39,1.88,4.36,2.6,4.1,5.71h-3.29c-.28-2.02-.55-3.86-.81-5.71Z"/>
    </g>
  </g>
</svg>