<?xml version="1.0" encoding="UTF-8"?>
<svg id="_레이어_2" data-name="레이어 2" xmlns="http://www.w3.org/2000/svg" viewBox="0 0 97.31 100">
  <defs>
    <style>
      .cls-1 {
        fill: #fff;
        stroke-width: 0px;
      }
    </style>
  </defs>
  <g id="_레이어_1-2" data-name="레이어 1">
    <path class="cls-1" d="M97.31,55.57c-.89.16-1.09.25-1.29.23-11.73-.95-23.32,1.9-35.04,1.3-5.3,1.97-10.82,1.17-16.59,1.29v-6.55c3.2.63,6.63-1.2,9.63,1.37,4.58-.6,9.14.08,13.84-.76,4.97-.9,9.54-1.94,13.56-4.91,2.37-1.76,4.99-.18,7.94-1.12-.68-6.88-1.3-13.99-6.34-19.5-3.69-4.03-7.22-8.37-12.19-11.06-1.14-.62-8.79-3.69-9.95-4.11-5.76-2.08-11.71-1.15-17.59-1.22-4.15-.05-8.08,1.77-11.22,3.99-7.6,5.36-13.37,10.1-17.02,21.73-.12.37-.7.64-.73.98-.47,5.86-1.62,11.78-1.13,17.56.52,6.15,2.7,12.18,6.44,17.31,4.76,6.54,10.43,11.95,18.31,14.84,7.66,2.81,7.38,2.94,17.21,1.49,4.99-.73,9.17-3.09,13.82-4.37,3.34-.91,6.25-3.73,9.1-6.02,2.55-2.05,5.08-3.46,8.95-2.45-.78,1.72-1.14,3.62-2.25,4.79-4.51,4.73-8.88,9.64-14.64,12.98-.88.51-1.65,1.21-2.53,1.7-4.83,2.65-9.53,4.94-15.49,4.94-11.07,0-21.03-2.7-29.85-9.29-3.04-2.27-5.69-5.05-8.5-7.62-2.77-2.54-5.4-5.19-6.27-9.12-2.19,2.13-2.36,4.65-2.28,7.31.1,3.23.16,6.48-.04,9.7-.08,1.29-.93,2.54-1.61,4.26-2.18-4.51-2.32-8.62-2.23-12.8.11-4.96.19-9.93-.03-14.88-.15-3.5-.98-6.97-1.19-10.47-.22-3.65-.01-7.33-.06-10.99-.07-6.04,2.42-11.53,4.33-16.98,1.57-4.49,4.23-8.7,7.89-12.32,4.36-4.31,8.96-8.24,14.22-11.18,3.6-2.01,7.83-2.96,11.84-4.15,2.33-.69,4.79-1.09,7.22-1.29,2.57-.22,5.19-.26,7.75-.01,10.12.97,19.72,3.19,27.16,11,2.5,2.62,5.63,4.37,7.82,7.63,3.57,5.3,5.95,10.81,7.72,16.92,1.9,6.55.52,13.04,1.3,19.86Z"/>
  </g>
</svg>