<?xml version="1.0" encoding="UTF-8"?>
<svg id="_레이어_2" data-name="레이어 2" xmlns="http://www.w3.org/2000/svg" viewBox="0 0 84.95 100">
  <defs>
    <style>
      .cls-1 {
        fill: #fff;
        stroke-width: 0px;
      }
    </style>
  </defs>
  <g id="_레이어_1-2" data-name="레이어 1">
    <path class="cls-1" d="M0,0c29.16,1.05,56.48,2.03,84.95,3.05-1.41,13.45-2.65,25.26-3.96,37.81-10.99-8.31-22.76-5.55-32.93-3.37-4.53.97-6.99,11.59-10.38,17.82.7.44,1.4.89,2.1,1.33-2.74.45-5.49.9-8.23,1.35-.13.74-.25,1.48-.38,2.23,8.95,2.31,17.9,4.63,27.42,7.09.84,4.91,1.71,10,2.66,15.49,2.8.36,5.31.69,8.66,1.12.43,5.22.88,10.63,1.33,16.09H0V0Z"/>
  </g>
</svg>