<?xml version="1.0" encoding="UTF-8"?>
<svg id="_레이어_2" data-name="레이어 2" xmlns="http://www.w3.org/2000/svg" viewBox="0 0 85.59 100">
  <defs>
    <style>
      .cls-1 {
        fill: #fff;
        stroke-width: 0px;
      }
    </style>
  </defs>
  <g id="_레이어_1-2" data-name="레이어 1">
    <path class="cls-1" d="M85.28,100H.98v-46.56h15.65v-8.05H.87v-8.82h15.71v-8.99H.52v-9.21c.61,0,1.17,0,1.72,0,19.12.02,38.23.05,57.35.07,6.04,0,12.09-.02,18.13,0,1.44,0,2.39-.72,2.7-2.02.33-1.41.58-2.9.52-4.34-.07-2.01-2.23-3.72-4.61-3.75-6.82-.07-13.64-.07-20.46-.07-13.23,0-26.47.01-39.7.03-2.7,0-5.41-.13-8.08.1-1.16.1-2.38.81-3.33,1.54-1.31,1.01-2.4,2.31-3.81,3.72-.37-.68-.88-1.19-.89-1.72C-.02,7.98,0,4.02,0,0h85.17v27.6H25.33v8.92h60.26v8.85H25.17v8.02h60.11v46.61ZM9.74,61.93v9.04h46.11v-9.04H9.74ZM55.72,79.69H10.65v8.97h45.07v-8.97ZM65.48,61.94v26.81c2.65-.14,5.25-.18,7.83-.44,1.43-.14,2.86-.55,4.23-1.03.42-.15.89-.91.89-1.39.04-5.64.03-11.27-.05-16.91-.04-2.75-1.24-5-3.96-5.7-2.85-.73-5.84-.9-8.94-1.34Z"/>
  </g>
</svg>