<?xml version="1.0" encoding="UTF-8"?>
<svg id="_레이어_2" data-name="레이어 2" xmlns="http://www.w3.org/2000/svg" viewBox="0 0 122.94 100">
  <defs>
    <style>
      .cls-1 {
        fill: #fff;
        stroke-width: 0px;
      }
    </style>
  </defs>
  <g id="_레이어_1-2" data-name="레이어 1">
    <g>
      <path class="cls-1" d="M113.59,28.43c-2.32-1.14-4.01-1.98-5.9-2.91-1.48,3.52-4.43,4.09-7.69,4.12-7.66.06-15.89,6.62-18.78,13.21h20.4c-7.15,9.39-13.57,17.87-20.11,26.25-.49.62-1.93.7-2.92.7-6.71.02-13.54-.82-20.1.14-5.35.78-10.38,3.68-15.56,5.64.08.52.16,1.05.25,1.57,2.86.42,5.71,1.1,8.58,1.21,5.88.22,11.82.65,17.64.03,5.45-.58,7.89,2.5,9.98,6.31,1.64,2.98,2.78,6.24,4.08,9.4.95,2.31,1.48,4.97,5.13,3.51.72-.28,1.91.62,2.84,1.55H0c20.15-29.04,41.21-56.71,64.94-82.33-.12-.31-.24-.61-.36-.92H10.31V.4c7.52,0,14.93-.15,22.33.04,7.71.19,15.41.75,23.12,1.06,3.25.13,6.52-.06,9.78.09.94.04,1.84.78,2.59,1.13-.61,1.86-1.09,3.32-1.57,4.78,3.46-1.41,6.85-1.33,9.66-4.07,3.56-3.47,9.02-3.93,13.84-3.03,5.63,1.05,10.99,2.17,16.8.73,3.98-.99,6.71,2.02,6.73,6.31.03,6.82,0,13.64,0,20.98Z"/>
      <path class="cls-1" d="M94.86,99.62c-.02-3.29.6-3.55,4.23-2.52,1.19-1.29,2.37-2.39,3.34-3.65,1.68-2.21,3.66-4.08,2.43-7.59-1.35-3.86,2.87-8.95,7.35-9.43,3.43-.36,6.9-.42,10.71-.63,0,7.53.05,14.91-.1,22.28-.01.57-1.47,1.64-2.19,1.59-7.89-.59-15.93,1.73-23.73-1.09-.4-.14-1.09.53-2.05,1.04Z"/>
      <path class="cls-1" d="M43.68,22.63c-5.29,5.19-9.48,10.09-14.46,13.95-5.02,3.89-10.84,6.76-16.31,10.07-.37-.25-.75-.5-1.12-.75.18-3.5.3-7.01.6-10.51.05-.54.78-1.2,1.35-1.5,7.74-4.15,15.59-8.12,23.25-12.42,3.01-1.7,3.9,1.45,6.7,1.16Z"/>
    </g>
  </g>
</svg>