<?xml version="1.0" encoding="UTF-8"?>
<svg id="_레이어_2" data-name="레이어 2" xmlns="http://www.w3.org/2000/svg" viewBox="0 0 74.86 98.06">
  <defs>
    <style>
      .cls-1 {
        fill: #fff;
        stroke-width: 0px;
      }
    </style>
  </defs>
  <g id="_레이어_1-2" data-name="레이어 1">
    <path class="cls-1" d="M25.97,31.5c4.05,0,8.16.01,12.27,0,9.68-.04,19.36-.11,29.05-.12,3.16,0,3.26.14,3.27,3.18,0,7.22-.05,14.45.04,21.67.02,1.77-.5,2.33-2.29,2.3-9.92-.18-19.83-.27-29.75-.37-3.17-.03-6.34.02-9.51-.03-1.39-.02-2.14.64-2.14,1.95,0,3.8.04,7.61.26,11.41.03.47,1.26,1.24,1.94,1.25,8.01.09,16.03.05,24.05.08,5.71.02,11.41.17,17.12.13,2.03-.02,2.76.59,2.72,2.73-.13,6.59-.13,13.18,0,19.76.04,2.07-.73,2.55-2.61,2.54-11.19-.05-22.38-.02-33.57,0-8.41.01-16.83.01-25.24.09-1.73.02-2.86-.43-3.88-2.01-1.85-2.84-4.15-5.39-6.1-8.17-.62-.89-1.02-2.15-1.02-3.24-.09-11.03-.03-22.06-.11-33.09C.37,41.24.21,30.92,0,20.61c-.04-2.02.5-3.63,1.76-5.22,3.44-4.34,6.78-8.75,10.07-13.2C13.19.35,15.02-.04,17.06,0c4.51.09,9.03.31,13.54.35,13.49.11,26.98.15,40.46.24,1.02,0,2.05.19,3.62.35,0,2.33-.01,4.68,0,7.03.03,5.39.01,10.79.16,16.18.05,1.84-.43,2.49-2.37,2.48-14.13-.05-28.25.04-42.38.02-4.09,0-4.59.44-4.14,4.85Z"/>
  </g>
</svg>