<?xml version="1.0" encoding="UTF-8"?>
<svg id="_레이어_2" data-name="레이어 2" xmlns="http://www.w3.org/2000/svg" viewBox="0 0 46.27 100">
  <defs>
    <style>
      .cls-1 {
        fill: #fff;
        stroke-width: 0px;
      }
    </style>
  </defs>
  <g id="_레이어_1-2" data-name="레이어 1">
    <path class="cls-1" d="M20.3,18.91c0,2.57,0,5.03,0,7.5,0,2.22-.01,4.44.02,6.66.02,1.61.48,2.03,2.06,1.92,4.09-.3,8.17-.64,12.26-.87.45-.02,1.21.49,1.34.91.33,1.06.47,2.21.51,3.33.05,1.4.38,2.55,1.52,3.53,1.71,1.48,1.62,3.28.13,4.99-2.19,2.51-4.78,3.84-8.2,3.64-2.56-.15-5.14.05-7.71.11-1.07.02-1.94.26-1.91,1.64.04,2.16.01,4.31.01,6.47,0,4.85.02,9.7-.02,14.54-.01,1.54-.24,3.08-.28,4.62-.04,1.27.74,1.89,1.96,1.65,2.9-.57,5.84-1.04,8.7-1.77,3.81-.98,7.57-2.16,11.36-3.26,1.15-.34,2.3-.68,3.61-1.07-.07.65-.24,1.5-.26,2.36-.06,2.97-.1,5.95-.1,8.92,0,1.55,0,3.1.14,4.63.1,1.1.4,2.18.63,3.27.04.19.24.39.22.56-.29,1.69-.47,3.42-.96,5.05-.4,1.34-1.75,1.78-2.99,1.78-6-.03-12.01.09-17.96-1.07-1.89-.37-3.87-.35-5.8-.48-1.08-.07-2.16-.2-3.23-.13-2.13.15-4.26.42-6.39.64-2.45.25-4.89.57-7.34.73-1.4.09-1.81-.57-1.47-1.94.11-.44.18-.94.43-1.3,1.85-2.66,1.75-5.7,1.79-8.72.1-7.67.29-15.34.29-23.01,0-8.82-.22-17.63-.28-26.45-.06-8.49.02-16.99-.07-25.48-.02-2.19-.53-4.38-.64-6.58-.06-1.19.09-2.44.43-3.58.38-1.25,1.44-1.73,2.79-1.75,4.58-.06,9.17-.16,13.75-.3C24.36.42,30.11.17,35.86,0c1.12-.03,2.26.14,3.37.31,1.3.2,1.76,1.18,1.78,2.35.06,3.67.1,7.35.06,11.02-.01,1.28-.14,2.57-.41,3.82-.21.99-.94,1.43-2.07,1.4-5.19-.15-10.38-.24-15.57-.31-.86-.01-1.72.2-2.73.32Z"/>
  </g>
</svg>