<?xml version="1.0" encoding="UTF-8"?>
<svg id="_레이어_2" data-name="레이어 2" xmlns="http://www.w3.org/2000/svg" viewBox="0 0 53.62 100">
  <defs>
    <style>
      .cls-1 {
        fill: #fff;
        stroke-width: 0px;
      }
    </style>
  </defs>
  <g id="_레이어_1-2" data-name="레이어 1">
    <path class="cls-1" d="M22.12,81.59c2.25,0,4.54.38,6.65-.08,4.9-1.05,9.73-2.43,14.54-3.83,2.32-.67,4.51-1.76,6.81-2.51,1.87-.61,3.57.61,3.5,2.53-.24,5.91-.51,11.83-.93,17.73-.18,2.56-1.89,4.03-4.31,4.06-10.42.12-20.84.22-31.26.34-3.16.04-6.32.16-9.48.17-1.58,0-3.16-.1-4.73-.26-1.27-.13-2.05-1.29-2.06-2.96-.02-3.78,0-7.55,0-11.33,0-5.01-.03-10.02,0-15.03.04-5.51.24-11.02.22-16.53-.03-7.08-.24-14.17-.32-21.25-.04-3.17.14-6.34.02-9.51C.6,18.3.15,13.48,0,8.65c-.06-2.12.26-4.26.6-6.36C.81,1.06,1.61.28,3.07.27,8.68.23,14.28.09,19.89.02c3.01-.04,6.03-.02,9.04,0,1.98,0,2.21.34,2.72,2.27.61,2.35,1.54,4.61,2.12,6.96.38,1.56.5,3.22.53,4.84.04,2.37-.95,3.27-3.31,3.43-4.07.27-8.14.59-12.2.9-1.11.08-1.96.35-1.98,1.77-.06,4.99-.19,9.98-.27,14.98-.02,1.36.02,2.73.08,4.09.06,1.3,1.62,2.24,3.17,1.78,1.69-.5,3.33-1.21,5-1.8.66-.24,1.34-.46,2.02-.59,2.22-.44,3.79.76,3.86,2.97.1,3.04.2,6.08.17,9.11,0,.72-.55,1.42-.8,2.14-.31.9-.6,1.81-.85,2.73-.61,2.23-1.26,4.46-1.76,6.72-.34,1.53-.5,3.11-.67,4.67-.56,4.99-2.06,9.67-4.54,14.04-.07.12-.05.29-.09.58ZM16.29,55.9c-.2,2.8-.53,5.46-.56,8.12-.04,4.43.11,8.87.17,13.3.02,1.18-.11,2.37.05,3.52.07.52.67.97,1.03,1.45.43-.47,1.21-.92,1.23-1.41.2-4.64.32-9.28.37-13.92.02-2.65-.25-5.3-.18-7.94.04-1.55-.44-2.53-2.1-3.12Z"/>
  </g>
</svg>