<?xml version="1.0" encoding="UTF-8"?>
<svg id="_레이어_2" data-name="레이어 2" xmlns="http://www.w3.org/2000/svg" viewBox="0 0 110.94 100">
  <defs>
    <style>
      .cls-1 {
        fill: #fff;
        stroke-width: 0px;
      }
    </style>
  </defs>
  <g id="_레이어_1-2" data-name="레이어 1">
    <path class="cls-1" d="M0,0h104.47c.11.35.23.56.23.76,0,8.14.13,16.28-.07,24.41-.26,10.65-5.12,19.49-11.49,27.64-2.8,3.58-5.93,6.84-9.75,9.34-4.99,3.26-10.38,5.55-16.46,5.48-10.16-.12-20.32-.38-30.49-.55-3.95-.07-7.91-.02-11.87-.09-1.77-.03-2.68.94-3.2,2.45-2.28,6.6,1.65,12.56,8.8,12.72,11.01.24,22.03.22,33.04.1,11.69-.13,23.38-.49,35.08-.76,3.61-.08,7.23-.18,10.84-.26.55-.01,1.09,0,1.79,0v18.76c-36.94-.2-73.92-.41-110.94-.61V0ZM42.54,14.41c0,.09-.01.18-.02.27-1.58,0-3.17-.09-4.75.02-2.81.19-5.63.36-8.4.81-2.62.43-4.43,2.01-4.77,4.79-.3,2.51-.62,5.04-.6,7.56.02,3.35,1.84,5.5,5.13,6.25,2.3.53,4.66.88,7.02,1.11,5.45.55,10.9,1.09,16.36,1.44,3.45.22,4.51-.15,6.45-4.19.24-.51.39-1.06.56-1.59,1.37-4.12,1.07-8.37.91-12.6-.08-2.23-.32-2.57-2.54-2.76-5.11-.44-10.24-.75-15.36-1.11Z"/>
  </g>
</svg>