<?xml version="1.0" encoding="UTF-8"?>
<svg id="_레이어_2" data-name="레이어 2" xmlns="http://www.w3.org/2000/svg" viewBox="0 0 53.62 100">
  <defs>
    <style>
      .cls-1 {
        fill: #fff;
        stroke-width: 0px;
      }
    </style>
  </defs>
  <g id="_레이어_1-2" data-name="레이어 1">
    <path class="cls-1" d="M50.1,80.59c-8.41-17.37-15.28-34.29-.53-51.79,1.05-1.24,1.23-3.33,1.52-5.08,1.52-8.96.31-17.54-9.43-20.41C29.22-.37,16.25-1.76,3.63,3.26c-.97.39-1.33,3.19-1.38,4.89C1.44,35.47.72,62.79,0,90.11c-.17,6.42,2.46,9.72,9.47,9.88,8.6.21,7.36-5.73,7.79-10.85,1.06-12.66,2.09-25.32,3.14-37.97,1.31-.17,2.62-.34,3.93-.51,3.52,11.4,6.88,22.85,10.61,34.19,2.24,6.81,5,15,14.33,11.03,7.91-3.36,3.03-10.75.83-15.3ZM35.31,18.08c-1.54,7.22-1.83,17.24-10.73,17.81-7.27.47-4.97-9.04-6.59-13-1.26-8.23.81-12.51,8.94-12.33,5.29.12,9.86.59,8.38,7.52Z"/>
  </g>
</svg>