<?xml version="1.0" encoding="UTF-8"?>
<svg id="_레이어_2" data-name="레이어 2" xmlns="http://www.w3.org/2000/svg" viewBox="0 0 121.92 100">
  <defs>
    <style>
      .cls-1 {
        fill: #fff;
        stroke-width: 0px;
      }
    </style>
  </defs>
  <g id="_레이어_1-2" data-name="레이어 1">
    <path class="cls-1" d="M79.07,57.29c10.36,14.49,23.44,24.17,42.84,25.52-2.8,4.15-4.87,7.29-7.04,10.36-.57.81-1.86,1.32-2.08,2.16-1.5,5.7-5.4,4.81-9.79,4.27-6.54-.8-13.17-1.04-19.76-1.14-4.19-.06-7.19-1.45-10.13-4.6-8.92-9.51-18.25-18.65-27.47-27.88-.56-.56-1.57-.92-2.38-.93-5.37-.08-10.75-.04-16.51-.04v25.58H0V.04C21.85.04,43.16-.09,64.47.12c5.93.06,11.96.58,17.74,1.84,8.12,1.76,14.9,6.46,20.19,12.72,7.73,9.15,5.86,26.14-3.84,33.2-4.83,3.52-10.74,5.58-16.18,8.25-1.02.5-2.15.77-3.3,1.17ZM28.45,42.47c13.79,0,27.13.2,40.46-.09,6.05-.13,10.19-4.75,10.01-9.96-.19-5.14-3-7.08-10.25-7.09-11.27,0-22.53-.01-33.8-.02-2.18,0-4.35,0-6.42,0v17.15Z"/>
  </g>
</svg>