<?xml version="1.0" encoding="UTF-8"?>
<svg id="_레이어_2" data-name="레이어 2" xmlns="http://www.w3.org/2000/svg" viewBox="0 0 75.06 100">
  <defs>
    <style>
      .cls-1 {
        fill: #fff;
        stroke-width: 0px;
      }
    </style>
  </defs>
  <g id="_레이어_1-2" data-name="레이어 1">
    <path class="cls-1" d="M72.99,99.89c-5.75,0-10.64-.02-15.53,0-4.91.02-9.81.11-14.72.1-.99,0-2.41.04-2.91-.55-2.18-2.57-4.44-1.59-7.3-1.42-10.57.6-21.2.24-32.21.24-.09-1.44-.26-2.87-.26-4.31C.03,64.89,0,35.83,0,6.76,0,.31.04-.05,6.37,0c13.5.12,27.03.17,40.47,1.26,5.42.44,11.06,2.79,15.82,5.58,9.52,5.58,13.09,15.06,12.29,25.52-.83,10.94-8.08,17.39-18.22,20.75-.99.33-1.94.77-2.95.99-2.91.64-3.02,2.08-1.75,4.5,6.25,11.82,12.4,23.7,18.54,35.58.86,1.66,1.48,3.45,2.43,5.7ZM32.53,42.05c8.25.25,15.03-2.46,20.8-7.38,5.43-4.63,4.91-11.3-.78-15.62-5.92-4.49-12.91-4.29-20.02-4.98v27.98Z"/>
  </g>
</svg>