<?xml version="1.0" encoding="UTF-8"?>
<svg id="_레이어_2" data-name="레이어 2" xmlns="http://www.w3.org/2000/svg" viewBox="0 0 76.26 100">
  <defs>
    <style>
      .cls-1 {
        fill: #fff;
        stroke-width: 0px;
      }
    </style>
  </defs>
  <g id="_레이어_1-2" data-name="레이어 1">
    <path class="cls-1" d="M59.88,7.04c2.2-1.18,2.46.89,3.01,2.51-.58-.4-1.17-.8-1.75-1.21-.21.1-.42.21-.63.31.43.86.65,2.02,1.34,2.5.61.42,1.75.09,2.99.09,5.41,6.42,4.64,14,2.73,21.63-2.39,9.53-8.86,14.91-18.24,17.15-1.64.39-3.24,1.1-4.74,1.89-.43.22-.81,1.55-.57,1.83.44.51,1.47,1.02,2.05.85,3.49-1.07,3.68-.96,4.83,2.36,3.41,9.82,6.88,19.61,10.39,29.39.6,1.68,1.48,3.28,2.38,4.84,1.62,2.81,5.08,3.98,8.81,3.16,1.15-.25,2.32-.39,3.51-.58.13.45.27.68.26.91-.08,5.31-.08,5.37-5.39,5.33-3.86-.03-7.73-.07-11.55-.48-1.21-.13-2.81-1.17-3.36-2.24-3.85-7.54-7.62-15.14-11.11-22.86-1.96-4.34-3.41-8.93-4.98-13.44-1.59-4.56-4.63-7.05-9.54-7.11-.66,0-1.31-.32-1.97-.43-2.57-.46-3.6.27-3.7,2.91-.38,10.12-.52,20.25-1.1,30.35-.32,5.57,5.24,10.9,12.45,6.91.08,1.85.15,3.45.24,5.26-1.65.24-2.98.58-4.32.59-8.51.06-17.01.07-25.52.04-4-.01-4.15-.23-3.78-4.33.04-.41.13-.81.13-.8,2.3,0,4.53.43,6.5-.1,3.32-.89,4.31-2.57,4.26-6.15-.13-7.89-.41-15.78-.53-23.67-.11-6.78-.48-13.59,0-20.34.33-4.59-.34-9.09-.18-13.65.16-4.6-.63-9.23-.79-13.85-.12-3.4-1.71-6.16-3.81-8.48-.96-1.07-3.06-1.38-4.69-1.52C.7,6.39-.45,5.22.16,2.44c.1-.48.01-1,.01-1.61C4.92.62,9.53.29,14.14.23c9.52-.11,19.07-.49,28.57.05,5.24.3,10.82.84,15.3,4.36.75.59,1.23,1.55,1.88,2.4ZM23.94,37.58h.48c0,2.58.17,5.17-.05,7.72-.19,2.23.97,2.6,2.71,2.69,6.02.34,11.74-1.06,17.39-2.92,4.19-1.38,6.99-4.22,8.68-8.22,1.92-4.55,2.74-9.28,2.83-14.25.1-5.66-1.96-10.26-6.18-13.73-2.55-2.09-5.67-3.93-9.14-3.58-4.05.4-8.04,1.47-12.06,2.2-2.47.45-3.34,2.09-3.44,4.39-.39,8.56-.8,17.13-1.2,25.69ZM17.45,9.77c.36.07.72.13,1.07.2.37-1.1,1.39-2.69.99-3.21-1.19-1.57-2.77-3.02-4.51-3.92-.81-.42-2.33.54-3.64.91,1.32.84,2.61,1.38,3.51,2.3,1.04,1.06,1.73,2.46,2.57,3.72ZM16.24,47.26c-.89,1.09-1.73,1.69-1.85,2.42-.08.45,1,1.58,1.44,1.53.75-.09,1.82-.79,1.98-1.42.14-.54-.8-1.37-1.57-2.52ZM17.48,75.85c-2.31-.55-3.01,0-3.14,2.44,1.05-.82,1.97-1.54,3.14-2.44ZM47.18,4.13c.28-.05.55-.1.83-.16-.21-.5-.41-.99-.62-1.49-.18.06-.37.12-.55.19.11.49.23.97.34,1.46ZM14.22,28.14c-.2.35-.42.62-.38.67.18.22.45.36.68.54.12-.17.38-.4.33-.49-.11-.24-.35-.41-.64-.72Z"/>
  </g>
</svg>