<?xml version="1.0" encoding="UTF-8"?>
<svg id="_레이어_2" data-name="레이어 2" xmlns="http://www.w3.org/2000/svg" viewBox="0 0 70.64 100">
  <defs>
    <style>
      .cls-1 {
        fill: #fff;
        stroke-width: 0px;
      }
    </style>
  </defs>
  <g id="_레이어_1-2" data-name="레이어 1">
    <path class="cls-1" d="M2.15.01C4.48.01,6.55-.02,8.63.01,20.21.19,31.81,0,43.36.67c9.3.55,17.15,4.79,20.36,14,4.37,12.5,1.43,23.76-13.07,30.56-3.05,1.43-6.48,2.07-9.73,3.07-.35.11-.69.24-1.26.43.26.63.4,1.23.71,1.73,5.78,9.18,9.94,19.15,14.42,28.97.94,2.06,2.08,4.05,3.26,5.99,2.47,4.06,5.9,6.57,10.89,6.26,1.4-.09,1.74.59,1.7,1.82-.05,1.95-.01,3.91-.01,6.29-9.6.19-18.99-.82-28.68-.84-.13.16-.53.61-.9,1.05-2.54-1.2-4.92-2.38-3.31-5.93.26.04.69.1,1.5.23-.49-1.13-.87-2.01-1.24-2.89.1-.01.21-.02.31-.03-.09-.8,0-1.68-.28-2.4-2.76-6.77-5.59-13.52-8.41-20.27-1.82-4.35-3.67-8.7-5.51-13.04-.17,0-.33.02-.5.03-.03.62-.1,1.23-.1,1.85.02,9.43-.06,18.87.14,28.29.08,3.66,1.2,6.52,4.58,6.85,1.32.13,1.76,1.01,1.71,2.27-.05,1.32-.01,2.64-.01,4.25-1.65-.38-3.57,1.16-4.93-.97-1.11.22-2.2.56-3.31.62-2.41.12-4.83.09-7.24.14-.4,0-.79.2-1.18.21-3.9.06-7.79.07-11.69.16-1.2.03-1.57-.56-1.57-1.59,0-2.21,0-4.42,0-6.51,1.57-.31,3.21-.53,4.79-.98,2.18-.63,3.31-2.28,3.29-4.48-.21-24.43-.42-48.86-.62-73.29-.03-3.18-.78-3.96-3.95-4.23-.48-.04-1.28-.66-1.3-1.05-.12-2.26-.06-4.53-.06-7.21ZM47.01,22.26c0-3.38-1.09-7.79-2.96-10.63-1.78-2.7-3.73-5.31-7.53-5.21-.66.02-1.33-.41-2.01-.44-1.38-.08-2.87-.36-4.12.05-1.71.56-3.23,1.68-4.84,2.55-1.27.68-1.96,1.61-1.92,3.17.19,6.51.3,13.01.41,19.52.04,2.59.03,5.19,0,7.78,0,.95.21,1.69,1.32,1.62,3.02-.2,6.08-.22,9.05-.74,3.67-.64,7.19-2.07,9.2-5.42,2.23-3.71,3.42-7.85,3.38-12.25ZM39.81,95.2c-.22.05-.45.1-.67.15.06,1.05.13,2.09.21,3.47.8-.32,1.32-.52,1.84-.73-.46-.96-.92-1.92-1.38-2.88ZM33.34,53.31c.19-.07.39-.13.58-.2-.23-.61-.47-1.22-.7-1.82-.22.1-.43.2-.65.3.26.57.51,1.15.77,1.72ZM40.1,94.99c.2-.15.4-.29.6-.44-.34-.46-.68-.91-1.03-1.37-.17.12-.34.23-.51.35.31.48.62.97.94,1.45ZM12.78,7.54c-.16-.08-.33-.16-.49-.25-.15.31-.31.62-.46.93l.65.23c.1-.31.2-.61.3-.92Z"/>
  </g>
</svg>