<?xml version="1.0" encoding="UTF-8"?>
<svg id="_레이어_2" data-name="레이어 2" xmlns="http://www.w3.org/2000/svg" viewBox="0 0 69.04 100">
  <defs>
    <style>
      .cls-1 {
        fill: #fff;
        stroke-width: 0px;
      }
    </style>
  </defs>
  <g id="_레이어_1-2" data-name="레이어 1">
    <g>
      <path class="cls-1" d="M26.9,59.47c-.65.37-1.29.74-1.61.91-.68-4.78-2.02-9.79-1.81-14.73.09-2.25-1.06-7.03,4.17-7.18.46-.01.89-1.33,1.41-2.18.58.81,1.1,1.55,1.74,2.46,3.51-4.23.06-7.52-.94-11.25-1.03-.11-2.14-.23-3.42-.37-.73-3.26-1.46-6.47-2.18-9.68-.53.06-1.07.13-1.6.19.14,5.41.27,10.83.41,16.24v-.03c-1.51-3.82-2.84-7.73-4.61-11.44-2.22-4.65-4.81-9.12-7.62-14.38-.32,2.06-.55,3.56-.85,5.49-1.53-2.45-3.34-3.44-6.06-2.46-.61.22-2.37-.99-2.6-1.82C.64,6.72.43,4.05,0,1.18,23.17.79,45.98.4,69.04,0v21.97c-2.26-2.89-3.97-5.81-6.36-7.97-5.74-5.17-10.85-4.7-15.61,1.33-6.54,8.27-10.87,17.66-13.18,27.95-1.59,7.05.68,13.3,3.67,19.64,3.08,6.55,5.49,13.43,7.86,20.29,1.47,4.26,2.89,8.21,7.44,10.28,3.09,1.41,1.31,3.87.79,6.15h-20.79c-.9-.93-1.75-1.82-2.6-2.7l.09.09c1.52-.36,2.82-2.34,4.74-.33.37.38,2.74-.55,3.63-1.44.78-.78.76-2.35,1.1-3.58-1.34-.16-2.68-.32-4.02-.48-.02.22-.03.44-.05.66-1.17-1.13-2.34-2.27-4.25-4.11-.05,4.01-.39,7.01-4.03,7.06-.91.01-1.85-1.93-2.49-3.1.89.6,1.79,1.21,2.68,1.81.55-1.04,1.33-2.02,1.6-3.13.49-2.03.68-4.13,1.09-6.75.45,1.43.78,2.5,1.12,3.57,4.65-.93,6.12-2.03,6.26-4.88-1.5.88-2.89,1.7-4.68,2.76,1.05-1.51,1.78-2.56,2.51-3.61l-.56-.56c-1.85.54-3.71,1.08-5.22,1.52-3.68-3.2,1.95-7.49-2.42-10.85-.72,4.92-1.38,9.37-2.11,14.33-1.37.52-1.92-.38-1.7-2.33.64-5.75.88-11.59,2.04-17.23.47-2.3,2.31-4.32,1.25-6.93,2.41-1.14,3.03-5.17.91-8.75-.32,3.29-.58,6.05-.84,8.81ZM41.53,84.51l.62-.33v-4.44c-.56-.47-1.12-.94-1.67-1.4-.36,1.04-1.16,2.18-.97,3.11.23,1.12,1.31,2.06,2.02,3.07ZM27.29,19.35c.41-.36.83-.73,1.24-1.09-.61-.69-1.19-1.41-1.86-2.03-.05-.04-1.11.85-1.07.9.5.78,1.11,1.49,1.7,2.22ZM29.26,22.28c.46-.71.76-1.19,1.06-1.66-.53-.31-1.06-.86-1.58-.86-.37,0-.74.74-1.12,1.15.46.38.92.77,1.64,1.37ZM30.75,47.38c-.69-.56-1.02-1.02-1.44-1.11-.27-.06-.97.43-.94.6.06.44.34,1.1.67,1.19.37.1.88-.32,1.71-.68ZM31.9,18.11c-.31.6-.7,1.07-.6,1.24.19.31.67.6,1.04.6.22,0,.64-.59.61-.86-.04-.29-.52-.52-1.04-.98ZM30.75,56.28c-.17.08-.35.15-.52.23.12.49.24.98.36,1.47.3-.09.6-.19.9-.28-.25-.47-.5-.94-.74-1.41Z"/>
      <path class="cls-1" d="M16.17,93.66c4.2-.24,6.39,1.44,5.88,5.69-2.18-.36-4.6-.77-7.08-1.18.4-1.49.82-3.07,1.2-4.51Z"/>
      <path class="cls-1" d="M30.27,96.94c.06.87.12,1.73.22,3.06-1.91-.27-3.51-.5-5.11-.73-.05-.37-.09-.75-.14-1.12,1.71-.37,3.42-.75,5.13-1.12,0,0-.09-.09-.09-.09Z"/>
      <path class="cls-1" d="M24.21,88.2c-1.83.93-3.65,1.87-5.48,2.8-.19-.42-.37-.84-.56-1.25,1.95-.79,3.89-1.57,5.84-2.36.07.27.13.54.2.81Z"/>
      <path class="cls-1" d="M23.08,33.89c.05.74.1,1.48.15,2.22-.16,0-.33-.01-.49-.02.11-.74.23-1.47.34-2.22,0,0,0,.02,0,.02Z"/>
      <path class="cls-1" d="M30,34.85c-.04-.18-.06-.28-.09-.37.09-.02.17-.04.26-.06-.05.12-.09.24-.17.43Z"/>
      <polygon class="cls-1" points="29.93 32.16 30.14 32.16 30.04 32.41 29.93 32.16"/>
    </g>
  </g>
</svg>