<?xml version="1.0" encoding="UTF-8"?>
<svg id="_레이어_2" data-name="레이어 2" xmlns="http://www.w3.org/2000/svg" viewBox="0 0 109.3 100">
  <defs>
    <style>
      .cls-1 {
        fill: #fff;
        stroke-width: 0px;
      }
    </style>
  </defs>
  <g id="_레이어_1-2" data-name="레이어 1">
    <path class="cls-1" d="M101.59,91.67c-4.01-1.91-4.55-4.84-4.94-10.25-.32-4.48.23-9-.29-13.46-.87-7.6-7.12-16.67-18.2-19.69-10.32-2.81-20.72-3.62-29.24-3.18-.16,0-.33.02-.49.03,3.13-.36,10.3-.61,15.96-1.39,11.01-1.52,19.61-10.7,19.79-21.98.17-11-7.33-20.24-21.8-21.26C50.51-.37,14.79.17,2.89.17c-.62,0-1.25.07-2,.11-.04.52-.07.93-.11,1.42.47.08.8.13,1.14.19,5.05.89,6.32,2.39,6.42,7.54,0,.46.02.92.02,1.39,0,11.91,0,23.82,0,35.73-.01,11.85.04,23.71-.12,35.56-.07,5.57-1.54,10.57-7.34,13.02-.3.13-.53.42-.87.71v2.84h35.77c-.07-.59-.13-1.09-.14-1.15-1.63-1.52-3.34-2.55-4.2-4.06-.86-1.52-1.19-3.52-1.21-5.31-.09-11.45-.04-22.89-.02-34.34,0-.5.08-1.01.13-1.49,5.92-.27,9.86,2.54,11.18,8.08.5,2.12.79,4.33.82,6.51.08,6.71-.13,13.42.02,20.12.06,2.44.55,4.96,1.37,7.26,1.2,3.38,3.65,5.73,7.47,5.71,2.93-.01,5.92-.16,8.76-.8,4.23-.95,8.46-1.13,12.74-1.01.49.01,1.28,0,2.07,0-.29-2.38-3.19-4.34-4.19-4.9-5.51-3.08-8.07-8-8.46-14.06-.32-5.01-.22-10.05-.29-15.07-.06-4.63-1.41-8.42-3.81-11.55,7.3.67,15.21,2.74,18,11.98,2.39,7.88.78,17.8.85,23.79.04,4.06,3,11.59,12.4,11.35,2.93-.07,13.67-1.49,17.95-1.38.49.01.99,0,2.07,0-.6-1.08-1.93-3.93-7.71-6.68ZM30.21,40.7V9.72c6.04-.27,30.7-1.79,30.79,13.92.09,14.89-11.95,17.13-30.79,17.06Z"/>
  </g>
</svg>