<?xml version="1.0" encoding="UTF-8"?>
<svg id="_레이어_2" data-name="레이어 2" xmlns="http://www.w3.org/2000/svg" viewBox="0 0 142.47 100">
  <defs>
    <style>
      .cls-1 {
        fill: #fff;
        stroke-width: 0px;
      }
    </style>
  </defs>
  <g id="_레이어_1-2" data-name="레이어 1">
    <path class="cls-1" d="M142.47,84.84c-4.68,8.3-11.07,11.41-18.15,13.38-20.34,5.65-36.62-2.91-52.03-14.89-6.04-4.7-12.49-8.89-18.94-13.01-5.92-3.79-6.47-6.11-1.4-11.21,3.82-3.85,8.07-7.27,12.05-10.97,7.43-6.89,11.98-15.37,11.56-25.54-.14-3.4-2.48-7.86-5.25-9.79-11.5-8.04-32.65-1.24-37.55,11.83-1.24,3.31-1.3,7.22-1.25,10.84.11,7.4.45,14.8,1.09,22.17.68,7.86,1.84,15.67,2.75,23.51.41,3.54.72,7.09,1.2,11.84-9.94-.95-18.71-1.32-27.3-2.75-7.5-1.25-8.59-3.88-7.06-11.47,1.8-8.9,3.76-17.78,5.04-26.76,1.09-7.6,1.34-15.32,1.93-22.99.56-7.4-.94-14.04-6.22-19.76C1.27,7.47.94,4.45,0,1.99,2.34,1.3,4.85-.34,6.98.06c24.23,4.6,48.48-.85,72.65.52,7.76.44,15.82,2.61,22.94,5.81,12.89,5.78,14.84,14.42,5.85,25.08-5.07,6.01-11.52,10.94-17.75,15.84-6.16,4.85-6.42,5.28-.8,10.95,2.21,2.23,5.2,4.14,6.43,6.83,7.34,16.08,22.15,16.93,36.64,18.61,2.67.31,5.34.63,9.54,1.13Z"/>
  </g>
</svg>