<?xml version="1.0" encoding="UTF-8"?>
<svg id="_레이어_2" data-name="레이어 2" xmlns="http://www.w3.org/2000/svg" viewBox="0 0 69.25 90.25">
  <defs>
    <style>
      .cls-1 {
        fill: #fff;
        stroke-width: 0px;
      }
    </style>
  </defs>
  <g id="_레이어_1-2" data-name="레이어 1">
    <path class="cls-1" d="M69.25,88.54c-.89.47-1.03.58-1.19.62-11.52,3.23-19.62-.85-25.9-10.9-4.64-7.43-10.52-14.1-15.98-21-1.31-1.66-2.94-3.32-4.79-4.24-4.54-2.28-7.4-.38-7.43,4.72-.06,10.25-.02,20.51-.02,30.8H0V.18C14.7.18,28.98.67,43.21.03c13.47-.61,22.77,7.63,22.53,21.08-.15,8.45-3.67,15.4-9.09,21.52-1.02,1.16-2.73,1.88-4.25,2.39-3.76,1.25-7.61,2.26-12.61,3.72,9.95,13.44,19.61,26.49,29.47,39.81ZM34.47,13.98c0-.05,0-.1-.01-.15-5.29.34-10.62.41-15.84,1.19-1.46.22-3.85,2.69-3.7,3.85.63,4.7-3.32,12.6,2.62,13.49,8.5,1.28,17.69-.69,26.36-2.39,4.13-.81,5.76-5.11,4.68-9.66-1.02-4.32-3.61-6.53-8.14-6.34-1.99.08-3.98.01-5.97.01Z"/>
  </g>
</svg>