<?xml version="1.0" encoding="UTF-8"?>
<svg id="_레이어_2" data-name="레이어 2" xmlns="http://www.w3.org/2000/svg" viewBox="0 0 54.48 100">
  <defs>
    <style>
      .cls-1 {
        fill: #fff;
        stroke-width: 0px;
      }
    </style>
  </defs>
  <g id="_레이어_1-2" data-name="레이어 1">
    <path class="cls-1" d="M13.01,99.21c-15.68.51-12.82,1.92-12.8-10.6.03-21.82.37-43.65.69-65.47.09-5.99,1.89-11.43,5.67-16.29C14.42-3.25,38.77-2.63,45.95,11.73c6.19,12.38,8.35,25.13,2.47,38.33-3.15,7.08-3.95,7.7-12.5,9.43,5.49,5.28,10.69,9.98,15.47,15.08,1.57,1.67,2.71,4.32,2.87,6.61.4,5.69.13,11.42.13,18.82-3.26-2.13-5.77-3.28-7.64-5.08-11.25-10.84-22.36-21.84-33.74-33v37.29ZM34.07,56.79c1.03-3.51,2.03-6.2,2.61-8.98,1.79-8.66,2.43-17.39-.61-25.88-2.76-7.71-12.69-11.03-18.22-6.38-5.05,4.24-7.05,18.4-2.62,23.18,5.72,6.18,12.15,11.71,18.83,18.06Z"/>
  </g>
</svg>