<?xml version="1.0" encoding="UTF-8"?>
<svg id="_레이어_2" data-name="레이어 2" xmlns="http://www.w3.org/2000/svg" viewBox="0 0 57.92 100">
  <defs>
    <style>
      .cls-1 {
        fill: #fff;
        stroke-width: 0px;
      }
    </style>
  </defs>
  <g id="_레이어_1-2" data-name="레이어 1">
    <g>
      <path class="cls-1" d="M21.26,98.74c-5.27,0-10.08.27-14.81-.21-1.06-.11-2.65-2.88-2.6-4.38.09-3.17,1.8-6.35,1.64-9.46C4.15,58.93,2.55,33.19.98,7.45.84,5.21.35,2.99,0,.57c4.54-1.59,7.16.21,7.48,4.75.51,7.18,4.3,7.81,10.2,6.22,5.04-1.36,10.25-2.23,15.44-2.87,8.39-1.03,19.01,4.04,21.7,10.01,5.35,11.83,3.64,25.15-4.19,31.78-1.09.92-2.59,1.35-5.53,2.83,2.34-3.04,3.63-4.48,4.66-6.1,7.34-11.52,4.55-22.71-7.77-28.41-5.21-2.41-11.19-3.27-16.91-4.4-1.51-.3-4.46.63-4.84,1.69-2.36,6.55-6.04,13.36-5.81,19.96.65,18.65,2.94,37.25,4.72,55.85.21,2.18,1.27,4.27,2.09,6.87Z"/>
      <path class="cls-1" d="M40.86,99.13c0-3.2,0-5.24,0-7.28.05-15.91-1.54-30.88-20.61-36.24,7.31-.51,14.62-1.01,22.26-1.54,4.87,15.03,9.76,30.1,14.9,45.94-4.37-.23-10.22-.54-16.55-.87Z"/>
    </g>
  </g>
</svg>