<?xml version="1.0" encoding="UTF-8"?>
<svg id="_레이어_2" data-name="레이어 2" xmlns="http://www.w3.org/2000/svg" viewBox="0 0 127.66 100">
  <defs>
    <style>
      .cls-1 {
        fill: #fff;
        stroke-width: 0px;
      }
    </style>
  </defs>
  <g id="_레이어_1-2" data-name="레이어 1">
    <g>
      <path class="cls-1" d="M15.62,44.28c1.09-.43,1.84-.73,2.59-1.02.19.23.39.45.58.68-1.05,1.71-2.1,3.44-3.16,5.14-.47.75-1.05,1.43-1.47,2.2-1.76,3.23-5.12,3.68-8.14,4.63-3.2,1-4.33.22-5.24-3.06-.95-3.42-1.14-6.75.1-10.2,1.28-3.54,6.8-5.86,9.78-2.42,1.42,1.64,3.39,2.79,4.97,4.05Z"/>
      <path class="cls-1" d="M71.51,44.26c.94.16,2.15.41,3.36.57,5.98.82,10.93,3.65,14.35,8.5,4.74,6.74,8.95,13.85,13.56,20.68,2.17,3.22,3.69,6.95,7.12,9.3,1.27.87,2.02,2.45,3.11,3.61,4,4.28,8.8,7.25,14.67,8.8v2.52c-.76.08-1.44.2-2.13.2-8.54.07-17.07.08-25.61.19-2.31.03-4.12-.69-5.45-2.58-2.66-3.77-5.41-7.48-7.96-11.32-3.86-5.81-7.45-11.79-11.39-17.53-2.35-3.42-5.47-6.34-7.65-9.85-2-3.23-4.91-4.72-8.49-6.36-.35.89-.94,1.71-.94,2.52.04,9.6.12,19.19.3,28.79.04,1.95.43,3.91.85,5.82.4,1.84,1.42,3.24,3.18,4.23.81.45,1.16,1.71,1.93,2.92-1.21.32-1.93.5-2.64.71-1.33.39-2.65.58-3.39,2.16-.31.66-1.63,1.16-2.52,1.2-4.78.24-9.57.37-14.36.42-4.09.04-8.18-.06-12.27-.15-.87-.02-1.73-.26-2.55-.09-3.3.16-6.61.31-9.91.47-.04-.14-.07-.27-.11-.41.26-.15.51-.41.79-.44,3.23-.43,5.37-2.53,7.55-4.7,3.48-3.45,4.35-7.69,4.3-12.35-.23-21.38-.35-42.76-.72-64.14-.05-2.93-1.23-5.88-2.1-8.75-.26-.87-1.24-1.53-1.93-2.32-.58.2-1.29.44-2.28.78V.14c.65-.06,1.19-.15,1.73-.14,9.73.17,19.48.16,29.2.59,9.01.39,17.99,1.24,26.98,1.92.84.06,1.68.27,2.48.52,2.42.77,2.83,1.55,2.33,4.54-8.57-2.47-17.27-2.81-26.53-1.68-.56,12.82-.18,25.41.02,38.5,6.29-1.81,12.32-3.64,17.54-7,5.16-3.32,9.69-7.6,14.46-11.42,1.09,3.46-1.13,8.78-6.1,12.02-3.96,2.58-8.52,4.24-12.73,6.28Z"/>
    </g>
  </g>
</svg>