<?xml version="1.0" encoding="UTF-8"?>
<svg id="_레이어_2" data-name="레이어 2" xmlns="http://www.w3.org/2000/svg" viewBox="0 0 140.35 100">
  <defs>
    <style>
      .cls-1 {
        fill: #fff;
        stroke-width: 0px;
      }
    </style>
  </defs>
  <g id="_레이어_1-2" data-name="레이어 1">
    <path class="cls-1" d="M33.38,99.98c-10.53,0-20.54.11-30.53-.17C1.82,99.78,0,97.44,0,96.18c.11-21.33.51-42.66.73-63.98.11-10.5.02-21,.02-31.74C1.73.31,2.64.06,3.54.06c23.64,0,47.29-.2,70.93.1,22.28.28,40.52,9.45,53.55,27.48,4.84,6.69,7.74,14.83,11.19,22.46,2.1,4.65,1.15,9.32-1.96,13.28-6.51,8.26-12.65,16.9-19.93,24.42-14.09,14.57-30.15,15.11-45.81,2.26-5.62-4.62-10.85-9.71-16.38-14.44-4.96-4.25-10.91-6.01-17.35-6.74-3.63-.41-4.51.88-4.45,4.19.14,8.73.05,17.47.05,26.88ZM32.37,27.46c0,5.05.17,8.76-.05,12.45-.19,3.06,1.06,3.9,3.93,3.88,9.69-.09,19.39.03,29.09.06,4.81.01,9.62,0,15.56,0-.94-2.81-1.16-4.94-2.24-6.46-3.67-5.17-8.53-9.4-14.95-9.76-10.25-.59-20.57-.16-31.33-.16ZM100.04,63.86c-6.86-.51-9.97,1.59-10.73,6.92-.18,1.25.5,2.62.78,3.94,1.45-.4,3.54-.33,4.24-1.28,2.13-2.88,3.73-6.16,5.71-9.58Z"/>
  </g>
</svg>