<?xml version="1.0" encoding="UTF-8"?>
<svg id="_레이어_2" data-name="레이어 2" xmlns="http://www.w3.org/2000/svg" viewBox="0 0 93.24 100">
  <defs>
    <style>
      .cls-1 {
        fill: #fff;
        stroke-width: 0px;
      }
    </style>
  </defs>
  <g id="_레이어_1-2" data-name="레이어 1">
    <path class="cls-1" d="M60.62,54.08h32.63c-2.82,11.87-6.83,23.37-15.88,32.38-3.42,3.41-7.01,6.77-10.96,9.51-2.8,1.94-6.27,3.07-9.6,3.99-1.09.3-2.97-.92-3.99-1.94-5.37-5.39-10.57-10.95-15.87-16.42-2.97-3.08-6.01-6.1-9.01-9.14-.32.2-.63.4-.95.59v26.03H0V0c5.3.3,9.97.67,14.65.81,7.61.22,15.32,1.13,22.82.26,16.42-1.89,36.11,14.17,33.92,32.82-.76,6.46-3.74,12.21-8.07,17.17-.84.97-1.71,1.91-2.71,3.01ZM25.83,45.46c5.77-.81,11.24-1.37,16.6-2.45,1.66-.33,3.52-1.74,4.47-3.19,4.1-6.28,3.22-10.58-3.34-14.32-5.41-3.09-11.3-5.12-17.73-3.65v23.6Z"/>
  </g>
</svg>