<?xml version="1.0" encoding="UTF-8"?>
<svg id="_레이어_2" data-name="레이어 2" xmlns="http://www.w3.org/2000/svg" viewBox="0 0 92.59 100">
  <defs>
    <style>
      .cls-1 {
        fill: #fff;
        stroke-width: 0px;
      }
    </style>
  </defs>
  <g id="_레이어_1-2" data-name="레이어 1">
    <path class="cls-1" d="M73.28,74.97c5.87,7.16,12.55,15.31,19.31,23.56-5.38,1.25-82.19,2.04-92.59.97v-46.47c16.67,0,32.91.02,49.15-.02,2.95,0,5.89-.25,8.83-.45.54-.04,1.21-.26,1.55-.64,8.31-9.34,6.23-22.98-5.08-26.68-1.06-.35-2.23-.57-3.34-.55-12.49.19-24.99.45-37.48.64-2.63.04-5.28.03-7.89-.28-.63-.08-1.61-1.45-1.58-2.2C4.46,15.4,4.92,7.97,5.36.02,8.19.02,11.12-.03,14.05.03c10.66.21,21.34.22,31.98.78,6.71.35,13.61.71,20,2.56,13.14,3.8,18.89,14.64,22.16,26.77,3.8,14.12-1.4,26.36-9.35,37.74-1.51,2.16-3.24,4.16-5.55,7.1Z"/>
  </g>
</svg>