<?xml version="1.0" encoding="UTF-8"?>
<svg id="_레이어_2" data-name="레이어 2" xmlns="http://www.w3.org/2000/svg" viewBox="0 0 79.8 100">
  <defs>
    <style>
      .cls-1 {
        fill: #fff;
        stroke-width: 0px;
      }
    </style>
  </defs>
  <g id="_레이어_1-2" data-name="레이어 1">
    <g>
      <path class="cls-1" d="M25.8,100H0V.03h25.8v99.97Z"/>
      <path class="cls-1" d="M58.51,99.68c-5.1,0-9.53.19-13.92-.15-.98-.08-2.61-2.03-2.59-3.09.18-9.19.7-18.36,1.04-27.55.2-5.47,2.28-9.99,6.04-13.98,6.4-6.8,7.91-14.44,3.97-23.25-2.21-4.94-6.98-4.97-10.81-6.82-1.86-.9-4.09-1.07-6.23-1.59V.3c17.48-2.2,34.57,7.87,40.54,21.72,7.6,17.64,1.53,42.88-14.75,52.9-3.69,2.27-4.94,4.93-4.13,9.37.87,4.76.58,9.73.84,15.39Z"/>
    </g>
  </g>
</svg>