<?xml version="1.0" encoding="UTF-8"?>
<svg id="_레이어_2" data-name="레이어 2" xmlns="http://www.w3.org/2000/svg" viewBox="0 0 37.66 100">
  <defs>
    <style>
      .cls-1 {
        fill: #fff;
        stroke-width: 0px;
      }
    </style>
  </defs>
  <g id="_레이어_1-2" data-name="레이어 1">
    <path class="cls-1" d="M.14.02C4.81.02,9.3.06,13.79,0c2.23-.03,4.33.48,6.41,1.17,7.18,2.38,8.78,9.44,7.27,14.83-1.34,4.74-4.86,7.3-9.21,8.98-2.26.87-4.59,1.39-7.04,1.3-.24,0-.48.04-.8.06,0,1.35,0,2.65,0,3.96.01,2.25.04,4.49.03,6.74,0,.57.22.77.76.94,5.45,1.66,10.57,3.94,14.93,7.73,2.28,1.99,4.65,3.87,6.91,5.88,1.79,1.59,3.12,3.56,4.17,5.71.15.3.24.62.43,1.11-1.68,0-3.2,0-4.72,0-2.94.02-5.87.06-8.8.06-1.66,0-2.64-.71-3.27-2.22-.19-.45-.49-.87-.81-1.26-2.16-2.65-4.35-5.27-6.49-7.93-.83-1.03-1.71-1.1-2.33.06-.4.74-.7,1.64-.71,2.47-.1,9.37-.15,18.73-.17,28.1-.02,7.06,0,14.11.01,21.17,0,.37,0,.73,0,1.13H2.83c0-.34,0-.67,0-.99-.19-7.52-.25-15.05-.6-22.56-.29-6.26-.97-12.5-1.39-18.76-.25-3.67-.25-7.36-.49-11.03C-.32,36.54.2,26.43.07,16.32,0,11.26.11,6.2.14,1.14c0-.34,0-.68,0-1.12ZM7.81,7.02c-.15,1.57-.28,2.84-.38,4.11-.21,2.8-.39,5.59-.6,8.39-.05.71.19,1.01.95.95,1.15-.1,2.31-.06,3.46-.18,2.28-.24,4.5-.65,6.38-2.14,2.06-1.63,2.96-3.69,2.39-6.26-.56-2.51-2.44-3.78-4.77-4.18-2.41-.41-4.87-.47-7.44-.69Z"/>
  </g>
</svg>