<?xml version="1.0" encoding="UTF-8"?>
<svg id="_레이어_2" data-name="레이어 2" xmlns="http://www.w3.org/2000/svg" viewBox="0 0 56.53 100">
  <defs>
    <style>
      .cls-1 {
        fill: #fff;
        stroke-width: 0px;
      }
    </style>
  </defs>
  <g id="_레이어_1-2" data-name="레이어 1">
    <g>
      <path class="cls-1" d="M19.91,66.77c3.28,4.47,5.22,9.32,11.38,10.04.22,1.11.51,2.57.97,4.91.61-1.73.9-2.56,1.26-3.59,6.11.77,10.43,3.62,11.76,11.08,1.35-1.71,2.08-2.62,3.23-4.07.18.7.42,1.59.66,2.48.29-.25.58-.5.87-.74-.06.33-.04.7-.18,1-.48,1.01-.81,2.18-1.56,2.94-1.32,1.33-1.96,2.09-.97,4.37,1.17,2.7-.71,3.92-4.17,3.71-1.37-.08-2.78.42-4.16.72-1.93.41-4.07-.62-4.05-1.96.04-3-2.77-4.35-3.17-6.67-.9-5.25-4.94-6.92-8.93-8.63-2.58-1.11-5.39-1.69-8.28-2.57-.08,1.02.26,2.75-.35,3.2-2.69,2-3.09,4.66-2.72,7.58.35,2.72-1.19,5.73,1.22,8.14-.61.39-1.23.78-2.06,1.32-.58-2.92-.65-5.55-1.65-7.75-.96-2.12.85-4.95-1.86-6.45.57-3.68-1.03-7.5,1-11.14.62-1.11.54-2.76.4-4.13-.54-5.25.7-9.97,3.88-14.36,3.21,2.22,6.25.6,9.19-.69,4.82-2.12,9.17-4.93,13.06-8.58,3.94-3.7,8.35-6.59,14.96-4.24-4.21,5.35-10.23,8.02-14.76,12.39-4.46,4.31-9.79,7.73-14.94,11.71Z"/>
      <path class="cls-1" d="M11.04,33.52c-5.32-1.27-2.82-5.32-4.5-7.26-1.78-2.07-4.04-3.72-6.52-5.94C-.45,12.78,7.2,4.55,13.16,2.95c2.85-.76,5.61-1.69,8.75-1.61,3.62.1,7.27-1.18,10.91-1.21,3.95-.04,7.91-.49,11.93.58,3.54.94,7.36.79,11.77,1.19-.68,1.01-1.03,2.15-1.7,2.4-6.34,2.39-13,1.14-19.52,1.57-2.93.19-6.23-1.46-8.76,1.38-4.78-.18-7.43,3.24-10.42,6.13-2.29,2.21-3.38,4.82-3.26,8.02.1,2.63.22,5.3-.06,7.9-.16,1.44-1.14,2.78-1.77,4.23Z"/>
      <path class="cls-1" d="M30.97,44.47c1.1.46,1.5.62,1.89.79-.41.32-.79.78-1.25.9-.33.09-.78-.28-1.18-.44.22-.51.44-1.02.53-1.25Z"/>
    </g>
  </g>
</svg>