<?xml version="1.0" encoding="UTF-8"?>
<svg id="_레이어_2" data-name="레이어 2" xmlns="http://www.w3.org/2000/svg" viewBox="0 0 71.08 100">
  <defs>
    <style>
      .cls-1 {
        fill: #fff;
        stroke-width: 0px;
      }
    </style>
  </defs>
  <g id="_레이어_1-2" data-name="레이어 1">
    <g>
      <path class="cls-1" d="M19.95,57.65c2.24,4.67,5.69,7.9,7.08,13.09-3.54-.73-6.45-1.34-10.2-2.12,0,4.83-.15,9.12.04,13.39.18,3.96-1.12,7.16-3.93,9.87-1.97,1.89-3.72,4.04-5.86,5.71-1.09.85-2.82.88-5.02,1.49,0-5.71.15-10.82-.04-15.92-.18-4.72,1.04-9.56-1.49-14.13-.69-1.26-.73-3.6,0-4.79,2.66-4.3,1.42-8.89,1.46-13.32.16-16.65.06-33.3.06-50.7h7.14C20.41.21,31.65-.36,42.8.38c10.8.71,20.01,4.97,24.08,16.24.17.47.77.87.77,1.31-.04,7.46,1.36,15.25-1.77,22.19-3.55,7.88-9.96,13.54-18.46,15.76-7.33,1.92-14.85,3.44-22.44.26-1.22-.51-3.27.94-5.03,1.51ZM18.47,40.69c.75.33.98.52,1.21.52,4.62.02,9.23.03,13.85.01,8.36-.03,11.22-2.99,15.01-10.78,1.94-3.99.64-6.62-.67-9.41-1.6-3.38-4.98-5.43-8.66-5.95-3.46-.49-7.05-.18-10.57-.08-3.4.09-6.87-.47-10.16.41v25.29Z"/>
      <path class="cls-1" d="M51.47,100c-5.79-6.48-12.08-13.39-18.17-20.47-1.04-1.21-1.24-3.16-1.88-4.91,7.47.48,12.61,7.45,20.5,5.8,4.6,4.57,9.11,9.26,15.2,12.17,2.33,1.11,5.1,3.42,3.46,7.42h-19.12Z"/>
    </g>
  </g>
</svg>