<?xml version="1.0" encoding="UTF-8"?>
<svg id="_레이어_2" data-name="레이어 2" xmlns="http://www.w3.org/2000/svg" viewBox="0 0 91.87 100">
  <defs>
    <style>
      .cls-1 {
        fill: #fff;
        stroke-width: 0px;
      }
    </style>
  </defs>
  <g id="_레이어_1-2" data-name="레이어 1">
    <g>
      <path class="cls-1" d="M36.82,16.8c2.83.3,6.42-1.78,8.84,2.06-1.54.45-3.01.84-4.45,1.31-4.49,1.47-5.89,4.83-6.06,9.28-.31,7.74-.33,15.57-1.67,23.15-.81,4.56-.42,9.19-1.47,13.51-1.11,4.56-.93,9.05-1.4,13.56-.26,2.51-1.21,4.94-1.54,7.56-.46,3.63-2.89,4.49-7.18,5.37-3.52.73-6.95,1.8-10.56,1.33-2.78-.36-5.6-.78-8.23-1.68-1.08-.37-1.7-2.08-3.11-3.94,2.78-.13,4.67-.38,6.54-.27,5.79.34,9.52-2.88,12.19-7.36,1.49-2.52,2.99-5.6,2.9-8.38-.29-9.54,2.88-18.87,1.61-28.4-.72-5.42,1.7-10.43,1.57-15.76-.14-5.45-.23-10.92.05-16.36.15-3.03,1.96-5.81,1.58-9.08-.09-.74,1.86-1.85,3.03-2.54.55-.33,1.46-.06,2.2-.06,12.15,0,24.31-.06,36.46.02,9.29.07,18.52,6.56,21.7,15.15.4,1.08.43,2.33.5,3.51.09,1.48-.55,3.38.15,4.38,3.74,5.34-.9,7.96-3.6,10.75-2.78,2.86-5.78,4.23-10.72,2.43-4.82-1.75-8.23-4.18-11.52-7.75,4.1-3.88,10.17-5.85,9.33-12.69-3.65-4.27-7.55-8.07-13.36-9.05-1.14-.19-2.26-.75-3.39-.76-6.67-.07-13.33-.04-20.25-.04,0,3.61,0,7.02-.13,10.74-.13.13-.13-.09-.13-.31-.39.14-.82.21-1.13.45-.09.07.16.59.25.9.29-.23.59-.46,1.01-1.04Z"/>
      <path class="cls-1" d="M50.13,100c-.15-5.62,1.45-10.23,3.47-14.68,1.14-2.51,2.7-4.83,3.94-7.3,2.39-4.77,2.14-9.64-.02-14.37-1.52-3.35-3.28-6.6-5.12-9.79-1.82-3.18-3.07-6.38-1.87-10.54,4.77,0,9.67-.07,14.58.03,2.69.06,4.88,1.42,6.86,3.19,3.26,2.9,5.56,6.52,7.97,10.1,2.39,3.55,2.48,7.89,4.37,11.61.37.74.04,1.92-.18,2.85-.32,1.34-1.23,2.65-1.18,3.94.33,8.23-4.41,13.21-10.59,17.49-3.54,2.45-7.11,4.43-11.57,4.51-1.29.02-2.95.57-3.77,1.49-1.84,2.05-4.06,1.23-6.89,1.49Z"/>
    </g>
  </g>
</svg>