<?xml version="1.0" encoding="UTF-8"?>
<svg id="_레이어_2" data-name="레이어 2" xmlns="http://www.w3.org/2000/svg" viewBox="0 0 88.67 100">
  <defs>
    <style>
      .cls-1 {
        fill: #fff;
        stroke-width: 0px;
      }
    </style>
  </defs>
  <g id="_레이어_1-2" data-name="레이어 1">
    <path class="cls-1" d="M0,100v-8.39c1.4-1.09,3.15-2.51,4.96-3.85,9.68-7.17,15.72-16.34,15.74-28.77.03-16.89,0-33.77.01-50.66,0-7.99.05-8.24,8.34-7.94,5.3.19,10.9-1.77,15.87,1.66,4.13-3.6,9.58,3.08,13.55-1.75,7.81,2.32,16.63,2.51,22.04,10,4.09,5.67,7.62,11.68,6.58,19.06-.45,3.19-1.33,6.43-2.63,9.37-1.66,3.75-3.8,7.22-6.53,10.48-2.47,2.95-4.17,6.23-8.04,7.9-2.23.97-3.89,3.25-5.8,4.94,19.41,19.44,18.65,17.3,24.57,32.44h-14.78c-6.2-13.55-18.15-23.79-24-38.44,5.79-5.82,11.25-11.78,17.23-17.18,4.35-3.93,4.15-9.44,5.79-14.23.65-1.9-1.85-4.85-2.83-7.35-1.54-3.97-6.35-1.98-8.52-4.75-7.55.05-15.1.02-22.64.25-1.18.04-2.33,1.26-4.21,2.35,0,8.34-.42,17.31.11,26.22.68,11.42-2.38,21.97-6.29,32.38-1.98,5.28-4.47,10.38-6.74,15.55-3.3,7.51-9.29,10.69-17.25,10.69-1.41,0-2.83,0-4.52,0Z"/>
  </g>
</svg>