<?xml version="1.0" encoding="UTF-8"?>
<svg id="_레이어_2" data-name="레이어 2" xmlns="http://www.w3.org/2000/svg" viewBox="0 0 62.91 100">
  <defs>
    <style>
      .cls-1 {
        fill: #fff;
        stroke-width: 0px;
      }
    </style>
  </defs>
  <g id="_레이어_1-2" data-name="레이어 1">
    <path class="cls-1" d="M62.9,95.49c-4.24.63-7.8,1.16-12.37,1.84-.43-6.6-.66-12.64-1.24-18.65-1.53-15.93-18.79-28.67-34.13-24.84-1.72,15.05-3.06,30.16,3.74,44.67-11.92,3.52-15.74,1.09-15.93-10.85-.31-19.62,0-39.26-.46-58.87C2.29,19.37.88,9.96,0,.43c5.21,0,11.51,0,17.81,0,2.01,0,4.07.36,6.03.06,20.31-3.14,32.63,9.03,29.54,29.49-1.23,8.16-9.51,5.7-13.8,9.32,7.95-22.07-1.4-35.1-24.85-33.83v38.33c13-2.84,24.48-1.42,33.35,8.21,11.07,12.03,14.93,26.73,14.84,43.49Z"/>
  </g>
</svg>