<?xml version="1.0" encoding="UTF-8"?>
<svg id="_레이어_2" data-name="레이어 2" xmlns="http://www.w3.org/2000/svg" viewBox="0 0 61.01 100">
  <defs>
    <style>
      .cls-1 {
        fill: #fff;
        stroke-width: 0px;
      }
    </style>
  </defs>
  <g id="_레이어_1-2" data-name="레이어 1">
    <path class="cls-1" d="M58.94,97c-3.88,5.06-8.94,1.76-12.99,3-12.62-11.24-21.27-28.3-22.1-43.51,5.93-3.23,11.14-7.45,16.09-12.18,2.31-2.21,1.54-5.14,3.2-7.04,2.51-2.9.59-4.81-.73-7.18-.95-1.71-1.12-3.85-1.94-5.65-4.21-9.16-10.71-12.92-20.17-11.34-1.75.29-5.62.54-2.31,4.56.84,1.02-1.38,4.2-1.43,6.4-.2,8-1.31,16.25.19,23.97,2.76,14.26.79,28.49,1.57,42.71.08,1.53.09,3.08,0,4.62-.17,2.78-1.7,4.41-4.5,4.47-4.55.1-9.09.03-13.79.03V.04C12.33.04,24.57.11,36.8,0c4.07-.04,7.56,2.2,10.19,4.22,5.6,4.28,11.15,9.29,13.14,16.54.86,3.12.36,6.6.71,9.89.78,7.37-1.07,13.84-5.23,20.05-3.48,5.19-9.44,11.83-15.65,15.18,6.27,10.29,12.53,20.55,18.97,31.12Z"/>
  </g>
</svg>