<?xml version="1.0" encoding="UTF-8"?>
<svg id="_레이어_2" data-name="레이어 2" xmlns="http://www.w3.org/2000/svg" viewBox="0 0 75.09 100">
  <defs>
    <style>
      .cls-1 {
        fill: #fff;
        stroke-width: 0px;
      }
    </style>
  </defs>
  <g id="_레이어_1-2" data-name="레이어 1">
    <path class="cls-1" d="M0,91.37V.08C12.19.08,24.26-.16,36.33.2c4.52.14,8.3,3.51,11.04,6.61,3.07,3.48,5.24,8.14,6.59,12.66,1.37,4.55-1.11,9.08-2.4,13.55-2.26,7.88-8.3,10.86-16.55,12.62,7.03,3.47,12.19,8.39,18.32,11.97,1.52.89,2.13,3.21,3.38,4.69,4.94,5.85,7.45,12.83,10.02,19.89,1.54,4.24,4.28,8.03,6.35,12.09.72,1.4,1.07,2.99,2,5.72-7.98-2.83-15.01-2.07-22-2.16-2.06-.03-3.33-1.27-3.51-3.23-.26-2.95-2.41-5.49-1.65-8.67.27-1.12-.09-2.39-.23-4.77-1.03,2.2-1.51,3.23-2.2,4.72-1.23-6.36-2.49-12.18-5.16-17.7-1.82-3.75-4.25-6.9-7.41-9.23-2.21-1.63-5.25-2.38-8.03-2.91-2.45-.47-5.05-.1-8.04-.1,1.17,11.83-2.5,23.02-1.47,34.48.02.22-.14.45-.32.95H0ZM17.07,37.32c3.49,0,6.39.39,9.13-.09,4.24-.73,9.02-1.28,11.75-4.86,2.72-3.56,3.36-7.86,1.28-12.48-2.04-4.55-5.27-6.98-9.99-7.34-4.02-.3-8.08-.06-12.18-.06v24.83Z"/>
  </g>
</svg>