<?xml version="1.0" encoding="UTF-8"?>
<svg id="_레이어_2" data-name="레이어 2" xmlns="http://www.w3.org/2000/svg" viewBox="0 0 84.43 100">
  <defs>
    <style>
      .cls-1 {
        fill: #fff;
        stroke-width: 0px;
      }
    </style>
  </defs>
  <g id="_레이어_1-2" data-name="레이어 1">
    <path class="cls-1" d="M0,.17C12.25.17,24.26-.33,36.19.38c6.34.38,12.55,2.47,17.78,7.01,2.54,2.21,5.09,4.46,6.71,7.17,7.35,12.28,3.71,29.89-9.97,36.57-.85.41-1.77.7-2.57,1.19-2.7,1.61-2.89,2.9-1.59,6.23,2.21,5.65,6.46,10.04,9.28,15.31,1.58,2.95,3.33,5.88,5.44,8.46,2.34,2.86,5.06,5.45,9.28,5.27,2.01-.08,3.74-.1,5.46-1.78,1.99-1.93,4.58-3.56,8.4-2.39-6.29,5.57-12.21,10.81-18.55,16.43-4.17.82-7.99-1.74-11.27-4.38-4.59-3.7-8.67-8.08-10.95-13.78-2.59-6.46-7.63-11.47-10.5-17.87-1.54-3.43-5.38-5.7-9.86-5.41-2.02.13-4.05.02-6.62.02v35.1H0V.17ZM16.75,44.63c6.24,0,11.86.04,17.48-.03,1.43-.02,2.71-.17,4.22-.91,6.93-3.42,9.37-8.84,8.87-16.26-.41-6.01-4.07-10.48-9.77-11.99-6.85-1.82-13.72-1.48-20.8-1.41v30.6Z"/>
  </g>
</svg>