<?xml version="1.0" encoding="UTF-8"?>
<svg id="_레이어_2" data-name="레이어 2" xmlns="http://www.w3.org/2000/svg" viewBox="0 0 62.09 100">
  <defs>
    <style>
      .cls-1 {
        fill: #fff;
        stroke-width: 0px;
      }
    </style>
  </defs>
  <g id="_레이어_1-2" data-name="레이어 1">
    <path class="cls-1" d="M.41,0c1.02,1.56,2.01,2.46,2.2,3.5.3,1.71.08,3.52.08,5.29,0,20.54-.03,41.08.05,61.62,0,2.06-1,4.36.97,6.24.3.28-.35,1.44-.37,2.2-.15,3.85-.25,7.69-.27,11.54,0,.13,1.1.27,2.18.51V3.5c3.97-.66,7.79.61,11.05-1.58,1.89-1.27,3.68,2.35,5.56.06,4.46,2.77,9.38,1.19,14,1.09,4.86-.1,8.97,2.03,13.47,2.88.74.14,1.39.95,2,1.54,4.43,4.27,6.36,9.68,7.01,15.64.17,1.53-.03,3.09.03,4.64.32,7.31-2.16,13.51-6.98,19.01-2.45,2.8-4.31,6.11-6.69,9.54,1.5,1.62,2.94,3.17,4.38,4.72-.13,1.91.59,4.03-1.52,5.37-3.8.65-3.54-5.21-7.32-4.79.34,9.04,6.77,17.26,14.7,24.21.42-1.03.78-1.88,1.19-2.88h5.96v5.91c-.99.58-2.24,1.32-3.45,2.03,1.17,3.35,2.37,6.53-.99,9.11-3.83-.99-7.58-1.95-11.7-3.01.78-1.57,1.32-2.66,1.85-3.72-.24-.43-.35-.96-.66-1.12-7.49-3.95-10.28-11.05-12.7-18.51-.69-2.14-1.54-4.48-3.64-5.74-1.02-.61-2.89-1.36-3.45-.91-2.72,2.22-6.23,2.07-9.23,3.44-2.61,1.19-3.64,2.4-3.55,5.19.17,5.74.08,11.48.02,17.23,0,1.03-.17,2.14-.6,3.05-.24.51-1.62,1.1-1.74.97-1.49-1.65-3.36-.66-5-.78-4.06-.31-6.63-2.55-7.2-6.69-.12-.87-.02-1.76-.02-2.65C.04,58.7.04,30.64.05,2.59c0-.61.16-1.22.36-2.59ZM10.55,55.94c3.1.88,6.06-.15,6.51-2.32.94-4.52,4.07-5.02,7.38-5.2,2.82-.16,5.17-.92,7.72-2.17,3.09-1.51,4.94-4.09,7.29-6.23,3.94-3.59,5.49-8.04,5.82-13.47.42-6.83-5.82-12.8-13-13.82-6.61-.94-13.46-.2-20.3-.2v29.55c0,1.32.54,3.04-.1,3.89-2.4,3.23-.66,6.65-1.33,9.97Z"/>
  </g>
</svg>