<?xml version="1.0" encoding="UTF-8"?>
<svg id="_레이어_2" data-name="레이어 2" xmlns="http://www.w3.org/2000/svg" viewBox="0 0 92.2 100">
  <defs>
    <style>
      .cls-1 {
        fill: #fff;
        stroke-width: 0px;
      }
    </style>
  </defs>
  <g id="_레이어_1-2" data-name="레이어 1">
    <path class="cls-1" d="M50.9,61.95c-6.68,0-13.31.11-19.94-.05-2.77-.07-5.53.62-8.33-1.26-2.04-1.37-4.51.81-4.83,3.57-1.23,10.56-4.85,20.56-7.46,30.79-1.24,4.88-2.92,5.37-10.34,4.84.73-5.86-1.25-11.89,1.54-17.65.29-.6.06-1.45.04-2.19-.26-8.09.36-16.07,2.92-23.82.22-.66-.01-1.47.04-2.2.48-6.92.44-13.92,1.61-20.72,1.27-7.38,2.73-14.9,7.24-21.26,1.09-1.54,2.04-3.54,3.58-4.33,5.23-2.7,10.66-5.05,16.1-7.32,1.25-.52,2.85-.28,4.29-.29,4.91-.03,9.82.05,14.73-.03,6.65-.11,12.75,2,18.78,4.44,2.63,1.06,4.94,2.52,6.93,4.65,3.69,3.94,7.65,7.62,11.37,11.54.58.62.49,1.87,1.03,4.24-2.3-1.73-3.49-2.44-4.47-3.38-6.44-6.17-18.01-11.51-27.17-12.67-2.51-.32-4.89-2.46-7.47-1.37-5.35,2.27-10.89,1.24-16.35,1.36-3.61.08-6.6,1.54-8.48,4.29-2.03,2.97-4.16,6.04-4.13,10.08.01,2.49-1.05,4.97-1.33,7.49-.29,2.55-.43,4.98-1.28,7.56-1.01,3.05-.24,6.7-.24,10.43,7.94,0,15.5-.1,23.06.06,2.55.05,4.66-1.04,6.37-2.37,4.34-3.38,8.31-7.24,12.49-10.83,1.95-1.68,3.56-3.6,6.04-4.91,2.78-1.46,4.96-4.28,5.2-8.03.08-1.23,1.26-2.38,2.27-4.17,5.89,3.92,11.46,7.63,17.49,11.65-2.7,1.42-5.59.69-6.78,3.97-.82,2.26-3.32,3.98-5.24,5.76-1.72,1.59-3.85,2.76-5.49,4.41-1.78,1.8-2.91,4.37-4.9,5.81-1.71,1.24-4.24,1.35-6.53,1.99,7.62,6,11.77,13.56,15.26,22.04,2.24,5.42,3.14,11.46,6.71,16.39.86,1.18.81,3.02,1.36,5.3-.78.36-2.12,1.51-3.45,1.49-5.52-.08-10.72,2.52-16.34,1.68-1.29-.19-2.79.98-4.73.56,1.93-1.37,3.85-2.75,5.97-4.25-5.03-4.54-5.34-11.13-7.23-16.83-2.14-6.43-4.92-11.99-9.91-16.43Z"/>
  </g>
</svg>