<?xml version="1.0" encoding="UTF-8"?>
<svg id="_레이어_2" data-name="레이어 2" xmlns="http://www.w3.org/2000/svg" viewBox="0 0 76.53 100">
  <defs>
    <style>
      .cls-1 {
        fill: #fff;
        stroke-width: 0px;
      }
    </style>
  </defs>
  <g id="_레이어_1-2" data-name="레이어 1">
    <path class="cls-1" d="M18.02,15.33c-.28,2.35,0,4.32-.8,5.64-1.19,1.97-1.36,3.41.04,5.26.51.67.48,1.84.49,2.78.04,6.03.15,12.06-.05,18.08-.07,2.07-1.12,4.08-1.38,6.17-.25,1.98-.48,4.12.02,6,3.03,11.52.82,23.22,1.38,34.81.24,4.97-.61,5.62-5.37,5.68-4,.05-8.01.01-12.34.01V.25C11.04.25,22.1-.43,33.03.45c10.18.82,18.39,6.1,23.61,15.3,4.16,7.34,4.51,14.93,1.87,22.86-1.62,4.88-3.29,9.7-6.38,14.56,8.01,14.66,16.16,29.56,24.39,44.64-3.42,1.22-7.11-.09-10.62,1.76-2.82,1.49-7.54-1.11-8.88-4.3-3.24-7.68-8.74-13.92-12.92-21-1.31-2.23-2.66-4.38-3.81-6.72-1.96-3.98-4.54-7.66-6.69-11.56-1.12-2.03-2.47-3.99-2.32-6.59.19-3.16-.57-6.69,4.11-7.23,4.9-4.52,8.77-12.81,5.04-19.32-3.15-5.5-8.57-6.33-13.83-7.43-2.63-.55-5.47-.1-8.59-.1Z"/>
  </g>
</svg>