<?xml version="1.0" encoding="UTF-8"?>
<svg id="_레이어_2" data-name="레이어 2" xmlns="http://www.w3.org/2000/svg" viewBox="0 0 64.87 100">
  <defs>
    <style>
      .cls-1 {
        fill: #fff;
        stroke-width: 0px;
      }
    </style>
  </defs>
  <g id="_레이어_1-2" data-name="레이어 1">
    <path class="cls-1" d="M14.66,54.32c0,3.06.12,5.64-.03,8.22-.2,3.4.64,6.8-1.24,10.19-.91,1.63-.9,4.58-.02,6.25,2.76,5.23.65,10.62,1.21,15.88.25,2.38-1.28,3.54-3.93,3.63-2.81.09-5.62.02-8.82.02,0-5.96.17-11.61-.05-17.25-.19-4.8.82-9.62-1.16-14.46-.78-1.9-1.14-4.92.86-7.36.83-1.01.34-3.16.34-4.79.02-16.15.01-32.31.01-48.46V2c2.73-1.19,5.76.57,8.19-1.71.54-.51,2.83,1.29,4.26,1.19,4.32-.32,8.9,1.48,12.96-1.33,3.11.65,6.61-1.44,9.43,1.33,7-.3,12.2,3.7,17.73,7.14,2.26,1.4,3.88,2.82,4.82,5.35,1.06,2.87,3.26,5.47,3.73,8.38.47,2.9.84,5.77,1.54,8.66,1.4,5.84-1.23,11.25-2.99,16.54-.82,2.46-3.99,4.14-6.95,6.99-.48,2.9.9,6.53,2.62,10.33,2.38,5.25,3.64,10.88,4.76,16.6.81,4.13,1.06,8.16,1.28,12.28.07,1.25.9,2.46,1.49,3.96-.77.7-1.58,2.09-2.45,2.13-4.5.22-9.03.22-13.53,0-.92-.04-2.66-1.54-2.54-2.01.74-2.99-1.7-5.21-1.59-8,.12-3.08.21-6.19-.03-9.26-.21-2.67-.79-5.34-1.4-7.96-.85-3.67-1.48-7.46-2.93-10.9-1.75-4.17-5.16-7.03-9.85-7.33-4.97-.32-9.97-.07-15.71-.07ZM16.29,45.77c6.56,0,12.91.06,19.26-.05,1.27-.02,2.56-.62,3.78-1.12,8.33-3.44,9.64-14.46,6.08-21.2-2.79-5.26-8.4-8.36-14.58-8.9-5.33-.46-10.73-.1-16.77-.1,3.39,10.64,1.39,20.94,2.23,31.36Z"/>
  </g>
</svg>