<?xml version="1.0" encoding="UTF-8"?>
<svg id="_레이어_2" data-name="레이어 2" xmlns="http://www.w3.org/2000/svg" viewBox="0 0 88.57 100">
  <defs>
    <style>
      .cls-1 {
        fill: #fff;
        stroke-width: 0px;
      }
    </style>
  </defs>
  <g id="_레이어_1-2" data-name="레이어 1">
    <path class="cls-1" d="M75.72,83.12c-7.71-5.89-14.17-12.87-20.39-20.35,5.91-3.07,10.39-6.59,13.24-12.71,3.1-6.67,3.57-13.32,3.88-20.38.35-8.05-3.88-13.84-8.63-19.09-3.75-4.15-9.26-6.54-14.5-8.54C45.59.62,41.35,0,37.35,0c-9.12,0-18.14,2.23-27.35,1.44-3.22-.28-6.49-.04-10-.04v96.76c2.5,0,4.74-.04,6.98,0,9.66.21,9.55.27,9.41-9.34-.11-7.97-.02-15.94-.02-23.91h20.81c9.29,11.59,21.71,20.1,33.53,29.29,5.19,4.03,10.84,7.37,17.86,5-2.23-6.97-7.31-11.85-12.86-16.09ZM53.55,40.66c-1.1,1.08-2.97,2.77-4.67,4.6-2.97,3.21-6.74,4.45-10.95,4.5-6.5.08-13,.02-19.6.02-.67-5.18-1.59-10.16-1.9-15.17-.33-5.25-.07-10.54-.07-16.58,9.29,0,18.05-.09,26.81.03,5.63.08,10.34,4.7,11.01,10.29.24,2.01,1.03,4,.97,5.98-.05,1.84-.89,3.65-1.61,6.33Z"/>
  </g>
</svg>