<?xml version="1.0" encoding="UTF-8"?>
<svg id="_레이어_2" data-name="레이어 2" xmlns="http://www.w3.org/2000/svg" viewBox="0 0 31.93 100">
  <defs>
    <style>
      .cls-1 {
        fill: #fff;
        stroke-width: 0px;
      }
    </style>
  </defs>
  <g id="_레이어_1-2" data-name="레이어 1">
    <path class="cls-1" d="M.05,55.62c.79-2.27,1.54-4.55,2.37-6.8,2.38-6.46,5.05-12.83,7.11-19.38,1.96-6.24,3.32-12.67,4.89-19.04.27-1.1.31-2.26.48-3.39.19-1.31.11-2.76.67-3.88.61-1.21,1.83-2.1,2.79-3.13.48,1.31,1.48,2.67,1.35,3.92-.57,5.67-1.43,11.32-2.26,16.96-.44,3.04-.97,6.07-1.57,9.08-.74,3.68-1.64,7.34-2.39,11.02-2.08,10.2-3.27,20.48-2.74,30.9.05.91.4,1.8.72,3.18,2.42-3.06,4.38-5.84,6.65-8.34,2.24-2.47,4.68-4.79,7.25-6.9,1.77-1.46,3.94-1.53,6.54-.13-7.38,4.64-11.38,11.59-15.76,18.26-4.39,6.68-7.11,13.94-8.5,22.05h-2.94c0-3.49-.58-7.17.11-10.6,1.96-9.75.69-19.7,2.14-29.41,1.08-7.25,3.37-14.33,5.07-21.49,1.35-5.71,2.67-11.43,3.89-17.17.41-1.92.44-3.91.64-5.87-.43-.12-.87-.24-1.3-.36-.48,1.06-1.07,2.09-1.43,3.2-3.2,10-6.23,20.06-9.6,30-.89,2.61-2.8,4.87-4.25,7.29l.05.05Z"/>
  </g>
</svg>