<?xml version="1.0" encoding="UTF-8"?>
<svg id="_레이어_2" data-name="레이어 2" xmlns="http://www.w3.org/2000/svg" viewBox="0 0 80.23 100">
  <defs>
    <style>
      .cls-1 {
        fill: #fff;
        stroke-width: 0px;
      }
    </style>
  </defs>
  <g id="_레이어_1-2" data-name="레이어 1">
    <path class="cls-1" d="M5.07,99.84C3.38,66.6,1.7,33.66,0,.37,17.88.37,34.06-.63,50.06.66c14.99,1.21,21.89,13.33,26.31,25.9,5.8,16.47,5.36,32.93-4.38,49.14,2.56,1.56,5.41,3.31,8.25,5.04-2.48,14.81-5.81,18.51-20.02,18.97-17.58.56-35.18.13-55.14.13ZM37.14,45.51c9.29-2.09,12.81-5.43,8.98-14.32-3.3,1.13-7.86,1.34-9.39,3.6-1.49,2.21.11,6.51.41,10.72Z"/>
  </g>
</svg>