<?xml version="1.0" encoding="UTF-8"?>
<svg id="_레이어_2" data-name="레이어 2" xmlns="http://www.w3.org/2000/svg" viewBox="0 0 74.13 100">
  <defs>
    <style>
      .cls-1 {
        fill: #fff;
        stroke-width: 0px;
      }
    </style>
  </defs>
  <g id="_레이어_1-2" data-name="레이어 1">
    <path class="cls-1" d="M33.59,3.06c2.52-.46,4.22-1.28,5.68-.97,26.99,5.74,36.98,27.77,34.49,49.03-.78,6.7-6.71,12.97-10.91,19-1.79,2.57-2.87,3.94-1.16,7.19,2.85,5.46,4.74,11.42,7.04,17.18-5.07,2.45-6.39,1.57-7.77-4.29-1.01-4.28-2.59-8.43-4.19-13.52-6.66,5-9.37,13.1-18.99,10.64,3.28-2.8,6.33-5.94,9.89-8.31,5.97-3.98,6.53-8.89.69-13.18-7.01-5.15-14.9-8.05-23.73-7.19-1.89.18-4.78,1.37-5.27,2.77-3.49,10.01-6.61,20.15-9.55,30.34-.73,2.55-.38,5.41-.53,8.21-8.26.49-11.88-4.04-7.26-11.19,10.08-15.6,7.19-32.53,6.12-49.19C7.36,27.41,5.01,15.35,3.29,2.75c5.05-.92,9.48-1.73,15.05-2.75v54.19c15.92-.12,30.28,1.33,37.94,16.84,9.88-8.35,12.26-22.71,6.33-35.46-6.15-13.25-16.39-22.96-29.02-32.51Z"/>
  </g>
</svg>