<?xml version="1.0" encoding="UTF-8"?>
<svg id="_레이어_2" data-name="레이어 2" xmlns="http://www.w3.org/2000/svg" viewBox="0 0 168.11 100">
  <defs>
    <style>
      .cls-1 {
        fill: #fff;
        stroke-width: 0px;
      }
    </style>
  </defs>
  <g id="_레이어_1-2" data-name="레이어 1">
    <path class="cls-1" d="M167.92,99.82c-1.74.06-3.49.21-5.23.18-9.53-.17-19.06-.33-28.59-.59-4.42-.12-8.83-.55-13.24-.68-2.1-.06-4.23.14-6.32.42-1.79.25-3.11-.08-3.46-1.16-7.13-1.82-13.77-3.54-20.41-5.2-2.76-.69-5.7-.91-8.29-1.99-4.05-1.7-7.95-3.71-11.45-6.58-11.27-9.27-19.65-20.92-27.64-32.9-2.56-3.84-4.72-7.95-6.88-12.04-1.12-2.12-1.91-4.43-1.29-7,2.98-.6,5.83-1.33,8.73-1.72,5.27-.71,9.47-2.79,11.44-8.09.24-.66.51-1.46.35-2.09-1.2-4.65-5.63-8.25-10.51-8.2-6.56.06-13.12.41-19.98.65-.14,1.49-.32,2.61-.33,3.73-.04,14.23-.14,28.46-.02,42.69.02,2.59.96,5.18,1.45,7.77.25,1.31.45,2.63.7,4.09H3.75c.12-.61.04-1.37.38-1.69,3.18-3,3.67-7.06,3.9-10.96.46-7.93.58-15.88.58-23.82,0-7.32-.31-14.64-.56-21.95-.13-3.7-.95-4.67-4.52-5.91C.73,5.81.12,4.84,0,.98c.75-.13,1.54-.36,2.34-.38C11.99.36,21.65-.08,31.31.01c9.67.09,19.2,1.61,28.18,5.37,6.59,2.76,12.8,6.31,16.53,12.75,1.84,3.18,2.25,6.9,1.27,10.47-1.89,6.91-7.65,9.71-13.67,11.92-2.84,1.04-5.94,1.39-9.16,2.1.07,2.48,1.39,4.61,3.05,6.44,8.84,9.76,18.36,18.83,28.46,27.27,8.8,7.35,18.94,11.99,30.19,14.02,7.37,1.33,14.82,2.26,22.24,3.27,2.45.33,4.83-.05,6.98-1.51,1.89-1.28,3.91-1.37,6.06-.49,5.09,2.08,10.21,4.06,15.31,6.12.52.21.91.73,1.36,1.11-.06.32-.13.64-.19.97Z"/>
  </g>
</svg>