<?xml version="1.0" encoding="UTF-8"?>
<svg id="_레이어_2" data-name="레이어 2" xmlns="http://www.w3.org/2000/svg" viewBox="0 0 68.65 98.91">
  <defs>
    <style>
      .cls-1 {
        fill: #fff;
        stroke-width: 0px;
      }
    </style>
  </defs>
  <g id="_레이어_1-2" data-name="레이어 1">
    <path class="cls-1" d="M22.87,66.21c0,8.97.03,16.84-.01,24.7-.02,4.34-2.59,7.23-6.92,7.7-2.12.23-4.28.13-6.41.21-7.04.25-9.34-3.78-9.43-9.66-.15-9.3-.08-18.59-.02-27.89.12-16.86.2-33.72.51-50.57C.71,3.84,4.72-.02,11.6,0c9.27.04,18.62-.24,27.8.81,15.27,1.76,26.38,12.98,26.82,30.72.29,11.81-4.66,20.72-15.02,26.54-.71.4-1.36.88-2.38,1.53,1.89,3.03,3.72,6.04,5.62,9.01,4.11,6.42,8.28,12.8,12.37,19.23,3.45,5.43,2.04,9.33-4.26,10.47-4.04.73-8.29.66-12.41.41-4.2-.26-5.9-3.92-7.85-7.02-4.99-7.89-9.89-15.84-15.04-23.63-.65-.99-2.56-1.14-4.38-1.88ZM23.82,20.64v23.85c1.75.09,3.26.31,4.75.21,6.47-.43,11.53-3.05,12.93-10.11.91-4.58-1.92-10.82-5.92-11.92-3.76-1.04-7.71-1.36-11.76-2.03Z"/>
  </g>
</svg>