<?xml version="1.0" encoding="UTF-8"?>
<svg id="_레이어_2" data-name="레이어 2" xmlns="http://www.w3.org/2000/svg" viewBox="0 0 75.72 100">
  <defs>
    <style>
      .cls-1 {
        fill: #fff;
        stroke-width: 0px;
      }
    </style>
  </defs>
  <g id="_레이어_1-2" data-name="레이어 1">
    <path class="cls-1" d="M0,99.94V.37C16.74.37,33.6-.69,50.23.76c10.52.91,18.41,12.99,19.23,24.44.97,13.53-3.94,22.57-15.1,27.84-1.86.88-3.71,1.78-6.18,2.97,9.21,14.7,18.1,28.91,27.54,43.98h-18.66c-9.07-14.33-18.36-29.02-27.67-43.73h-13.25v43.68H0ZM16.15,41.25c9.48,0,18.17.52,26.77-.17,6.62-.53,10.16-5.32,10.5-11.92.35-6.7-2.03-13.05-8.98-13.94-9.22-1.18-18.71-.29-28.29-.29v26.32Z"/>
  </g>
</svg>