<?xml version="1.0" encoding="UTF-8"?>
<svg id="_레이어_2" data-name="레이어 2" xmlns="http://www.w3.org/2000/svg" viewBox="0 0 59.34 100">
  <defs>
    <style>
      .cls-1 {
        fill: #fff;
        stroke-width: 0px;
      }
    </style>
  </defs>
  <g id="_레이어_1-2" data-name="레이어 1">
    <path class="cls-1" d="M44.15,99.43c-8.79-13.2-17.71-26.59-26.74-40.14h-5.09v40.12c-4.1.2-7.95.38-12.32.59V0c11.67.8,23.4.74,34.81,2.62,11.54,1.91,17.85,10.77,18.87,23.17,1.07,13.05-4.21,23.15-14.59,27.87-2.47,1.12-5,2.11-8.1,3.42,9.4,14.05,18.64,27.85,28.35,42.35h-15.19ZM12.65,10.6v38.36c9.85.14,19.76.69,25.28-9.08,3.95-7,3.56-14.75-.97-21.59-5.88-8.9-15.07-8.16-24.31-7.7Z"/>
  </g>
</svg>