<?xml version="1.0" encoding="UTF-8"?>
<svg id="_레이어_2" data-name="레이어 2" xmlns="http://www.w3.org/2000/svg" viewBox="0 0 64.86 100">
  <defs>
    <style>
      .cls-1 {
        fill: #fff;
        stroke-width: 0px;
      }
    </style>
  </defs>
  <g id="_레이어_1-2" data-name="레이어 1">
    <path class="cls-1" d="M45.93,99.77c-6.63-12.32-13.64-25.35-20.84-38.73h-13.03v38.96H0V.04C8.19.04,16.73-.08,25.27.09c5.81.11,11.73,0,17.39,1.09,12.85,2.47,20.66,11.51,22,24.34,1.41,13.46-4.41,24.64-15.81,30.01-3.31,1.56-6.81,2.7-10.8,4.25,7.43,13.12,14.86,26.24,22.65,39.99h-14.76ZM12.2,50.96c6.17,0,11.85.37,17.45-.12,4.03-.35,8.32-1.17,11.87-2.99,7.74-3.97,9.81-11.27,9.47-19.45-.31-7.46-3.09-13.78-10.4-16.43-9.21-3.33-18.9-2.1-28.39-2v40.99Z"/>
  </g>
</svg>