<?xml version="1.0" encoding="UTF-8"?>
<svg id="_레이어_2" data-name="레이어 2" xmlns="http://www.w3.org/2000/svg" viewBox="0 0 45.11 100">
  <defs>
    <style>
      .cls-1 {
        fill: #fff;
        stroke-width: 0px;
      }
    </style>
  </defs>
  <g id="_레이어_1-2" data-name="레이어 1">
    <path class="cls-1" d="M17.84,81.14c.53,4.41.87,8.85,1.64,13.22.74,4.22-1.07,5.65-4.96,5.5-1.38-.05-2.78.1-4.16.13-7.07.17-10.15-3-10.16-10.03C.17,63.7.03,37.45,0,11.19,0,7.51.36,3.83.57,0h34.39c.38,10.41.97,20.54.94,30.67,0,2.46-2.19,4.86-3.18,7.37-1.02,2.58-2.38,5.21-2.57,7.89-.86,12.59,4.3,24.17,6.88,36.17.37,1.73,4.29,2.7,7.52,4.57.14,2.67.35,6.63.56,10.56-12.53,2.67-22.27,1.72-25.31-12.62-.26-1.23-1.32-2.28-1.99-3.44.2-.76.58-1.52.53-2.25-.67-9.01-1.39-18.01-2.15-27.01-.03-.33-.55-.63-.84-.94-.44,0-.88-.01-1.32-.02,0,2.22-.27,4.48.05,6.66,1.14,7.85,2.48,15.68,3.75,23.51ZM18.87,14.63l-1.56.35c0,5.92-.09,11.83.08,17.74.03,1.06,1.14,2.09,1.75,3.13.77-1.06,2.23-2.13,2.2-3.17-.12-5.19-.56-10.38-1.05-15.56-.08-.87-.94-1.67-1.43-2.5Z"/>
  </g>
</svg>