<?xml version="1.0" encoding="UTF-8"?>
<svg id="_레이어_2" data-name="레이어 2" xmlns="http://www.w3.org/2000/svg" viewBox="0 0 69.01 100">
  <defs>
    <style>
      .cls-1 {
        fill: #fff;
        stroke-width: 0px;
      }
    </style>
  </defs>
  <g id="_레이어_1-2" data-name="레이어 1">
    <path class="cls-1" d="M69.01,89.06c-3.36.96-6.54,1.98-9.78,2.74-1.65.39-3.41.34-5.12.45-.78.05-1.58-.03-2.36.02-5.66.42-6.02.07-8.8-5.13-3.56-6.65-7.43-13.14-12.76-18.58-1.45-1.48-3.12-2.73-5.03-4.39,1.7,10.45,3.3,20.29,4.92,30.23-7.3,1.91-14.2,3.71-21.4,5.59-.36-5.36-.57-10.21-1.04-15.04-.59-6.09-1.42-12.15-2.09-18.23-.75-6.78-1.52-13.57-2.14-20.36C2.29,34.33,1.29,22.28.24,10.24c-.03-.39-.03-.79-.1-1.18-.42-2.31.04-3.56,2.83-4.09C9.56,3.73,16.01,1.59,22.63.5c12.36-2.02,22.53,2.01,29.54,12.58,3.54,5.34,4.01,11.59,3.48,17.87-.12,1.4-.59,2.79-.63,4.18-.19,6.12-3.54,10.59-7.58,14.69-2.64,2.68-2.6,3.28.6,5.05,1.18.65,2.37,1.3,3.96,2.17,1.04,3.77,2.21,8.06,3.42,12.34.14.5.49,1.01.88,1.36,5.6,5.12,9.01,11.74,12.7,18.31ZM19.58,36c2.81.36,5.68.57,8.49,1.13,6.22,1.23,10.87-1.32,14.71-5.86,3.16-3.73,1.6-7.95-3.17-8.94-1.14-.24-2.19-.88-3.33-1.11-2.33-.46-4.71-.7-7.05-1.13-1.33-.25-3.02-.31-3.83-1.14-1.66-1.71-3.46-1.36-5.36-1.24-.71.04-1.41.11-2.41.19.63,5.89,1.25,11.65,1.95,18.1Z"/>
  </g>
</svg>