<?xml version="1.0" encoding="UTF-8"?>
<svg id="_레이어_2" data-name="레이어 2" xmlns="http://www.w3.org/2000/svg" viewBox="0 0 56.92 100">
  <defs>
    <style>
      .cls-1 {
        fill: #fff;
        stroke-width: 0px;
      }
    </style>
  </defs>
  <g id="_레이어_1-2" data-name="레이어 1">
    <g>
      <path class="cls-1" d="M2.14,64.82v-12.33c7.44-.16,14.79-.55,22.12-.35,2.44.07,4.79,2.06,7.27,2.34,1,.11,3.1-1.9,3.27-3.13,2.29-17.38-7.71-30.33-25.05-32.79q-7.4-1.05-8.46-8.84C.89,6.8.51,3.86,0,0c3.79.27,7.33.01,10.59.85,22.12,5.69,32.87,17.57,34.36,41.43.34,5.4-.57,10.98-1.68,16.32-.9,4.34-4.29,6.31-8.91,6.26-10.53-.12-21.07-.04-32.23-.04Z"/>
      <path class="cls-1" d="M36.67,99.66c.15-7.37-4.21-12.5-8.91-17.52-1.05-1.12-1.5-2.8-2.23-4.23,1.42-.43,2.87-1.3,4.24-1.19,3.62.3,7.33.64,10.79,1.67,4.57,1.36,6.99,5.25,7.08,10.01.02.85,0,1.71,0,2.56,0,7.86-2.58,9.96-10.97,8.7Z"/>
      <path class="cls-1" d="M56.92,1.85v11.28h-10.93c-.21-3.48-.44-7.2-.68-11.28h11.61Z"/>
    </g>
  </g>
</svg>