<?xml version="1.0" encoding="UTF-8"?>
<svg id="_레이어_2" data-name="레이어 2" xmlns="http://www.w3.org/2000/svg" viewBox="0 0 69.22 100">
  <defs>
    <style>
      .cls-1 {
        fill: #fff;
        stroke-width: 0px;
      }
    </style>
  </defs>
  <g id="_레이어_1-2" data-name="레이어 1">
    <path class="cls-1" d="M0,16.22V.01c1.92,0,3.62,0,5.32,0,10.83,0,21.67-.04,32.5.02,12.2.07,20.71,5.86,24.4,17.48,3.32,10.44,3.27,21.07-1.96,31-2.23,4.25-4.9,8.9-11.66,7.92,2.25,2,4.29,4.33,6.79,5.93,5.3,3.4,7.35,8.13,7.9,14.27.31,3.42,1.62,7.42,3.89,9.85,3.65,3.91,1.17,7.97,1.76,11.88.03.22-.22.52-.41.72-1.7,1.77-12.33.82-13.42-1.35-5.59-11.05-14.65-19.23-23.05-27.95-3.71-3.85-7.59-7.54-11.87-11.78v38.55H4.45c-.07-1.28-.21-2.53-.21-3.77-.01-19.03.22-38.07-.12-57.1-.14-7.95.84-14.84,8.65-19.46H0ZM45.86,51.18c3.39-8.12,6.72-16.93,4.08-26.7-1.13-4.17-3.46-7.98-7.86-8.47-5.96-.67-12.04-.17-18.57-.17.23,3.5.34,6.54.66,9.56.24,2.24-.03,5.21,1.27,6.53,6.56,6.65,13.56,12.87,20.42,19.25Z"/>
  </g>
</svg>