<?xml version="1.0" encoding="UTF-8"?>
<svg id="_레이어_2" data-name="레이어 2" xmlns="http://www.w3.org/2000/svg" viewBox="0 0 65.21 93.44">
  <defs>
    <style>
      .cls-1 {
        fill: #fff;
        stroke-width: 0px;
      }
    </style>
  </defs>
  <g id="_레이어_1-2" data-name="레이어 1">
    <path class="cls-1" d="M38.51,39.68c10.88,9.08,19.33,35.64,26.7,51.38-3.25.33-6.48,1.39-9.34.75-2.73-.61-6.2-2.39-7.37-4.67-4.66-9.14-8.74-18.6-12.68-28.09-4.33-10.4-13.06-14.42-24.45-17.22,0,15.09-.06,29.83.03,44.57.04,6.81-.03,6.89-6.8,7.03C1.57,93.5,0,92.84,0,89.38c.03-23.28.28-46.44,4.61-69.55C7.99,1.82,27.32-5.06,42.62,3.94c6.31,3.71,11.48,8.74,10.65,17.18-.91,9.21-5.71,15.37-14.76,18.55ZM16.45,23.18c-.36,5.78,4.53,10.39,11.34,10.7,5.55.25,12.71-6.83,13.05-12.91.32-5.82-5.93-11.96-12.67-12.43-7.18-.5-11.09,4.38-11.72,14.63Z"/>
  </g>
</svg>