<?xml version="1.0" encoding="UTF-8"?>
<svg id="_레이어_2" data-name="레이어 2" xmlns="http://www.w3.org/2000/svg" viewBox="0 0 47.07 100">
  <defs>
    <style>
      .cls-1 {
        fill: #fff;
        stroke-width: 0px;
      }
    </style>
  </defs>
  <g id="_레이어_1-2" data-name="레이어 1">
    <path class="cls-1" d="M0,1.82c13.21-5.61,23.61,3.03,33.89,8.42,6.37,3.34,8.61,12.06,7.39,21.95-.94-5.01-1.57-8.35-2.2-11.69-.38-.02-.76-.04-1.15-.06-2.86,6.47-6.11,12.81-8.47,19.46-2.39,6.71-1.15,7.99,6.14,8.25,1.2.04,2.4,0,3.96,0,2.51,17.31,4.99,34.42,7.51,51.83h-11.86c-1.08-8.49-2.08-16.95-3.27-25.38-.7-4.96-1.76-9.87-2.59-14.81-.9-5.39-3.32-8.75-9.26-10.02-6.93-1.49-7.49-1.75-7.31,5.25.33,12.8.99,25.6,1.54,38.83H4.53C.51,63.33,5.9,32.25,0,1.82Z"/>
  </g>
</svg>