<?xml version="1.0" encoding="UTF-8"?>
<svg id="_레이어_2" data-name="레이어 2" xmlns="http://www.w3.org/2000/svg" viewBox="0 0 58.67 94.49">
  <defs>
    <style>
      .cls-1 {
        fill: #fff;
        stroke-width: 0px;
      }
    </style>
  </defs>
  <g id="_레이어_1-2" data-name="레이어 1">
    <path class="cls-1" d="M58.67,93.63c-3.23,0-5.2-.47-6.83.08-8.19,2.73-11.68-2.07-15.36-8.25-6.13-10.27-13.05-20.06-19.71-30.01-.95-1.41-2.3-2.56-4.72-3.43,0,7.04,0,14.09,0,21.13,0,3.16.02,6.33.09,9.49.18,8.32-.02,8.53-8.66,8.31-.96-.02-1.92-.2-3.02-.33-.19-.82-.46-1.44-.45-2.06C.26,61.27.64,33.98.76,6.69.78,1.67,2.82-.34,7.55.05c10.55.86,21.18,1.22,31.61,2.86,8.95,1.41,14.53,7.7,15.51,16.66,1.12,10.3-1.55,19.59-11.07,25.49-2.52,1.57-5.36,2.64-8.07,3.89-5.34,2.48-6.14,4.05-2.96,9.07,3.82,6.03,8.22,11.69,12.46,17.44,4.29,5.83,8.69,11.57,13.65,18.16ZM13.19,41.68c7.38,1.26,14.47-.28,20.95-3.69,9.75-5.13,10.27-17.82,1.36-24.32-5.98-4.36-12.93-3.7-19.69-3.55-.9.02-2.46,2.64-2.5,4.09-.23,8.97-.12,17.95-.12,27.47Z"/>
  </g>
</svg>