<?xml version="1.0" encoding="UTF-8"?>
<svg id="_레이어_2" data-name="레이어 2" xmlns="http://www.w3.org/2000/svg" viewBox="0 0 69.29 107.65">
  <defs>
    <style>
      .cls-1 {
        fill: #fff;
        stroke-width: 0px;
      }
    </style>
  </defs>
  <g id="_레이어_1-2" data-name="레이어 1">
    <path class="cls-1" d="M18.91,2.06c-1.62,1.2-2.3,1.97-3.15,2.3C7.17,7.69,5.21,14.24,7,22.51c1.22,5.66,3.19,11.21,3.86,16.92.67,5.72.15,11.58.15,17.62,7.54-.45,14.36-.51,21.09-1.34,6.59-.81,11.55-4.27,13.19-11.16,1.67-7.02,1.19-13.52-4.72-18.73-4.84-4.26-10.27-6.64-16.8-6.33-1.08.05-2.18-.18-3.36-.29,2.03-5.45,9.25-8.24,17.49-7.05,12.84,1.85,23.25,11.87,23.74,23.25.31,7.16-1.61,13.76-6.08,19.57-4.73,6.14-12.03,5.62-19.14,7.39,11.05,14.73,21.81,29.07,32.87,43.81-10.53,3.28-18.02,1.07-23.07-6.23-6.91-9.98-13.7-20.04-20.38-30.17-2.16-3.28-4.6-4.65-8.69-4.24-3.62.36-4.99,1.81-4.99,5.19-.02,7.49-.09,14.99-.14,22.48-.01,2.13,0,4.26,0,6.78-4.51-.39-8.53-.74-11.99-1.04C.02,70.14-.05,41.39.07,12.64.1,5.89,8.65-.97,15.26.11c.99.16,1.88.98,3.65,1.95Z"/>
  </g>
</svg>