<?xml version="1.0" encoding="UTF-8"?>
<svg id="_레이어_2" data-name="레이어 2" xmlns="http://www.w3.org/2000/svg" viewBox="0 0 72.6 92.09">
  <defs>
    <style>
      .cls-1 {
        fill: #fff;
        stroke-width: 0px;
      }
    </style>
  </defs>
  <g id="_레이어_1-2" data-name="레이어 1">
    <path class="cls-1" d="M38.79,48.28c5.77,7.23,11.3,14.2,16.89,21.14,5.6,6.96,11.26,13.88,16.92,20.86-6.5,3.48-16.15,1.71-20.6-3.37-7.35-8.39-14.75-16.73-22.29-24.95-4.55-4.96-7.95-5.84-15.73-4.51,0,9.16,0,18.46,0,27.75,0,6-.95,6.68-6.77,5.32-2.54-.59-5.16-.82-7.13-1.13C.08,61.5.16,33.91,0,6.31-.03,1.75,1.41.17,6.02.31,13.5.53,20.99,0,28.48,0c8.02,0,14.82,2.89,20.55,8.66,7.96,8,8.97,17.36,4.86,27.11-1.53,3.64-5.39,6.45-8.58,9.18-1.92,1.64-4.61,2.39-6.52,3.33ZM13.65,11c0,11.54-.1,21.84.13,32.14.03,1.16,1.76,3.13,2.9,3.3,15.49,2.22,27.14-12.43,21.09-26.98-1.32-3.17-5.18-6.31-8.52-7.35-4.57-1.42-9.78-.81-15.6-1.11Z"/>
  </g>
</svg>