<?xml version="1.0" encoding="UTF-8"?>
<svg id="_레이어_2" data-name="레이어 2" xmlns="http://www.w3.org/2000/svg" viewBox="0 0 158.27 100">
  <defs>
    <style>
      .cls-1 {
        fill: #fff;
        stroke-width: 0px;
      }
    </style>
  </defs>
  <g id="_레이어_1-2" data-name="레이어 1">
    <path class="cls-1" d="M16.98,100c-.22-22.61-.36-45.23-.74-67.84-.06-3.74-.92-7.54-1.95-11.17-1.26-4.47-4.57-7.34-9.11-8.12C1.95,12.32.65,10.85.62,7.71c-.03-2.34-.36-4.68-.62-7.71h134.1c5.46,13.52,13.67,25.56,22.15,37.44,1.1,1.54,1.42,3.63,2.01,5.22-4.89-.25-9.54-.5-14.13-.73-2.96-4.51-5.57-9.38-9-13.57-12.3-15.02-27.98-23.27-47.76-22.75-1.78.05-3.57-.03-5.36-.03-8.14.02-8.36.07-8.39,8.06-.03,11.19.45,22.38.3,33.57-.23,17.6-.79,35.19-1.21,52.79H16.98Z"/>
  </g>
</svg>