<?xml version="1.0" encoding="UTF-8"?>
<svg id="_레이어_2" data-name="레이어 2" xmlns="http://www.w3.org/2000/svg" viewBox="0 0 99.09 100">
  <defs>
    <style>
      .cls-1 {
        fill: #fff;
        stroke-width: 0px;
      }
    </style>
  </defs>
  <g id="_레이어_1-2" data-name="레이어 1">
    <path class="cls-1" d="M41.82,100H12.45c-4.27-24.07-4.28-48.24-3.52-72.47-3.18-.53-5.88-.99-8.94-1.5.27-1.23.29-2.49.8-3.49,3.15-6.12,6.29-12.25,9.74-18.19.75-1.3,2.71-2.58,4.17-2.67C28.67.89,42.64-.17,56.6.02c5.19.07,10.99,2.25,15.36,5.19,9.06,6.08,17.37,13.26,25.89,20.12.81.65,1.53,2.63,1.13,3.34-3.02,5.42-6.19,10.77-9.73,15.86-.5.71-3.66.45-4.89-.39-4.69-3.17-8.91-7.07-13.68-10.1-3.32-2.1-7.12-3.97-10.94-4.64-7.18-1.27-14.52-1.61-21.8-2.3-2.71-.26-3.7,1-3.39,3.73,1.26,11.14,2.43,22.3,3.6,33.46,1.24,11.85,2.44,23.7,3.68,35.71Z"/>
  </g>
</svg>