<?xml version="1.0" encoding="UTF-8"?>
<svg id="_레이어_2" data-name="레이어 2" xmlns="http://www.w3.org/2000/svg" viewBox="0 0 111.85 100">
  <defs>
    <style>
      .cls-1 {
        fill: #fff;
        stroke-width: 0px;
      }
    </style>
  </defs>
  <g id="_레이어_1-2" data-name="레이어 1">
    <path class="cls-1" d="M84.61,94.44c-5.23-8.95-10.94-18.19-16.12-27.73-5.03-9.25-7.56-10.7-19.09-8.57v41.86h-26.73c0-11.24-.09-22.47.03-33.7.11-10.52.44-21.03.69-31.55.05-2.08.08-4.16.19-6.24.33-6.61.4-6.74-5.66-9.09-4.78-1.85-9.66-3.46-14.58-4.91C-.23,13.47,0,10.75,0,8.09.02,5.38-.04,2.52,3.6,1.84c1.2-.23,2.38-.68,3.58-.71C22.81.72,38.45.3,54.09.04c5.85-.09,11.73-.07,17.56.43,13.68,1.19,24.47,7.42,31.14,19.64,4.85,8.9,2.7,23.87-4.16,31.26-1.86,2-2.28,3.82-1.11,6.24,3.86,8.04,7.69,16.09,11.45,24.17,1.1,2.37,1.95,4.86,2.88,7.22-9.44,1.88-18.24,3.64-27.23,5.43ZM49.9,36.64c6.77,0,12.98.17,19.17-.07,3.12-.12,6.35-.61,9.29-1.62,4.45-1.54,5.44-8.9,1.51-11.47-2.55-1.68-5.61-3.25-8.57-3.52-6.05-.55-12.19-.21-18.29-.21-2.12,0-3.1,1.2-3.12,3.21-.03,4.37-.01,8.75-.01,13.68Z"/>
  </g>
</svg>