<?xml version="1.0" encoding="UTF-8"?>
<svg id="_레이어_2" data-name="레이어 2" xmlns="http://www.w3.org/2000/svg" viewBox="0 0 62.35 100">
  <defs>
    <style>
      .cls-1 {
        fill: #fff;
        stroke-width: 0px;
      }
    </style>
  </defs>
  <g id="_레이어_1-2" data-name="레이어 1">
    <path class="cls-1" d="M38.75,58.18c7.74,13.67,15.35,27.12,23.6,41.7-6.76,0-11.79.26-16.77-.15-1.52-.13-3.44-1.78-4.25-3.24-5.77-10.37-11.18-20.94-17.01-31.28-1.12-1.99-3.61-3.21-5.46-4.78-.67.4-1.34.8-2,1.2,0,4.04.02,8.09,0,12.13-.05,7.03-.21,14.05-.17,21.08.02,3.48-1.02,5.11-4.97,5.14C.04,100.08.05,100.25.05,88.36.07,60.97.18,33.58,0,6.19-.03,1.56,1.13-.19,6.02.02,14.66.37,23.32-.03,31.97.05c14.54.12,25.59,9.01,27.81,22.22,2.79,16.59-3.83,29.2-18.07,34.48-.82.3-1.58.76-2.96,1.43ZM16.93,15.19v30.09c8.79-.33,17.77,2.46,24.12-5.95,3.86-5.12,3.84-13.38-.05-18.73-6.42-8.83-15.59-4.51-24.06-5.4Z"/>
  </g>
</svg>