<?xml version="1.0" encoding="UTF-8"?>
<svg id="_레이어_2" data-name="레이어 2" xmlns="http://www.w3.org/2000/svg" viewBox="0 0 76.18 97.41">
  <defs>
    <style>
      .cls-1 {
        fill: #fff;
        stroke-width: 0px;
      }
    </style>
  </defs>
  <g id="_레이어_1-2" data-name="레이어 1">
    <path class="cls-1" d="M49.34,52.56c8.85,14.75,17.55,29.27,26.84,44.75-6.58,0-11.57.3-16.48-.17-1.58-.15-3.38-2.09-4.35-3.66-6.54-10.56-13.07-21.13-19.2-31.92-2.28-4.02-4.96-5.7-9.51-5.16-3.21.38-6.5.07-10.46.07v40.11c-4.8,0-8.93.31-12.95-.2-1.13-.14-2.76-2.7-2.79-4.18C.12,76.13.01,60.07,0,44.01,0,31.23.34,18.45.21,5.67.17,1.52,1.19-.11,5.66,0c11.22.3,22.46,0,33.68.12,13.76.16,22.19,6.45,25.66,18.88,3.4,12.19-1.21,24.25-11.86,31.01-1.14.72-2.24,1.49-3.8,2.54ZM16.19,41.49c8.39-.6,16.19-.62,23.79-1.87,6.32-1.05,9.61-6.69,9.41-13.65-.17-5.66-2.75-10.24-7.3-10.53-8.52-.54-17.11-.16-25.9-.16v26.21Z"/>
  </g>
</svg>