<?xml version="1.0" encoding="UTF-8"?>
<svg id="_레이어_2" data-name="레이어 2" xmlns="http://www.w3.org/2000/svg" viewBox="0 0 74.03 100">
  <defs>
    <style>
      .cls-1 {
        fill: #fff;
        stroke-width: 0px;
      }
    </style>
  </defs>
  <g id="_레이어_1-2" data-name="레이어 1">
    <g>
      <path class="cls-1" d="M57.76,65.32c-3.92-2-8.18-.55-11.81-1.6-8.48-2.46-17.01-.88-25.48-1.51-2.2-.16-4.35-.92-6.81-1.46v10.74c1.88-1.38,3.55.5,5.47.58,2.37.1,4.85-.02,7.08.64,6.13,1.84,12.46,2.71,18.64,4.22,2.97.73,6.55.55,8.83,2.21,6.1,4.43,13.17,5.22,20.34,6.31-1.4,4.59-2.65,8.68-3.88,12.71-9.35,0-18.35.46-27.29-.11-12.39-.78-24.51,2.59-36.88,1.83-2.67-.16-4.66-.55-5.99-4.11,2.2-1.33,4.75-2.87,7.31-4.42,2.4-1.54,5.75-.88,9.26.74,3.62,1.67,7.89,1.98,11.89,2.77,1.05.21,2.17.03,3.26.03h35.02c-.68-5.09-4.99-2.29-7.25-3.67-.34-1-.67-1.94-1.1-3.19-.67,1.43-1.19,2.54-1.73,3.67-2.5-.83-4.9-1.63-8.12-2.7,2.41-.47,4.06-.8,6.57-1.29-12.76-2.72-24.55-5.09-36.81-4.38-4.89.28-9.46.19-12.76,6.17v-38.55c3.25.71,6.2,1.36,9.24,2.02.14,1.24.29,2.53.43,3.79.51.21.98.57,1.44.57,11.7.03,23.4.14,35.09-.03,4.81-.07,9.18-1.68,12.21-5.77.26-.35.03-1.05.03-1.82-2.3-.62-4.33-.76-6.75.32-2.05.91-5.45,1.63-6.84.58-2.86-2.16-5.74-1.6-8.45-1.29-6.75.78-13-2.76-19.61-1.66-1.11-1.82-1.43-3.51,1.15-3.28,4.11.36,8.43.57,12.2,2.02,5.84,2.25,11.67.72,17.47.99,1.67.08,3.56-1.86,5.12-3.16,1.87-1.56,3.5-3.42,5.23-5.15,1.54-12.46-6.97-24.39-17.89-28.6-1.18-.46-2.59-.43-3.89-.44-8.68-.04-17.37-.02-26.74-.02.87,4.64-2.42,8.49-1.61,13.09.72,4.08,1.36,8.19,2.05,12.43.78.47,2.55.94,2.73,1.75.7,3.2.9,6.51,1.32,10.1-3.76.31-7.41-.42-11.29-1.14-3.86-.72-3.49-3.57-4.37-5.38-.96-1.98-.87-5.02-.1-7.2,2.77-7.87,1.11-15.91,1.43-23.85.14-3.49.56-6.69,2.69-9.83,5.62.61,11.35,1.49,17.12,1.79,5.97.31,11.97.22,17.95,0,3.03-.11,6.51-2.06,8.91-1.06,2.51,1.04,3.75,4.84,5.95,7.04,4.46,4.46,8.32,9.15,10.41,15.31,2.89,8.52,3,17.32,2.05,25.92-.46,4.17-2.47,9.35-8.58,10.07-2.46.29-4.83,1.42-7.36,2.21,1.18,1.37,2.33,2.71,3.48,4.04Z"/>
      <path class="cls-1" d="M57.47,65.52c2.53-.26,4.26.69,4.9,3.26-2.53.26-4.26-.69-4.9-3.26Z"/>
      <path class="cls-1" d="M63.87,69.74c-.19.19-.46.54-.52.5-.35-.19-.66-.47-.98-.72.24-.24.49-.49.73-.73.26.32.52.63.77.95Z"/>
    </g>
  </g>
</svg>