<?xml version="1.0" encoding="UTF-8"?>
<svg id="_레이어_2" data-name="레이어 2" xmlns="http://www.w3.org/2000/svg" viewBox="0 0 54.14 100">
  <defs>
    <style>
      .cls-1 {
        fill: #fff;
        stroke-width: 0px;
      }
    </style>
  </defs>
  <g id="_레이어_1-2" data-name="레이어 1">
    <g>
      <path class="cls-1" d="M9.81,67.61c-.4,10.96.89,21.55-2.01,32.39-.82-.39-1.72-1.23-2.5-1.13-4.73.58-3.95-3.78-4.74-5.92-.68-1.85-1.04-4.59.64-6.96.86-1.22.44-3.4.44-5.14.02-24.16.01-48.32.01-72.48,0-1.57-.06-3.13.01-4.7C1.77,1.65,2.92.44,4.93.42c6.71-.06,13.63-1.06,20.07.26,6.57,1.35,13.72,2.58,18.6,8.56,2.58,3.16,5.43,5.97,7.12,9.83,1.13,2.59,2.07,4.99,2.11,7.89.04,2.95.93,5.88,1.23,8.84.59,6.02-2.13,11.07-5.04,16.01-1.49,2.53-2.94,5.13-4.78,7.39-1.94,2.39-4.32,4.41-6.82,6.91,1.64,1.78,3.08,3.34,4.54,4.93-2.98,2.12-.98,4.54.19,6.18,1.06,1.5,3.34,2.14,5.14,3.19q.15,8.48-1.7,11.16c-5.16-2.85-7.17-8.33-10.14-12.84-2.5-3.8-5.9-6.5-8.95-9.61-1.13-1.15-3.51-1.35-5.35-1.46-3.57-.22-7.15-.06-11.32-.06ZM9.73,6.9c0,17.23-.03,33.92.03,50.61,0,2.44,2.53,4.48,4.38,3.23,2.55-1.73,5.07-.84,7.58-1.2.21-.03,10.95-2.21,11.12-2.26,4.25-1.31,6.87-4.27,9.45-7.86,2.98-4.13,4.79-8.3,5.13-13.34.38-5.69-.34-11.2-2.82-16.26-1.87-3.82-3.35-7.75-8.74-9.14-4.09-1.05-8.32-1.45-12.24-2.7-4.64-1.48-9.06-.19-13.89-1.09Z"/>
      <path class="cls-1" d="M45.79,93.4v3.57c-.23.02-.47.04-.7.06-.16-1.2-.32-2.4-.49-3.6.4,0,.79-.02,1.19-.03Z"/>
    </g>
  </g>
</svg>