<?xml version="1.0" encoding="UTF-8"?>
<svg id="_레이어_2" data-name="레이어 2" xmlns="http://www.w3.org/2000/svg" viewBox="0 0 56.69 100">
  <defs>
    <style>
      .cls-1 {
        fill: #fff;
        stroke-width: 0px;
      }
    </style>
  </defs>
  <g id="_레이어_1-2" data-name="레이어 1">
    <path class="cls-1" d="M12.01,92.96c-.34.19-.67.48-1.03.54-9.77,1.79-10.31,1.18-10.36-8.54C.52,62.62.19,40.27.01,17.93-.12,1.94.53,1.01,16.49.13c6.56-.36,13.32-.01,19.78,1.18,12.9,2.37,18.2,15.18,11.41,26.43-.83,1.38-1.7,2.77-2.8,3.93-4.88,5.15-5.14,10.29-2.32,17,4.02,9.6,6.69,19.79,9.55,29.84,1.86,6.53,3.04,13.26,4.58,20.17-4.94.44-9.86.88-14.71,1.31-2.65-12.52-5.22-24.86-7.91-37.17-.56-2.54-1.1-5.32-2.54-7.37-1.33-1.89-3.76-3.98-5.88-4.18-6.49-.59-6.52-.25-11.95-4.7v46.38c-.56,0-1.13,0-1.69-.01Z"/>
  </g>
</svg>