<?xml version="1.0" encoding="UTF-8"?>
<svg id="_레이어_2" data-name="레이어 2" xmlns="http://www.w3.org/2000/svg" viewBox="0 0 91.05 100">
  <defs>
    <style>
      .cls-1 {
        fill: #fff;
        stroke-width: 0px;
      }
    </style>
  </defs>
  <g id="_레이어_1-2" data-name="레이어 1">
    <g>
      <path class="cls-1" d="M0,.06C14.89.06,29.45.12,44.02,0c2.39-.02,4.31.58,6.31,1.76,2.31,1.37,4.77,2.58,7.29,3.52,7.57,2.83,10.62,8.82,12.29,16.22,1.29,5.74,3.09,11.18.06,17.04-.95,1.84-.47,4.65-.08,6.92.62,3.61-.94,6.03-3.93,8.22,2.54,2.97,4.86,5.77,7.27,8.5,4.93,5.56,10.04,10.97,14.81,16.66,4.1,4.89,3.92,10.88,0,14.3-2.52,2.2-5.93,2.37-8.33.03-5.86-5.7-11.75-11.38-17.3-17.38-2.77-2.99-4.28-7-6.43-10.48-3.99-6.46-8.93-9.63-16.56-9.23-6.64.35-13.32.07-20.21.07v11.91c1.47.23,3.09.48,4.8.74-.27.57-.42,1.3-.65,1.32-3.12.31-4.44,2-4.4,5.09.07,6.42.09,12.85,0,19.27-.06,4.24-1.28,5.39-5.66,5.48-4.34.09-8.68.02-13.31.02V.06ZM17.54,15.84v24.54c9.26,0,18.24-.26,27.19.14,3.26.14,5.14-1.42,6.35-3.51,1.42-2.45,2.9-5.61,2.54-8.22-.93-6.7-8.83-12.76-15.93-12.92-6.64-.15-13.28-.03-20.16-.03Z"/>
      <path class="cls-1" d="M45.28,67.98h-7.01v-.88h7.01v.88Z"/>
    </g>
  </g>
</svg>