<?xml version="1.0" encoding="UTF-8"?>
<svg id="_레이어_2" data-name="레이어 2" xmlns="http://www.w3.org/2000/svg" viewBox="0 0 69.13 100">
  <defs>
    <style>
      .cls-1 {
        fill: #fff;
        stroke-width: 0px;
      }
    </style>
  </defs>
  <g id="_레이어_1-2" data-name="레이어 1">
    <g>
      <path class="cls-1" d="M69.13,36.33c-14.9,0-28.99-.04-43.08.02-6.39.03-7.22.79-7.19,6.98.04,9.42-2.74,18.57-2.1,28.11.62,9.24.14,18.56.14,28.57-5.61-.84-10.96-1.63-16.9-2.52V0h23.93c-.62,3.06-1.21,5.92-1.81,8.88-1.39-.56-2.86-1.14-6.49-2.59,2.65,3.2,4.46,4.53,4.98,6.24.62,2.06.05,4.46.17,6.7.21,4.03,1.63,5.42,5.8,5.48,6.1.09,12.22.31,18.3-.05,7.25-.43,13.68,2.78,20.55,4.02,2.48.45,2.95,1.89,3.71,7.64ZM13.72,93.91c1.91-14.21,1.61-47.08.15-53.29-6.65,17.57.08,35.43-.15,53.29ZM12.7,13.55c-1.01,2.95-2.5,6.08,0,11.02v-11.02ZM13.52,11.23h.97v-3.86h-.97v3.86Z"/>
      <path class="cls-1" d="M34.7,22.82q7.1-2.94,7.76-13.21c3.24-1.03,4.61.99,5.26,3.58.38,1.51.06,3.2.07,4.81.02,3.09-1.85,4.54-4.59,4.78-2.81.24-5.66.05-8.5.05Z"/>
    </g>
  </g>
</svg>