<?xml version="1.0" encoding="UTF-8"?>
<svg id="_레이어_2" data-name="레이어 2" xmlns="http://www.w3.org/2000/svg" viewBox="0 0 55.93 100">
  <defs>
    <style>
      .cls-1 {
        fill: #fff;
        stroke-width: 0px;
      }
    </style>
  </defs>
  <g id="_레이어_1-2" data-name="레이어 1">
    <path class="cls-1" d="M16,71.84c.41,9.28.41,18.2.41,27.87-5.43-.72-10.78-1.44-16.41-2.19V4.18h6.47c3.37-.82,1.88-6.29,6.14-3.28-.53.64-1.05,1.26-1.58,1.9.35.32.72.96,1.11.97,3.69.08,7.39.02,11.08.05,8.45.08,15.43,4.9,21.09,11.68,4.71,5.63,6.33,12.2,8.83,18.59.1.27.27.59.21.83-1.72,6.17-1.01,12.78-3.64,18.81-2.71,6.19-6.97,10.8-12.73,13.74,6.23,10.32,12.46,20.65,18.95,31.41-3.68,1.91-7.05.77-10.23.98-3.35.23-6.72.05-9.51.05-6.51-9.69-10.49-20.56-20.19-28.07-.14.35.14.35.41.35-.17-.48-.27-1.01-.56-1.4-.09-.12-.73.19-1.12.31.28.36.57.73,1.27.75ZM14.56,55.55c3.71,0,6.48.1,9.24-.02,6.63-.29,12.62-6.4,12.92-13.12.1-2.15.08-4.3,0-6.45-.23-7.08-6-15.08-12.57-17.34-2.16-.74-4.42-1.18-6.67-1.77-2.23,1.25-3.02,3.18-2.98,5.9.15,10.72.06,21.44.06,32.8Z"/>
  </g>
</svg>