<?xml version="1.0" encoding="UTF-8"?>
<svg id="_레이어_2" data-name="레이어 2" xmlns="http://www.w3.org/2000/svg" viewBox="0 0 75.09 100">
  <defs>
    <style>
      .cls-1 {
        fill: #fff;
        stroke-width: 0px;
      }
    </style>
  </defs>
  <g id="_레이어_1-2" data-name="레이어 1">
    <path class="cls-1" d="M52.99,24.89c-5.33-7.45-12.59-9.51-20.97-9.13-4.52.2-9.06.04-13.93.04v82.94c-.85.58-1.35,1.22-1.85,1.22-18.19-.04-16.08,2.11-16.11-15.89-.02-11.09,0-22.18,0-33.27,0-8.15-.33-16.33.09-24.46.41-7.85,1.59-15.67,2.46-23.69C5.73,1.18,9.01-.16,13.01.02c8.14.36,16.34-.36,24.45.25,6.66.5,13.31,1.52,19.53,4.71,14.38,7.39,18.85,23.73,13.48,38.57-.91,2.53-3.65,4.39-6,7.09,2.07.14,3.96-.04,5.63.48,1.62.5,3.01,1.72,4.92,2.88-4.2,1.84-8.74,2.55-11.17,5.19-3.93,4.26-7.68-3.63-11.02.97,7.22,10.9,14.5,21.89,22.27,33.61-3.66.13-6.79.28-9.91.33-3.21.05-6.43.01-9.95.01-8.09-14.07-12.94-30.33-30.09-39.96,6.28-.94,9.7-3.3,14.23-3.3,3.2,0,6.4-1.7,9.6-2.64.18-4.11,4.44-6.62,4.1-11.06-.32-4.2-.07-8.44-.07-12.27Z"/>
  </g>
</svg>