<?xml version="1.0" encoding="UTF-8"?>
<svg id="_레이어_2" data-name="레이어 2" xmlns="http://www.w3.org/2000/svg" viewBox="0 0 70.27 100">
  <defs>
    <style>
      .cls-1 {
        fill: #fff;
        stroke-width: 0px;
      }
    </style>
  </defs>
  <g id="_레이어_1-2" data-name="레이어 1">
    <path class="cls-1" d="M61.03,53.1c6.32,5.75,9.76,12.81,9.17,21.91-.48,7.37-.1,14.8-.1,22.21-5.29,3.16-10.72,2.66-16.68.34,0-4.25-.48-8.88.12-13.37.74-5.58-1.73-10.55-2.12-15.9-.28-3.85-4.99-6.93-9.44-6.99-7.68-.1-15.37-.03-23.7-.03v38.74H0V.45C1.96.34,4.28.12,6.61.12c12.03-.04,24.08-.29,36.1.09,7.23.23,14.32,2.53,18.44,8.78,5.69,8.63,9.19,17.8,5.88,28.88-1.6,5.34-3.3,10.37-5.99,15.24ZM18.37,44.58c2.68,0,4.54-.15,6.37.03,6.03.58,11.85-.75,17.68-1.91,3.7-.73,7.02-4.58,7.27-8.31.16-2.45.53-5.05-.1-7.34-.74-2.69-2.34-5.18-3.78-7.64-1.37-2.35-4.02-2.01-6.19-2.84-7.08-2.7-14.11-1.07-21.25-1.78v29.79Z"/>
  </g>
</svg>