<?xml version="1.0" encoding="UTF-8"?>
<svg id="_레이어_2" data-name="레이어 2" xmlns="http://www.w3.org/2000/svg" viewBox="0 0 74.07 100">
  <defs>
    <style>
      .cls-1 {
        fill: #fff;
        stroke-width: 0px;
      }
    </style>
  </defs>
  <g id="_레이어_1-2" data-name="레이어 1">
    <path class="cls-1" d="M0,98.42V.28C12.41.28,24.74-.5,36.92.55c8.22.71,16.4,3.98,21.69,11.07,5.5,7.37,7.38,15.6,5.5,25.03-1.74,8.71-6.96,13.95-13.94,18.31-2.3,1.43-2.72,2.99-1.27,5.64,6.12,11.18,11.48,22.84,20.21,32.41,1.74,1.91,3.04,4.21,4.97,6.93-5.52,0-10.73.23-15.91-.12-1.96-.13-4.44-1.09-5.62-2.54-2.35-2.88-4.68-6.14-5.72-9.64-1.77-5.88-5.25-10.53-8.82-15.23-2.9-3.81-5.9-7.55-9.05-11.56h-12.35v35.46c-2.72.74-5.16,1.71-7.69,2.03-2.72.34-5.52.08-8.9.08ZM18.23,13.81v33.27c3.99,0,7.83.55,11.44-.12,6.24-1.16,12.8-1.65,15.61-9.46,3.65-10.14.38-18.44-9.41-22.16-5.72-2.17-11.56-1.24-17.64-1.53Z"/>
  </g>
</svg>