<?xml version="1.0" encoding="UTF-8"?>
<svg id="_레이어_2" data-name="레이어 2" xmlns="http://www.w3.org/2000/svg" viewBox="0 0 76.85 100">
  <defs>
    <style>
      .cls-1 {
        fill: #fff;
        stroke-width: 0px;
      }
    </style>
  </defs>
  <g id="_레이어_1-2" data-name="레이어 1">
    <path class="cls-1" d="M73.13,60.26c5.42,28.27-1.86,39.99-21.47,33.59.92-8,1.87-16.17,2.89-25.04h-14.12c-.24,32.03-2.06,33.92-28.27,29.34C8.22,66.35,4.26,34.38,0,0h76.85v27.26c-8.83,4.45-20.85-2.24-28.69,8.47,5.27,2.84,9.7,5.22,14.33,7.71.45,4.11.91,8.2,1.41,12.8,3.13,1.37,6.26,2.73,9.23,4.02ZM28.29,40.51c.68.95,1.37,1.9,2.05,2.85,2.06-1.56,4.12-3.11,6.18-4.67-.56-.78-1.13-1.57-1.69-2.35-2.18,1.39-4.36,2.78-6.54,4.17Z"/>
  </g>
</svg>