<?xml version="1.0" encoding="UTF-8"?>
<svg id="_레이어_2" data-name="레이어 2" xmlns="http://www.w3.org/2000/svg" viewBox="0 0 138.31 100">
  <defs>
    <style>
      .cls-1 {
        fill: #fff;
        stroke-width: 0px;
      }
    </style>
  </defs>
  <g id="_레이어_1-2" data-name="레이어 1">
    <path class="cls-1" d="M0,100C4.32,67.53,8.56,35.72,12.89,3.23c28.03-4.09,55.94-4.56,83.62.13,5.23.89,11.93,7.39,13.56,12.66,4.98,16.09,8.2,32.9-8.76,46.44,3.53,1.98,6.11,3.43,8.86,4.97.3,2.64.61,5.38.98,8.66,8.84,1.66,17.46,3.28,27.17,5.1-1.2,6.38-2.27,12.13-3.52,18.81H0ZM60.18,62.83c0-8.67.1-15.72-.06-22.76-.05-2.4-.75-4.78-1.15-7.18-12.26,2.33-15.91,12.07-13.37,36.2,5.01-2.15,9.67-4.15,14.58-6.26Z"/>
  </g>
</svg>