<?xml version="1.0" encoding="UTF-8"?>
<svg id="_레이어_2" data-name="레이어 2" xmlns="http://www.w3.org/2000/svg" viewBox="0 0 65.15 100">
  <defs>
    <style>
      .cls-1 {
        fill: #fff;
        stroke-width: 0px;
      }
    </style>
  </defs>
  <g id="_레이어_1-2" data-name="레이어 1">
    <path class="cls-1" d="M0,0c12.24,1.29,24.23,1.62,35.81,4,17.27,3.56,23.2,26.83,17.71,39.6-3.05,7.1-8.5,13.17-13.56,20.73,7.61,10.78,16.22,22.98,25.19,35.68h-20.76c-9.14-11.51-15.69-24.46-26.38-33.99-.7.31-1.4.62-2.1.94v32.82H0V0ZM16.53,51.48c6.83,2.93,13.84,1.21,18.99-4.52,5.07-5.66,5.78-14.3,1.73-21.23-4.44-7.59-11.01-10.28-20.72-8.25v34Z"/>
  </g>
</svg>