<?xml version="1.0" encoding="UTF-8"?>
<svg id="_레이어_2" data-name="레이어 2" xmlns="http://www.w3.org/2000/svg" viewBox="0 0 75.92 100">
  <defs>
    <style>
      .cls-1 {
        fill: #fff;
        stroke-width: 0px;
      }
    </style>
  </defs>
  <g id="_레이어_1-2" data-name="레이어 1">
    <path class="cls-1" d="M0,0c17.49.59,34.4.51,51.18,1.96,10.81.93,19.42,6.83,22.81,17.93,2.39,7.81,2.65,15.96.25,23.77-1.24,4.02-4.11,7.54-6.41,11.59,3.69,3.35,5.1,8.17,5.21,13.75.19,10.24.78,20.47,1.22,30.99-8.66,0-17.29.06-25.91-.1-.88-.02-1.98-1.24-2.56-2.17-3.89-6.32-7.59-12.75-11.5-19.05-1.38-2.22-3.14-4.2-5.31-7.06v27.71H0V0ZM44.61,42.45c-6.78,3.51-13.94,1.43-20.77,2.54-1.01,2.77-.32,4.03,2.73,4,3.64-.03,7.28.37,10.92.41,3.91.04,6.25-2.17,7.12-6.95Z"/>
  </g>
</svg>