<?xml version="1.0" encoding="UTF-8"?>
<svg id="_레이어_2" data-name="레이어 2" xmlns="http://www.w3.org/2000/svg" viewBox="0 0 57.6 112.17">
  <defs>
    <style>
      .cls-1 {
        fill: #fff;
        stroke-width: 0px;
      }
    </style>
  </defs>
  <g id="_레이어_1-2" data-name="레이어 1">
    <path class="cls-1" d="M2.53,110.77H0c.19-13.5.3-26.75.58-40.01.43-20.3.91-40.6,1.53-60.89.1-3.23,1.02-6.43,1.61-9.87,11.56,2.52,23.57,4.25,32.05,13.96,1.99,2.29,3.58,5.15,4.62,8.01,3.36,9.28,4.47,18.69.83,28.26-3.74,9.81-10.3,16.52-20.58,19.2-3.64.95-5.29,3.12-2.71,5.98,7.61,8.45,13.58,18.68,24.65,23.54,2.77,1.22,5.28,3.21,8.14,4.01,1.96.55,4.32-.35,6.69-.62.04.28.33.85.15,1.11-2.9,4.28-17.43,9.93-22.29,8.47-1.78-.54-3.86-1.51-4.88-2.94-5.86-8.2-11.45-16.6-17.12-24.95-.79-1.17-1.53-2.37-2.3-3.56-.53.01-1.05.03-1.58.04-2.27,10.04-4.55,20.08-6.85,30.24ZM10.81,14.89c.85,15.69,1.53,30.23,2.49,44.74.24,3.71,3.5,3.94,5.42,2.09,3.12-2.99,7.14-6.55,7.76-10.36,2.01-12.28-.05-24.21-8.21-34.21-2.19-2.69-5.11-5.4-10.28-3.9,1.77,1.03,2.83,1.65,2.81,1.64Z"/>
  </g>
</svg>