<?xml version="1.0" encoding="UTF-8"?>
<svg id="_레이어_2" data-name="레이어 2" xmlns="http://www.w3.org/2000/svg" viewBox="0 0 48.28 100">
  <defs>
    <style>
      .cls-1 {
        fill: #fff;
        stroke-width: 0px;
      }
    </style>
  </defs>
  <g id="_레이어_1-2" data-name="레이어 1">
    <path class="cls-1" d="M22.79,99.74v-37.47c-.28-.05-1.87-.34-3.8-.69v37.8c-4.52,0-9.1.19-13.63-.16-.96-.07-2.45-2.1-2.52-3.3-.59-10.06-1.11-20.13-1.25-30.21-.24-18.18-.12-36.37-.31-54.55-.03-3.44-.77-6.86-1.28-11.18h47.24c1.26,18.53,2.04,36.31-1.79,53.93-.28,1.27-.54,3.26-1.33,3.58-5.01,1.99-3.96,6.13-3.32,9.63,1.41,7.77,3.38,15.45,5.11,23.16,2.06,9.19,2.06,9.14-7.24,9.25-4.96.06-9.91.32-14.86.46-.47.01-.94-.24-1.01-.26ZM18.93,22.48v22.04c4.57.82,6.52-1.57,6.59-5.62.07-3.78-.55-7.57-.63-11.36-.08-3.5-1.71-5.1-5.96-5.07Z"/>
  </g>
</svg>