<?xml version="1.0" encoding="UTF-8"?>
<svg id="_레이어_2" data-name="레이어 2" xmlns="http://www.w3.org/2000/svg" viewBox="0 0 44.13 100">
  <defs>
    <style>
      .cls-1 {
        fill: #fff;
        stroke-width: 0px;
      }
    </style>
  </defs>
  <g id="_레이어_1-2" data-name="레이어 1">
    <g>
      <path class="cls-1" d="M38.15,88.23c-.67-.04-1.33-.08-2.08-.13.02.21.03.49.08.76.12.7.13.7-.7,1.07.03-.26.05-.5.08-.81-.85-.12-1.66-.25-2.48-.34-.19-.02-.4.07-.58.15-.38.16-.6.05-.76-.34-.2-.49-.72-.7-1.16-.46-.13.07-.21.34-.2.52,0,.15.17.3.25.45-.45.39-.86.75-1.39,1.21-.35-.47-.72-.97-1.08-1.46q1.16-1.13.31-2.97c-.58-.18-.49.53-.97.69-.16-.39-.38-.76-.47-1.17-.05-.24,0-.65.16-.76.22-.15.64-.18.88-.07.44.19.81.53,1.34.9-.02-.43-.04-.7-.06-1.08.62.05,1.18.13,1.74.14.31,0,.65-.05.93-.16.16-.06.35-.32.34-.47-.01-.16-.22-.41-.39-.45-.45-.11-.93-.17-1.4-.2-1.29-.08-1.39-.17-1.39-1.46,0-.14-.02-.28-.04-.46-.8-.22-1.53-.63-2.35.07-.51.44-1.3.06-1.4-.63-.07-.52-.19-.94-.53-1.37-.4-.49-.15-.95.49-1.12.24-.07.49-.09.74-.13-.21-.78-.87-1.29-1.71-1.34-.39-.02-.83.06-.95-.59.22-.07.45-.13.67-.2.53-.16.83-.51.77-.9-.08-.48-.6-.78-1.16-.7-.43.06-.86.13-1.29.13-.14,0-.29-.18-.54-.34.36-.34.66-.62.98-.93-.3-.52-.64-1.01-.87-1.55-.23-.52-.35-1.08-.55-1.71.45-.05.8-.08,1.13-.12.25-1.28-.14-1.89-1.27-2.13-.23-.05-.48-.29-.6-.52-.2-.38-.34-.8-.45-1.22-.43-1.65-.87-3.29-1.24-4.95-.33-1.5-1.01-1.9-2.41-1.32-.33.14-.62.36-.81.47,0,1.24-.02,2.36,0,3.48.02.72.12,1.44.17,2.16.03.4.02.8.04,1.2.03.68.07,1.36.11,2.04.01.21.09.43.06.64-.25,2.05-.41,4.11-.39,6.19.03,3.02.03,6.05,0,9.07-.02,1.89-.12,3.78-.17,5.67-.02.58.02,1.16,0,1.74-.02.4.2.87-.32,1.16-.09.05-.02.4,0,.61.04.61.07,1.22.12,1.83.05.67-.19,1.12-.85,1.33-.2.07-.38.2-.47.25-.08.7-.02,1.38-.28,1.9-.15.3-.81.34-1.26.51-.44-.46-.43-1.34-1.4-1.02.06-.33.06-.55.15-.72.38-.73.39-.73-.19-1.6-.2.73-.4,1.36-.53,2.01-.1.5-.36.68-.84.61-.18-.03-.37-.02-.54-.07-.48-.14-.98-.48-1.41-.4-.49.09-.94.32-1.46.15-.12-.04-.31-.03-.42.03-.7.45-1.38.17-2.01.03,0-1.67.01-3.29,0-4.9,0-.5-.16-1-.16-1.5-.01-6.26,0-12.53,0-18.79,0-.25.03-.51.08-.76.2-.96.41-1.89-.04-2.86-.17-.36-.05-.86-.05-1.3,0-20.25,0-40.5,0-60.75,0-.47,0-.95-.02-1.42-.02-.46-.25-.74-.75-.76-.25-.01-.57,0-.73-.14-.57-.49-1.12-.98-1.95-.85-.06,0-.15-.2-.26-.37.87-.18,1.65-.38,2.44-.47.14-.02.33.4.52.58.11.11.29.26.41.24.12-.02.27-.21.31-.36.06-.2.02-.43.05-.65.03-.17.05-.45.16-.49.77-.29.89-.98,1.08-1.64.04-.13.12-.3.23-.36.6-.34.98-.89,1.46-1.48.14.2.3.34.31.48.05.69.11,1.33.92,1.62.14.05.23.51.17.74-.06.26-.32.47-.52.74.33.62.85,1.11.99,1.87.1.55,1.05.59,1.44.1.22-.27.35-.63.48-.96.24-.59.52-.83,1.06-.59,1.09.5,2.21.3,3.33.38,1.62.11,3.25.26,4.87.39.33.03.65.03.98.03,1.2,0,2.39.02,3.56.33.35.09.72.1,1.08.12.51.03.95.15,1.42.42.58.33,1.3.39,1.95.62.5.18.99.41,1.47.64.41.2.85.31,1.27.44.91.29,1.8.76,2.58,1.33.77.57,1.53,1.24,1.7,2.3.04.23.24.45.39.65.91,1.19,1.47,2.55,2.01,3.92.11.27.19.57.36.79.36.46.29.95.23,1.46-.24,2.02-.47,4.04-.38,6.07.06,1.34.17,2.68.2,4.02.03,1.63-.05,3.24-.59,4.82-.22.63-.22,1.32.07,2.01.38.93.5,1.88-.21,2.78-.26.32-.31.81-.48,1.21-.24.56-.48,1.12-.77,1.65-.17.31-.41.65-.85.25-.05-.05-.32.01-.36.09-.53.97-1.35,1.79-1.58,3.1.43-.15.74-.27,1.17-.42.2,1.05.21,2.05-.17,3.01-.29-.3-.56-.61-.86-.87-.62-.53-1.23-.5-1.84.06-.65.6-1.45.36-2.19.3-.87-.08-1.07.05-.85.9.19.73.12,1.42-.05,2.14-.34,1.45-.66,2.9-.86,4.37-.1.69-.06,1.48.17,2.14,1.29,3.66,2.65,7.28,3.99,10.92.71,1.94,1.35,3.91,2.15,5.82.8,1.88,1.18,3.88,1.81,5.8.18.56.06,1.22.04,1.83-.01.28-.14.56-.18.85-.09.61.07.91.65.84,1.25-.14,1.9.62,2.4,1.51.78,1.39,1.43,2.85,1.58,4.47.67.07.71.12.82,1.13-.72.17-1.45.33-2.26.52-.06-.26-.12-.52-.18-.75.45-.2.83-.37,1.43-.63-.71-.16-1.15-.34-1.58-.33-.39,0-.72.27-.74.74l-.05.07ZM15.45,41.13c.52-.03.96-.05,1.38-.09,1.15-.12,2.3-.29,3.45-.38,1.51-.13,2.79-.68,3.87-1.77.98-.98,1.24-2.29,1.6-3.51.34-1.16.39-2.42.46-3.64.07-1.23-.02-2.47.03-3.71.05-1.52-.7-2.65-1.55-3.81-.97-1.33-2.65-1.4-3.79-2.39-.02-.02-.07-.01-.11-.01-1.35-.03-2.63-.33-3.82-.98-.11-.06-.28-.01-.42.01-.69.12-1.19.63-1.14,1.36.07.99-.4,1.97.05,2.97.14.31-.09.78-.09,1.17-.04,4.73-.07,9.45-.1,14.18,0,.17.09.34.17.61ZM36.45,37.3c-.09-.03-.18-.07-.26-.1-.44.31-.6.72-.28,1.55.23-.63.39-1.04.54-1.45Z"/>
      <path class="cls-1" d="M32.27,92.81c1.23-.25,2.29-.76,3.26-1.59.73-.62,1.7-.84,2.68-.1v-.77c1.46-.09,2.89-.34,4.31.15.2.07.42.12.58.25.6.46,1.22,2.47.98,3.21-.19.6-.43,1.13-1.21,1.22-.34.04-.65.39-.99.61.11.3.31.58.27.82-.08.45-.2,1-.52,1.26-.21.17-.78-.09-1.24-.16-.05.22-.03.51-.17.69-.12.16-.52.32-.61.25-.8-.63-1.69-.36-2.52-.21-.63.12-.97-.08-1.28-.53-.18-.27-.32-.58-.53-.82-.37-.43-.69-.91-1.4-.89-.24,0-.5-.35-.74-.54h0c.19,0,.39.01.6.03-.16-1.2-.51-2.2-1.49-2.87h.01ZM38.48,91.63c-.02,1.34.43,2.59.7,3.88.06.31.36.56.57.87.71-.52.33-1.15.41-1.75.56.13,1.08.25,1.6.37.03-.08.07-.16.1-.24-.53-.35-1.05-.69-1.57-1.03-.19.11-.36.21-.56.33-.32-.88-.35-1.85-1.25-2.42ZM41.65,90.87c-.08-.07-.18-.23-.29-.23-.46-.02-.92-.03-1.36.05-.28.05-.41.36-.2.59.17.2.5.47.67.42.42-.13.79-.43,1.17-.66.02-.01,0-.07.02-.16Z"/>
      <path class="cls-1" d="M31.9,93.88c-.35-.02-.72,0-1.06-.07-.24-.05-.46-.21-.9-.42.92-.37,1.58-.66,2.34-.57h-.01c-.07.31-.15.62-.22.94-.04.04-.09.09-.14.12Z"/>
      <path class="cls-1" d="M30.28,91.95c.36-.88,1.18-.81,1.87-1.04-.16.8-.75,1.12-1.87,1.04Z"/>
      <path class="cls-1" d="M32.85,46.21c.65.74.66.9.12,1.85-.31-.63-.19-1.2-.12-1.85Z"/>
      <path class="cls-1" d="M31.9,93.88c.05-.04.1-.08.14-.12.26.24.52.48.78.73.33.32.48.7.32,1.16h0c-.19-.15-.36-.36-.58-.45-.3-.12-.3-.22-.25-.53.04-.24-.26-.53-.41-.8Z"/>
      <path class="cls-1" d="M38.2,88.17c.18.06.45.07.52.19.16.27.02.57-.38,1.03-.07-.42-.13-.79-.19-1.15,0,0,.05-.07.05-.07Z"/>
      <path class="cls-1" d="M26.27,82.57c.22-.4.48-.49.79-.23.07.06.08.32.02.38-.32.31-.55.06-.82-.15Z"/>
    </g>
  </g>
</svg>