<?xml version="1.0" encoding="UTF-8"?>
<svg id="_레이어_2" data-name="레이어 2" xmlns="http://www.w3.org/2000/svg" viewBox="0 0 226.84 100">
  <defs>
    <style>
      .cls-1 {
        fill: #fff;
        stroke-width: 0px;
      }
    </style>
  </defs>
  <g id="_레이어_1-2" data-name="레이어 1">
    <path class="cls-1" d="M118.89,66.56c7.42,6.22,15.04,12.23,22.23,18.71,13.97,12.59,38.81,13.08,51.04-.08,3.85-4.14,5.39-10.43,8.6-16.96-6.66.65-12.95,4.15-12.39-5.5-14.27,5.45-28.33,5.64-41.86-.16-4.96-2.12-8.86-6.8-13.08-10.5-.88-.77-1.74-2.53-1.46-3.5,2.22-7.72,5.47-15.02,12.79-19.2,6.71-3.83,13.8-3.89,20.61.15.94.56,1.73,1.66,2.15,2.7.56,1.38,1.03,2.96.92,4.41-.27,3.65,6.03,7.64.69,10.48-4.35,2.31-9.89,2.69-14.97,3.17-2.41.23-4.98-1.3-7.89-2.15-1.03,1.86-2.04,3.67-3.02,5.45,11.36,9.05,31.81,9.55,43.3,1.24,3.1-2.24,8.86.99,10.18,5.8.43,1.57.55,3.22,1.02,6.16,5.79-4.79,3.97-10.17,3.51-14.52-2.61-24.34-13.19-35.75-37-43.06-13.34-4.09-26.5-6.79-40.04-2.52-4.44,1.4-8.4,4.57-12.27,7.37-1.08.78-1.71,3.21-1.44,4.68,2.28,12.25,1.24,23.61-8.82,32.98,11.38,6.32,13.45,16.46,13.66,27.32.2,10.46,1.86,12.79,11.96,15.89.7.22,1.07,1.52,2.34,3.45-13.92.48-26.78.93-39.64,1.37-3.21.11-6.42.35-9.62.21-1.37-.06-2.86-.7-3.96-1.52-.39-.29-.12-2.54.4-2.79,1.42-.7,3.15-1.19,4.72-1.08,1.62.11,3.19,1.02,6.19,2.08-.25-3.33.39-6.24-.75-8.02-5.88-9.22-11.98-18.32-18.56-27.05-1.37-1.83-5.01-2.49-7.68-2.68-5.5-.4-11.05-.12-17.55-.12,2.69,13.22-6.78,28.34,7.59,40.45H1.5c17.99-5.36,12.3-20.61,13.11-31.94,1.19-16.73.21-33.62.08-50.44-.02-2.15-.42-4.29-.6-6.04-4.93-1.87-9.51-3.61-14.09-5.34.05-.61.09-1.21.14-1.82,5.87-.59,11.75-1.73,17.62-1.68,24.08.22,48.27-.41,72.21,1.67C107.74,5.19,124.5-.76,141.93.08c8.83.43,18.17-1.01,26.41,1.38,17.69,5.14,37.07,7.56,50.54,22.06,7.82,8.42,9.62,19.08,6.55,30.25-7.97,28.96-29.91,41.4-57.08,45.44-10.93,1.63-21.98-3.34-30-12.21-6.32-6.98-12.47-14.11-18.69-21.17-.25.25-.5.49-.75.74ZM58.77,50.6c8.84,0,18.34,2.07,25.47-7.62,7.29-9.92,4.59-22.06-6.77-26.92-9.64-4.13-19.62-4.22-29.7-3.69-1.48.08-3.9,2.15-4.08,3.54-.85,6.54-1.36,13.15-1.47,19.75-.25,14.43-.12,14.43,14.02,14.66.66.01,1.32.14,2.53.28ZM156.04,38.69c.12-.65.25-1.29.37-1.94-2.08-.53-5.3-2.11-6-1.36-1.44,1.55-1.52,4.35-2.59,8.14,3.82-2.25,6.02-3.55,8.21-4.85ZM141.15,49.52c-1.28-.65-1.81-1.04-2.41-1.17-.32-.07-.73.32-1.1.5.29.54.47,1.23.91,1.57.22.17.93-.29,2.6-.9Z"/>
  </g>
</svg>