<?xml version="1.0" encoding="UTF-8"?>
<svg id="_레이어_2" data-name="레이어 2" xmlns="http://www.w3.org/2000/svg" viewBox="0 0 84.44 100">
  <defs>
    <style>
      .cls-1 {
        fill: #fff;
        stroke-width: 0px;
      }
    </style>
  </defs>
  <g id="_레이어_1-2" data-name="레이어 1">
    <path class="cls-1" d="M56.43,79.27c5.82,6.33,11.14,12.13,16.46,17.93-.43.78-.86,1.55-1.29,2.33-10.34,0-20.98,1.45-30.86-.68-4.17-.9-8.4-8.96-9.59-14.42-1.63-7.47-.26-15.57-.42-23.4-.08-3.62,1.49-4.64,4.83-4.56,6.46.16,12.92.05,19.57.05v-28.14h-28.82c-.19,3.27-.54,6.34-.52,9.41.1,16.99.09,33.99.58,50.98.16,5.59-1.47,7.21-7.12,7.19-19.55-.05-19.44.18-19.2-19.07C.35,53.16.52,29.45.56,5.74.57,1.35,2.18-.04,6.5,0c23.94.2,47.88.29,71.81.11,4.84-.04,6.17,1.64,6.13,6.21-.19,18.12-.16,36.24-.09,54.36.06,15.78-6.77,19.49-21.89,19.13-1.97-.05-3.93-.35-6.02-.55Z"/>
  </g>
</svg>