<?xml version="1.0" encoding="UTF-8"?>
<svg id="_레이어_2" data-name="레이어 2" xmlns="http://www.w3.org/2000/svg" viewBox="0 0 65.36 100">
  <defs>
    <style>
      .cls-1 {
        fill: #fff;
        stroke-width: 0px;
      }
    </style>
  </defs>
  <g id="_레이어_1-2" data-name="레이어 1">
    <path class="cls-1" d="M65.36,59.33c-8.91-.74-15.82-4.49-22.52-8.42-6.72-3.94-13.05-8.54-19.97-13.13-.39,1.67-.99,3.14-1.04,4.62-.43,12.61-.87,25.23-1.03,37.85-.04,3.24,1.16,6.49,1.33,9.75.07,1.32-.73,3.27-1.78,3.96-3.03,1.99-6.37,3.53-9.63,5.17-3.4,1.71-4.85.99-4.99-2.87-.24-6.6-.3-13.22-.22-19.83.19-17.1.64-34.19.7-51.29.03-8.54.25-17.27-6.22-25.14,1.51.24,2.33.38,3.16.49,3.14.41,6.29,1.2,9.41,1.11,3.99-.11,5.78,1.17,7.05,4.99.65,1.96,2.35,3.81,4.02,5.17,9.34,7.59,19.44,14.36,28.03,22.71,6.61,6.43,10.06,15.44,13.68,24.87Z"/>
  </g>
</svg>