<?xml version="1.0" encoding="UTF-8"?>
<svg id="_레이어_2" data-name="레이어 2" xmlns="http://www.w3.org/2000/svg" viewBox="0 0 167.81 100">
  <defs>
    <style>
      .cls-1 {
        fill: #fff;
        stroke-width: 0px;
      }
    </style>
  </defs>
  <g id="_레이어_1-2" data-name="레이어 1">
    <g>
      <path class="cls-1" d="M122,67.71c7.84-1.34,11.4,4.97,16.29,8.92,9.48,7.64,18.59,15.73,29.51,23.24-12.54,0-24.05.38-35.52-.15-6.7-.31-13.4-.4-20.09-.42-3.31-.01-6.1-.85-8.55-2.95-17.04-14.57-33.16-30.14-49.3-45.67-5.63-5.42-5.28-5.71,1.97-9.21,3.49-1.68,7-2.3,10.83-2.27,12.44.11,24.88,0,37.32.08,3.75.03,7.2-.65,9.87-3.39,2.65-2.73,5.88-1.13,8.84-1.45,2.34-.26,5.55.51,5.54-3.02,0-2.82-2.45-3.77-5.23-3.96-14.06-.96-28.14.25-42.2-.3-25.2-.99-50.4.4-75.6.37-1.79,0-3.59,0-5.7,0,.54-2.94,1.89-5.02,4.16-6.42C14.81,14.51,25.51,8,36.17,1.43c1.92-1.18,4.03-1.27,6.15-1.27,29.96-.05,59.92-.33,89.87,0,15.63.18,25.86,11.45,25.85,27.19,0,6.05.81,12.31-.47,18.1-2.65,12.05-8.95,22.67-26.81,22.26-2.92-.07-5.84,0-8.76,0Z"/>
      <path class="cls-1" d="M24.43,68.55c0,8.98-.14,17.97.08,26.95.07,3.12-.96,3.89-3.9,3.78-5.55-.21-11.11-.15-16.67-.02-2.28.05-3.14-.61-3.13-3.02.1-17.97.14-35.94.06-53.91-.02-4.06,1.62-5.36,5.57-5.09,4.72.32,9.48.28,14.21.04,3.02-.15,3.92.78,3.85,3.82-.2,9.14-.07,18.3-.07,27.44Z"/>
    </g>
  </g>
</svg>