<?xml version="1.0" encoding="UTF-8"?>
<svg id="_레이어_2" data-name="레이어 2" xmlns="http://www.w3.org/2000/svg" viewBox="0 0 59.87 100">
  <defs>
    <style>
      .cls-1 {
        fill: #fff;
        stroke-width: 0px;
      }
    </style>
  </defs>
  <g id="_레이어_1-2" data-name="레이어 1">
    <path class="cls-1" d="M27.1,11.22c3.23-2.68,6.02-4.98,8.78-7.31C41.54-.87,48.38-.32,54.79.67c4.31.66,5.36,5.44,5.01,9.24-.27,2.86-.7,5.76-1.04,8.66-.47,4.03-1.78,6.71-6.99,6.53-6.44-.23-12.49,1.9-17.31,6.61-3.4,3.31-5.18,7.07-5.63,12.04-1.54,16.75-.6,33.51-.89,50.26-.06,3.72-1.11,5.14-4.97,5.44-5.52.43-11.03.65-16.54.51C2.36,99.86-.05,98.47,0,93.34.27,64.2.24,35.06.02,5.92-.02,1.68,1.46.51,5.25.35c6.11-.26,12.13.58,18.19,1.02,1.69.12,1.9,1.05,2.51,2.24,1.17,2.29.45,4.74,1.14,7.61Z"/>
  </g>
</svg>