<?xml version="1.0" encoding="UTF-8"?>
<svg id="_레이어_2" data-name="레이어 2" xmlns="http://www.w3.org/2000/svg" viewBox="0 0 60.7 100">
  <defs>
    <style>
      .cls-1 {
        fill: #fff;
        stroke-width: 0px;
      }
    </style>
  </defs>
  <g id="_레이어_1-2" data-name="레이어 1">
    <path class="cls-1" d="M27.38,14.6c3.24-.39,4.17-2.56,5.44-4.22C38.93,2.4,47.04-.65,56.93.12c2.75.21,3.87.95,3.75,3.9-.23,5.53-.28,11.08.01,16.6.19,3.59-1.17,4.21-4.47,4.17-5.24-.05-10.52-.96-15.64,1.84-7.83,4.29-12.25,10.32-11.59,19.4,1.16,15.83-1.04,31.68.32,47.49.4,4.67-2.35,6.03-5.86,6.22-6.44.35-12.91.29-19.37.19C-.32,99.86,0,96.26,0,93.45c0-9.4.16-18.81.39-28.21C.86,46.79,1.01,28.35.11,9.91c-.07-1.47.14-2.94.16-4.42C.32,1.88,1.48.39,5.66.92c5.44.68,11.03.4,16.54.24,3.86-.11,5.85.9,5.24,5.24-.37,2.62-.07,5.34-.07,8.2Z"/>
  </g>
</svg>