<?xml version="1.0" encoding="UTF-8"?>
<svg id="_레이어_2" data-name="레이어 2" xmlns="http://www.w3.org/2000/svg" viewBox="0 0 127.11 100">
  <defs>
    <style>
      .cls-1 {
        fill: #fff;
        stroke-width: 0px;
      }
    </style>
  </defs>
  <g id="_레이어_1-2" data-name="레이어 1">
    <path class="cls-1" d="M127.11,99.88c-12.43-.03-24.57,1.9-33.59-8.84-2.43-2.89-7.81-4.41-11.91-4.58-13.1-.55-22.57-6.93-29.12-17.45-5.16-8.3-12.25-9.85-21.89-8.73v26.49c-1.54.72-2.08,1.18-2.63,1.2Q0,89.04,0,61.46C.03,41.47.16,21.48.28,1.49c0-.55.5-1.1.58-1.26C27.89.23,54.71-.43,81.48.49c15.05.52,24.42,10.65,26.43,25.02,1.75,12.46-1.39,24.5-13.36,32.05-1.32.84-2.52,1.88-4.85,3.64,12.49,12.91,24.95,25.79,37.4,38.67ZM30.19,41.25c16.12-.79,30.9-1.2,45.6-2.56,2.24-.21,5.84-4.94,5.63-7.3-.25-2.81-3.84-7.48-6.16-7.58-15.35-.68-30.74-.35-46.58-.35.52,6.17.94,11.13,1.51,17.79Z"/>
  </g>
</svg>