<?xml version="1.0" encoding="UTF-8"?>
<svg id="_레이어_2" data-name="레이어 2" xmlns="http://www.w3.org/2000/svg" viewBox="0 0 88.44 100">
  <defs>
    <style>
      .cls-1 {
        fill: #fff;
        stroke-width: 0px;
      }
    </style>
  </defs>
  <g id="_레이어_1-2" data-name="레이어 1">
    <path class="cls-1" d="M88.44,0c-3.27,10.61-6.04,19.6-8.88,28.81-.95-3.2-1.92-6.66-3-10.08-2.27-7.17-6.34-9.27-13.92-9.54-7.76-.27-15.47-1.87-24.21-3.03-1.74,6.78-4.61,13.65-5.08,20.67-1.25,18.75-1.81,37.57-1.9,56.37-.02,5.31,2.53,10.64,3.91,16-8.65,2.23-28.75-.47-29.81-5.03,7.87,2.29,9.38-2.92,9.95-8.62,2.34-23.16,4.53-46.34,6.77-69.51.48-4.93-1.4-7.74-6.69-8.15-4.26-.33-8.5-1.11-12.72-1.89-1.18-.22-2.24-1.14-2.87-2.89,13.35,0,26.7-.09,40.05.03,11.16.1,22.33.79,33.49.54,4.31-.09,8.57-2.04,14.91-3.68Z"/>
  </g>
</svg>