<?xml version="1.0" encoding="UTF-8"?>
<svg id="_레이어_2" data-name="레이어 2" xmlns="http://www.w3.org/2000/svg" viewBox="0 0 73.37 100">
  <defs>
    <style>
      .cls-1 {
        fill: #fff;
        stroke-width: 0px;
      }
    </style>
  </defs>
  <g id="_레이어_1-2" data-name="레이어 1">
    <path class="cls-1" d="M53.49,57.78c2.3-1.25,4.79-2.45,7.13-3.9,15.46-9.59,17.17-33.8,3.46-45.76C57.74,2.6,50.3.67,42.29.46,29.72.14,17.15.12,4.57,0,3.18-.01,1.78.15,0,.25v99.34h17.18v-41.76c5.97,0,11.51-.1,17.03.09.98.03,2.37,1.07,2.8,2,5.7,12.4,11.19,24.9,16.97,37.27.6,1.27,2.64,2.61,4.05,2.65,4.84.12,9.68.15,14.52.15l-1-4.15c-6.02-12.68-12.03-25.36-18.06-38.06ZM46.84,43.8c-9.72.27-19.45.08-29.44.08V15.02c9.34.66,18.52.71,27.5,2.12,8.54,1.34,13.72,11.7,10.69,19.75-1.5,3.99-4.45,6.78-8.76,6.9Z"/>
  </g>
</svg>