<?xml version="1.0" encoding="UTF-8"?>
<svg id="_레이어_2" data-name="레이어 2" xmlns="http://www.w3.org/2000/svg" viewBox="0 0 81.82 100">
  <defs>
    <style>
      .cls-1 {
        fill: #fff;
        stroke-width: 0px;
      }
    </style>
  </defs>
  <g id="_레이어_1-2" data-name="레이어 1">
    <path class="cls-1" d="M0,98.8c.51-1.91.87-3.88,1.56-5.73,3.43-9.23,6.62-18.56,10.55-27.57,2.79-6.4,2.86-12.09-.76-18.12-3.66-6.11-4.51-12.92-4.09-20C8.13,12.79,23.7-.84,38.21.04c7.38.45,14.6.02,21.78,3.17,20.61,9.03,28.03,31.4,16.15,50.74-1.59,2.59-4.03,4.65-5.5,6.31,2.98,6.59,6.29,12.81,8.62,19.38,2.14,6.02-.8,11.55-3.85,16.61-1.52,2.51-3.6,2.45-4.97-.57-2.14-4.72-4.22-9.47-6.53-14.1-4.75-9.51-12.01-15-23.17-13.99-1.54.14-3.16.23-4.66-.06-4.41-.85-6.6,1.37-8.3,5.1-2.87,6.28-6.08,12.42-9.15,18.61-4.28,8.64-8.13,10.29-18.63,7.56ZM62.92,39.28c-.73-3.35-1.18-6.78-2.22-10.02-3.59-11.19-14.02-15.5-24.61-10.34-8.08,3.93-10.01,11.9-4.88,19.2,4.59,6.53,11.29,9.27,18.63,11.09,8.18,2.03,12.66-1.43,13.08-9.93Z"/>
  </g>
</svg>