<?xml version="1.0" encoding="UTF-8"?>
<svg id="_레이어_2" data-name="레이어 2" xmlns="http://www.w3.org/2000/svg" viewBox="0 0 83.55 100">
  <defs>
    <style>
      .cls-1 {
        fill: #fff;
        stroke-width: 0px;
      }
    </style>
  </defs>
  <g id="_레이어_1-2" data-name="레이어 1">
    <path class="cls-1" d="M15.12,34.04c-5.93-.37-10.19-.64-15.12-.95.77-3.06,1.38-5.52,2.08-8.3,8.76-4.34,17.71-8.78,27.82-13.8,1.88,5.29,3.27,9.23,4.99,14.09C43.16,13.02,51.03.76,67.21,0c5.3,2.42,10.56,4.81,16.34,7.45-2.97,4.87-6.18,10.12-9.89,16.19-4-.46-8.13-.93-13.63-1.56-.79.23-3.02.83-5.22,1.52-10.74,3.39-15.65,10.39-15.02,21.38.43,7.47,6.18,23.6,11.07,30.61,3.8-.7,7.84-1.44,12.32-2.27,1.62,3.87,2.98,7.11,4.57,10.89-15.82,5.32-30.25,13.26-46.93,15.78-.82-2.61-1.49-4.74-2.41-7.69,2.78-2.94,5.93-6.26,9.69-10.24-1.24-16.46-8.44-31.67-12.98-48.03Z"/>
  </g>
</svg>