<?xml version="1.0" encoding="UTF-8"?>
<svg id="_레이어_2" data-name="레이어 2" xmlns="http://www.w3.org/2000/svg" viewBox="0 0 81.05 100">
  <defs>
    <style>
      .cls-1 {
        fill: #fff;
        stroke-width: 0px;
      }
    </style>
  </defs>
  <g id="_레이어_1-2" data-name="레이어 1">
    <g>
      <path class="cls-1" d="M1.65.31c13.45,0,26.68-.88,39.72.32,8.2.76,15.71,4.93,20.02,13.28,2.68,5.21,4.78,10.22,4.16,16.19-.65,6.24-3.04,11.72-6.8,16.62-1.41,1.83-3.25,3.34-4.91,4.98q-2.75,2.71-7.61,4.02c.75,1.6,1.49,3.08,2.15,4.6,3.19,7.3,7.09,14.12,13.24,19.38,1.48,1.26,3.28,2.14,4.82,3.34,2.76,2.14,6.47,3.87,7.9,6.71,1.7,3.37,4.93,4.98,6.72,8.43-1.2.57-2.58,1.84-3.8,1.7-3.68-.41-7.34,1.12-11.18-1.19-2.28-1.37-6.06-.25-9.15-.25-7.98-13.73-17.13-26.66-26.99-40.19h-13.03c1.21,2.57-1.25,5.5,1.88,7.48-2.78,4.46-1.28,9.4-1.5,14.13-.24,4.91,0,9.85-.07,14.77-.03,2.36-1.44,3.7-3.76,3.78-3.11.11-6.22.12-9.33,0-2.66-.1-4.13-1.48-3.94-4.31.19-2.92-1.06-5.93,1.16-8.88,1-1.33.31-3.98.31-6.04.01-23.58,0-47.17,0-70.75V.31ZM18.79,27.76c0,4.14-.08,8.28.03,12.41.07,2.3,1.41,3.71,3.78,3.74,4.39.06,8.79.04,13.19.01,5.65-.04,10.87-3.94,12.59-9.35.36-1.14,1.07-2.3,1.02-3.42-.08-1.8-.82-3.57-.99-5.38-.56-5.87-3.76-8.87-9.68-11.6-5.55-2.56-11.02-.84-16.5-1.29-2.15-.18-3.52,1.53-3.46,4.01.09,3.62.02,7.24.02,10.86Z"/>
      <path class="cls-1" d="M37.8,89.83c-.24.1-.79.34-1.35.58-.18-.43-.57-.91-.48-1.27.13-.5.63-.91.97-1.35.18.43.36.86.85,2.05Z"/>
      <path class="cls-1" d="M38.5,91.64c.24,1.65.38,2.67.53,3.69-.52-.6-1.12-1.15-1.51-1.83-.12-.21.38-.76.98-1.86Z"/>
      <path class="cls-1" d="M39.56,99.01c-.24-1.65-.38-2.67-.53-3.69.52.6,1.12,1.15,1.51,1.83.12.21-.38.76-.98,1.86Z"/>
      <path class="cls-1" d="M19.69,64.3c.18.18.51.44.48.49-.18.34-.45.63-.69.94-.23-.23-.46-.46-.69-.69.3-.25.61-.49.91-.74Z"/>
    </g>
  </g>
</svg>