<?xml version="1.0" encoding="UTF-8"?>
<svg id="_레이어_2" data-name="레이어 2" xmlns="http://www.w3.org/2000/svg" viewBox="0 0 76.59 100">
  <defs>
    <style>
      .cls-1 {
        fill: #fff;
        stroke-width: 0px;
      }
    </style>
  </defs>
  <g id="_레이어_1-2" data-name="레이어 1">
    <path class="cls-1" d="M2.7.03C16.42.03,29.56.09,42.71,0c7.3-.05,13.85,2.83,19.16,6.99,4.61,3.61,7.08,9.62,7.93,15.8.33,2.4-.15,4.62,1.58,7.11,2.02,2.9-.57,6.43-1.59,9.57-2.92,9.01-7.76,16.52-17.22,21.47,7.69,12.43,15.62,25.24,24.03,38.84h-23.4c-2.38-4.11-6.26-8.45-7.46-13.43-1.51-6.24-6.29-10.93-6.91-17.46-.18-1.92-2.17-3.54-4.93-3.43-5.1.22-10.22.06-16,.06v34.48H2.39c0-3.17-.19-6.32.03-9.43.98-13.94-4.25-27.78-1.72-41.52C3.66,32.93,1.25,16.83,2.7.03ZM17.8,13.51c0,9.94-.07,19.15.03,28.36.05,5.22,1.22,6.21,6.83,6.3,3.82.06,7.65.08,11.48,0,7.98-.18,14.23-6.5,14.4-14.57.08-3.82.01-7.64.01-11.42-.94-.94-1.9-1.79-2.73-2.75-3.91-4.53-8.74-6.44-14.78-5.99-4.75.36-9.55.07-15.24.07Z"/>
  </g>
</svg>