<?xml version="1.0" encoding="UTF-8"?>
<svg id="_레이어_2" data-name="레이어 2" xmlns="http://www.w3.org/2000/svg" viewBox="0 0 77.98 100">
  <defs>
    <style>
      .cls-1 {
        fill: #fff;
        stroke-width: 0px;
      }
    </style>
  </defs>
  <g id="_레이어_1-2" data-name="레이어 1">
    <path class="cls-1" d="M0,.04C13.62.04,27.07-.09,40.52.11c5.43.08,9.74,3.48,13.99,6.34,7.14,4.8,9.32,12.91,11.82,20.43,1.25,3.75-1.26,7.78-2.48,11.54-2.79,8.63-9.51,13.17-17.77,16.11,10.55,15.05,21.06,30.03,31.89,45.47h-20.56c-10.93-11.22-17.62-25.66-26.14-39.22H12.89c.41,1.49,1.09,2.82,1.1,4.17.1,8.99.08,17.99.01,26.98,0,1.2-.35,2.51-.92,3.56-.27.51-1.44.84-2.16.78-3.55-.32-7.09-.8-10.93-1.27V.04ZM14.29,42.67c8.03,1.21,15.62-.25,23.24-1.3,2.54-.35,6.61-4.98,6.71-7.59.1-2.63.11-5.28,0-7.91-.2-5.24-4.17-11.17-11.64-11.47-6.01-.25-12.05-.05-18.31-.05v28.31Z"/>
  </g>
</svg>