<?xml version="1.0" encoding="UTF-8"?>
<svg id="_레이어_2" data-name="레이어 2" xmlns="http://www.w3.org/2000/svg" viewBox="0 0 53.01 82.5">
  <defs>
    <style>
      .cls-1 {
        fill: #fff;
        stroke-width: 0px;
      }
    </style>
  </defs>
  <g id="_레이어_1-2" data-name="레이어 1">
    <path class="cls-1" d="M53.01,82.5h-14.69c-7.88-7.47-11.9-19.02-24.61-22.48v21.41H0V.11c11.2.24,22.49-1.63,33.01,4.06,15.45,8.35,19.33,32.44,7.16,45.17-1.9,1.99-4.41,3.39-6.94,5.29,3.39,4.52,6.85,8.93,10.1,13.5,3.15,4.43,6.09,9.03,9.67,14.38ZM13.36,13.95v31.82c7.3.84,13.91,1.41,18.27-5.41,3.7-5.78,4.11-11.92.92-17.95-4.06-7.66-10.99-9.37-19.19-8.47Z"/>
  </g>
</svg>