<?xml version="1.0" encoding="UTF-8"?>
<svg id="_레이어_2" data-name="레이어 2" xmlns="http://www.w3.org/2000/svg" viewBox="0 0 73.24 99.15">
  <defs>
    <style>
      .cls-1 {
        fill: #fff;
        stroke-width: 0px;
      }
    </style>
  </defs>
  <g id="_레이어_1-2" data-name="레이어 1">
    <path class="cls-1" d="M1.35.05C10.48.05,19.28-.09,28.07.09c9.93.2,19.85.74,29.78,1.05,3.89.12,6.3,2.94,9.23,4.8,1.4.89,2.4,2.37,3.69,3.45,1.72,1.44,2.39,3.22,2.35,5.43-.17,10.47-.32,20.94-.4,31.41-.01,1.79.49,3.59.5,5.38.04,14.83.03,29.65.01,44.48,0,.73-.14,1.46-.27,2.75-7.64.45-15.22.31-23.29.16v-35.86h-24.83v35.68H.24c-.52-8.14,0-16.32-.08-24.49-.09-8.26-.08-16.51-.1-24.77-.02-8.07-.13-16.14.01-24.21C.22,17.14-.52,8.87,1.35.05ZM49.47,17.61h-25.81c.09,8.96-.14,18.01.23,27.59h25.96c0-2.92-.11-5.48.03-8.02.13-2.21.84-4.41.76-6.59-.15-4.04-.7-8.06-1.17-12.98Z"/>
  </g>
</svg>