<?xml version="1.0" encoding="UTF-8"?>
<svg id="_레이어_2" data-name="레이어 2" xmlns="http://www.w3.org/2000/svg" viewBox="0 0 84.21 100">
  <defs>
    <style>
      .cls-1 {
        fill: #fff;
        stroke-width: 0px;
      }
    </style>
  </defs>
  <g id="_레이어_1-2" data-name="레이어 1">
    <path class="cls-1" d="M20.41,92.23H0V.43c1.74-.1,3.12-.25,4.51-.25C24.32.16,44.12.4,63.92,0c5.17-.1,8.73,2.16,12.4,4.83,2.43,1.76,4.69,3.8,6.81,5.93.71.71,1.04,2.1,1.04,3.18.06,22.97.05,45.94,0,68.92,0,1.09-.29,2.58-1.02,3.19-5.51,4.55-11.17,8.93-17.53,13.96v-45.1H20.41v37.32ZM64.82,32.55v-9.49H21.1v9.49h43.72Z"/>
  </g>
</svg>