<?xml version="1.0" encoding="UTF-8"?>
<svg id="_레이어_2" data-name="레이어 2" xmlns="http://www.w3.org/2000/svg" viewBox="0 0 67.92 100">
  <defs>
    <style>
      .cls-1 {
        fill: #fff;
        stroke-width: 0px;
      }
    </style>
  </defs>
  <g id="_레이어_1-2" data-name="레이어 1">
    <g>
      <path class="cls-1" d="M9.42,15.1c-2.51.42-3.75,1.86-3.69,4.53-.19-.38-.38-.76-.55-1.1-.29.05-.59.11-.91.17-.11-.59-.2-1.09-.32-1.74-.57.34-1,.6-1.46.87.04.34.07.69.11,1.06-.52-.08-.98-.14-1.57-.23.51-2.74,1.22-5.44,3.37-7.44,2.33-2.17,4.53-4.59,7.19-6.27C20.38-.61,29.79-1.6,39.4,2.55c6.1,2.64,9.93,7.6,12.22,13.78,3.15,8.49,1.25,16.43-2.64,24.16-3.01,5.98-8.17,9.81-13.44,13.55-3.47,2.47-6.85,5.07-10.22,7.68-.46.36-.59,1.14-.87,1.72.61.25,1.21.66,1.84.71,3.66.3,7.34.4,10.99.78,3.02.31,4.85,2.3,6.52,4.74,1.71,2.5,1.82,5.48,3.09,8.04,1.02,2.06,2.12,4.19,3.68,5.82,1.08,1.12,2.95,1.8,4.56,2.02,3.92.53,6.35,2.7,8.26,5.98,1.27,2.18,2.97,4.1,4.52,6.2-.34.57-.76,1.28-1.34,2.26-1.06,0-2.41,0-3.75,0-4.76,0-9.52-.04-14.28,0-1.25.01-2.03-.53-2.68-1.48-4.03-5.94-8.05-11.89-12.09-17.82-2.07-3.03-4.12-6.08-6.29-9.04-.72-.98-1.79-1.71-2.87-2.71-.85.72-1.75,1.3-2.43,2.08-5.4,6.27-10.75,12.58-16.12,18.87-.42.49-.9.93-1.33,1.41-.74.82-1.29,1.64-.93,2.89.56,1.91.13,2.46-2.1,3.01-.08-.23-.22-.47-.23-.72-.16-3.38-.27-6.76-.47-10.14-.1-1.74-.35-3.46-.51-5.2-.04-.45,0-.9-.14-1.33-.06-.86-.12-1.73-.18-2.59.2-.02.39-.03.59-.05.05.44.11.87.16,1.31.13,0,.26,0,.39.01.04-.53.07-1.06.11-1.68-.46-.11-.86-.2-1.46-.34.68-7.37-.02-14.78.44-22.14v-5.97h2.78v11.54c-.43.07-.94.15-1.5.24.51.07.99.14,1.72.24v23.03c5.39-6.63,10.49-12.89,15.5-19.05.98-.07,1.77-.13,3.02-.22-5.91-9.13-11.65-17.99-17.4-26.86-.24.06-.48.12-.71.19-.18,3.48-.35,6.97-.55,10.86-1.09-.38-1.97-.69-2.85-1,.34-.49.69-.99,1.06-1.53-.17-.04-.61-.14-1.52-.34.89-.27,1.35-.41,1.98-.61-.6-.21-1.04-.37-1.51-.53v-1.24c.53.03.98.05,1.44.08.02-.08.04-.15.07-.23-.48-.17-.97-.35-1.7-.61.29-.44.54-.81.59-.89-.22-1.03-.42-1.91-.65-2.98h2.45c0-.12,0-.23-.01-.35-.69.04-1.38.08-2.36.13.12-1.02.23-1.98.35-2.94.19.02.37.03.56.05.07.41.15.81.22,1.22.1,0,.21.02.31.03.14-.63.27-1.26.46-2.11-.51-.15-1.08-.33-2.03-.61.59-.31.93-.49,1.52-.8-.59-.25-1.12-.48-1.65-.71.13-.19.26-.37.39-.56.3-.07.59-.13.93-.21-.32-.22-.61-.42-.51-.35-.27-1.84-.48-3.3-.71-4.85,4.44-1.16,8.98-1.85,12.63-5.12.02-.23.06-.72.08-.99.4-.51.69-.87.98-1.24l-.05.04c.46-.09.92-.17,1.38-.26.09.13.18.26.27.39-.54.34-1.09.69-1.74,1.1.02.23.04.59.11,1.43,1.38-.9,2.5-1.63,3.62-2.36.09.08.19.17.28.25-.84,1.22-1.67,2.44-2.51,3.67.18.02.36.05.54.07.61.75,1.23,1.5,1.91,2.34-.52.47-1.11.91-1.56,1.46-.84,1.01-.15,1.36.67,1.41.32,1.28,1.07,2.57.76,3.5-.4,1.19.31,2.04.21,3.05-.02.25.48.56.74.84.25-.26.49-.51.86-.89,1.31.51,2-.15,2-1.76.15-.03.3-.06.45-.09.31.56.67,1.09.94,1.67.98,2.13,1.82,4.34,2.91,6.4,1,1.89,2.16,2.28,3.67,1.27,4.85-3.23,8.22-7.76,9.81-13.26,1.1-3.83.62-7.97-.5-11.84-.66-2.28-2.48-3.79-4.79-4.49-3.87-1.18-7.47-.7-10.65,1.97-.6.5-1.26.94-2.09,1.56-.09-.79-.16-1.29-.22-1.79-.13.13-.25.25-.38.38-.79-.92-1.59-1.85-2.43-2.82-1.54,1.49-3.13,3.18-5.32,2.91-.26,1.64-.51,3.17-.79,4.97-.32-.38-.5-.53-.6-.73-.11-.22-.15-.47-.28-.95-.43.48-.72.8-1.19,1.33v-3.28l.26-.05c.19.44.37.87.56,1.31.13,0,.26.01.39.02.08-.49.16-.98.18-1.13-.7-.61-1.16-1.01-1.63-1.42.23-.28.46-.56.69-.84-.18-.08-.37-.16-.55-.25-.11.31-.21.61-.32.92ZM20.02,37.76c.42-.09.86-.19,1.44-.32-1.37-.27-2.57-.51-3.93-.78.23.86.46,1.7.64,2.38h1.7c.05-.43.1-.81.15-1.28Z"/>
      <path class="cls-1" d="M22.45,33.08c-1.23-.27-2.22-.49-3.6-.79,2.22-.92,3.18-.71,3.6.79Z"/>
      <path class="cls-1" d="M20.98,29.97c-.51.11-1.02.23-1.74.39.29-.88.51-1.55.73-2.22.12,0,.23,0,.35,0,.21.62.42,1.25.62,1.87l.03-.04Z"/>
      <path class="cls-1" d="M20.95,30.01c.29.23.59.46.88.7-.3.25-.6.51-.9.76-.11-.09-.22-.17-.33-.26.13-.41.25-.83.38-1.25,0,0-.03.04-.03.04Z"/>
      <path class="cls-1" d="M7.8,17.74c.33.3.67.6,1,.9-.06.1-.12.21-.18.31-.47-.11-.93-.23-1.85-.45.55-.37.81-.55,1.07-.72,0,0-.05-.04-.05-.04Z"/>
      <path class="cls-1" d="M13.84,19.04c-.31-.16-.62-.32-.93-.49.14-.15.28-.29.41-.44.16.32.31.65.47.97,0,0,.05-.04.05-.04Z"/>
      <path class="cls-1" d="M19.4,26.55c-.24.26-.39.52-.48.51-.2-.04-.36-.23-.54-.35.13-.14.25-.34.41-.39.13-.04.32.11.62.24Z"/>
      <path class="cls-1" d="M19.03,27.27c.05.21.15.42.14.62,0,.17-.14.34-.21.51-.19-.12-.43-.2-.54-.37-.06-.09.12-.33.2-.5.14-.09.28-.18.41-.26Z"/>
      <path class="cls-1" d="M7.85,17.78c.17-.33.33-.66.5-.99.11.14.22.28.33.41-.29.18-.59.35-.88.53,0,0,.05.04.05.04Z"/>
      <path class="cls-1" d="M20.2,24.49c-.23.06-.47.13-.7.19.07-.21.13-.43.23-.62.02-.03.26.07.4.11l.07.32Z"/>
    </g>
  </g>
</svg>