<?xml version="1.0" encoding="UTF-8"?>
<svg id="_레이어_2" data-name="레이어 2" xmlns="http://www.w3.org/2000/svg" viewBox="0 0 56.91 100">
  <defs>
    <style>
      .cls-1 {
        fill: #fff;
        stroke-width: 0px;
      }
    </style>
  </defs>
  <g id="_레이어_1-2" data-name="레이어 1">
    <path class="cls-1" d="M26.33,20.61c4.37-5.08,7.5-9.26,11.2-12.85,3.31-3.22,7.34-5.59,12.34-3.61,4.88,1.93,5.79,6.04,5.95,10.7.09,2.61.76,5.21,1.09,7.32-3.66-1.71-7.3-4.52-11.19-4.92-4.23-.43-8.72,1.26-13.04,2.27-1.59.37-3.18,1.2-4.47,2.21-1.22.95-2.84,2.34-2.95,3.65-1.91,22.86-3.26,45.74-.98,68.67.18,1.79.02,3.62.02,5.95-4.7-.46-9.31-.92-14.38-1.42.37-4.86.92-9.33,1.01-13.82.36-18.55.58-37.1.84-55.65.03-1.85-.12-3.7-.12-5.55-.02-5.29-2.06-8.01-7.86-6.76-1.12.24-2.53-.88-3.8-1.38.66-1.2,1.1-2.61,2.01-3.57,2.21-2.29,4.88-4.17,6.93-6.58C12.99.55,17.65-1.38,23.96,1.05c.74,6.09,1.49,12.33,2.37,19.56Z"/>
  </g>
</svg>