<?xml version="1.0" encoding="UTF-8"?>
<svg id="_레이어_2" data-name="레이어 2" xmlns="http://www.w3.org/2000/svg" viewBox="0 0 74.89 100">
  <defs>
    <style>
      .cls-1 {
        fill: #fff;
        stroke-width: 0px;
      }
    </style>
  </defs>
  <g id="_레이어_1-2" data-name="레이어 1">
    <path class="cls-1" d="M.78,1.54c.04-.49.07-.9.11-1.42C1.64.08,2.27,0,2.89,0c11.93,0,23.85-.02,35.78.02,4.27.02,8.44.79,12.34,2.52,7.61,3.37,12.07,9.16,12.71,17.6.66,8.64-1.39,16.27-8.8,21.57-1.93,1.38-4.29,2.17-6.67,3.33.78.41,1.51.78,2.23,1.17,7.04,3.9,11.36,9.53,11.46,17.88.06,5.03-.03,10.08.29,15.1.39,6.06,2.96,10.99,8.48,14.08,1,.56,1.97,1.27,2.74,2.11.59.64.85,1.59,1.46,2.8-1.08,0-1.58.01-2.08,0-4.29-.12-8.52.06-12.76,1.02-2.85.64-5.85.79-8.78.8-3.83.02-6.28-2.34-7.49-5.72-.82-2.3-1.32-4.83-1.37-7.27-.16-6.71.06-13.43-.02-20.15-.03-2.18-.32-4.4-.82-6.52-1.31-5.55-5.27-8.36-11.19-8.09-.04.48-.13.99-.13,1.49-.02,11.47-.07,22.93.02,34.4.01,1.8.35,3.8,1.21,5.32.86,1.52,2.57,2.55,4.21,4.07,0,.07.07.56.14,1.16H0v-2.85c.34-.29.57-.58.87-.71,5.81-2.46,7.28-7.47,7.35-13.04.16-11.87.11-23.74.12-35.62.02-11.93,0-23.86,0-35.79,0-.46,0-.93-.02-1.39-.1-5.16-1.37-6.65-6.43-7.55-.33-.06-.67-.11-1.14-.19ZM30.26,40.61c6.36-.89,9.23-3.39,10.8-8.01,1.6-4.72,1.66-9.55.86-14.4-.52-3.11-1.94-5.83-4.98-7.06-2.03-.82-4.31-1.03-6.68-1.56v31.04Z"/>
  </g>
</svg>