<?xml version="1.0" encoding="UTF-8"?>
<svg id="_레이어_2" data-name="레이어 2" xmlns="http://www.w3.org/2000/svg" viewBox="0 0 84.29 100">
  <defs>
    <style>
      .cls-1 {
        fill: #fff;
        stroke-width: 0px;
      }
    </style>
  </defs>
  <g id="_레이어_1-2" data-name="레이어 1">
    <path class="cls-1" d="M17.61,15.38c0,3.26.01,6.52,0,9.78-.05,10.83-.03,21.65-.24,32.48-.05,2.4,1.26,3.76,2.58,5.28,1.77,2.04,3.61,4.02,5.41,6.04,1.23,1.37,1.79,2.91,1.65,4.82-.39,5.39-.55,10.81-1.02,16.19-.16,1.91-.86,3.79-1.46,5.64-.83,2.57-2.84,3.99-5.38,4.08-5.53.19-11.07.07-16.61.06-.3,0-.59-.17-.99-.29C-.85,66.4.07,33.34.81.25h23.86c3.77,8.23,7.48,16.33,11.19,24.42.13-.04.26-.09.38-.13V.29h15.99c-.21,15.07-.42,30.13-.63,45.33h16.7V0h16v99.21h-16.35v-41.29h-16.27v42.09h-16.07c0-3.82-.02-7.45,0-11.09.05-6.23.2-12.46.16-18.69-.04-6.4-.23-12.7-2.49-18.94-3.52-9.74-6.3-19.75-9.5-29.61-.55-1.71-1.47-3.36-2.52-4.82-.64-.89-1.85-1.36-2.8-2.02l-.86.55Z"/>
  </g>
</svg>