<?xml version="1.0" encoding="UTF-8"?>
<svg id="_레이어_2" data-name="레이어 2" xmlns="http://www.w3.org/2000/svg" viewBox="0 0 89.35 100">
  <defs>
    <style>
      .cls-1 {
        fill: #fff;
        stroke-width: 0px;
      }
    </style>
  </defs>
  <g id="_레이어_1-2" data-name="레이어 1">
    <path class="cls-1" d="M17.58,62.18C1,64.69.16,64.1.06,49.43-.06,33.39.03,17.36.03.41c15.28,0,30.02.04,44.76-.02,6.28-.03,12.56-.43,18.84-.39,15.73.11,25,8.73,25.42,24.38.42,15.89.39,31.8-.04,47.68-.13,4.79-1.98,9.61-3.51,14.27-1.48,4.5-3.57,8.79-5.57,13.61-4.36.41-6.47-1.2-6.41-6.45.22-19.42.1-38.84.01-58.26-.01-2.94-.37-5.91-.9-8.8-1.11-6.02-4.57-8.83-10.64-9.05-2.75-.1-5.49-.3-9.1-.5v41.11c-5.94,0-11.07.3-16.11-.23-1.09-.11-2.62-3.2-2.66-4.93-.18-9.98.06-19.96.11-29.95,0-1.99-.19-3.99-.29-5.94-.91-.25-1.42-.49-1.94-.51q-14.41-.46-14.41,14.02c0,10.52,0,21.03,0,31.73Z"/>
  </g>
</svg>