<?xml version="1.0" encoding="UTF-8"?>
<svg id="_레이어_2" data-name="레이어 2" xmlns="http://www.w3.org/2000/svg" viewBox="0 0 76.96 82.07">
  <defs>
    <style>
      .cls-1 {
        fill: #fff;
        stroke-width: 0px;
      }
    </style>
  </defs>
  <g id="_레이어_1-2" data-name="레이어 1">
    <path class="cls-1" d="M.48,4.33c4.32,0,8.08,0,11.84,0,3.06,0,3.99,1.54,3.54,4.5-2.9,19.22,5.81,34.43,16.94,49.18.67-.57,1.25-.89,1.58-1.38,11.46-17.11,22.9-34.24,34.33-51.37.46-.69.66-1.61,1.24-2.14,1.24-1.13,2.64-2.08,3.98-3.11.42,1.48,1.17,2.95,1.22,4.45.65,20.45,1.2,40.89,1.78,61.34.01.5.04,1,.03,1.5-.43,15.75.27,13.01-14.41,14.79v-46.73c-1.37,1.72-2.52,2.93-3.42,4.31-7.01,10.71-13.95,21.48-20.97,32.18-1.27,1.94-2.64,3.89-4.33,5.44-2.09,1.91-4.41,2.27-6.29-.58-7.22-10.96-14.89-21.65-21.56-32.94C-1.14,31.73-.25,18.28.48,4.33Z"/>
  </g>
</svg>