<?xml version="1.0" encoding="UTF-8"?>
<svg id="_레이어_2" data-name="레이어 2" xmlns="http://www.w3.org/2000/svg" viewBox="0 0 104.88 91.36">
  <defs>
    <style>
      .cls-1 {
        fill: #fff;
        stroke-width: 0px;
      }
    </style>
  </defs>
  <g id="_레이어_1-2" data-name="레이어 1">
    <path class="cls-1" d="M91.74,91.15c.71-19.24-.65-37.98-4.57-56.9-5.22,9.74-10.39,19.51-15.69,29.21-3.98,7.29-7.93,14.62-12.27,21.7-2.52,4.12-4.29,3.78-6.68-.45-9.56-16.93-19.16-33.83-28.71-50.76-.88-1.56-1.5-3.27-2.65-5.8-1.98,9.63-3.73,18.46-5.63,27.25-1.26,5.84-2.67,11.65-4.18,17.43-1.02,3.91-4.15,5.35-8.61,4.14-3.97-1.08-2.61-4.28-2.12-6.59,3.28-15.43,6.8-30.81,10.21-46.21,1.43-6.47,2.6-13.01,4.33-19.41.48-1.79,2.5-3.17,3.81-4.74,1.17,1.28,2.58,2.42,3.48,3.87,10.62,17.08,21.19,34.2,31.72,51.34,1.39,2.26,2.53,4.66,4.26,7.87,2.56-4.05,5.07-7.62,7.16-11.42,8.59-15.58,17.05-31.23,25.56-46.86.48-.87.88-1.9,1.61-2.49.95-.77,2.51-1.9,3.23-1.58,1.1.49,2.31,2.04,2.41,3.23,2.19,25.02,4.44,50.04,6.23,75.1.87,12.2-.19,12.85-12.91,12.08Z"/>
  </g>
</svg>