<?xml version="1.0" encoding="UTF-8"?>
<svg id="_레이어_2" data-name="레이어 2" xmlns="http://www.w3.org/2000/svg" viewBox="0 0 109 100">
  <defs>
    <style>
      .cls-1 {
        fill: #fff;
        stroke-width: 0px;
      }
    </style>
  </defs>
  <g id="_레이어_1-2" data-name="레이어 1">
    <path class="cls-1" d="M103.07.49c.3,10.77.25,22,.99,33.17,1.26,19.01,2.89,37.99,4.62,56.96.69,7.59.96,7.56-6.9,7.65-6.65.08-13.3.06-19.93.47-4.52.28-5.43-2.12-5.55-5.8-.32-10.39-.72-20.77-1.12-31.16-.04-.94-.28-1.86-1.58-3.26-1.79,2.73-3.74,5.36-5.34,8.19-3.94,6.97-7.45,14.2-11.68,20.98-1.78,2.86-4.94,4.87-7.47,7.27-2.08-2.74-4.68-5.23-6.15-8.26-3.18-6.57-5.72-13.45-8.68-20.14-.69-1.56-1.98-2.85-3.19-4.54-2.3,11.17-4.64,21.55-6.51,32-.84,4.7-3.11,6.2-7.65,5.93-5.26-.31-10.55-.07-16.93-.07.61-4.38.94-8.69,1.85-12.86,4.72-21.6,9.62-43.16,14.37-64.75,1.28-5.81,2.39-11.66,3.25-17.54.47-3.24,2.04-4.26,5.09-4.18,5.27.13,10.56.17,15.83.02,4.31-.12,6.29,2.24,7.79,5.92,2.88,7.06,6.1,13.98,9.77,22.3C68.33,11.34,79.92-2.85,103.07.49Z"/>
  </g>
</svg>