<?xml version="1.0" encoding="UTF-8"?>
<svg id="_레이어_2" data-name="레이어 2" xmlns="http://www.w3.org/2000/svg" viewBox="0 0 122.78 100">
  <defs>
    <style>
      .cls-1 {
        fill: #fff;
        stroke-width: 0px;
      }
    </style>
  </defs>
  <g id="_레이어_1-2" data-name="레이어 1">
    <path class="cls-1" d="M90.67,97.74c1.95-16.01,2.03-31.88-.84-48.79-11.34,11.69-17.57,25.72-26.74,39.34-8.83-12.2-17.1-23.62-25.66-35.45-.48,1.23-.95,1.89-.99,2.58-.8,12.89-1.69,25.78-2.21,38.69-.12,2.89-1.11,4.16-3.68,4.06-10.07-.4-20.13-.94-30.54-1.45C3.82,64.72,7.62,32.87,11.39,1.3,17.27.82,22.95.24,28.65,0c1.29-.05,3.07.71,3.88,1.71,5.4,6.63,10.6,13.42,15.87,20.16,1.41,1.81,2.82,3.63,4.81,6.17,2.59-2.95,4.93-5.35,6.96-7.98,3.62-4.68,6.96-9.57,10.65-14.19.88-1.1,2.68-2.08,4.06-2.08,12.29.03,24.58.4,36.88.41,3.37,0,3.85,1.83,4.05,4.37,1.85,24.36,3.68,48.72,5.57,73.08.33,4.18,1.03,8.34,1.35,12.52.34,4.57-1.09,6.11-5.57,5.8-8.67-.62-17.33-1.44-26.49-2.22Z"/>
  </g>
</svg>