<?xml version="1.0" encoding="UTF-8"?>
<svg id="_레이어_2" data-name="레이어 2" xmlns="http://www.w3.org/2000/svg" viewBox="0 0 169.48 100">
  <defs>
    <style>
      .cls-1 {
        fill: #fff;
        stroke-width: 0px;
      }
    </style>
  </defs>
  <g id="_레이어_1-2" data-name="레이어 1">
    <g>
      <path class="cls-1" d="M69.06,99.84c-.58-18.23-1.09-36.02-1.81-53.8-.05-1.25-1.43-3.19-2.57-3.53-4.66-1.38-9.48-2.26-14.51-3.38v59c-10.68.47-21.39.94-32.34,1.42-.08-.67-.24-1.41-.25-2.16-.18-12.07-.31-24.15-.52-36.22-.08-4.62-.3-9.24-.45-13.86-.11-3.44-2.47-5.73-5.99-5.72-1.81,0-3.62.11-5.43.14-1.7.02-3.39,0-5.19,0V4.17c7.6,0,15.12.03,22.64,0,10.46-.04,20.93-.16,31.39-.18,4.42,0,9,.94,13.24.09,7.95-1.59,13.73,1.6,19.31,6.5,5.04,4.42,10.38,8.49,15.53,12.8.42.35.49,1.29.49,1.96.16,23.95.29,47.89.45,71.84.01,1.47-.04,2.51-1.99,2.52-10.17.06-20.33.22-30.5.32-.68,0-1.37-.15-1.51-.16Z"/>
      <path class="cls-1" d="M168.35.11c.37,32.93.74,66.16,1.12,99.74h-26.86c-.53-22.21-1.07-44.33-1.6-66.46-.43-.1-.85-.19-1.28-.29-8.85,10.94-13.7,24.96-25.7,34.24-1.03-20.61-1.3-40.72.6-61.29,2.14.31,4.07.56,5.99.89,6.79,1.16,13.07.38,19-3.63,2.56-1.73,5.93-2.83,9.02-3.05,6.28-.46,12.63-.14,19.7-.14Z"/>
    </g>
  </g>
</svg>