<?xml version="1.0" encoding="UTF-8"?>
<svg id="_레이어_2" data-name="레이어 2" xmlns="http://www.w3.org/2000/svg" viewBox="0 0 116.69 100">
  <defs>
    <style>
      .cls-1 {
        fill: #fff;
        stroke-width: 0px;
      }
    </style>
  </defs>
  <g id="_레이어_1-2" data-name="레이어 1">
    <path class="cls-1" d="M115.49,98.53h-29.26c-.76-13.22-1.52-26.48-2.28-39.74-.42-.17-.84-.35-1.27-.52-8.12,12.96-16.23,25.92-24.71,39.44-9.86-13.99-19.28-27.37-29.37-41.7-1.03,8.63-1.97,16.05-2.78,23.47-.6,5.5-.92,11.03-1.63,16.51-.14,1.1-1.43,2.83-2.32,2.91-6.56.62-13.14,1.03-19.73,1.1-.74,0-2.17-2.56-2.14-3.9.17-8.49.58-16.98,1.07-25.46.63-10.77,1.46-21.52,2.1-32.29.61-10.23,1.1-20.46,1.61-30.7.09-1.87.01-3.75.01-6.13,2.44.27,5.2.83,7.95.83,5.66,0,11.32-.24,16.97-.54,3.13-.17,5,.7,6.62,3.79,5.59,10.6,11.65,20.95,17.57,31.38.71,1.25,1.64,2.38,2.84,4.11,1.54-1.96,2.79-3.46,3.94-5.05,7.99-11.01,15.95-22.06,23.98-33.04.46-.63,1.46-1.15,2.24-1.21,8.59-.63,17.2-1.02,25.78-1.76,3.57-.31,4.14,1.38,3.97,4.28-.33,5.79-.73,11.58-.8,17.37-.27,23.74-.44,47.49-.62,71.23-.01,1.86.15,3.71.24,5.61Z"/>
  </g>
</svg>