<?xml version="1.0" encoding="UTF-8"?>
<svg id="_레이어_2" data-name="레이어 2" xmlns="http://www.w3.org/2000/svg" viewBox="0 0 140.4 100">
  <defs>
    <style>
      .cls-1 {
        fill: #fff;
        stroke-width: 0px;
      }
    </style>
  </defs>
  <g id="_레이어_1-2" data-name="레이어 1">
    <path class="cls-1" d="M0,28.29C3.16,20.15,6.12,12.33,9.31,4.59c.35-.84,2.02-1.69,3.02-1.61,4.71.35,9.4,1.04,14.1,1.54,2.43.26,3.52,1.43,4.73,3.74,2.36,4.48,5.03,9.36,8.9,12.36,7.45,5.77,15.81,10.38,23.83,15.41,2,1.25,3.76,1.5,5.19-1.18,1.41-2.64,3.72-2.71,5.99-.87,2.46,1.98,4.9,3.99,7.24,6.1,4.2,3.78,5.91,4.07,9.52-.21,5.35-6.33,10.31-13.01,15.2-19.71,4.04-5.54,7.67-11.37,11.64-16.97.94-1.32,2.42-3.03,3.76-3.14,2.95-.23,6,.31,8.95.87.5.09.89,1.8.99,2.8.75,7.21,1.42,14.43,2.09,21.65,1.93,20.87,3.9,41.73,5.75,62.61.52,5.86.36,5.87-5.2,7.52-.5.15-1.15.14-1.49.46-3.96,3.73-9.06,3.54-14.3,4.05-1.32-11.96-2.66-24.09-4.09-37.13-6.8,11.24-12.92,21.34-19.58,32.35-16.58-17.89-38.35-24.12-59.3-34.29v37.98c-7.62-.44-15.08-.87-22.54-1.31-.92-.05-1.83-.23-2.75-.3-9.01-.69-8.36-.73-7.33-9.69,1.68-14.66,3.87-29.26,5.96-43.86,1.06-7.39-1.37-12.67-9.58-15.46Z"/>
  </g>
</svg>