<?xml version="1.0" encoding="UTF-8"?>
<svg id="_레이어_2" data-name="레이어 2" xmlns="http://www.w3.org/2000/svg" viewBox="0 0 148.58 100">
  <defs>
    <style>
      .cls-1 {
        fill: #fff;
        stroke-width: 0px;
      }
    </style>
  </defs>
  <g id="_레이어_1-2" data-name="레이어 1">
    <path class="cls-1" d="M118.64,1.33c8.09,33.23,15.91,65.64,29.94,97.52-8.08,0-15.03-.09-21.98.03-4.68.08-9.36.35-14.02.75-2.96.25-4.61-.51-5.37-3.7-1.92-8-4.19-15.92-6.33-23.86-.39-1.43-.86-2.83-1.49-4.92-7.82,11.56-15.26,22.56-22.22,32.85-10.93-10.99-21.34-21.46-31.75-31.93-.56.3-1.13.61-1.69.91-3.35,8.6-3.39,17.73-3.37,27.24H0c1.65-10.43,3.37-20.85,4.94-31.29,2.52-16.77,4.94-33.55,7.37-50.33.6-4.13.92-8.31,1.69-12.4C14.17,1.3,15.72-.03,16.6,0c7.45.24,14.89.75,22.62,1.2,1.63,18.36,14.64,31.13,23.8,46.97,3.66-5.17,6.96-9.74,10.17-14.37,6.78-9.78,13.49-19.61,20.32-29.35.58-.83,1.81-1.63,2.8-1.7,7.54-.58,15.1-.98,22.33-1.42Z"/>
  </g>
</svg>