<?xml version="1.0" encoding="UTF-8"?>
<svg id="_레이어_2" data-name="레이어 2" xmlns="http://www.w3.org/2000/svg" viewBox="0 0 100.87 100">
  <defs>
    <style>
      .cls-1 {
        fill: #fff;
        stroke-width: 0px;
      }
    </style>
  </defs>
  <g id="_레이어_1-2" data-name="레이어 1">
    <path class="cls-1" d="M100.87.93c-.75,32.54-1.49,64.44-2.24,96.8h-21.89c-.31-16.48-.63-33.23-.96-50.33-.41.52-.79.8-.9,1.16-4.7,15.25-9.52,30.46-13.97,45.78-1.78,6.12-1.38,5.98-7.83,5.4-4.43-.4-8.95-.19-13.4.16-2.6.2-3.89.09-4.6-3-3.83-16.73-7.98-33.4-11.99-50.09-.33-1.37-.42-2.8-1.25-4.33-.32,1.87-.61,3.74-.96,5.6-1.4,7.49-2.78,14.99-4.25,22.47-1.47,7.48-3.02,14.94-4.55,22.41-.18.89-.58,1.76-.67,2.65-.36,3.5-2.84,3.13-5.34,3.27-2.84.16-3.26-1.77-3.5-3.63-.76-5.84-1.74-11.71-1.87-17.58C.27,59.65.19,41.62.03,23.59-.03,15.97.02,8.36.02,0c12.68,2.42,25.12,3.5,37.89,1.25,4.02,18.61,7.92,36.62,11.91,55.06,2.37-5.57,4.59-10.7,6.75-15.85,4.57-10.87,9.11-21.75,13.67-32.62.12-.28.2-.58.31-.86,2.39-6.23,2.39-6.16,9.04-6.07,6.8.09,13.61.02,21.28.02Z"/>
  </g>
</svg>