<?xml version="1.0" encoding="UTF-8"?>
<svg id="_레이어_2" data-name="레이어 2" xmlns="http://www.w3.org/2000/svg" viewBox="0 0 114.74 100">
  <defs>
    <style>
      .cls-1 {
        fill: #fff;
        stroke-width: 0px;
      }
    </style>
  </defs>
  <g id="_레이어_1-2" data-name="레이어 1">
    <path class="cls-1" d="M14.67,100c.13-1.68.2-3.36.43-5.03.1-.72.58-1.37.83-2.07.29-.81.71-1.64.75-2.47.37-8.13.87-16.27.95-24.41.12-13.35.06-26.7-.16-40.05-.08-4.59-.63-9.46-4.93-12.25-3.22-2.08-6.9-3.5-10.48-4.94C.67,8.22-.13,7.85.02,6.18.19,4.22.06,2.24.06.19.71.1,1.1,0,1.49,0c8.01.02,16.03-.08,24.04.15,3.52.1,7.12.55,10.51,1.47,3.48.94,5.57,4.01,7.12,7.02,4.08,7.89,7.91,15.91,11.72,23.94,1.34,2.82,2.34,5.81,3.5,8.72.1.24.33.43.82,1.06.81-1.96,1.55-3.65,2.21-5.36,4.12-10.77,8.25-21.54,12.33-32.33,1.24-3.29,1.17-3.34,4.67-3.37,10.96-.11,21.91-.19,32.87-.29,1.05,0,2.09-.1,3.14-.15.1.22.21.44.31.66-.93.65-1.78,1.47-2.79,1.94-7.69,3.57-11.93,9.78-13.57,17.87-.48,2.39-.63,4.89-.63,7.34.04,13.41.17,26.83.26,40.24.06,8.22-.1,16.44.26,24.65.1,2.18,1.76,4.29,2.71,6.44h-27.13c1.19-2.63,2.96-4.91,2.93-8.13-.08-9.78.16-19.56.3-29.34.13-8.97.32-17.93.41-26.9.02-1.95-.26-3.89-.39-5.84-.22-.08-.44-.16-.66-.23-4.89,6.88-9.01,14.24-12.96,21.7-3.98,7.52-7.86,15.1-11.91,22.9-3.04-3.42-4.93-7.18-6.84-10.94-4.81-9.5-9.61-19-14.57-28.42-1.4-2.66-3.37-5.03-5.33-7.92-.16.79-.26,1.08-.27,1.38-.27,20.67-.56,41.33-.72,62-.01,1.65.63,3.58,1.62,4.9,1.15,1.53,2.37,2.92,2.76,4.84h-13.56Z"/>
  </g>
</svg>