<?xml version="1.0" encoding="UTF-8"?>
<svg id="_레이어_2" data-name="레이어 2" xmlns="http://www.w3.org/2000/svg" viewBox="0 0 95.06 100">
  <defs>
    <style>
      .cls-1 {
        fill: #fff;
        stroke-width: 0px;
      }
    </style>
  </defs>
  <g id="_레이어_1-2" data-name="레이어 1">
    <path class="cls-1" d="M0,.4C6.12.4,11.61,0,16.99.62c1.73.2,3.74,2.77,4.63,4.71,8.28,17.97,16.34,36.04,24.46,54.09.82,1.81,1.64,3.63,2.88,6.38,7.33-15.9,14.24-30.84,21.1-45.8,2.21-4.82,4.65-9.58,6.37-14.57,1.45-4.2,3.76-5.87,8.13-5.33,3.38.42,6.81.37,10.5.54v99.37h-18.12v-51.81c-.47-.08-.95-.17-1.42-.25-4.48,9.76-8.91,19.55-13.46,29.28-2.68,5.73-5.22,11.57-8.52,16.94-1.21,1.98-4.35,3.54-6.75,3.75-1.66.14-4.39-1.97-5.2-3.73C28.04,64.73,14.71,35.19,1.36,5.65.81,4.43.67,3.03,0,.4Z"/>
  </g>
</svg>