<?xml version="1.0" encoding="UTF-8"?>
<svg id="_레이어_2" data-name="레이어 2" xmlns="http://www.w3.org/2000/svg" viewBox="0 0 92.78 100">
  <defs>
    <style>
      .cls-1 {
        fill: #fff;
        stroke-width: 0px;
      }
    </style>
  </defs>
  <g id="_레이어_1-2" data-name="레이어 1">
    <g>
      <path class="cls-1" d="M92.78,99.96c-2.63,0-4.13.1-5.62-.02-2.69-.22-3.86-1.41-3.97-4.13-.53-12.64-.94-25.29-1.57-37.92-.27-5.35-1.17-10.66-1.42-16.01-.25-5.53.02-11.09-.12-16.63-.03-1.06-1.23-2.06-1.39-3.17-.92-6.42,1.77-12.3,3.37-18.26.46-1.71,3.66-2.7,5.34-3.83,3.6,1.17,3.35,3.71,3.34,6.21-.02,23.69-.16,47.37.08,71.05.08,7.33,1.23,14.64,1.95,22.7Z"/>
      <path class="cls-1" d="M5.98,90.61v-11.74c-1.47,4.52-2.1,8.99-.71,13.48,1.45,4.68.85,5.44-4.91,5.98-.17-2.84-1.1-5.43.99-8.35,1.07-1.5.55-4.48.08-6.65-.42-1.96,2.59-3.72.11-5.57.78-4.21,1.54-8.43,2.34-12.64.13-.68.6-1.31.66-1.99.54-6.09,1.21-12.17,1.47-18.27.16-3.65,1.33-7.1,1.85-10.67,1.3-8.99,1.68-12.81-.19-23-.53-2.9-.08-5.98-.08-9.88,1.35.68,2.91,1.09,2.92,1.52.14,10.08.11,20.16.11,30.24-2.44,4.35-1.21,9.01-.61,13.71.54-2.52,1.2-5.03,1.58-7.57.43-2.86.61-5.76,1.25-8.64.93,3.93.87,7.79.25,11.84-.84,5.44-4.26,10.6-1.16,16.62,1.21,2.35.2,5.85-.85,8.88-.15-1.39-.37-2.78-.45-4.17-.08-1.44-.02-2.89-.41-4.4-1.3,2.16-3.05,3.93-2.72,6.79.21,1.81.83,3.87-1.05,5.6-1.61,1.47,1.08,2.14,1.1,3.28.1,5.22.04,10.45.04,15.67-.53-.02-1.07-.05-1.6-.07Z"/>
      <path class="cls-1" d="M44.13,79.07c-.26-2.72-.26-3.65-.26-5.22-1.13.91-1.63,1.32-2.16,1.75-.26-.24-.86-.58-.82-.77,1.09-4.66-2.47-8.05-3.61-12.06-1.12-3.92-.75-8.24-3.65-12.02-2.23-2.9-2.32-7.45-3.36-11.26,2.91-.71.94-3.05,1.51-4.54,3.16,2.79,3.08,7.07,4.32,10.59,2.7,7.69,5.62,15.28,8.49,22.9,1.54,4.08,3.87,8.09,3.92,12.76.01,1.26,1.17,2.51,1.85,3.85,5.48-4.71,7.94-10.93,10.92-16.88,1.73,9.68-5.62,15.96-9.27,24.03h-4.55c-2.24-4.64-4.55-9.4-7.21-14.91,1.76,0,2.7,0,3.89,1.79.84.72,1.32.19,1.21-.02-.37-.66-.96-1.19-1.46-1.77.14.99.28,1.98.26,1.79Z"/>
      <path class="cls-1" d="M30.26,39.48c-2.15-1.35-3.23-3.34-2.99-5.83.29-3.07-1.23-5.44-2.47-8.03-3.43-7.13-5.73-14.7-8.08-22.23-.14-.44.48-1.49.93-1.62.55-.16,1.66.17,1.89.62,2.04,3.91,4.34,7.75,5.79,11.89,1.77,5.05,3.61,10.03,5.83,14.91.76,1.67.44,3.83.61,5.77-2.91.71-.94,3.05-1.51,4.54Z"/>
      <path class="cls-1" d="M61.54,66.77c.86-3.84.91-7.38,2.42-10.11,2.74-4.96,4.46-10.2,6.26-15.49,1.72-5.04,3.83-9.95,5.79-14.96,2.99,2.36,2.39,5.01,1.1,8.07-3.16,7.47-6.06,15.05-9.04,22.59-1.28,3.23-2.46,6.51-3.77,9.73-.08.19-.93.07-2.76.17Z"/>
      <path class="cls-1" d="M8.46,72.87c.18.18.5.42.47.48-.18.33-.44.61-.67.91-.22-.22-.45-.45-.67-.67.29-.24.59-.48.88-.71Z"/>
    </g>
  </g>
</svg>