<?xml version="1.0" encoding="UTF-8"?>
<svg id="_레이어_2" data-name="레이어 2" xmlns="http://www.w3.org/2000/svg" viewBox="0 0 92.95 100">
  <defs>
    <style>
      .cls-1 {
        fill: #fff;
        stroke-width: 0px;
      }
    </style>
  </defs>
  <g id="_레이어_1-2" data-name="레이어 1">
    <g>
      <path class="cls-1" d="M39.62,61.48c.34.03-.1.03-.53.03,0-1.5-.61-3.77.12-4.35,1.61-1.27-.16-2.34.38-3.37.2-.38.16-.9.22-1.35-.42-.02-1.16-.18-1.21-.05-1.22,2.94-5.3,5.06-2.74,9.12h3.23c-.01,1.78-1.39,1.09-2.31,1.33-1.16.3-2.27.77-3.41,1.12-2.02.63.8,4.54-2.6,4.02-3.04-.47-1.85,2.96-3.63,3.52-.38.12-.74.3-1.11.45.43-3.91,3.06-6.88,4.55-10.33.78-1.81,2.26-3.32,3.43-4.96-1.84-3.26-3.6-6.39-4.99-10.12.13-.4-.13-.19-.38.02.19.19.39.39.58.58.2-.26.43-.5.58-.79.03-.05-.25-.26-.78.19-3.27.91-5.25-1.22-5.37-3.21-.14-2.37-2.51-2.54-2.6-3.35-.29-2.88-4.74-1.93-4.25-5.34.39-2.7-3.49-3.27-3.71-5.49-.25-2.54-2.86-1.31-3.55-2.98-.61-1.47-1.85-2.67-2.63-4.09-.37-.68-.33-1.58-.48-2.38,2.66-.22,4.68,1.5,6.61,2.74,2.46,1.57,4.82,2.91,7.77,3.4-1.19.22-2.37.43-3.66.67,1.51,2.94,2.99,5.83,4.46,8.7,2.26-2.45,2.41.15,3.1,1.77,0,.1,0-.1,0-.29-.34.12-.72.19-.99.39-.08.06.14.52.22.79.26-.2.52-.4.77-.89,2.48,0,.66,2.2,1.73,3.43,3.22-.99,3.83,4.13,7.4,2.99-.4.94-1.04,1.93-.87,2.1,2.77,2.73,2.79,2.7,3.96,5.38,1.59-1.24,3.17-2.49,4.76-3.73-.71,2.81,1.06,2.8,3.2,2.58,1.5-2.87,3.36-5.75,4.57-8.88,2.69-6.92,7.5-11.81,13.59-15.76,7.68-4.99,7.34-6.61,11.26-13.33,1.11-1.9,1.85-4.01,2.91-5.94.21-.38,1.09-.4,2.27-.77-.74,5.6,1.67,10.29,2.89,15-3.41,2.53-6.57,4.85-9.67,7.22-.45.35-.84.97-.96,1.53-.52,2.4-.94,4.83-1.39,7.22,2.59,1.94,3.78.62,4.72-2.51.35,1.3.53,1.99.72,2.7,1.18,1.18,5.14-4.64,6.37-9.38.15-.58.22-1.18.64-1.7,1.15,5.83.84,10.83-3.84,15.82-4.51,4.81-9.44,9.34-13.44,14.55-5.42,7.07-11.72,13.48-16.21,21.24-4.03,2.77-4.74,8.26-8.93,10.89.31-3.91,3.29-6.69,4.37-10.27.4-1.33.58-2.73,1.24-4.7.13-.4-.13-.19-.38.02.19.19.39.39.58.58.2-.26.43-.5.58-.79.03-.05-.25-.26-.78.19-5.64,2.5-5.09,3.56-9.52-2.01.11-1.95,1.62-1.11,2.83.24.72.62,1.14.16,1.04-.01-.32-.57-.83-1.03-1.26-1.53.12.85.25,1.71.22,1.55.48-2.46,1.19-3.36,1.87-4.3.83-1.15,1.03-2.14-.78-2.47,0-.87,0-1.74-.77-2.65,2.51.11,4.07.04,3.02-2.48-1.04.67-1.97,1.27-3.02,2.48ZM61.34,33.96c-.93.18-1.78.35-1.88.37.3.79.64,1.68.98,2.58.24-.17.48-.34.72-.5.06-.77.11-1.54.88-3.51-.25.2-.51.41-.76.62.19.19.39.39.58.58.2-.26.43-.5.58-.79.03-.05-.25-.26-1.11.65ZM56.13,42.17c1.18-1.82,1.78-2.75,2.45-3.79-2.53-1.06-2.6.51-2.52,2.83v-.58c-.34.12-.72.19-.99.39-.08.06.14.52.22.79.26-.2.52-.4.84.36ZM47.16,68.94c-.32-2.36-.48-3.52-.68-5.01-.99.99-1.58,1.58-2.17,2.17.59.59,1.18,1.18,2.85,2.85ZM66.18,24.95h-.65v2.61h.65v-2.61ZM44.5,61.98c.15.27.31.56.46.84.15-.15.43-.32.41-.43-.07-.31-.26-.59-.41-.88-.15.15-.29.29-.46.46Z"/>
      <path class="cls-1" d="M86.03,36.21c1.38-1.1,2.88-2.31,4.23-3.38-.7-6.47-1.33-12.29-2-18.53-1.38.57-2.62,1.09-4.24,1.76-.94-2.6-.41-5.15-.5-7.62-.09-2.59-.02-5.18-.02-8.43,1.55.37,3.11.33,4.07,1.07,2.19,1.67,3.71,3.98,3.75,6.87.07,5.87-.08,11.75.07,17.61.06,2.23-.98,4.68,1.17,6.72.54.51.51,2.37,0,3.13-2.11,3.17-1.14,6.63-1.19,9.95-.13,9.57-.13,19.14,0,28.7.04,2.66-.69,5.37,1.07,8.06.64.99-.48,3.6-1.44,5.06-1.72,2.62-3.8,5.03-5.95,7.32-2.39,2.55-5.62,2.44-8.8,2.25-.8-5.43-.71-6.97,2.57-11.47,1.49-2.04-.61-4.92,2.05-6.36,2.14-7.45,3.92-14.97,5.49-22.57,1.11-5.37.66-10.57.96-15.83.07-1.32-.78-2.68-1.3-4.31Z"/>
      <path class="cls-1" d="M21.75,100c-3.17-4.84-2.56-8.45,1.16-11.05,1.7-1.18,3.43-2.32,5.38-3.64.81,2.29.45,4.16-1.51,6.34-2,2.22-3.18,5.18-5.03,8.35Z"/>
      <path class="cls-1" d="M6.43,20.42c-2.31-2.32-4.09-3.87-5.53-5.69C.22,13.88.16,12.5,0,11.34c-.01-.11,1.3-.42,2.02-.58.11-.02.41.26.43.43.31,2.99,2.75,4.8,3.97,7.28.17.34.02.84.02,1.96Z"/>
      <path class="cls-1" d="M26.12,71.7c-.68,2.83-1.3,5.4-2.2,9.15-.53-4.09-1.7-7.08,2.2-9.15Z"/>
      <path class="cls-1" d="M31.25,75.89c-.87.87-1.74,1.74-2.61,2.61-.4-2.14.47-3.01,2.61-2.61Z"/>
      <path class="cls-1" d="M33.86,73.27c-.87.87-1.74,1.74-2.61,2.61v-2.61h2.61Z"/>
      <path class="cls-1" d="M78.53,30.79c-.2.09-.67.29-1.13.48-.15-.36-.48-.77-.4-1.06.11-.42.53-.76.82-1.13.15.36.3.72.71,1.72Z"/>
      <path class="cls-1" d="M43,44.54c-.2.99.65,2.5-1.31,2.61.2-.99-.65-2.5,1.31-2.61Z"/>
      <path class="cls-1" d="M40.39,88.22c-.26.2-.52.4-.77.6-.08-.27-.3-.73-.22-.79.27-.21.65-.27.99-.39,0,.19,0,.39,0,.58Z"/>
      <path class="cls-1" d="M27.33,80.39c-.26.2-.52.4-.77.6-.08-.27-.3-.73-.22-.79.27-.21.65-.27.99-.39v.58Z"/>
      <path class="cls-1" d="M27.33,79.8c.44-.44.87-.87,1.31-1.31-.44.44-.87.87-1.31,1.31Z"/>
      <path class="cls-1" d="M33.86,73.27c.44-.44.87-.87,1.31-1.31-.44.44-.87.87-1.31,1.31Z"/>
      <path class="cls-1" d="M30.67,73.27c-.2-.26-.4-.52-.6-.77.27-.08.73-.3.79-.22.21.27.27.65.39.99-.19,0-.39,0-.58,0Z"/>
      <path class="cls-1" d="M35.17,71.97c.44-.44.87-.87,1.31-1.31-.44.44-.87.87-1.31,1.31Z"/>
      <path class="cls-1" d="M31.71,70.47c-.17-.17-.32-.32-.46-.46.29-.15.57-.34.88-.41.11-.02.28.26.43.41-.28.16-.57.31-.84.46Z"/>
      <path class="cls-1" d="M36.47,66.02c-.26.2-.52.4-.77.6-.08-.27-.3-.73-.22-.79.27-.21.65-.27.99-.39,0,.19,0,.39,0,.58Z"/>
      <path class="cls-1" d="M40.39,64.71c-.26.2-.52.4-.77.6-.08-.27-.3-.73-.22-.79.27-.21.65-.27.99-.39,0,.19,0,.39,0,.58Z"/>
      <path class="cls-1" d="M37.23,64.24c.15.15.43.36.4.41-.15.28-.38.53-.58.79-.19-.19-.39-.39-.58-.58.25-.21.51-.41.76-.62Z"/>
      <path class="cls-1" d="M43,44.54c.44-.44.87-.87,1.31-1.31-.44.44-.87.87-1.31,1.31Z"/>
      <path class="cls-1" d="M45.07,42.04c.15.15.43.36.4.41-.15.28-.38.53-.58.79-.19-.19-.39-.39-.58-.58.25-.21.51-.41.76-.62Z"/>
      <path class="cls-1" d="M72.39,34.09c.15.29.34.57.41.88.02.11-.26.28-.41.43-.15-.29-.34-.57-.41-.88-.02-.11.26-.28.41-.43Z"/>
    </g>
  </g>
</svg>