<?xml version="1.0" encoding="UTF-8"?>
<svg id="_레이어_2" data-name="레이어 2" xmlns="http://www.w3.org/2000/svg" viewBox="0 0 113.15 100">
  <defs>
    <style>
      .cls-1 {
        fill: #fff;
        stroke-width: 0px;
      }
    </style>
  </defs>
  <g id="_레이어_1-2" data-name="레이어 1">
    <g>
      <path class="cls-1" d="M112.74,92.85c-2.81-1.95-4.56-2.59-5.41-3.84-9.1-13.46-18.64-26.63-26.58-40.88-5.21-9.35-15.73-18.38-26.34-27.21-4.35-3.62-8.98-8.63-7.43-15.75,7.22-.06,11.95,5.63,18.13,8.06,2.93,1.15,5.21,4.61,7.18,7.44,3.79,5.42,7.86,10.83,10.5,16.83,2.77,6.26,7.86,10.68,11.12,16.54,2.56,4.62,7.51,7.92,12.41,12.83V.17h6.41c0,4.59-.91,9.35.26,13.52,1.13,3.99-6.02,7.38-.26,11.03-.71,4.3-1.71,8.57-2.05,12.9-.36,4.56-.08,9.18-.08,13.77s-.04,9.18.01,13.77c.05,4.05.41,7.89,1.81,11.94,1.4,4.06.31,8.99.31,15.74Z"/>
      <path class="cls-1" d="M54.86,100c-5.12-1.01-8.2-2.85-8.76-8.18-.4-3.83-2.95-7.43-3.36-11.25-1.11-10.5-3.43-20.39-10.71-28.5-2.79-12.66-11.62-22.75-14.99-35.18-.42-1.53-1.86-2.79-3.62-5.31-.25,3.09-.75,5.04-.49,6.88,1.41,10.14-2.8,19.84-2.18,29.9-4.59,5.79.33,13.64-4.18,19.51-.51.67-.25,2.11-.04,3.12.61,2.91,2.63,6.26,1.76,8.55-1.14,3.02-4.51,5.19-7.34,8.17-.96-3.63-1.69-6.49.39-9.36.55-.75.78-1.84.87-2.8.76-8.19.46-16.63,2.41-24.52,2.3-9.32.33-18.8,2.23-27.75C8.5,15.51,7.92,7.7,8.93.04c4.57-.47,6.66,2.88,7.81,5.16,5.58,11.09,13.12,21.34,15.37,33.97.11.64,2.08.95,3.4,1.5,1.04-5.25,2.28-9.79,2.75-14.41.45-4.44.1-8.97,1.38-13.47.99,7.25,2.84,14.5,2.74,21.73-.11,8.02,1.06,15.78,2.48,23.5,1.31,7.1,4.63,13.91,5.35,21.01.72,7.13,6.09,13.25,4.64,20.95Z"/>
      <path class="cls-1" d="M104.24,26.53c-.47.24-.93.55-1.43.66-.18.04-.46-.43-.7-.66.47-.24.93-.55,1.43-.66.17-.04.46.43.7.67Z"/>
    </g>
  </g>
</svg>