<?xml version="1.0" encoding="UTF-8"?>
<svg id="_레이어_2" data-name="레이어 2" xmlns="http://www.w3.org/2000/svg" viewBox="0 0 85.97 100">
  <defs>
    <style>
      .cls-1 {
        fill: #fff;
        stroke-width: 0px;
      }
    </style>
  </defs>
  <g id="_레이어_1-2" data-name="레이어 1">
    <g>
      <path class="cls-1" d="M21.28,25.26c-.08-4.94-2.99-6.98-3.65-9.93-.3-1.35-.45-2.72.2-4.3,12.4,24.43,24.81,48.86,37.39,73.66,2.05-6.69,4.07-13.28,6.09-19.88,1.92-6.24,4.27-12.32,4.31-19.06.02-2.63,1.94-5.18,2.58-7.87,1.11-4.65,1.84-9.4,2.84-14.08,1.26-5.91,2.63-11.8,3.95-17.65,3.97-1.78,6.75,1.08,10.98,1.37-1.55,1.78-2.35,2.81-3.28,3.73-2.13,2.12-2.92,4.63-3.49,7.61-.76,4.02-1.1,8.13-2.53,12.08-1.95,5.44-2.88,11.22-5.21,16.56-1.15,2.63.56,5.89-1.83,8.25.13,5.35-1.48,10.38-2.72,15.5-1.16,4.82-2.94,9.55-3.89,14.27-1.08,5.41-3.76,9.6-6.17,14.5-1.85-1.01-2.82-2.18-2.42-4.28q1.38-1.71.09-4.01c0,1.56,0,2.84-.09,4.01-1.03.6-1.98,1.09-3,1.62-4.98-3.02-6.37-8.37-7.84-13.17-2.58-8.47-6.12-16.44-9.99-24.35-1.2-2.46-2.93-4.67-3.12-7.79-.13-2.13-1.8-4.4-3.29-6.18-4.79-5.73-7.13-12.94-11.7-18.79-.65-.83-.77-2.2-1.54-2.79-4.15-3.18-5.37-7.87-6.84-12.48-.39-1.22-1.08-2.34-2.05-4.4-1.08,3.55-.74,6.24-.65,8.84.1,2.85-.29,5.61,1.06,8.58.85,1.88-.97,4.97-1.66,7.77,1.83,1.47,3.44,2.76,3.93,3.15,2.84,13.48,2.03,25.83,2.23,38.14.03,1.9,1.46,3.87,1.21,5.66-.58,4.03-1.81,7.97-2.82,12.13-1.17,0-2.07.09-2.94-.02-2.75-.33-3.73-1.19-3.82-3.62-.41-10.69-2.27-21.31-1.38-32.05.27-3.29,1.09-6.55,1.31-9.84.23-3.46-.66-7.12.19-10.37,2.42-9.28.64-18.63,1.24-27.92.09-1.38.07-2.78,0-4.16C2.86,1.45,4.13.32,6.1.05c2.09-.29,3.41.75,3.85,2.89.39,1.91.87,3.79,1.38,5.67.91,3.37,1.35,7.08,4.63,9.16,2.33,1.48,1.93,5.19,5.32,7.49.77.66,1.21.17,1.11-.01-.34-.6-.88-1.1-1.34-1.63.13.91.26,1.81.24,1.64ZM12.09,18.06h.62c-.13-.36-.2-.76-.42-1.05-.07-.09-.55.14-.84.23.21.27.43.55,2.54,1.63-.22-.27-.44-.54-.66-.81-.21.21-.41.41-.62.62.27.21.53.45.84.62.05.03.28-.27-1.45-1.24ZM16.68,23.12c-.16-.29-.33-.59-.49-.89-.15.15-.46.34-.43.46.07.33.28.62.43.93.15-.15.31-.31.49-.49Z"/>
      <path class="cls-1" d="M79.45,33.14c2.58,1.45,2.74,3.32,2.72,5.45-.08,10.39.16,20.79-.11,31.18-.17,6.36,2.51,12.44,1.48,18.83-.14.86-.02,1.77-.02,4.47-1.47-2.54-2.63-3.65-2.7-4.82-.6-10.42-.93-20.86-1.51-31.29-.18-3.29-1.06-6.53-1.29-9.82-.23-3.22-.19-6.47.02-9.69.09-1.43.9-2.81,1.41-4.31Z"/>
    </g>
  </g>
</svg>