<?xml version="1.0" encoding="UTF-8"?>
<svg id="_레이어_2" data-name="레이어 2" xmlns="http://www.w3.org/2000/svg" viewBox="0 0 114.34 100">
  <defs>
    <style>
      .cls-1 {
        fill: #fff;
        stroke-width: 0px;
      }
    </style>
  </defs>
  <g id="_레이어_1-2" data-name="레이어 1">
    <path class="cls-1" d="M23.09,42.81c-2.25,18.36-4.5,36.73-6.79,55.46H0C4.53,65.47,8.97,33.29,13.41,1.11c.85-.31,1.71-.62,2.56-.93,2.07,2.75,4.56,5.29,6.15,8.3,10.18,19.29,20.17,38.69,30.85,59.26,2.09-3.64,3.77-6.56,5.43-9.48,9.67-17,19.25-34.04,29.07-50.95,1.59-2.74,4.21-4.88,6.35-7.3,1.03.28,2.06.55,3.09.83,5.77,32.31,11.55,64.63,17.42,97.52h-16.5c-3.26-20.98-6.56-42.17-9.86-63.36-.63-.14-1.27-.29-1.9-.43-10.74,21.2-21.48,42.41-33.15,65.44-10.12-20.41-19.29-38.92-28.47-57.44-.45.08-.9.17-1.36.25Z"/>
  </g>
</svg>