<?xml version="1.0" encoding="UTF-8"?>
<svg id="_레이어_2" data-name="레이어 2" xmlns="http://www.w3.org/2000/svg" viewBox="0 0 92.96 100">
  <defs>
    <style>
      .cls-1 {
        fill: #fff;
        stroke-width: 0px;
      }
    </style>
  </defs>
  <g id="_레이어_1-2" data-name="레이어 1">
    <path class="cls-1" d="M24.44,0c4.37,9.14,8.93,18.2,13.07,27.44,4.12,9.19,7.82,18.56,12.2,29.03,7.79-19.35,15.04-37.36,22.28-55.36.78.02,1.57.04,2.35.07,7.27,32.2,11,65.1,18.62,97.94-6.04.29-11.54.55-18.19.87-2.06-15.02-4.09-29.88-6.4-46.8-2.86,3.68-5.42,5.84-6.51,8.59-3.34,8.42-6.02,17.09-9.16,25.6-.79,2.14-2.31,4.02-3.49,6.02-.73-.05-1.46-.11-2.19-.16-5.13-13.26-10.27-26.52-15.4-39.78-.6-.04-1.21-.08-1.81-.12-2.33,15.27-4.66,30.54-7.12,46.65H0C7.49,65.93,14.71,33.13,21.92.34c.84-.11,1.68-.22,2.52-.34Z"/>
  </g>
</svg>