<?xml version="1.0" encoding="UTF-8"?>
<svg id="_레이어_2" data-name="레이어 2" xmlns="http://www.w3.org/2000/svg" viewBox="0 0 151.63 100">
  <defs>
    <style>
      .cls-1 {
        fill: #fff;
        stroke-width: 0px;
      }
    </style>
  </defs>
  <g id="_레이어_1-2" data-name="레이어 1">
    <path class="cls-1" d="M42.57,20.27c5.87-7.15,13.43-11.36,21.04-15.49,3.01-1.63,6.31-2.59,9.67-2.75,6.8-.31,12.09,2.63,15.52,8.49,1.98,3.39,2.79,7.25,3.26,11.14.06.52.02,1.08.17,1.57.14.46.47.86.72,1.29.4-.29.92-.5,1.17-.89,1.55-2.39,2.97-4.86,4.56-7.22,2.97-4.4,6.35-8.41,10.74-11.53,11.99-8.53,27.09-3.71,33.28,8.11,1.28,2.45,1.96,5.08,2.12,7.87.75,13.21.15,26.43.01,39.64-.09,8.99-.03,17.98-.04,26.97,0,.74.01,1.48.06,2.22.24,3.71,1.78,6.43,5.59,7.54.47.14.79.79,1.18,1.2-.48.31-.94.67-1.46.91-.26.12-.62.04-.94.05-10.89.2-21.78.56-32.67.57-34.8.05-69.6-.03-104.4-.05-2.64,0-5.29.06-7.93.07-.74,0-1.49-.01-2.2-.17-.35-.08-.91-.58-.86-.75.12-.43.45-1,.83-1.13,1.58-.56,3.29-.82,4.82-1.49,4.57-2.01,6.95-5.31,6.92-10.6-.16-22.85-.09-45.69-.14-68.54,0-1.79-.28-3.57-.37-5.36-.22-4.04-2.79-6.25-6.17-7.65-1.73-.71-3.66-.91-5.49-1.41-.55-.15-1.04-.51-1.56-.77.5-.27.99-.71,1.52-.77,2.62-.28,5.27-.32,7.88-.69C15.28-.17,21.2-.02,27.11.07c5.28.08,10.55.44,15.83.61,1.27.04,1.7.55,1.53,1.75-.26,1.88-.5,3.76-.73,5.64-.4,3.24-.8,6.48-1.16,9.72-.09.81-.01,1.64-.01,2.47ZM41.26,59.55h.02c0,7.94.04,15.87-.02,23.81-.03,3.76,1.32,7.07,3.37,10.04.9,1.3,2.43,2.48,3.93,3.01,6.19,2.19,9.87,1.07,14.82-3.88,1.71-1.7,2.4-3.81,2.41-6.31.05-15.02.28-30.04.33-45.06.02-6.24-.14-12.48-.43-18.71-.1-2.18-.63-4.39-1.33-6.47-.79-2.37-2.99-3.42-5.34-2.53-1.94.74-3.83,1.77-5.49,3.01-3.96,2.96-6.34,7.3-9.32,11.13-2.21,2.84-2.98,5.93-2.96,9.42.06,7.51.02,15.02.02,22.54ZM117.17,56.8c0-10.16,0-20.32,0-30.47,0-3.55-.88-6.9-2.61-9.99-1.53-2.73-4.04-3.45-6.7-1.84-1.34.81-2.51,1.93-3.63,3.04-3.61,3.62-6.28,7.91-8.84,12.32-1.39,2.4-2.1,4.74-2.09,7.47.06,15.02.03,30.05.08,45.07,0,2,.33,4,.43,6,.11,2.2,1.39,3.67,2.91,5.06,3.44,3.15,7.6,3.6,11.89,2.92,6.24-.98,8.56-3.87,8.56-10.08,0-9.84,0-19.68,0-29.52Z"/>
  </g>
</svg>