<?xml version="1.0" encoding="UTF-8"?>
<svg id="_레이어_2" data-name="레이어 2" xmlns="http://www.w3.org/2000/svg" viewBox="0 0 62.95 100">
  <defs>
    <style>
      .cls-1 {
        fill: #fff;
        stroke-width: 0px;
      }
    </style>
  </defs>
  <g id="_레이어_1-2" data-name="레이어 1">
    <path class="cls-1" d="M48.51,50.52c-1.64.9-2.81,1.61-4.03,2.19-.97.47-2,1.1-3.02,1.12-6.92.1-13.84.05-21.28.05-2.02-6.64-4.19-13.78-6.34-20.84.27,21.55.54,43.18.81,65.13H0C.43,65.85.85,33.38,1.28.76h20.54c5.11,15.07,10.16,29.87,15.15,44.69,1.04,3.1,1.25,3.35,4.04,2.97,3.5-15.87,2.97-32.29,5.75-48.42h16.18v100h-15.39c.31-16.21.62-32.54.95-49.48Z"/>
  </g>
</svg>