<?xml version="1.0" encoding="UTF-8"?>
<svg id="_레이어_2" data-name="레이어 2" xmlns="http://www.w3.org/2000/svg" viewBox="0 0 88.82 100">
  <defs>
    <style>
      .cls-1 {
        fill: #fff;
        stroke-width: 0px;
      }
    </style>
  </defs>
  <g id="_레이어_1-2" data-name="레이어 1">
    <path class="cls-1" d="M40.81,99.02c-6.73-17.22-10.9-34.92-17.33-51.84-.47.07-.94.13-1.41.2-2.04,17.41-4.09,34.83-6.17,52.55H0C3.05,66.86,6.08,33.96,9.15.61h16.75c6.5,17.05,10.28,35.07,18.01,51.63.45-.03.9-.06,1.34-.09,5.39-17.26,10.78-34.52,16.29-52.15h11.63c3.82,33.41,8.66,66.76,15.64,100h-21.3c-2.83-14.9-5.69-29.93-8.54-44.97-4.01,15.41-9.37,30.33-18.17,43.99Z"/>
  </g>
</svg>