<?xml version="1.0" encoding="UTF-8"?>
<svg id="_레이어_2" data-name="레이어 2" xmlns="http://www.w3.org/2000/svg" viewBox="0 0 102.3 100">
  <defs>
    <style>
      .cls-1 {
        fill: #fff;
        stroke-width: 0px;
      }
    </style>
  </defs>
  <g id="_레이어_1-2" data-name="레이어 1">
    <g>
      <path class="cls-1" d="M80.32,45.22c-.52-.14-1.04-.29-1.56-.43.56-.63,1.01-1.45,1.7-1.87,2.31-1.41,2.62-2.16,1.55-4.53-.09-.19-.16-.48-.08-.64,1.06-2.2-.84-2.53-2.05-3.29,0,0,.05.05.05.05.14-.93.37-1.85.37-2.78,0-.28-.66-.55-1.02-.83-.21.16-.42.32-.63.47.54-4.69,1.07-9.38,1.61-14.06l-.38-.25c-.57.6-1.29,1.11-1.67,1.81-2.07,3.71-4.02,7.48-6.07,11.19-4.51,8.16-9.11,16.27-13.54,24.47-1.88,3.49-3.46,7.14-5.14,10.74-3.2,6.86-6.38,13.73-9.83,21.16-.76-1.57-1.34-2.52-1.7-3.55-3.28-9.28-6.56-18.57-9.75-27.88-1.55-4.53-2.79-9.16-4.44-13.65-.74-2.01-1.8-4.2-3.37-5.56-2.71-2.35-3.47-5.21-3.79-8.49-.11-1.11-.76-2.18-1.16-3.26-.15.09-.3.18-.45.27-.78,5.13-1.55,10.26-2.33,15.4l-.91-.03c-.05-1.5.07-3.04-.22-4.5-.21-1.08-.94-2.06-1.44-3.08-.63.44-1.26.89-2.18,1.53.73-1.58.77-2.72-.08-4.19-.87-1.5-.91-3.55-1.06-5.37-.37-4.48-.4-9.01-1.02-13.45-.13-.97-2.02-2.04-3.29-2.41-1.51-.44-3.23-.23-4.86-.21C.47,7.99-.05,7.63,0,6.43.08,4.66.02,2.87.02.89c1.37-.16,2.61-.3,3.85-.45.05.14.1.27.15.41-.78.34-1.56.69-2.52,1.11.54.75.99,1.37,1.52,2.12,1.64-.93,4.16-.77,3.62-4.01,1.54.12,2.94.34,4.33.32C16.91.31,22.85.21,28.79,0c1.46-.05,2.07.48,2.44,1.81,2.03,7.25,4.2,14.46,6.18,21.72,2.56,9.37,4.99,18.78,7.5,28.17.15.56.46,1.09.86,2.02.63-.77,1.13-1.2,1.4-1.74,8.06-16.11,16.11-32.23,24.09-48.37.8-1.62,1.47-2.81,3.64-2.66,3.73.25,7.49.24,11.24.2,4.58-.06,9.16-.19,13.73-.44,1.96-.11,2.42.68,2.42,2.47.02,4.8.1,4.84-4.61,5.32-1.27.13-2.54,1.59-3.87.12-.25.4-.8,1.01-.69,1.17.43.64,1.08,1.14,1.54,1.6,0,10.22.1,20.51-.02,30.8-.18,14.55-.56,29.1-.8,43.65-.07,4.46.85,5.4,5.37,5.57,1.45.05,2.25.41,2,2-.34,2.22-.67,4.43-.98,6.47h-30.91c-.8-2.47-1.46-4.48-2.14-6.6,1.32-.12,2.43-.09,3.48-.34,4.29-1,5.87-2.86,6-7.29.21-7.06.3-14.13.44-21.19.02-.78,0-1.57,0-2.66.75.89,1.24,1.48,1.85,2.21,1.44-2.09.66-3.46-.84-4.61.79-2.19,1.6-4.3,2.29-6.45.37-1.15,1.85-2.5-.29-3.48.68-1.41-.71-2.9.17-4.3.58.33,1.16.66,1.74.98l.49-.5c-.51-.67-1.01-1.33-1.52-2-.22.52-.44,1.04-.67,1.57ZM83.17,79.88c.11-2.03-.09-2.27-1.65-1.74.59.59,1.15,1.15,1.7,1.7.15,1.23.29,2.45.45,3.72,2.05-1.24,2.85-3.78,1.81-5.13-.78.49-1.54.97-2.3,1.45ZM82.21,68.34c-.16.03-.33.05-.49.08-.2.88-.81,1.92-.54,2.62.78,2.04.89,4.52,3.07,5.78.5.29,1.25.14,1.88.19-.1-.48-.06-1.06-.32-1.43-1.17-1.68-3.1-2.89-2.88-5.37.05-.59-.47-1.24-.72-1.86ZM80.75,62.96c.23.03.46.06.69.09.41-.76.83-1.52,1.34-2.44-.99-.17-1.62-.28-2.65-.46.25,1.13.44,1.97.63,2.82ZM81.62,59.2c-.77-.8-1.13-1.18-1.49-1.55-.39.4-.79.81-1.52,1.55h3.01ZM89.12,4.49c.27-.05.53-.11.8-.16-.12-.54-.22-1.08-.41-1.6-.02-.06-.53.06-.81.1.14.55.28,1.11.42,1.66ZM81.85,85c.01-.25.02-.5.04-.75-.46,0-.93-.01-1.39.03-.03,0,0,.47-.01.72h1.36ZM9.75,4.95c.25.13.49.26.74.39.19-.44.38-.89.58-1.33-.2-.1-.4-.2-.6-.3-.24.41-.47.82-.71,1.24ZM13.4,28.66c-.38-.33-.58-.64-.81-.66-.19-.02-.43.28-.64.45.18.23.33.58.56.66.18.06.47-.22.89-.45ZM12.36,25.19c-.22.45-.47.74-.43.95.05.22.4.38.61.57.18-.23.5-.46.51-.7,0-.21-.34-.43-.69-.83ZM80.45,55.33c-.25.43-.53.7-.49.92.03.21.4.36.62.54.18-.23.48-.45.5-.69.02-.19-.32-.41-.63-.77ZM81.95,35.18c.16.1.32.2.49.29.22-.32.44-.63.66-.95-.21-.11-.58-.33-.6-.31-.21.3-.37.63-.55.96ZM82.23,50.01c-.32.4-.58.6-.63.85-.03.15.29.53.42.52.26-.03.66-.22.71-.42.05-.2-.25-.5-.51-.95ZM96.74,3.35c-.28-.22-.47-.37-.67-.52-.16.25-.37.5-.44.77-.02.09.38.41.53.38.19-.04.33-.34.57-.62Z"/>
      <path class="cls-1" d="M21.86,42.57c.13.48.35.96.36,1.45.15,6.84.11,13.68.45,20.51.33,6.62.81,13.25,1.69,19.82.56,4.16,2.88,7.58,7.04,9.15,1.58.6,2.13,1.41,1.95,3-.11.94-.02,1.89-.02,3.35-1.59-.28-3.04-.62-4.52-.78-.76-.08-1.56.23-2.34.26-6.02.23-12.05.42-18.07.67-1.13.05-1.68-.41-1.69-1.51-.01-2.66,0-5.32,0-8.12,1.86,0,3.69.09,5.5-.02,3.07-.19,7.24-3.77,8.07-6.69.56-1.97,1.53-3.86,1.83-5.86.25-1.7-.27-3.51-.32-5.27-.2-8.01-.36-16.01-.52-24.02-.04-1.95,0-3.9,0-5.85.19-.03.39-.06.58-.1Z"/>
      <path class="cls-1" d="M12.62,36.25c-.06-.37-.11-.73-.17-1.1.12-.03.23-.05.35-.08.09.36.19.71.28,1.07-.15.04-.31.07-.46.11Z"/>
      <path class="cls-1" d="M79.89,34.45c-.2.33-.41.67-.61,1-.14-.15-.28-.3-.41-.45.36-.17.72-.33,1.08-.5,0,0-.05-.05-.05-.05Z"/>
      <path class="cls-1" d="M21.8,36.77c.09.14.18.28.27.43-.08-.16-.17-.32-.25-.47l-.02.05Z"/>
      <path class="cls-1" d="M78.95,32.76c-.01.17-.02.34-.04.51-.04,0-.08,0-.12,0,.01-.17.02-.34.03-.51.04,0,.08,0,.12,0Z"/>
      <path class="cls-1" d="M21.82,36.72s-.02-.09-.03-.14c-.02.02-.06.04-.06.05.02.05.05.09.07.13,0,0,.02-.04.02-.04Z"/>
    </g>
  </g>
</svg>