<?xml version="1.0" encoding="UTF-8"?>
<svg id="_레이어_2" data-name="레이어 2" xmlns="http://www.w3.org/2000/svg" viewBox="0 0 149.26 100">
  <defs>
    <style>
      .cls-1 {
        fill: #fff;
        stroke-width: 0px;
      }
    </style>
  </defs>
  <g id="_레이어_1-2" data-name="레이어 1">
    <path class="cls-1" d="M119.01.96c-4.22-.02-9.78-1.96-12.31.04-2.8,2.22-2.48,8.07-4.1,12.11-6.54,16.34-13.3,32.59-20.02,48.86-.29.71-.98,1.26-1.8,2.28-1.18-1.71-2.2-2.87-2.86-4.2-8.53-17.15-17.24-34.22-25.35-51.56-2.68-5.74-6.02-7.87-12.34-7.67C31.05,1.11,21.83.19,12.63.01,8.47-.07,4.31.36.14.56c-.05.94-.1,1.88-.14,2.82,2.59.5,5.18,1.41,7.77,1.4,5.19-.01,9.7,1.87,11.72,6.34,2.4,5.32,4.72,11.26,4.77,16.95.13,16.47-1.41,32.96-1.21,49.42.09,6.97-2.56,11.4-7.29,15.49-1.63,1.4-3.06,2.26-4.33,2.58.07,1.48.15,2.96.25,4.44,7.39-.01,14.78-.04,22.17-.09,2.65-.02,5.29-.93,7.93-1.42.48-.56.97-1.11,1.45-1.67-14-6.26-10.83-17.98-10.95-28.65-.03-2.93-.23-5.88.04-8.79.67-7.34,1.56-14.66,2.24-20.84,3.42,6.05,6.96,12.31,10.5,18.57-.03-.16-.07-.32-.1-.49.07.1.13.21.21.3,1.1,1.75,2.2,3.5,3.29,5.26.14-.1.27-.19.31-.22h0s0,0,0,0c-.02.06-.1.24-.18.44-.04-.07-.09-.14-.13-.21-.01,0-.03.02-.04.03.95,1.28,1.89,2.56,2.84,3.83l-.16.17c1.53.81,3.37,1.31,4.5,2.49,1.55,1.61,2.57,3.74,3.82,5.65,1.29,1.53,2.59,3.06,3.89,4.58-.2.3-.4.59-.6.89-1.08-.44-2.15-.89-3.23-1.33,2.93,5.86,5.49,11.96,8.96,17.48,2.62,4.16,6.37,3.3,8.42-1.26,8.29-18.43,16.56-36.87,24.96-55.26.76-1.66,2.4-2.92,4.85-5.81,0,18.24-.14,34.23.07,50.23.08,6.15.32,11.85-7.89,12.72-.59.06-1.02,1.59-1.88,3.06h44.93c-.43-1.45-.56-3.51-1.15-3.65-7-1.64-5.72-7.12-5.64-11.9.38-21.61.96-43.21,1.29-64.82.18-12.14,1.54-14.08,12.86-14.03V1.07c-10.08-.03-20.17-.07-30.25-.11Z"/>
  </g>
</svg>