<?xml version="1.0" encoding="UTF-8"?>
<svg id="_레이어_2" data-name="레이어 2" xmlns="http://www.w3.org/2000/svg" viewBox="0 0 87.71 100">
  <defs>
    <style>
      .cls-1 {
        fill: #fff;
        stroke-width: 0px;
      }
    </style>
  </defs>
  <g id="_레이어_1-2" data-name="레이어 1">
    <path class="cls-1" d="M15.88,33.28v60.94c-5.62-.3-10.77-.57-15.88-.84V.03C1.86.03,3.46-.05,5.05.04c4.64.26,9.28.63,13.93.87,2.31.12,3.12,1.79,3.88,3.5,2.99,6.72,6.02,13.42,8.87,20.2,4.7,11.21,9.27,22.48,13.9,33.73.25.61.61,1.18,1.16,2.23,1.97-5.43,3.73-10.41,5.58-15.35,5.01-13.39,9.98-26.81,16.66-39.5.36-.69,1.74-1.3,2.57-1.21,5.31.56,10.61,1.32,16.1,2.05v93.44c-5.59-.67-11.02-1.31-16.69-1.99v-49.77c-.2-.06-.41-.11-.61-.17-.63,1.45-1.31,2.88-1.89,4.34-4.42,11.03-8.84,22.06-13.22,33.11-1.2,3.02-2.3,6.07-3.35,9.14-.56,1.64-1.58,2.07-3.19,1.81-2.14-.35-4.32-.47-6.44-.92-.63-.13-1.34-.95-1.59-1.62-3.22-8.62-6.27-17.3-9.54-25.9-3.96-10.4-8.07-20.74-12.17-31.09-.54-1.37-1.44-2.61-2.17-3.91-.32.08-.64.15-.96.23Z"/>
  </g>
</svg>