<?xml version="1.0" encoding="UTF-8"?>
<svg id="_레이어_2" data-name="레이어 2" xmlns="http://www.w3.org/2000/svg" viewBox="0 0 56.91 100">
  <defs>
    <style>
      .cls-1 {
        fill: #fff;
        stroke-width: 0px;
      }
    </style>
  </defs>
  <g id="_레이어_1-2" data-name="레이어 1">
    <path class="cls-1" d="M1.23,76.94c-.37-.56-1.04-1.11-1.05-1.67-.07-4.89-.42-9.82.08-14.66.97-9.42,3.01-18.67,5.59-27.8.57-2.03.89-4.13,1.51-6.14.71-2.34,2.84-2.94,4.96-3.6,2.21.96,2.97,2.68,2.93,5.11-.14,10.15,1.06,20.19,2.8,30.17.38,2.19.51,4.43.83,7.3.92-1.03,1.66-1.57,2.01-2.29,2.78-5.7,5.17-11.62,8.3-17.12,3.89-6.84,8.41-13.33,12.58-20.03.66-1.07,1.06-2.37,1.3-3.62.43-2.21.76-4.45.91-6.7.33-4.89.51-9.79.77-14.68.02-.4.19-.79.87-1.22.18.85.44,1.69.53,2.55.78,7.38,1.05,14.93,3.75,21.87,2.06,5.28,3.66,10.65,5.03,16.09,1.01,4,1.55,8.14,1.95,12.26.19,1.95-.55,3.98-.68,5.98-.41,6.27-3.38,11.71-5.49,17.44-.64,1.75-1.78,3.32-1.29,5.37.1.44-.3,1.3-.7,1.5-2.51,1.26-2.3,3.65-2.55,5.83-.43,3.75-.75,7.53-3.68,10.38-.36.35-.9.51-1.3.73.93-5.48,1.61-10.87,2.82-16.14.74-3.24,2.31-6.28,3.45-9.43,1.08-3,1.87-6.13,3.15-9.04,2.2-5,1.5-10.01.31-14.96-1.21-5.04-2.86-9.97-4.25-14.96-.59-2.13-1.01-4.32-1.57-6.75-2.36,3.97-4.61,7.76-6.89,11.54-.66,1.1-1.22,2.39-2.18,3.17-1.96,1.6-2.88,3.94-3.94,5.95-3.95,7.5-7.35,15.28-11.04,22.91-.79,1.64-1.93,3.12-3.29,5.28-.87-1.32-1.65-1.98-1.76-2.74-1.05-7.26-2.11-14.52-2.91-21.81-.69-6.27-1.05-12.57-1.57-18.86-.05-.56-.2-1.11-.81-1.76-.22.55-.49,1.08-.64,1.65-1.58,6.15-3.61,12.18-4.23,18.56-.65,6.62-1.37,13.24-2.19,19.85-.19,1.55-.94,3.02-1.43,4.53-.33-.01-.66-.03-.99-.04Z"/>
  </g>
</svg>