<?xml version="1.0" encoding="UTF-8"?>
<svg id="_레이어_2" data-name="레이어 2" xmlns="http://www.w3.org/2000/svg" viewBox="0 0 130.95 100">
  <defs>
    <style>
      .cls-1 {
        fill: #fff;
        stroke-width: 0px;
      }
    </style>
  </defs>
  <g id="_레이어_1-2" data-name="레이어 1">
    <g>
      <path class="cls-1" d="M35.49,20.16V2.42C67.19-.24,98.59-.68,130.95.97v96c-4.95.94-9.57,1.83-15.87,3.03-1.16-13.56-.41-26.31-.54-38.99-.13-12.83-.03-25.67-.03-39.69-26.47-2.62-52.39-1.23-79.01-1.15Z"/>
      <path class="cls-1" d="M6.45,4.84h18.17c-2.35,31.46,2.53,61.93-1.92,93.3H2.03c-1.33-9.46-4.54-18.13,1.64-27.03,2.04-2.94,1.68-7.79,1.76-11.79.27-13.72.22-27.44.38-41.16.04-3.95.38-7.89.65-13.32Z"/>
      <path class="cls-1" d="M56.97,96.68c-6.71.75-12.13,1.36-19.01,2.14-.82-23.81,3.29-46.24,3.76-69.64,4.91-1.08,9-1.98,14.18-3.12,4.06,12.39.46,23.94.96,35.24.51,11.49.11,23.01.11,35.38Z"/>
    </g>
  </g>
</svg>