<?xml version="1.0" encoding="UTF-8"?>
<svg id="_레이어_2" data-name="레이어 2" xmlns="http://www.w3.org/2000/svg" viewBox="0 0 185.71 100">
  <defs>
    <style>
      .cls-1 {
        fill: #fff;
        stroke-width: 0px;
      }
    </style>
  </defs>
  <g id="_레이어_1-2" data-name="레이어 1">
    <path class="cls-1" d="M185.71,85.24c-1.3.99-2.55,2.05-3.91,2.96-2.71,1.81-5.39,3.68-8.25,5.23-1.44.78-3.28,1.33-4.88,1.22-10.28-.72-20.16,1.19-30.01,3.8-7.71,2.04-11.82.28-15.68-6.65-2.24-4.02-4.98-1.98-7.58-1-7.43,2.82-14.62,6.43-22.25,8.46-5.83,1.56-11.72.51-17.89-1.87-8.1-3.12-12.16-9.16-16.49-15.57-.91-1.35-2.12-2.5-3.4-3.98-3.46,3.65-3.63,7.7-1.6,10.94,1.78,2.84,5.19,4.66,8.13,7.14-.14,2.11-1.31,3-4.14,2.98-17.9-.07-35.8.04-53.7.28-2.06.03-3.76.56-3.97-2.23-.18-2.38-.39-4.31,3.01-4.99,6.54-1.3,8.96-4.7,9.12-11.51.3-12.61.75-25.22.83-37.82C13.17,21.6,28.09,3.94,44.69.62c5.69-1.14,11.98-.56,17.78.47,7.06,1.25,13.89,2.71,21.17,1.49,10.41-1.75,22.92,5.75,26.95,15.57.57,1.38,1.33,2.69,1.99,4.03.49-.06.98-.12,1.47-.17,0-4.32,0-8.65,0-12.97,0-5.54.11-5.89,5.81-5.74,9.51.24,19.11-1.43,28.38,2.84,10.73,4.94,16.29,13.55,17.42,24.58,1.51,14.67,1.85,29.47,2.49,44.22.34,7.78,4.6,13.58,13.74,10.03,1.02-.4,2.15-.52,3.22-.76.2.35.39.7.59,1.04ZM86.98,93.41c-6.85-2.85-9.34-8.05-10.65-13.67-1.13-4.84-1.8-9.92-1.71-14.88.28-14.34,2.43-28.39,6.97-42.09,2.41-7.29.6-10.25-6.66-12.29-4.05-1.14-8.06-.73-10.9,2.91-1.92,2.46-3.69,5.07-5.31,7.74-3.93,6.48-4.1,13.94-4.59,21.11-.64,9.37-.45,18.8-.31,28.21.03,1.83,1.04,4.02,2.31,5.39,4.63,5,9.2,10.18,14.49,14.41,4.24,3.39,9.37,6.07,16.37,3.15ZM116.7,54.36c-.73,8.75-1.33,17.43-2.23,26.08-.39,3.71,2.46,3.42,4.36,3.69.67.09,2.37-2.2,2.42-3.45.25-6.93.25-13.88.1-20.82-.06-2.71-1.2-5.01-4.65-5.5ZM112.63,47.67v-14.65c-1.79,1.88-3.34,2.84-3.85,4.2-.77,2.07-.83,4.4-1.14,6.63-.45,3.19.46,5.05,4.99,3.82Z"/>
  </g>
</svg>