<?xml version="1.0" encoding="UTF-8"?>
<svg id="_레이어_2" data-name="레이어 2" xmlns="http://www.w3.org/2000/svg" viewBox="0 0 153.31 100">
  <defs>
    <style>
      .cls-1 {
        fill: #fff;
        stroke-width: 0px;
      }
    </style>
  </defs>
  <g id="_레이어_1-2" data-name="레이어 1">
    <path class="cls-1" d="M123.52,39.64c-14.22,11.76-27.09,23.96-40.23,35.86-2.24,2.03-3.52,2.58-6.3.2-13.48-11.5-27.29-22.61-40.99-33.85-1.75-1.43-3.55-2.81-5.37-4.24-1.66,1.47-.9,3.21-.9,4.7-.06,17.61-.14,35.23.04,52.84.04,3.61-.81,5-4.63,4.73-7.39-.53-14.8-.76-22.21-.89C.41,98.94,0,97.87,0,95.7.06,65.74.1,35.78.03,5.82.02,1.62,1.06-.22,5.89.05c9.85.56,19.74.39,29.62.4,3.33,0,5.97,1.16,8.39,3.4,12.3,11.38,25.33,21.91,38.32,32.47,1.53,1.24,2.07.98,3.46-.33,11.95-11.3,24.04-22.46,36.14-33.61C123.37.95,125.18-.04,127.54,0c7.24.13,14.49.15,21.74,0,2.97-.06,4.05.93,4.04,3.97-.15,30.12-.24,60.25-.2,90.37,0,4.38-1.45,5.9-5.97,5.63-6.89-.42-13.83-.2-20.74-.07-2.63.05-3.85-.58-3.83-3.54.14-16.79.09-33.58.18-50.37,0-1.95.46-3.89.77-6.35Z"/>
  </g>
</svg>