<?xml version="1.0" encoding="UTF-8"?>
<svg id="_레이어_2" data-name="레이어 2" xmlns="http://www.w3.org/2000/svg" viewBox="0 0 71.15 100">
  <defs>
    <style>
      .cls-1 {
        fill: #fff;
        stroke-width: 0px;
      }
    </style>
  </defs>
  <g id="_레이어_1-2" data-name="레이어 1">
    <g>
      <path class="cls-1" d="M.92,0s-.09,0-.13,0c-.18,0-.36.02-.54.04-.02,0-.03,0-.05,0,0,0,0,0-.01,0-.04,0-.08.01-.12.02-.02,1.66-.14,3.32.04,4.95.25,2.31.71,4.6,1.25,6.86.1.43,1.02.66,1.57.99.1-.57.49-1.38.26-1.66C.34,7.87,1.84,3.82.92,0Z"/>
      <path class="cls-1" d="M71.02,41.57c-.01-4.42,0-8.84,0-13.77-1.43.51-2.08.79-2.75.97-.78.22-1.59.36-2.38.54.02-1.04-.15-2.14.1-3.13.98-4.03,2.09-8.04,3.16-12.05-.26-.12-.52-.24-.79-.36-10.01,13.18-20.01,26.36-30.03,39.56-2.76-1.38-.78-3.51,0-4.56,4.93-6.58,10.28-12.84,15.22-19.41,4.39-5.83,8.42-11.93,12.61-17.9-.26-.33-.53-.67-.79-1-1.42.77-3.18,1.23-4.21,2.36-6.16,6.77-12.15,13.7-18.22,20.56-1.36,1.54-2.82,3-4.45,4.73-2.33-2.47-4.43-4.71-6.55-6.93-6.05-6.35-12.13-12.68-18.12-19.09-.57-.61-.66-1.69-.9-2.58-.51-1.86-1.71-2.22-3.31-1.13-1.1.75-2.75.96-3.49,1.93-1.45,1.9-3.41,4.13-3.44,6.25-.1,5.93.68,11.88,1.39,17.83,0-2.13-.23-4.3.05-6.39.45-3.27,1.26-6.48,1.91-9.72.09-.46.22-.93.19-1.39-.06-1.07-.7-2.68,1.16-2.39,1.09.17,2.18,1.34,2.93,2.32.51.66.42,1.77.65,2.94-4.28.16-4.18,3.31-4.18,6.35,0,4.34.41,8.72,0,13.03-.59,6.26.57,12.39.71,18.58.14,6.53,0,13.06.08,19.6.05,4.14,2.29,6.83,5.92,6.75v-50.36c.31-.09.61-.19.92-.28,1.81,1.43,3.19,3.42,3.4,5.71.41,4.6.44,9.24.46,13.86.05,15.16.02,30.31.02,45.67.04.07.06.14.06.23-.01.45.05,1.02.57,1.1.06,0,.14,0,.19-.01.02,0,.03,0,.04-.01,0,0,0,0,.03-.02.02-.01.04-.02.06-.04,0,0,0,0,0,0,.11-.1.22-.29.28-.43.22-.57.3-1.17.33-1.78v-53.76c2.02,3.61,3.55,6.59,5.3,9.43,2.72,4.41,5.34,8.92,8.52,12.99,1.54,1.96,3.24,3.65,4.19,6.07,1.14,2.89,1.79,2.94,3.78.69,1.41-1.59,2.71-3.29,3.89-5.06,5.17-7.79,10.29-15.61,15.41-23.43,1.38-2.11,2.72-4.25,4.57-6.18,0,7.67-.21,15.35.06,23.02.26,7.54-2.1,15.19.57,22.69,5.04-1.19,5.06-1.19,5.05-6.26-.03-12.11-.09-24.22-.13-36.34ZM13.96,22.73c-.9-1.95-1.81-3.89-2.86-6.16,3.65.78,4.4,2.25,2.86,6.16ZM34.37,48.63c.32-.75.64-1.5.97-2.26.07-.17.14-.34.16-.39-6.14-6.41-13.74-11.46-17-20.4.81.93,1.58,1.89,2.44,2.77.98,1,2.1,1.86,3.05,2.89,3.86,4.2,7.7,8.43,11.5,12.69.66.74,1.34,1.62,1.57,2.55.17.68-.17,1.73-.66,2.26-.29.31-1.32-.05-2.02-.12ZM54.14,47.73c-2.04,2.93-3.41,6.69-8.77,7.36,4.5-6.41,8.58-12.23,12.7-18.11,1.14.38,2.06.69,2.42.82-2.06,3.24-4.09,6.67-6.36,9.93Z"/>
    </g>
  </g>
</svg>