<?xml version="1.0" encoding="UTF-8"?>
<svg id="_레이어_2" data-name="레이어 2" xmlns="http://www.w3.org/2000/svg" viewBox="0 0 108.29 100">
  <defs>
    <style>
      .cls-1 {
        fill: #fff;
        stroke-width: 0px;
      }
    </style>
  </defs>
  <g id="_레이어_1-2" data-name="레이어 1">
    <g>
      <path class="cls-1" d="M18.91.63c.78-.23,1.09-.38,1.41-.4,10.29-.6,10.59-.71,14.18,8.76,7.25,19.11,14.11,38.37,21.18,57.55.72,1.95,1.76,3.79,3.11,6.66.82-2.03,1.4-3.08,1.67-4.19,4.88-20.01,9.72-40.04,14.6-60.05.47-1.91.93-3.88,1.82-5.6.46-.89,1.88-1.83,2.85-1.82,4.26.03,8.51.39,12.63.62,5.36,30.32,10.68,60.43,15.92,90.04-4.8.64-9.65,1.3-14.56,1.96-3.79-20.4-7.52-40.44-11.24-60.48-.21-.12-.42-.25-.63-.37-.65,2.92-1.47,5.81-1.93,8.76-2.34,15.19-4.6,30.4-6.86,45.61-.14.95-.2,1.97-.01,2.91,1.45,7.44,1.47,7.44-5.82,7.45-6.4.01-12.79,0-18.25,0C38.88,65.27,28.95,33.13,18.91.63Z"/>
      <path class="cls-1" d="M15.49,100c-1.74-2.2-3.86-4.01-4.81-6.3-.96-2.32-.77-5.12-1.06-7.71C6.42,57.59,3.23,29.19,0,.44h12.86c1.82,13.95,3.88,27.73,5.33,41.58,1,9.5,1.07,19.09,1.7,28.63.41,6.27,1.09,12.52,1.59,18.79.09,1.13.29,2.56-.27,3.36-1.9,2.72-4.12,5.23-5.71,7.19Z"/>
    </g>
  </g>
</svg>