<?xml version="1.0" encoding="UTF-8"?>
<svg id="_레이어_2" data-name="레이어 2" xmlns="http://www.w3.org/2000/svg" viewBox="0 0 85.52 91.72">
  <defs>
    <style>
      .cls-1 {
        fill: #fff;
        stroke-width: 0px;
      }
    </style>
  </defs>
  <g id="_레이어_1-2" data-name="레이어 1">
    <path class="cls-1" d="M72.2,30.44c-3.52,6.38-6.89,12.84-10.61,19.1-4.24,7.14-8.59,14.24-13.29,21.09-2.76,4.02-5.21,3.8-8.27-.11-1.22-1.56-2.08-3.4-3.1-5.11-4.26-7.14-8.45-14.32-12.81-21.4-4.24-6.88-8.65-13.66-13.8-21.75,0,3.05-.02,4.77,0,6.49.27,18.98.6,37.96.77,56.94.04,5-1.55,6.31-6.42,5.33-1.29-.26-2.91-1.95-3.24-3.26-.75-3.03-1.07-6.23-1.1-9.36C.15,53.41.05,28.44,0,3.46,0,2.32.57.44,1.3.2,2.49-.19,4.5,0,5.35.8c4.58,4.31,9.58,8.4,13.2,13.46,9.09,12.71,17.51,25.89,26.63,39.52,9.27-14.7,18.31-29.01,27.32-43.35,1.06-1.69,1.93-3.49,2.93-5.22,1.81-3.1,4.33-4.53,7.95-3.22,3.78,1.37,1.43,4.1,1.42,6.32-.07,12.99-.2,25.97-.17,38.96.03,12.15.36,24.31.23,36.46-.03,2.42,1.19,5.85-2.79,7.08-6.46,1.99-7.94.96-7.95-5.84-.01-15.32,0-30.64-.06-45.95-.01-2.79-.29-5.59-.44-8.38-.47-.07-.95-.14-1.42-.21Z"/>
  </g>
</svg>