<?xml version="1.0" encoding="UTF-8"?>
<svg id="_레이어_2" data-name="레이어 2" xmlns="http://www.w3.org/2000/svg" viewBox="0 0 158.31 100">
  <defs>
    <style>
      .cls-1 {
        fill: #fff;
        stroke-width: 0px;
      }
    </style>
  </defs>
  <g id="_레이어_1-2" data-name="레이어 1">
    <g>
      <path class="cls-1" d="M158.31,85.91c-15.44,8.6-33.64-.99-34.25-16.46-.1-2.6-.05-5.28-.66-7.78-.63-2.57-1.99-4.96-3.03-7.43-2.49,1.22-5.46,1.94-7.39,3.76-8.22,7.76-16.08,15.9-24.17,23.8-6.63,6.47-8.68,5.85-13.77-1.93-6.47-9.89-14.22-18.99-20.14-29.18-6.46-11.1-11.46-23.04-16.93-34.28,11.6-9.42,31.41-5.24,38.03,5.77,6.24,10.36,13.83,19.9,20.75,29.86,3.28,4.71,6.49,3.26,8.9-.41,5.83-8.88,11.78-17.75,16.72-27.13,4.05-7.69,6.21-10.09,17.48-11.78-4.2,27.06,3.16,51.36,18.47,73.18Z"/>
      <path class="cls-1" d="M27.78,99.85c-8.07,0-15.84.51-23.45-.37C2.52,99.27-.03,94.39,0,91.68c.08-7.48,1.71-14.93,2.06-22.43.85-18.46,1.34-36.94,1.94-55.41.04-1.14-.44-2.31-.37-3.45.17-3.07-.11-8.54.88-8.79C9.61.29,15.17-.45,20.32.31c1.76.26,3.92,5.45,3.97,8.42.36,23.42.03,46.86.43,70.28.12,6.8,1.94,13.58,3.06,20.85Z"/>
    </g>
  </g>
</svg>