<?xml version="1.0" encoding="UTF-8"?>
<svg id="_레이어_2" data-name="레이어 2" xmlns="http://www.w3.org/2000/svg" viewBox="0 0 81.84 89.87">
  <defs>
    <style>
      .cls-1 {
        fill: #fff;
        stroke-width: 0px;
      }
    </style>
  </defs>
  <g id="_레이어_1-2" data-name="레이어 1">
    <path class="cls-1" d="M0,89.16V.17C3.03.17,6.36-.32,9.42.36c1.7.38,3.55,2.42,4.36,4.16,8.17,17.62,16.14,35.33,24.18,53.01.89,1.96,1.85,3.9,3.21,6.76,9.24-19.06,18.05-37.09,26.72-55.18C72.01.49,71.89.43,81.84,1.73v88.14h-15.03v-45.58c-7.52,14.04-14.43,27.18-21.64,40.16-1.09,1.96-3.63,4.5-5.32,4.37-1.78-.14-3.92-2.88-4.89-4.96-5.91-12.78-11.53-25.7-17.27-38.57-.47-1.06-1.08-2.05-2.42-2.97v46.83H0Z"/>
  </g>
</svg>