<?xml version="1.0" encoding="UTF-8"?>
<svg id="_레이어_2" data-name="레이어 2" xmlns="http://www.w3.org/2000/svg" viewBox="0 0 85.52 100">
  <defs>
    <style>
      .cls-1 {
        fill: #fff;
        stroke-width: 0px;
      }
    </style>
  </defs>
  <g id="_레이어_1-2" data-name="레이어 1">
    <g>
      <path class="cls-1" d="M67.81,91.05c-5.69,2.31-8.95-.69-10.98-4.19-1.91-3.31-5.86-5.11-6.33-9.61-.18-1.71-2.64-3.69-4.52-4.64-10.44-5.25-13.97-16.59-21.68-24.21-1.47-1.46-2.33-3.51-3.72-5.07-2.84-3.18-6.83-5.45-6.02-10.94.27-1.82-1.94-3.66-4.59-3.53-2.64.13-4.57,1.74-4.68,4.58-.16,4.05-.04,8.11-1.29,12.87-.64-1.31-1.27-2.61-2.38-4.88.45-1.66,2.96-4.32.15-8.44-1.77-2.6-.16-7.39-.39-11.18-.18-2.94-.86-5.85-1.38-9.14,4.38-3.94,4.95-4.15,8.39-.51,3.58,3.78,7.52,7.55,9.84,12.08,1.36,2.66,3.19,4.51,5.05,6.4,6.9,7.04,13.17,14.56,18.83,22.63,1.74,2.49,4.3,4.41,7.28,7.39,5.96-13.59,15.37-23.91,20.96-36.67,1.89-4.3,3.79-8.59,5.24-13.04,2.26-6.91,2.23-7.06,9.13-10.96.16,1.73.4,3.18.4,4.62.03,15.52,1.05,31.14-.32,46.54-1.05,11.81-1.49,23.55-1.55,35.36-.02,3.46-1.62,5.03-5.29,5.2-.79-10.37-1.66-20.47-2.3-30.58-.26-4.1-.04-8.22-.04-12.71-2.45-.22-4.13-1.77-6.16,2.32-3.26,6.56-8.04,12.35-11.36,19.06-1.4,2.83-1.3,5.16-1.33,7.95,4.99,3.46,7.5,8.77,11.03,13.27Z"/>
      <path class="cls-1" d="M1.63,93.61v-23.62c1.44,1.44,2.55,2.04,2.78,2.89.28,1-.41,2.24-.28,3.33.13,1.14.91,2.19,1.08,3.33.6,3.86-1.2,8.02,1.85,11.64.97,1.15-.57,2.11-5.43,2.43Z"/>
      <path class="cls-1" d="M3.82,61.91v-11.42c4.52,3.82,4.57,4.79,0,11.42Z"/>
      <path class="cls-1" d="M84.95,100c-2.99-1.37-5.03-2.31-8.63-3.96,1.72-1.03,2.93-2.36,4.13-2.36,3.01,0,4.94,1.53,4.5,6.32Z"/>
      <path class="cls-1" d="M5.89,65.73c-.29-2.02-.47-3.26-.65-4.5.63.73,1.37,1.41,1.84,2.23.14.25-.46.93-1.19,2.27Z"/>
    </g>
  </g>
</svg>