<?xml version="1.0" encoding="UTF-8"?>
<svg id="_레이어_2" data-name="레이어 2" xmlns="http://www.w3.org/2000/svg" viewBox="0 0 108.86 100">
  <defs>
    <style>
      .cls-1 {
        fill: #fff;
        stroke-width: 0px;
      }
    </style>
  </defs>
  <g id="_레이어_1-2" data-name="레이어 1">
    <path class="cls-1" d="M101.25,84.58c2.64-1.39,4.74-2.49,6.83-3.6,1.93,5.1-.18,9.87-1.46,15.1h-21.92c-3.8-8.62-6.9-17.99-9.58-27.68-2.36-8.51-4.27-17.35-8.5-25.29-.31-.58-1.38-.75-2.45-1.28-2.13,8.38-4.22,16.47-6.23,24.59-.85,3.45-.64,7.55-2.5,10.28-2.3,3.36.79,7.4-2.58,10.49-1.16,1.06-.44,4.5-.12,6.79.38,2.67-.6,4.56-2.67,5.89-1.16.75-5.05-1.79-6.13-3.98-2.27-4.59-4.44-9.23-6.6-13.88-5-10.75-8.81-22.03-14.37-32.54-.54-1.03-.35-2.44-1.04-3.67-.38,9.28-3.71,17.96-4.69,27.15-.75,7.05-.66,14.94-5.91,21.64-3.62.85-7.53-.08-11.33-2.6,1.01-3.4-.88-6.97,1.66-10.71,1.82-2.69.15-6.83,1.64-10.62,1.64-4.16.66-9.28,1.91-14.05,1.81-6.91,1.36-14.3,3.58-21.28.76-2.38-.11-5.24.19-7.83.27-2.42,1.18-4.76,1.67-7.16.66-3.24.68-6.71,1.89-9.72,1.61-4,4.68-6.55,9.66-4.76,3.56,8,7.62,16.24,10.9,24.78,3.24,8.42,5.1,17.35,8.74,27.11,2.7-3.77,3.27-6.82,4.35-9.79,2.98-8.11,6.6-15.97,8.56-24.44.85-3.69,2.59-7.23,3.05-10.94.75-5.95,4.07-9.58,9.2-11.76,2.62-1.12,5.36-1.47,7.75,1.22,2.05,2.31,3.58,4.12,1.32,7.35-.96,1.38-1.14,4.15-.42,5.71,2.53,5.51,3.22,11.53,5.2,17.1,1.91,5.36,3.51,10.79,5.29,16.18,2.8,8.45,5.47,16.95,8.32,25.39,1.41,4.2,3.26,7.57,6.79,10.79Z"/>
  </g>
</svg>