<?xml version="1.0" encoding="UTF-8"?>
<svg id="_레이어_2" data-name="레이어 2" xmlns="http://www.w3.org/2000/svg" viewBox="0 0 108.28 100">
  <defs>
    <style>
      .cls-1 {
        fill: #fff;
        stroke-width: 0px;
      }
    </style>
  </defs>
  <g id="_레이어_1-2" data-name="레이어 1">
    <path class="cls-1" d="M79.65,43.64c-8.04,18.13-16.07,36.25-24.99,56.36-3.02-3.84-5.49-6.08-6.86-8.87-6.81-13.86-13.33-27.86-19.97-41.81-.65-1.37-1.42-2.68-3.6-4.13-3.28,17.16-6.56,34.31-9.86,51.61H0C5.82,65,11.6,33.44,17.38,1.88c.46-.07.92-.15,1.38-.22,10.46,22.24,20.92,44.49,31.38,66.73.84.03,1.68.07,2.52.1C65.39,46.85,73.44,22.88,85.12,0c1.09,2.5,2.25,4.74,3.07,7.1.82,2.39,1.31,4.89,1.94,7.34.69,2.65,1.49,5.27,2.07,7.94,5.37,24.75,10.7,49.51,16.08,74.44h-13.68c-4.57-17.81-9.09-35.44-13.61-53.07-.45-.04-.9-.07-1.35-.11Z"/>
  </g>
</svg>