<?xml version="1.0" encoding="UTF-8"?>
<svg id="_레이어_2" data-name="레이어 2" xmlns="http://www.w3.org/2000/svg" viewBox="0 0 83.18 100">
  <defs>
    <style>
      .cls-1 {
        fill: #fff;
        stroke-width: 0px;
      }
    </style>
  </defs>
  <g id="_레이어_1-2" data-name="레이어 1">
    <path class="cls-1" d="M83.18.78v99.12h-12.02V35.55c-.57-.19-1.15-.38-1.72-.57-9.67,15.64-19.33,31.28-29.65,47.97-9.27-15.97-18.14-31.26-27.02-46.56l-1,.3v63.3H0V1C.45.67.9.35,1.35.03c1.95,1.65,4.48,2.93,5.75,4.99,10.54,17.1,20.85,34.35,31.23,51.55.51.84,1.07,1.65,2.09,3.2,2.92-4.52,5.5-8.58,8.15-12.59,9.37-14.17,18.72-28.36,28.22-42.45,1.27-1.88,3.41-3.17,5.15-4.73.41.26.83.52,1.24.78Z"/>
  </g>
</svg>