<?xml version="1.0" encoding="UTF-8"?>
<svg id="_레이어_2" data-name="레이어 2" xmlns="http://www.w3.org/2000/svg" viewBox="0 0 73 85.39">
  <defs>
    <style>
      .cls-1 {
        fill: #fff;
        stroke-width: 0px;
      }
    </style>
  </defs>
  <g id="_레이어_1-2" data-name="레이어 1">
    <path class="cls-1" d="M35.01,64.23c-6.15-10.52-12.3-21.04-19.16-32.78v53.51H0V.26C3.37.26,7.01-.11,10.51.42c1.55.24,3.27,2.03,4.14,3.56,6.45,11.33,12.71,22.77,19.04,34.17.31.57.78,1.05,1.45,1.92,7.56-13.49,14.98-26.73,22.45-40.07h15.4c-.51,11.66-1.04,22.85-1.47,34.05-.16,4.15-.16,8.31-.05,12.47.3,11.58.68,23.16,1.07,34.73.09,2.75-1.11,3.97-3.87,3.88-3.48-.11-7.51.94-10.22-.52-1.43-.77-.59-5.82-.7-8.94-.5-14.62-.97-29.25-1.48-44.9-6.72,11.74-13,22.71-19.27,33.67-.67-.07-1.33-.13-2-.2Z"/>
  </g>
</svg>