<?xml version="1.0" encoding="UTF-8"?>
<svg id="_레이어_2" data-name="레이어 2" xmlns="http://www.w3.org/2000/svg" viewBox="0 0 97.86 65.9">
  <defs>
    <style>
      .cls-1 {
        fill: #fff;
        stroke-width: 0px;
      }
    </style>
  </defs>
  <g id="_레이어_1-2" data-name="레이어 1">
    <path class="cls-1" d="M0,.11C8.82.11,17.15-.25,25.4.33c2.64.19,5.45,2.53,7.55,4.54,2.72,2.61,4.82,5.87,6.53,8.02,7.02-3.72,13.19-8.04,20.04-10.4,15.62-5.38,32.06,6.73,35.67,20.97,3.22,12.71,2.73,25.64,2.48,38.55-.02,1.14-1.84,3.13-2.95,3.22-4.42.37-8.9.15-13.87.15.29-6.48.93-12.43.74-18.35-.22-6.94-1.03-13.87-1.88-20.77-.18-1.48-1.32-3.12-2.49-4.14-4.53-3.92-16.81-4.16-21.36-.26-1.48,1.26-2.87,3.56-2.91,5.41-.25,12.78-.13,25.56-.13,38.61h-19.01c0-10.39,0-20.33,0-30.27,0-2.5.26-5.04-.1-7.49-.5-3.43-1.85-6.48-6.03-6.73-4.24-.25-7.9,1.26-8.76,5.58-.87,4.33-.78,8.89-.76,13.35.03,5.83.3,11.65.66,17.47.19,3.12-.77,4.71-4.13,4.6-3.83-.13-7.69.21-11.48-.16-1.09-.1-2.8-1.88-2.87-2.98C0,53.66.03,48.01.02,42.37-.01,28.25,0,14.13,0,.11Z"/>
  </g>
</svg>