<?xml version="1.0" encoding="UTF-8"?>
<svg id="_레이어_2" data-name="레이어 2" xmlns="http://www.w3.org/2000/svg" viewBox="0 0 76.44 88.08">
  <defs>
    <style>
      .cls-1 {
        fill: #fff;
        stroke-width: 0px;
      }
    </style>
  </defs>
  <g id="_레이어_1-2" data-name="레이어 1">
    <path class="cls-1" d="M59.52,31.99c-7.09,13.84-14.17,27.69-21.69,42.38-7.69-14.15-15.01-27.64-23.06-42.46,0,7.15,0,12.75,0,18.34,0,11-.13,21.99.07,32.98.07,3.77-1.24,5.09-4.92,4.8-3.13-.25-6.29-.05-9.91-.05V1.01c4.56,0,9.03-.3,13.42.17,1.46.15,3.22,2.01,3.98,3.52,5.61,11.17,10.99,22.46,16.48,33.69.64,1.31,1.52,2.5,2.77,4.52,4.19-7.54,8.14-14.52,11.97-21.57,3.39-6.24,6.57-12.6,10.02-18.81.6-1.08,2.05-2.31,3.17-2.37,4.77-.26,9.56-.11,14.64-.11v87.61h-16.05V31.98c-.29,0-.59,0-.88,0Z"/>
  </g>
</svg>