<?xml version="1.0" encoding="UTF-8"?>
<svg id="_레이어_2" data-name="레이어 2" xmlns="http://www.w3.org/2000/svg" viewBox="0 0 79.35 91.77">
  <defs>
    <style>
      .cls-1 {
        fill: #fff;
        stroke-width: 0px;
      }
    </style>
  </defs>
  <g id="_레이어_1-2" data-name="레이어 1">
    <path class="cls-1" d="M37.33,49.33c6.57-12.87,12.96-25.36,19.31-37.89,1.42-2.8,2.42-5.84,4.04-8.5.77-1.27,2.5-2.65,3.88-2.75,4.78-.34,9.59-.13,14.79-.13v90.65h-15.99v-55.97c-.42-.06-.84-.13-1.26-.19-4.24,8.21-8.47,16.41-12.71,24.62-4.15,8.04-8.29,16.07-12.44,24.11-.55-.03-1.1-.06-1.65-.08-5.91-12.73-11.82-25.46-17.74-38.19-.4.06-.79.12-1.19.17v46.59H0V2.2c4.36,0,8.8-.27,13.17.17,1.3.13,2.81,2.08,3.51,3.54,6.12,12.82,12.07,25.71,18.09,38.58.7,1.49,1.54,2.91,2.56,4.84Z"/>
  </g>
</svg>