<?xml version="1.0" encoding="UTF-8"?>
<svg id="_레이어_2" data-name="레이어 2" xmlns="http://www.w3.org/2000/svg" viewBox="0 0 113.17 110.7">
  <defs>
    <style>
      .cls-1 {
        fill: #fff;
        stroke-width: 0px;
      }
    </style>
  </defs>
  <g id="_레이어_1-2" data-name="레이어 1">
    <path class="cls-1" d="M18.02,24.15c-.86,26.6-1.75,53.19-2.56,79.79-.21,6.9-.09,6.9-7,6.71-7.28-.2-7.32-.2-7.4-7.45C.71,71.23.36,39.25.01,7.28c-.02-1.95,0-3.9,0-6.01C8.18.78,15.77.2,23.37,0c1.17-.03,2.96,1.41,3.5,2.61,8.79,19.46,17.43,38.99,26.1,58.51.98,2.21,1.99,4.41,2.98,6.61.47.07.95.13,1.42.2,2.81-6.98,5.49-14.03,8.48-20.93,4.53-10.48,9.35-20.84,13.91-31.32,1.52-3.49,2.35-7.28,4-10.69.7-1.44,2.67-3.12,4.12-3.17,7.15-.24,14.32.15,21.47.06,3.31-.04,3.83,1.58,3.81,4.35-.11,29.31-.23,58.63-.11,87.94.02,4.65-1.24,5.86-6,5.63-14.81-.73-12.1.53-12.19-13.01-.11-18.31.03-36.62-.01-54.93,0-1.57-.59-3.14-1.99-4.96-1.87,4.29-3.81,8.56-5.61,12.88-7.83,18.79-15.54,37.62-23.55,56.33-.63,1.47-3.24,3.01-4.87,2.95-2.88-.11-7.42-.58-8.3-2.36-6.46-13.04-12.31-26.38-18.08-39.74-4.25-9.85-8.08-19.89-12.11-29.84-.42-1.04-.98-2.03-1.47-3.04l-.85.1Z"/>
  </g>
</svg>