<?xml version="1.0" encoding="UTF-8"?>
<svg id="_레이어_2" data-name="레이어 2" xmlns="http://www.w3.org/2000/svg" viewBox="0 0 94.46 100">
  <defs>
    <style>
      .cls-1 {
        fill: #fff;
        stroke-width: 0px;
      }
    </style>
  </defs>
  <g id="_레이어_1-2" data-name="레이어 1">
    <g>
      <path class="cls-1" d="M94.03,61.69c1.82,8.66-2.21,16.86-10.52,21.6-11.18,6.37-22.79,13.46-35.09,16.07C28.31,103.61,7.79,86.38,1.64,63.82-8.12,28.01,27.6-5.15,57.67.67c10.64,2.06,17.39,8.37,22.43,16.3,8.27,13.03,14.46,27.17,13.93,44.72ZM14.95,47.04c.1,27.52,17.3,45.45,42.66,43.91,9.58-.58,17.65-4.34,21.57-13.58,7.38-17.37.45-47.43-15.05-57.99C41.84,4.19,26.2,7.27,17.36,32.54c-1.59,4.56-1.64,9.65-2.41,14.5Z"/>
      <path class="cls-1" d="M56.34,52.73c8.44-.85,11.54,2.29,11.38,8.27-.13,4.72-1.36,10.76-7.33,9.11-5.15-1.42-12.3-5.57-13.31-9.77-1.74-7.26,6.16-7.08,9.26-7.61Z"/>
    </g>
  </g>
</svg>