<?xml version="1.0" encoding="UTF-8"?>
<svg id="_레이어_2" data-name="레이어 2" xmlns="http://www.w3.org/2000/svg" viewBox="0 0 89.56 90.5">
  <defs>
    <style>
      .cls-1 {
        fill: #fff;
        stroke-width: 0px;
      }
    </style>
  </defs>
  <g id="_레이어_1-2" data-name="레이어 1">
    <path class="cls-1" d="M43.32,90.5C17.32,90.47.4,71.63,0,45.17-.4,17.34,21.49.03,45.79,0c23.82-.03,43.84,16.25,43.77,45.87-.06,26.24-19.09,44.63-46.24,44.63ZM72.44,45.07c-1.09-4.43-1.9-9.52-3.61-14.29-4.08-11.38-14.44-16.45-30.25-15.29-9.35.68-19.2,8.88-20.73,18.64-1.03,6.57-1.08,13.55-.13,20.13,1.57,10.89,13.02,20.41,24.09,21.26,13.45,1.04,23.44-4.94,27.74-17.09,1.42-4,1.84-8.36,2.89-13.36Z"/>
  </g>
</svg>