<?xml version="1.0" encoding="UTF-8"?>
<svg id="_레이어_2" data-name="레이어 2" xmlns="http://www.w3.org/2000/svg" viewBox="0 0 103.46 106.68">
  <defs>
    <style>
      .cls-1 {
        fill: #fff;
        stroke-width: 0px;
      }
    </style>
  </defs>
  <g id="_레이어_1-2" data-name="레이어 1">
    <path class="cls-1" d="M103.43,54.75c.99,30.7-21.01,48.17-46.95,51.47-12.14,1.54-23.53-.85-34.3-5.78-11.77-5.4-17.46-15.9-20.02-28.11-.91-4.34-.86-8.88-1.19-13.34C.57,53.45-.06,47.91,0,42.37c.02-2.19,1.56-4.4,2.53-6.54,5.41-12.09,13.64-21.22,26.38-26.03,7.08-2.67,13.88-6.09,20.83-9.12.88-.38,2.32-.94,2.81-.54,5.94,4.73,14.05,3.96,20.22,8.25,6.23,4.34,14.31,6.88,18.95,12.41,6.6,7.86,11.51,17.46,11.7,28.46.03,1.83,0,3.66,0,5.49ZM83.24,56.49c.11-7.64-2.01-14.56-6.31-20.55-5.85-8.15-19.09-12.11-26.54-7.22-4.1,2.7-7.76,6.49-10.66,10.49-5.04,6.95-9.31,14.46-13.93,21.72-2.75,4.33-2.61,8.66-.44,13.19,5.69,11.94,23.01,18.66,36.91,14.23,12.53-4,20.75-16.48,20.98-31.86Z"/>
  </g>
</svg>