<?xml version="1.0" encoding="UTF-8"?>
<svg id="_레이어_2" data-name="레이어 2" xmlns="http://www.w3.org/2000/svg" viewBox="0 0 120.88 121.12">
  <defs>
    <style>
      .cls-1 {
        fill: #fff;
        stroke-width: 0px;
      }
    </style>
  </defs>
  <g id="_레이어_1-2" data-name="레이어 1">
    <path class="cls-1" d="M62.77,121.12c-22.26-.81-39.11-6.58-50.95-22.04C1.22,85.23-1.8,69.06.97,51.9c1.9-11.78,5.8-22.65,13.49-32.19C22.75,9.44,33.38,3.52,45.99,1.34c20.2-3.49,39.17-.46,55.67,12.73,8.35,6.68,13.27,15.61,16.1,25.68,3.66,13.01,4.44,26.36.5,39.31-5.88,19.34-18.73,32.56-38.2,38.58-6.59,2.04-13.59,2.76-17.29,3.48ZM61.2,104.52c7.3.46,16.03-3.3,21.79-12.73,10.37-16.97,11.59-34.73,3.1-52.65-4.55-9.6-12.14-16.44-23.46-16.69-12.59-.27-22.99,4.9-30.21,15.28-9.26,13.31-10.22,28.43-6.2,43.39,4.21,15.65,15.84,23.24,34.99,23.41Z"/>
  </g>
</svg>