<?xml version="1.0" encoding="UTF-8"?>
<svg id="_레이어_2" data-name="레이어 2" xmlns="http://www.w3.org/2000/svg" viewBox="0 0 56.31 100">
  <defs>
    <style>
      .cls-1 {
        fill: #fff;
        stroke-width: 0px;
      }
    </style>
  </defs>
  <g id="_레이어_1-2" data-name="레이어 1">
    <path class="cls-1" d="M4.42,88.36c-3.34,1.69-4.64-.17-4.39-4.39,1.09-18.6,1.8-37.23,3.29-55.79.89-11.11,3.05-22.23,15.7-26.45C31.5-2.43,49.85-.09,53.63,19.99c3.71,19.69,3.78,39.73-1.19,59.25-4.43,17.42-21.59,25.38-37.69,18-3.68-1.69-6.42-5.44-10.34-8.89ZM41.5,51.43c-.69-7.11-1.4-16.68-2.63-26.18-.59-4.54-3.55-7.53-8.41-7.87-5-.35-8.9,1.57-11.16,6.18-.68,1.39-1.13,2.94-1.43,4.47-2.93,14.72-2.68,29.54-1.1,44.36.77,7.17,4.76,11.12,10.69,11.17,6.58.05,11.7-4.03,12.57-10.81.81-6.22.9-12.53,1.46-21.32Z"/>
  </g>
</svg>