<?xml version="1.0" encoding="UTF-8"?>
<svg id="_레이어_2" data-name="레이어 2" xmlns="http://www.w3.org/2000/svg" viewBox="0 0 53.92 100">
  <defs>
    <style>
      .cls-1 {
        fill: #fff;
        stroke-width: 0px;
      }
    </style>
  </defs>
  <g id="_레이어_1-2" data-name="레이어 1">
    <path class="cls-1" d="M53.86,51.48c0,8.35.02,16.69,0,25.04-.03,14.29-13.15,24.91-27.37,23.32C8.52,97.83,1.37,82.98.55,69.24-.32,54.87.02,40.4.35,25.98.85,4.31,14.52-1.35,32.27.25c16.67,1.5,21.04,14.25,21.47,24.91.36,8.76.07,17.54.07,26.31h.04ZM39.42,49.57c0-7.91.08-15.82-.03-23.72-.06-4.41-1.18-8.43-5.75-10.39-9.72-4.17-20.07,1.43-20.34,11.9-.39,15.23.04,30.49.72,45.72.37,8.35,6.06,12.36,14.82,11.78,6.75-.45,10.53-5.15,10.57-13.24.03-7.35,0-14.69,0-22.04Z"/>
  </g>
</svg>