<?xml version="1.0" encoding="UTF-8"?>
<svg id="_레이어_2" data-name="레이어 2" xmlns="http://www.w3.org/2000/svg" viewBox="0 0 69.13 100">
  <defs>
    <style>
      .cls-1 {
        fill: #fff;
        stroke-width: 0px;
      }
    </style>
  </defs>
  <g id="_레이어_1-2" data-name="레이어 1">
    <path class="cls-1" d="M.07,58.07C-.25,39.71.36,26.99,6.09,15.2,15.08-3.31,35.68-4.25,47.99,8.77c6.74,7.13,9.98,16.29,13.14,25.23,3.09,8.72,5.35,17.82,7.05,26.93,1.45,7.79,1.4,15.75-1.36,23.54-3.45,9.76-10.84,14.73-20.35,15.35-9.29.6-18.77-.31-28.05-1.51-6.87-.89-11.03-5.93-13.21-12.46C1.61,75.03-.08,63.93.07,58.07ZM40.74,65.29c1.04-4.29,2.48-8.26,2.91-12.34.92-8.82,1.75-17.74-1.16-26.39-.42-1.26-1.92-2.92-3.01-2.99-1.12-.07-2.85,1.34-3.42,2.53-1.01,2.11-1.76,4.52-1.88,6.84-.61,11.39-1.01,22.78-1.43,34.18-.21,5.58-.98,6.46-6.8,7.12-.21-2.64-.44-5.28-.63-7.92q-.38-5.31-3.17-5.38c-2.04,12.13-.34,22.9,10.49,30.68,4.02,2.89,8.89,1.98,10.7-2.62,3-7.62,2.78-15.54,1.35-23.47-.06-.31-.54-.55-.9-.89-1.2.26-2.44.52-3.06.66Z"/>
  </g>
</svg>