<?xml version="1.0" encoding="UTF-8"?>
<svg id="_레이어_2" data-name="레이어 2" xmlns="http://www.w3.org/2000/svg" viewBox="0 0 95.11 100">
  <defs>
    <style>
      .cls-1 {
        fill: #fff;
        stroke-width: 0px;
      }
    </style>
  </defs>
  <g id="_레이어_1-2" data-name="레이어 1">
    <path class="cls-1" d="M95.07,54.12c.94,21.68-13.55,40.93-36.76,44.89-15.28,2.61-29.44.24-42.03-9.47-5.7-4.39-9.01-10.37-11.46-16.74C-.66,58.57-1.77,43.8,3.07,29.3,8.18,13.97,20.16,5.6,35.28,1.48c13.06-3.56,25.03-.39,36.46,6.29,13.16,7.69,19.83,19.53,22.3,34.08.69,4.03.7,8.18,1.02,12.27ZM45.6,29.75c-9.53-1.97-20.25,10.15-19.43,17.16,1.08,9.21,4.21,16.82,13.26,21.82,10.64,5.88,25.9-.93,27.61-11.83.63-4.03,1.39-8.17,1.05-12.17-.25-2.84-1.7-6-3.57-8.21-4.91-5.77-11.86-6.77-18.92-6.77Z"/>
  </g>
</svg>