<?xml version="1.0" encoding="UTF-8"?>
<svg id="_레이어_2" data-name="레이어 2" xmlns="http://www.w3.org/2000/svg" viewBox="0 0 100.31 100">
  <defs>
    <style>
      .cls-1 {
        fill: #fff;
        stroke-width: 0px;
      }
    </style>
  </defs>
  <g id="_레이어_1-2" data-name="레이어 1">
    <path class="cls-1" d="M100.3,48.44c.32,17.4-7.62,30.1-22.2,39.01-4.49,2.75-8.81,5.88-13.54,8.13-15.99,7.64-30.72,5.18-44.37-5.94C2.45,75.2-4.77,50.86,3.27,30.3c4.9-12.53,14.14-21.24,26.53-26.14C49.77-3.73,68.24-.26,84.55,13.4c10.79,9.04,15.5,20.49,15.75,35.04ZM73.64,48.67c-1.01-4.09-1.53-8.38-3.13-12.22-3.83-9.21-11.68-11.96-20.98-12.15-12.78-.25-21.11,6.3-23.48,18.71-2.63,13.8,4.01,26.25,16.52,30.38,2.97.98,6.52,1.95,9.38,1.24,12.68-3.13,21.11-12.03,21.68-25.97Z"/>
  </g>
</svg>