<?xml version="1.0" encoding="UTF-8"?>
<svg id="_레이어_2" data-name="레이어 2" xmlns="http://www.w3.org/2000/svg" viewBox="0 0 111.48 100">
  <defs>
    <style>
      .cls-1 {
        fill: #fff;
        stroke-width: 0px;
      }
    </style>
  </defs>
  <g id="_레이어_1-2" data-name="레이어 1">
    <path class="cls-1" d="M.05,53.76c.47-10-.98-21,6.31-28.8,6.57-7.02,14.82-12.73,23.04-17.88C40.75-.02,53.96-.92,66.72.67c7.13.89,14.48,4.57,20.52,8.75,11.87,8.21,21.26,19.14,23.49,33.92,3.08,20.42-2.86,39.24-24.57,49.7-13.81,6.65-28.21,8.76-42.85,5.36-14.78-3.43-27.86-10.83-38.24-22.22C.76,71.45.58,65.21.07,59.22c-.15-1.81-.02-3.64-.02-5.45Z"/>
  </g>
</svg>