<?xml version="1.0" encoding="UTF-8"?>
<svg id="_레이어_2" data-name="레이어 2" xmlns="http://www.w3.org/2000/svg" viewBox="0 0 125.11 100">
  <defs>
    <style>
      .cls-1 {
        fill: #fff;
        stroke-width: 0px;
      }
    </style>
  </defs>
  <g id="_레이어_1-2" data-name="레이어 1">
    <g>
      <path class="cls-1" d="M107.71,86.25c-3.72.16-5.86-2.23-7.71-4.83-1.87-2.64-3.44-5.49-5.16-8.28-1.81,2.13-3.64,3.97-5.07,6.09-.74,1.09-.76,2.67-1.14,4.01-.17.61-.25,1.42-.67,1.75-3.36,2.58-6.78,5.08-10.21,7.57-1.63,1.18-3.46,2.11-4.94,3.44-4.28,3.84-4.15,3.76-9.08.99-2.58-1.45-5.46-3.21-8.25-3.29-7.56-.22-12.45-5.05-19.25-9.88-.39.79-.7,2.09-1.5,2.96-3.55,3.87-7.06,7.81-10.97,11.29-1.41,1.25-3.88,1.72-5.9,1.8-5.83.23-11.67.08-17.86.08,7.74-6.76,14.56-13.85,19.16-22.78.21-.4.47-.78.62-1.2,1.54-4.1,2.24-8.33-4.99-8.47-.41-5.76,1.69-7.02,8.68-3.76-1.14-14.71,3.93-27.83,11.25-40.09C45.42,5.75,64.97-3.84,86.4,3.27c4.77,1.58,9.33,3.76,14.08,5.39,4.5,1.54,9.13,2.7,14.09,4.14-.55,4.49-1.06,8.62-1.56,12.75-.4.21-.8.42-1.21.64-.17-.51-.37-1.02-.51-1.54-1.08-3.97-3.87-6.34-7.93-6.74-4.14-.4-5.29.55-6.42,4.54-3.6,12.7-3.52,25.62-1.71,38.48,1.35,9.59,5.43,18.17,12.48,25.34ZM41.59,54.41c-.32,9.45,2.72,18.58,12,25.01,7.95,5.52,20.96,7.58,29.5,1.66,6.05-4.2,9.84-10.31,9.33-17.33-.97-13.2-.57-26.22,1.67-39.21,1.18-6.83-4.04-15.9-10.87-17.43-12.29-2.74-23.43.18-31.72,12.27-6.94,10.12-9.82,21.54-9.91,35.02Z"/>
      <path class="cls-1" d="M38.3,1.04v2.36c5.19-1.02,10.15-2,15.11-2.98.14.22.29.44.43.66-.85.92-1.55,2.11-2.59,2.71-5.36,3.08-10.99,5.74-16.15,9.12-2.52,1.65-4.25,4.53-6.31,6.87-.94,1.07-1.76,2.24-2.69,3.31-1.87,2.17-3.77,4.3-5.89,6.72.28-5.09-2.1-7.93-6.91-9.01-1.92-.43-2.12-2.93-.26-4.11,1.25-.8,2.91-1.15,4.42-1.3,5.5-.54,9.53-2.63,11.98-8.1,1.13-2.54,4.19-4.25,6.5-6.19.45-.38,1.48-.05,2.37-.05Z"/>
      <path class="cls-1" d="M21.8,55.77c-7.85,3.57-14.82.43-17.46-7.76-.67-2.06-.45-4.1-.58-6-.16-2.41-.47-3.95,1.76-4.85,1.87-.76,3.97-1,5.99-1.33,1.81-.3,3.64-.42,5.56-.63q-1.4-1.93,3.01-4.5c-1.57,7.55-8.21,8.36-13.41,10.96-1.32,11.18,2.62,15.67,12.59,14.08-.48-4.56-4.13-5.83-7.96-7.25,5.29-1.36,7.95.6,10.49,7.3Z"/>
      <path class="cls-1" d="M24.53.88c-5.48.07-9.5,2.94-12.78,6.77-3.3,3.86-6.09,8.11-4.1,13.89-2.75-2.04-2.95-10.05-.64-14.3C9.15,3.32,20.11-.88,24.53.88Z"/>
      <path class="cls-1" d="M125.11,0c-3.41,6.58-14.07,8.53-21.88,4.88,7.36-1.64,14.62-3.26,21.88-4.88Z"/>
    </g>
  </g>
</svg>