<?xml version="1.0" encoding="UTF-8"?>
<svg id="_레이어_2" data-name="레이어 2" xmlns="http://www.w3.org/2000/svg" viewBox="0 0 53.9 100">
  <defs>
    <style>
      .cls-1 {
        fill: #fff;
        stroke-width: 0px;
      }
    </style>
  </defs>
  <g id="_레이어_1-2" data-name="레이어 1">
    <path class="cls-1" d="M3.6,0h50.3v86.28c-1.07-.14-1.81-.23-2.87-.37.21,4.66.41,9.2.62,14.09h-10.53c.22-3.42-2.18-3.68-4.7-3.86-10.45-.75-20.9-1.52-31.35-2.28-1.1-.08-2.2-.13-3.37-.92,1.52-.13,3.06-.48,4.56-.35,2.97.26,3.5-1.15,2.94-3.93H0C1.21,58.81,2.41,29.29,3.6,0ZM13.82,39.77c-.88,16.03-1.71,31.39-2.56,46.97h30.05c0-2.12-.15-4.05.03-5.94.36-3.66-.82-6.6-3.12-9.47-6.18-7.7-12.12-15.58-18.15-23.39-1.97-2.55-3.92-5.12-6.25-8.17ZM41.8,51.35V13.57c-8.02,0-15.75-.04-23.47.05-.95.01-2.35.54-2.7,1.24-.35.69.1,2.13.67,2.88,8.31,11.05,16.69,22.03,25.5,33.61Z"/>
  </g>
</svg>