<?xml version="1.0" encoding="UTF-8"?>
<svg id="_레이어_2" data-name="레이어 2" xmlns="http://www.w3.org/2000/svg" viewBox="0 0 98.93 100">
  <defs>
    <style>
      .cls-1 {
        fill: #fff;
        stroke-width: 0px;
      }
    </style>
  </defs>
  <g id="_레이어_1-2" data-name="레이어 1">
    <path class="cls-1" d="M98.89,53.35c.65,18.15-8.34,31.54-23.96,40.31-11.67,6.56-24.62,7.71-37.86,4.89-11.38-2.43-20.93-7.75-27.99-17.08C2.7,73.02.19,63.3,0,52.79c-.27-15.48,5.42-28.67,16.18-39.29C28.3,1.55,43.48-1.91,60.05.94c26.25,4.51,38.87,26.81,38.85,49.26,0,.87,0,1.74,0,3.15ZM55.04,56.5c0-3.22-.12-6.12.08-8.99.05-.75,1.01-1.78,1.78-2.06,2.16-.79,4.43-1.35,6.69-1.85,2.5-.55,3.34-2.09,2.11-4.16-1.5-2.54-3.1-5.19-5.27-7.12-7.53-6.69-18.68-4.78-23.71,3.85-3.84,6.59-4.31,13.71-2.9,21.01,1.47,7.59,6,12.61,13.43,14.76,9.5,2.75,20.28-6.16,18.92-15.45h-11.13Z"/>
  </g>
</svg>