<?xml version="1.0" encoding="UTF-8"?>
<svg id="_레이어_2" data-name="레이어 2" xmlns="http://www.w3.org/2000/svg" viewBox="0 0 88.92 100">
  <defs>
    <style>
      .cls-1 {
        fill: #fff;
        stroke-width: 0px;
      }
    </style>
  </defs>
  <g id="_레이어_1-2" data-name="레이어 1">
    <g>
      <path class="cls-1" d="M88.83,54.25c0,1.98-.14,3.98.03,5.94.47,5.54-1.76,10.16-4.68,14.6-1.92,2.92-3.3,6.16-4.94,9.21-2.41,4.46-6.47,6.66-10.17,9.14-4,2.68-8.83,4.11-13.3,6.09-.19.08-.31.43-.47.44-7.9.35-15.82,1.02-23.5-1.82-8.7-3.22-16.1-8.4-21.94-15.5-3.51-4.26-5.73-9.35-7.2-14.84C.78,60.46-.48,53.39.17,46.13c.63-7.02,1.57-14.1,4.78-20.46C9.41,16.85,15.56,9.3,24.02,4c2.18-1.36,5.05-1.58,7.57-2.43C37.81-.55,40.88-.08,47.29.45c8.72.72,15.59,4.93,22.61,9.39,8.22,5.23,12.69,13.12,16.28,21.72.98,2.35.85,5.03,1.55,7.31.77,2.52,1.09,4.91,1.1,7.45.02,2.64,0,5.29,0,7.93ZM42.88,89.33c11.18,0,18.79-4.8,24.96-12.3,2.92-3.54,4.21-7.6,6.34-11.34,1.85-3.27,4.56-6.74,1.47-10.9-.42-.57.01-1.73-.07-2.6-.42-4.45-.86-8.89-1.33-13.33-.04-.38-.42-.7-.55-1.09-2.98-8.78-7.48-15.22-15.33-20.64-3.45-2.38-7.59-2.96-11.35-4.52-2.01-.83-4.06.86-6.04,1.12-8.96,1.18-15.45,6.01-20.12,13.3-2.89,4.51-5.22,9.43-4.88,15.16.22,3.73.21,7.5,0,11.23-.19,3.38.29,8.22.97,11.07,1.73,7.26,6.05,12.78,11.24,17.83,4.73,4.61,10.47,6.64,14.71,7.01Z"/>
      <path class="cls-1" d="M71.39,49.87v7.59c-1.71-3.41-.7-5.56,0-7.59Z"/>
      <path class="cls-1" d="M71.95,44.31v-3.97h.66v3.97h-.66Z"/>
    </g>
  </g>
</svg>