<?xml version="1.0" encoding="UTF-8"?>
<svg id="_레이어_2" data-name="레이어 2" xmlns="http://www.w3.org/2000/svg" viewBox="0 0 93.44 100">
  <defs>
    <style>
      .cls-1 {
        fill: #fff;
        stroke-width: 0px;
      }
    </style>
  </defs>
  <g id="_레이어_1-2" data-name="레이어 1">
    <g>
      <path class="cls-1" d="M56.59.08c2.15,1.83,3.13,3.74,5.8,4.73,5.51,2.06,10.51,5.49,15.8,8.4.27-.73.55-1.5.84-2.32.3.17.79.27.87.51.39,1.18.35,2.63,1.05,3.54,3.32,4.35,5.25,9.38,6.85,14.47.71,2.24,2.12,4.08,2.72,6.19,2.25,7.87,3.52,15.95,2.65,24.15-.3,2.8-1.35,5.65-2.64,8.19-2.83,5.55-5.01,11.37-9.66,16.03-6.28,6.28-13.03,11.19-21.68,13.74-2.16.64-4.52.07-6.14,1.11-2.29,1.46-4.53,1.14-6.85,1.18-2.11.03-4.12.05-6.19-1.17-1.32-.78-3.48.02-5.23-.2-1.4-.18-2.83-.67-4.1-1.31-7.66-3.86-15.52-7.25-20.32-15.25-1.79-2.99-3.98-5.9-6.01-8.83-2.02-2.92-1.78-6.36-2.84-9.48-.76-2.23-1.4-4.91-1.47-7.35-.33-11.55,2.14-22.66,8.03-32.54C13.82,14.22,21.93,6.87,33.3,4.02c4.25-3.19,9.82-1.62,14.35-3.92.71-.36,2.03.26,2.98.66,2.12.89,4.11,1.17,5.95-.68ZM85.15,32.8c-.21-.26-.42-.52-.63-.78-.2.2-.4.4-.59.59.26.21.51.44.8.59.05.03.27-.26-.8-1.19-.44-.44-.89-.89-1.33-1.33s-.89-.89-1.33-1.33c-.44-.44-.89-.89-1.93-1.33h.59c-.12-.35-.19-.73-.4-1.01-.06-.08-.53.14-.81.22.21.26.41.53,1.21.79.44.44.89.89,1.33,1.33s.89.89,1.33,1.33c.44.44.89.89,2.56,2.11ZM77.15,26.13c-.21-.26-.42-.52-.63-.77-.2.2-.4.4-.59.59.26.21.51.44.8.59.05.03.27-.26-.8-1.19-.44-.44-.89-.89-1.33-1.33-.44-.44-.89-.89-1.33-1.33s-.89-.89-1.33-1.33c-1.97-1.75-3.91-3.55-5.96-5.21-.31-.25-1.46-.06-1.68.28-1.38,2.13-1.94-1.02-3.02-.4-.98-2.39-2.1-1.26-3.21-.12q-2.99-2.51-6.16-2.54c-2.22-.02-4.45.16-6.65-.04-5.34-.48-10.19,1.68-14.09,4.45-9.49,6.74-13.78,16.93-15.07,28.18-.56,4.83-.49,9.8,1.04,14.78,1.81,5.87,4.12,11.35,8.18,15.9,4.06,4.56,9.6,6.13,15.41,7.77,7.76,2.2,14.86.76,21.51-2.29,5.58-2.56,9.65-7.39,12.47-13.18,1.94-3.98,3.15-7.99,4.16-12.3,1.02-4.33,2.05-8.91.83-12.73-2.22-6.97-3.25-14.66-8.76-20.32-.75-.78-.68-2.1,1.01-2.22.44.44.89.89,1.33,1.33.44.44.89.89,1.33,1.33s.89.89,2.56,2.11Z"/>
      <path class="cls-1" d="M61.26,16.62c-.26.21-.53.41-.79.62-.08-.28-.3-.74-.22-.81.28-.21.67-.28,1.01-.4,0,.2,0,.4,0,.59Z"/>
    </g>
  </g>
</svg>