<?xml version="1.0" encoding="UTF-8"?>
<svg id="_레이어_2" data-name="레이어 2" xmlns="http://www.w3.org/2000/svg" viewBox="0 0 110 100">
  <defs>
    <style>
      .cls-1 {
        fill: #fff;
        stroke-width: 0px;
      }
    </style>
  </defs>
  <g id="_레이어_1-2" data-name="레이어 1">
    <g>
      <path class="cls-1" d="M55.24,99.81c-2.28,0-3.35-.11-4.38.02-7.23.89-13.83-1.82-20.43-3.94-3.08-.99-5.95-3.15-8.47-5.3-3.5-2.99-6.59-6.46-9.86-9.73-2.26-7.12-8.53-12.26-9.81-19.87-.16-.95-.91-1.89-.81-2.78.58-5.37-2.63-10.6-1.02-15.76.63-2.03,1.01-3.94.88-5.87-.21-3.16.98-5.89,2.04-8.64,2.12-5.54,5.14-10.7,8.98-15.12,3.31-3.81,7.26-7.41,11.62-9.85,3.01-1.68,6.79-4.86,10.9-1.49,5.32-.48,10.74,1.01,16-.89.92-.33,1.99-.33,3-.35,2.31-.05,4.63.14,6.92-.04,8.29-.68,15.74,1.63,22.77,5.89,7.81,4.73,15.17,9.9,20.26,17.74,1.74,2.68,2.24,5.83,3.29,8.71,3.13,8.54,3.25,17.64,2.47,26.58-.22,2.48-.81,5.09-1.11,7.68-.15,1.29-.85,2.6-1.58,3.73-1.84,2.83-3.79,5.59-5.77,8.32-1.42,1.95-2.59,4.57-4.54,5.52-2.17,1.05-3.28,3.05-5.22,4.09-4.28,2.29-8.19,5.48-13.14,6.24-1.81.28-.71,3.63-3.24,2.6-6.81,2.42-13.86,2.87-19.76,2.52ZM30.41,22.92c-1.07.86-2.25,1.6-3.17,2.59-1.33,1.45-.84,2.04,1.91,2.45-.71.5-1.44.95-2.11,1.5-3.62,2.93-4.72,7.12-5.39,11.41-.32,2.02.63,4.49-.21,6.12-1.33,2.57-.94,5.07-1.1,7.63-.14,2.32,1.16,4.6.2,6.95.35.14.71.29,1.06.43-.61,3.01,3.15,3.51,3,6.47,1.36-1.42,2.49-2.36,3.25-.58.91,2.12-2.15,1.03-2.34,2.59.77.51,1.58,1.05,2.39,1.6,1.13,1.62.11,3.79,1.31,5.33.43.55,1.38.7,2.88,1.39-.89-1.48-1.21-2.01-2.06-3.41,1.58.6,2.39.7,2.9,1.14,1.27,1.1,2.3,2.47,3.61,3.51,5.22,4.14,10.47,8.19,17.83,7.21,2.27-.3,4.62,0,6.92-.07.99-.03,2.08-.06,2.96-.45,4.45-2,8.78-4.27,13.73-4.93,1.07-.14,2.22-.94,3.02-1.75,4.59-4.56,9.78-8.68,11.62-15.34.68-2.45,1.22-4.95,2.13-7.31,1.74-4.53,1.82-8.96-.01-13.47-.58-1.44-1.11-2.98-1.24-4.51-.61-6.7-4.3-12.01-8.58-16.54-3.43-3.63-8.02-6.32-12.89-8.19-7.43-2.85-14.92-4.62-22.76-1.84-5.48,1.94-10.82,4.12-14.59,8.93-1.7,2.17-3.66,4.13-5.51,6.18.28-.91.6-1.82.84-2.74.19-.75.29-1.53,1.16-3.46-.24.2-.49.4-.73.6.19.19.37.37.56.56.19-.25.41-.49.56-.76.03-.05-.24-.25-1.12.76ZM23.81,13.56c-2.7,1.51-5.4,3.02-8.1,4.52-2.57,5.85-6.06,11.3-7.93,17.44-.74,2.41.16,4.15,2.19,6.04.51-.64,1.3-1.2,1.49-1.92,1.44-5.61,3.68-10.76,7.74-15.04,1.04-1.1,2.37-2.74,2.24-4-.29-2.85,1.19-4.6,3.41-7.67-.24.2-.49.4-.73.6.19.19.37.37.56.56.19-.25.41-.49.56-.76.03-.05-.24-.25-1.42.22ZM96.35,77.44c.71-.89,1.42-1.78,2.13-2.68,1.46-1.84.51-4.59,1.76-6.16,3.92-4.9,2.96-10.98,4.39-16.45.82-3.14-.11-6.71.26-10.02.18-1.63-2.16-3.09-.16-4.66-2.36-4.25-2.91-9.24-5.64-13.37-2.63-3.98-6.69-5.95-11.46-9.31.9,1.89,1.16,2.59,1.55,3.21,2.2,3.5,4.8,6.81,6.55,10.52,1.3,2.76,1.4,6.02,2.64,8.98,1.19,2.86,1.22,6.19,1.95,9.27.75,3.18-1.56,6.11-.56,9.26-3.25,6.68-1.61,14.23-3.78,21-2.67,1.31-5.16,2.61-8.33,2.83-2.52.17-6.17.54-6.32,4.68.68.19,1.36.38,3.35.93-3.77.89-6.69-.32-8.78,1.75-.48.48-.9,1.02-1.34,1.53.63.33,1.36,1.05,1.87.91,1.48-.38,2.83-1.27,4.31-1.63,1.24-.3,2.68.14,3.88-.23,4.88-1.48,7.99-5.33,11.32-8.84.31-.33.04-1.21.43-1.52ZM70.73,90.6c-.24-.37-.49-.74-.73-1.11-1.04.5-2.06,1.39-3.12,1.43-4.79.16-9.59.05-14.38.08-1.45,0-2.86.16-3.93-1.21-.12-.16-1.67.35-1.98.88-.63,1.08-.87,2.4-1.46,4.18,4.99-.84,8.66,2.48,13.54.42,3.95-1.67,8.23-2.64,12.06-4.68ZM21.91,79.85c.36-.26.72-.52,1.09-.78-.28-.67-.41-1.44-.85-1.98-1.38-1.7-3.12-2.85-3.31-5.61-.12-1.82-2.84-3.03-3.9-5.18-1.28-2.59-2.51-4.97-2.15-7.89.3-2.47-.72-4.43-2.09-6.46-1.19,1.79.55,4.29-1.66,5.77-.38.25-.28,1.69.02,2.39,1.06,2.49,2.52,4.82,3.42,7.35.87,2.44,2.46,4,4.32,5.68,2.05,1.85,3.43,4.43,5.1,6.7ZM39.26,6.78q5.76,1.1,10.76-3.06c-3.59,1.02-7.18,2.04-10.76,3.06ZM29.66,79.8c.39.84.79,1.7,1.39,2.99.99-2.65.65-3.54-1.39-2.99ZM33.93,82.11c.1-.68.25-1.25.22-1.8-.01-.17-.51-.32-.79-.48-.14.55-.35,1.09-.39,1.65,0,.15.5.33.96.62ZM36.97,84.02c-.4-.96-.55-1.31-.69-1.66-.28.36-.68.69-.79,1.09-.08.29.24.68.39,1.03.45-.19.89-.38,1.09-.47ZM38.42,85.76c.26-.15.54-.3.81-.45-.14-.14-.31-.42-.41-.39-.3.07-.57.25-.85.39.14.14.28.28.45.45Z"/>
      <path class="cls-1" d="M21.19,61.76c.99-.98,1.58-1.57,2.55-2.53.17,1.36.31,2.41.5,3.94-1.12-.52-1.87-.87-3.05-1.41Z"/>
      <path class="cls-1" d="M28.62,70.92c.15.15.41.35.39.4-.15.27-.37.51-.56.76-.19-.19-.37-.37-.56-.56.24-.2.49-.4.73-.6Z"/>
      <path class="cls-1" d="M102.08,35.08c-.17.17-.31.31-.45.45-.14-.28-.33-.55-.39-.85-.02-.1.25-.27.39-.41.15.27.3.55.45.81Z"/>
    </g>
  </g>
</svg>