<?xml version="1.0" encoding="UTF-8"?>
<svg id="_레이어_2" data-name="레이어 2" xmlns="http://www.w3.org/2000/svg" viewBox="0 0 101.44 100">
  <defs>
    <style>
      .cls-1 {
        fill: #fff;
        stroke-width: 0px;
      }
    </style>
  </defs>
  <g id="_레이어_1-2" data-name="레이어 1">
    <g>
      <path class="cls-1" d="M84.29,51.36c1.42.68,2.82,1.35,4.6,2.2,1.54-4.54-1.03-7.74-2.41-11-2.77-6.56-5.97-12.94-9.12-19.33-.16-.32-1.51-.04-2.91-.04-2.09-1.66-4.85-3.85-7.6-6.05-7.81-6.25-22.36-3.33-29.87,1.71-6.11,4.1-10.8,8.98-13.74,15.65-1.31,2.98-2.89,5.82-2.37,9.32.29,1.95.12,3.99.04,5.98-.47,12.2,4.24,22.22,12.79,30.65.59.58,1.09,1.27,1.39,1.62,1.46-.73,2.6-1.29,4.67-2.32,0,4.19-.24,7.56.07,10.87.26,2.8,1.16,5.54,2.01,9.37-10.84-4.23-20.8-7.34-28.1-15.51-6.18-6.91-10.44-14.94-13.11-23.66-1.12-3.65-.5-7.93-.18-11.89.28-3.49-1.75-7.41,1.63-10.42-.47-10.29,6.36-17.33,12.39-23.83C20.77,7.92,28.98,3.03,38.86,1.48,42.62.89,46.33.1,50.17.01c19.07-.41,33.75,8.45,45.26,22.65,3.69,4.56,6.1,10.66,6,17.13-.08,4.85,0,9.7-.02,14.55-.03,5.28-2.24,7.82-5.89,14.56-2.53,4.67-4.88,10.2-4.41,16.12.22,2.77.68,5.79-2.6,7.31-1.29-1.19-2.7-2.47-4.51-4.13-3.12,7.87-9.22,9.3-15.99,9.43-2.85.05-5.7,0-8.57,0-1.19-1.63-1.69-3.12,1.07-3.4,3.43-.35,6.08-2.01,8.48-4.36,2.55-2.5,4.98-5.01,8.27-6.83,3.9-2.15,4.1-4.07,3.97-11.64,0-.39.45-1.14.55-1.12,3.71.84,1.78-3.8,4.13-4.22-1.71-1.11-3.42-2.22-5.13-3.33.14-.34.27-.68.41-1.02,1.35.4,2.7.81,4.71,1.41-.53-1.83-1.05-3.64-1.63-5.63,1.09-.54,2.23-1.11,3.39-1.69-.04-.02-3.35-4.39-3.36-4.44Z"/>
      <path class="cls-1" d="M84.29,51.4h-1.71c-1.52-2.43-3.77-3.21-6.56-3.5-3.65-.38-4.12-3.05-3.36-6.91,1.52,1.32,2.7,2.62,4.13,3.51,1.31.82,2.91,1.15,4.34,1.77,2.22.97,3.57,2.52,3.16,5.13Z"/>
      <path class="cls-1" d="M57.22,84.54q-4.13,3.48-11.7-2.27c4.47.87,7.64,1.48,11.7,2.27Z"/>
      <path class="cls-1" d="M63.84,48.27c-1.53,2.48-2.83,4.57-4.87,7.88v-7.88h4.87Z"/>
      <path class="cls-1" d="M75.3,51.83c2.56,1.63,3.91,2.11,4.63,3.06.54.71.26,2.04.35,3.1-.94-.24-2.24-.17-2.75-.78-.78-.91-1.01-2.29-2.23-5.38Z"/>
      <path class="cls-1" d="M80.87,54.82c.26-1.3-.85-3.28,1.71-3.43-.26,1.3.85,3.28-1.71,3.43Z"/>
      <path class="cls-1" d="M70.53,82.57c-.39.63-.64,1.32-.84,1.31-.76-.05-1.5-.33-2.24-.53.21-.38.41-1.06.65-1.07.75-.04,1.51.16,2.44.29Z"/>
    </g>
  </g>
</svg>