<?xml version="1.0" encoding="UTF-8"?>
<svg id="_레이어_2" data-name="레이어 2" xmlns="http://www.w3.org/2000/svg" viewBox="0 0 96.14 100">
  <defs>
    <style>
      .cls-1 {
        fill: #fff;
        stroke-width: 0px;
      }
    </style>
  </defs>
  <g id="_레이어_1-2" data-name="레이어 1">
    <path class="cls-1" d="M.09,48.62C-1.06,29.06,8.87,15.83,24.9,6.62,30.7,3.29,36.48-.25,44.08.01c10.73.38,21.55-.28,30.6,6.58,4.73,3.59,9.23,7.87,12.71,12.65,9.44,12.97,9.48,28.26,8.1,43.22-.49,5.34-4.19,10.95-7.79,15.3-5.37,6.51-11.42,12.62-18.82,17.04-3.4,2.03-7.28,2.6-11.02,3.65-4.08,1.15-7.22,2.91-10.95-.28-.6-.52-2.04-.28-3.03-.09-9.6,1.78-17.56-2.69-24.96-7.48-8.33-5.39-12.38-14.52-16.71-23.12-1-1.99-1.86-4.22-2.03-6.4-.32-4.13-.09-8.31-.09-12.47ZM12.09,50c-.95,10.74,3.6,19.9,10.19,27.05,6.53,7.09,14.73,12.82,25.7,12.91,5.73.05,10.3-2,14.84-4.46,12.69-6.86,25.5-20.1,22.82-38.1-1.62-10.89-4.94-20.32-13.12-27.83-6.6-6.06-15.12-8.71-23.27-8.42-6.27.22-13.12,2.22-19.33,5.53-7.28,3.89-11.58,10.19-14.96,16.78-2.44,4.76-2.02,10.97-2.87,16.54Z"/>
  </g>
</svg>