<?xml version="1.0" encoding="UTF-8"?>
<svg id="_레이어_2" data-name="레이어 2" xmlns="http://www.w3.org/2000/svg" viewBox="0 0 102.1 100">
  <defs>
    <style>
      .cls-1 {
        fill: #fff;
        stroke-width: 0px;
      }
    </style>
  </defs>
  <g id="_레이어_1-2" data-name="레이어 1">
    <path class="cls-1" d="M49.02.42c10.94-1.77,20.34,2.24,29.4,7.59,1.81,1.07,8.52,7.19,9.92,8.35,6.8,5.65,11.7,13.21,12.91,21.35,1.43,9.61,1.3,19.67-1.99,29.5-2.18,6.51-5.51,12.6-10,16.71-6.89,6.32-14.18,12.91-24.6,14.28-4.84.63-9.7,2.49-14.52,1.52-7.27-1.45-14.82-2.15-21.54-5.63-7.13-3.69-14.16-7.93-18.73-14.56C4.62,71.93-.06,63.76.26,53.9c.09-2.87.31-5.77-.04-8.6-1.22-9.77,2.73-18.18,8.41-25.15C15.35,11.9,23.17,4.62,34.24,1.43c5.15-1.48,9.97.02,14.78-1ZM48.86,17.64c-7.33-1.28-13.67,2.45-19.62,6.54-5.44,3.73-6.09,10.85-9.83,15.87.06,8.24-.58,16.37,3.64,24.24,3.39,6.31,8.55,10.43,14.16,13.79,4.08,2.44,9.76,4.66,14.03,3.74,5.5-1.19,11.34-2.07,16.55-6.03,13.58-10.32,17.76-19.97,12.83-35.01-4.73-14.4-19.52-24.49-31.76-23.15Z"/>
  </g>
</svg>