<?xml version="1.0" encoding="UTF-8"?>
<svg id="_레이어_2" data-name="레이어 2" xmlns="http://www.w3.org/2000/svg" viewBox="0 0 96.32 100">
  <defs>
    <style>
      .cls-1 {
        fill: #fff;
        stroke-width: 0px;
      }
    </style>
  </defs>
  <g id="_레이어_1-2" data-name="레이어 1">
    <path class="cls-1" d="M.4,46.09c-1.97-10.66,3.56-20.68,10-30.01,4.65-6.75,12.23-10.59,19.64-13.59C39.38-1.28,49.52.22,59.26.72c4,.21,8.23,3,11.65,5.56,5.61,4.21,12.08,8.33,15.51,14.09,3.15,5.29,7.13,10.44,8.71,17.05,1.7,7.13,1.3,13.96.53,20.85-.48,4.28-1.57,8.99-3.42,12.61-7.53,14.69-18.49,25.56-36.08,27.39-2.29.24-4.54,1.85-6.74,1.72-13.64-.81-26.62-3.71-36.24-14.46C5.25,76.66.7,66.24.41,54.18c-.05-2.19,0-4.39,0-8.09ZM21.31,46.53c-.89,9.24,1.15,16.15,5.33,22.69,2.57,4.02,2.78,3.54,6.52,6.61,5.15,4.22,10.74,3.33,16.41,3.61,11.58.56,18.87-6.07,23.31-15.44,4.34-9.18,3.98-18.84-.54-28.46-5.26-11.21-13.11-17.44-25.84-16.26-2.96.27-5.77-.37-8.94,1.06-7.81,3.51-13,8.27-15.28,17.01-.96,3.71-.45,7.2-.98,9.18Z"/>
  </g>
</svg>