<?xml version="1.0" encoding="UTF-8"?>
<svg id="_레이어_2" data-name="레이어 2" xmlns="http://www.w3.org/2000/svg" viewBox="0 0 101.65 100">
  <defs>
    <style>
      .cls-1 {
        fill: #fff;
        stroke-width: 0px;
      }
    </style>
  </defs>
  <g id="_레이어_1-2" data-name="레이어 1">
    <path class="cls-1" d="M50.94.14c6.21-.41,11.85.57,17.69,2.69,3.58,1.3,6.88,2.84,9.53,5.12,6.01,5.18,12.09,10.5,16.98,16.69,2.81,3.56,3.6,8.85,4.85,13.47,2.9,10.71,2.03,22.52-2.84,33.33-3.71,8.25-9.32,14.82-16.14,19.56-7.43,5.16-15.83,9.51-25.88,8.95-7.27-.4-14.46-.55-21.26-3.34-3.11-1.27-6.08-2.93-8.97-4.65-9.8-5.85-18.8-17.36-21.73-28.79-.4-1.55-1.18-3.13-1.34-4.87-.18-1.94.7-3.95-1.09-5.83-.81-.85-1.02-3.46-.32-4.33,2.71-3.41,1.6-7.63,2.67-11.36,1.71-5.95,4.14-11.66,7.59-16.28,5.05-6.76,11.97-11.83,19.67-15.96C37.06.95,43.75-.48,50.94.14ZM19,48.87c0,1.55.09,3.11-.01,4.66-.51,7.74,3.12,13.89,8.1,19.14,6.03,6.35,12.76,11.87,22.35,11.58,2.24,2.64,5.25,1.66,7.85,1.28,2.55-.38,4.98-1.65,7.42-2.63,8.01-3.2,13.63-8.82,16.83-16.83.98-2.44,2.53-4.92,2.6-7.41.13-4.68.78-9.24-.83-14.18-2.07-6.34-5.53-11.75-8.63-17.41-1.15-2.11-3.37-4.13-5.58-5.06-3.96-1.67-7.52-4.04-11.88-5.18-4.34-1.14-7.92-1.26-12.19-.11-8.46,2.29-15.21,6.99-20.85,13.35-3.08,3.48-5.49,7.53-5.19,12.59.13,2.06.02,4.14.02,6.21Z"/>
  </g>
</svg>