<?xml version="1.0" encoding="UTF-8"?>
<svg id="_레이어_2" data-name="레이어 2" xmlns="http://www.w3.org/2000/svg" viewBox="0 0 76.13 100">
  <defs>
    <style>
      .cls-1 {
        fill: #fff;
        stroke-width: 0px;
      }
    </style>
  </defs>
  <g id="_레이어_1-2" data-name="레이어 1">
    <path class="cls-1" d="M0,49.08C1.2,32.19,9.74,15.32,27.94,4.16c9.38-5.75,18.84-5.41,28.48.28,16.25,9.58,20.19,24.65,19.66,41.91-.54,17.37-6.24,32.54-18.84,44.98-11.87,11.71-30.61,11.63-42-.54C5.54,80.4-.21,66.25,0,49.08ZM58.57,48.06c0-4.93.62-9.96-.13-14.78-1.57-10.22-4.54-20.03-12.63-27.3-3.91-3.51-13.15-3.87-15.81.27-4.56,7.08-9.84,14.55-11.4,22.53-3.32,16.99-3.96,34.46,1.52,51.34,1.69,5.2,4.45,10.27,7.68,14.7,3.41,4.68,12.96,4.91,15.86.78,3.4-4.83,6.82-9.79,9.18-15.16,4.5-10.24,6.3-21.15,5.73-32.37Z"/>
  </g>
</svg>