<?xml version="1.0" encoding="UTF-8"?>
<svg id="_레이어_2" data-name="레이어 2" xmlns="http://www.w3.org/2000/svg" viewBox="0 0 98.51 100">
  <defs>
    <style>
      .cls-1 {
        fill: #fff;
        stroke-width: 0px;
      }
    </style>
  </defs>
  <g id="_레이어_1-2" data-name="레이어 1">
    <path class="cls-1" d="M59.3,97.68c-.78.78-1.28,1.72-1.8,1.74-5.46.18-11.15,1.19-16.34.04-5.98-1.32-11.87-3.46-17.44-6.66-7.92-4.54-13.81-10.38-18.21-18.37C1.74,67.58-.35,60.61.05,52.85c.07-1.44.06-2.89,0-4.33-.41-10.74,2.78-19.98,9.53-28.62,5.27-6.75,11.01-12.19,18.81-15.61C37.66.22,48.16-1.51,57.13,1.59c7.92-.96,13.22,5.35,20.11,7.23,6.71,6.16,13.64,12.33,16.61,21.19,2.68,7.99,5.2,16.1,4.55,24.88-.78,10.64-3.59,20.44-9.68,29.23-1.7,2.46-3.57,4.81-5.43,7.29-5.25-2.42-10.27-4.73-15.39-7.09,1.51-4.31,5.1-7.37,7.53-11.18,3.45-5.4,5.54-10.9,5.54-17.24,0-2.17-.03-4.33,0-6.5.11-6.58-2.23-12.23-5.28-18.06-2.82-5.39-6.3-9.56-11.4-12.42-6.79-3.81-14.19-5.66-21.88-3.96-8.21,1.81-12.01,4.25-17.92,10.67-3.71,4.03-5.66,9-7.28,14.31-1.72,5.64-1,11.19-1.22,16.79-.09,2.41,3.88,13.98,5.79,16.34,4.57,5.66,9.52,10.82,16.45,13.92,3.2,1.43,6.52,2.06,9.73,2.53,3.65.54,6.3,1.51,8.09,4.82.66,1.22,1.98,2.07,3.24,3.33Z"/>
  </g>
</svg>