<?xml version="1.0" encoding="UTF-8"?>
<svg id="_레이어_2" data-name="레이어 2" xmlns="http://www.w3.org/2000/svg" viewBox="0 0 96.42 100">
  <defs>
    <style>
      .cls-1 {
        fill: #fff;
        stroke-width: 0px;
      }
    </style>
  </defs>
  <g id="_레이어_1-2" data-name="레이어 1">
    <path class="cls-1" d="M.02,50.76c-.23-8.7,1.63-16.87,6.06-24.34,2.43-4.1,5.08-8.09,7.96-11.88,4.96-6.52,12.43-9.04,19.76-11.55,3.82-1.31,7.84-2.07,11.8-2.9,1.09-.23,2.33.07,3.46.3,1.31.27,2.63,1.15,3.87,1.02,8.34-.84,15.01,3.2,21.56,7.35,6.84,4.34,12.55,9.45,15.22,15.08,2.97,6.25,5.32,12.72,6.34,19.85,1.07,7.48-.52,14.41-1.99,21.32-.83,3.89-2.93,7.84-5.38,11.49-5.37,8-12.15,14.35-20.41,18.98-4.69,2.63-10.08,3.91-15.5,4.4-2.63.24-5.3.02-7.95.05-7.7.07-14.93-2.01-21.4-5.9-6.07-3.65-11.34-8.13-14.71-14.97-2.97-6.04-5.95-12.03-7.84-18.45C-.02,57.51.27,54.06.02,50.76ZM17.76,50.14c-.47,5.31-.47,10.09,1.5,14.38,1.91,4.17,4.43,8.01,8.02,11.18,4.59,4.06,7.87,6.43,15.49,7.99,4.28.88,8.83.98,13.04-1.12,3.79-1.89,7.9-3.28,11.38-5.62,3.68-2.46,5.38-6.78,7.79-10.42,2.23-3.36,2.77-7.35,3.17-10.91.65-5.73.55-11.59-.97-17.5-1.52-5.88-3.6-11.39-7.62-15.62-8.35-8.81-19.15-9.35-30.27-7.19-9.64,1.87-14.69,9.48-18.39,17.29-2.55,5.4-4.79,11.64-3.15,17.53Z"/>
  </g>
</svg>