<?xml version="1.0" encoding="UTF-8"?>
<svg id="_레이어_2" data-name="레이어 2" xmlns="http://www.w3.org/2000/svg" viewBox="0 0 95.87 100">
  <defs>
    <style>
      .cls-1 {
        fill: #fff;
        stroke-width: 0px;
      }
    </style>
  </defs>
  <g id="_레이어_1-2" data-name="레이어 1">
    <path class="cls-1" d="M50.69,99.91c-8.1.66-15.58-2.25-23.16-4.28-2.18-.59-3.87-2.8-5.94-4-9.05-5.26-14.07-13.79-18.33-22.83-.86-1.82-1.14-4.29-1.35-6.28-.55-5.09-2.74-10.1-1.58-15.3,1.49-6.71,1.84-13.6,5.3-19.95,4.87-8.93,11-16.44,19.91-21.43C37.77-1.02,50.61-1.84,63.46,3.4c12.17,4.97,21.73,13.16,27.09,25.57.84,1.96,1.9,3.87,2.39,5.92.71,2.98,1.03,6.05,1.43,9.1.31,2.38-.75,5,1.37,7.06.23.22.15.93.01,1.35-1.9,6-.9,12.56-4.06,18.38-3.43,6.33-6.28,12.92-11.7,17.99-5,4.67-11.6,7.69-18.74,9.97-3.64,1.16-7.06.74-10.55,1.17ZM45.52,84.9c4.31-.24,7.16.1,9.72-.63,8.32-2.36,14.15-8.06,18.34-15.34,5.68-9.89,5.8-15.34,4.35-26.14-1.77-13.23-10.51-20.18-21.24-25.27-3.56-1.69-8.1-3.24-12.22-1.88-3.07,1.01-6.42,1.15-9.23,2.69-2.85,1.56-5.88,3.27-7.95,5.67-3.06,3.55-5.41,7.76-6.92,12.28-1.65,4.92-3.47,9.81-3.49,15.15-.02,4.46,1.77,8.47,2.71,12.69,1.57,7.07,6.3,11.98,11.61,15.78,4.42,3.17,9.67,6.4,14.33,5Z"/>
  </g>
</svg>