<?xml version="1.0" encoding="UTF-8"?>
<svg id="_레이어_2" data-name="레이어 2" xmlns="http://www.w3.org/2000/svg" viewBox="0 0 89.53 100">
  <defs>
    <style>
      .cls-1 {
        fill: #fff;
        stroke-width: 0px;
      }
    </style>
  </defs>
  <g id="_레이어_1-2" data-name="레이어 1">
    <path class="cls-1" d="M89.09,50.93c1.14,5.11-.19,10.02-1.11,14.81-.84,4.38-3.08,8.47-5.51,12.35-3.12,4.97-7.16,9.35-11.78,12.57-6.39,4.46-13.36,8.53-21.81,8.17-1.98-.09-3.92-.08-6.08.84-2.04.87-5.17-.13-7.59-.97-7.11-2.48-13.96-5.51-19.58-10.8-4.3-4.04-8.14-8.45-10.26-13.95-1.83-4.74-3.27-9.62-4.33-14.69C-.05,54.03-.29,48.84.35,43.88c1.14-8.88,3.22-17.7,9.56-24.73,1.11-1.23,1.92-2.73,2.93-4.05,5.19-6.84,13.08-9.59,20.35-13.17,2.39-1.18,5.35-1.34,8.08-1.68,5.73-.73,11.31.29,16.59,2.38,4.19,1.66,8.27,3.72,12.16,6.01,1.96,1.15,3.24,3.39,5.05,4.86,6.35,5.17,9.29,12.37,11.84,19.74,1.98,5.72,3.24,11.63,2.17,17.7ZM16.54,49.39c.15,4.76.01,8.66,1.07,12.64,1.47,5.5,3.36,10.47,7.67,14.44,4.16,3.83,7.93,7.4,14.13,8.52,6.34,1.14,8.65.63,15.59-1.45,4.1-1.23,6.74-4.33,9.21-7.34,4.23-5.16,7.84-10.78,7.51-17.94-.04-.78-.13-1.59.03-2.33,1.77-7.94,1.34-12.1-.94-19.74-2.28-7.64-6.51-13.61-13.24-17.85-3.44-2.17-7.35-3.15-11.23-3.97-3.36-.72-6.68.62-9.78,1.73-7.12,2.54-12.16,7.45-15.61,14.25-3.2,6.3-4.76,12.83-4.42,19.06Z"/>
  </g>
</svg>