<?xml version="1.0" encoding="UTF-8"?>
<svg id="_레이어_2" data-name="레이어 2" xmlns="http://www.w3.org/2000/svg" viewBox="0 0 91.14 100">
  <defs>
    <style>
      .cls-1 {
        fill: #fff;
        stroke-width: 0px;
      }
    </style>
  </defs>
  <g id="_레이어_1-2" data-name="레이어 1">
    <path class="cls-1" d="M87.69,99.86c-21.32,0-40.83.41-60.31-.15-11.71-.34-16.47-4.42-18.36-16.33-1.7-10.74-1.52-21.8-1.92-32.72-.25-6.83-.05-13.68-.05-21.44-2.34-1.81-5.05-3.9-7.06-5.46C2.05,15.6,3.89,8.29,5.98,0h18.15c.85,4.84,1.53,8.71,2.45,13.9,14.09-1.09,28.14,3.41,41.72-5.24,7.2,4.04,18.11-2.6,22.84,5.27-1.33,12.15-3.04,21.88-3.31,31.64-.5,17.69-.14,35.41-.14,54.29ZM66.49,27.89H25.97c-2.43,21.02-1.01,43.19,3.77,54.86,11.41,1.25,23.52,2.58,36.76,4.03V27.89Z"/>
  </g>
</svg>