<?xml version="1.0" encoding="UTF-8"?>
<svg id="_레이어_2" data-name="레이어 2" xmlns="http://www.w3.org/2000/svg" viewBox="0 0 90.11 100">
  <defs>
    <style>
      .cls-1 {
        fill: #fff;
        stroke-width: 0px;
      }
    </style>
  </defs>
  <g id="_레이어_1-2" data-name="레이어 1">
    <path class="cls-1" d="M90.03,53.89c1.44,21.8-16.56,38.84-31.15,43.87-22.34,7.69-47.09-5.07-55.01-28.01C-2.72,50.69-1.32,32.5,11.48,16.3,24.44-.07,49.58-8.56,72.54,12.53c11.62,10.67,17.44,23.93,17.49,41.36ZM17.31,49.6c-.72,6.83,1.71,14.59,6.27,21.74,9.65,15.13,32.67,16.03,43.14,1.42,9.1-12.7,9.17-26.74,2.13-39.99-2.99-5.64-8.94-11.16-14.83-13.52-17.88-7.16-38.08,5.98-36.71,30.35Z"/>
  </g>
</svg>