<?xml version="1.0" encoding="UTF-8"?>
<svg id="_레이어_2" data-name="레이어 2" xmlns="http://www.w3.org/2000/svg" viewBox="0 0 91.85 100">
  <defs>
    <style>
      .cls-1 {
        fill: #fff;
        stroke-width: 0px;
      }
    </style>
  </defs>
  <g id="_레이어_1-2" data-name="레이어 1">
    <path class="cls-1" d="M0,48.63C.83,28.07,9.48,12.56,28.2,4.06c15.25-6.93,40.05-6.84,55.14,15.26,7.9,11.56,9.64,24.91,7.87,38.58-2.08,16.07-9.36,29.32-24.19,36.79-27.03,13.61-53.69-.24-63.24-26.45-2.25-6.17-2.58-13.05-3.79-19.6ZM78.26,49.39c.48-6.96-1.23-14.4-4.61-21.49-5.11-10.72-12.83-18.01-25.3-18.67-12.47-.66-22.09,4.44-28.57,15.08-10,16.42-7.42,42.67,5.43,56.96,10.22,11.36,28.85,12.39,40.21,2.14,9.81-8.85,13.1-20.3,12.84-34.02Z"/>
  </g>
</svg>