<?xml version="1.0" encoding="UTF-8"?>
<svg id="_레이어_2" data-name="레이어 2" xmlns="http://www.w3.org/2000/svg" viewBox="0 0 89.27 100">
  <defs>
    <style>
      .cls-1 {
        fill: #fff;
        stroke-width: 0px;
      }
    </style>
  </defs>
  <g id="_레이어_1-2" data-name="레이어 1">
    <path class="cls-1" d="M41.91,99.98c-19.96.66-36.91-18-40.49-36.11C-1.19,50.66-.39,37.64,5.45,25.23,13.56,8.03,32.05-2.04,51.07.35c18.76,2.36,33.07,16.19,36.68,35.34,3.46,18.35,1.55,35.41-11.63,49.87-8.77,9.63-19.65,14.44-34.21,14.42ZM75.49,52.03c.34-14.09-2.35-24.93-10.9-33.93-11.85-12.48-32.71-11.3-42.81,2.64-10.21,14.08-9.85,42.04-.19,56.6,12.63,19.04,37.36,16.23,47.71-2.36,4.38-7.86,6.45-16.14,6.2-22.94Z"/>
  </g>
</svg>