<?xml version="1.0" encoding="UTF-8"?>
<svg id="_레이어_2" data-name="레이어 2" xmlns="http://www.w3.org/2000/svg" viewBox="0 0 98.28 100">
  <defs>
    <style>
      .cls-1 {
        fill: #fff;
        stroke-width: 0px;
      }
    </style>
  </defs>
  <g id="_레이어_1-2" data-name="레이어 1">
    <path class="cls-1" d="M0,4.92c5,0,9.6.49,14.04-.1C23.91,3.5,33.67,1.26,43.56.17c4.92-.54,10.06.34,15.03,1.1,4.9.75,9.91,1.6,14.51,3.37,12.99,4.99,21.11,14.59,23.76,28.23,3.1,15.91,1.23,31.3-6.76,45.64-8.73,15.66-28.22,24.71-46.16,20.44-5.77-1.37-11.53-2.97-17.12-4.97-13.01-4.66-20.76-14.54-25.17-27.13-1.28-3.66-1.4-7.89-1.32-11.84.26-13.1,4.37-25.08,11.34-36.12,2.83-4.49,2.9-8.14-.3-10.37-1.56-1.08-3.86-1.08-5.79-1.67-1.82-.55-3.61-1.24-5.57-1.92ZM70.65,52.76c-.37-.04-.73-.08-1.1-.12,0-4.26.09-8.53-.02-12.79-.25-9.56-2.24-18.66-8.15-26.44-8.18-10.77-14.98-12.38-24.21-6.83-4.7,2.83-7.28,7.53-8.8,12.6-3.56,11.87-4.79,24.09-4.55,36.46.26,13.09,3.71,25.16,12.92,34.77,5.58,5.82,12.58,9.1,21.11,7.17,4.73-1.07,7.86-3.44,8.45-8.64,1.36-12.07,2.88-24.12,4.34-36.18Z"/>
  </g>
</svg>