<?xml version="1.0" encoding="UTF-8"?>
<svg id="_레이어_2" data-name="레이어 2" xmlns="http://www.w3.org/2000/svg" viewBox="0 0 120.94 100">
  <defs>
    <style>
      .cls-1 {
        fill: #fff;
        stroke-width: 0px;
      }
    </style>
  </defs>
  <g id="_레이어_1-2" data-name="레이어 1">
    <path class="cls-1" d="M.26,12.37C.14,10.28,0,8.87,0,7.46c0-1.41.13-2.83.22-4.55h40.96v10.56c2.82-1.85,5.24-3.46,7.69-5.03C62.21-.14,76.52-2.42,91.57,2.71c15.08,5.14,24,16.19,27.48,31.49,3.05,13.42,2.72,26.8-3.26,39.49-8.18,17.38-25,27.5-44.2,26.19-19.6-1.33-32.92-11.74-39.64-30.05-5.8-15.82-5.5-31.65,1.39-47.31,1.2-2.73.6-6.25.89-10.16H.26ZM41.32,49.57c.26,6.77,1.3,15.27,5.38,22.97,6.05,11.42,14.99,18.43,28.71,18.02,13.07-.39,21.62-7.2,27.15-18.39,5.25-10.61,6.26-21.91,4.07-33.42-4.37-23.08-22.71-34.35-44.17-27.3-6.1,2-10.97,5.58-14.57,11.03-5.09,7.71-6.28,16.34-6.58,27.09Z"/>
  </g>
</svg>