<?xml version="1.0" encoding="UTF-8"?>
<svg id="_레이어_2" data-name="레이어 2" xmlns="http://www.w3.org/2000/svg" viewBox="0 0 36.4 100">
  <defs>
    <style>
      .cls-1 {
        fill: #fff;
        stroke-width: 0px;
      }
    </style>
  </defs>
  <g id="_레이어_1-2" data-name="레이어 1">
    <path class="cls-1" d="M0,56.54c.84-14.68,1.63-29.37,2.54-44.05C2.93,6.26,6.68,2.42,12.74.87c7.46-1.91,14.48-.5,21.19,2.54,1.22.55,1.86,3.44,1.94,5.28.35,7.64.61,15.29.5,22.93-.26,17.88-.76,35.76-1.16,53.63-.02.87-.07,1.73-.15,2.59-.92,9.1-3.29,11.5-12.38,11.99-4.46.24-8.95.17-13.41-.03-5.08-.23-8.56-3.75-8.7-9.51-.27-11.24-.08-22.49-.08-33.73-.16,0-.33-.02-.49-.03ZM20.08,51.79c.15,0,.3,0,.44,0,0-9.08.08-18.16-.09-27.24-.02-1.15-1.33-2.27-2.05-3.41-.85,1.11-2.37,2.17-2.46,3.33-.81,11.06-1.63,22.13-1.94,33.21-.22,7.77.23,15.56.64,23.33.06,1.18,1.5,2.29,2.3,3.43.95-1.09,2.04-2.1,2.79-3.31.41-.67.35-1.68.35-2.54.02-8.93.01-17.86.01-26.8Z"/>
  </g>
</svg>