<?xml version="1.0" encoding="UTF-8"?>
<svg id="_레이어_2" data-name="레이어 2" xmlns="http://www.w3.org/2000/svg" viewBox="0 0 108.85 100">
  <defs>
    <style>
      .cls-1 {
        fill: #fff;
        stroke-width: 0px;
      }
    </style>
  </defs>
  <g id="_레이어_1-2" data-name="레이어 1">
    <path class="cls-1" d="M51.34,41.3c1.17-6.98,1.59-13.52,3.45-19.62,2.75-9.02,8.76-15.85,17.62-19.46,5.17-2.1,10.22-.67,15.47,1.37,9.65,3.74,12.51,12.25,15.86,20.44,2.07,5.06,3.74,10.4,4.7,15.77.76,4.26.2,8.76.18,13.15,0,.73-.31,1.47-.32,2.2-.15,11.64-4.84,22.08-10.59,31.52-5.16,8.48-13.37,14.73-24.58,13.06-7.33-1.09-12.85-5.34-16.58-11.78-3.33-5.75-5.95-11.73-6.53-18.74-.38.86-.76,1.73-1.14,2.59-2.48,5.72-4.61,11.62-7.52,17.12-3.69,6.98-10.06,9.8-17.7,8.51-4.88-.82-8.8-4.12-11.23-8.37C6.01,77.83.08,66.07,0,52.91c-.07-12.49.28-25.31,7.31-36.5C11.39,9.93,16.16,4.12,23.69,1.26c8.43-3.21,16.12-.16,20.24,7.8,3.64,7.04,4.65,14.71,6.06,22.29.57,3.05.85,6.15,1.35,9.95ZM54.96,49.92c1.11,7.3,2.36,15.13,3.47,22.98.73,5.17,2.27,9.98,5.05,14.43,3.52,5.63,7.49,7.19,13.61,4.87,3.79-1.43,7.49-3.11,11.16-4.83.73-.34,1.17-1.32,1.7-2.04,10.92-14.71,14.83-31.06,11.62-49.13-.93-5.27-2.81-10.12-5.4-14.78-3.36-6.05-3.12-6.32-9.56-10.89-4.64-3.29-9.58-5-15.39-1.59-7.42,4.36-11.4,10.98-13.18,18.86-1.57,7-2.04,14.25-3.09,22.12ZM44.34,36.78c-1.46-6.44-2.74-12.93-4.48-19.29-.71-2.59-2.08-5.18-3.77-7.27-3.48-4.28-8.42-4.34-12.7-.86-9.25,7.49-14.36,17.4-15.78,28.92-1.9,15.49,1.66,30.15,9.19,43.73,1.46,2.63,4.1,4.72,6.53,6.65,2.58,2.04,5.1,1.77,7.82-.62,5.39-4.74,7.91-10.99,9.86-17.49,3.29-10.96,3.19-22.25,3.33-33.77Z"/>
  </g>
</svg>