<?xml version="1.0" encoding="UTF-8"?>
<svg id="_레이어_2" data-name="레이어 2" xmlns="http://www.w3.org/2000/svg" viewBox="0 0 125.18 100">
  <defs>
    <style>
      .cls-1 {
        fill: #fff;
        stroke-width: 0px;
      }
    </style>
  </defs>
  <g id="_레이어_1-2" data-name="레이어 1">
    <path class="cls-1" d="M125.1,51.24c1.35,19.93-14.21,36.14-31.85,43.61-14.75,6.24-30.11,6.03-45.69,3.49-14.02-2.28-25.72-8.57-35.17-18.98C2.97,68.98-1.48,56.63.44,42.66c.93-6.8,4.86-12.5,9.38-17.83C20.56,12.18,34.59,5.4,50.33,2.1c18.51-3.88,36.82-2.98,53.14,7.7,14.43,9.44,22.04,23.11,21.63,41.43ZM62.59,18.72c-9.68.54-17.81,2.51-25.05,8.23-5.66,4.47-7.8,10.45-9.83,16.81-4.78,15.02,3.95,28.37,16.39,34.53,9.99,4.95,20.04,3.54,30.36.94,17.73-4.46,26.71-25.63,18.39-41.97-6.18-12.14-17.51-17.66-30.26-18.53Z"/>
  </g>
</svg>