<?xml version="1.0" encoding="UTF-8"?>
<svg id="_레이어_2" data-name="레이어 2" xmlns="http://www.w3.org/2000/svg" viewBox="0 0 96.17 98.39">
  <defs>
    <style>
      .cls-1 {
        fill: #fff;
        stroke-width: 0px;
      }
    </style>
  </defs>
  <g id="_레이어_1-2" data-name="레이어 1">
    <path class="cls-1" d="M0,45.92c.58-13.86,8.5-27.77,23.33-37.79C29.63,3.88,36.55.99,44.09.11c3.15-.37,6.43.3,9.64.64,1.47.16,2.93.61,4.37,1.01,21.25,5.91,33.46,19.67,37.03,37.87,3.69,18.79-2.61,34.43-16.22,47.38-2.21,2.1-4.89,3.73-7.44,5.45-.46.31-1.55.26-1.99-.08-1.3-1.02-1.67-.22-2.32.74-.64.95-1.44,2.16-2.41,2.45-18.37,5.61-35.16,3.17-49.67-10.13C4.71,75.93-.21,64.06,0,45.92ZM67.98,58.77c.85-.9,1.29-1.24,1.57-1.68,1.94-3.14,1.34-11.59-.95-14.54-2.43-3.11-4.71-6.34-7.27-9.34-1.07-1.26-2.57-2.34-4.09-3-3.37-1.46-6.84-1.55-10.37-.13-2.91,1.17-6.21,1.54-8.89,3.06-4.77,2.72-7.79,7.23-10.38,11.99-2.25,4.13-1.37,8.27.04,12.36,3.98,11.53,15.78,18.67,28.17,14.36,3.31-1.15,6.08-3.37,7.98-7.28-1.25.69-1.9,1.11-2.6,1.43-3.15,1.44-6.29,2.39-9.73.65-4.44-2.25-7.66-5.32-8.85-10.41-1.16-4.98.09-9.13,3.67-12.52,3.08-2.92,6.7-3.68,10.96-2.35,6,1.88,10.2,6.83,10.43,13.01.05,1.24.17,2.49.31,4.39Z"/>
  </g>
</svg>