<?xml version="1.0" encoding="UTF-8"?>
<svg id="_레이어_2" data-name="레이어 2" xmlns="http://www.w3.org/2000/svg" viewBox="0 0 138.64 100">
  <defs>
    <style>
      .cls-1 {
        fill: #fff;
        stroke-width: 0px;
      }
    </style>
  </defs>
  <g id="_레이어_1-2" data-name="레이어 1">
    <path class="cls-1" d="M68.45,100c-11.49-.83-23.47.11-34.38-2.85C8.1,90.12-3.87,66.4,1.1,35.47,4.17,16.38,25.97-.26,48.42,0c17.52.21,35.32-.56,52.48,2.26,25.32,4.17,39.95,26.75,37.47,53.5-1.84,19.93-27.4,47.33-48.78,43.63-6.84-1.18-14.05-.18-21.09-.18-.02.26-.03.53-.05.79ZM66.48,29.4c0-.12,0-.25,0-.37-5.97,0-11.94-.05-17.9,0-12.25.12-18.96,5.67-20.03,16.5-1.15,11.68,7.54,25.46,17.86,26.02,15.35.84,30.81.85,46.15-.06,10.04-.59,14.45-8.99,14.13-23.13-.26-11.52-5.15-18.14-15.03-18.84-8.36-.6-16.79-.12-25.19-.12Z"/>
  </g>
</svg>