<?xml version="1.0" encoding="UTF-8"?>
<svg id="_레이어_2" data-name="레이어 2" xmlns="http://www.w3.org/2000/svg" viewBox="0 0 105.14 100">
  <defs>
    <style>
      .cls-1 {
        fill: #fff;
        stroke-width: 0px;
      }
    </style>
  </defs>
  <g id="_레이어_1-2" data-name="레이어 1">
    <g>
      <path class="cls-1" d="M27,4.96c1.17-.09,2.35-.02,3.52-.02,1.29,0,2.58-.03,3.87,0,1.47.04,2.71.13,2.7-2.08,0-2.08-1.2-2.97-2.73-2.71-2.56.44-5.01-.23-7.51-.15-1.94.06-2.62.55-2.65,2.59-.04,2.26,1.05,2.48,2.8,2.35Z"/>
      <path class="cls-1" d="M26.3,72.37s0,.06,0,.09c.04.01.08.02.11.03h0s0,0,0,0c0,0,0,0,0,0,0,0,0,0,0,0h0s-.08-.08-.12-.12c0,0,0,0,0,0Z"/>
      <path class="cls-1" d="M22.7,73.09c-4.45-.9-4.28,1.86-4.16,4.9.07,1.68.6,2.49,2.25,2.16,1.71-.34,4.56,1.31,4.73-1.93.1-1.97.93-3.79.78-5.75-1.3-.35-2.38.87-3.6.62Z"/>
      <path class="cls-1" d="M1.65,39.13c-2.5-.18-1.41,1.95-1.45,3.06-.06,1.45-.81,3.88,1.7,3.73,1.96-.11.51-2.31,1.13-3.46-.7-1.07,1.01-3.16-1.38-3.33Z"/>
      <path class="cls-1" d="M102.14,60.35c-.8-.15-1.65-.05-2.47,0-.67.03-1.49-.08-1.52.97-.02.79.34,1.45,1.07,1.63.9.22,1.86.19,2.86.28.99-.56,3.14.98,3.05-1.58-.08-2.18-1.91-1.09-3-1.3Z"/>
      <path class="cls-1" d="M12.34,16.55c-1.65-.15-.38,2.1-1.06,3.35,1.09.87-1.17,3.12,1.49,3.46,1.93.25,1.56-1.33,1.51-2.39-.07-1.74.24-4.22-1.94-4.42Z"/>
      <path class="cls-1" d="M102,23.33c1.11-.01,3.23,1.09,3.14-1.4-.09-2.45-2.21-.81-3.23-1.43-1.07.49-2.96-.83-3.02,1.4-.07,2.5,2.01,1.45,3.11,1.44Z"/>
      <path class="cls-1" d="M53.91,2.07c.7.02,1.41,0,2.52,0,.69-.72,3.01,1.03,3.05-.91.04-1.95-2.22-.8-3.44-1.07-.67-.15-1.4-.02-2.1.01-.65.03-1.12.32-1.17,1.03-.05.81.53.91,1.14.93Z"/>
      <path class="cls-1" d="M56.24,3.65c-1.14-.02-3.42-1.11-3.37,1.01.05,1.94,2.3.56,3.64,1.18.85-.84,3.01.82,3.05-1.11.05-2.29-2.2-1.05-3.32-1.08Z"/>
      <path class="cls-1" d="M6.41,56.02c-2.97.02-1.75,2.06-2.07,3.5.51,1.27-1.21,3.62,2.06,3.7,2.8.08,2.35-1.75,2.18-3.26-.17-1.51,1.31-3.97-2.17-3.95Z"/>
      <path class="cls-1" d="M12.67,61.76c-1.52.11-1.16,1.21-1.18,2.07-.02,1.01-.28,2.2,1.44,2.17,1.75-.04,1.27-1.29,1.29-1.48.17-1.95.02-2.88-1.56-2.76Z"/>
      <path class="cls-1" d="M6.57,23.38c1.11.06,1.41-.58,1.3-1.5.02-1.55-1.1-1.21-1.98-1.27-.98-.07-1.49.28-1.5,1.37-.02,1.72,1.19,1.35,2.17,1.4Z"/>
      <path class="cls-1" d="M97.69,95.91c-1.48.08-.93,1.38-.96,2.19-.03.73-.36,1.82.91,1.89,1.59.09,1-1.21,1.19-2.02-.19-.8.42-2.14-1.14-2.06Z"/>
      <path class="cls-1" d="M19.49,67.35c1.31.16,1.14-.83,1.19-1.64-.05-.78.23-1.77-1.07-1.78-1.01,0-1.06.77-1.01,1.48.05.74-.39,1.78.88,1.94Z"/>
      <path class="cls-1" d="M84.52,56.81c.09-2.84-.55-5.64-.68-8.45-.25-5.37-2.46-10-5.48-14.04-7.68-10.26-19.03-12.23-30.5-10.46-12.45,1.93-22.87,11.34-25.03,24.39h0c-1.03-.92-1.65-2.73-3.5-2.01-1.48.58-.56,2.03-.71,3.07-.09.6-.27,1.42.69,1.71,1.39.41,1.7-1.23,2.71-1.53.61,3.61-.65,7.27.84,10.72,0,0,0,0,0,0-.41,4.55,2.36,8.18,3.54,12.26,1.2,1.15,2.39,2.3,3.59,3.44h0c-.02.35.09.81-.09,1.03-.76.92-3.34-.22-2.72,2.18.52,2.01,2.37.81,3.59,1.01,1.58.25,1.51,1.11.69,1.84-2.18,1.94-1.28,4.43-1.52,6.75-.21,2.11.45,3.25,2.7,2.75,1.67-.37,4.74,1.53,4.35-2.46-.17-1.73.29-2.51,2.28-2.52,2.28-.01,2.05,1.33,2.04,2.76-.01,1.77-.02,3.54,0,5.31,0,.67-.17,1.69.69,1.77,1.87.17,3.82.33,5.64-.02,1.33-.25.63-1.82.7-2.78.08-1.14.98-.99,1.56-1.43,1.82-1.37,3.46.77,5.05.08,3.43-1.5,3.74.33,3.4,2.97-.24,1.88.83,2.3,2.33,2.02,1.71-.32,4.66,1.26,4.62-2.06-.04-2.95.8-4.08,3.72-3.62,1.1.17,1.38-.56,1.35-1.54-.03-.93-.72-1.53-1.31-1.16-1.91,1.2-4.77-2.97-6.07,1.12-.03.1-.59.15-.61.12-1.03-2.85-3.4-1.82-5.7-1.53,1.18-2.23,3.44-.47,4.46-1.94,11.55-1.28,24.37-15.72,22.58-27.68h0s0,0,0,0c1.1-.38.77-1.33.79-2.1ZM38.53,44.17c2.16-4.4,5.63-7.76,10.72-8.73-3.11,2.09-3.14,2.74.02,5.1.84.63.49,1.48.56,2.25.14,1.5-.64,3.32,2.11,3.5,1.28.08.79,1.78.71,2.72-.18,2.1.43,3.19,2.71,2.78,2.59-.46,3.36.77,3.02,3.15-.23,1.62.13,2.89,2.19,2.52,3.18-.58,3.78,1,3.56,3.76-.08,1.05-.96,3.05.88,3.21,2.35.19,1.87-2,1.78-3.41-.11-1.85.78-3.84-1.16-5.54-.66-.58-.61-2.45.72-3.44,2.01-1.5,2.64-5.67,1.24-7.76-1.12-1.68-2.19-.99-3.48-.07-1.3.92-3.28,1.17-4.1-.1-.57-.87-1.44-3.23,1.3-3.83,1.19-.26-.03-2.06,1.4-2.79.09,2.78.29,5.48,4.23,3.78.27-.12,1.54,1.36,1.9,2.27,2.35,5.82,3.31,11.73,1.55,18-1.74,6.18-4.87,10.51-11.04,13.4-4.36,2.04-7.31.92-11.29-.28-6.87-2.07-9.18-7.13-10.93-13.06-1.76-5.98-1.3-11.92,1.39-17.41Z"/>
      <path class="cls-1" d="M60.29,71.67c1.62-.07,2.21-.81,2.32-2.38.11-1.72-.79-1.81-2.12-1.87-1.71-.08-2.39.55-2.05,2.35-.38,1.46.33,1.97,1.86,1.9Z"/>
      <path class="cls-1" d="M44.38,70.15c1,.12,1.09-.59,1.16-1.33.09-1.1-.46-1.47-1.48-1.38-.76-.02-1.39.15-1.27,1.14.11.95.68,1.46,1.6,1.56Z"/>
    </g>
  </g>
</svg>