<?xml version="1.0" encoding="UTF-8"?>
<svg id="_레이어_2" data-name="레이어 2" xmlns="http://www.w3.org/2000/svg" viewBox="0 0 111.65 100">
  <defs>
    <style>
      .cls-1 {
        fill: #fff;
        stroke-width: 0px;
      }
    </style>
  </defs>
  <g id="_레이어_1-2" data-name="레이어 1">
    <path class="cls-1" d="M56.67,99.97c-6.27-.47-12.6-.56-18.8-1.49C17.34,95.4,3.09,82.93.65,61.26c-.84-7.53-1.18-15.06.94-22.29C6.78,21.3,17.58,8.46,35.58,2.94c11.95-3.67,24.4-3.71,36.51-1.21,19.5,4.03,31.52,16.54,37.08,35.48,2.69,9.17,3.48,18.41.91,27.75-3.38,12.28-12.22,20.07-22.31,26.72-9.41,6.2-19.87,8.63-31.1,8.28ZM69.74,50.14c-.45-6.08-.78-10.65-1.13-15.22-.22-2.88-1.87-4.75-4.35-5.98-5.21-2.59-10.67-3.16-16.31-1.86-5.44,1.25-8.63,4.36-8.79,9.88-.3,9.94-.45,19.94.18,29.85.53,8.28,6.12,13.14,13.99,13.01,9.75-.15,14.32-3.62,15.37-12.36.75-6.22.77-12.53,1.04-17.31Z"/>
  </g>
</svg>