<?xml version="1.0" encoding="UTF-8"?>
<svg id="_레이어_2" data-name="레이어 2" xmlns="http://www.w3.org/2000/svg" viewBox="0 0 82.76 84.27">
  <defs>
    <style>
      .cls-1 {
        fill: #fff;
        stroke-width: 0px;
      }
    </style>
  </defs>
  <g id="_레이어_1-2" data-name="레이어 1">
    <path class="cls-1" d="M41.1,84.26C16.31,84.15-.22,67.32,0,41.81.23,14.96,21.14-1.36,44.96.09c18.33,1.12,39.37,14.33,37.7,45.08-1.36,25.01-20.04,39.55-41.56,39.08ZM65.69,41.76c0-1.5.07-3-.01-4.49-.71-13.41-9.28-22.64-22.19-23.9-11.79-1.16-22.55,6.68-25.41,19.07-1.07,4.63-1.6,9.58-1.26,14.31.69,9.57,4.39,17.77,13.8,21.92,9.1,4.01,17.84,2.97,25.58-3.38,7.37-6.04,9.69-14.34,9.5-23.52Z"/>
  </g>
</svg>