<?xml version="1.0" encoding="UTF-8"?>
<svg id="_레이어_2" data-name="레이어 2" xmlns="http://www.w3.org/2000/svg" viewBox="0 0 103.73 100">
  <defs>
    <style>
      .cls-1 {
        fill: #fff;
        stroke-width: 0px;
      }
    </style>
  </defs>
  <g id="_레이어_1-2" data-name="레이어 1">
    <path class="cls-1" d="M53.7.2c15.92.25,28.74,6.75,38.64,19.16,2.21,2.77,4.55,5.43,6.67,8.26.58.77.55,1.97.9,2.95,4.58,12.89,5.63,26.23-.06,38.61-8.09,17.57-21.48,29.13-41.93,30.64-16.01,1.18-30.2-2.96-42.33-13.51-5.21-4.53-10.08-9.47-12.33-16.31C-2.68,52-.77,35.05,11.22,20.14,21.05,7.92,34.15,1.09,50,.02c1.22-.08,2.47.11,3.7.18ZM32.16,76.46c-.09-.21-.13-.48-.28-.62-5.44-5.02-9.43-10.97-11.58-18.1-.1-.34-.43-.6-.65-.9-.24.1-.48.2-.72.29,1.02,2.75,1.73,5.69,3.16,8.21,1.65,2.91,3.8,5.58,5.99,8.14,1.07,1.25,2.71,2,4.1,2.97.43.47.79,1.05,1.3,1.4,10.68,7.3,22.01,8.09,33.73,2.98,13.75-6,25.33-25.95,17.73-43.7-5.71-13.34-20.14-22.23-35.21-20.75-9.23.91-17.08,4.77-23.14,12.26-5.49,6.78-8.43,14.23-8.23,22.91.03,1.54.42,3.06.65,4.6.3-.04.6-.09.89-.13-.21-1.44-.63-2.87-.6-4.3.18-8.3,2.79-15.94,7.99-22.27,2.9-3.53,6.75-6.9,10.89-8.68,11.74-5.07,23.49-4.74,34.3,2.89,10.17,7.18,15.05,17.27,13.45,29.5-2.67,20.41-22.74,36.09-45.66,27.32-2.8-1.07-5.4-2.66-8.09-4ZM59.39,57.85c4.07,2.71,5.53,2.48,8.2-1.19,1.91-2.62,1.98-8.66.09-11.26-.38-.52-.92-1.23-1.43-1.27-1.06-.09-2.24,0-3.2.42-.52.23-1.1,1.39-.94,1.92,1.28,4.35.42,8.13-2.72,11.39ZM37.58,65.23c.34-.11.68-.23,1.02-.34-.41-1.64-.69-3.33-1.24-4.91-.91-2.59-2.26-4.91-.61-7.89,1.28-2.29-.12-6.45-2.24-7.61-.71,3.75-2.03,7.4-1.91,10.99.12,3.73,2.08,7.16,4.98,9.76ZM63.01,25.35c-5.74-3.19-11.64-3.09-17.64-1.05,5.98-1.27,11.83-.37,17.64,1.05ZM34.86,31.27c-5.79,3.32-9.26,10.29-8.45,15.36.79-2.5,1.31-5.66,2.75-8.32,1.41-2.61,3.76-4.71,5.7-7.03ZM64.48,74.14c4.8-2.17,8.32-5.32,11.64-9.59-4.09,3.37-7.73,6.37-11.64,9.59Z"/>
  </g>
</svg>