<?xml version="1.0" encoding="UTF-8"?>
<svg id="_레이어_2" data-name="레이어 2" xmlns="http://www.w3.org/2000/svg" viewBox="0 0 85.97 89.96">
  <defs>
    <style>
      .cls-1 {
        fill: #fff;
        stroke-width: 0px;
      }
    </style>
  </defs>
  <g id="_레이어_1-2" data-name="레이어 1">
    <path class="cls-1" d="M85.95,51.21c-.29,5.68-1.14,15.64-7.5,24.03-9.25,12.21-30.66,17.81-47.42,12.99C7.28,81.41-1.04,59.17.1,38.83,1.56,12.94,30.03-7.28,57.49,2.51c17.91,6.39,29.09,20.04,28.46,48.7ZM14.37,44.2c.23,3.15.29,6.32.71,9.45,1.9,14.38,10.28,24.17,22.59,26.53,14.14,2.71,27.04-2.26,31.33-13.41,5.24-13.61,5.59-27.18-1.54-40.91-9.41-18.13-35.78-20.02-47.81-1.63-4,6.12-5.26,12.83-5.27,19.98Z"/>
  </g>
</svg>