<?xml version="1.0" encoding="UTF-8"?>
<svg id="_레이어_2" data-name="레이어 2" xmlns="http://www.w3.org/2000/svg" viewBox="0 0 110.2 100">
  <defs>
    <style>
      .cls-1 {
        fill: #fff;
        stroke-width: 0px;
      }
    </style>
  </defs>
  <g id="_레이어_1-2" data-name="레이어 1">
    <path class="cls-1" d="M97.66,43.13c4.29-.27,8.34-.52,12.54-.79v3.46h-12.18c-.28,3.83-.25,7.7-.9,11.46-2.16,12.48-7,23.72-16.71,32.26-11.24,9.89-24.5,12.27-38.79,9.27-5.66-1.19-11.27-3.01-16.59-5.28-5.64-2.4-10.52-6.08-14.6-10.89C1.69,72.28-1.01,60.44.32,47.24c.72-7.18,2.55-13.99,5.42-20.54,3.33-7.6,8.56-13.63,15.25-18.59C30.58,1.02,41.36-.57,52.87.16c8.16.51,15.44,3.35,22.14,7.77,2.39,1.58,4.23,4.01,6.62,5.61,3.59,2.4,5.63,6.03,8.05,9.34,4.07,5.56,6.68,11.78,7.65,18.64.08.55.23,1.09.34,1.61ZM31.29,47.02c-.4,9.27-.33,18.52,1.5,27.68.92,4.59,2.19,8.99,4.44,13.09,2.81,5.11,6.77,7.26,12.27,6.58,5.77-.71,11.41-4.03,12.75-9.98,1.54-6.81,2.5-13.69,2.48-20.68-.04-9.77-.21-19.53-.26-29.3-.04-7.93-1.34-15.62-4.17-23.04-1.45-3.79-6-7.56-9.39-7.45-5.53.17-10.35,2.36-13.25,7.03-3.72,5.99-5.79,12.78-6.29,19.83-.38,5.38-.08,10.81-.08,16.22Z"/>
  </g>
</svg>