<?xml version="1.0" encoding="UTF-8"?>
<svg id="_레이어_2" data-name="레이어 2" xmlns="http://www.w3.org/2000/svg" viewBox="0 0 80.64 85.41">
  <defs>
    <style>
      .cls-1 {
        fill: #fff;
        stroke-width: 0px;
      }
    </style>
  </defs>
  <g id="_레이어_1-2" data-name="레이어 1">
    <path class="cls-1" d="M80.63,43.07c0,18.28-9.36,32.94-25.08,39.25-15.65,6.29-33.18,2.89-44.34-9.21C-3.99,56.64-6.66,18.7,21.82,4.13c23.93-12.23,59.49,3.25,58.81,38.93ZM15.71,41.86c-.45.17-.91.34-1.36.51,2.25,5.95,3.69,12.4,6.92,17.77,7.85,13.07,25.66,14.72,36.12,3.67,8.56-9.05,8.96-19.94,5.67-31.21-4.15-14.22-18.86-21.37-32.69-16.15-9.22,3.48-14.67,12.92-14.66,25.4Z"/>
  </g>
</svg>