<?xml version="1.0" encoding="UTF-8"?>
<svg id="_레이어_2" data-name="레이어 2" xmlns="http://www.w3.org/2000/svg" viewBox="0 0 81.42 86.16">
  <defs>
    <style>
      .cls-1 {
        fill: #fff;
        stroke-width: 0px;
      }
    </style>
  </defs>
  <g id="_레이어_1-2" data-name="레이어 1">
    <path class="cls-1" d="M81.42,42.5c.21,21.64-11.99,38.26-30.66,42.52-22.43,5.12-43.18-7.47-48.99-29.73C-3.7,34.39,3.78,14.49,20.6,5.15c26.15-14.52,58.71,3.25,60.6,33.08.1,1.66.17,3.32.22,4.27ZM67.23,43.73c-1.54-5.34-2.46-10.96-4.75-15.97-4.39-9.62-12.79-13.89-23-13.59-10.17.3-18.27,5.49-21.3,15.2-2.09,6.7-2.53,14.41-1.68,21.43,1.17,9.72,7.51,16.51,16.86,19.83,8.41,2.98,16.52,1.97,23.39-3.95,6.83-5.88,9.68-13.69,10.48-22.95Z"/>
  </g>
</svg>