<?xml version="1.0" encoding="UTF-8"?>
<svg id="_레이어_2" data-name="레이어 2" xmlns="http://www.w3.org/2000/svg" viewBox="0 0 83.56 91.04">
  <defs>
    <style>
      .cls-1 {
        fill: #fff;
        stroke-width: 0px;
      }
    </style>
  </defs>
  <g id="_레이어_1-2" data-name="레이어 1">
    <path class="cls-1" d="M41.09,91.02c-20.28.05-34.91-11.93-39.31-31.64C-2.02,42.37-.24,26.52,12.03,13.3,31.11-7.26,62.62-3.41,76.72,20.92c13.11,22.63,6.84,50.61-14.32,64.1-6.64,4.23-13.84,6.26-21.31,6ZM68.84,46.49c-1.31-5.25-1.98-10.78-4.05-15.71-7.08-16.89-29.7-22.47-42.83-6.85-8.94,10.63-9.4,31.5-.78,42.9,10.13,13.42,28.7,14.26,39.63,1.49,5.21-6.09,7.86-13.39,8.02-21.83Z"/>
  </g>
</svg>