<?xml version="1.0" encoding="UTF-8"?>
<svg id="_레이어_2" data-name="레이어 2" xmlns="http://www.w3.org/2000/svg" viewBox="0 0 111.59 100">
  <defs>
    <style>
      .cls-1 {
        fill: #fff;
        stroke-width: 0px;
      }
    </style>
  </defs>
  <g id="_레이어_1-2" data-name="레이어 1">
    <g>
      <path class="cls-1" d="M100.32,50.03c.34.13.98.32.96.37-.58,2.69,2,3.86,2.78,5.87-.41,0-.83-.05-1.22.02-.36.06-.71.26-1.06.39.35.28.67.66,1.07.81.36.14.81.03,1.21.03v2.78c0,.09,0-.09,0-.28-.32.12-.69.18-.95.38-.08.06.13.49.21.76.25-.19.49-.38.74-.86.42-.59.83-.91,1.25-1.22-.42-.52-.83-1.04-1.25-1.55v-1.25c1.89-.77,1.94-2.67,2.46-4.21.55-1.64.79-3.39,1.17-5.16-.72-.56-1.55-1.22-1.66-3.39-.23-.66-.71-.42-.68-.24.08.6.35,1.17.54,1.75.21-.75.43-1.51.14-1.51-1.49,1.37-2.64,1.48-2.96,1.02-.75-1.08-1.1-2.44-1.78-4.06.62-.47,1.24-1.03,1.93-1.47,3.95-2.48,4.17-2.96,2.31-6.83-.84-1.76-.52-4.43-3.43-4.76-.22-.02-.56-.67-.51-.98.56-3.68-2.19-5.81-3.95-8.36-1.01-1.47-2.44-2.39-2.55-4.66-.06-1.4-2.24-2.7-4.2-4.85,1.69.51,2.73.52,3.26,1.05,1.73,1.71,3.28,3.61,4.9,5.72,0,.09,0-.09,0-.28-.32.12-.69.18-.95.38-.08.06.13.49.21.76.25-.19.49-.38.74-.86,3.64,3.04,5.77,6.22,6.18,9.89.23,2.12,1.38,3.59,2.35,5.3,2.75,4.83,4.4,13.09,3.9,16.45-1.36,9.06-2.87,18.04-6.5,26.63-4.69,11.1-16.45,19.25-25.89,22.84-10.82,4.12-21.8,3.4-32.86,3.56-7-2.16-14.84-1.98-20.64-7.48-.39-.37-1.18-.35-1.54-.74-5.44-5.87-11.92-10.76-16.37-17.55-1.55-2.36-3.09-4.64-1.84-8.16,1.84,1.06,3.6,2.07,5.14,2.95,0,1.6-.65,3.73.12,4.63,2.35,2.73,4.33,5.65,6.07,8.78.68,1.23,1.84,1.55,3.19,1.33.42.42.83.83,1.25,1.25.11,1.87,1.55,1.06,4.01,1.97.66-.23.42-.71.24-.68-.6.08-1.17.35-1.75.54.75.21,1.51.43,1.51.14-1.62-2.59-3.06-1.78-4.01-1.97-.42-.42-.83-.83-1.25-1.25.19-2.74-1.9-4.62-2.74-6.98-.91-2.54-1.65-5.4-4.27-7.01-.09-.05.72-1.16.63-1.69-.13-.72-1.07-1.36-1.05-2.02.1-2.9-1.09-5.25-2.18-7.86-1.02-2.45-2.36-2.41-4.19-2.66-.74-.1-1.42-.56-2.43-.97,0-3.16-.53-6.56.1-9.72,1.56-7.78,1.15-16.1,6.07-23.06,1.06-1.5,1.2-3.64,1.91-5.43.63-1.6,3.51-.93,3.55-3.46,0-.54,1.46-1.39,2.35-1.55,4.87-.86,9.02-3.42,13.3-5.57C38.57,2.2,46.01.24,54.01.02c6.67-.18,13.08.62,19.18,3.45.55.25,1.59.09,2.07-.29,1.46-1.16,1.52.62,2.23.95,1.07.5-2.46,1.75.33,2.24.89.16,1.65,1.04,2.51,1.62-.35.34-.64.82-.83.78-6.26-1.27-12.61-1.75-18.93-2.55-1.68-.21-3.31-1.79-5.09-1.11-3.66,1.38-7.58,1.76-11.22,3.04-2.88,1.01-5.53,2.74-8.17,4.35-2.68,1.63-5.18,3.33-6.67,6.46-1.32,2.76-4.58,3.97-6.57,6.48-2.53,3.19-3.63,6.42-3.78,10.36-.2,5.04-1.13,10.06-1.12,15.08.02,8.7,2.74,16.96,8.64,23.12,5.92,6.19,12.77,11.93,21.45,14.19,4.01,1.04,7.99,3.14,12.56.74,2.05-1.08,5.02-.84,7.53-1.21,6.63-.98,11.07-4.97,14.5-9.83,2.06-2.92,5.27-4.88,6.52-8.48.93-2.66,3.83-1.67,5.68-1.95-.28-1.92-1.2-3.87-.64-5.2,1.67-3.97,1.91-8.31,3.62-12.23h1.25c.14.35.27.69.41,1.04.28-.35.56-.69.84-1.04ZM20.38,18.81c-.77.14-2.02.05-2.23.47-2.78,5.66-5.8,11.29-7.32,17.4-.67,2.7-2.41,6.54,3.2,9.09-.2-.24-.39-.48-.59-.73-.19.19-.37.37-.56.56.25.19.48.41.75.55.05.03.25-.24-.75-1.11.21-1.29-.14-2.36-1.19-3.18,2.5-3.08,1.77-7.11,3.08-10.5,1.65-4.27,3.72-8.38,6.33-13.7-.24.2-.48.39-.73.59l.56.56c.19-.25.41-.48.55-.75.03-.05-.24-.25-1.11.75ZM90.33,75.02c-2.53.59-2.41,3.05-3.6,4.68.95.32,1.67.56,2.7.91-2.07,1.1-4.84.27-5.42,3.35-.37,1.97-3.77,2.89-2.04,5.89,1.62-.06,3.58,1.07,4.92-.82,3.29-4.63,6.47-9.33,9.66-14.03.19-.28.02-.81,1.47-4.25-.96.85-1.43,1.1-1.4,1.28.08.6.35,1.17.54,1.75.21-.75.43-1.51-.58,0-3.84-.71-4-.68-6.25,1.25ZM51.51,95.65c-3.34-1.71-6.63-3.52-10.02-5.11-4.33-2.03-4.98-2.01-8.52-.57,2.22-.65,3.52.47,4.9,1.83,1.25,1.23,2.54,2.4,4.16,3.38,3.24,1.95,6.28.48,9.47.48ZM95.63,68.3c7.39.53,7.57.33,6.44-6.56-.38,2.02-.61,3.31-.69,3.73-2.05,1.01-3.44,1.7-5.75,2.84ZM28.07,87.72c.04.37.07.74.11,1.11,1.09-.16,2.18-.31,3.27-.47-.02-.21-.04-.42-.07-.63h-3.32ZM94.26,69.22c.14.26.29.53.44.8.14-.14.41-.31.39-.41-.07-.29-.25-.56-.39-.84-.14.14-.28.28-.44.44ZM100.32,61.9c-.14-.14-.31-.41-.41-.39-.29.07-.56.25-.84.39.14.14.31.41.41.39.29-.07.56-.25.84-.39Z"/>
      <path class="cls-1" d="M1.93,16.02c-.58-.64-1.11-1.24-1.93-2.14.99-1.1,1.88-2.15,2.84-3.14,3.61-3.72,7.72-6.31,13.22-5.62.52,1.01,1.05,2.05,1.73,3.36-6.16.37-9.77,6.01-15.86,7.53Z"/>
      <path class="cls-1" d="M100.32,43.79c2.39.28.6,2.42,1.7,3.58.47-.29.99-.61,2.42-1.49-.65,1.47-.77,2.47-1.32,2.84-.83.56-2.58-.77-2.8,1.31h-1.25c-.14-.35-.27-.69-.41-1.04l-.84,1.04c-2.46-.35-.38-2.29-.98-3.74.94.28,1.88.56,3.17.95.09-1,.2-2.23.31-3.45Z"/>
      <path class="cls-1" d="M91.48,15.13c-3.48-2.06-6.57-3.89-9.73-5.76,2.12-2.09,4.03.19,5.5.99,1.61.88,4.64.97,4.22,4.76Z"/>
      <path class="cls-1" d="M97.33,28.93c-.41-.41-.82-.65-.96-.99-.33-.8-.56-1.66-.75-2.51-.01-.04.66-.36,1.01-.35,1.64,0,1.16,1.29,1.17,2.17,0,.53-.28,1.07-.47,1.69Z"/>
      <path class="cls-1" d="M97.58,44.29c.67-1,1.35-2,2.1-3.11,1.6,2.28-.24,2.87-2.1,3.11Z"/>
      <path class="cls-1" d="M91.27,38.79v2.5h-.62v-2.5h.62Z"/>
      <path class="cls-1" d="M105.32,50.97h-2.5v-.62h2.5v.62Z"/>
      <path class="cls-1" d="M85.78,21.48c.26.14.53.29.8.44-.14.14-.31.41-.41.39-.29-.07-.56-.25-.84-.39.14-.14.28-.28.44-.44Z"/>
      <path class="cls-1" d="M83.98,20.78c-.14.14-.35.41-.4.39-.27-.15-.51-.36-.75-.55.19-.19.37-.37.56-.56.2.24.39.49.59.73Z"/>
      <path class="cls-1" d="M82.28,20.05c-.19-.25-.38-.49-.58-.74.26-.08.7-.28.76-.21.2.26.26.62.38.95-.19,0-.37,0-.56,0Z"/>
      <path class="cls-1" d="M79.89,18.63c-.26-.14-.53-.29-.8-.44.14-.14.31-.41.41-.39.29.07.56.25.84.39-.14.14-.28.28-.44.44Z"/>
      <path class="cls-1" d="M77.66,16.75c-.14.26-.29.53-.44.8-.14-.14-.41-.31-.39-.41.07-.29.25-.56.39-.84.14.14.28.28.44.44Z"/>
      <path class="cls-1" d="M15.28,10.79c-.14.14-.35.41-.4.39-.27-.15-.51-.36-.75-.55l.56-.56c.2.24.39.49.59.73Z"/>
      <path class="cls-1" d="M90.33,78.14c-.28.14-.54.33-.84.39-.1.02-.27-.25-.41-.39.28-.14.54-.33.84-.39.1-.02.27.25.41.39Z"/>
      <path class="cls-1" d="M91.48,75.74c-.14.14-.35.41-.4.39-.27-.15-.51-.36-.75-.55.19-.19.37-.37.56-.56.2.24.39.49.59.73Z"/>
    </g>
  </g>
</svg>