<?xml version="1.0" encoding="UTF-8"?>
<svg id="_레이어_2" data-name="레이어 2" xmlns="http://www.w3.org/2000/svg" viewBox="0 0 96.42 100">
  <defs>
    <style>
      .cls-1 {
        fill: #fff;
        stroke-width: 0px;
      }
    </style>
  </defs>
  <g id="_레이어_1-2" data-name="레이어 1">
    <g>
      <path class="cls-1" d="M11.79,70.35c-1.74-2.89-2.07-5.38-3.28-7.34-3.2-5.22-5.24-10.71-4.23-16.82.68-4.08-2.15-5.8-4.29-8.08,5.62-5.67,7.02-14.55,14.48-18.83,6.2-3.56,12.11-7.7,18.52-10.8,4.52-2.19,9.58-3.77,14.55-4.34,5.93-.69,12.03-.35,18.02,1.75h-14.76c-.12.52-.24,1.04-.36,1.55,1.24.51,2.47,1.02,3.71,1.53-3.82,1.63-5.92,1.52-9.73,1.7-2.96.14-6.34.9-8.69,2.57-3.52,2.5-7.36,5.51-9.2,9.23-5.92,11.93-11.64,24.08-11.41,37.96.08,4.69-.45,9.28,4.2,12.6,1.4,1,1.64,3.6,2.41,5.47h-9c5.23,3.59,8.21,5.71,11.27,7.7.83.54,2.38,1.3,2.76.98,4.98-4.23,8.66,1.06,12.95,1.56,7.27.84,14.43,2.57,21.06-3.47,4.21-3.84,10.05-5.71,13.67-10.76,4.9-6.84,7.06-13.95,6.72-22.52-.33-8.41,1.52-16.88,1.88-25.35.37-8.71.08-17.45.08-26.62h10.96c0,8.53-.17,16.87.07,25.19.13,4.49-.17,8.79,1.72,13.48,1.98,4.92-2.15,10.51-3.03,15.91-.43,2.65-.79,5.54-.18,8.08,1.52,6.37.61,10.26-5.14,13.49-2.82,1.58-4.15,3.06-4.51,6.33-.69,6.24-3.48,8.81-9.28,9.09-2.92.14-5.58,0-7.73,2.72-.88,1.11-3.07,1.61-4.68,1.65-7.29.17-14.72.95-21.86-.13-11.58-1.75-21.64-7.1-28.63-16.93-2.72-3.83-4.79-8.12-6.13-13.28,2.02,1.37,4.05,2.74,7.08,4.74.66.21.32-.21-.03-.64-.33.33-.65.65-.98.98.43.34.84.71,1.32.97.08.04.44-.42-.31-1.31ZM14.08,74.1c-.24.24-.73.54-.69.72.11.52.44.98.69,1.47.24-.24.73-.54.69-.72-.11-.52-.44-.98-.69-1.47Z"/>
      <path class="cls-1" d="M21.86,75.89c1.98,3.06,2.98,4.61,4.11,6.36-4.24,1.78-4.36-.85-4.11-6.36Z"/>
      <path class="cls-1" d="M65.6,99.31c-.49.24-.96.57-1.47.69-.18.04-.48-.44-.72-.69.49-.24.96-.57,1.47-.69.18-.04.48.44.72.69Z"/>
    </g>
  </g>
</svg>