<?xml version="1.0" encoding="UTF-8"?>
<svg id="_레이어_2" data-name="레이어 2" xmlns="http://www.w3.org/2000/svg" viewBox="0 0 97.49 100">
  <defs>
    <style>
      .cls-1 {
        fill: #fff;
        stroke-width: 0px;
      }
    </style>
  </defs>
  <g id="_레이어_1-2" data-name="레이어 1">
    <path class="cls-1" d="M97.11,54.02c1.69,8.17-2.55,15.97-6.98,23.58-6.49,11.13-17.27,16.61-28.78,20.97-4.14-1-7.84,1.51-11.9,1.44-3.36-.06-6.3-1.9-9.83-1.59-2.98.27-6.18-.42-9.08-1.33-3.03-.95-6.21-2.19-8.62-4.16-7.14-5.82-14.46-11.64-18.18-20.5C1.63,67.4-.07,62.22,0,56.65c.04-3.23.02-6.47,0-9.7-.03-9.23,3.36-17.4,8.07-25.05C13.34,13.36,21.18,7.86,30.22,3.81,39.37-.29,47.57-1.09,57.89,1.46c11.89,2.94,15.09,5,23.77,11.31,3.75,2.73,5.79,6.25,8.08,9.82,1.84,2.88,3.33,5.97,4.62,9.16,1.21,3.01,1.53,6.25,2.49,9.33,1.11,3.58.26,7.77.26,12.93ZM81.78,50.36c-.72-2.48,1.51-6.08-1.08-9.13-.27-6.23-4.47-10.69-7.46-15.56-2.44-3.97-6.75-6.41-10.69-8.98-2.84-1.85-6.22-2.01-9.27-2.56-7.71-1.4-14.32,2.47-21.07,5.63-5.04,2.36-6.9,7.17-9.96,11.06-3.42,4.35-6.5,8.94-5.61,14.97.05.37-.26.8-.42,1.2-1.45,3.66-1.39,7.06.26,10.87,1.16,2.67,2.15,5.63,2.82,8.49,1.63,6.95,6.61,10.64,11.99,14.34,6.28,4.32,13.01,6.39,20.6,5.39,2.19-.29,4.29.25,6.61-.73,5.88-2.48,10.22-5.3,14.78-10.79,5.65-6.79,9.24-14.33,8.51-24.19Z"/>
  </g>
</svg>