<?xml version="1.0" encoding="UTF-8"?>
<svg id="_레이어_2" data-name="레이어 2" xmlns="http://www.w3.org/2000/svg" viewBox="0 0 84.68 100">
  <defs>
    <style>
      .cls-1 {
        fill: #fff;
        stroke-width: 0px;
      }
    </style>
  </defs>
  <g id="_레이어_1-2" data-name="레이어 1">
    <path class="cls-1" d="M.32,7.9C16.4,4.88,30.24.89,44.27.06c12.68-.76,23.25,6.18,29.87,17.38,11.62,19.67,13.94,40.33,5.46,61.89-1.67,4.24-2.91,8.65-4.26,12.73-13.92,6.97-28.41,8.85-43.32,7.57C15.74,98.23,1.73,82.7.54,62.97-.53,45.19.32,27.3.32,7.9ZM44.54,56.04c1.27-5.96,3.07-10.54,2.78-14.97-.11-1.69-5.02-3.06-7.96-4.7-3.75,10.07-3.01,13.6,5.17,19.67Z"/>
  </g>
</svg>