<?xml version="1.0" encoding="UTF-8"?>
<svg id="_레이어_2" data-name="레이어 2" xmlns="http://www.w3.org/2000/svg" viewBox="0 0 105.21 100">
  <defs>
    <style>
      .cls-1 {
        fill: #fff;
        stroke-width: 0px;
      }
    </style>
  </defs>
  <g id="_레이어_1-2" data-name="레이어 1">
    <path class="cls-1" d="M66.92,2.58c2.78-2.86,10.99-3.56,14.54-.99,3.07,2.23,6.44,4.12,9.23,6.64,4.91,4.43,8.4,9.94,10.96,16.07.51,1.22,1.62,2.2,3.31,3.23,0,7.17.66,14.42-.15,21.5-1.22,10.59-5.18,19.76-15.92,24.68-6.6,3.03-12.8,6.94-19.08,10.62-1.59.93-2.81,2.49-4.23,3.79q-2.85,11.5-13.09,11.88c-2.59-1.13-4.59-1.87-6.47-2.86-1.56-.83-3.26-1.7-4.39-3-6.26-7.25-12.6-14.46-18.43-22.06-2.59-3.38-4.04-7.63-5.85-11.17-3.45.3-6.83.86-10.19.76-1.37-.04-3.2-1.17-3.97-2.35-4.09-6.24-4.39-12.48-.02-18.97,3.58-5.31,7.93-9.8,13.12-13.36,7.81-5.35,15.68-10.68,23.96-15.23,5.19-2.85,11.15-4.33,16.8-6.29,2.99-1.04,6.09-1.79,9.88-2.88ZM38.35,39.06c.07.45.33,1.32.33,2.2.04,9.15,4.18,16.93,9.3,23.87,3.67,4.97,8.54,9.67,16.16,7.55,5.5-1.53,12.05-.1,15.93-6.25,2.04-19.43-1.35-37.27-18-49.89-2.13-.17-3.86,0-5.39-.49-3.37-1.07-6.42-.1-8.38,2.26-3.99,4.8-7.47,10.03-8.66,16.4-.25,1.35-.77,2.64-1.28,4.35Z"/>
  </g>
</svg>