<?xml version="1.0" encoding="UTF-8"?>
<svg id="_레이어_2" data-name="레이어 2" xmlns="http://www.w3.org/2000/svg" viewBox="0 0 97.27 100">
  <defs>
    <style>
      .cls-1 {
        fill: #fff;
        stroke-width: 0px;
      }
    </style>
  </defs>
  <g id="_레이어_1-2" data-name="레이어 1">
    <path class="cls-1" d="M47.52,0c15.73.1,29.01,5.92,39.51,17.61,7.42,8.26,10.51,18.42,10.22,29.25-.2,7.28-.13,14.79-2.9,21.81-6.99,17.71-20.06,28.18-38.73,30.77-19.07,2.64-34.82-4.16-46.5-19.56C3.75,72.82,1.08,64.55.29,55.74c-.96-10.69.32-21.09,5.79-30.5C15.29,9.42,28.49-.14,47.52,0ZM66.85,51.09c-.03-4.24-1.28-8.35-3.96-12.07-6.15-8.52-17.76-11.71-26.57-2.41-4.79,5.06-6.08,11.21-5.14,17.95,1.3,9.37,12.04,17.05,21.32,15.25,7.9-1.54,14.42-10.05,14.35-18.72Z"/>
  </g>
</svg>