<?xml version="1.0" encoding="UTF-8"?>
<svg id="_레이어_2" data-name="레이어 2" xmlns="http://www.w3.org/2000/svg" viewBox="0 0 48.49 100">
  <defs>
    <style>
      .cls-1 {
        fill: #fff;
        stroke-width: 0px;
      }
    </style>
  </defs>
  <g id="_레이어_1-2" data-name="레이어 1">
    <path class="cls-1" d="M.55,59.95c0-11.03-.9-22.17.3-33.07C1.75,18.68,5.26,10.75,7.88,2.78c.33-1.01,2.28-2.01,3.54-2.1C17.41.25,23.42-.03,29.43,0c1.7,0,3.69.86,5.04,1.96,8.47,6.86,15.28,16.89,13.82,29.16-1.54,12.91-2.13,25.94-3.12,38.92-.4,5.3-.51,10.63-1.17,15.89-.89,7.14-6.96,13.23-14.58,13.76-8.47.59-17.02.13-25.53.24-3.13.04-3.92-1.47-3.89-4.35.11-11.88.04-23.76.04-35.63.17,0,.34,0,.51,0ZM28.61,63.12c.32-2.48.8-4.24.73-5.98-.31-8.32-.84-16.63-1.14-24.94-.16-4.7-2.56-6-7.56-5.09,0,8.5-.14,16.94.05,25.38.11,4.74,2.87,7.96,7.91,10.65Z"/>
  </g>
</svg>