<?xml version="1.0" encoding="UTF-8"?>
<svg id="_레이어_2" data-name="레이어 2" xmlns="http://www.w3.org/2000/svg" viewBox="0 0 81.04 100">
  <defs>
    <style>
      .cls-1 {
        fill: #fff;
        stroke-width: 0px;
      }
    </style>
  </defs>
  <g id="_레이어_1-2" data-name="레이어 1">
    <g>
      <path class="cls-1" d="M26.06,35.41c-1.65-3.05-3.13-5.52-4.37-8.11-2.65-5.51-2.53-11.23-.56-16.86.92-2.62,1.43-5.56,4.2-7.3.79-.49.89-2.06,1.31-3.14.28.02.55.05.83.07,0,.9.2,1.86-.03,2.7-2.65,9.55.09,17.74,6.72,24.61,3.25,3.36,7.2,6.05,10.92,8.94,4.76,3.7,9.59,7.32,14.43,10.91,1.14.85,2.39,1.71,3.73,2.13,4.33,1.36,6.64-.04,7.05-4.5.64-6.99-.49-13.58-4.13-19.85-3.39-5.84-8.67-8.53-14.54-10.7-6.37-2.35-12.8-1.94-19.27-.48-.65.15-1.32.18-2.39.33,1.07-2.48,3.1-2.83,4.82-3.24,7.65-1.82,15.45-2.35,23.01-.06,8.91,2.7,17.3,6.6,21.51,15.78,2.77,6.05,2.53,15.72-2.98,21.53-5.51,5.81-12.03,7.45-19.32,6.82-2.82-.24-5.73-1.93-8.19-3.57-6.63-4.43-13.03-9.19-19.53-13.81-1.26-.9-2.56-1.74-3.22-2.19Z"/>
      <path class="cls-1" d="M60.14,69.37c-.06,1.09.13,2.27-.22,3.27-1.13,3.26-2.27,6.54-3.72,9.66-2.51,5.4-6.49,9.71-11.66,12.53-8.99,4.91-18.36,7.38-28.33,2.59C6.19,92.6.73,84.69.08,73.59c-.44-7.46.99-14.72,3.97-21.46,3.25-7.33,8.59-13,16.27-16.03,1.13-.44,2.4-.52,3.6-.77.16.26.31.52.47.78-.63.77-1.13,1.72-1.92,2.27-5.25,3.68-7.48,9.14-9.29,14.96-2.26,7.25-2.91,14.62-2.05,22.12.37,3.21.81,6.48,1.77,9.54,2.84,9.02,14.52,13.38,22.48,10.28,5.24-2.04,9.54-4.89,13.49-8.71,2.97-2.88,4.68-6.43,6.45-10.01,1.22-2.46,2.46-4.91,3.68-7.37.38.06.76.11,1.14.17Z"/>
    </g>
  </g>
</svg>