<?xml version="1.0" encoding="UTF-8"?>
<svg id="_레이어_2" data-name="레이어 2" xmlns="http://www.w3.org/2000/svg" viewBox="0 0 82.15 100">
  <defs>
    <style>
      .cls-1 {
        fill: #fff;
        stroke-width: 0px;
      }
    </style>
  </defs>
  <g id="_레이어_1-2" data-name="레이어 1">
    <path class="cls-1" d="M64.03,47.58c.6-.6,3.17-5.01,3.51-6.3,2.08-8.03,4.01-16.08,2.57-24.47-.35-2.06-.82-4.14-1.59-6.07-1.67-4.18-.97-7.65,2.71-10.75.66.37,1.75.59,1.97,1.15,2.25,5.72,4.33,11.52,6.53,17.27,3.31,8.66,2.76,17.59,1.18,26.37-1.21,6.7-2.88,13.5-5.6,19.71-6.06,13.84-14.4,26.38-28.97,32.32-13.29,5.42-24.51,3.95-33.84-4.5C4.12,84.72.41,75.4.02,64.7c-.3-8.21,2.43-16.08,6.54-23.12,7.11-12.2,18.41-18.22,32.18-19.48,10.27-.94,17.63,5.53,21.77,14.86,1.52,3.43,2.44,7.14,3.64,10.72-1.51.72-3,1.77-4.62.23-2.46-9.04-3.53-10.41-9.56-16.78-6.67-7.05-18.09-5.94-24.55,1.52-5.36,6.2-7.7,13.47-8.99,21.2-1.63,9.76-1.92,19.69,1.31,29.12,3.48,10.16,9.85,16.49,22.6,11.74,5.22-1.94,8.1-6.03,10.8-10.08,5.97-8.97,9.32-19.18,12.15-29.51.66-2.4.51-5.02.74-7.53Z"/>
  </g>
</svg>