<?xml version="1.0" encoding="UTF-8"?>
<svg id="_레이어_2" data-name="레이어 2" xmlns="http://www.w3.org/2000/svg" viewBox="0 0 104.78 100">
  <defs>
    <style>
      .cls-1 {
        fill: #fff;
        stroke-width: 0px;
      }
    </style>
  </defs>
  <g id="_레이어_1-2" data-name="레이어 1">
    <path class="cls-1" d="M50.6,99.91c-14.24.79-27.44-3.61-38.01-13.76C1.57,75.56-.94,61.66.28,46.9,1.54,31.72,8.4,19.66,20.34,10.27,27.7,4.48,36.03,1.13,45.23.35c14.97-1.27,29.24.61,41.41,10.68,12.99,10.75,19.17,24.32,18,41.23-1.08,15.66-6.38,29.34-19.81,38.26-10.02,6.66-21.41,10.07-34.23,9.39ZM59.28,8.15c-.54.09-1.4.11-2.15.39-7.9,2.91-9.97,9.99-10.91,17.03-.88,6.59-.42,13.39-.13,20.08.33,7.61.82,15.24,1.84,22.78.62,4.57,2.15,9.06,3.74,13.42.48,1.31,2.43,2.55,3.9,2.82.67.12,2.31-2.07,2.6-3.41.67-3.12,1.04-6.36,1.06-9.55.1-15.31.05-30.62.05-45.93V8.15Z"/>
  </g>
</svg>