<?xml version="1.0" encoding="UTF-8"?>
<svg id="_레이어_2" data-name="레이어 2" xmlns="http://www.w3.org/2000/svg" viewBox="0 0 84.46 100">
  <defs>
    <style>
      .cls-1 {
        fill: #fff;
        stroke-width: 0px;
      }
    </style>
  </defs>
  <g id="_레이어_1-2" data-name="레이어 1">
    <path class="cls-1" d="M83.78,52.39c-.92-.98-.9-2.08-1.01-3.28-.39-4.14.33-8.3-.13-12.42-.22-1.99-.55-4.02-.84-6.01-.83-5.72-2.74-11.01-6.08-15.61C67.87,4.27,56.73.14,43.8.06c-2.51-.22-4.96.17-7.37.54-10.55,1.6-19.4,6.46-26.11,14.74C4.75,22.23,1.64,30.36.77,39.12c-.83,8.31-1.18,16.67-.06,25.03.82,6.15,2.3,12,5.97,17.12,1.45,2.02,2.65,4.31,4.45,5.95,8.66,7.93,19.29,10.57,30.71,11.04,2.69.11,5.3-.47,7.97-.49.76,0,1.6.1,1.36.88-.21.69-.68,1.09.34,1.31,1,.21,1.5-.73,1.34-1.22-.64-1.97.76-1.68,1.84-2.02,4.82-1.5,9.45-3.47,13.44-6.62,5.12-4.05,8.85-9,11.07-15.34,1.92-5.49,3.45-10.91,3.67-16.73.03-.74-.13-2,.84-2.74,1.13-.87.9-2.03.09-2.91ZM49.03,69.53c-.07,3.56-1.67,6.34-5.09,7.92-2.2,1.01-6.09-.5-7.96-2.24-2.71-2.52-3.06-5.91-2.99-9.14.18-7.77.09-15.53.1-23.29,0-3.24.02-6.49-.04-9.73-.07-3.53,1.35-6.57,3.1-9.45,1.23-2.02,6.37-2.78,8.5-1.5,3.01,1.81,4.35,4.42,4.29,7.96-.11,6.41-.03,12.83-.03,19.25.05,0,.1,0,.16,0,0,6.74.1,13.48-.04,20.22Z"/>
  </g>
</svg>