<?xml version="1.0" encoding="UTF-8"?>
<svg id="_레이어_2" data-name="레이어 2" xmlns="http://www.w3.org/2000/svg" viewBox="0 0 108.48 100">
  <defs>
    <style>
      .cls-1 {
        fill: #fff;
        stroke-width: 0px;
      }
    </style>
  </defs>
  <g id="_레이어_1-2" data-name="레이어 1">
    <path class="cls-1" d="M108.34,49.33c1.98,24.12-20.43,46.75-43.05,50.06-23.67,3.46-47.82-8.09-58.8-27.11C-6.28,50.17.31,23.65,21.76,9.74c22.51-14.6,52.01-12.9,71.93,5.83,9.7,9.12,15.81,20.27,14.65,33.76ZM53.66,26.57l-.47-1.21c-5.34,2.05-11.04,3.49-15.93,6.32-5.6,3.25-8.79,8.61-9.44,15.44-1.11,11.59,7.9,22.99,20.25,26.08,15.99,4,32.26-8,31.97-23.96-.23-12.57-11.86-22.56-26.38-22.67Z"/>
  </g>
</svg>