<?xml version="1.0" encoding="UTF-8"?>
<svg id="_레이어_2" data-name="레이어 2" xmlns="http://www.w3.org/2000/svg" viewBox="0 0 93.26 100">
  <defs>
    <style>
      .cls-1 {
        fill: #fff;
        stroke-width: 0px;
      }
    </style>
  </defs>
  <g id="_레이어_1-2" data-name="레이어 1">
    <path class="cls-1" d="M93.25,51.21c.34,21.88-9.85,36.69-29.37,45.74-15.94,7.39-38.25.8-47.78-13.9-4.88-7.53-8.61-15.54-12.65-23.48-7.71-15.13-1.25-26.47,6.79-37.9C17.93,10.77,28.08,3.03,41.58.72,45.52.05,49.63-.11,53.63.07c6.24.28,12.46,1.12,18.69,1.61,8.67.68,16.69,7.84,17.69,16.45,1.27,11,2.18,22.05,3.24,33.08ZM48.54,10.52c-6.59,8.15-7.47,17.47-8.03,26.64-.83,13.6-1.22,27.24-1.21,40.86,0,2.81,1.93,6.55,4.19,8.14,1.78,1.26,5.89.74,8.14-.49,6.28-3.42,10.05-9.59,10.71-16.29,1.01-10.34.77-20.86.32-31.27-.2-4.56-2.24-9.03-3.51-13.79-1.27.83-1.8,1.18-2.34,1.53-3.04-4.9-2.06-11.8-8.26-15.33Z"/>
  </g>
</svg>