<?xml version="1.0" encoding="UTF-8"?>
<svg id="_레이어_2" data-name="레이어 2" xmlns="http://www.w3.org/2000/svg" viewBox="0 0 198.73 97.63">
  <defs>
    <style>
      .cls-1 {
        fill: #fff;
        stroke-width: 0px;
      }
    </style>
  </defs>
  <g id="_레이어_1-2" data-name="레이어 1">
    <path class="cls-1" d="M104.45,97.63c-16.82-1-33.69-1.53-50.45-3.2-8.7-.87-17.52-2.85-25.71-5.91-13.75-5.14-22.6-15.72-26.97-29.61-4.38-13.93,2.57-31.26,15.41-40.14C34.71,6.34,54.5.08,76.49.71c7.78.22,15.59-.62,23.39-.7,20.22-.2,40.16,2.16,59.63,7.62,14.15,3.97,25.78,11.98,34.13,24.17,7.56,11.05,8.15,35.93-8.45,47.19-11.36,7.71-23.71,11.35-36.75,13.99-14.52,2.93-29.16,4.39-44.01,4.65ZM101.14,29.05c-.02.18-.05.37-.07.55-1.51,0-3.03-.13-4.53.02-7.43.78-15.11.5-21.53,5.4-9.71,7.43-16.77,23.19-1.15,33.8,16.32,11.08,40.23,9.5,55.24-1.18,1.82-1.3,3.68-3.19,4.43-5.22,5.43-14.68-3.09-26.79-15.87-30.98-5.21-1.71-11-1.65-16.53-2.39Z"/>
  </g>
</svg>