<?xml version="1.0" encoding="UTF-8"?>
<svg id="_레이어_2" data-name="레이어 2" xmlns="http://www.w3.org/2000/svg" viewBox="0 0 95.56 100">
  <defs>
    <style>
      .cls-1 {
        fill: #fff;
        stroke-width: 0px;
      }
    </style>
  </defs>
  <g id="_레이어_1-2" data-name="레이어 1">
    <path class="cls-1" d="M0,49.63c.17-15.45,5.66-28.48,17.79-38.32C25.3,5.23,33.89,1.3,43.56.21c5.11-.58,10.18.11,15.17,1.44,6.68,1.79,12.85,4.68,17.8,9.49,9.9,9.62,17.3,20.61,18.77,34.92,1.11,10.76-1.18,20.52-6.84,29.66-6.47,10.45-15.5,17.78-27.05,21.72-11.9,4.06-23.73,3.35-34.97-2.45-7.43-3.83-13.18-9.57-17.75-16.63-4.58-7.07-7.38-14.69-8.39-23-.23-1.89-.21-3.81-.3-5.72ZM35.19,50.51c.1,1.96.11,3.93.31,5.88.35,3.48,1.31,6.77,3.32,9.69,3.37,4.9,8.9,5.86,13.75,2.41,3.07-2.18,4.45-5.43,5.2-8.87,1.56-7.17,1.72-14.42.51-21.68-.57-3.38-1.43-6.65-3.39-9.53-2-2.94-4.73-4.42-8.34-3.86-4.33.67-7.17,3.24-8.7,7.24-2.3,6.03-2.83,12.33-2.65,18.72Z"/>
  </g>
</svg>