<?xml version="1.0" encoding="UTF-8"?>
<svg id="_레이어_2" data-name="레이어 2" xmlns="http://www.w3.org/2000/svg" viewBox="0 0 76.55 100">
  <defs>
    <style>
      .cls-1 {
        fill: #fff;
        stroke-width: 0px;
      }
    </style>
  </defs>
  <g id="_레이어_1-2" data-name="레이어 1">
    <path class="cls-1" d="M71.28.17c.23,5.43,2.95,11.38-4.69,14.35-.24.09-.44.45-.52.72-6.19,21.86-14.09,43.39-14.07,67.83h24.56c-.43,5.66-.77,10.16-1.29,16.93H0c3.16-2.81,7.08-6.61,11.33-9.96,2.48-1.96,5.45-4.43,8.3-4.56,9.31-.43,14.54-5.38,19.52-12.8,12.5-18.63,11.24-39.88,14.53-61.33h-17.58c-3.26-6.7-.25-10.58,6.51-11.03,9.33-.62,18.73-.16,28.66-.16Z"/>
  </g>
</svg>