<?xml version="1.0" encoding="UTF-8"?>
<svg id="_레이어_2" data-name="레이어 2" xmlns="http://www.w3.org/2000/svg" viewBox="0 0 54.58 100">
  <defs>
    <style>
      .cls-1 {
        fill: #fff;
        stroke-width: 0px;
      }
    </style>
  </defs>
  <g id="_레이어_1-2" data-name="레이어 1">
    <g>
      <path class="cls-1" d="M29.8,51.84c-1.49.77-2.44,1.67-2.75,3.11-.23,1.04-.85,1.62-1.91,1.66-3.75.17-3.86,1.27-4.5,4.7-.43,2.28-.42,4.63-.61,6.99-1,.34-1.31-.23-1.29-1.19.06-3.17.21-6.33.16-9.5-.05-3.29.14-6.65-1.02-9.81-.39-1.08-1.12-2.11-1.92-2.95-.84-.88-1.34-1.54-.17-2.47,1.04-.83,2.06-1.69,3.08-2.54.4-.33.76-.7,1.28-1.18-6.06-1.09-11.84.4-17.8.52.34-2.44,1.64-4.02,3.32-5.19,2.35-1.63,4.85-3.06,7.28-4.58.39-.24.75-.52,1.29-.9-3.14-1.07-6.11-.67-9.22-.6.23-.26.43-.55.68-.79,1.43-1.38,2.99-2.66,4.28-4.16,1.2-1.39.99-3.15.63-4.85-.33-1.6-.55-3.24-.96-4.82-.4-1.57-.97-3.1-1.46-4.66-.1-.33-.16-.67-.24-1.01.12-.08.23-.17.35-.25.41.33.9.6,1.22,1.01.88,1.11,1.73,2.23,2.5,3.42,1.45,2.23,3.8,3.06,6.12,4.19.58-3.17-3-4.42-3.05-7.38,1.61.29,3.21.55,4.79.87,1.76.36,3.52.71,5.25,1.19,1.11.3,1.52-.29,1.86-1.1,1.25-2.93,2.49-5.87,3.73-8.8.07-.17.18-.33.41-.76,7.17,3.76,9.88,10.07,10.79,17.67,1.04-2.09,1.79-4.29,2.02-6.56.25-2.35.05-4.74.05-7.1,3.72-.06,7.44,2.37,8.7,5.56,1.93,4.88,2.4,9.9,1.21,15.05-.27,1.16-.76,2-2,2.4-.72.23-1.32.85-1.97,1.29.08.13.15.26.23.39.12,0,.27.04.36,0,2.85-1.46,2.68-.94,3.64,1.71.32.89.05,1.54-.98,1.9-3.12,1.12-5.11,3.55-6.78,6.41.35-.15.71-.28,1.05-.45,1.84-.87,4.19-.38,5.52,1.18.15.17.3.42.3.63.02,2.13.01,4.26.01,6.79-3.07-.78-6.02-1.53-9.06-2.31-.29,1.25-.48,2.4-.85,3.49-.16.46-.64,1.08-1.05,1.14-1.51.24-2.42,1.06-3.06,2.38-.23.49-.69.87-1.04,1.31-.14-.03-.28-.07-.41-.1,0-.64,0-1.28,0-1.92,0-.83.21-1.77-.1-2.46-.38-.82-1.13-1.89-1.88-2.04-1.22-.23-.87,1.1-.94,1.82-.15,1.5-.19,3.01-.29,4.51-.02.29.05.71-.11.84-1.18.95-2.4,1.85-3.77,2.89-.36-1.74-.63-3.05-.95-4.59ZM35.38,13.34c.66,2.11,1.02,2.52,2.54,2.58.42.02.95-.21,1.24-.51.16-.16.03-.75-.12-1.06-.37-.73-2.79-1.36-3.67-1.01ZM46.71,19.04c.17.02.33.04.5.05.7-.77,1.41-1.54,2.11-2.31-.08-.14-.16-.28-.24-.42-.75.18-1.72.14-2.19.6-.38.38-.14,1.36-.18,2.07ZM40.55,43.17c-1.15-.7-1.58-1.9-3.29-1.68.95,1,1.26,2.33,3.29,1.68ZM36.8,20.44c-2.11-.43-2.29-.28-1.96,1.48.71-.54,1.34-1.01,1.96-1.48Z"/>
      <path class="cls-1" d="M15.5,72.11c4.43.19,8.1.13,11.51,1.72,2.95,1.36,5.05,3.66,5.93,6.68,1.57,5.42.9,10.53-3.24,14.76-1.97,2.01-4.53,2.99-7.16,3.77-4.98,1.48-9.94,1.19-14.8-.48C2.63,96.8-.05,92.5,0,86.91c.06-6.75,3.37-12.16,10.54-13.85,1.88-.44,3.79-.73,4.96-.95Z"/>
    </g>
  </g>
</svg>