<?xml version="1.0" encoding="UTF-8"?>
<svg id="_레이어_2" data-name="레이어 2" xmlns="http://www.w3.org/2000/svg" viewBox="0 0 59.98 100">
  <defs>
    <style>
      .cls-1 {
        fill: #fff;
        stroke-width: 0px;
      }
    </style>
  </defs>
  <g id="_레이어_1-2" data-name="레이어 1">
    <path class="cls-1" d="M59.98,100H.61c.41-1.49.9-2.88,1.16-4.3.25-1.38.25-2.8.37-4.27.77.12,1.49.15,2.17.34,2.39.66,4.4-.38,6.37-1.44,2.15-1.16,2.52-3.22,2.5-5.41-.06-9.06-.16-18.12-.21-27.18-.06-10.66-.02-21.33-.18-31.99-.05-3.41-.48-6.83-.96-10.22-.39-2.82-2.07-4.97-4.75-5.88-1.37-.47-3.05-.27-4.54-.06C.38,9.9.02,9.73,0,7.55,0,5.04,0,2.53,0,0h56.67c0,2.61.06,5.11-.07,7.6-.02.36-.93.79-1.5.97-2.9.91-4.43,2.67-4.74,5.67-.18,1.73-.43,3.45-.46,5.18-.09,4.94-.08,9.88-.11,14.81-.02,3.57-.04,7.13-.03,10.7.02,9.79-.04,19.59.11,29.38.06,3.92.4,7.85.91,11.74.4,3.08,1.95,3.97,5.3,4.61,1.07.21,2.16.33,3.23.57.26.06.64.44.64.68.05,2.59.03,5.19.03,8.09Z"/>
  </g>
</svg>