<?xml version="1.0" encoding="UTF-8"?>
<svg id="_레이어_2" data-name="레이어 2" xmlns="http://www.w3.org/2000/svg" viewBox="0 0 57.87 100">
  <defs>
    <style>
      .cls-1 {
        fill: #fff;
        stroke-width: 0px;
      }
    </style>
  </defs>
  <g id="_레이어_1-2" data-name="레이어 1">
    <path class="cls-1" d="M43.4,0v6.96c3.87,0,7.6.12,11.31-.04,2.31-.1,3.22.65,3.14,3.01-.13,3.8-.03,7.6-.03,12.12-2.54-5-6.68-4.6-10.71-4.43-2.06.09-3.05.9-2.98,3.32.51,18.59.86,37.19,1.25,55.78.07,3.46.13,6.93.14,10.39,0,2.13.69,3.3,3.14,3.1,2.44-.2,4.91-.04,7.97-.04,0,2.93.14,5.58-.1,8.19-.06.62-1.37,1.56-2.15,1.6-2.76.14-5.54-.08-8.31-.11-12.86-.12-25.73-.24-38.59-.32-4.67-.03-4.67.03-4.72-4.71-.01-.98,0-1.96,0-3.33,2.7,0,5.24-.1,7.76.03,2.08.11,2.8-.73,2.77-2.75-.28-22.16-.49-44.32-.79-66.48-.02-1.65.46-3.84-2.02-4.36-2.23-.47-4.25-.2-5.77,1.94-.46.65-1.77.99-2.65.92-.51-.04-1.28-1.14-1.34-1.82-.35-3.8-.51-7.61-.74-11.4,3.96.18,7.39.43,10.82.47,3.4.04,3.93-.61,3.73-4.02C14.31.06,14.31.02,18.15.01c8.3-.02,16.59,0,25.25,0Z"/>
  </g>
</svg>