<?xml version="1.0" encoding="UTF-8"?>
<svg id="_레이어_2" data-name="레이어 2" xmlns="http://www.w3.org/2000/svg" viewBox="0 0 34.09 100">
  <defs>
    <style>
      .cls-1 {
        fill: #fff;
        stroke-width: 0px;
      }
    </style>
  </defs>
  <g id="_레이어_1-2" data-name="레이어 1">
    <g>
      <path class="cls-1" d="M12.53,30.89h13.65c.59,17.15,1.18,34.15,1.76,50.99-4.93-3.86-9.99-7.73-14.92-11.77-.76-.62-1.27-2-1.28-3.03-.04-11.35.04-22.71.13-34.06,0-.67.41-1.34.66-2.13Z"/>
      <path class="cls-1" d="M0,99.98c1.17-5.05,2.05-9.34,3.24-13.53.2-.69,1.76-1.4,2.69-1.41,9.25-.1,18.51-.06,28.08-.06,0,4.21.23,8.07-.14,11.87-.11,1.13-1.91,2.97-2.97,3-10.11.23-20.23.14-30.91.14Z"/>
      <path class="cls-1" d="M30.63,0c0,5.49.14,10.64-.12,15.78-.05.99-1.6,2.62-2.59,2.73-14.54,1.56-14.54,1.51-14.54-13.03,0-1.71,0-3.41,0-5.48h17.25Z"/>
    </g>
  </g>
</svg>