<?xml version="1.0" encoding="UTF-8"?>
<svg id="_레이어_2" data-name="레이어 2" xmlns="http://www.w3.org/2000/svg" viewBox="0 0 61.46 100">
  <defs>
    <style>
      .cls-1 {
        fill: #fff;
        stroke-width: 0px;
      }
    </style>
  </defs>
  <g id="_레이어_1-2" data-name="레이어 1">
    <g>
      <path class="cls-1" d="M27.97,15.35c1.66-.14,3.01-.26,4.95-.43.09,1.86.22,3.47.24,5.07.16,16.4.17,32.8.47,49.19.27,14.3,6.09,20.95,20.1,23.52,2.47.45,4.96.74,7.72,1.14v6.16H0c.08-1.87.19-4.18.31-6.89,2.25-.37,4.27-.71,6.3-1.04,2.21-.36,4.45-.62,6.63-1.11,11.88-2.69,13.75-4.57,14.02-16.64.41-18.49.36-37,.52-55.5,0-.98.11-1.95.2-3.47Z"/>
      <path class="cls-1" d="M42.05,0c.22,2.28.34,3.63.56,5.94H12.21c.48-1.66,1.08-3.72,1.72-5.94h28.11Z"/>
    </g>
  </g>
</svg>