<?xml version="1.0" encoding="UTF-8"?>
<svg id="_레이어_2" data-name="레이어 2" xmlns="http://www.w3.org/2000/svg" viewBox="0 0 42.24 100">
  <defs>
    <style>
      .cls-1 {
        fill: #fff;
        stroke-width: 0px;
      }
    </style>
  </defs>
  <g id="_레이어_1-2" data-name="레이어 1">
    <path class="cls-1" d="M2.4,3.87c.17-1.45.32-2.72.45-3.87h39.4c-.23,1.8-.4,3.19-.58,4.66-3.57.35-7.02.74-10.49,1.02-5.2.43-7.32,2.05-7.77,7.28-.51,5.92-.47,11.9-.56,17.85-.21,15.51-.39,31.02-.49,46.54-.02,3.42.2,6.84.46,10.25.27,3.71,1.88,6.61,5.71,7.65,2.73.74,5.52,1.29,8.3,1.81,2.3.43,2.49.59,2.51,2.94H.33c-.12-1.31-.21-2.4-.33-3.68,3.85-.48,7.44-.91,11.04-1.38,4.4-.57,4.88-.92,4.9-5.27.07-12.45.01-24.91-.02-37.36-.03-8.95.02-17.9-.19-26.84-.12-5.14-.41-10.31-1.11-15.39-.52-3.8-2.53-5.23-6.4-5.68-1.8-.21-3.61-.33-5.82-.52Z"/>
  </g>
</svg>