<?xml version="1.0" encoding="UTF-8"?>
<svg id="_레이어_2" data-name="레이어 2" xmlns="http://www.w3.org/2000/svg" viewBox="0 0 54.59 100">
  <defs>
    <style>
      .cls-1 {
        fill: #fff;
        stroke-width: 0px;
      }
    </style>
  </defs>
  <g id="_레이어_1-2" data-name="레이어 1">
    <path class="cls-1" d="M.96,1.34c.03-.58.05-.95.07-1.34h46.56c.12.78.24,1.55.4,2.64-1.14.14-2.12.25-3.1.39-2.97.41-5.99.97-7.3,4.08-.66,1.58-.82,3.46-.82,5.2-.08,19.01-.08,38.03-.1,57.04,0,3.56-.14,7.12.08,10.67.14,2.36.53,4.78,1.29,7.01,1.33,3.91,4.65,5.51,8.45,6.29,2.72.56,5.44,1.12,8.1,1.67v3.64c-18.11.44-36.14-.97-54.25,1.37-.12-1.33-.22-2.39-.34-3.69,1.09-.15,2.01-.3,2.93-.4,4.57-.51,6.8-2.41,7.51-6.99.42-2.68.43-5.45.44-8.17.04-23.11.03-46.23.04-69.34,0-2.38-.47-4.7.33-7.14.7-2.15-.33-2.91-2.62-2.92-1.81-.01-3.61-.32-5.42-.4-.66-.03-1.33.22-2.26.39Z"/>
  </g>
</svg>