<?xml version="1.0" encoding="UTF-8"?>
<svg id="_레이어_2" data-name="레이어 2" xmlns="http://www.w3.org/2000/svg" viewBox="0 0 45.36 100">
  <defs>
    <style>
      .cls-1 {
        fill: #fff;
        stroke-width: 0px;
      }
    </style>
  </defs>
  <g id="_레이어_1-2" data-name="레이어 1">
    <g>
      <path class="cls-1" d="M24.35,100H0V0c3.12,0,5.99,0,8.85,0s5.77,0,8.95,0c0,1.03,0,1.88,0,2.73,0,24.61-.05,49.21.05,73.82.02,4.45.48,8.91,1.05,13.33.38,2.91,1.62,5.71,4.06,7.43,1.15.82,1.4,1.52,1.39,2.69Z"/>
      <path class="cls-1" d="M29.79,54.69c0-5.63-.04-11.64.05-17.65,0-.67.57-1.5,1.11-1.98,2.04-1.77,4.28-3.32,6.27-5.15,2.27-2.1,4.9-2.92,8.14-2.88,0,4.03,0,8.02-.01,12.02,0,.23-.09.52-.25.68-5.23,5.13-10.47,10.24-15.31,14.97Z"/>
    </g>
  </g>
</svg>