<?xml version="1.0" encoding="UTF-8"?>
<svg id="_레이어_2" data-name="레이어 2" xmlns="http://www.w3.org/2000/svg" viewBox="0 0 37.79 100">
  <defs>
    <style>
      .cls-1 {
        fill: #fff;
        stroke-width: 0px;
      }
    </style>
  </defs>
  <g id="_레이어_1-2" data-name="레이어 1">
    <g>
      <path class="cls-1" d="M16.34,83.9h-5.48v-47.37c1.51-.48,3.37-1.08,5.48-1.75v49.13Z"/>
      <path class="cls-1" d="M32.42,0c1.66,1.01,3.44,2.1,5.37,3.28-5.14,2.91-10.03,5.55-14.06,9.6-2.36,2.37-5.26,4.19-7.77,6.41-2.39,2.11-3.93,5.01-6.75,6.83-3.01,1.95-5.64,4.49-8.59,6.89-1.16-3.06-.79-5.48,1.78-7.81,7.65-6.93,15.04-14.15,22.75-21.03,2.03-1.81,4.81-2.79,7.27-4.16Z"/>
      <path class="cls-1" d="M13.3,84.94c1.29,3.35,2.48,5.88,3.19,8.55.23.89-.56,2.3-1.27,3.14-1.07,1.25-2.03,2.59-4.2,2.57-3.22-.02-6.67,2.59-9.78-1.51,1.5-1.64,3.56-2.28,5.54-3.31,1.68-.87,4.79-1.39,3.95-4.96-.23-.97,1.3-2.36,2.58-4.48Z"/>
    </g>
  </g>
</svg>