<?xml version="1.0" encoding="UTF-8"?>
<svg id="_레이어_2" data-name="레이어 2" xmlns="http://www.w3.org/2000/svg" viewBox="0 0 41.54 100">
  <defs>
    <style>
      .cls-1 {
        fill: #fff;
        stroke-width: 0px;
      }
    </style>
  </defs>
  <g id="_레이어_1-2" data-name="레이어 1">
    <g>
      <path class="cls-1" d="M41.54,31.42c-10.57,17.52-10.44,36.63-13.62,54.95-.19,1.07.85,2.36,1.42,3.79,2.26.26,4.51.52,7.15.82v8.5c-12.43,1.95-24.1-2.17-36.49-2.99v-9.05c2.84.43,5.45.83,8.98,1.36,4.65-15.85,7.07-32.1,8.18-48.67-4.05-.89-7.46-1.63-11.06-2.42,1.08-5.37,4.5-6.31,8.61-6.3,8.55.01,17.1,0,26.83,0Z"/>
      <path class="cls-1" d="M35.19,2.51c.53,3.87,1.91,7.29,1.17,10.17-1.01,3.95-2,8.99-7.72,9.32-5.91.34-11.27-1.4-15.15-5.93-2.69-3.14-2.02-7.83,1.2-11.29,1.54-1.66,3.64-2.8,6.29-4.77,3.9.69,8.37,1.48,14.21,2.51ZM21.21,16.48c.77.34,1.55.69,2.32,1.03.34-1.8.68-3.6,1.01-5.41-.45-.14-.89-.27-1.34-.41-.67,1.59-1.33,3.19-2,4.78Z"/>
    </g>
  </g>
</svg>