<?xml version="1.0" encoding="UTF-8"?>
<svg id="_레이어_2" data-name="레이어 2" xmlns="http://www.w3.org/2000/svg" viewBox="0 0 39.1 100">
  <defs>
    <style>
      .cls-1 {
        fill: #fff;
        stroke-width: 0px;
      }
    </style>
  </defs>
  <g id="_레이어_1-2" data-name="레이어 1">
    <g>
      <path class="cls-1" d="M1.85,1.56c-.12.61-.24,1.21-.36,1.82h-.36c-.09-.86-.18-1.72-.28-2.59-.27-.14-.56-.29-.85-.44.02-.12.04-.24.06-.36h39.04v7.55c-2.97.51-3.7,3.53-5.62,5.29-.81.74-1.39,1.26-2.33.33-.22.23-.4.43-.69.73-.17-.54-.31-.95-.49-1.5-.66.52-1.11,1.35-2.15.94-.62-.25-1.35-.2-2.25-.31.01-.02-.14.27-.31.59-.75-.8-3.32-.87-3.86-.38-1.24.07-2.22.13-3.42.2-.02-.01-.43-.46-.64-.38-.55.2-1,.64-1.47.98H2.67c-.24-4.35-.47-8.43-.7-12.5-.04.01-.08.02-.12.03Z"/>
      <path class="cls-1" d="M19.82,36.69c.66,1.17,1.43,2.3,1.95,3.53,2.01,4.69,4.09,9.36,5.87,14.14,1.93,5.19,3.56,10.5,5.3,15.76.13.38.19.79.3,1.26h-9.31c-.88-2.7-1.78-5.39-2.64-8.09-1.53-4.79-3.27-9.48-5.4-14.04-.71-1.51-1.47-3.03-1.91-4.62-.35-1.28-.26-2.68-.39-4.22,1.29.33,1.51-.66,2.08-1.34,1.07-1.29,2.42-2.23,4.17-2.42l-.03.03Z"/>
      <path class="cls-1" d="M3.04,99.87c-1.04-2.26-.67-4.47-.46-6.93.44.37.78.57,1.02.86,2.54,3.1,5.76,4.64,9.82,4.59,4.05-.05,8.11.24,12.15.09,2.05-.08,4.07-.79,6.09-1.22.13,1.82-.41,2.49-2.23,2.51-7.99.09-15.97.16-23.96.23-.78,0-1.56-.08-2.43-.13Z"/>
      <path class="cls-1" d="M18.22,14.2h2.38v2.42h-2.1c-.09-.81-.18-1.56-.28-2.42Z"/>
      <path class="cls-1" d="M19.85,36.66c-.16.02-.44.09-.47.04-.55-1.11-1.08-2.22-1.61-3.34.19-.08.37-.17.56-.25.5,1.19.99,2.39,1.49,3.58,0,0,.03-.03.03-.03Z"/>
      <path class="cls-1" d="M16.31,29.45c.59,1.11,1.17,2.22,1.78,3.37-.79-.1-2.06-2.23-1.78-3.37Z"/>
    </g>
  </g>
</svg>