<?xml version="1.0" encoding="UTF-8"?>
<svg id="_레이어_2" data-name="레이어 2" xmlns="http://www.w3.org/2000/svg" viewBox="0 0 35.79 100">
  <defs>
    <style>
      .cls-1 {
        fill: #fff;
        stroke-width: 0px;
      }
    </style>
  </defs>
  <g id="_레이어_1-2" data-name="레이어 1">
    <path class="cls-1" d="M3.27,2.24C14.6,1.46,25.14.73,35.67,0c.04.53.08,1.06.12,1.59-2.83,0-5.72.38-8.47-.08-6.04-1.02-7.78,1.79-7.69,7.26.14,8.76-.08,17.52-.06,26.28.03,11.14-.37,22.31.44,33.4.52,7.16,2.61,14.26,4.61,21.21.47,1.63,3.38,2.64,5.28,3.73,1.4.81,2.99,1.29,4.5,1.92-.14.54-.28,1.09-.41,1.63-11.16,1.01-22.32,2.01-33.99,3.06,7.01-4.05,6.19-11.06,6.12-16.72-.29-24.67-1.43-49.33-2.29-74-.08-2.16-.34-4.31-.56-7.03Z"/>
  </g>
</svg>