<?xml version="1.0" encoding="UTF-8"?>
<svg id="_레이어_2" data-name="레이어 2" xmlns="http://www.w3.org/2000/svg" viewBox="0 0 33.31 100">
  <defs>
    <style>
      .cls-1 {
        fill: #fff;
        stroke-width: 0px;
      }
    </style>
  </defs>
  <g id="_레이어_1-2" data-name="레이어 1">
    <path class="cls-1" d="M28.8,0c4.92.72,5.06.81,3.92,4.21-3.25,9.69-6.8,19.28-9.79,29.04-2.69,8.78-4.72,17.75-7.17,26.6-2.83,10.21-5.71,20.4-8.76,30.54-.79,2.64-2.16,5.14-3.52,7.56-.43.76-1.71,1.05-3.48,2.05.61-3.99.73-6.94,1.55-9.68,3.66-12.3,7.48-24.55,11.31-36.8,4.44-14.2,9.02-28.37,13.41-42.59,1.1-3.58,1.71-7.31,2.54-10.93Z"/>
  </g>
</svg>