<?xml version="1.0" encoding="UTF-8"?>
<svg id="_레이어_2" data-name="레이어 2" xmlns="http://www.w3.org/2000/svg" viewBox="0 0 34.39 100">
  <defs>
    <style>
      .cls-1 {
        fill: #fff;
        stroke-width: 0px;
      }
    </style>
  </defs>
  <g id="_레이어_1-2" data-name="레이어 1">
    <path class="cls-1" d="M34.39,0c-1.5,6.62.88,14.66-9.35,15.35-.66.04-1.55,3.59-1.56,5.51-.1,18.57-.37,37.15.27,55.7.12,3.42,4.08,6.71,6.27,10.05.8-.37,1.61-.74,2.41-1.11v14.5c-10.66-.57-20.66-1.1-30.91-1.64-1.69-6.15-3.66-11.54,4.39-14.87,1.69-.7,2.36-5.43,2.4-8.32.22-17.17.37-34.35-.1-51.5-.09-3.46-3.39-6.71-4.43-10.29C2.59,9.31,2.27,4.98,1.46,0h32.93Z"/>
  </g>
</svg>