<?xml version="1.0" encoding="UTF-8"?>
<svg id="_레이어_2" data-name="레이어 2" xmlns="http://www.w3.org/2000/svg" viewBox="0 0 38.59 100">
  <defs>
    <style>
      .cls-1 {
        fill: #fff;
        stroke-width: 0px;
      }
    </style>
  </defs>
  <g id="_레이어_1-2" data-name="레이어 1">
    <g>
      <path class="cls-1" d="M25.3,96.53s0,.02,0,.02c-.25,1.14-.64,2.91-.75,3.45H.26c-.08-1.22-.16-2.28-.26-3.71h7.91v-55.67h-3.98c-.05-1.07-.11-2.32-.18-3.81h17.65c-.09,1.03-.18,2.01-.27,3.12-.67.21-1.34.41-2.4.74,0,7.59.02,15.22,0,22.85-.03,10.28-.08,20.57-.16,30.85,0,1.33.06,2.17,1.83,2.16,1.09,0,3.13,0,4.63,0h.29Z"/>
      <path class="cls-1" d="M27.91,17.81c-5.27-.67-9.72-.68-12.71-4.56-1.85-2.4-2.59-5.09-1.54-8.04.17-.47,1.07-1.16,1.29-1.05,1.54.76,2.22-.35,3.17-1.13,3.28-2.7,10.81-4.77,15.49-.88,1.42,1.18,3.1,2.35,3.92,3.92,2.32,4.39.6,7.27-3.14,9.47-2.17,1.28-4.84,1.72-6.49,2.27ZM28.03,11c1.29-.25,2.45-.26,3.41-.72.81-.39,1.38-1.29,2.06-1.96-.75-.71-1.47-1.97-2.26-2.02-3.72-.22-7.45-.15-11.18-.04-.54.02-1.05.85-1.57,1.3.46.5.84,1.3,1.41,1.46,2.74.77,5.52,1.36,8.14,1.98Z"/>
    </g>
  </g>
</svg>