<?xml version="1.0" encoding="UTF-8"?>
<svg id="_레이어_2" data-name="레이어 2" xmlns="http://www.w3.org/2000/svg" viewBox="0 0 32.24 100">
  <defs>
    <style>
      .cls-1 {
        fill: #fff;
        stroke-width: 0px;
      }
    </style>
  </defs>
  <g id="_레이어_1-2" data-name="레이어 1">
    <path class="cls-1" d="M17.01,100v-46.11c-5.07,0-9.89-.07-14.71.04-1.7.04-2.38-.33-2.28-2.17.16-2.92.17-5.86,0-8.78-.11-1.89.68-2.28,2.31-2.16,1.2.09,2.42.02,3.62-.04,1.62-.08,2.99-.45,4.07-1.95,1.15-1.59,2.1-1.29,2.7.56.61,1.87,1.8,2.44,3.58,1.57.38-.18.71-.86.72-1.32.11-4.96.16-9.92.21-14.88.07-7.5.14-15.01.16-22.51,0-1.57.48-2.26,2.19-2.21,3.69.1,7.38.05,11.06-.04,1.31-.03,1.61.51,1.61,1.7-.03,20.75-.04,41.49-.05,62.24,0,11.2-.08,22.4,0,33.6.01,1.9-.6,2.34-2.39,2.3-3.68-.08-7.37.1-11.06.16-.49,0-.99,0-1.72,0Z"/>
  </g>
</svg>