<?xml version="1.0" encoding="UTF-8"?>
<svg id="_레이어_2" data-name="레이어 2" xmlns="http://www.w3.org/2000/svg" viewBox="0 0 34.02 100">
  <defs>
    <style>
      .cls-1 {
        fill: #fff;
        stroke-width: 0px;
      }
    </style>
  </defs>
  <g id="_레이어_1-2" data-name="레이어 1">
    <g>
      <path class="cls-1" d="M34.02,99.99c-1.98,0-3.85.03-5.71,0-8.91-.19-17.82-.38-26.73-.68-.58-.02-1.6-1.04-1.58-1.57.03-.9.6-2.44,1.16-2.55,4.67-.88,5.19-4.58,5.25-8.07.19-12.32.11-24.64.05-36.96-.01-2.66-.59-5.09-3.87-5.69-1.86-.34-1.8-1.96-1.5-3.26.17-.76,1.02-1.86,1.68-1.95,6.36-.89,12.73-1.87,19.13-2.3,8.25-.55,11.75,3.79,11.44,12.14-.49,13.47-.52,26.95-.55,40.43,0,3.3.76,6.61,1.24,10.47Z"/>
      <path class="cls-1" d="M18.75,25.04c-5.97.44-11.47-5.69-11.17-13.07C7.82,5.92,10.64-.31,18.31.01c7.78.32,10.95,3.99,11.79,12.35.61,6.06-5.13,13.24-11.35,12.67Z"/>
    </g>
  </g>
</svg>