<?xml version="1.0" encoding="UTF-8"?>
<svg id="_레이어_2" data-name="레이어 2" xmlns="http://www.w3.org/2000/svg" viewBox="0 0 120.16 100">
  <defs>
    <style>
      .cls-1 {
        fill: #fff;
        stroke-width: 0px;
      }
    </style>
  </defs>
  <g id="_레이어_1-2" data-name="레이어 1">
    <path class="cls-1" d="M7.05,83.51h20.03V15.73H0V0h120.09c0,4.54.25,8.49-.17,12.37-.11,1.01-2.24,2.48-3.52,2.56-5.09.29-10.21.12-15.68.12v84.66h-17.82V15.47c-4.88-.41-9.21-.77-13.82-1.15-.33-1.65-.66-3.32-1.06-5.35-1.96.61-3.82,1.19-5.99,1.86.88,4.42-1.91,5.08-5.35,5.06-3.97-.03-7.93,0-12.35,0v67.37c7.6-1.64,12.95,1.96,16.77,7.4,1.47,2.1.67,5.79.95,9.3-11.97,0-23.12,0-34.27,0-1.62,0-3.24.02-4.86.05-10.28.15-15.96-5.56-15.88-16.49Z"/>
  </g>
</svg>