<?xml version="1.0" encoding="UTF-8"?>
<svg id="_레이어_2" data-name="레이어 2" xmlns="http://www.w3.org/2000/svg" viewBox="0 0 37.77 100">
  <defs>
    <style>
      .cls-1 {
        fill: #fff;
        stroke-width: 0px;
      }
    </style>
  </defs>
  <g id="_레이어_1-2" data-name="레이어 1">
    <g>
      <path class="cls-1" d="M29.05,6.65c-2.23.11-3.69.19-5.77.3.88-2.51,1.58-4.52,2.43-6.95,2.3.66,4.35.96,6.07,1.87.86.45,1.66,2.04,1.59,3.07-.15,2.38-.54,4.83-1.36,7.05-1.91,5.16-4.15,10.19-6.24,15.29-.62,1.52-1.38,3.02-1.68,4.61-.28,1.44-.02,2.98.4,4.41-2.6,6.13-5.34,12.21-7.76,18.42-4.25,10.92-8.1,21.98-9.23,33.74-.29,3.05.17,6.18.28,9.27.03.75,0,1.5,0,2.28-5.14-1-7.02-3.59-7.57-9.87-.66-7.43.32-14.66,2.04-21.89,3.57-15.04,10.51-28.65,17.47-42.27,2.47-4.83,5.03-9.6,7.48-14.44.67-1.33,1.08-2.81,1.85-4.88Z"/>
      <path class="cls-1" d="M24.97,31.45c3.74-8.36,7.47-16.72,11.26-25.19,1.89,1.96,1.67,4.5,1.26,6.74-1.24,6.83-4.46,12.72-9.37,17.65-.4.41-.9.74-1.4,1.02-.32.18-.72.2-1.09.3l-.66-.52Z"/>
    </g>
  </g>
</svg>