<?xml version="1.0" encoding="UTF-8"?>
<svg id="_레이어_2" data-name="레이어 2" xmlns="http://www.w3.org/2000/svg" viewBox="0 0 53 100">
  <defs>
    <style>
      .cls-1 {
        fill: #fff;
        stroke-width: 0px;
      }
    </style>
  </defs>
  <g id="_레이어_1-2" data-name="레이어 1">
    <path class="cls-1" d="M0,21.22v-11.02c4.17-.94,8.36-1.97,12.58-2.83C24.62,4.93,36.69,2.57,48.74.11c1.87-.38,2.37.21,2.55,2.05.4,3.97,1.11,7.91,1.71,12-2.47.64-4.86,1.16-7.19,1.88-4.29,1.34-6.4,4.04-6.37,8.56.1,17.75.3,35.5.47,53.25,0,.33.03.66.06.98.5,6.73,2.16,8.26,8.91,8.22.65,0,1.29,0,2.16,0v12.93H4.2v-13.13c.4-.16.54-.27.67-.26,5.85.57,6.41.12,6.31-5.85-.27-16.68-.58-33.36-.94-50.04-.11-5.12-2.02-8.17-5.64-9.09-1.4-.36-2.9-.27-4.61-.41Z"/>
  </g>
</svg>