<?xml version="1.0" encoding="UTF-8"?>
<svg id="_레이어_2" data-name="레이어 2" xmlns="http://www.w3.org/2000/svg" viewBox="0 0 71.58 100">
  <defs>
    <style>
      .cls-1 {
        fill: #fff;
        stroke-width: 0px;
      }
    </style>
  </defs>
  <g id="_레이어_1-2" data-name="레이어 1">
    <path class="cls-1" d="M37.87,92.09c-.28,1.51.7,1.79,1.85,1.88,1.53.12,3.06.2,4.82.32.24,1.61.48,3.17.77,5.14-2.52.12-4.83.31-7.13.33-11.4.09-22.81.13-34.21.19-.65,0-1.33.13-1.94-.03-.74-.2-1.99-.62-2.01-1-.08-1.24.07-2.57,1.83-2.9,1.65-.32,3.39-.65,4.84-1.43,2.98-1.61,4.87-3.89,4.91-7.69.19-21.7.57-43.41.86-65.11.05-3.45,0-3.45-3.57-3.18-.48.04-.97.04-1.45.11-1.92.3-2.66-.54-2.55-2.43.08-1.53-.03-3.08-.03-4.61,0-.31.08-.62.16-1.17.88-.05,1.74-.12,2.6-.13,11.75-.08,23.49-.17,35.24-.19,1.73,0,2.76-.56,3.65-2.11C50.2,1.56,55.32-1.02,62.7.36c2.01.38,4.25,1.89,5.47,3.56,1.51,2.07,2.48,4.76,2.94,7.32,1.17,6.51.28,12.66-4.14,18.03-5.34,6.49-12.8,6.83-18.58.72-2.54-2.68-5.17-5.27-7.79-7.87-1.3-1.29-2.59-1.12-3.15.6-.48,1.44-.48,3.04-.69,4.57.28.09.56.18.84.27.45-.82.89-1.65,1.34-2.47.24.01.48.03.71.04,0,4.25.02,8.49,0,12.74-.09,15.31-.18,30.62-.33,45.92-.02,2.42-.32,4.85-.59,7.26-.05.4-.61.75-.94,1.12,1.5-16.03.29-32.07.48-48.51-2.09,1.02-1.62,2.56-1.64,3.7-.13,5.73-.07,11.47-.16,17.21-.13,8.34-.33,16.68-.51,25.02-.03,1.36-.12,2.74,1.92,2.49ZM19.33,36.59c.36-.01.72-.03,1.08-.04.35-5.86.7-11.72,1.04-17.58-.3-.13-.61-.27-.91-.4-.4.58-1.13,1.14-1.15,1.73-.21,4.83-.31,9.67-.4,14.51-.01.59.22,1.19.34,1.78Z"/>
  </g>
</svg>