<?xml version="1.0" encoding="UTF-8"?>
<svg id="_레이어_2" data-name="레이어 2" xmlns="http://www.w3.org/2000/svg" viewBox="0 0 17.22 97.06">
  <defs>
    <style>
      .cls-1 {
        fill: #fff;
        stroke-width: 0px;
      }
    </style>
  </defs>
  <g id="_레이어_1-2" data-name="레이어 1">
    <path class="cls-1" d="M17.22,90.59c0,3.75-1.46,6.22-3.76,6.44-2.67.26-4.21-1.01-4.67-4.21-1.49-10.36-3.16-20.71-4.29-31.12-1.56-14.43-2.76-28.89-3.97-43.35C.13,13.7.15,9.03,0,4.36-.05,2.41.15.49,2.6.09c2.48-.41,4.34.65,5.18,2.97.48,1.33.55,2.84.58,4.28.45,21.9,1.94,43.69,6.23,65.24,1.19,5.99,1.78,12.1,2.63,18.02Z"/>
  </g>
</svg>