<?xml version="1.0" encoding="UTF-8"?>
<svg id="_레이어_2" data-name="레이어 2" xmlns="http://www.w3.org/2000/svg" viewBox="0 0 150.72 100">
  <defs>
    <style>
      .cls-1 {
        fill: #fff;
        stroke-width: 0px;
      }
    </style>
  </defs>
  <g id="_레이어_1-2" data-name="레이어 1">
    <path class="cls-1" d="M43.29,96.04c-.07,1.19-.12,1.95-.16,2.6-14.44-.26-28.73-.51-43.13-.77v-2.05c.87-.08,1.7-.24,2.53-.22,8.48.18,13.25-4.65,15.06-12.28,1.87-7.91,1.03-15.91,1.46-23.86.25-4.62.05-9.26.05-13.89,1.85-.82,3.51-.98,5.01.53,5.35,5.41,12.23,6.66,19.38,6.95,10.75.44,21.51.72,32.39,1.07.11-.85.25-1.4.25-1.94-.02-13.21-.02-26.41-.11-39.62-.01-1.84-.29-3.72-.78-5.49-.69-2.48-3.16-2.68-5.12-3.18-2.11-.54-4.37-.5-6.68-.72V0h38.97v4.27c-1.48.07-2.8.16-4.13.19-.78.02-1.57-.12-2.35-.11-4.62.07-5.83,1.01-6.16,5.48-.33,4.4-.39,8.83-.42,13.25-.06,8.42-.02,16.84-.02,25.26.19-.05.38-.1.56-.15.48,1.68.97,3.37,1.56,5.43.94,0,2.21,0,3.47,0,7.57-.04,15.15.16,22.69-.24,4-.21,8.11-1.02,11.88-2.38,4.03-1.45,7.1-4.38,7.98-8.96.16-.85.43-1.68,1.17-2.46.06.24.17.47.16.71-.22,7.91-.57,15.82-.66,23.74-.09,7.64,0,15.28.13,22.91.11,6.47,2.15,8.82,9.7,9.52.84.08,1.69.01,2.76.01v3.53h-34.15v-3.37c2.38-.29,4.65-.46,6.87-.85,5.2-.92,6.93-2.77,6.98-8.03.09-9.84-.05-19.68-.03-29.53,0-1.95-1.08-2.71-2.73-2.87-2.34-.23-4.7-.43-7.05-.43-9.64,0-19.28.06-28.91.11-.49,0-.99.04-1.89.09,0,1.5-.01,2.96,0,4.42.09,8.35.02,16.7.36,25.04.2,4.79,3.02,7.24,7.79,7.71,1.2.12,2.4.33,4.14.58-.24,1.62-.47,3.2-.73,5.04h-38.15c-.05-.91-.1-1.86-.17-3.1,1.76-.28,3.44-.52,5.1-.82,5.28-.93,7.7-3.41,7.87-8.77.31-9.63.37-19.27.52-28.9,0-.28-.07-.56-.14-1H26.9c-.17,2.23-.46,4.13-.42,6.02.16,7.56.27,15.12.7,22.67.38,6.75,4.92,11.09,11.63,11.63,1.4.11,2.79.25,4.48.41Z"/>
  </g>
</svg>