<?xml version="1.0" encoding="UTF-8"?>
<svg id="_레이어_2" data-name="레이어 2" xmlns="http://www.w3.org/2000/svg" viewBox="0 0 43.26 100">
  <defs>
    <style>
      .cls-1 {
        fill: #fff;
        stroke-width: 0px;
      }
    </style>
  </defs>
  <g id="_레이어_1-2" data-name="레이어 1">
    <path class="cls-1" d="M25.25,48.33v26.52c12.04.9,12.13.94,12.9,6.88h-15.63c-.31,4.45-.8,8.58-.73,12.69.02.96,1.77,2.4,2.98,2.74,3.16.91,6.45,1.34,9.57,2.84H9.57c.55-9.68,1.59-19.47,1.56-29.24-.07-17.18-.63-34.36-1.37-51.53-.16-3.71-1.56-7.55-3.2-10.94-1.03-2.12-3.59-3.49-6.56-6.19C9.39,1.3,17.44.62,24.76,0v41.72c5.53.92,10.15,1.53,14.68,2.54,1.4.31,2.55,1.7,3.82,2.59-1.38.84-2.77,2.38-4.15,2.38-4.44.02-8.89-.53-13.86-.9Z"/>
  </g>
</svg>