<?xml version="1.0" encoding="UTF-8"?>
<svg id="_레이어_2" data-name="레이어 2" xmlns="http://www.w3.org/2000/svg" viewBox="0 0 35.75 100">
  <defs>
    <style>
      .cls-1 {
        fill: #fff;
        stroke-width: 0px;
      }
    </style>
  </defs>
  <g id="_레이어_1-2" data-name="레이어 1">
    <path class="cls-1" d="M.56,0c8.82.79,17.64,1.57,26.45,2.38,1.94.18,2.28,1.2,1.7,3.02-7.08,22.07-7.91,44.87-7.37,67.74.13,5.6,1.91,11.41,4.12,16.63,1.26,2.96,4.89,4.93,7.5,7.3.85.77,1.86,1.37,2.79,2.05-.09.3-.18.59-.26.89H3.02c0-16.1-.22-32.01.07-47.9.21-11.24,1.2-22.47,1.65-33.72.16-4.1-.15-8.22-.45-12.32-.05-.75-1.03-1.46-1.63-2.15C1.8,2.93.89,1.98,0,1.02.19.68.37.34.56,0Z"/>
  </g>
</svg>