<?xml version="1.0" encoding="UTF-8"?>
<svg id="_레이어_2" data-name="레이어 2" xmlns="http://www.w3.org/2000/svg" viewBox="0 0 47.98 100">
  <defs>
    <style>
      .cls-1 {
        fill: #fff;
        stroke-width: 0px;
      }
    </style>
  </defs>
  <g id="_레이어_1-2" data-name="레이어 1">
    <path class="cls-1" d="M17.56,9.08c-3.92-1.55-7.26-2.88-11.05-4.38C19.46,3.09,31.75,1.56,44.26,0c-2,11.24.16,22.32.76,33.49.92,17.18.17,34.44,0,51.67-.03,3.42-.62,6.84-.98,10.51.62.15,1.26.13,1.67.43.82.61,1.52,1.39,2.27,2.09-.88.39-1.76,1.11-2.64,1.12-10.82.1-21.65.06-32.48.15-2.84.02-5.68.58-8.52.53-1.45-.03-2.9-.85-4.34-1.31.02-.44.04-.89.07-1.33,3.55-1.02,7.09-2.07,10.65-3.05,5.3-1.46,6.09-2.12,6.17-7.5.36-25.45.59-50.91.86-76.36,0-.57-.15-1.15-.17-1.36Z"/>
  </g>
</svg>