<?xml version="1.0" encoding="UTF-8"?>
<svg id="_레이어_2" data-name="레이어 2" xmlns="http://www.w3.org/2000/svg" viewBox="0 0 79.91 100">
  <defs>
    <style>
      .cls-1 {
        fill: #fff;
        stroke-width: 0px;
      }
    </style>
  </defs>
  <g id="_레이어_1-2" data-name="레이어 1">
    <path class="cls-1" d="M20.54.14C14.04-.3,7.46.42,1.02.6.64,4.7.34,7.9,0,11.58c4.14-5.77,9.61-6.81,15.69-6.04,1.88.24,3.77.55,5.59,1.06,6.65,1.87,6.71,1.91,6.73,8.75.08,22.86.11,45.72.16,68.58.02,7.46-.95,8.67-8.11,10.42-2.05.5-4.05,1.23-6.08,1.85.09.49.18.98.27,1.47,19.66.78,39.31,1.55,58.97,2.33,0-.25.02-.49.03-.74-5.92-.61-11.85-1.23-17.87-1.85-.15-2.55-.35-4.44-.35-6.33.02-26.42.14-52.84,0-79.26-.02-3.49,1.33-4.46,4.36-5.14,6.62-1.48,13.24-1.73,19.88-1.54.19-1.22.4-2.44.64-3.67-19.79.16-39.58-.03-59.37-1.34Z"/>
  </g>
</svg>