<?xml version="1.0" encoding="UTF-8"?>
<svg id="_레이어_2" data-name="레이어 2" xmlns="http://www.w3.org/2000/svg" viewBox="0 0 96.49 100">
  <defs>
    <style>
      .cls-1 {
        fill: #fff;
        stroke-width: 0px;
      }
    </style>
  </defs>
  <g id="_레이어_1-2" data-name="레이어 1">
    <path class="cls-1" d="M96.42,81.27H16.67v18.73H0V0C1.41,0,2.69,0,3.98,0c12.68.07,25.36.11,38.04.21,12.87.1,25.75.24,38.62.39,1.79.02,3.58.16,5.37.2,5.08.11,8.51,2.83,9.16,7.89.6,4.64.94,9.34.99,14.01.2,19.16.24,38.33.33,57.49,0,.24-.03.48-.06,1.08ZM54.74,62.21s0,.03,0,.05c2.51,0,5.03-.01,7.54,0,4.79.03,9.58.11,14.37.09,2.53,0,4.04-1.39,4.08-3.89.09-5.36.13-10.73,0-16.1-.08-3.6-1.75-6.32-5.09-8-3.78-1.9-7.62-3.66-11.82-4.26-6.84-.97-13.7-1.89-20.58-2.46-5.77-.47-11.59-.43-17.39-.57-2.34-.06-4.11,1.1-5.29,3.01-.8,1.3-1.53,2.73-1.89,4.2-1.33,5.53-1.75,11.15-1.28,16.85.35,4.29,2.38,7.24,6.57,8.35,3.2.84,6.45,1.72,9.73,1.94,6.99.48,14.01.54,21.02.78Z"/>
  </g>
</svg>