<?xml version="1.0" encoding="UTF-8"?>
<svg id="_레이어_2" data-name="레이어 2" xmlns="http://www.w3.org/2000/svg" viewBox="0 0 71.38 93.06">
  <defs>
    <style>
      .cls-1 {
        fill: #fff;
        stroke-width: 0px;
      }
    </style>
  </defs>
  <g id="_레이어_1-2" data-name="레이어 1">
    <path class="cls-1" d="M0,0C1.84,0,4.61,0,7.38,0c12.15.03,24.3.14,36.45.08,18.71-.09,30.01,13.68,27.09,32.18-2.28,14.42-15.05,21.93-27.59,22.57-8.08.41-16.19.08-24.98.08,0,7.12,0,13.72,0,20.32,0,3.66-.04,7.32-.07,10.99q-.06,6.82-7.14,6.84c-2.83,0-5.66,0-8.49-.04-.48,0-.95-.2-2.65-.57V0ZM18.83,14.15v25.82c7.57,0,14.73.27,21.86-.07,7.65-.37,13.02-6.45,12.85-13.81-.14-6.23-5.89-11.65-13.09-11.88-7.09-.23-14.2-.05-21.61-.05Z"/>
  </g>
</svg>