<?xml version="1.0" encoding="UTF-8"?>
<svg id="_레이어_2" data-name="레이어 2" xmlns="http://www.w3.org/2000/svg" viewBox="0 0 71.02 103">
  <defs>
    <style>
      .cls-1 {
        fill: #fff;
        stroke-width: 0px;
      }
    </style>
  </defs>
  <g id="_레이어_1-2" data-name="레이어 1">
    <path class="cls-1" d="M17.98,58.95c0,13.13-.19,25.58.1,38.03.1,4.39-1.35,5.75-5.59,5.89C0,103.28,0,103.42,0,91.24V.07C3.42.07,6.52-.1,9.6.1c13.54.88,27.2,1.06,40.58,3.05,11.47,1.71,20.38,13.28,20.81,24.16.56,14.29-5.9,24.8-18.45,28.8-5.1,1.62-10.58,2.33-15.95,2.74-5.93.46-11.93.1-18.61.1ZM17.16,15.99c0,8.82-.11,16.94.13,25.06.03,1.04,1.82,2.88,2.84,2.91,6.47.21,13,.48,19.41-.18,8.24-.85,12.21-6.01,11.97-14.16-.23-7.66-4.33-13.12-11.1-13.53-7.58-.46-15.22-.1-23.26-.1Z"/>
  </g>
</svg>