<?xml version="1.0" encoding="UTF-8"?>
<svg id="_레이어_2" data-name="레이어 2" xmlns="http://www.w3.org/2000/svg" viewBox="0 0 68.67 103.01">
  <defs>
    <style>
      .cls-1 {
        fill: #fff;
        stroke-width: 0px;
      }
    </style>
  </defs>
  <g id="_레이어_1-2" data-name="레이어 1">
    <path class="cls-1" d="M16.7,103.01H0V.1C11.9.1,23.59-.17,35.25.18c10.27.31,19.74,3.1,27.04,11.09,3.92,4.28,6.24,9.05,6.19,14.93-.03,2.83.11,5.66.18,8.49.23,8.82-7.19,19.1-15.75,22.54-10.12,4.07-20.45,3.54-30.81,3.58-4.53.02-5.59,1.54-5.5,5.81.27,12.1.09,24.2.09,36.4ZM16.96,42.85c7.42,0,14.52.39,21.56-.13,5.2-.39,9.11-5.48,10.09-11.5.72-4.41-2.32-9.88-6.3-12.46-6.82-4.43-14.5-3.94-22.02-4.08-1.09-.02-3.14,2.44-3.19,3.82-.31,7.94-.15,15.9-.15,24.35Z"/>
  </g>
</svg>