<?xml version="1.0" encoding="UTF-8"?>
<svg id="_레이어_2" data-name="레이어 2" xmlns="http://www.w3.org/2000/svg" viewBox="0 0 96.05 104.93">
  <defs>
    <style>
      .cls-1 {
        fill: #fff;
        stroke-width: 0px;
      }
    </style>
  </defs>
  <g id="_레이어_1-2" data-name="레이어 1">
    <path class="cls-1" d="M24.58,68.55c0,10.5.02,20.3,0,30.1-.02,5.92-2.17,7.48-7.75,5.43-4.13-1.52-8.55-2.74-12.11-5.18-2.04-1.39-3.56-4.9-3.66-7.52-.57-14.64-.68-29.3-.84-43.96C.08,35.43.24,23.44,0,11.45c-.09-4.35,1.54-5.72,5.8-5.93,4.25-.21,8.41-1.94,12.67-2.32C32.38,1.94,46.31.63,60.26.04c9.29-.4,18.11,2.18,25.92,7.55,4.19,2.88,7.76,6.18,8.62,11.57,1.74,10.97,2.24,22.09-2.34,32.32-5.75,12.88-17.44,16.78-30.57,17.02-12.13.22-24.27.05-37.31.05ZM24.79,49.75c7.17,0,13.94.27,20.69-.08,6.09-.32,12.25-.87,18.2-2.12,6.13-1.29,10.72-5.09,13.05-11.18,5.06-13.26-6.68-21.8-16.22-22.33-10.78-.6-21.62-.31-32.43-.18-1.11.01-3.14,1.64-3.16,2.54-.22,10.93-.14,21.86-.14,33.35Z"/>
  </g>
</svg>