<?xml version="1.0" encoding="UTF-8"?>
<svg id="_레이어_2" data-name="레이어 2" xmlns="http://www.w3.org/2000/svg" viewBox="0 0 77.39 100">
  <defs>
    <style>
      .cls-1 {
        fill: #fff;
        stroke-width: 0px;
      }
    </style>
  </defs>
  <g id="_레이어_1-2" data-name="레이어 1">
    <path class="cls-1" d="M.26,2.16C25.88,1.44,51.18.72,76.68,0c.14,1.17.28,1.84.29,2.51.15,6.87.31,13.74.42,20.61.11,7.12-1.74,13.79-5.48,19.78-2.31,3.7-5.85,6.3-9.73,8.34-6.23,3.28-13.08,4.03-19.9,4.84-2.09.25-4.19.3-6.91.49-.18,2.82-.48,5.58-.51,8.35-.05,6.87-.21,13.75.11,20.6.37,7.71,3.46,9.12,10.61,9.84,5.49.55,10.99.99,16.49,1.5.41.04.81.18,1.36.3.12.76.24,1.5.45,2.83H1.48v-2.04c.3-.19.56-.46.88-.55,3.78-.99,4.79-3.68,4.73-7.25-.22-13.03-.1-26.08-.57-39.1-.42-11.53-1.37-23.04-2.26-34.54-.25-3.2-1.42-6.21-4.26-8.53.08-1.89.17-3.92.26-5.82ZM47.05,3.34l.28.43c-1.51.77-3.01,1.58-4.54,2.32-3.45,1.66-5.51,4.32-6.06,8.13-.35,2.45-.97,4.89-1.06,7.35-.28,8.14-.41,16.28-.49,24.42-.02,1.8.39,3.6.62,5.64,7.7-.38,15.05-.95,21.8-4.63,6.69-3.65,11.45-8.74,13.66-16.25,1.54-5.21,1.57-10.33.32-15.47-.64-2.62-1.51-5.46-3.14-7.52C63.64,1.67,56.97.31,49.63,1.62c-.93.17-1.72,1.12-2.57,1.71Z"/>
  </g>
</svg>