<?xml version="1.0" encoding="UTF-8"?>
<svg id="_레이어_2" data-name="레이어 2" xmlns="http://www.w3.org/2000/svg" viewBox="0 0 102.19 100">
  <defs>
    <style>
      .cls-1 {
        fill: #fff;
        stroke-width: 0px;
      }
    </style>
  </defs>
  <g id="_레이어_1-2" data-name="레이어 1">
    <path class="cls-1" d="M98.21,0c0,2,.06,3.43-.01,4.86-.14,2.66.34,5.13,1.38,7.63,1.56,3.73,2.3,7.73,2.52,11.78.12,2.09-.05,4.2.06,6.29.38,7.25-3.23,11.96-9.31,15.37-5.69,3.19-11.84,4.6-18.19,5.12-8.48.69-17,.98-25.5,1.43-1.04.05-2.08,0-3.37,0-.08.76-.25,1.57-.25,2.38-.02,11.08.02,22.17-.02,33.25-.02,5.42,1.59,6.4,6.82,6.89,2.01.19,4.02.26,6.25.39.08,1.62.15,3.02.23,4.61H0v-4.17h10.21c3.7-6.75,2.15-14.19,2.23-21.44.12-10.1.02-20.2,0-30.29,0-.58-.09-1.15.23-1.61.29-.63.82-1.26.83-1.89.21-8.32.33-16.64.52-24.96.05-2.09.26-4.18.33-6.28.06-1.62-.75-2.68-2.37-2.84-1.82-.19-3.65-.22-5.48-.27-1.28-.04-2.55,0-3.92,0V0h95.61ZM45.56,46.16c.44.14.68.27.94.28,6.83.4,13.64.27,20.29-1.52,4.24-1.14,7.04-3.91,7.5-8.37.49-4.8.85-9.65.77-14.47-.05-3.23-.77-6.48-1.52-9.65-1.06-4.51-4.07-7.18-8.7-7.53-6.06-.46-12.14-.62-18.22-.89-.31-.01-.62.09-1.06.17v41.98Z"/>
  </g>
</svg>