<?xml version="1.0" encoding="UTF-8"?>
<svg id="_레이어_2" data-name="레이어 2" xmlns="http://www.w3.org/2000/svg" viewBox="0 0 100.29 100">
  <defs>
    <style>
      .cls-1 {
        fill: #fff;
        stroke-width: 0px;
      }
    </style>
  </defs>
  <g id="_레이어_1-2" data-name="레이어 1">
    <path class="cls-1" d="M0,99.94C0,72.68,0,46.77,0,20.86c0-5.8.19-11.61.11-17.41C.07.3,1.6-.15,4.3.04c14.76,1.05,29.54,1.84,44.29,2.99,10,.78,20.01,1.66,29.93,3.11,8.07,1.18,14.3,6.21,19.84,11.87,1.25,1.28,1.95,3.66,1.94,5.53-.06,6.64-.14,13.33-1.09,19.87-.31,2.11-2.99,4.89-5.13,5.53-7.29,2.2-14.77,3.91-22.28,5.18-6.53,1.11-13.21,1.38-20.43,2.08,0,3.79.06,7.32-.02,10.85-.08,3.58.06,7.22-.55,10.72-2.5,14.47-10.99,21.76-25.71,22.12-7.81.19-15.63.03-25.07.03Z"/>
  </g>
</svg>