<?xml version="1.0" encoding="UTF-8"?>
<svg id="_레이어_2" data-name="레이어 2" xmlns="http://www.w3.org/2000/svg" viewBox="0 0 76.42 100">
  <defs>
    <style>
      .cls-1 {
        fill: #fff;
        stroke-width: 0px;
      }
    </style>
  </defs>
  <g id="_레이어_1-2" data-name="레이어 1">
    <path class="cls-1" d="M0,21.02C.61,13.8,1.19,6.99,1.76.14c3.17,0,6.07,0,8.98,0C22.61.1,34.48.1,46.35,0c10.66-.09,18.1,5.26,23.61,13.83,9.44,14.66,8.48,31.28-2.58,43.21-2.54,2.74-5.02,5.53-7.42,8.39-6.56,7.83-15.04,9.91-24.75,8.48-1-.15-2.02-.27-3.03-.32-.55-.03-1.1.11-2.31.25,0,2.78-.04,5.56,0,8.34.1,5.09.35,10.18.28,15.26-.01.86-1.3,2.41-2.04,2.43-5.97.2-11.96.11-18.52.11,0-.7-.03-1.89,0-3.07.56-23.18,1.13-46.37,1.69-69.55.02-1.02-.1-2.04-.07-3.05.09-2.68-1.22-3.55-3.79-3.33-2.23.19-4.49.04-7.45.04ZM45.06,50c.12-.23.23-.45.35-.68,1.13-.09,2.27-.08,3.38-.28,4.84-.89,7.74-3.89,9.07-8.53,1.14-3.97,1.58-7.9-1.84-11.03-4.27-3.92-9.43-6.27-15.03-7.44-4.72-.98-8.18,1.99-8.29,6.73-.1,4.3-.18,8.6-.16,12.89,0,.94.18,2.43.77,2.74,3.85,2.01,7.83,3.77,11.76,5.61Z"/>
  </g>
</svg>