<?xml version="1.0" encoding="UTF-8"?>
<svg id="_레이어_2" data-name="레이어 2" xmlns="http://www.w3.org/2000/svg" viewBox="0 0 91.98 100">
  <defs>
    <style>
      .cls-1 {
        fill: #fff;
        stroke-width: 0px;
      }
    </style>
  </defs>
  <g id="_레이어_1-2" data-name="레이어 1">
    <path class="cls-1" d="M0,100v-45.42c6.53,0,13.09,0,19.66,0,9.31-.01,18.65-.52,27.93.08,11.78.75,16.31-12,12.39-20.05-1.31-2.7-3.63-3.81-6.31-3.6-5.56.44-11.25.63-16.59,2.06-11.57,3.09-23.12,4.12-35.28,2.07V.03C5.09.03,8.43-.05,11.76.04c15.57.43,31.15.87,46.72,1.37,10.16.33,19.24,3.14,25.52,11.83,4.57,6.31,7.47,13.32,7.73,21.17.2,6.04.53,12.16-.16,18.14-1.25,10.82-5.61,20.26-14.71,26.92-5.53,4.05-12.19,4.41-18.59,5.05-10.59,1.06-21.24,1.53-31.87,2.26-.76.05-1.52.15-2.58.25v12.97H0Z"/>
  </g>
</svg>