<?xml version="1.0" encoding="UTF-8"?>
<svg id="_레이어_2" data-name="레이어 2" xmlns="http://www.w3.org/2000/svg" viewBox="0 0 57.94 100">
  <defs>
    <style>
      .cls-1 {
        fill: #fff;
        stroke-width: 0px;
      }
    </style>
  </defs>
  <g id="_레이어_1-2" data-name="레이어 1">
    <g>
      <path class="cls-1" d="M3.28,27.78c3.13.19,4.39,1.38,4.35,4.05-.07,4.85-.07,9.69,0,14.54.05,3.67,1.01,4.7,4.5,4.74,7.03.07,14.06-.12,21.08.08,3.26.09,6-1.52,8.12-3.13,5.05-3.83,9.94-8.1,12.82-14.01,2.52-5.17,2.67-14.73-2.94-18.66-.78-.55-1.38-1.35-3.26-3.23.91,2.49,1.53,3.52,1.62,4.59.18,2.1.05,4.22.05,7.75-1.29-2.54-2.49-3.9-2.64-5.37-.53-5.32-4.03-8.01-8.26-10.19-4.18-2.16-8.48-3.33-13.34-3.01-5.75.39-11.55.09-17.92.09.75,3.91-1.08,7.6,1.46,11.22.68.97-.2,3.14-.55,4.71-.33,1.52-.9,2.99-1.35,4.43-1.13,0-2.1,0-3.07,0-.24-.39-.68-.77-.68-1.16-.04-6.54-.09-13.09,0-19.63.03-2.57,1.31-3.85,3.86-3.91C15.91,1.47,24.57-.46,33.43.1c5.62.36,10.79,2.09,15.57,4.59,4.53,2.36,6.56,7.26,7.65,11.97,1.31,5.64,2.24,11.39-.39,17.21-3.33,7.35-7.52,13.59-15.04,17.33-5.47,2.71-11.21,3.87-17.13,4.23-5.07.31-10.17.06-15.26.07-.22,0-.44.11-1.17.29v13.2c-1.12-.89-1.6-1.27-2.31-1.83-.22.56-.76,1.23-.6,1.58,1.51,3.27.41,7.46,3.59,10.2.3.26-.59,1.74-.67,2.68-.03.39.6.84.92,1.26l1.45-1.45c1.02,5.93.16,11.54.53,17.24-1.48.5-2.97,1.55-4.18,1.3-2.39-.5-3.93-2.3-4.31-5.41,1.85.68,3.4,1.26,6.26,2.32-1.02-2.15-1.45-3.07-1.9-3.98-1.88-3.8-3.77-7.56-3.29-12.07.13-1.25-.77-2.57-1-3.9-.25-1.38-.87-3.22-.26-4.14,1.93-2.9,1.4-4.81-.81-7.38-1.12-1.31-1.5-4.75-.57-6.01,1.88-2.55,1.42-5.1,1.17-7.53-.84-8.13,2.03-15.88,1.59-24.09Z"/>
      <path class="cls-1" d="M4.7,91.06c-.29.22-.57.45-.86.67-.09-.31-.33-.81-.24-.88.3-.23.73-.31,1.1-.44,0,.22,0,.43,0,.65Z"/>
    </g>
  </g>
</svg>