<?xml version="1.0" encoding="UTF-8"?>
<svg id="_레이어_2" data-name="레이어 2" xmlns="http://www.w3.org/2000/svg" viewBox="0 0 87.87 100">
  <defs>
    <style>
      .cls-1 {
        fill: #fff;
        stroke-width: 0px;
      }
    </style>
  </defs>
  <g id="_레이어_1-2" data-name="레이어 1">
    <g>
      <path class="cls-1" d="M16.98,52.71c0,12.69-.1,25.05.06,37.39.05,3.64-.45,6.96-2.41,9.9H0v-18.69C0,56.48-.01,31.65.02,6.82.02.89.78.12,6.63.11,21.86.07,37.1.22,52.34,0c3.68-.05,6.91,1.27,10.04,2.44,5.6,2.09,10.96,4.94,16.15,7.95,1.94,1.13,3.26,3.48,4.59,5.45,1.32,1.94,2.38,4.08,3.42,6.19,2.62,5.33,1.44,9.19-4.2,10.06-7.61,1.17-14.44,3.4-20.21,8.55-3.93-.9-4.22,3.19-6.41,4.63-2.17,1.43-4.54,2.63-6.97,3.59-2.69,1.06-5.19,2.42-8.43,2.31-3.69-.13-7.41,1.2-11.15,1.47-3.88.28-7.81.06-12.2.06ZM16.77,44.22c2.05,0,3.76.53,4.72-.09,5.1-3.3,11.47.19,16.45-3.31,5.62.88,10.4-2.09,15.54-3.41,1-.26,2.31-.51,2.83-1.23,2.15-3.01,4.44-6.03,5.96-9.38,2.23-4.89,0-8-5.4-8.02-11.86-.06-23.73-.05-35.59,0-4.9.02-5.51,1.01-6.07,5.64-.81,6.72,3.08,12.79,1.56,19.8Z"/>
      <path class="cls-1" d="M71.25,84.58c.26-6.77-1.14-13.71,6-19.36,1.51,6.9.7,12.96.6,18.92-.02.98-1.95,3.68-4.08.85-.34-.45-1.49-.27-2.52-.42Z"/>
      <path class="cls-1" d="M77.78,60.4c-2.27-3.19-3.88-5.46-5.48-7.73-4.32,2.57-5.07,2.06-6.1-4.02,3.36-2.67,7.16-3.35,11.59-2.41v14.16Z"/>
    </g>
  </g>
</svg>