<?xml version="1.0" encoding="UTF-8"?>
<svg id="_레이어_2" data-name="레이어 2" xmlns="http://www.w3.org/2000/svg" viewBox="0 0 71.87 100">
  <defs>
    <style>
      .cls-1 {
        fill: #fff;
        stroke-width: 0px;
      }
    </style>
  </defs>
  <g id="_레이어_1-2" data-name="레이어 1">
    <path class="cls-1" d="M17.26,70.17v29.51c-2.75.1-5.54.25-8.33.3-2.88.05-5.76.01-8.93.01V.35C1.86.25,4.06.04,6.26.03,15.02,0,23.78.1,32.54,0c19.86-.21,31.09,9.97,38.42,26.6.54,1.23.59,2.73.63,4.11.09,3.21-.37,6.48.12,9.62.76,4.88-1.23,9.01-3.73,12.48-6.42,8.91-14.17,16-26.37,15.71-3.83-.09-7.67,1.3-11.54,1.58-4.04.29-8.11.07-12.8.07ZM17.4,52.63c7.15,0,13.57.02,19.99,0,10.48-.05,18.15-8.52,16.58-18.72-.44-2.85-2.27-5.47-3.18-8.28-2.25-6.94-8.04-9.05-14.21-9.68-6.28-.64-12.68-.14-19.18-.14v36.83Z"/>
  </g>
</svg>