<?xml version="1.0" encoding="UTF-8"?>
<svg id="_레이어_2" data-name="레이어 2" xmlns="http://www.w3.org/2000/svg" viewBox="0 0 65.37 100">
  <defs>
    <style>
      .cls-1 {
        fill: #fff;
        stroke-width: 0px;
      }
    </style>
  </defs>
  <g id="_레이어_1-2" data-name="레이어 1">
    <path class="cls-1" d="M15.04,100H.02V10.18C.02,8.52-.03,6.85.03,5.19.17,1.21,1.27.1,5.49.06c7.77-.08,15.54-.07,23.31,0,4.54.04,8.99-.26,13.51,1.54,10.05,4,17.39,10.24,21.19,20.67,3.87,10.61,1.35,20.86-3.75,29.52-5.93,10.06-15.69,16.49-28.28,16.65-3.88.05-7.77-.08-11.65.03-3.47.1-4.73,1.39-4.75,4.99-.07,8.6-.02,17.2-.02,26.54ZM16.95,18.39c-.25,5.35.47,10.3-.95,14.52-1.31,3.9-.31,7.53-.96,11.21,3.37,2.36.49,6.28,2.17,9.04,14.43.78,12.87.84,22.78-4.81,6.74-3.85,8.77-12.98,5.69-20.29-2.73-6.47-7.91-8.96-14.2-9.58-4.65-.46-9.37-.09-14.52-.09Z"/>
  </g>
</svg>