<?xml version="1.0" encoding="UTF-8"?>
<svg id="_레이어_2" data-name="레이어 2" xmlns="http://www.w3.org/2000/svg" viewBox="0 0 79.15 100">
  <defs>
    <style>
      .cls-1 {
        fill: #fff;
        stroke-width: 0px;
      }
    </style>
  </defs>
  <g id="_레이어_1-2" data-name="레이어 1">
    <path class="cls-1" d="M0,2.17C14.3,1.46,28.31.73,42.31.08c1.72-.08,3.75-.28,5.13.49,5.32,2.96,11.5.42,17.18,4.01,7.35,4.65,11.36,11.11,13.45,18.58,1.47,5.24,1.41,11.55-.04,16.8-1.42,5.16-4.66,10.44-8.53,14.18-7.37,7.11-15.7,12.96-27.07,12.17-7.99-.56-16.04-.11-24.24-.11-2.71,11.32,1.78,22.44,1.09,33.8H0V2.17ZM19.53,50.11c5.74,0,11.32-.09,16.9.03,4.33.09,8.69.21,12.62-1.86,2.95-1.55,5.89-3.28,8.47-5.37,7.01-5.66,6.34-18.24-1.42-22.91-3.23-1.94-7.17-3.46-10.89-3.69-8.51-.54-17.08-.17-25.69-.17v33.97Z"/>
  </g>
</svg>