<?xml version="1.0" encoding="UTF-8"?>
<svg id="_레이어_2" data-name="레이어 2" xmlns="http://www.w3.org/2000/svg" viewBox="0 0 63.62 100">
  <defs>
    <style>
      .cls-1 {
        fill: #fff;
        stroke-width: 0px;
      }
    </style>
  </defs>
  <g id="_레이어_1-2" data-name="레이어 1">
    <path class="cls-1" d="M2.49.04C11.31.04,19.98-.09,28.65.11c2.87.06,5.7,1.1,8.58,1.42,2.66.3,5.17.3,7.87,1.41,6.13,2.52,9.31,4.81,12.51,10.31,3.44,5.93,6.64,11.88,5.92,19.03-.67,6.63-2.06,12.76-7.43,17.71-4.37,4.03-9,5.87-14.77,7.24-7.32,1.74-14.49.43-22.36,1.46v6.44c0,9.98.04,19.95-.02,29.93-.02,3.77-1.1,4.78-4.88,4.87-3.07.08-6.14.1-9.21,0-3.12-.11-4.31-1.34-4.32-4.67-.04-16.37-1.4-32.89.38-49.06C2.6,30.97.76,15.87,2.49.04ZM19.12,44.62c4.97,0,9.32.04,13.68-.02,2.18-.03,9.4-3.24,10.2-4.9,1.43-2.98,3.41-6.16,3.38-9.24-.03-3.37-1.22-7.55-3.46-9.86-2.46-2.53-5.36-5.71-10.01-5.28-4.51.42-9.09.09-13.78.09v29.2Z"/>
  </g>
</svg>