<?xml version="1.0" encoding="UTF-8"?>
<svg id="_레이어_2" data-name="레이어 2" xmlns="http://www.w3.org/2000/svg" viewBox="0 0 79.79 100">
  <defs>
    <style>
      .cls-1 {
        fill: #fff;
        stroke-width: 0px;
      }
    </style>
  </defs>
  <g id="_레이어_1-2" data-name="레이어 1">
    <path class="cls-1" d="M2.48,100c-.92-4.01.94-8.2-2.02-11.55,3.52-4.7-1.05-9.27-.2-14.12.88-5.02-.81-10.56.4-15.43,2.65-10.7,1.05-21.41,1.43-32.1.12-3.5.01-6.92-1.28-10.61C-.62,12.03-.33,6.78,3.02,1.99c2.3,0,5.11.09,7.92-.02,10.69-.39,21.29-2.78,32.04-1.69,10.71,1.09,21.11,3.26,28.71,11.78,4.99,5.6,7.92,12.27,8.08,19.89.1,4.7-.58,9.32-1.31,14-.63,4.04-4.07,5.86-4.6,9.4-7.63,3.91-14.64,9.41-23.98,8.76-3.43-.24-6.9.08-10.34-.07-3.83-.16-7.69.71-11.45-1.53-1.65-.98-4.36-.16-6.89-.16v37.64H2.48ZM19.6,46.83c9.23,0,17.81.02,26.38,0,8.4-.02,11.6-2.43,14.2-10.55,2.58-8.04-3.19-16.8-11.48-16.99-9.65-.22-19.31-.05-29.11-.05v27.6Z"/>
  </g>
</svg>