<?xml version="1.0" encoding="UTF-8"?>
<svg id="_레이어_2" data-name="레이어 2" xmlns="http://www.w3.org/2000/svg" viewBox="0 0 69.16 100">
  <defs>
    <style>
      .cls-1 {
        fill: #fff;
        stroke-width: 0px;
      }
    </style>
  </defs>
  <g id="_레이어_1-2" data-name="레이어 1">
    <path class="cls-1" d="M16.77,80.9c-.74,3.76-1.54,6.69-1.84,9.67-.29,2.89-.06,5.83-.06,9.41-3.64,0-7.23.08-10.81-.03-2.54-.08-3.7-1.36-3.85-4-.08-1.46-.01-2.93-.01-4.4C.2,75.43.65,59.28.06,43.18-.44,29.4,2.29,15.84,1.65,2.32,8.55-.83,15.55.39,22.41.22c4.15-.1,8.37-.49,12.45.08,7.69,1.07,15.41,1.68,22.01,7.09,6.27,5.14,10.68,11.47,10.81,18.98.04,2.11-.27,4.3,1.47,5.99-.48,12.58-2.36,24.7-12.39,33.68-3.27,2.93-6.94,5.49-10.71,7.75-3.47,2.08-7.18,4.05-11.04,5.12-4.94,1.37-10.04,2.7-15.33,1.99-.93-.12-1.89-.02-2.92-.02ZM23.17,67.58c6.7.31,12.08-.22,17.45-2.56,1.9-.83,3.74-1.45,5.46-2.77,4.87-3.72,7.35-9.15,9.62-14.37,2.44-5.64,2.7-12.02,1.14-18.1-1.43-5.58-4.85-10.15-9.3-13.68-4.59-3.64-10.25-4.99-15.97-5.56-3.87-.38-7.81-.12-11.72-.06-4.08.07-4.99.93-4.95,5.09.06,6.17.36,12.28,1.16,18.48,1.11,8.65.32,17.55.23,26.34-.01,1.08-.49,2.25-1.06,3.2-.84,1.41-.14,2.18.78,3.05,1.67,1.58,3.3,1.48,5.02.05,1.15-.95,1.98-3.17,4.06-1.26-.47.52-.93,1.04-1.93,2.15Z"/>
  </g>
</svg>