<?xml version="1.0" encoding="UTF-8"?>
<svg id="_레이어_2" data-name="레이어 2" xmlns="http://www.w3.org/2000/svg" viewBox="0 0 62.51 100">
  <defs>
    <style>
      .cls-1 {
        fill: #fff;
        stroke-width: 0px;
      }
    </style>
  </defs>
  <g id="_레이어_1-2" data-name="레이어 1">
    <path class="cls-1" d="M0,1.53c5.44,0,10.63.24,15.78-.07,4.92-.3,9.81-1.18,14.76-1.46,1.42.09-1.28,4.58,2.35,2.2,1.34-.88,3.93-.61,5.66,0,3.85,1.34,7.52,3.18,11.24,4.87,3.74,1.7,6.09,4.55,8.33,8.08,5.43,8.6,5.29,17.48,2.47,26.54-2.57,8.26-11.07,15.42-21.31,16.02-5.68.33-11.39.06-17.38.06v41.74c-3.72.85-7.3.32-10.82.42-3.61.1-7.22.02-11.08.02V1.53ZM43.12,37.14c1.47-7.36.63-14.29-5.25-18.16-5.24-3.45-11.82-3-17.83.44,0,4.01-.06,8.13.02,12.24.08,4.03-.33,8.09.22,12.05,4.19,0,7.81-.11,11.42.03,3.22.13,5.7-1.27,7.96-3.27,1.35-1.2,2.6-2.5,3.45-3.33Z"/>
  </g>
</svg>