<?xml version="1.0" encoding="UTF-8"?>
<svg id="_레이어_2" data-name="레이어 2" xmlns="http://www.w3.org/2000/svg" viewBox="0 0 74.2 100">
  <defs>
    <style>
      .cls-1 {
        fill: #fff;
        stroke-width: 0px;
      }
    </style>
  </defs>
  <g id="_레이어_1-2" data-name="레이어 1">
    <path class="cls-1" d="M2.22.18c14.05,0,27.99-.48,41.87.15,11.65.53,20.87,6.32,26.64,16.64,4.38,7.84,4.1,12.33,2.01,22.87-.78,3.92-1.4,7.42-4.27,10.35-4.71,4.81-9.43,9.29-16.23,11.37-3.07.94-5.97,1.39-9.04,1.4-7.74.03-15.48.01-23.5.01v36.83c-3.35.07-6.45.16-9.56.19-3.18.03-6.36,0-10.04,0v-33.05c0-11.26-.27-22.52.08-33.77C.51,22.42,1.48,11.68,2.22.18ZM19.64,16.28v30.59c6.03,0,11.86-.13,17.67.05,3.73.12,6.76-1.25,10.07-2.8,4.12-1.91,5.66-4.74,5.81-8.79.13-3.44.03-6.89.03-10.2-.9-.9-1.73-1.59-2.39-2.42-4.06-5.09-9.5-6.63-15.75-6.46-5.03.14-10.07.03-15.45.03Z"/>
  </g>
</svg>