<?xml version="1.0" encoding="UTF-8"?>
<svg id="_레이어_2" data-name="레이어 2" xmlns="http://www.w3.org/2000/svg" viewBox="0 0 63.02 100">
  <defs>
    <style>
      .cls-1 {
        fill: #fff;
        stroke-width: 0px;
      }
    </style>
  </defs>
  <g id="_레이어_1-2" data-name="레이어 1">
    <path class="cls-1" d="M16.32,100H0V0h30.31c4.8,2.55,10.47.99,15.47,4.24,5.31,3.45,10.39,6.83,13.22,12.45,1.84,3.66,3,7.84,3.55,11.92.6,4.4.62,9.01,0,13.4-.61,4.32-1.74,8.75-5.22,11.99-1.27,1.19-2.66,2.32-3.67,3.71-3.28,4.51-8.18,6.39-13.11,8.05-3.37,1.13-6.87,1.91-10.56,1.62-3.21-.26-6.47-.14-9.7-.03-2.61.09-3.85,1.38-3.96,4.03-.11,2.73-.02,5.47-.02,8.21v20.41ZM17.81,52.36c3.18,0,5.89-.15,8.58.03,6.56.45,11.53-2.58,15.66-7.17,1.71-1.9,2.89-4.23,2.73-7.07-.19-3.22.03-6.47-.06-9.7-.11-3.78-5.81-11.13-9.22-11.99-5.84-1.46-11.72-2.11-17.69-1.2v37.1Z"/>
  </g>
</svg>