<?xml version="1.0" encoding="UTF-8"?>
<svg id="_레이어_2" data-name="레이어 2" xmlns="http://www.w3.org/2000/svg" viewBox="0 0 73.04 100">
  <defs>
    <style>
      .cls-1 {
        fill: #fff;
        stroke-width: 0px;
      }
    </style>
  </defs>
  <g id="_레이어_1-2" data-name="레이어 1">
    <path class="cls-1" d="M18.71,65.27c3.07,12.22,1.49,23.36-.41,34.73H0V.12C14.35.12,28.83-.24,43.27.3c5.84.22,11.5,3.38,16.11,6.72,5.68,4.11,10.55,9.51,12.57,16.85,1.43,5.18,1.38,10.47.25,15.36-.78,3.4-1.38,7.09-3.48,10.44-4.41,7.03-14.31,13.79-22.72,13.97-4.61.1-8.84,2.33-13.63,1.75-4.38-.53-8.87-.11-13.68-.11ZM18.7,49.38c6.05,0,11.56-.06,17.07.02,5.4.08,9.44-2.25,13.52-5.77,8.72-7.51,3.05-22.22-5.08-25.07-2.1-.74-4.74-.13-6.69-1.07-6.27-3.01-12.54-.94-18.82-1.25v33.13Z"/>
  </g>
</svg>