<?xml version="1.0" encoding="UTF-8"?>
<svg id="_레이어_2" data-name="레이어 2" xmlns="http://www.w3.org/2000/svg" viewBox="0 0 60.4 100">
  <defs>
    <style>
      .cls-1 {
        fill: #fff;
        stroke-width: 0px;
      }
    </style>
  </defs>
  <g id="_레이어_1-2" data-name="레이어 1">
    <path class="cls-1" d="M0,.23C11.58.23,22.86.5,34.12.13c6.04-.2,12.02-.22,18.02.35,4.79.45,8.51,3.81,8.25,8.39-.58,10.04-2.86,19.52-9.24,27.57-2.86,3.61-5.76,7.26-9.1,10.41-2.7,2.55-6.29,4.13-9.11,6.58-3.06,2.65-7.05,2.8-10.83,4.72v41.61c-4.59.62-9.29-.21-13.76.21-1.41-1.99-.94-3.68-.55-5.43.71-3.2,1.61-6.41,1.84-9.66.3-4.39,0-8.82.01-13.24.02-10.6.16-21.2.09-31.8-.04-5.67-.44-11.35-.6-17.02-.07-2.61.16-5.23.04-7.83-.18-4.09-1.25-7.52-5.73-9.2C.13,4.54.16,4.04,0,.23ZM22.76,4.31c-.49,2.2-1.28,3.79-1.08,5.25.42,3.15.51,6.24.08,9.38-.21,1.49-.03,3.03.02,4.54.19,5.93.43,11.85.57,17.78.08,3.3.01,6.6.01,10.56,2.08-.73,3.62-.96,4.8-1.74,8.18-5.44,15.24-12.03,20.08-20.69,3.12-5.58,5.37-11.4,4.01-18.07-.65-3.23-2.31-5.56-5.55-5.8-7.41-.55-14.85-.81-22.94-1.22Z"/>
  </g>
</svg>