<?xml version="1.0" encoding="UTF-8"?>
<svg id="_레이어_2" data-name="레이어 2" xmlns="http://www.w3.org/2000/svg" viewBox="0 0 76.28 100">
  <defs>
    <style>
      .cls-1 {
        fill: #fff;
        stroke-width: 0px;
      }
    </style>
  </defs>
  <g id="_레이어_1-2" data-name="레이어 1">
    <path class="cls-1" d="M2.36,2.17c4.55,0,9.27.19,13.97-.05,6.38-.32,12.76.8,19.18-1.29,2.72-.88,6.72-1.74,9.61,1.21.27.27,1,.14,1.51.12,11.47-.4,18.6,7,25.57,14.48,1.24,1.33,1.94,3.48,2.22,5.35.75,4.91,3.08,9.72,1.06,14.89-.8,2.04-1.2,4.25-1.7,6.41-1.58,6.8-7.06,10.34-11.98,14.31-4.72,3.8-10.15,5.01-16.2,4.88-4.25-.08-8.5,1.15-12.78,1.41-4.42.26-8.87.06-13.55.06v36.05H.04v-5.27C.04,67.07.06,39.42,0,11.76c0-3.35.06-6.58,2.36-9.59ZM19.23,46.52h11.63c2.64,0,5.3.21,7.91-.06,2.71-.27,5.37-1.01,8.06-1.52,5.62-1.07,9.98-5.9,10.24-11.36.39-8.35-5.61-15.2-14.08-15.51-7.85-.29-15.72-.06-23.76-.06v28.51Z"/>
  </g>
</svg>