<?xml version="1.0" encoding="UTF-8"?>
<svg id="_레이어_2" data-name="레이어 2" xmlns="http://www.w3.org/2000/svg" viewBox="0 0 75.76 100">
  <defs>
    <style>
      .cls-1 {
        fill: #fff;
        stroke-width: 0px;
      }
    </style>
  </defs>
  <g id="_레이어_1-2" data-name="레이어 1">
    <path class="cls-1" d="M2.69.17C17.72.17,32.81.49,47.88.01c6.27-.2,11.42,2.36,15.81,5.55,5.58,4.06,9.46,9.55,11.27,17.12,1.79,7.5.45,13.54-2.67,19.78-3.03,6.05-7.86,10.27-14.19,12.72-.87.34-1.73.81-2.63.91-5.07.57-10.13,1.23-15.22,1.49-5.02.25-10.06.19-15.09.03-8.08-.26-8.24.55-8.12,8.38.17,11.06.04,22.13.04,33.78-2.62.07-5.28.18-7.94.21-2.73.04-5.47,0-8.7,0v-26.46c0-8.05-1.2-16.33.32-24.08,1.66-8.46.68-16.75,1.09-25.1.13-2.53-1.1-5.09-1.36-7.67-.25-2.49.15-5.05-.1-7.53C.06,5.84,1.01,2.99,2.69.17ZM18.82,15.29v25.31c1.72.69,3.26,1.89,4.72,1.81,8.07-.45,16.15,1.13,24.27-1.19,3.58-1.02,5.97-2.38,8.39-5.09,3.08-3.42,1.69-7.18,1.49-10.61-.14-2.47-1.9-5.67-3.94-7.01-2.8-1.84-6.51-2.92-9.9-3.09-8.22-.42-16.48-.14-25.03-.14Z"/>
  </g>
</svg>