<?xml version="1.0" encoding="UTF-8"?>
<svg id="_레이어_2" data-name="레이어 2" xmlns="http://www.w3.org/2000/svg" viewBox="0 0 63.19 100">
  <defs>
    <style>
      .cls-1 {
        fill: #fff;
        stroke-width: 0px;
      }
    </style>
  </defs>
  <g id="_레이어_1-2" data-name="레이어 1">
    <path class="cls-1" d="M1.73,2.17C8.5-.84,15.68-.04,22.56.6c4.75.44,9.78.04,14.21,1.32,7.11,2.05,14.16,5.14,18.72,11.55,4.59,6.45,7.69,13.64,7.71,21.66,0,4.61-1.29,9.08-3.86,13.18-2.74,4.36-5.37,8.41-9.91,11.45-5.25,3.52-10.86,4.68-16.74,5.12-5.32.4-10.7.08-16.5.08v26.98c0,1.57.03,3.14,0,4.71-.06,2.08-1.26,3.23-3.24,3.29-3.59.11-7.18.03-10.77.03C-.25,97.58,0,94.53,0,91.5c.02-24.91-.07-49.82.09-74.72.03-4.74,1.03-9.47,1.63-14.61ZM17.63,51.5c5.06,0,9.54.07,14.02-.02,7.66-.15,12.77-5.39,12.81-13.01.01-2.01-.15-4.04.03-6.04.6-6.85-5.07-13.5-11.99-16.1-5.06-1.9-9.85-.51-14.86-1.35v36.52Z"/>
  </g>
</svg>