<?xml version="1.0" encoding="UTF-8"?>
<svg id="_레이어_2" data-name="레이어 2" xmlns="http://www.w3.org/2000/svg" viewBox="0 0 68.63 100">
  <defs>
    <style>
      .cls-1 {
        fill: #fff;
        stroke-width: 0px;
      }
    </style>
  </defs>
  <g id="_레이어_1-2" data-name="레이어 1">
    <path class="cls-1" d="M16.48,61.75v38.25H0V.26C1.51.19,3.24.05,4.97.04,15.95.02,26.92.09,37.89,0c3.8-.03,7.27.64,10.61,2.59,1.97,1.16,4.57,1.3,6.46,2.55,8.94,5.91,13.08,14.4,13.63,25.08.49,9.63-3.47,17.12-10.3,23.15-5.08,4.48-11.03,7.83-18.27,7.09-7.89-.81-15.45,2.47-23.54,1.29ZM16.88,44c6.81,0,13.86-.2,20.89.07,5.38.2,8.88-2.63,11.37-6.66,1.51-2.44,3.89-5.21,2.75-8.34-1.08-2.95-1.17-6.53-3.71-8.7-2.92-2.49-6.38-4.81-10.16-5.07-7.2-.5-14.45-.15-21.74-.15,0,9.74,0,18.87.02,28,0,.18.23.36.57.85Z"/>
  </g>
</svg>