<?xml version="1.0" encoding="UTF-8"?>
<svg id="_레이어_2" data-name="레이어 2" xmlns="http://www.w3.org/2000/svg" viewBox="0 0 72 100">
  <defs>
    <style>
      .cls-1 {
        fill: #fff;
        stroke-width: 0px;
      }
    </style>
  </defs>
  <g id="_레이어_1-2" data-name="레이어 1">
    <path class="cls-1" d="M2.41.1C15.97.1,29.67-.2,43.34.24c5.99.19,11.67,2.2,16.54,6.36,5.34,4.56,9.36,9.73,11.02,16.62.09.38.85.68.83,1-.23,6.68,1.41,13.67-1.45,19.94-3.47,7.61-8.43,14.01-17.26,16.43-5.51,1.51-10.91,2.94-16.71,2.72-6.35-.24-12.71-.05-19.29-.05v36.75H2.03c-.93-2.42.74-5.39-1.55-7.62-.24-.23,1.3-1.87,1.19-2.75-.39-3.03,1.39-6.31-1.1-9.14-.46-.53-.18-1.74-.18-2.64,0-10.28-1.05-20.7.3-30.8,1.27-9.49.34-18.87,1.16-28.25.31-3.48-1.48-6.41-1.49-9.72C.36,5.98.18,2.88,2.41.1ZM18.41,46.77c7.2,0,14.24-.15,21.27.06,3.87.12,6.77-1.36,9.32-4.04,3.67-3.86,5.31-8.37,4.96-13.72-.43-6.49-6.2-13.4-12.61-13.78-7.66-.45-15.36-.11-22.94-.11v31.57Z"/>
  </g>
</svg>