<?xml version="1.0" encoding="UTF-8"?>
<svg id="_레이어_2" data-name="레이어 2" xmlns="http://www.w3.org/2000/svg" viewBox="0 0 114.3 100">
  <defs>
    <style>
      .cls-1 {
        fill: #fff;
        stroke-width: 0px;
      }
    </style>
  </defs>
  <g id="_레이어_1-2" data-name="레이어 1">
    <path class="cls-1" d="M0,96.53V2.27C21.96,1.62,44.35.89,66.74.32c9.39-.24,18.81-.54,28.19-.08,8.03.4,17.44,8.74,18.32,16.69.93,8.42,1.7,17.23.22,25.45-2.94,16.33-15.19,24.47-31.71,23.4-7.45-.48-14.97-.1-22.46,0-1.22.01-2.43.55-4.71,1.09,1.27,5.56,1.9,11.11,3.87,16.15,1.97,5.05,5.26,9.58,8.72,15.66-23.05,2.47-44.77,1.34-67.19-2.15ZM38.26,43.48c4.39-.92,8.04-2.11,11.75-2.35,4.22-.27,8.52.63,12.74.35,1.6-.11,3.08-2.09,4.62-3.22-1.19-1.59-2.18-3.41-3.65-4.68-.82-.71-2.43-.66-3.69-.67-8.29-.1-16.57-.2-24.86-.11-1.96.02-3.91.77-6.41,1.29.74,2.98,1.27,5.13,1.57,6.34,3.54,1.37,6.05,2.33,7.93,3.06Z"/>
  </g>
</svg>