<?xml version="1.0" encoding="UTF-8"?>
<svg id="_레이어_2" data-name="레이어 2" xmlns="http://www.w3.org/2000/svg" viewBox="0 0 60.06 100">
  <defs>
    <style>
      .cls-1 {
        fill: #fff;
        stroke-width: 0px;
      }
    </style>
  </defs>
  <g id="_레이어_1-2" data-name="레이어 1">
    <path class="cls-1" d="M0,.63C.64-.09,1.3.03,1.91.02,5.78.01,9.64,0,13.5,0c7.29,0,14.58-.03,21.86.02,7.68.05,15.35.19,23.03.28.2,0,.39-.01.59.01.86.11,1.11.35,1.08,1.23-.03.88-.17,1.75-.19,2.63-.05,2.74.05,5.48-.12,8.21-.49,8.16-.02,16.33-.34,24.48-.19,4.74-.15,9.48-.22,14.22,0,.24-.01.49-.02.73-.01.59-.43.56-.83.54-.41-.02-.42-.3-.41-.62.09-5.13.15-10.26.25-15.4.04-2,.16-4,.19-6,.02-1.27-.05-2.54-.05-3.81-.02-4.35,0-8.7-.06-13.05-.03-1.79-.18-3.6-.42-5.37-.18-1.36-1.04-2.22-2.39-2.67-2.14-.71-4.27-.91-6.46-.29-.28.08-.57.16-.83.28-.67.31-.75.56-.41,1.27.1.22.24.43.38.62,2.17,3.05,3.29,6.53,3.93,10.14.53,2.97.48,6.02.43,9.05-.04,2.34-.08,4.68-.64,6.97-1.52,6.21-4.18,11.78-9.2,15.94-2.22,1.84-4.51,3.68-7.4,4.32-2.91.65-5.9.8-8.89.64-.24-.01-.48-.07-.73-.08-.46-.04-.76.14-.77.65,0,.34-.02.68-.02,1.03,0,13.16,0,26.31,0,39.47,0,.29.02.59,0,.88-.04.69.33,1.15.94,1.32.98.28,1.98.49,2.98.68.67.13,1.35.18,2.03.27.42.05.79.19.77.7-.02.62-.49.63-.95.64-.2,0-.39,0-.59,0-6.51,0-13.01,0-19.51-.01-.44,0-1.14.31-1.27-.32-.16-.76.68-.72,1.13-.86,1.02-.3,2.08-.53,3.13-.72,1.17-.21,1.77-1.25,2.71-1.8.07-.04.02-.46-.04-.48-.98-.3-.76-1.17-.79-1.82-.07-1.81-.05-3.62-.05-5.43,0-14.92,0-29.84.05-44.75.03-10.22.15-20.44.26-30.66.02-1.81.21-3.61.24-5.42.01-.92-.1-1.85-.27-2.76-.31-1.67-1.52-2.77-3.18-2.99-2.27-.29-4.54-.61-6.82-.84-1.6-.17-3.21-.22-4.82-.33-.19-.01-.38-.06-.79-.13ZM24.5,41.58s.04,0,.06,0c0,2.74,0,5.48,0,8.22,0,.39,0,.78.02,1.17.04.62.34.98,1.01,1,2.39.09,4.78.26,7.17.27,2.88.01,4.72-1.54,5.12-4.41.33-2.36.55-4.75.57-7.13.04-4.2-.12-8.41-.17-12.61-.02-1.52.01-3.03,0-4.55-.02-5.37.15-10.76-.15-16.12-.18-3.26-1.93-4.87-4.82-5.15-2.17-.21-4.38-.19-6.57.21-1.79.32-2.53.97-2.51,2.87.14,12.08.19,24.16.26,36.24Z"/>
  </g>
</svg>