<?xml version="1.0" encoding="UTF-8"?>
<svg id="_레이어_2" data-name="레이어 2" xmlns="http://www.w3.org/2000/svg" viewBox="0 0 92.44 100">
  <defs>
    <style>
      .cls-1 {
        fill: #fff;
        stroke-width: 0px;
      }
    </style>
  </defs>
  <g id="_레이어_1-2" data-name="레이어 1">
    <path class="cls-1" d="M32.09,74.55c-.07,1.02-.22,2.04-.21,3.05.06,3.97.17,7.95.26,11.92.01.52.04,1.05.13,1.57.77,4.48,3.22,6.36,9.02,7.12.81.11,1.66.02,2.46.19.35.07.62.54.92.82-.32.24-.62.64-.96.68-.96.11-1.95.1-2.92.1-12.68-.06-25.36-.14-38.03-.21-.53,0-1.05,0-1.58-.01-.68,0-1.19-.22-1.2-1.01-.01-.76.26-1.31,1.11-1.41,1.11-.14,2.22-.31,3.33-.46,3.55-.48,5.34-2.13,5.95-5.65.23-1.32.37-2.67.37-4.01.04-9.23-.02-18.46.04-27.68.11-16.13.27-32.25.44-48.38.02-1.92-.34-3.7-1.2-5.42-.86-1.75-2.24-2.79-4.09-3.2-1.09-.24-2.22-.33-3.33-.47-.57-.07-1.31.11-1.26-.84.06-.93.81-.73,1.36-.74,1.42-.02,2.86-.06,4.27.04,2.46.17,4.91.45,7.37.67,2.38.22,4.77.57,7.15.6,5.32.06,10.65.38,15.95-.4C44.39.39,51.33-.28,58.3.11c7.58.43,14.84,2.26,20.97,6.98,5.53,4.25,9.43,9.72,11.41,16.54,1.73,5.99,2.06,11.99,1.53,18.2-.54,6.38-1.92,12.52-3.82,18.6-2.73,8.73-8.08,15.36-15.64,20.46-5.49,3.71-11.49,5.27-17.97,5.37-2.99.05-5.96.08-8.96-.36-6.11-.89-9.94-4.47-12.47-9.8-.25-.53-.46-1.08-.68-1.62-.19.02-.38.05-.57.07ZM32.14,46.85c0,2.7-.06,5.41.02,8.11.08,2.77.27,5.53.43,8.29.34,5.66,2.53,10.58,6.03,14.96,3.28,4.1,9.67,5.26,14.12,3.56,5.63-2.15,8.7-6.41,10.23-11.96.94-3.39,1.17-6.91,1.45-10.42.39-4.91,1.18-9.78,1.14-14.74-.05-6.23.06-12.46.16-18.68.05-3.63-.47-7.18-1.45-10.64-1.45-5.12-4.33-9.19-9.22-11.58-2.27-1.11-4.66-1.69-7.16-.77-2.77,1.01-5.28,2.44-7.38,4.57-4.99,5.04-7.27,11.28-7.82,18.18-.39,4.93-.4,9.88-.53,14.83-.06,2.1,0,4.2,0,6.3Z"/>
  </g>
</svg>