<?xml version="1.0" encoding="UTF-8"?>
<svg id="_레이어_2" data-name="레이어 2" xmlns="http://www.w3.org/2000/svg" viewBox="0 0 77.4 99.13">
  <defs>
    <style>
      .cls-1 {
        fill: #fff;
        stroke-width: 0px;
      }
    </style>
  </defs>
  <g id="_레이어_1-2" data-name="레이어 1">
    <path class="cls-1" d="M0,99.11c0-2.36,0-4.03,0-5.7C.04,66.96.06,40.51.15,14.06c.02-4.47.36-8.95.56-13.53C1.79.31,2.5.04,3.2.04c19.32-.02,38.64-.08,57.96.01,7.02.03,13.52,4.6,15.59,10.67.47,1.37.79,2.96.58,4.36-1.25,8.21-.84,16.46-.21,24.64.27,3.49-.11,6.8-.91,9.94-1.11,4.33-4.66,7.25-8.68,8.85-5.87,2.34-11.97,3.74-18.48,3.47-8.22-.34-16.47-.08-25.31-.08-.03,6.34-.08,12.46-.09,18.58-.02,5.99,0,11.97,0,18.47-4.07.33-7.96.13-11.83.16-3.73.03-7.46,0-11.83,0ZM53.76,43.15v-24.91h-29.79v25.57c7.03,0,13.75.06,20.47-.03,2.9-.04,5.8-.39,9.32-.64Z"/>
  </g>
</svg>