<?xml version="1.0" encoding="UTF-8"?>
<svg id="_레이어_2" data-name="레이어 2" xmlns="http://www.w3.org/2000/svg" viewBox="0 0 122.45 100">
  <defs>
    <style>
      .cls-1 {
        fill: #fff;
        stroke-width: 0px;
      }
    </style>
  </defs>
  <g id="_레이어_1-2" data-name="레이어 1">
    <path class="cls-1" d="M121.77,21.45C117.39,9.31,108.52.97,95.88.54,66.8-.46,37.66.27,8.55.08,3.49.04,1.97,1.78,1.48,6.82-.06,22.6.22,38.4.07,54.2c.01,12.58.18,25.16-.07,37.73-.1,5.11.76,7.54,6.88,7.78,23.41.92,23.4,1.19,23.44-22.75,0-1.44.18-2.9-.03-4.31-.94-6.23,1.8-7.94,7.83-7.79,15.09.38,30.2-.25,45.28.26,9.99.33,18.12-3.57,25.58-9.22,8.59-6.5,15.74-26.25,12.78-34.44ZM88.61,29.77c-.72,5.26-.61,11.36-8.31,11.41-14.73.11-29.46-.2-44.19.14-7.27.16-5.77-4.67-5.73-8.68.04-3.94-1.7-9.06,5.64-8.75,7.89.34,15.8.08,23.71.08v-.09c6.83,0,13.65-.1,20.48.04,3.99.08,9.4-1.44,8.4,5.85Z"/>
  </g>
</svg>