<?xml version="1.0" encoding="UTF-8"?>
<svg id="_레이어_2" data-name="레이어 2" xmlns="http://www.w3.org/2000/svg" viewBox="0 0 119.18 100">
  <defs>
    <style>
      .cls-1 {
        fill: #fff;
        stroke-width: 0px;
      }
    </style>
  </defs>
  <g id="_레이어_1-2" data-name="레이어 1">
    <path class="cls-1" d="M119.17,36.31c-.13-1.46-.29-1.79-.41-2.34C114.24,11.99,100.47.41,77.7.55,53.38.7,29.06.19,4.74,0,3.33-.01,1.93.22,0,.37v99.63h23.78c2.29-8.43,4.54-16.7,7.06-25.98,3.67,0,8.15-.21,12.61.04,15.88.9,31.83,1.32,47.02-4.04,11.35-4,21.49-10.26,26.4-22.28.33-.81.69-1.6.79-1.82,0,.02,0,.04.01.05.75-3.13,1.41-5.47,1.5-8.82,0-.41-.01-.63-.01-.84ZM78.78,51.17c-8.95,1.41-18.13,1.45-27.23,1.78-7.24.26-14.51.05-22.33.05v-31.38c1.47-.17,2.7-.45,3.92-.44,12.2.06,24.46-.52,36.58.52,7.36.63,15.67,2.24,17.92,11.54,2.16,8.91-.28,16.58-8.86,17.93Z"/>
  </g>
</svg>