<?xml version="1.0" encoding="UTF-8"?>
<svg id="_레이어_2" data-name="레이어 2" xmlns="http://www.w3.org/2000/svg" viewBox="0 0 247.41 100">
  <defs>
    <style>
      .cls-1 {
        fill: #fff;
        stroke-width: 0px;
      }
    </style>
  </defs>
  <g id="_레이어_1-2" data-name="레이어 1">
    <path class="cls-1" d="M223.9,2.31c-31.95-4.46-64.07-.86-96.09-2.07-4.26-.16-6.34.98-6.23,5.76.19,8.18-4.3,6.12-8.64,3.41-5.26-3.28-10.17-6.58-16.86-7.35-29.98-3.44-59.94-.3-89.9-.41C.89,1.63-.05,4.16.03,8.78c.23,13.6.08,27.2.08,40.8.01,0,.02,0,.03,0,0,13.95-.08,27.9.07,41.85.03,2.76-1.53,7.03,3.45,7.22,8.01.29,16.03.1,24.05.07,4.24-.02,3.83-3.16,3.84-5.94.03-7.67.25-15.36-.06-23.02-.2-4.94,1.2-6.55,6.47-6.18,13.22.93,26.55.51,39.72,1.74,26.87,2.52,38.6-14.75,43.65-34.08,1.75-6.69,4.49-8.1,10.59-8.04,25.47.24,50.94.05,76.42.13,8.64.03,10.74,3.62,7.72,11.85-2.22,6.06-6.77,7.07-12.41,7.02-16.05-.14-32.15-.78-48.15.11-32.64,1.82-42.33,24.87-37.65,51.83.53,3.03,2.76,4.19,6.02,4.64,22.55,3.14,24.58,1.51,24.92-21.02,0-.35.08-.71.01-1.04-1.79-9.85,2.86-11.89,11.99-11.84,21.21.11,42.53,2.2,63.64-1.79,16.11-3.05,23.41-15,22.95-37.54-.23-11.58-10.2-21.39-23.5-23.24ZM90.04,35.88c-1.34,7.65-7.81,6.82-13.21,5.61-9.66-2.17-19.47.13-28.95-1.31-5.74-.87-16.17,6.96-16.51-7.73-.33-14.3,9.91-7.59,15.95-8.86,3.66-.77,7.61-.14,11.44-.14v.13c6.6,0,13.21-.15,19.8.04,7.82.23,12.96,3.87,11.48,12.27Z"/>
  </g>
</svg>