<?xml version="1.0" encoding="UTF-8"?>
<svg id="_레이어_2" data-name="레이어 2" xmlns="http://www.w3.org/2000/svg" viewBox="0 0 133.1 100">
  <defs>
    <style>
      .cls-1 {
        fill: #fff;
        stroke-width: 0px;
      }
    </style>
  </defs>
  <g id="_레이어_1-2" data-name="레이어 1">
    <path class="cls-1" d="M55.26.07c15.97,0,31.94,0,47.92,0,17.79,0,30.11,12.5,29.86,30.32-.07,4.69.41,9.51-.49,14.05-3.11,15.69-14.49,23.64-33.2,22.81-20.68-.92-41.35-.27-62.02-.71-4.12-.09-5.51.85-5.31,5.17.37,8.05,0,16.13.17,24.19.06,2.89-.47,4.2-3.8,4.09-7.89-.25-15.81-.24-23.7,0-3.21.1-3.95-1.01-3.94-4,.12-19.32.21-38.64-.02-57.95-.05-4.23,1.47-4.83,5.18-4.81,29.42.15,58.84.11,88.26.12.5,0,1.07.15,1.5-.03,1.99-.83,5.91,1.91,5.87-2.35-.03-3.26-2.91-5.31-6.15-5.56-4.01-.31-8.07-.2-12.09.03-23.17,1.31-46.34-.08-69.51,0-3.35.01-6.71.22-10.06.39-2.02.1-3.07-.5-3.02-2.82C.84,16.8-.24,10.65.05,4.39.22.8,1.44-.03,4.82,0c16.81.16,33.62.07,50.44.07Z"/>
  </g>
</svg>