<?xml version="1.0" encoding="UTF-8"?>
<svg id="_레이어_2" data-name="레이어 2" xmlns="http://www.w3.org/2000/svg" viewBox="0 0 82.51 100">
  <defs>
    <style>
      .cls-1 {
        fill: #fff;
        stroke-width: 0px;
      }
    </style>
  </defs>
  <g id="_레이어_1-2" data-name="레이어 1">
    <g>
      <path class="cls-1" d="M31.56,72.74c-1.11,1.26-3.12,2.48-3.18,3.8-.33,6.62-.15,13.26-.15,21.61-9.31-.57-18.06-1.1-26.81-1.63l-1.41-2.52c15.36,1.12,14.13-9.44,14.44-18.14.69-19.22.89-38.46,1-57.69.04-6.54-1.92-12.52-9.14-16.81h19.63c5.13,23.47-5.05,48.27,5.61,71.38,0,0,.01,0,.01,0Z"/>
      <path class="cls-1" d="M31.54,72.74c4.89-.65,9.81-1.13,14.66-1.99,15.74-2.79,27.22-14.43,29.1-30.24,1.13-9.55,4.91-20.13-4.14-27.82-5.31-4.51-11.98-7.43-16.94-10.41,15.29-7.06,21.71,2.95,26.94,21.44,3.25,11.48.31,23.49-5.22,34.43-3.71,7.34-9.79,12.41-17.45,13.67-8.78,1.44-17.92.71-26.91.92-.01,0-.02,0-.02,0Z"/>
      <path class="cls-1" d="M59.22,100c-2.81-2.8-7.15-5.2-8.01-8.5-.9-3.45.56-8.94,6.73-7.93,4.56.75,11.19-2.14,12.68,5.09.9,4.35-5.31,9.82-11.41,11.34Z"/>
    </g>
  </g>
</svg>