<?xml version="1.0" encoding="UTF-8"?>
<svg id="_레이어_2" data-name="레이어 2" xmlns="http://www.w3.org/2000/svg" viewBox="0 0 104.67 100">
  <defs>
    <style>
      .cls-1 {
        fill: #fff;
        stroke-width: 0px;
      }
    </style>
  </defs>
  <g id="_레이어_1-2" data-name="레이어 1">
    <g>
      <path class="cls-1" d="M42.6,2.77v86.59c.39.04.78.08,1.17.12.38-2.29.77-4.58,1.14-6.82,5.62,1.5,11.04,2.95,16.29,4.35.29.54.58.84.6,1.15.65,11.21.64,10.93-10.76,10.95-14.81.02-29.62.5-44.42.88-3.49.09-5.37-1.23-5.41-5.01,3.19-.45,6.39-.62,9.43-1.4,6.58-1.7,9.63-6.15,9.51-12.96-.32-18.04-.59-36.08-.87-54.12-.02-1.25-.08-2.5-.07-3.75.06-7.59-2.3-13.58-10.12-16.44C6.36,5.31,3.91,3.56,0,1.43,3.73.74,5.95-.07,8.13,0c21.59.73,43.2,1.1,64.74,2.6,19.15,1.34,28.02,13.06,30.46,30.88,1.25,9.13,1.33,18.46,1.34,27.7,0,8.63-5.04,14.7-13.61,16.08-6.66,1.07-13.51,1.11-20.28,1.27-8.19.2-16.38.05-25.15.05,2.43-5.56,7.3-10.13,12.81-11.33,5.75-1.25,12.11-3.59,18.55-.04,3.82,2.1,12.67-4.88,12.91-9.41.64-12.42-1.92-24.27-6.79-35.64-2.91-6.81-7.98-11.4-15.17-13.28-8.23-2.15-16.55-4.01-25.34-6.12Z"/>
      <path class="cls-1" d="M49.67,52.56V13.17c.31,0,.62,0,.93-.01v39.44l-.93-.04Z"/>
      <path class="cls-1" d="M67.58,26.49c-.5,7.61-1,15.23-1.5,22.84-.16.02-.33.03-.49.05v-22.81c.66-.03,1.32-.06,1.98-.08Z"/>
    </g>
  </g>
</svg>