<?xml version="1.0" encoding="UTF-8"?>
<svg id="_레이어_2" data-name="레이어 2" xmlns="http://www.w3.org/2000/svg" viewBox="0 0 83.48 100">
  <defs>
    <style>
      .cls-1 {
        fill: #fff;
        stroke-width: 0px;
      }
    </style>
  </defs>
  <g id="_레이어_1-2" data-name="레이어 1">
    <path class="cls-1" d="M45.33,56.57v-14.04c.79-.05,1.36-.1,1.93-.11,3.7-.07,7.41-.2,11.11-.18,1.84,0,3.26-.7,4.48-1.96,3.5-3.61,5.22-8,5.4-12.94.11-3.05-.3-6.08-1.53-8.94-2.13-4.93-6.23-7.4-11.22-7.82-6-.5-12.07-.28-18.11-.22-2.3.02-3.34,1.89-3.67,3.8-.61,3.53-1.18,7.11-1.23,10.67-.22,17.65-.29,35.3-.36,52.94,0,2.55.16,5.12.49,7.66.44,3.43,1.5,4.74,4.92,5.07,4.7.45,9.45.39,14.18.54.54.02,1.08,0,1.75,0v8.96c-17.84-.25-35.57-.5-53.49-.75.13-2.93.26-5.89.4-8.98,2.31,0,4.64.08,6.97-.03,1.79-.08,3.58-.29,5.34-.64,4.46-.88,7.63-4.59,7.63-9.1.04-19.39.06-38.79,0-58.18-.02-6.78-3.87-10.43-11.04-10.87-1.94-.12-3.89-.27-5.79-.4V.14C4.1.08,4.51,0,4.92,0c15.69.04,31.38.06,47.08.14,4.85.03,9.68.31,14.24,2.27,9.94,4.27,15.11,11.98,16.9,22.5,2.8,16.5-11.66,31.44-26.73,31.64-3.74.05-7.48,0-11.07,0Z"/>
  </g>
</svg>