<?xml version="1.0" encoding="UTF-8"?>
<svg id="_레이어_2" data-name="레이어 2" xmlns="http://www.w3.org/2000/svg" viewBox="0 0 82.15 100">
  <defs>
    <style>
      .cls-1 {
        fill: #fff;
        stroke-width: 0px;
      }
    </style>
  </defs>
  <g id="_레이어_1-2" data-name="레이어 1">
    <path class="cls-1" d="M.1,4.46c10.89-1.06,21.89-2.14,32.89-3.21,3.83-.37,7.68-.58,11.5-1.06,11.64-1.46,24.58,5.54,30.63,17.33,8.91,17.36,8.79,35.6,2.8,53.6-2.78,8.36-11.28,10.55-19.3,11.81-4.47.7-9.06.62-13.56,1.22-2.02.27-3.93,1.35-6.23,2.18,3.95,4.64,14.53,5.71,21.06,2.65,4.69-2.2,9.2-4.78,13.88-7.01,1.49-.71,3.25-.85,4.88-1.26.36.66.73,1.31,1.09,1.97l-13.59,9.43c-18.84,5.72-39.92,9.86-63.21,6.9-.94-9.91-2.52-19.91-2.72-29.95C-.2,47.97.1,26.86.1,4.46ZM39.08,42.74c3.29-.8,6.85-.7,8.66-2.43,1.3-1.24.25-4.93.25-7.43-9.25-.51-10.17.46-8.91,9.86Z"/>
  </g>
</svg>