<?xml version="1.0" encoding="UTF-8"?>
<svg id="_레이어_2" data-name="레이어 2" xmlns="http://www.w3.org/2000/svg" viewBox="0 0 104.64 100">
  <defs>
    <style>
      .cls-1 {
        fill: #fff;
        stroke-width: 0px;
      }
    </style>
  </defs>
  <g id="_레이어_1-2" data-name="레이어 1">
    <path class="cls-1" d="M50.45.08c4.96,0,9.88-.21,14.78.06,5.17.28,10.35.8,15.46,1.63,2.77.45,5.61,1.4,8.05,2.77,2.62,1.47,4.78,3.74,7.2,5.58,9.26,7.04,10.45,20.55,6.7,29.26-1.77,4.11-4.99,7.25-8.72,9.86-6.74,4.72-14.28,7.17-22.32,8.57-9.5,1.66-19,3.14-28.66,3.22-2.08.02-2.77,1.65-3.12,3.01-1.87,7.28-3.47,14.6-2.36,22.25.62,4.24,3.18,6.6,6.86,7.84,3.41,1.14,6.99,1.8,10.81,2.75.08.87.18,1.98.29,3.11-.23,0-55.35-.57-55.43-.58v-3.82c1.96-.58,3.78-1.09,5.59-1.66,2.04-.64,3.61-1.85,4.57-3.82,1.82-3.74,3.67-7.48,5.54-11.19,2.57-5.11,5.24-10.16,7.74-15.31,1.34-2.75,2.36-5.65,3.6-8.45,5.43-12.35,10.96-24.66,16.29-37.05,2.51-5.82,4.66-11.8,7.11-18.04ZM42.35,53.44c1.88-.41,3.13-.68,4.39-.97,8.79-2,17.6-3.78,24.9-9.75,7.5-6.15,13.27-13.23,13.73-23.39.44-9.83-3.5-12.83-10.99-13.65-3.65-.4-7.36-.18-11.05-.27-2.97-.07-4.28.77-5.24,3.41-4.34,11.99-8.71,23.96-13.02,35.96-.97,2.7-1.73,5.47-2.72,8.67ZM88.55,6.38c-.67-2.33-4.17-3.6-6.3-2.1,2.23.74,4.1,1.37,6.3,2.1Z"/>
  </g>
</svg>