<?xml version="1.0" encoding="UTF-8"?>
<svg id="_레이어_2" data-name="레이어 2" xmlns="http://www.w3.org/2000/svg" viewBox="0 0 81.5 100">
  <defs>
    <style>
      .cls-1 {
        fill: #fff;
        stroke-width: 0px;
      }
    </style>
  </defs>
  <g id="_레이어_1-2" data-name="레이어 1">
    <path class="cls-1" d="M0,.68c3.67,0,6.84.03,10.01,0,13.62-.15,27.27.21,40.85-.61,18.04-1.1,28.65,11.48,29.88,26.12.34,3.99.54,8,.72,12,.77,17.04-10.66,26.63-26.69,27.65-9.73.62-19.48,1.02-29.23,1.15-3.65.05-4.52,1.4-4.45,4.76.18,8.67.06,17.34.06,26.04-7.1.79-13.23,1.47-19.91,2.21C.83,66.65.42,33.83,0,.68ZM21.86,40.46c5.44,0,10.23.31,14.96-.09,4.47-.38,8.99-1.15,13.26-2.47,1.68-.52,4.12-3.36,3.82-4.51-.63-2.37-2.67-5.95-4.48-6.17-8.75-1.08-17.61-1.2-26.71-1.68-.32,5.51-.57,9.87-.85,14.92Z"/>
  </g>
</svg>