<?xml version="1.0" encoding="UTF-8"?>
<svg id="_레이어_2" data-name="레이어 2" xmlns="http://www.w3.org/2000/svg" viewBox="0 0 77.19 100">
  <defs>
    <style>
      .cls-1 {
        fill: #fff;
        stroke-width: 0px;
      }
    </style>
  </defs>
  <g id="_레이어_1-2" data-name="레이어 1">
    <path class="cls-1" d="M27.84,72.25v27.75H0V.02c2.82,0,6.17,0,9.51,0,7.18,0,14.35-.07,21.53.03,13.56.19,25.26,4.59,35,14.46,7.68,7.79,11.81,17.07,11.06,27.58-1.17,16.45-9.39,27.97-27.6,30.03-6.92.78-14,.13-21.66.13ZM36.65,45.84c3.47-.41,7.06-.41,10.39-1.34,3.54-.98,6.81-2.99,7.31-7.21.52-4.33-1.98-6.88-5.52-8.96-4.04-2.37-8.3-3.25-12.89-3.02-10.88.54-9-1.71-9.41,9.01-.49,12.9-1.87,10.33,10.12,11.5Z"/>
  </g>
</svg>