<?xml version="1.0" encoding="UTF-8"?>
<svg id="_레이어_2" data-name="레이어 2" xmlns="http://www.w3.org/2000/svg" viewBox="0 0 96.78 100">
  <defs>
    <style>
      .cls-1 {
        fill: #fff;
        stroke-width: 0px;
      }
    </style>
  </defs>
  <g id="_레이어_1-2" data-name="레이어 1">
    <path class="cls-1" d="M0,.2C21.35.2,43.53-.36,65.66.39c15.9.54,29.81,15.36,31.07,31.08.82,10.23-9.46,22.95-21.72,28.17-8.1,3.45-16.19,7.33-23.41,12.29-8.84,6.07-14.14,14.71-11.69,28.07-10.98-.85-21.06-1.19-30.95-2.77-2.02-.32-4.58-5.21-4.72-8.09-.68-14.11-.28-28.27-.93-42.38C2.63,31.55,1.19,16.37,0,.2ZM24.96,45.27c-.27.03-.54.07-.82.1,0,.9.02,1.81,0,2.71-.38,18.18,3.48,21.04,21.03,15.5,1.98-.63,3.98-1.32,5.8-2.28,12.33-6.51,16.63-18.59,11.86-33.05-3.82-11.59-13.71-16.89-27.31-14.71-3.26.52-6.88.13-9.72,1.48-1.91.9-3.95,4.2-3.81,6.28.53,8.03,1.91,16,2.97,23.99Z"/>
  </g>
</svg>