<?xml version="1.0" encoding="UTF-8"?>
<svg id="_레이어_2" data-name="레이어 2" xmlns="http://www.w3.org/2000/svg" viewBox="0 0 53.4 100">
  <defs>
    <style>
      .cls-1 {
        fill: #fff;
        stroke-width: 0px;
      }
    </style>
  </defs>
  <g id="_레이어_1-2" data-name="레이어 1">
    <g>
      <path class="cls-1" d="M8.73,64.46c0,10.83.03,21.11-.01,31.4-.02,4.39-.92,4.87-5.43,3.37-.91-.3-1.94-.24-3.21-.37v-4.91c0-14.62-.2-29.24.05-43.85C.41,33.61,1.1,17.13,1.63.17,10.25.17,19.08-.34,27.81.39c4.13.35,9.1.91,11.66,5.34-.79,1.33-1.58,2.66-2.4,4.03-.42-.07-.8-.02-.98-.19-4.2-3.96-9.49-5.19-14.95-5.64-3.89-.32-7.82-.06-12.17-.06-.08,1.52-.23,3.07-.23,4.62-.02,14.21.01,28.41-.04,42.62,0,1.87-.39,3.73-.63,5.88,3.7-1.82,7.87-1.15,11.99-1.19,14.82-.13,24.43-9.84,27.16-22.8.74-3.49.81-7,1.24-11.17,1.67,4.06,3.23,7.32,4.36,10.74,1.37,4.15.05,8.14-1.39,12.06-1.95,5.3-5.96,9.02-10.22,12.23-1.59,1.19-2.94,2.65-4.56,3.77-1.98,1.37-10.47,3.79-13.24,3.81-2.47.02-4.94,0-7.41,0h-7.26Z"/>
      <path class="cls-1" d="M44.58,13.77c-.82-.77-1.9-1.41-2.41-2.35-.57-1.06-.63-2.39-1.11-4.48,2.69,1.84,4.94,3.22,7.01,4.84,1.07.84,1.94,2.03,2.63,3.21.34.57.06,1.5.06,2.64-1.93-1.51-3.44-2.68-4.95-3.86-.14-.34-.27-.68-.41-1.03-.28.34-.55.68-.83,1.03Z"/>
      <path class="cls-1" d="M45.82,16.24c-1.85-.11-1.05-1.54-1.24-2.47h1.24v2.47Z"/>
      <path class="cls-1" d="M45.82,16.24c1.85.11,1.05,1.54,1.24,2.47-1.85-.11-1.05-1.54-1.24-2.47Z"/>
      <path class="cls-1" d="M47.47,21.64c-.19-1.31-.3-2.12-.42-2.93.41.48.89.91,1.2,1.45.09.16-.3.6-.78,1.48Z"/>
      <path class="cls-1" d="M52.72,28.71c.14.14.41.35.38.39-.15.27-.36.5-.55.74-.18-.18-.37-.37-.55-.55.24-.2.48-.39.72-.58Z"/>
    </g>
  </g>
</svg>