<?xml version="1.0" encoding="UTF-8"?>
<svg id="_레이어_2" data-name="레이어 2" xmlns="http://www.w3.org/2000/svg" viewBox="0 0 80.65 100">
  <defs>
    <style>
      .cls-1 {
        fill: #fff;
        stroke-width: 0px;
      }
    </style>
  </defs>
  <g id="_레이어_1-2" data-name="레이어 1">
    <g>
      <path class="cls-1" d="M46.92,18.54c9.31-3.41,17.84-1.3,26.69-2.16,1.16,1.31,2.41,2.84,3.79,4.22,2.2,2.21,3.25,4.72,3.25,7.93,0,10.21-.66,11.63-6.09,19.96-5.85,8.98-18.31,14.93-26.13,18.04-.76.3-1.68.26-2.53.26-7.24.02-14.47.01-21.94.01V25.23c-1.1-.52-2.01-.94-2.92-1.37,1.37-4.68,3.09-9.21,2.72-14.16-.18-2.41-.27-4.87.05-7.25.23-1.68.52-3.25,3.51-1.98,2.6,1.1,6.03.23,9.53.23v55.49c5.21.34,9.3-1.65,13.16-3.96,6.38-3.81,11.9-8.54,14.76-16.06-2.85-4.67-7.37-5.65-12.87-4.93-1.64-4.16-3.27-8.32-4.99-12.69Z"/>
      <path class="cls-1" d="M37.82,99.66c-5.58,1.3-10.6-1.48-15.83-2.58-2.82-.59-2.44-3.59-2.05-5.98,1.65-.77,3.3-1.54,5.18-2.42-.5-3.21.18-6.42-1.14-9.89-1.15-3.03-.24-6.84-.24-10.19,4.81-1.73,9.04.57,13.4.94,1.44.12,2.51,1.37,2.5,3.21-.06,6.57.13,13.15-.11,19.71-.09,2.4-1.1,4.77-1.7,7.19Z"/>
      <path class="cls-1" d="M1.46,45.02c-.71-.94-1.31-1.44-1.46-2.05-.08-.33.6-.85.94-1.29.54.45,1.23.81,1.56,1.38.14.24-.46.91-1.05,1.96Z"/>
    </g>
  </g>
</svg>