<?xml version="1.0" encoding="UTF-8"?>
<svg id="_레이어_2" data-name="레이어 2" xmlns="http://www.w3.org/2000/svg" viewBox="0 0 55.26 100">
  <defs>
    <style>
      .cls-1 {
        fill: #fff;
        stroke-width: 0px;
      }
    </style>
  </defs>
  <g id="_레이어_1-2" data-name="레이어 1">
    <path class="cls-1" d="M6.62,66.29c-3.96,10.69-.8,21.87-2.45,33.71-1.73-1.52-3.19-2.34-3.9-3.59-.54-.94-.11-2.43-.11-3.68,0-29.68,0-59.37,0-89.05,0-.47.14-.93.22-1.4C2.61,1.61,4.79.58,7.05.35c3.21-.33,6.58-.59,9.7.02,6.41,1.25,12.98,1.92,19.11,4.39.64.26,1.34.48,1.87.9,7.48,5.98,12.27,13.93,16.34,22.4-1.83,2.93,2.98,5.32.43,8.72-1.55,2.07-1.38,5.35-2.3,7.98-3.6,10.27-10.9,17.21-20.91,20.77-7.53,2.68-15.57,3.11-23.55,1.43-.37-.08-.7-.41-1.12-.68ZM6.15,61.65c6.51,0,12.23-.14,17.95.05,3.64.12,6.34-1.38,8.96-3.68,4.03-3.55,6.79-7.89,9.08-12.67,1.07-2.23,2.06-4.47,1.4-6.85-1.43-5.1-2.26-10.45-5.68-14.8-1.16-1.47-3.02-3.1-3-4.64.05-3.61-2.32-5.04-3.99-6.64H6.47v7.17c1.49.12,2.67.22,3.82.32.23,1.74,1.56,3.62-1.07,4.3-2.69.7-3.1,2.58-3.09,4.98.06,10.66.02,21.32.02,32.47Z"/>
  </g>
</svg>