<?xml version="1.0" encoding="UTF-8"?>
<svg id="_레이어_2" data-name="레이어 2" xmlns="http://www.w3.org/2000/svg" viewBox="0 0 76.93 100">
  <defs>
    <style>
      .cls-1 {
        fill: #fff;
        stroke-width: 0px;
      }
    </style>
  </defs>
  <g id="_레이어_1-2" data-name="레이어 1">
    <path class="cls-1" d="M20.97,69.61v30.39H0c2.83-4.9,2-10.07,2.01-15.17.04-28,.02-56,.02-84.82h6.48C17.28.02,26.05.07,34.81,0c6.27-.05,12.14,1.7,18.14,3.31,8.92,2.39,14.69,7.9,18.92,15.83,2.68,5.02,5.02,9.93,5.05,15.75.03,4.12-1.81,7.83-2.13,11.97-.28,3.62-2.7,7.52-5.19,10.42-5.33,6.19-12.16,10.25-20.17,12.62-6.28,1.87-12.55,1.65-18.85,1.49-3.1-.08-6.17-1.11-9.61-1.78ZM45.92,52.26c1.96-1.96,4.23-3.76,5.9-6.01,2.26-3.04,3.95-6.58,3.78-10.45-.3-6.68-3.84-11.8-8.98-15.74-1.82-1.4-4.19-2.77-6.38-2.88-6.98-.37-13.99-.14-21.58-.14,4.11,4.16-.67,7.33.18,11.06.92,4.04.21,8.45.21,12.69v11.66c4.78.73,9.04,1.9,13.29,1.88,4.28-.02,8.54-1.24,13.59-2.06Z"/>
  </g>
</svg>