<?xml version="1.0" encoding="UTF-8"?>
<svg id="_레이어_2" data-name="레이어 2" xmlns="http://www.w3.org/2000/svg" viewBox="0 0 80.56 100">
  <defs>
    <style>
      .cls-1 {
        fill: #fff;
        stroke-width: 0px;
      }
    </style>
  </defs>
  <g id="_레이어_1-2" data-name="레이어 1">
    <path class="cls-1" d="M4.31,92.5c13.35-2.44,16.2-7.04,13.89-19.75-1.21-6.64-1.65-13.44-2.13-20.19-.67-9.44-.95-18.92-1.59-28.36-.24-3.54-1.03-7.04-1.59-10.72-4.63-.54-8.62-1-12.89-1.5v-7.58c5.87-.97,11.76-2.39,17.73-2.84C28.88.72,40.08.02,51.26,0c17.88-.04,28.88,11.78,29.29,29.85.23,9.94-4.07,17.11-11.35,23.11-8.47,6.99-18.28,10.5-29.12,11.42-1.83.16-3.63.65-5.74,1.05.55,7.76,1.05,14.84,1.57,22.2h10.41c.76,2.83,1.47,5.45,2.28,8.45-14.96,1.33-29.14,2.6-43.88,3.91-.15-2.93-.26-4.99-.39-7.5ZM29.28,12.22c1.13,13.9,2.21,27.11,3.32,40.79,6.45,1.17,12.65.39,18.45-1.77,15.12-5.64,16.14-23.84,10.47-34.05-1.61-2.9-5.27-6.16-8.28-6.49-7.79-.84-15.89-1.98-23.95,1.52Z"/>
  </g>
</svg>