<?xml version="1.0" encoding="UTF-8"?>
<svg id="_레이어_2" data-name="레이어 2" xmlns="http://www.w3.org/2000/svg" viewBox="0 0 145.57 93.15">
  <defs>
    <style>
      .cls-1 {
        fill: #fff;
        stroke-width: 0px;
      }
    </style>
  </defs>
  <g id="_레이어_1-2" data-name="레이어 1">
    <path class="cls-1" d="M82.62,66.83c0,8-.11,15.27.05,22.53.07,2.88-.88,3.83-3.78,3.79-22.8-.32-45.6-.54-68.4-.73-10.51-.09-10.59-.02-10.48-10.42C.29,56.44.63,30.89.98,5.33,1.06-.07,1.12-.06,6.57.01c20.33.27,40.68.31,61,.88,17.04.47,34,2.21,50.41,7.09,5.84,1.74,11.42,4.59,16.79,7.54,9.69,5.31,11.59,14.36,10.54,24.43-.94,8.94-5.47,15.37-13.93,18.75-12.17,4.87-24.71,8.03-37.9,8.13-3.41.02-6.82,0-10.85,0ZM64.61,48.72c6.16-.22,12.4.76,16.09-4.92,2.22-3.42,1.91-7.75-.86-10.79-4.19-4.62-10.05-2.66-15.23-3.37v19.09Z"/>
  </g>
</svg>