<?xml version="1.0" encoding="UTF-8"?>
<svg id="_레이어_2" data-name="레이어 2" xmlns="http://www.w3.org/2000/svg" viewBox="0 0 68.69 100">
  <defs>
    <style>
      .cls-1 {
        fill: #fff;
        stroke-width: 0px;
      }
    </style>
  </defs>
  <g id="_레이어_1-2" data-name="레이어 1">
    <path class="cls-1" d="M32.73,59.08c0,4.93-.01,9.6,0,14.28.02,4.39-.11,8.78.14,13.16.26,4.6,2.61,8.02,6.77,10.1,1.37.69,2.41,1.51,1.85,3.38H0v-2.7c.32-.25.77-.73,1.32-.99,5.37-2.55,7.66-7.02,7.73-12.73.12-9.13.13-18.26.15-27.39.03-15.04.04-30.08.04-45.12,0-1.4-.06-2.82-.29-4.19-.48-2.87-1.83-4.17-4.65-4.75-.5-.1-.99-.25-1.62-.41.11-.61.19-1.09.28-1.59C3.31.08,3.53,0,3.76,0c11.41.03,22.82,0,34.23.13,5.53.07,10.95,1.03,16,3.44,7.22,3.45,12.15,8.85,13.77,16.85,1.23,6.09,1.32,12.23-.31,18.27-3.06,11.37-10.54,17.92-22.16,19.6-3.23.47-6.52.46-9.79.66-.8.05-1.61.07-2.78.13ZM33.12,47.11c4.29-.4,7.24-2.94,8.49-7.24,1.34-4.61,1.41-9.34,1.16-14.09-.18-3.4-.58-6.76-2.14-9.87-1.53-3.04-4.09-4.29-7.51-4.48v35.67Z"/>
  </g>
</svg>