<?xml version="1.0" encoding="UTF-8"?>
<svg id="_레이어_2" data-name="레이어 2" xmlns="http://www.w3.org/2000/svg" viewBox="0 0 64.64 91.78">
  <defs>
    <style>
      .cls-1 {
        fill: #fff;
        stroke-width: 0px;
      }
    </style>
  </defs>
  <g id="_레이어_1-2" data-name="레이어 1">
    <path class="cls-1" d="M20.03,91.74c-5.88,0-11.18.16-16.44-.15-.95-.06-2.54-2.07-2.56-3.2C.57,63.28.27,38.17,0,13.05c-.02-1.81.53-3.62.57-5.43C.7-.03.66-.12,8.57.03c11.97.22,24.04-.34,35.86,1.11,15.8,1.93,22.92,15.16,19.27,30.56-2.83,11.92-15.14,19.15-27.22,19.43-3.99.09-8,.23-11.98-.03-3.57-.23-4.57,1.2-4.52,4.6.16,11.63.06,23.27.06,36.03ZM20.72,37.91c7.77-1.48,14.17-2.49,20.46-3.98,4.27-1.01,4.68-4.77,4.48-8.36-.21-3.81-.37-8.43-4.94-9.3-6.63-1.27-13.47-1.46-19.99-2.08v23.73Z"/>
  </g>
</svg>