<?xml version="1.0" encoding="UTF-8"?>
<svg id="_레이어_2" data-name="레이어 2" xmlns="http://www.w3.org/2000/svg" viewBox="0 0 69.04 100.3">
  <defs>
    <style>
      .cls-1 {
        fill: #fff;
        stroke-width: 0px;
      }
    </style>
  </defs>
  <g id="_레이어_1-2" data-name="레이어 1">
    <path class="cls-1" d="M15.53,58.03v42.25c-4.4,0-8.18-.06-11.95.02-2.68.06-3.19-1.15-3.19-3.69C.34,67.31.18,38.01,0,8.71-.04-.12-.1-.05,8.75.16c4.84.12,9.71-.4,14.52,0,9.2.77,18.75.7,27.47,3.31,16.3,4.87,19.67,16.97,17.86,32.7-1.53,13.34-12.67,21.86-26.49,21.86-8.64,0-17.29,0-26.58,0ZM15.88,43.03c7.2,0,13.67.12,20.14-.03,8.44-.2,13.53-4.79,13.97-12.32.54-9-3.46-14.57-12.11-15.6-6.38-.77-12.88-.64-19.32-.62-.9,0-2.54,1.71-2.56,2.65-.2,8.45-.12,16.91-.12,25.92Z"/>
  </g>
</svg>