<?xml version="1.0" encoding="UTF-8"?>
<svg id="_레이어_2" data-name="레이어 2" xmlns="http://www.w3.org/2000/svg" viewBox="0 0 273.8 260.43">
  <defs>
    <style>
      .cls-1 {
        fill: #fff;
      }

      .cls-2 {
        fill: #ff8fbd;
        stroke: #ce115e;
        stroke-width: 1.5px;
      }

      .cls-2, .cls-3 {
        stroke-miterlimit: 10;
      }

      .cls-2, .cls-3, .cls-4 {
        stroke-linecap: round;
      }

      .cls-5 {
        fill: #f41506;
      }

      .cls-3 {
        fill: none;
        stroke: #040000;
        stroke-width: 3.5px;
      }

      .cls-4 {
        fill: red;
        stroke: #ba1e1e;
        stroke-linejoin: round;
        stroke-width: 2px;
      }

      .cls-6 {
        fill: #040000;
      }
    </style>
  </defs>
  <g id="Layer_1" data-name="Layer 1">
    <g>
      <path class="cls-5" d="M198.67,49.66l46.3,1.61c2.06.07,3.49,2.09,2.88,4.06l-13.47,43.5c-.39,1.26.05,2.62,1.09,3.42l37.08,28.24c1.67,1.27,1.64,3.8-.06,5.03l-36.71,26.61c-1.09.79-1.55,2.19-1.15,3.47l13.74,43.9c.63,2.03-.89,4.08-3.01,4.07l-46-.27c-1.35,0-2.55.84-2.98,2.12l-14.68,42.89c-.68,1.99-3.08,2.76-4.79,1.53l-37.87-27.18c-1.07-.77-2.5-.78-3.59-.04l-37.65,25.62c-1.71,1.16-4.05.38-4.72-1.57l-15.11-43.8c-.42-1.23-1.56-2.06-2.85-2.11l-46.3-1.61c-2.06-.07-3.49-2.09-2.88-4.06l13.47-43.5c.39-1.26-.05-2.62-1.09-3.42L1.23,129.94c-1.67-1.27-1.64-3.8.06-5.03l36.71-26.61c1.09-.79,1.55-2.19,1.15-3.47l-13.74-43.9c-.63-2.03.89-4.08,3.01-4.07l46,.27c1.35,0,2.55-.84,2.98-2.12L92.08,2.12c.68-1.99,3.08-2.76,4.79-1.53l37.87,27.18c1.07.77,2.5.78,3.59.04L175.98,2.19c1.71-1.16,4.05-.38,4.72,1.57l15.11,43.8c.42,1.23,1.56,2.06,2.85,2.11Z"/>
      <g>
        <path class="cls-1" d="M236.19,128.16c0,22.21-6.71,45.94-19.98,62.15-18.18,22.21-47.61,33.19-79.31,33.19s-64.09-12.57-82.11-36.65c-11.72-15.65-17.18-37.95-17.18-58.69,0-52.65,44.45-95.34,99.29-95.34s99.29,42.68,99.29,95.34Z"/>
        <path class="cls-3" d="M111.65,95.28c0-4.57,3.71-8.28,8.28-8.28,2.75,0,5.18,1.34,6.69,3.4"/>
        <path class="cls-3" d="M158.41,94.9c0-4.57-3.71-8.28-8.28-8.28-2.75,0-5.18,1.34-6.69,3.4"/>
        <circle class="cls-6" cx="146.75" cy="108.85" r="3.87"/>
        <circle class="cls-6" cx="123.85" cy="108.85" r="3.87"/>
        <ellipse class="cls-2" cx="136.31" cy="123.41" rx="4.22" ry="2.66"/>
        <path class="cls-4" d="M156.96,159.96v4.83c0,11.36-9.29,20.65-20.65,20.65h0c-11.36,0-20.65-9.29-20.65-20.65v-4.83h41.29Z"/>
      </g>
    </g>
  </g>
</svg>