<?xml version="1.0" encoding="UTF-8"?>
<svg id="_레이어_2" data-name="레이어 2" xmlns="http://www.w3.org/2000/svg" viewBox="0 0 527.21 150.95">
  <defs>
    <style>
      .cls-1 {
        fill: #fff;
      }
    </style>
  </defs>
  <g id="_레이어_1-2" data-name="레이어 1">
    <g>
      <g>
        <path class="cls-1" d="M136.44,101.02H44.95V9.53h91.49v91.5ZM46.76,99.21h87.87V11.34H46.76v87.87Z"/>
        <path class="cls-1" d="M136.84,101.42H44.55V9.13h92.28v92.29ZM45.34,100.63h90.7V9.92H45.34v90.71ZM135.03,99.61H46.37V10.95h88.66v88.66ZM47.16,98.82h87.08V11.74H47.16v87.08Z"/>
      </g>
      <g>
        <path class="cls-1" d="M238.05,101.02h-91.49V9.53h91.49v91.5ZM148.36,99.21h87.87V11.34h-87.87v87.87Z"/>
        <path class="cls-1" d="M238.44,101.42h-92.28V9.13h92.28v92.29ZM146.95,100.63h90.7V9.92h-90.7v90.71ZM236.63,99.61h-88.66V10.95h88.66v88.66ZM148.76,98.82h87.08V11.74h-87.08v87.08Z"/>
      </g>
      <path class="cls-1" d="M18.19,53.17c9.71,0,14.57,5.96,14.57,17.88v.7H10.93c0,4.41,1.03,7.72,3.09,9.93s5.14,3.31,9.26,3.31c2.8,0,5.96-.76,9.48-2.29v4.83c-4.16,1.44-8.21,2.16-12.15,2.16-5.96,0-10.67-1.68-14.14-5.03-3.47-3.35-5.2-7.9-5.2-13.65,0-5.3,1.56-9.6,4.69-12.9,3.13-3.3,7.2-4.95,12.23-4.95M11.16,68.79h12.34v-1.11c0-4.22-.43-7.2-1.28-8.94-.85-1.74-2.32-2.61-4.4-2.61-2.21,0-3.88,1.06-4.99,3.17-1.12,2.11-1.67,5.28-1.67,9.5M18.19,51.91c-5.36,0-9.79,1.8-13.15,5.34-3.34,3.53-5.04,8.16-5.04,13.77,0,6.08,1.88,10.97,5.59,14.56,3.69,3.57,8.75,5.38,15.02,5.38,4.07,0,8.29-.75,12.57-2.23l.85-.29v-7.66l-1.77.77c-3.34,1.45-6.36,2.19-8.98,2.19-3.73,0-6.54-.98-8.33-2.91-1.63-1.75-2.54-4.37-2.71-7.8h21.79v-1.96c0-12.7-5.33-19.14-15.83-19.14h0ZM12.44,67.53c.1-3.37.61-5.93,1.51-7.64.9-1.7,2.13-2.49,3.87-2.49,1.59,0,2.63.6,3.27,1.9.75,1.54,1.14,4.31,1.15,8.23h-9.8Z"/>
      <path class="cls-1" d="M263.28,53.17c4.41,0,7.8.91,10.15,2.74,2.35,1.82,3.53,4.44,3.53,7.86v15.33c0,2.72.2,4.56.6,5.54.38,1,1.11,1.49,2.19,1.49.32,0,.69-.06,1.11-.19l.41,2.96c-1.63.53-3.23.8-4.8.8-1.72,0-3.21-.4-4.48-1.21-1.27-.81-2.32-2.01-3.15-3.63-1.68,1.61-3.39,2.82-5.14,3.63s-3.54,1.21-5.36,1.21c-3.09,0-5.66-.96-7.7-2.88-2.04-1.92-3.05-4.34-3.05-7.27,0-3.41,1.3-6.14,3.88-8.17,1.55-1.23,3.38-2.08,5.5-2.56s5.11-.72,8.97-.72h1.59v-4.23c0-2.99-.38-5.03-1.13-6.11s-2.15-1.62-4.18-1.62c-2.48,0-4.35.67-5.6,2-.43.43-.7,1.85-.83,4.26l-.03.6h-5.12v-7.06c4.03-1.85,8.24-2.77,12.63-2.77M262.42,84.66c.95,0,1.85-.18,2.7-.54s1.66-.89,2.42-1.59v-11.58h-1.24c-3.14,0-5.5.63-7.08,1.89s-2.37,3.15-2.37,5.68c0,1.87.5,3.36,1.51,4.47,1.01,1.11,2.36,1.67,4.06,1.67M263.28,51.91c-4.55,0-8.98.97-13.15,2.88l-.74.34v9.14h7.59l.06-1.2.03-.6c.15-2.85.48-3.44.51-3.49.99-1.05,2.52-1.57,4.65-1.57,1.59,0,2.65.36,3.15,1.08.34.48.9,1.83.9,5.39v2.97h-.33c-3.93,0-7.05.25-9.25.75-2.3.52-4.32,1.46-6.01,2.8-2.89,2.28-4.36,5.36-4.36,9.16,0,3.28,1.16,6.03,3.45,8.19,2.27,2.14,5.15,3.22,8.56,3.22,2,0,3.98-.45,5.89-1.33,1.46-.67,2.91-1.61,4.31-2.8.78,1.14,1.71,2.05,2.77,2.72,1.47.93,3.21,1.4,5.16,1.4,1.69,0,3.44-.29,5.19-.86l1.01-.33-.15-1.05-.41-2.96-.2-1.46-1.41.43c-.37.11-.61.14-.75.14-.55,0-.82-.18-1.01-.68-.24-.59-.52-1.92-.52-5.08v-15.33c0-3.81-1.35-6.79-4.02-8.86-2.57-1.99-6.24-3-10.92-3h0ZM262.42,83.4c-1.34,0-2.36-.41-3.12-1.25-.79-.88-1.18-2.06-1.18-3.62,0-2.14.62-3.67,1.89-4.69,1.34-1.07,3.45-1.61,6.27-1.62v9.74c-.53.43-1.08.77-1.65,1.01-.69.3-1.42.44-2.21.44h0Z"/>
      <path class="cls-1" d="M297.99,46.43v7.54h7.73v3.15h-7.73v21.15c0,3.12.31,5.17.92,6.17.61,1,1.89,1.49,3.82,1.49,1.06,0,2.19-.24,3.4-.73v3.4c-1.97.72-3.9,1.08-5.79,1.08-3.92,0-6.87-.97-8.83-2.91-1.96-1.94-2.94-4.85-2.94-8.73v-20.93h-4.33v-3.15h4.33v-5.89l9.42-1.65M299.25,44.92l-1.48.26-9.42,1.65-1.05.18v5.68h-4.33v5.68h4.33v19.67c0,4.22,1.12,7.46,3.32,9.63,2.2,2.17,5.47,3.28,9.72,3.28,2.03,0,4.12-.39,6.22-1.16l.83-.3v-6.16l-1.74.7c-1.05.42-2.04.64-2.93.64-1,0-2.29-.16-2.74-.89-.28-.44-.73-1.75-.73-5.51v-19.89h7.73v-5.68h-7.73v-7.78h0Z"/>
      <path class="cls-1" d="M329.21,53.17c5.62,0,10.05,1.63,13.28,4.88,3.23,3.26,4.85,7.71,4.85,13.38s-1.62,10.12-4.85,13.38c-3.24,3.26-7.66,4.88-13.28,4.88s-10.08-1.63-13.31-4.88c-3.23-3.26-4.85-7.71-4.85-13.38s1.62-10.12,4.85-13.38,7.67-4.88,13.31-4.88M329.21,86.35c2.59,0,4.52-1.24,5.81-3.74,1.28-2.49,1.92-6.22,1.92-11.18s-.64-8.72-1.92-11.2c-1.28-2.48-3.22-3.72-5.81-3.72s-4.53,1.24-5.82,3.72c-1.29,2.48-1.94,6.22-1.94,11.2s.65,8.69,1.94,11.18c1.29,2.49,3.23,3.74,5.82,3.74M329.21,51.91c-5.96,0-10.75,1.77-14.21,5.26-3.46,3.49-5.22,8.29-5.22,14.27s1.76,10.78,5.22,14.27c3.46,3.49,8.24,5.26,14.21,5.26s10.71-1.77,14.18-5.26c3.46-3.49,5.22-8.29,5.22-14.27s-1.76-10.78-5.22-14.27c-3.47-3.49-8.24-5.26-14.18-5.26h0ZM329.21,85.09c-2.13,0-3.62-.97-4.7-3.06-1.19-2.3-1.8-5.87-1.8-10.6s.6-8.32,1.8-10.61c1.08-2.07,2.58-3.04,4.7-3.04s3.61.97,4.68,3.04c1.18,2.29,1.78,5.86,1.78,10.62s-.6,8.3-1.78,10.6c-1.07,2.08-2.56,3.05-4.68,3.05h0Z"/>
      <path class="cls-1" d="M368.77,53.17c1.35,0,2.63.11,3.83.32s2.32.53,3.38.95l13-1.08-1.97,5.03-6.87-.95c2.01,2.4,3.02,5,3.02,7.83,0,3.5-1.26,6.43-3.78,8.79-2.52,2.36-5.64,3.55-9.37,3.55-.76,0-1.8-.05-3.11-.16l-1.85-.32c-.72.55-1.26,1.1-1.62,1.64-.36.54-.54,1.09-.54,1.64,0,1.34,1.73,2,5.18,2h5.34c4.96,0,8.48.63,10.58,1.88,2.07,1.27,3.11,3.4,3.11,6.39,0,3.48-1.67,6.28-5.01,8.4-3.34,2.12-7.76,3.18-13.25,3.18-4.92,0-8.95-.7-12.09-2.1-3.14-1.4-4.71-3.19-4.71-5.38,0-3.18,2.45-5.56,7.36-7.13-2.43-1.27-3.64-2.8-3.64-4.58,0-1.14.56-2.26,1.67-3.36,1.11-1.09,2.78-2.16,5-3.2-2.62-.97-4.58-2.38-5.89-4.23-1.31-1.85-1.96-4.13-1.96-6.84,0-3.73,1.29-6.71,3.86-8.94,2.57-2.23,6.01-3.34,10.31-3.34M368.88,74.9c1.82,0,3.19-.78,4.09-2.34.9-1.56,1.35-3.89,1.35-6.98s-.45-5.45-1.35-7c-.9-1.55-2.26-2.32-4.09-2.32s-3.16.77-4.07,2.32c-.91,1.55-1.37,3.88-1.37,7s.45,5.42,1.37,6.98c.91,1.56,2.27,2.34,4.07,2.34M369.58,99.3c2.52,0,4.63-.66,6.31-1.97,1.69-1.32,2.53-2.95,2.53-4.9,0-1.32-.6-2.3-1.8-2.94-1.2-.65-2.99-.97-5.39-.97h-8.78c-.87,1.89-1.31,3.4-1.31,4.55,0,1.72.83,3.19,2.48,4.41,1.65,1.22,3.63,1.83,5.95,1.83M368.77,51.91c-4.6,0-8.35,1.23-11.14,3.65-2.85,2.47-4.3,5.8-4.3,9.89,0,2.97.74,5.52,2.2,7.57,1.01,1.42,2.36,2.61,4.05,3.57-1.24.72-2.24,1.46-3.02,2.23-1.36,1.33-2.05,2.76-2.05,4.26,0,1.61.72,3.04,2.16,4.27-3.9,1.75-5.88,4.25-5.88,7.44,0,2.72,1.84,4.92,5.46,6.53,3.29,1.47,7.53,2.21,12.6,2.21,5.71,0,10.39-1.14,13.93-3.38,3.71-2.36,5.6-5.54,5.6-9.47,0-3.44-1.25-5.96-3.72-7.47-2.33-1.39-6.01-2.06-11.24-2.06h-5.34c-3.44,0-3.91-.7-3.91-.71,0-.33.11-.64.33-.97.21-.31.52-.65.92-.99l1.28.22c1.48.12,2.53.18,3.32.18,4.04,0,7.48-1.31,10.23-3.89,2.77-2.6,4.18-5.87,4.18-9.72,0-2.17-.54-4.24-1.61-6.18l4.03.56.99.14.36-.93,1.97-5.03.74-1.89-2.02.17-12.71,1.06c-1.06-.4-2.19-.71-3.35-.91-1.27-.22-2.63-.34-4.05-.34h0ZM368.88,73.64c-1.35,0-2.3-.54-2.98-1.71-.79-1.35-1.19-3.49-1.19-6.34s.4-5.02,1.19-6.36c.68-1.16,1.63-1.7,2.98-1.7s2.32.54,3,1.69c.78,1.35,1.18,3.49,1.18,6.36s-.4,4.99-1.18,6.35c-.67,1.17-1.62,1.71-2.99,1.71h0ZM363.27,89.78h7.96c2.17,0,3.79.27,4.79.82.8.43,1.14.98,1.14,1.83,0,1.55-.67,2.83-2.04,3.9-1.47,1.15-3.28,1.7-5.54,1.7-2.05,0-3.75-.52-5.2-1.58-1.33-.98-1.97-2.08-1.97-3.39,0-.58.16-1.6.87-3.28h0Z"/>
      <path class="cls-1" d="M419.93,53.17c.49,0,1.1.08,1.85.25v11.13h-4.33l-.03-.57c-.17-2.35-.32-3.69-.46-3.99-.14-.31-.66-.46-1.58-.46-2.71,0-4.91,1.47-6.58,4.42v15.72c0,2.88.23,4.6.7,5.15.47.55,2.01.91,4.61,1.08l.6.03v2.96h-20.42v-2.96l.6-.03c2.14-.15,3.42-.52,3.85-1.1.43-.58.64-2.3.64-5.14v-16.48c0-2.84-.21-4.55-.64-5.14-.42-.58-1.71-.95-3.85-1.1l-.6-.03v-2.96h14.5v6.59c2.86-4.92,6.57-7.38,11.14-7.38M419.93,51.91c-3.84,0-7.14,1.57-9.87,4.69v-3.89h-17.03v5.42l1.2.06.6.03c2.42.17,2.89.59,2.91.6.01.03.37.75.37,4.37v16.48c0,3.62-.36,4.34-.4,4.41,0,0,0,0,0,0-.01,0-.51.4-2.9.57l-.58.03-1.2.06v5.42h22.95v-5.42l-1.2-.06-.6-.03c-3.08-.2-3.69-.62-3.75-.67.01,0-.37-.72-.37-4.3v-15.37c1.42-2.35,3.16-3.5,5.32-3.5.21,0,.36,0,.47.02.06.41.16,1.33.3,3.26l.03.56.07,1.19h6.78v-13.41l-.98-.22c-.84-.19-1.54-.29-2.13-.29h0Z"/>
      <path class="cls-1" d="M440.48,53.17c4.41,0,7.8.91,10.15,2.74,2.35,1.82,3.53,4.44,3.53,7.86v15.33c0,2.72.2,4.56.6,5.54.38,1,1.11,1.49,2.19,1.49.32,0,.69-.06,1.11-.19l.41,2.96c-1.63.53-3.23.8-4.8.8-1.72,0-3.21-.4-4.48-1.21-1.27-.81-2.32-2.01-3.15-3.63-1.68,1.61-3.39,2.82-5.14,3.63s-3.54,1.21-5.36,1.21c-3.09,0-5.66-.96-7.7-2.88-2.04-1.92-3.05-4.34-3.05-7.27,0-3.41,1.3-6.14,3.88-8.17,1.55-1.23,3.38-2.08,5.5-2.56s5.11-.72,8.97-.72h1.59v-4.23c0-2.99-.38-5.03-1.13-6.11s-2.15-1.62-4.18-1.62c-2.48,0-4.35.67-5.6,2-.43.43-.7,1.85-.83,4.26l-.03.6h-5.12v-7.06c4.03-1.85,8.24-2.77,12.63-2.77M439.62,84.66c.95,0,1.85-.18,2.7-.54s1.66-.89,2.42-1.59v-11.58h-1.24c-3.14,0-5.5.63-7.08,1.89s-2.37,3.15-2.37,5.68c0,1.87.5,3.36,1.51,4.47,1.01,1.11,2.36,1.67,4.06,1.67M440.48,51.91c-4.55,0-8.98.97-13.15,2.88l-.74.34v9.14h7.59l.06-1.2.03-.6c.15-2.85.48-3.44.51-3.49.99-1.05,2.52-1.57,4.65-1.57,1.59,0,2.65.36,3.15,1.08.34.48.9,1.83.9,5.39v2.97h-.33c-3.93,0-7.05.25-9.25.75-2.3.52-4.32,1.46-6.01,2.8-2.89,2.28-4.36,5.36-4.36,9.16,0,3.28,1.16,6.03,3.45,8.19,2.27,2.14,5.15,3.22,8.56,3.22,2,0,3.98-.45,5.89-1.33,1.46-.67,2.91-1.61,4.31-2.8.78,1.14,1.71,2.05,2.77,2.72,1.47.93,3.21,1.4,5.16,1.4,1.69,0,3.44-.29,5.19-.86l1.01-.33-.15-1.05-.41-2.96-.2-1.46-1.41.43c-.37.11-.61.14-.75.14-.55,0-.82-.18-1.01-.68-.24-.59-.52-1.92-.52-5.08v-15.33c0-3.81-1.35-6.79-4.02-8.86-2.57-1.99-6.24-3-10.92-3h0ZM439.62,83.4c-1.34,0-2.36-.41-3.12-1.25-.79-.88-1.18-2.06-1.18-3.62,0-2.14.62-3.67,1.89-4.69,1.34-1.07,3.45-1.61,6.27-1.62v9.74c-.53.43-1.08.77-1.65,1.01-.69.3-1.42.44-2.21.44h0Z"/>
      <path class="cls-1" d="M511.61,53.17c6.16,0,9.24,3.34,9.24,10.02v16.48c0,2.84.21,4.55.64,5.14.42.58,1.72.95,3.88,1.1l.57.03v2.96h-18.42v-2.96l.6-.03c1.77-.11,2.83-.46,3.17-1.07.35-.6.52-2.33.52-5.17v-14.37c0-4.27-1.36-6.41-4.08-6.41-1.53,0-2.99.46-4.37,1.38-1.38.92-2.69,2.3-3.92,4.16v15.24c0,2.82.18,4.54.54,5.15.36.61,1.42.97,3.18,1.08l.57.03v2.96h-17.62v-2.96l.6-.03c1.77-.11,2.83-.46,3.17-1.05.35-.59.52-2.32.52-5.18v-14.35c0-2.14-.34-3.75-1.02-4.82s-1.71-1.61-3.09-1.61c-1.57,0-3.04.45-4.42,1.35s-2.66,2.26-3.85,4.09v15.33c0,2.82.19,4.54.56,5.15.37.61,1.41.97,3.14,1.08l.6.03v2.96h-18.42v-2.96l.6-.03c2.14-.15,3.42-.52,3.85-1.1.43-.58.64-2.3.64-5.14v-16.48c0-2.84-.21-4.55-.64-5.14-.42-.58-1.71-.95-3.85-1.1l-.6-.03v-2.96h14.12v6.59c1.72-2.46,3.58-4.31,5.58-5.54,2.01-1.23,4.15-1.85,6.44-1.85,2.55,0,4.56.61,6.06,1.85,1.5,1.23,2.47,3.07,2.91,5.54,2.08-2.46,4.17-4.31,6.28-5.54,2.1-1.23,4.21-1.85,6.31-1.85M511.61,51.91c-2.32,0-4.66.68-6.95,2.02-1.68.98-3.36,2.34-5.03,4.06-.61-1.64-1.52-2.96-2.72-3.95-1.72-1.41-4.03-2.13-6.86-2.13-2.52,0-4.91.68-7.1,2.03-1.27.78-2.5,1.8-3.66,3.03v-4.27h-16.65v5.42l1.2.06.6.03c2.42.17,2.89.59,2.91.6.01.03.37.75.37,4.37v16.48c0,3.62-.36,4.34-.4,4.41,0,0,0,0,0,0-.01,0-.51.4-2.9.57l-.58.03-1.2.06v5.42h20.94v-5.42l-1.2-.06-.6-.03c-1.78-.11-2.13-.48-2.13-.48-.03-.05-.36-.79-.36-4.49v-14.95c1.03-1.51,2.13-2.66,3.28-3.41,1.18-.77,2.4-1.15,3.73-1.15.95,0,1.57.31,2.02,1.02.55.86.82,2.25.82,4.14v14.35c0,3.64-.29,4.43-.35,4.55,0,0,0,0,0,0-.02,0-.45.32-2.15.42l-.59.03-1.2.06v5.42h20.15v-5.42l-1.2-.06-.57-.03c-1.81-.11-2.17-.48-2.18-.48-.02-.04-.35-.78-.35-4.49v-14.85c1.07-1.55,2.2-2.73,3.36-3.49,1.18-.78,2.38-1.17,3.67-1.17.77,0,2.82,0,2.82,5.14v14.37c0,3.64-.29,4.42-.35,4.54,0,0,0,0,0,0-.01,0-.43.33-2.15.43l-.59.03-1.2.06v5.42h20.95v-5.42l-1.2-.06-.57-.03c-2.45-.17-2.93-.59-2.95-.61-.01-.03-.38-.75-.38-4.37v-16.48c0-7.38-3.63-11.28-10.5-11.28h0Z"/>
      <g>
        <polygon class="cls-1" points="46.76 11.34 35.81 11.34 35.81 9.53 44.95 9.53 44.95 .39 46.76 .39 46.76 11.34"/>
        <path class="cls-1" d="M47.16,11.74h-11.74v-2.6h9.14V0h2.6v11.74ZM36.21,10.95h10.16V.79h-1.02v9.13h-9.14v1.02Z"/>
      </g>
      <g>
        <polygon class="cls-1" points="145.58 11.34 134.63 11.34 134.63 .39 136.44 .39 136.44 9.53 145.58 9.53 145.58 11.34"/>
        <path class="cls-1" d="M145.97,11.74h-11.74V0h2.6v9.13h9.14v2.6ZM135.03,10.95h10.16v-1.02h-9.14V.79h-1.02v10.16Z"/>
      </g>
      <g>
        <polygon class="cls-1" points="148.36 11.34 137.42 11.34 137.42 9.53 146.55 9.53 146.55 .39 148.36 .39 148.36 11.34"/>
        <path class="cls-1" d="M148.76,11.74h-11.74v-2.6h9.14V0h2.6v11.74ZM137.81,10.95h10.16V.79h-1.02v9.13h-9.14v1.02Z"/>
      </g>
      <g>
        <polygon class="cls-1" points="247.18 11.34 236.23 11.34 236.23 .39 238.05 .39 238.05 9.53 247.18 9.53 247.18 11.34"/>
        <path class="cls-1" d="M247.58,11.74h-11.74V0h2.6v9.13h9.14v2.6ZM236.63,10.95h10.16v-1.02h-9.14V.79h-1.02v10.16Z"/>
      </g>
      <g>
        <polygon class="cls-1" points="238.05 110.16 236.23 110.16 236.23 99.21 247.18 99.21 247.18 101.02 238.05 101.02 238.05 110.16"/>
        <path class="cls-1" d="M238.44,110.56h-2.6v-11.74h11.74v2.6h-9.14v9.14ZM236.63,109.77h1.02v-9.14h9.14v-1.02h-10.16v10.16Z"/>
      </g>
      <g>
        <polygon class="cls-1" points="148.36 110.16 146.55 110.16 146.55 101.02 137.42 101.02 137.42 99.21 148.36 99.21 148.36 110.16"/>
        <path class="cls-1" d="M148.76,110.56h-2.6v-9.14h-9.14v-2.6h11.74v11.74ZM146.95,109.77h1.02v-10.16h-10.16v1.02h9.14v9.14Z"/>
      </g>
      <g>
        <polygon class="cls-1" points="136.44 110.16 134.63 110.16 134.63 99.21 145.58 99.21 145.58 101.02 136.44 101.02 136.44 110.16"/>
        <path class="cls-1" d="M136.84,110.56h-2.6v-11.74h11.74v2.6h-9.14v9.14ZM135.03,109.77h1.02v-9.14h9.14v-1.02h-10.16v10.16Z"/>
      </g>
      <g>
        <polygon class="cls-1" points="46.76 110.16 44.95 110.16 44.95 101.02 35.81 101.02 35.81 99.21 46.76 99.21 46.76 110.16"/>
        <path class="cls-1" d="M47.16,110.56h-2.6v-9.14h-9.14v-2.6h11.74v11.74ZM45.34,109.77h1.02v-10.16h-10.16v1.02h9.14v9.14Z"/>
      </g>
      <circle class="cls-1" cx="237.14" cy="10.43" r="5.29"/>
      <circle class="cls-1" cx="237.14" cy="100.12" r="5.29"/>
      <g>
        <path class="cls-1" d="M162.52,19.39c10.63,0,20.98.2,31.31-.08,5.54-.15,11.03-.16,16.54.26,4.39.34,7.81,2.85,7.57,6.26-.53,7.49-2.62,14.57-8.48,20.58-2.63,2.69-5.29,5.42-8.35,7.77-2.48,1.9-5.77,3.09-8.36,4.91-2.8,1.98-6.47,2.09-9.94,3.52v31.06c-4.22.46-8.53-.16-12.62.15-1.3-1.48-.86-2.74-.5-4.05.66-2.39,1.48-4.79,1.68-7.21.28-3.28,0-6.58.01-9.88.02-7.91.14-15.82.08-23.73-.03-4.24-.4-8.47-.55-12.7-.07-1.95.14-3.9.04-5.84-.16-3.05-1.15-5.61-5.25-6.87-3.06-.93-3.03-1.31-3.18-4.15ZM183.41,22.43c-.45,1.65-1.17,2.83-.99,3.92.39,2.35.47,4.65.07,7-.19,1.11-.02,2.26.02,3.39.17,4.42.39,8.85.52,13.27.07,2.46.01,4.93.01,7.88,1.9-.55,3.32-.72,4.4-1.3,7.5-4.06,13.99-8.98,18.42-15.44,2.86-4.17,4.92-8.51,3.68-13.49-.6-2.41-2.12-4.15-5.09-4.33-6.8-.41-13.62-.6-21.05-.91Z"/>
        <path class="cls-1" d="M191.87,70.27c-4.86,5.18-3.59,12.68-7.86,17.52-.62,1.6-.81-.61-1.62,5.42-1.32-.51-2.27.34-3.38-.09,4.44-16.61,7.02-22.47,12.93-38.62,3.3.75,3.94,1.63,3.23,3.55-.3.81-.45,1.79-.18,2.6l.03.04c6.42,10.01,13.38,19.92,19.37,30.08,4.02,6.8,32.49,48.32,37.69,54.55.83.99,2.12,2.29,4.06,2.37.6.02,1.97,1.83,1.97,2.55-4.09.4-8.68.57-12.72.65-3.41.21-4.91-.13-8.15-.25-.91-.03-1.86-.22-2.97-.37,3.13-4.29,4.08-6.8,2.14-10.55-4.56-8.78-33.97-52.5-38.77-61.19-1.26-2.29-3.75-5.83-5.24-8.32l-.52.08Z"/>
      </g>
      <g>
        <path class="cls-1" d="M63.08,22.58c5.71-1.22,11.17-4.73,16.57-2.05-2.31,4.22-5.71,8.18-6.73,12.69-2.77,12.24-4.2,24.7-2.57,37.36.65,5.01.33,10.15.3,15.23-.06,7.33-2.4,9.44-9.4,9.43.61-24.09,1.22-48.21,1.83-72.65Z"/>
        <path class="cls-1" d="M95.43,19.59c10.16-.64,13.62,6.22,17.34,11.71,6.48,9.54,5.58,18.33-2.6,26.6-2.28,2.3-7.34,4.03-10.24,3.14-7.94-2.44-15.26-6.59-15.26-16.73,0-8.04-1.99-16.69,6.24-22.39,1.79-1.24,3.9-2.02,4.51-2.33Z"/>
        <path class="cls-1" d="M82.76,66.94c9.23,12.39,27.95,6.67,37.48,21.64-8.96,1.8-15.87,3.49-22.11-4.45-4.61-5.87-11.17-10.23-16.86-15.26.49-.65.99-1.29,1.48-1.94Z"/>
      </g>
    </g>
  </g>
</svg>