<?xml version="1.0" encoding="UTF-8"?>
<svg id="_레이어_2" data-name="레이어 2" xmlns="http://www.w3.org/2000/svg" viewBox="0 0 192.21 100.56">
  <defs>
    <style>
      .cls-1 {
        fill: #fff;
      }
    </style>
  </defs>
  <g id="_레이어_1-2" data-name="레이어 1">
    <path class="cls-1" d="M187.29,11.41h4.92v-3.17h-4.92c-.51-1.58-1.75-2.81-3.32-3.32V0h-3.17v4.92c-1.58.51-2.81,1.75-3.32,3.32h-74.41V0h-3.17v8.24h-7.58V0h-3.17v8.24H11.41V0h-3.17v8.24H0v3.17h8.24v77.73H0v3.17h8.24v8.24h3.17v-8.24h77.73v8.24h3.17v-8.24h7.58v8.24h3.17v-8.24h74.41c.51,1.58,1.75,2.81,3.32,3.32v4.92h3.17v-4.92c1.58-.51,2.81-1.75,3.32-3.32h4.92v-3.17h-4.92c-.51-1.58-1.75-2.81-3.32-3.32V14.73c1.58-.51,2.81-1.75,3.32-3.32ZM177.48,89.14h-74.41V11.41h74.41c.51,1.58,1.75,2.81,3.32,3.32v71.09c-1.58.51-2.81,1.75-3.32,3.32ZM11.41,11.41h77.73v77.73H11.41V11.41ZM92.32,11.41h7.58v77.73h-7.58V11.41Z"/>
  </g>
</svg>