<?xml version="1.0" encoding="UTF-8"?>
<svg id="_레이어_2" data-name="레이어 2" xmlns="http://www.w3.org/2000/svg" viewBox="0 0 76.06 100">
  <defs>
    <style>
      .cls-1 {
        fill: #fff;
        stroke-width: 0px;
      }
    </style>
  </defs>
  <g id="_레이어_1-2" data-name="레이어 1">
    <g>
      <path class="cls-1" d="M64.62,0c1.92,7.56,1.18,8.72-5.99,9.76-1.84.27-3.68.57-5.53.82-1.66.22-3.32.4-3.98.48,1.06,7.52,2.11,14.94,3.16,22.36-.41.14-.83.28-1.24.42-1.47-2.87-2.8-5.82-4.42-8.61-4.54-7.8-10.42-12.75-20.44-11.31-3.67.53-4.25,1.66-4.24,4.73.08,14.56.31,29.13-.08,43.69-.26,9.85-1.47,19.67-2.21,29.51-.09,1.26.15,2.54.25,4.03,4.04.22,7.8.42,11.55.62,0,.6.02,1.21.03,1.81H0s.16-1.17.49-1.22c6.01-.89,5.44-5.5,5.4-9.63-.23-24.45-.47-48.91-.92-73.36-.05-2.75-1.42-5.47-2.07-7.84,9.04,0,19.64.81,30.04-.23,10.66-1.07,21.15-3.94,31.69-6.03Z"/>
      <path class="cls-1" d="M70.15,100h-22.39c8.23-10.84,7.96-22.72,3.49-35.02-2.07-5.71-6.78-6.95-12.11-6.98-1.99,0-3.99.29-6.06.46,2.06-6.92,8.14-10.82,14.37-10.69,5.86.13,9.97,1.41,10.55,8.01.04.5.43,1.12.84,1.41,10.62,7.56,9.08,17.97,6.98,28.68-1.55,7.92-1.33,7.96,4.32,14.12Z"/>
      <path class="cls-1" d="M74.09,23.78c.67,7.09,1.32,14.02,1.98,20.95-.54.17-1.09.34-1.63.51-.64-.86-1.58-1.64-1.87-2.61-1.3-4.42-2.43-8.88-3.58-13.34-1.01-3.91.89-5.37,5.11-5.51Z"/>
    </g>
  </g>
</svg>