<?xml version="1.0" encoding="UTF-8"?>
<svg id="_레이어_2" data-name="레이어 2" xmlns="http://www.w3.org/2000/svg" viewBox="0 0 67.77 100">
  <defs>
    <style>
      .cls-1 {
        fill: #fff;
        stroke-width: 0px;
      }
    </style>
  </defs>
  <g id="_레이어_1-2" data-name="레이어 1">
    <path class="cls-1" d="M0,100v-8.17c.99,0,1.88,0,2.76,0,3.22-.04,3.48-.26,3.5-3.43.04-5.27.07-10.53.02-15.8-.19-19.31-.42-38.61-.64-57.92,0-.32-.01-.65-.03-.97q-.19-4.02-4.15-5.34V0h16.82c.14,2.67.39,5.44.42,8.22.15,13.26.26,26.52.3,39.78,0,1.8.42,2.52,2.36,2.51,8.58-.08,17.16-.04,25.75-.04.38,0,.75-.06,1.23-.11.05-.59.14-1.09.14-1.59-.03-7.93-.03-15.86-.15-23.79-.01-.81-.72-1.6-1.01-2.43-.36-1.06-.62-2.15-1.02-3.58,2.1.13,3.81.24,5.52.33,2.47.13,4.93.32,7.4.35,1.26.02,1.67.42,1.66,1.71-.02,20.22,0,40.43.02,60.65,0,2.6.03,5.2-.02,7.8-.03,1.39.51,2.01,1.94,2.01,1.54,0,3.07.16,4.94.27-.23,2.81-.44,5.36-.65,7.91h-22.24c-.16-2.75-.31-5.51-.48-8.4,1.17-.09,2-.16,2.83-.2,1-.05,1.52-.44,1.52-1.55-.07-9.17-.11-18.33-.12-27.5,0-1.58-.61-2.14-2.2-2.13-8.32.03-16.65-.03-24.97-.04-.5,0-1,.11-1.47.16-.09.3-.19.48-.19.66.05,9.62.12,19.25.16,28.87,0,1.29.76,1.48,1.77,1.48,1.86,0,3.72,0,5.97,0v8.66H0Z"/>
  </g>
</svg>