<?xml version="1.0" encoding="UTF-8"?>
<svg id="_레이어_2" data-name="레이어 2" xmlns="http://www.w3.org/2000/svg" viewBox="0 0 135.35 100">
  <defs>
    <style>
      .cls-1 {
        fill: #fff;
        stroke-width: 0px;
      }
    </style>
  </defs>
  <g id="_레이어_1-2" data-name="레이어 1">
    <path class="cls-1" d="M69.72.94c.55,5.52,1.09,10.89,1.63,16.33.27-.22.81-.73,1.41-1.12,1.41-.91,2.77-2.21,4.31-2.52,2.26-.46,4.67-.32,7.01-.23,3.34.12,4.77,1.67,4.81,5.1.05,4.98-.05,9.96.02,14.94.02,1.63-.63,2.11-2.16,2.03-3.48-.19-6.96-.33-10.44-.39-10.6-.19-21.19-.37-31.79-.44-2.06-.01-2.75-.77-2.77-2.75-.05-4.69-.19-9.37-.42-14.05-.11-2.18-.23-4.44-2.28-5.92-.05-.03.03-.23.05-.42h1.75c.22-2.05.43-4.02.65-5.99.22.02.43.04.65.06.13.74.25,1.49.41,2.38,1.46-.07,2.41.46,2.44,2.14,0,.42.69.83,1.06,1.25.65-.81,2.44.93,2.56-1.07,1.29.74,2.58,1.48,4.14,2.38v-2.94c.7,1.14,1.1,1.79,1.48,2.41,0-3.28-.15-6.46.05-9.63C54.45.39,53.66-.04,51.78,0c-13.58.3-27.17.51-40.75.8-3.13.07-6.25.28-9.37.49-.4.03-.78.43-1.67.95,4.63.37,5.28,1.1,3.38,4.33.2.52.49,1,.91,1.43.66.68,1.45,1.22,2.13,1.87.72.68,1.28,1.47,1.73,2.35.27.53.48,1.21.96,1.6.2.16.44.27.7.34.17-.06.33-.13.5-.19,2.96-1.06,5.05-.17,6.31,2.7.91,2.07,1.34,4.5,1.37,6.78.16,12.79.18,25.59.14,38.38-.02,5.61-.12,11.23-.5,16.82-.37,5.42-3.66,8.63-9,9.39-.53.08-1.05.28-1.45.39v11.55h9.41c-.53-1.24-.97-2.27-1.68-3.94,1.91.18,3.3,0,4.31.53.56.3.49,1.79.75,2.96,2.18,0,4.9-.1,7.6.03,2.2.1,4.07-1,6.6-.53,4.69.89,9.68.25,14.55.25v-10.18c-2.66-.36-5.05-.61-7.41-1.05-1.1-.21-2.11-.67-2.08-2.23.15-9.74.23-19.49.31-29.23.03-3.59,0-7.19,0-10.52-3.83,0-7.45-.05-11.06.02-2.43.04-3.14-.7-2.94-3.49,1.5.22,2.99.61,4.49.64,9.03.24,18.06.39,27.1.6.97.02,1.96.19,2.9.44,1.15.31,2.24,1.04,3.39,1.13,2.87.21,4.54,1.56,4.94,4.43.11.77.07,1.56.08,2.34.09,14.3.19,28.6.28,42.9,0,.9,0,1.79,0,2.79,5.57-.25,10.8-.69,16.04-.68,12.68.02,25.37.22,38.05.45,1.77.03,2.25-.65,2.23-2.2-.05-3.62-.02-7.24-.09-10.86-.03-1.35-.61-2.18-2.17-1.67-.54.18-1.11.27-1.65.42-6.09,1.66-7.48.67-7.47-5.62.02-9.1.12-18.2.27-27.3.03-1.65-.38-2.23-2.12-2.21-7.04.07-14.09-.02-21.13-.03-.54,0-1.07.14-1.55.21,0,1.75.01,3.31,0,4.87-.07,7.81-.06,15.63-.29,23.44-.08,2.76-.78,5.5-2.98,7.53-2.06,1.9-4.62,1.59-6.03-.89-.53-.93-.82-2.13-.83-3.21-.08-5.98-.04-11.95-.06-17.93-.02-4.97-.02-9.94-.15-14.91-.05-2.09.84-2.59,2.79-2.56,13.37.22,26.75.36,40.12.49.59,0,1.52-.08,1.74-.44,1.58-2.72,3.02-5.52,4.7-8.67h-13.23c-.12-.61-.28-1.03-.28-1.44,0-6.3-.02-12.6.1-18.9,0-.52.98-1.44,1.51-1.45,2.9-.05,5.8.18,8.71.22,3.53.05,7.06.01,10.43.01V.94h-65.64ZM45.74,5.6c.02-.16.97-.45,1.03-.36.83,1.19,1.64,2.4,2.31,3.69.14.26-.28.81-.47,1.24-1.01-.23-2.66-.22-2.87-.76-.43-1.11-.12-2.53,0-3.81ZM19.65,96.4c-.04-.84-.08-1.67-.12-2.51.34-.01.68-.03,1.02-.04.05.84.1,1.68.16,2.53-.35,0-.7.02-1.05.02ZM32.15,96.29c-.03-.33-.06-.66-.09-.99l.41-.05c.05.33.09.66.14.99l-.45.05ZM36.8,90.48c.11.21.23.41.34.62-.34.17-.69.33-1.03.5-.09-.16-.18-.32-.27-.47.32-.22.64-.43.96-.65ZM29.74,94.17c1.58-.61,3.01-1.6,4.8-2.58.23,3.48-2.46,2.67-3.52,3.46-.05.81.13,1.6-.19,1.96-.45.51-1.25.73-1.93,1-.11.04-.38-.32-.57-.5.96-.89-.37-2.64,1.4-3.33ZM71.65,57.21c-.13-.11-.34-.21-.37-.35-.03-.14.11-.32.21-.59.19.22.38.34.4.49.02.13-.15.29-.24.44ZM76.09,63.07c-.5.13-1.01.2-1.52.28-.04-.29-.08-.58-.12-.87.52-.05,1.05-.1,1.57-.11.02,0,.11.69.07.7ZM110.03,20.61s-.41-.34-.39-.36c.3-.41.64-.8.97-1.2.2.22.4.43.6.65-.39.31-.77.63-1.17.91Z"/>
  </g>
</svg>