<?xml version="1.0" encoding="UTF-8"?>
<svg id="_레이어_2" data-name="레이어 2" xmlns="http://www.w3.org/2000/svg" viewBox="0 0 62.98 100">
  <defs>
    <style>
      .cls-1 {
        fill: #fff;
        stroke-width: 0px;
      }
    </style>
  </defs>
  <g id="_레이어_1-2" data-name="레이어 1">
    <g>
      <path class="cls-1" d="M29.61,43.49v16.39h-14.59v39.16c-4.46,0-8.41.1-12.35-.03C-.09,98.92,0,96.78,0,94.77c.06-11.87.14-23.75.16-35.62.03-17.81,0-35.61.03-53.42,0-1.62.21-3.24.32-4.86h14.42c0,8.15,0,15.98,0,23.81,0,5.11.14,10.23-.06,15.33-.11,2.8.93,3.64,3.59,3.52,3.57-.17,7.15-.04,11.16-.04Z"/>
      <path class="cls-1" d="M49.66,1.48c11.89-2.81,12.76-2.49,12.9,8.9.34,28.75.26,57.5.42,86.25.01,2.48-.71,3.44-3.3,3.38-12.22-.3-9.93,1.66-9.98-9.59-.12-28.06-.04-56.12-.04-84.18V1.48Z"/>
    </g>
  </g>
</svg>