<?xml version="1.0" encoding="UTF-8"?>
<svg id="_레이어_2" data-name="레이어 2" xmlns="http://www.w3.org/2000/svg" viewBox="0 0 119.68 100">
  <defs>
    <style>
      .cls-1 {
        fill: #fff;
        stroke-width: 0px;
      }
    </style>
  </defs>
  <g id="_레이어_1-2" data-name="레이어 1">
    <path class="cls-1" d="M59.74,2.94V.46h58.1c.07,1.34.12,2.39.18,3.59-2.44.33-4.79.49-7.08.97-6.12,1.29-9.72,5.31-9.68,11.94.12,21.38-.13,42.77-.21,64.15,0,1.96.05,3.93.32,5.87.56,4.08,1.86,5.34,5.98,5.63,3.17.22,6.35.18,9.53.25.8.02,1.6,0,2.81,0-.07,1.54,0,2.86-.25,4.13-.09.48-.83,1.05-1.37,1.18-.9.22-1.88.17-2.82.17-17.8,0-35.59,0-53.39,0-.66,0-1.32,0-2.15,0v-3.7c1.17-.09,2.23-.17,3.29-.26,4.7-.43,7.5-2.91,7.62-7.59.28-11.22.28-22.44.39-33.67,0-.39-.1-.78-.18-1.31H29.44c-.06.43-.17.87-.17,1.32.06,8.86.12,17.72.23,26.57.02,1.75.26,3.5.46,5.25.57,5.12,4.16,7.32,8.55,8.59,1.86.54,3.84.68,6.1,1.05-.13,1.62-.26,3.31-.42,5.39-14.65-2.87-29.2-1.78-43.95-2.02-.08-1.58-.16-3.08-.24-4.78,2.41,0,4.62.05,6.82-.02,1.82-.05,3.65-.11,5.45-.39,2.56-.41,4.32-2.46,4.4-5.06.23-7.84.52-15.69.57-23.53.12-18.67.12-37.34.16-56.01,0-2.64-.83-3.79-3.42-4.06-3.15-.33-6.33-.4-9.49-.56-.99-.05-1.98,0-3.1,0V0h43.81v3.88c-1.29.24-2.61.41-3.9.73-7.07,1.74-9.54,4.18-10.02,10.19-.8,10.09-1.19,20.22-1.76,30.49,1.1.09,1.68.19,2.26.18,12.04-.04,24.09-.09,36.13-.15,2.95-.01,3.22-.15,3.22-3.08,0-9.94.01-19.88-.21-29.82-.12-5.02-3.11-8.94-8.63-9.07-.8-.02-1.59-.26-2.54-.43Z"/>
  </g>
</svg>