<?xml version="1.0" encoding="UTF-8"?>
<svg id="_레이어_2" data-name="레이어 2" xmlns="http://www.w3.org/2000/svg" viewBox="0 0 104.94 100">
  <defs>
    <style>
      .cls-1 {
        fill: #fff;
        stroke-width: 0px;
      }
    </style>
  </defs>
  <g id="_레이어_1-2" data-name="레이어 1">
    <path class="cls-1" d="M56.47,15.33c3.69-4.5,7.19-8.51,10.36-12.76C68.18.74,69.51-.02,71.78,0c10.83.11,21.66.05,33.15.05-1.5,30.12-3.03,60.68-4.54,90.98-21.01,2.34-38.77-2.66-48.98-23.45-15.9,13.81-33.35,23.96-51.42,32.42V2.81c8.09,0,15.53.02,22.97,0,4.48-.01,8.96-.02,13.44-.16,7.04-.21,12.45,3.16,17.2,7.82,1.18,1.16,1.76,2.94,2.86,4.86Z"/>
  </g>
</svg>