<?xml version="1.0" encoding="UTF-8"?>
<svg id="_레이어_2" data-name="레이어 2" xmlns="http://www.w3.org/2000/svg" viewBox="0 0 77.25 100">
  <defs>
    <style>
      .cls-1 {
        fill: #fff;
        stroke-width: 0px;
      }
    </style>
  </defs>
  <g id="_레이어_1-2" data-name="레이어 1">
    <path class="cls-1" d="M59.48,59.19H19.08c0,10.74,0,21.27,0,31.81,0,8.96,0,8.98-9.07,8.95C-.82,99.91.03,101.47.03,89.9,0,62.8,0,35.7,0,8.6,0,6.34,0,4.08,0,.96h18.94v39.56h39.89c.11-1.37.33-2.98.34-4.59.03-10.42.11-20.85-.03-31.27-.05-3.46,1.26-4.74,4.67-4.67,16,.32,13.21-1.82,13.29,12.54.15,26.72.05,53.44.06,80.16,0,2.23,0,4.45,0,6.95h-17.68v-40.46Z"/>
  </g>
</svg>