<?xml version="1.0" encoding="UTF-8"?>
<svg id="_레이어_2" data-name="레이어 2" xmlns="http://www.w3.org/2000/svg" viewBox="0 0 75.82 100">
  <defs>
    <style>
      .cls-1 {
        fill: #fff;
        stroke-width: 0px;
      }
    </style>
  </defs>
  <g id="_레이어_1-2" data-name="레이어 1">
    <path class="cls-1" d="M56.38,99.52v-47.2H19.75v46.79H2.22C.2,91.63-.89,11.93.92.28h18.46v32.66c2.34.14,4.17.26,6,.35,7.58.34,15.17.75,22.75.97,8.28.24,8.27.16,8.27-7.9,0-8.55,0-17.1,0-26.33,5.64,0,10.74-.07,15.83.02,4.25.08,3.36,3.39,3.36,5.89.04,27.39.04,54.77-.01,82.16,0,3.77.95,8.68-1,10.96-1.54,1.81-6.85.43-10.49.45-2.28.01-4.55,0-7.72,0Z"/>
  </g>
</svg>