<?xml version="1.0" encoding="UTF-8"?>
<svg id="_레이어_2" data-name="레이어 2" xmlns="http://www.w3.org/2000/svg" viewBox="0 0 93.44 100">
  <defs>
    <style>
      .cls-1 {
        fill: #fff;
        stroke-width: 0px;
      }
    </style>
  </defs>
  <g id="_레이어_1-2" data-name="레이어 1">
    <g>
      <path class="cls-1" d="M30.6,0v100c-6.99-1.26-12.45-4.61-17.38-9.21C4.1,82.29.82,71.35.25,59.46c-.41-8.6-.3-17.27.17-25.87C1.2,19.23,9.15,9.64,21.76,3.56c2.75-1.32,5.67-2.29,8.84-3.56Z"/>
      <path class="cls-1" d="M93.44,67.65h-13.4c.62-5.1,1.71-10.36,1.82-15.64.2-9.3-.29-18.6-.32-27.91-.02-6.24.26-12.48.35-18.72.02-1.42.48-2.13,1.99-2.1,2.48.05,4.96.01,7.74.01.61,21.54,1.21,42.67,1.83,64.35Z"/>
      <path class="cls-1" d="M46.63,51.35c.76-1.57,1.94-4.37,3.49-6.95.39-.65,2.09-.99,3.02-.77,5.92,1.39,11.78,1.23,17.67-.09,3.4-.76,4.12-.12,3.57,3.23-.8,4.85-1.8,9.64-5.29,13.46-1.28,1.41-2.46,2.13-3.98.26-.45-.56-1.22-1.11-1.89-1.19-3.68-.43-7.38-.78-11.08-1.01-3.46-.21-5.48-2.15-5.5-6.94Z"/>
      <path class="cls-1" d="M62.64,64.43c-3.55,3.69-8.39,3.68-13.7,0h13.7Z"/>
    </g>
  </g>
</svg>