<?xml version="1.0" encoding="UTF-8"?>
<svg id="_레이어_2" data-name="레이어 2" xmlns="http://www.w3.org/2000/svg" viewBox="0 0 90.55 100">
  <defs>
    <style>
      .cls-1 {
        fill: #fff;
        stroke-width: 0px;
      }
    </style>
  </defs>
  <g id="_레이어_1-2" data-name="레이어 1">
    <g>
      <path class="cls-1" d="M90.52,0v87.41c0,2.15.08,4.31-.02,6.46-.14,2.87-1.46,4.28-4.29,4.35-4.28.11-8.56.03-13.62.03.85-6.62-1.28-13.14,1.7-19.49.52-1.1.07-2.66.07-4,0-19.38-.05-38.77.06-58.15.01-2.68-.07-5.29-1.72-7.37-2.25-2.83-1.26-5.93-1.7-9.25h19.52Z"/>
      <path class="cls-1" d="M48.52,67.44c-3.38-6.26-5.39-11.44-10.83-15.38-.22,2.12-.35,3.33-.47,4.54-.54,5.16-1.28,10.31-1.56,15.48-.27,5.1-.17,10.23,0,15.33.07,2.26-.74,4.57,1.29,6.78,1.09,1.19.55,3.5-1.27,4.84-1.73,1.28-3.25,1.28-4.98,0-1.82-1.34-2.34-3.59-1.27-4.84,1.47-1.72,1.32-3.37,1.32-5.16.02-27.42.01-54.84.01-82.28-10.05,2.31-20.04.3-30.46,1.25-.1-1.69-.18-3.15-.29-4.97C9.37,3.41,18.04.12,27.04,1.37c1.46.2,3.13.53,4.22,1.41,2.89,2.33,2.78,2.41,6.97,1.83.66-.09,1.73.24,2.03.73.29.47.08,1.63-.35,2.09-2.72,2.93-4.3,6.06-4.31,9.39-.03,10.21-.01,20.43-.01,31.35,1.61,0,3.15-.19,4.63.07.92.16,2.36.85,2.49,1.52,1.08,5.22,5.06,9.26,5.79,14.57.07.53,0,1.07,0,3.11Z"/>
      <path class="cls-1" d="M53.37,40.24v53.07c-.54.01-1.08.02-1.62.03,0-3.4-.17-6.82.04-10.21.35-5.51-.53-10.85-2.85-15.74-.93-1.96.77-1.33.97-2.01.78-2.66,2.19-5.02,1.96-8.1-.41-5.56-.11-11.17-.11-16.75.54-.1,1.08-.2,1.62-.29Z"/>
      <path class="cls-1" d="M15.98,39.06c-.19.34-.38.69-.57,1.04-.18-.18-.53-.4-.51-.53.08-.38.33-.73.5-1.08.18.18.36.36.57.57Z"/>
    </g>
  </g>
</svg>