<?xml version="1.0" encoding="UTF-8"?>
<svg id="_레이어_2" data-name="레이어 2" xmlns="http://www.w3.org/2000/svg" viewBox="0 0 50.07 100">
  <defs>
    <style>
      .cls-1 {
        fill: #fff;
        stroke-width: 0px;
      }
    </style>
  </defs>
  <g id="_레이어_1-2" data-name="레이어 1">
    <g>
      <path class="cls-1" d="M38.81,3.8h3.62c2.71,7.17-1.9,13.57-1.91,20.48-.53-1.11-1.07-2.21-1.61-3.34-6.38,4.74-.25,9.2-.49,13.73,4.22.19,4.12-3.02,5.34-4.92h6.24v49.12c0,3.73-.16,7.47.05,11.19.21,3.71-.55,7.06-2.49,9.93-1.19-.63-2.37-1.26-4.16-2.21-1.37-3.15,1.19-7.82-2.02-11.28,3.79-9.62.77-19.64,1.71-29.42.35-3.64.06-7.19-2.72-9.99-.41.86-.94,1.98-1.47,3.11-.29-.05-.57-.09-.86-.14.4-2.68,1.37-5.43,1.03-8.01-.33-2.52-1.99-4.87-3.58-8.47-2.45,9.8-4.6,18.37-6.74,26.94-.28-.05-.55-.1-.83-.15.47-6.55,1.13-13.09,1.34-19.65.2-6.34,2.26-12.28,3.63-18.35,1.41-6.21,3.83-12.18,5.92-18.58Z"/>
      <path class="cls-1" d="M10.44,89.88c-1.93,4.3-6.71,4.58-8.16,9.1-.89-1.86-2.17-3.3-2.18-4.75C-.04,78.17,0,62.11,0,46.05c2.48-5,2.8-10.69,1.47-15.56C-.83,22.05.52,13.68.11,5.31.03,3.61,1.21,1.84,1.85,0c3.21,1.78,3.38,4.13,3.38,6.78,0,4.97-.21,9.85,1.36,14.87.81,2.59,2.7,2.19,3.26,2.93-.45,4.05-1.14,7.54-1.17,11.03-.13,13.19-.23,26.39.03,39.58.1,5.2,1.2,10.38,1.73,14.69Z"/>
    </g>
  </g>
</svg>