<?xml version="1.0" encoding="UTF-8"?>
<svg id="_레이어_2" data-name="레이어 2" xmlns="http://www.w3.org/2000/svg" viewBox="0 0 78.53 100">
  <defs>
    <style>
      .cls-1 {
        fill: #fff;
        stroke-width: 0px;
      }
    </style>
  </defs>
  <g id="_레이어_1-2" data-name="레이어 1">
    <path class="cls-1" d="M70.12,54.92V9.54h8.41v88.78c-2.85.59-5.49,1.14-8.1,1.68-1.47-17.92-.97-36.85,1.43-42.25-2.53.16-4.85-.08-6.92.52-6.85,1.99-6.82,2.11-10.8-4.57v4.34c-.54.66-.69.92-.91,1.09-.21.17-.49.34-.74.34-13.08.02-26.16.01-39.49.01-1.57,11.95,1.7,24.12-2.82,35.97-3.21-5.14-6.09,1.91-9.84-.59-.07-1.5-.25-3.47-.25-5.44C.06,68.27.19,47.12,0,25.96c-.06-6.42,3.12-12.44,1.86-18.92C1.46,4.96,1.07,2.89.63.58c2.5-.12,5.12-.06,7.69-.43,3.77-.53,4.53.21,3.55,3.71-.53,1.89-.99,3.88-1.01,5.83-.1,9.83-.22,19.67.04,29.49.1,3.61,1.2,7.19,1.95,11.35,10.99,0,21.93.05,32.88-.02,7.26-.04,14.23,2.88,21.58,1.97.53-.07,1.2,1,2.81,2.43ZM74.12,70.48c-.24.24-.44.44-.64.64.4.2.78.47,1.2.56.15.03.39-.36.59-.56-.39-.21-.78-.43-1.15-.64Z"/>
  </g>
</svg>