<?xml version="1.0" encoding="UTF-8"?>
<svg id="_레이어_2" data-name="레이어 2" xmlns="http://www.w3.org/2000/svg" viewBox="0 0 69.05 100">
  <defs>
    <style>
      .cls-1 {
        fill: #fff;
        stroke-width: 0px;
      }
    </style>
  </defs>
  <g id="_레이어_1-2" data-name="레이어 1">
    <path class="cls-1" d="M5.29,11.82c-.74-2.33-.74-4.18-.74-6.44-1.38-.23-2.83-.47-4.55-.75V.63C1.23-.62,7.83-.15,21.3,3.31c5.1,1.61,1.66,1.37-1.73,1.68-2.73.25-5.54-.13-7.2-1.81-2.42-2.46-3.43-.53-4.35.84-.6.89-.23,2.43-.33,4.5,7.81-1.47,15.49,1.72,13.61-5.21,1.74-1.61,13.8-1.61,26.44-1.61.55,4.11.21,8.33.2,12.51,0,4-2.77,6.74-6.78,6.77-9.34.07-18.69.02-28.72.02.65,3.52-.59,6.67,1.17,10.07,1.4,2.68,1.23,5.92-1.04,8.94h38.33v11.56c4.51,0,8.46.05,12.42-.02,1.9-.04,3.71-.13,4.91,1.77,1.37,2.15.94,3.88-.91,5.55-.42.38-.26,1.42-.35,2.06-4.78,1.1-9.74-1.2-13.97,1.9-4.02-1.19-3.7,2.73-4.89,4.52-.74,1.11-.03,3.13-.16,4.73-.31,3.83.09,7.56-1.25,11.51-.99,2.93-1.86,7.25,1.08,10.59.63.71.09,2.45.09,4.07-3.76-.07-4.6-1.98-4.78-4.98-.37-6.22-1.24-12.41-1.5-18.63-.27-6.4-.06-12.81-.06-19.53H12.54c.89,14.44-2.81,28.5-1.57,42.79.04.48-.21.98-.46,2.1-2.76-1.96-5.31-3.78-7.56-5.38,0-5.46-1.03-10.58.27-15.03,1.53-5.25,1.35-10.34,1.25-15.49-.1-4.88-1.16-9.73-1.43-14.61-.12-2.21-.08-4.35,1.11-6.76,1.27-2.59,1.48-6.86.14-9.3-1.74-3.19-.85-6.13-1.33-9.13-.27-1.66.1-3.11,1.56-4.14-.95-.95-2.35-1.74-2.73-2.88-.55-1.65-.36-3.55-.53-5.92,1.32,0,2.31,0,4.05.47.49.16.23-.16-.02-.47-.24.24-.48.48-.72.72.32.25.62.52.97.71.06.03.32-.31-.23-.96Z"/>
  </g>
</svg>