<?xml version="1.0" encoding="UTF-8"?>
<svg id="_레이어_2" data-name="레이어 2" xmlns="http://www.w3.org/2000/svg" viewBox="0 0 64.82 100">
  <defs>
    <style>
      .cls-1 {
        fill: #fff;
        stroke-width: 0px;
      }
    </style>
  </defs>
  <g id="_레이어_1-2" data-name="레이어 1">
    <path class="cls-1" d="M.04,0h11.09v49.28h6.31c11.26,0,22.52-.04,33.78.03,2.2.01,4.18-.06,5.13-2.47-.47-1.45-1.33-2.89-1.34-4.34-.1-13.56-.06-27.13-.06-40.89h9.86v5.98c0,16.19.08,32.37-.06,48.56-.03,3.8.54,7.57-1.1,11.49-.98,2.34-1.06,5.82.62,8.69.63,1.07.5,2.64.51,3.99.05,5.39.05,10.79,0,16.19-.02,2.17-1.31,3.32-3.39,3.44-2.05.12-4.12.03-6.45.03,0-10.93.02-21.44,0-31.96-.01-5.71-.31-6.03-5.73-6.05-12.42-.03-24.85,0-37.76,0v37.84H1.98C.15,97.33,0,94.49,0,91.49.06,61.23.04,30.97.04,0Z"/>
  </g>
</svg>