<?xml version="1.0" encoding="UTF-8"?>
<svg id="_레이어_2" data-name="레이어 2" xmlns="http://www.w3.org/2000/svg" viewBox="0 0 75.18 100">
  <defs>
    <style>
      .cls-1 {
        fill: #fff;
        stroke-width: 0px;
      }
    </style>
  </defs>
  <g id="_레이어_1-2" data-name="레이어 1">
    <path class="cls-1" d="M13.8,98.36H0V2.12C3.34-.53,7.34.02,11.2.09c3.32.06,4.55,1.38,4.57,4.87.06,10.49.02,20.97.02,31.46v18.46c1.64-.65,3.15-1.77,3.76-1.4,3.99,2.39,7.68,2.32,11.7,0,1.21-.7,3.16-.11,4.78-.11h23.13V1.93h16.02v96.26c-4.32,1.58-9.36-1.34-13.55,1.81-4.02-9.6-1.45-19.76-2.38-29.83-.04-.04-.21-.26-.43-.4-.2-.13-.46-.24-.7-.24-13.94-.01-27.89-.01-41.73-.01-1.27,3.76-3.83,6.87-.8,10.98,1.16,1.57,1.13,5.35,0,6.99-2.42,3.49-.6,7.22-1.8,10.86Z"/>
  </g>
</svg>