<?xml version="1.0" encoding="UTF-8"?>
<svg id="_레이어_2" data-name="레이어 2" xmlns="http://www.w3.org/2000/svg" viewBox="0 0 50.01 100">
  <defs>
    <style>
      .cls-1 {
        fill: #fff;
        stroke-width: 0px;
      }
    </style>
  </defs>
  <g id="_레이어_1-2" data-name="레이어 1">
    <g>
      <path class="cls-1" d="M35.14,42.09h-18.27c-1.04,20.51-.14,39.67,12.09,57.91-2.37-1.12-4.01-1.63-5.35-2.56-11.02-7.67-13.93-19.45-15.21-31.68-.75-7.17-.14-14.48-.14-21.65q-7.91-1.83-8.27-7.86c1.42.17,2.8.3,4.16.5,1.39.2,2.77.47,5.07.87-1.38-7.31,2.94-14.29-1.22-21.23-.44-.74.28-2.54.95-3.53,2.14-3.15,4.63-6.07,6.74-9.23C18.13,0,20.87-1.49,25.19,1.91c-1.28,5.84-2.71,12.03-3.98,18.26-1.1,5.42-1.92,10.9-3.04,16.31-.55,2.7.7,3.25,2.97,3.23,4.64-.05,9.27-.01,13.91-.01.03.8.06,1.6.09,2.4Z"/>
      <path class="cls-1" d="M50.01.83c-3.95,12-4,24.39-3.72,36.78.3,13.52.87,27.04,1.14,40.57.05,2.58.95,6.33-3.58,6.3-4.86-.04-7.72-3.16-6.35-7.54,3.68-11.73,2.97-23.7,2.43-35.63-.5-10.94-1.57-21.85-2.46-32.77-.17-2.03.03-3.21,2.36-4.15,3.24-1.31,5.44-5.19,10.18-3.56Z"/>
    </g>
  </g>
</svg>