<?xml version="1.0" encoding="UTF-8"?>
<svg id="_레이어_2" data-name="레이어 2" xmlns="http://www.w3.org/2000/svg" viewBox="0 0 73.11 100">
  <defs>
    <style>
      .cls-1 {
        fill: #fff;
        stroke-width: 0px;
      }
    </style>
  </defs>
  <g id="_레이어_1-2" data-name="레이어 1">
    <path class="cls-1" d="M55.55,36.15V1.94h17.56v96.2h-15.4c-3.03-5.88-2.23-12.3-2.26-18.61-.05-8.72-.01-17.45-.01-26.97-11.82-.15-23.65-.02-35.76-.08v47.3c-3.4.07-6.57.17-9.74.2-3.23.03-6.46,0-9.93,0V1.75C1.17,1.32,2.78.32,4.47.17,7.71-.11,11,.02,14.27.11c3.96.1,5.08,1.2,5.11,5.29.07,9.51.02,19.02.02,29.09h8.2c4.63,0,9.5-.89,13.84.25,4.48,1.17,8.8,1.27,14.11,1.42Z"/>
  </g>
</svg>