<?xml version="1.0" encoding="UTF-8"?>
<svg id="_레이어_2" data-name="레이어 2" xmlns="http://www.w3.org/2000/svg" viewBox="0 0 75.68 100">
  <defs>
    <style>
      .cls-1 {
        fill: #fff;
        stroke-width: 0px;
      }
    </style>
  </defs>
  <g id="_레이어_1-2" data-name="레이어 1">
    <path class="cls-1" d="M16.54.01c.56,12.85-1.07,25.35,2.25,37.97,12.36,0,24.96.04,37.56-.03,3.18-.02,4.33-1.26,4.34-4.54.05-10.88.02-21.77.02-33.03h14.97v97.86c-4.44,1.83-9.78-1.27-14.25,1.75-2.28-4.51-2.34-9.56-2.27-14.7.14-10.58.04-21.16.04-31.94H16.76v45.21H1.48v-7.44c0-23.79.08-47.58-.07-71.37C1.38,15.15.22,10.57.03,5.96-.19.73.67.07,5.98.02c3.29-.03,6.58,0,10.56,0Z"/>
  </g>
</svg>