<?xml version="1.0" encoding="UTF-8"?>
<svg id="_레이어_2" data-name="레이어 2" xmlns="http://www.w3.org/2000/svg" viewBox="0 0 77.27 100">
  <defs>
    <style>
      .cls-1 {
        fill: #fff;
        stroke-width: 0px;
      }
    </style>
  </defs>
  <g id="_레이어_1-2" data-name="레이어 1">
    <path class="cls-1" d="M17.82,100H0V.21C2.89.15,6.07.05,9.25.02c3.24-.03,6.48,0,9.98,0v42.69h17.98c2.46,0,5.64-.96,7.21.22,2.38,1.8,3.61-.49,5.37-.28,2.16.25,4.37.06,6.55.06.2-.18.43-.33.59-.54.14-.2.28-.46.28-.69.01-13.63.01-27.26.01-41.17h18.92c1.17,6.86,1.56,72.08.53,99.58h-17.64c-.43-13.19.01-26.71-.26-40.76-12.41,0-24.64-.03-36.86.02-2.78.01-2.83.63-2.58,4.04.32,4.34.4,8.75.03,13.08-.33,3.88.86,7.67-1.25,11.78-1.55,3.03-.3,7.49-.3,11.95Z"/>
  </g>
</svg>