<?xml version="1.0" encoding="UTF-8"?>
<svg id="_레이어_2" data-name="레이어 2" xmlns="http://www.w3.org/2000/svg" viewBox="0 0 76 100">
  <defs>
    <style>
      .cls-1 {
        fill: #fff;
        stroke-width: 0px;
      }
    </style>
  </defs>
  <g id="_레이어_1-2" data-name="레이어 1">
    <path class="cls-1" d="M76,99.78h-18.31v-47.99H19.89v39.59c0,1.82.37,3.76-.12,5.43-.36,1.21-1.81,2.91-2.87,2.98-4.93.32-9.89.23-14.84.05-.79-.03-1.53-1.28-2.06-1.76.39-3.36,1.05-6.5,1.06-9.64.08-26.83.05-53.66.05-80.5V0h18.59v33.9c4.13.74,7.85.06,11.54,1.59,2.05.85,5.33,1.2,8.07-.87,1.35-1.02,3.97-.4,6.02-.42,3.87-.04,7.75-.01,11.87-.01V1.71h18.8v98.07Z"/>
  </g>
</svg>