<?xml version="1.0" encoding="UTF-8"?>
<svg id="_레이어_2" data-name="레이어 2" xmlns="http://www.w3.org/2000/svg" viewBox="0 0 75.97 100">
  <defs>
    <style>
      .cls-1 {
        fill: #fff;
        stroke-width: 0px;
      }
    </style>
  </defs>
  <g id="_레이어_1-2" data-name="레이어 1">
    <path class="cls-1" d="M60.35,99.99c-3-6.19-2.45-12.27-2.21-18.25.23-5.68-1.29-11.49,1.04-17.04-7.37-1.14-14.83.14-22.29-1.62-5.49-1.29-11.48-.54-17.26,2.26v34.31H.13V8.51c0-1.73-.36-3.57.12-5.16C.59,2.21,1.92.79,3.03.56c2.13-.44,5.14-1.03,6.51.05,3.06,2.41,6.2.58,9.68,1.62v41.06h38.66V.65h15.95c2.69,5.25,2.06,11.06,2.07,16.79.03,10.64.13,21.28-.06,31.91-.06,3.51-1.12,7-1.36,10.52-.25,3.69-.91,7.68.12,11.08,2.34,7.72.89,15.47,1.25,23.19.24,5.14-.64,5.8-5.77,5.85-3.22.04-6.43,0-9.72,0Z"/>
  </g>
</svg>