<?xml version="1.0" encoding="UTF-8"?>
<svg id="_레이어_2" data-name="레이어 2" xmlns="http://www.w3.org/2000/svg" viewBox="0 0 122.25 100">
  <defs>
    <style>
      .cls-1 {
        fill: #fff;
        stroke-width: 0px;
      }
    </style>
  </defs>
  <g id="_레이어_1-2" data-name="레이어 1">
    <path class="cls-1" d="M42.81,43.05c3-.96,5.56-1.78,9.63-3.08V1.77h36.64c.84,15.29,1.72,31.2,2.63,47.72,10.14-2.1,19.86-4.12,30.55-6.34v24.77c-4.91.73-9.3,1.38-14.17,2.11.61,9.05,1.19,17.66,1.85,27.35-17.16.91-33.1,1.75-49.39,2.62-2.38-16.55-4.6-32.03-6.82-47.51-3.66-1.76-7.08-3.41-11.47-5.53-2.04,17.53-3.99,34.27-6.09,52.32H.5c1.53-28.75,3.04-57.12,4.57-85.91-.7.54-1.4,1.08-2.74,2.12C1.59,10.58.93,6.19,0,0h42.81v43.05ZM29.99,21.16c-1.22-.1-2.44-.21-3.65-.31-.65,5.36-1.3,10.72-1.94,16.09,1.58.13,3.16.25,4.74.38.28-5.39.57-10.77.85-16.16Z"/>
  </g>
</svg>