<?xml version="1.0" encoding="UTF-8"?>
<svg id="_레이어_2" data-name="레이어 2" xmlns="http://www.w3.org/2000/svg" viewBox="0 0 85.25 100">
  <defs>
    <style>
      .cls-1 {
        fill: #fff;
        stroke-width: 0px;
      }
    </style>
  </defs>
  <g id="_레이어_1-2" data-name="레이어 1">
    <path class="cls-1" d="M84.95.29C77.5.19,70.06.07,62.61,0c-2.87-.03-5.76,1.47-6.36,1.63.77,15.96,1.44,29.92,2.17,45.06H25.07c-4.79-15.18,1.08-29.68,2.74-45.2-8.94-.19-17.76-.37-26.53-.55-.18,5.08-.53,10.15-.91,15.22h2.45c-1.18,28.54,2.61,56.19-2.81,83.76h24.67v-43.22c11.51.86,21.93,1.64,32.63,2.44v40.85h26.3V8.6c.58.19,1.12.36,1.65.53-.05-2.95-.16-5.9-.3-8.84Z"/>
  </g>
</svg>