<?xml version="1.0" encoding="UTF-8"?>
<svg id="_레이어_2" data-name="레이어 2" xmlns="http://www.w3.org/2000/svg" viewBox="0 0 37 100">
  <defs>
    <style>
      .cls-1 {
        fill: #fff;
        stroke-width: 0px;
      }
    </style>
  </defs>
  <g id="_레이어_1-2" data-name="레이어 1">
    <path class="cls-1" d="M17.12,100H0V.41c5.55,0,10.21-.25,14.8.2.96.1,2.35,2.8,2.37,4.31.09,7.5-.27,15.01-.34,22.51-.02,2.32.36,4.65,1.44,7,2.07-11.28,1.61-22.74,2.89-34.43h15.83v99.71h-15.77c0-10.79,0-21.75,0-32.7,0-2.68.32-5.41-.1-8.03-.21-1.32-1.74-2.44-2.67-3.65-.45.21-.89.43-1.34.64v44.02Z"/>
  </g>
</svg>