<?xml version="1.0" encoding="UTF-8"?>
<svg id="_레이어_2" data-name="레이어 2" xmlns="http://www.w3.org/2000/svg" viewBox="0 0 54.19 100">
  <defs>
    <style>
      .cls-1 {
        fill: #fff;
        stroke-width: 0px;
      }
    </style>
  </defs>
  <g id="_레이어_1-2" data-name="레이어 1">
    <g>
      <path class="cls-1" d="M50.64,100c-.09-1.85-.18-3.28-.23-4.71-.35-9.53-1.11-19.03-1.92-28.54-.58-6.84-3.59-11.32-8.5-14.94-5.05-3.72-10.9-5.63-17.33-5.2-4.23.29-8.47.54-13.28.85-.75,8.37.88,16.59,1.28,24.86.4,8.19.09,16.42.09,25-.65.13-1.7.35-3.06.63-.17-1.45-.37-2.57-.42-3.69-.61-12.91-1.15-25.83-1.83-38.74-.22-4.25-.78-8.48-1.19-12.72-.26-2.65-.27-2.65,1.91-4.24-.19-5.15-.48-10.11-.5-15.08,0-1.52-1.11-4.28,1.49-4.28,2.69,0,1.88,2.81,1.92,4.56.11,4.85.05,9.7.1,14.55.05,4.89.08,4.9,5.01,4.47,3.35-.29,6.69-.88,10.03-.81,3.33.07,6.99.03,9.89,1.36,7.97,3.66,14.74,8.74,16.98,18.05,2.74,11.38,2.48,22.99,3.08,34.54.14,2.79-.03,2.8-3.52,4.06Z"/>
      <path class="cls-1" d="M4.9,16.81c-3.18.83-4.64.06-4.69-2.71C.12,10.18-.05,6.26.02,2.35.03,1.56.96.78,1.46,0c.73.77,1.61,1.45,2.15,2.33.34.55.15,1.42.22,2.14.35,4.03.7,8.06,1.07,12.33Z"/>
    </g>
  </g>
</svg>