<?xml version="1.0" encoding="UTF-8"?>
<svg id="_레이어_2" data-name="레이어 2" xmlns="http://www.w3.org/2000/svg" viewBox="0 0 107.34 100">
  <defs>
    <style>
      .cls-1 {
        fill: #fff;
        stroke-width: 0px;
      }
    </style>
  </defs>
  <g id="_레이어_1-2" data-name="레이어 1">
    <g>
      <path class="cls-1" d="M107.34,95.43c-.38-.34-1.41-.27-1.99-.04-5.71,2.26-11.68,2.72-17.75,3.28-6.85.63-13.54.1-20.22-.78-5.48-.72-10.67.36-15.97,1.06-2.59.34-5.23.45-7.85.54-6.49.22-12.99.41-19.48.51-1.24.02-2.58-.19-3.69-.7-.64-.29-1.22-1.38-1.25-2.13-.02-.56.84-1.6,1.39-1.65,2.02-.19,2.7-1.68,3.74-3.01.97-1.25,2.21-2.55,3.62-3.13,3.55-1.49,4.34-4.39,4.67-7.69,0-.08,0-.17,0-.26.16-16.4.8-32.81.23-49.18-.22-6.23-2.56-12.64-8.06-17.05-.85-.68-1.15-2.36-1.19-3.6-.01-.48,1.4-1.02,2.19-1.49,2.93-1.77,5.84-3.56,8.8-5.28,2.61-1.51,5.13-3.34,7.94-4.32,6.66-2.33,13.25,3.83,13.28,9.71.03,5.23-.39,10.46-.77,15.68-.39,5.29-1.17,10.56-1.43,15.85-.25,5.14-.08,10.31-.03,15.46.01.94.37,1.87,1.2,2.95,1.27-2.22,2.63-4.39,3.8-6.67,1.37-2.68,2.61-5.43,3.84-8.17,1.38-3.07,4.77-4.61,8.97-3.42,2.39.68,4.9.76,7.06,3.1,1.39,1.51,5.2,1.09,7.91,1,4.02-.13,8.03-.75,12.04-1.14,1.66-.16,1.69,1.01,1.72,2.16.19,7.28.38,14.56.6,21.83.02.7,3.41,21.18,3.57,21.87.49,1.35,2.01,1.54,2.24,1.52l.87,3.19ZM56.11,79.54c-.09,0-.19.01-.28.02.25,3.8.46,7.61.76,11.41.18,2.22,1.67,3.36,3.54,2.41,2.05-1.05,4.21-2.32,5.63-4.06,2.96-3.63,5.61-7.55,8.12-11.51,4.08-6.43,8.04-12.95,11.88-19.53,1.66-2.85,1.22-6.32-.58-7.99-4.31-3.99-10.84-3.42-14.9.81-4.83,5.03-8.48,10.85-12.39,16.54-1.49,2.17-2.02,4.35-1.98,6.82.02,1.69.14,3.38.22,5.08Z"/>
      <path class="cls-1" d="M27.96,75.78c0,6.69-4.47,13.23-10.29,14.69-7.61,1.91-17.13-3.66-17.63-13.07-.26-4.76.7-9.22,3.84-13.15,2.9-3.63,8.55-5.61,12.98-4.22,6.2,1.94,11.55,8.47,11.1,15.75Z"/>
    </g>
  </g>
</svg>