<?xml version="1.0" encoding="UTF-8"?>
<svg id="_레이어_2" data-name="레이어 2" xmlns="http://www.w3.org/2000/svg" viewBox="0 0 60.65 100">
  <defs>
    <style>
      .cls-1 {
        fill: #fff;
        stroke-width: 0px;
      }
    </style>
  </defs>
  <g id="_레이어_1-2" data-name="레이어 1">
    <g>
      <path class="cls-1" d="M7.36.96c3.94-.33,7.3-.62,11.29-.96,2.65,32.76-4.24,65.88,5.75,98.61H0C6.94,66.26,5.86,33.76,7.36.96Z"/>
      <path class="cls-1" d="M33.06,100c.76-.72,1.1-1.34,1.49-1.37,8.47-.69,9.02-6.51,8.94-13.16-.29-22.81-.25-45.62-.64-68.43-.06-3.41-1.71-6.79-2.84-10.96,2.97-.22,6.21-.47,10.78-.82,3.3,31.71,6.56,62.97,9.87,94.74h-27.59Z"/>
    </g>
  </g>
</svg>