<?xml version="1.0" encoding="UTF-8"?>
<svg id="_레이어_2" data-name="레이어 2" xmlns="http://www.w3.org/2000/svg" viewBox="0 0 50.54 95.18">
  <defs>
    <style>
      .cls-1 {
        fill: #fff;
        stroke-width: 0px;
      }
    </style>
  </defs>
  <g id="_레이어_1-2" data-name="레이어 1">
    <path class="cls-1" d="M.07,47.64C.07,33.06.16,18.48,0,3.91-.03.97.94.09,3.69.22c2.49.13,5.02.07,7.5-.19,2.22-.23,2.83.65,2.84,2.7.08,11.31.33,22.62.32,33.93,0,2.78.42,4.05,3.63,3.83,4.55-.31,9.15-.25,13.7.03,2.85.18,3.73-.55,3.7-3.51-.1-10.22.03-20.45.22-30.67.11-5.9.23-5.9,6.04-5.89,1.31,0,2.61-.02,3.92-.02,4.49,0,4.59,0,4.53,4.65-.35,28.72-.28,57.43.42,86.14.07,3.03-1.07,3.78-3.67,3.71-2.61-.07-5.23-.19-7.83,0-2.68.18-3.62-.78-3.6-3.5.11-11.2-.12-22.41.13-33.61.08-3.49-1.01-4.18-4.21-3.97-4.99.33-10.01.3-15.02.19-2.09-.04-2.52.66-2.5,2.61.14,11.53.08,23.06.28,34.59.05,2.75-.55,4.07-3.54,3.81-2.05-.18-4.13.06-6.2.09q-4.31.07-4.32-4.13c0-14.47,0-28.94,0-43.41h.02Z"/>
  </g>
</svg>