<?xml version="1.0" encoding="UTF-8"?>
<svg id="_레이어_2" data-name="레이어 2" xmlns="http://www.w3.org/2000/svg" viewBox="0 0 48.69 100">
  <defs>
    <style>
      .cls-1 {
        fill: #fff;
        stroke-width: 0px;
      }
    </style>
  </defs>
  <g id="_레이어_1-2" data-name="레이어 1">
    <path class="cls-1" d="M48.65,50.29c0,15.65-.04,31.3.05,46.96.01,2.11-.62,2.73-2.67,2.67-4.04-.11-8.08-.08-12.12.08-1.8.07-2.03-.68-2.02-2.19.05-11.78-.02-23.56.08-35.34.02-2.16-.33-3.16-2.81-2.96-3.01.25-6.07.24-9.08,0-2.45-.2-2.8.76-2.78,2.94.11,11.53,0,23.06.12,34.58.02,2.25-.65,2.88-2.86,2.76-4.11-.21-8.24-.18-12.36-.13-1.57.02-2.21-.37-2.19-2.09.09-10.1.07-20.19.07-30.29.01-21.29.05-42.58-.02-63.87C.05,1.2.47.29,2.92.39c4.11.16,8.25,0,12.37-.19,1.54-.07,1.97.33,2.05,1.9.5,10.94-.2,21.88.07,32.81.08,3.36.17,6.73.12,10.1-.02,1.71.68,2.05,2.26,1.99,3.19-.13,6.41-.17,9.59.04,2.13.14,2.67-.48,2.65-2.59-.11-13.55-.1-27.1-.09-40.65,0-4.58-.09-3.72,3.82-3.76,3.36-.03,6.73.25,10.09.18,2.14-.04,2.83.59,2.81,2.85-.11,15.74-.06,31.47-.06,47.21.01,0,.03,0,.04,0Z"/>
  </g>
</svg>