<?xml version="1.0" encoding="UTF-8"?>
<svg id="_레이어_2" data-name="레이어 2" xmlns="http://www.w3.org/2000/svg" viewBox="0 0 80.25 100">
  <defs>
    <style>
      .cls-1 {
        fill: #fff;
        stroke-width: 0px;
      }
    </style>
  </defs>
  <g id="_레이어_1-2" data-name="레이어 1">
    <path class="cls-1" d="M49.38,4.87V.28c.98,0,1.89-.02,2.79,0,6.56.19,13.12.47,19.69.54,2.1.02,2.6.84,2.6,2.77-.06,20.65-.08,41.29-.05,61.94,0,5.61.35,11.23.25,16.84-.05,2.73,1.07,3.53,3.5,3.33.68-.05,1.37.05,2.09.08v14.22h-28.79v-13.13c.89-.16,2.13-.38,3.67-.66.15-1.88.43-3.84.44-5.8.06-8.98-.05-17.97.1-26.95.04-2.59-1.06-3.81-3.39-3.85-5.7-.09-11.4-.02-17.1.04-1.85.02-2.61.84-2.57,2.9.15,9.85.1,19.69.14,29.54.01,3.36.37,3.7,3.71,3.81,1.64.05,3.28.1,4.92.17.14,0,.28.18.36.24v12.59H0v-14c1.91-.1,3.69-.19,5.47-.3,1.64-.1,2.41-.81,2.41-2.61.08-22.03.24-44.06.33-66.08.02-4.48-.1-4.48-4.3-5.95V.01C9.86.01,15.78-.02,21.71.02c4.75.03,9.5.24,14.25.19,2.08-.02,3.29.4,3.21,2.77-.04,1.35.24,2.7.37,4.02-5.63,1.17-8.05,3.91-7.9,10.98.06,2.85.06,5.7.12,8.55.07,3.23,1.87,6.04,5.01,6.31,5.38.46,10.83.39,16.24.26,1.9-.04,3.2-1.21,3.25-3.56.13-6.21.53-12.42.73-18.63.15-4.59-1.5-6.18-6.13-6.12-.41,0-.82.05-1.48.08Z"/>
  </g>
</svg>