<?xml version="1.0" encoding="UTF-8"?>
<svg id="_레이어_2" data-name="레이어 2" xmlns="http://www.w3.org/2000/svg" viewBox="0 0 84.88 100">
  <defs>
    <style>
      .cls-1 {
        fill: #fff;
        stroke-width: 0px;
      }
    </style>
  </defs>
  <g id="_레이어_1-2" data-name="레이어 1">
    <path class="cls-1" d="M59.37,99.92v-9.61c.95,0,1.83.02,2.71,0,2.91-.06,4.89-1.5,5.29-4.32.68-4.78.84-9.6.23-14.4-.13-1.05-.62-2.1-1.13-3.05-.84-1.56-2.22-2.53-4.01-2.54-10.57-.04-21.13-.03-31.7-.03-.19,0-.39.05-.54.07-.08.13-.15.2-.15.26.06,5.3.05,10.6.23,15.89.07,2.09,1.04,3.96,2.4,5.59,1.57,1.88,3.8,2,5.96,2.22,1.36.14,2.74.03,4.29.03.14,3.39.27,6.56.4,9.86-.39.04-.74.1-1.08.1-13.36-.02-26.72-.05-40.08-.08-1.75,0-1.76-.02-1.78-1.8-.02-2.21,0-4.43,0-6.7,1.11-.11,2.35-.19,3.57-.36,4.53-.63,6.85-2.75,7.28-7.36.46-4.87.68-9.77.69-14.66.03-14.82-.06-29.63-.18-44.45-.02-2.04-.38-4.11-.83-6.11-.84-3.73-3.46-5.61-7.1-6.19-1.23-.2-2.48-.22-3.84-.33V.51h43.33v11.34c-1.29.07-2.49.12-3.68.21-3.58.27-6.22,2.03-7.68,5.28-.64,1.41-1.14,3.01-1.19,4.54-.23,6.27-.29,12.54-.37,18.81-.03,2.27.09,4.53.1,6.8,0,.97.34,1.3,1.36,1.29,9.8-.11,19.59-.16,29.39-.23,2.89-.02,5.31-1.79,5.92-4.62.39-1.84.61-3.76.6-5.65-.02-5.71-.1-11.42-.34-17.12-.07-1.65-.48-3.4-1.17-4.9-1.51-3.3-3.98-5.4-8.03-4.89V.23c.14-.03.29-.09.45-.09C66.81.09,74.95.03,83.09,0c1.59,0,1.59.03,1.59,1.59.07,27,.13,54.01.2,81.01.01,5.74,0,11.49,0,17.33h-25.51Z"/>
  </g>
</svg>