<?xml version="1.0" encoding="UTF-8"?>
<svg id="_레이어_2" data-name="레이어 2" xmlns="http://www.w3.org/2000/svg" viewBox="0 0 82.08 100">
  <defs>
    <style>
      .cls-1 {
        fill: #fff;
        stroke-width: 0px;
      }
    </style>
  </defs>
  <g id="_레이어_1-2" data-name="레이어 1">
    <g>
      <path class="cls-1" d="M0,0h3.23c0,2.03.02,3.84,0,5.66-.14,11.15-.4,22.3-.4,33.45,0,10.46.28,20.91.39,31.37.05,4.89-.06,9.79-.02,14.69.01,1.62.14,3.27.46,4.85.46,2.22,2.26,3.24,4.25,3.61,3.52.66,7.08,1.11,10.64,1.55,1.88.23,3.78.23,5.78.34v3.75c-8.23.25-16.28.5-24.33.75C0,66.67,0,33.33,0,0Z"/>
      <path class="cls-1" d="M41.29,97.61c2.97-1.07,5.56-1.88,8.04-2.94,2.22-.95,3.53-2.79,3.68-5.23.25-4,.46-8.01.52-12.01.15-9.18.21-18.36.3-27.54,0-.52-.09-1.05-.11-1.2-16.01.07-31.86.13-47.71.19-.67,0-1.34-.06-2.25-.1-.06-1.22-.27-2.36-.12-3.45.19-1.38,1.04-1.99,2.6-1.87,3.65.29,7.32.54,10.99.53,10.4-.02,20.81-.16,31.21-.29,1.76-.02,3.51-.18,5.36-.29.1-.72.22-1.24.23-1.77.16-9.99.33-19.99.42-29.98.01-1.38-.17-2.93-.81-4.11-.54-1-1.78-2.07-2.85-2.24-2.93-.46-5.94-.46-9.19-.66-.11-.83-.24-1.79-.4-3h27.05v41.99h13.85c-.08,1.73-.16,3.23-.23,4.69-4.72.21-9.17.41-13.72.62-.14.86-.31,1.45-.32,2.04-.2,12.24-.43,24.47-.55,36.71-.05,4.88,1.44,6.55,6.16,7.56.33.07.64.21,1.13.37v4.3h-32.91c-.09-.61-.24-1.53-.36-2.35Z"/>
    </g>
  </g>
</svg>