<?xml version="1.0" encoding="UTF-8"?>
<svg id="_레이어_2" data-name="레이어 2" xmlns="http://www.w3.org/2000/svg" viewBox="0 0 84.07 100">
  <defs>
    <style>
      .cls-1 {
        fill: #fff;
        stroke-width: 0px;
      }
    </style>
  </defs>
  <g id="_레이어_1-2" data-name="레이어 1">
    <path class="cls-1" d="M84.07,0c-.46,5.39-.37,10.38-1.38,15.14-5.4,25.48-8.39,51.13-6.51,77.22.07.91-.13,1.84-.25,3.25h-24.1c1.72-13.2,3.44-26.48,5.32-40.87-5.83.51-10.71.72-15.53,1.43-4.14.6-8.15,2.05-12.29,2.61-4.35.58-5.97,2.46-5.79,6.98.41,10.08-.78,20.03-3.29,29.84-.63,2.44-1.51,3.31-3.97,3.38-5.06.15-10.12.61-16.28,1.02C3.62,69.45,7.15,39.68,10.69,9.83c6.58-.7,13.78-1.46,21.72-2.3-.36,2.29-.57,4.35-1.01,6.36-1.28,5.91-2.62,11.8-4,17.69-.62,2.65.46,3.78,3.04,3.89,9.38.42,18.65-.16,27.51-3.51,6.46-2.45,10.52-7.01,11.02-14.19.28-4.01.29-8.06.9-12.01.19-1.27,1.7-2.93,2.95-3.32,3.36-1.07,6.91-1.55,11.25-2.44Z"/>
  </g>
</svg>