<?xml version="1.0" encoding="UTF-8"?>
<svg id="_레이어_2" data-name="레이어 2" xmlns="http://www.w3.org/2000/svg" viewBox="0 0 86.38 100">
  <defs>
    <style>
      .cls-1 {
        fill: #fff;
        stroke-width: 0px;
      }
    </style>
  </defs>
  <g id="_레이어_1-2" data-name="레이어 1">
    <path class="cls-1" d="M0,1.32h23.54v35.99h37.8V0h22.99c.68,32.33,1.37,64.63,2.05,96.99h-24.28c0-3.57.07-6.77-.01-9.96-.22-7.76-.42-15.53-.87-23.28-.07-1.16-1.37-3.22-2.13-3.24-11.86-.21-23.72-.14-36.07-.14,0,1.6,0,2.99,0,4.37.07,10.49.06,20.98.28,31.46.06,2.72-.99,3.78-3.5,3.79-6.33.01-12.65,0-19.8,0V1.32Z"/>
  </g>
</svg>