<?xml version="1.0" encoding="UTF-8"?>
<svg id="_레이어_2" data-name="레이어 2" xmlns="http://www.w3.org/2000/svg" viewBox="0 0 84.92 100">
  <defs>
    <style>
      .cls-1 {
        fill: #fff;
        stroke-width: 0px;
      }
    </style>
  </defs>
  <g id="_레이어_1-2" data-name="레이어 1">
    <g>
      <path class="cls-1" d="M67.81,2.72c6.24-1.43,11.32-3.98,17.11-1.98v97.29h-16.74v-46.52H15.28c-.06,15.84,0,32.03-.03,48.5H.15v-29.67c0-2.83.29-5.7-.07-8.49-.48-3.62,1.37-5.82,4.16-7.97-1.37-.48-2.47-.85-3.83-1.32V.59h14.15c3.18,2.87,2.72,7.22,2.56,11.43-.22,5.75,1.14,11.68-1.81,17.18-.39.73-.07,1.86-.05,2.8.09,4.58,1.3,5.91,6.08,5.93,15.38.07,30.76.03,46.47.03V2.72Z"/>
      <path class="cls-1" d="M49.28,65.36c-2.66.94-5.29,1.93-7.98,2.78-1.31.42-1.96-.19-3.64-3.09,3.9-1.32,7.82-.23,11.61.3Z"/>
      <path class="cls-1" d="M50.35,62.66c.22.22.62.53.58.6-.22.41-.55.76-.84,1.14-.28-.28-.56-.56-.84-.84.37-.3.73-.6,1.1-.89Z"/>
    </g>
  </g>
</svg>