<?xml version="1.0" encoding="UTF-8"?>
<svg id="_레이어_2" data-name="레이어 2" xmlns="http://www.w3.org/2000/svg" viewBox="0 0 80 100">
  <defs>
    <style>
      .cls-1 {
        fill: #fff;
        stroke-width: 0px;
      }
    </style>
  </defs>
  <g id="_레이어_1-2" data-name="레이어 1">
    <path class="cls-1" d="M1.52,0h25.69c-1.01,12.29-1.91,24.4-3.05,36.5-.35,3.74,1.59,5.2,4.66,5.25,10.13.16,20.27.06,30.31.06,0-9.03.33-18.51-.14-27.96-.24-4.86-2.82-8.86-8.02-10.51-1.26-.4-2.31-1.5-3.6-2.37h32.24c.13.41.26.82.38,1.24-8.11,5.36-8.53,14.01-8.99,22.06-1.24,21.8-1.83,43.64-2.38,65.47-.08,3.17,1.49,6.38,2.36,9.81h-20.47c7.08-3.03,5.43-9.9,6.13-15.21,1.53-11.52,2.05-23.18,2.95-34.79.11-1.41.01-2.85.01-4.03H22.85c0,6.65-.22,12.59.05,18.5.42,9.04,1.23,18.06,1.79,27.1.26,4.22,1.52,7.21,6.57,6.76.68-.06,1.43.71,1.9,2.11-10.68-.63-21.35-1.25-33.17-1.95,11.04-2.6,10.94-2.6,11.39-13.16.72-17.13,1.76-34.25,2.31-51.39.22-6.77-.11-13.61-.95-20.33-.53-4.26-2.24-8.43-7.09-10.13-1.26-.44-2.25-1.62-4.14-3.03Z"/>
  </g>
</svg>