<?xml version="1.0" encoding="UTF-8"?>
<svg id="_레이어_2" data-name="레이어 2" xmlns="http://www.w3.org/2000/svg" viewBox="0 0 84.21 100">
  <defs>
    <style>
      .cls-1 {
        fill: #fff;
        stroke-width: 0px;
      }
    </style>
  </defs>
  <g id="_레이어_1-2" data-name="레이어 1">
    <g>
      <path class="cls-1" d="M11.7,34.81h51.3c3.89-5.18,2.81-11,2.87-16.61.06-5.84.01-11.67.01-17.96h10.11v98.52c-3.1-1.36-6.36-3.21-9.88,1.23v-52.31H12.06c0,8.65.29,17.5-.08,26.32-.35,8.27,2.19,16.91-2.73,24.94H0V0h11.7v34.81Z"/>
      <path class="cls-1" d="M84.21,72.99c-.24.43-.49.88-.74,1.33-.23-.23-.69-.51-.65-.68.11-.49.42-.93.65-1.39.23.23.46.46.74.74Z"/>
    </g>
  </g>
</svg>