<?xml version="1.0" encoding="UTF-8"?>
<svg id="_레이어_2" data-name="레이어 2" xmlns="http://www.w3.org/2000/svg" viewBox="0 0 81.79 100">
  <defs>
    <style>
      .cls-1 {
        fill: #fff;
        stroke-width: 0px;
      }
    </style>
  </defs>
  <g id="_레이어_1-2" data-name="레이어 1">
    <g>
      <path class="cls-1" d="M45.91,98.35c0-17.11-.09-33.72.06-50.32.04-4.78-1.14-9.71,1.36-14.34.52-.96.23-2.47.04-3.68-.33-2.07-1.37-3.51-3.78-3.48-3.47.04-6.95.01-10.78.01v-13.45c14.33,0,28.69-.07,43.05.08,1.97.02,3.94,1.18,5.91,1.81,0,2.48.06,4.71-.01,6.93-.11,3.56-1.11,4.55-4.88,4.6-5.18.07-10.37.02-16.03.02v64.2c0,1.49.04,2.98,0,4.47-.11,3.23-1.25,4-4.19,4.64-3.88.85-6.81-2.11-10.74-1.49Z"/>
      <path class="cls-1" d="M12.8,99.76c-3.67,0-7.13.2-10.54-.14-.89-.09-3.37-.62-1.69-3.36,1.01-1.64.49-4.28.49-6.47.02-29.81.01-59.63.01-89.8h11.72v99.76Z"/>
    </g>
  </g>
</svg>