<?xml version="1.0" encoding="UTF-8"?>
<svg id="_레이어_2" data-name="레이어 2" xmlns="http://www.w3.org/2000/svg" viewBox="0 0 53.92 100">
  <defs>
    <style>
      .cls-1 {
        fill: #fff;
        stroke-width: 0px;
      }
    </style>
  </defs>
  <g id="_레이어_1-2" data-name="레이어 1">
    <path class="cls-1" d="M53.9.17c0,13.44.06,26.82-.02,40.19-.1,17.74-.4,35.49-.41,53.23,0,4.65-1.52,6.47-6.42,6.35-10.93-.25-10.93-.02-10.93-10.64,0-10.05,0-20.09,0-30.17-3.21-1.21-4.84-.6-4.81,2.83.09,8.47.19,16.94.15,25.41-.02,3.96-.38,7.92-.62,12.59-7.59,0-14.76.13-21.92-.14-1.06-.04-2.9-1.93-2.93-3.02-.54-17.41-1.15-34.82-1.09-52.23.03-9.86,1.33-19.7,1.9-29.56.22-3.83.4-7.79-4.49-9.45-.83-.28-1.11-2.17-2.3-4.73,8.73,0,16.19-.11,23.64.15.89.03,2.32,1.97,2.48,3.16.72,5.54,1.04,11.13,1.6,16.69.18,1.74.68,3.45,2.07,5.06.29-5.24.58-10.48.87-15.72.07-1.28.09-2.56.2-3.83.37-4.1,1.66-6.75,6.76-6.28,5.51.51,11.11.12,16.28.12Z"/>
  </g>
</svg>