<?xml version="1.0" encoding="UTF-8"?>
<svg id="_레이어_2" data-name="레이어 2" xmlns="http://www.w3.org/2000/svg" viewBox="0 0 48.58 95.19">
  <defs>
    <style>
      .cls-1 {
        fill: #fff;
        stroke-width: 0px;
      }
    </style>
  </defs>
  <g id="_레이어_1-2" data-name="레이어 1">
    <path class="cls-1" d="M48.5,47.76c0,14.47-.1,28.94.08,43.41.04,3.12-1.02,4.05-3.89,3.88-2.17-.12-4.37-.1-6.53.1-2.63.24-3.39-.83-3.37-3.37.1-11.75-.05-23.5.1-35.25.03-2.58-.64-3.35-3.22-3.25-5,.2-10.02.17-15.02,0-2.31-.07-2.9.68-2.89,2.94.07,11.53-.14,23.07-.01,34.6.04,3.13-.94,4.09-4.05,4.15C.06,95.16,0,95.28,0,85.59,0,58.28.08,30.97.03,3.66.03,1.16.61.09,3.29.33c2.37.22,4.8.17,7.18-.04,2.28-.21,3.11.68,3.12,2.86.05,7.83.18,15.66.25,23.49.03,3.37.15,6.75-.05,10.12-.14,2.37.77,2.93,2.97,2.88,4.9-.12,9.81-.19,14.69.08,2.92.16,3.36-1.05,3.35-3.56-.04-9.9.02-19.8.21-29.7C35.15.02,35.28-.07,41.64.02c7.37.11,6.52-1.21,6.58,6.62.11,13.71.03,27.42.03,41.12.08,0,.16,0,.25,0Z"/>
  </g>
</svg>