<?xml version="1.0" encoding="UTF-8"?>
<svg id="_레이어_2" data-name="레이어 2" xmlns="http://www.w3.org/2000/svg" viewBox="0 0 49.66 95.1">
  <defs>
    <style>
      .cls-1 {
        fill: #fff;
        stroke-width: 0px;
      }
    </style>
  </defs>
  <g id="_레이어_1-2" data-name="레이어 1">
    <path class="cls-1" d="M.1,47.41C.1,33.05.23,18.68,0,4.33-.05.88,1-.02,4.18.33c2.26.25,4.59.22,6.85-.02,2.77-.29,3.76.47,3.71,3.48-.2,11.09-.01,22.19-.18,33.29-.04,2.62.74,3.31,3.26,3.22,5.11-.18,10.24-.16,15.35.01,2.22.07,2.74-.73,2.74-2.78,0-11.31.19-22.63.13-33.94-.02-2.54.62-3.56,3.23-3.25,3.2.37,7.31-1.41,9.39.78,1.91,2.01.56,6.03.57,9.16.08,26.66.13,53.31.1,79.97,0,4.77.83,4.36-4.28,4.63-9.4.48-9.47.43-9.54-8.82-.08-9.57-.12-19.15.07-28.72.05-2.81-.84-3.46-3.49-3.34-4.89.22-9.8.16-14.69.04-2.13-.05-2.68.61-2.67,2.77.09,11.64-.09,23.28,0,34.92.02,2.42-.7,3.34-3.09,3.26-2.72-.09-5.45-.11-8.16.1-2.55.2-3.39-.62-3.37-3.27.12-14.8.06-29.59.06-44.39h-.05Z"/>
  </g>
</svg>