<?xml version="1.0" encoding="UTF-8"?>
<svg id="_레이어_2" data-name="레이어 2" xmlns="http://www.w3.org/2000/svg" viewBox="0 0 119.24 100">
  <defs>
    <style>
      .cls-1 {
        fill: #fff;
        stroke-width: 0px;
      }
    </style>
  </defs>
  <g id="_레이어_1-2" data-name="레이어 1">
    <path class="cls-1" d="M119.16,50.55c0,14.09-.15,28.17.08,42.26.09,5.39-1.65,7.35-7.28,7.18-29.91-.92-23.8,4.81-24.19-23.17-.15-10.4-2.28-14.16-13.19-13.18-11.52,1.04-23.24.35-34.85-.1-6.07-.23-8.03,1.95-7.67,7.89.44,7.37.18,14.79.05,22.18-.04,2.24.96,5.8-2.52,5.93-8.78.33-17.61.41-26.35-.23-3.56-.26-2.91-4.4-2.72-7.04C2.43,64.82-.87,37.39.23,9.94c.24-5.92,1.78-7.64,7.78-7.73,24.1-.35,24.66-.56,23.88,23.04-.32,9.7,2.71,11.91,11.73,11.34,12.28-.78,24.66-.43,36.98-.04,5.01.16,6.98-1.11,6.71-6.31-.35-6.67-.1-13.38-.07-20.07,0-2.11-.75-5.11.34-6.18,7.57-7.43,17.03-1.97,25.58-3.15,5.73-.79,5.88,3.28,5.86,7.47-.08,14.08-.03,28.16-.03,42.25.06,0,.11,0,.17,0Z"/>
  </g>
</svg>