<?xml version="1.0" encoding="UTF-8"?>
<svg id="_레이어_2" data-name="레이어 2" xmlns="http://www.w3.org/2000/svg" viewBox="0 0 137.78 100">
  <defs>
    <style>
      .cls-1 {
        fill: #fff;
        stroke-width: 0px;
      }
    </style>
  </defs>
  <g id="_레이어_1-2" data-name="레이어 1">
    <path class="cls-1" d="M137.72,50.21c0,15.28,0,30.56,0,45.85,0,3.23-.33,3.63-3.65,3.66-15.28.12-30.56.21-45.84.29-3.7.02-5.16-1.4-5.18-5.15-.08-14.27-.08-28.55-.13-42.82-.02-4.13-2.66-7.19-6.7-7.37-5.84-.25-11.7-.23-17.55-.31-2.02-.03-3.01,1.11-3.14,3.04-.08,1.28-.09,2.56-.09,3.84-.03,14.64-.06,29.28-.09,43.92-.01,4.22-.6,4.71-4.78,4.7-14.91-.02-29.83,0-44.74.02-4.43,0-5.77-1.24-5.77-5.64C.01,64.31,0,34.39,0,4.47,0,1.46,1.09.33,4.1.32c15.28-.04,30.56-.06,45.84-.05,3.23,0,4.27,1.04,4.35,4.23.06,2.19.08,4.39.02,6.59-.05,1.91.75,3,2.69,3,7.59,0,15.19,0,22.78-.07,2.2-.02,3.31-1.24,3.24-3.52-.07-2.19-.03-4.39-.05-6.59-.02-2.47,1.07-3.64,3.66-3.63,11.9.03,23.79-.02,35.69-.08,3.66-.02,7.32-.27,10.97-.19,3.59.08,4.48,1.11,4.48,4.62,0,15.19,0,30.38,0,45.57h-.06Z"/>
  </g>
</svg>