<?xml version="1.0" encoding="UTF-8"?>
<svg id="_레이어_2" data-name="레이어 2" xmlns="http://www.w3.org/2000/svg" viewBox="0 0 96.4 100">
  <defs>
    <style>
      .cls-1 {
        fill: #fff;
        stroke-width: 0px;
      }
    </style>
  </defs>
  <g id="_레이어_1-2" data-name="레이어 1">
    <path class="cls-1" d="M42.03.47c0,1.45-.05,2.47.01,3.47.12,1.85-.4,2.96-2.53,3.14-2.14.17-3.19,1.35-3.1,3.75.3,8.59.42,17.18.62,26.02h22.51c0-4.77.03-9.5-.01-14.23-.02-2.15-.33-4.31-.23-6.45.26-5.45-2.18-6.59-6.44-8.01-.69-.23-1.42-.37-2.08-.54-.11-.27-.25-.44-.24-.6.32-7.7-.24-6.75,6.68-6.91,9.8-.23,19.62-.06,29.64-.06,0,3.25.02,6.48,0,9.72-.12,21.89-.28,43.78-.34,65.67-.02,5.86,2.04,11.14,5.12,16.07,1.63,2.6,3.07,5.31,4.77,8.26-.91.09-1.59.23-2.26.22-13.94-.21-27.88-.5-41.81-.62-2.66-.02-3.54-.86-3.54-3.55.01-7.01-.4-14.02-.4-21.03,0-4.95.18-4.89,4.97-4.8,2.02.04,4.05-.25,6.11-.39v-16.86c-1.78,0-3.32,0-4.87,0-4.21-.03-8.43.08-12.63-.14-2.5-.13-3.4.41-3.36,3.17.18,13.38.11,26.75.12,40.13,0,.45-.09.9-.19,1.82-12.83-.92-25.54-1.83-38.12-2.73-.9-4.65-.66-4.98,3.23-5.12,5.75-.21,7.67-1.82,7.71-7.58.13-18.89.07-37.79.04-56.68,0-4.4-.17-8.79-.25-13.19-.04-1.93-.61-3.77-2.64-4.13-3.45-.61-3.62-2.89-3.4-5.57.05-.64.08-1.29.14-2.25h36.76Z"/>
  </g>
</svg>