<?xml version="1.0" encoding="UTF-8"?>
<svg id="_레이어_2" data-name="레이어 2" xmlns="http://www.w3.org/2000/svg" viewBox="0 0 112.99 100">
  <defs>
    <style>
      .cls-1 {
        fill: #fff;
        stroke-width: 0px;
      }
    </style>
  </defs>
  <g id="_레이어_1-2" data-name="레이어 1">
    <path class="cls-1" d="M71.69,60.06c-1.81,0-3.43.01-5.04,0-8.86-.07-17.73-.12-26.59-.26-2.06-.03-2.85.64-2.81,2.79.08,4.61-.15,9.22-.15,13.83-.01,7.61,2.41,14.13,8.5,19.09.8.65.95,2.11,1.57,3.59-3.65,0-6.71,0-9.76,0-10.13,0-20.26.04-30.38,0-.78,0-1.55-.5-2.33-.77.42-.62.7-1.46,1.28-1.84,4.94-3.25,6.86-7.93,6.78-13.66-.11-8.77-.15-17.53-.27-26.3-.17-12.65-.34-25.31-.61-37.96-.15-7.21-3.15-10.06-10.38-10.18-.44,0-.89-.04-1.49-.08C.03,5.93-.08,3.62.12,1.33.16.92,1.46.3,2.15.33c3.97.18,7.93.79,11.89.77,9.22-.06,18.43-.41,27.64-.62,2.06-.05,4.13,0,6.39,0v6.44c-2.9,1.28-5.55,2.25-8,3.59-2.38,1.3-3.07,3.82-3.1,6.3-.15,9.3-.16,18.61-.1,27.91,0,.65.95,1.33,1.53,1.93.12.13.52-.01.79-.01,10.56,0,21.13,0,31.95,0,.06-1.26.15-2.22.14-3.18-.02-7.51-.01-15.01-.12-22.52-.03-2.25-.38-4.49-.59-6.74-.27-2.92-1.33-5.22-4.51-6.03-.44-.11-.98-.81-1.02-1.28-.12-1.69-.05-3.39-.05-5.13,16.1-.59,31.86-1.16,47.95-1.75,0,1.69.13,3.29-.07,4.85-.07.53-.93,1.21-1.55,1.38-6.18,1.73-8.67,4.83-8.7,11.34-.11,25.95-.17,51.91-.24,77.86,0,1.42,0,2.84,0,4.56-1.27,0-2.15,0-3.03,0-11.3-.09-22.61-.17-33.91-.26-.72,0-1.5.13-2.15-.09-.63-.21-1.12-.81-1.67-1.24.54-.46,1.04-1.28,1.61-1.34,4.17-.42,6.79-2.66,8.1-6.56.2-.59.41-1.22.42-1.83.07-8.95.12-17.9.16-26.85,0-.44-.1-.88-.21-1.78Z"/>
  </g>
</svg>