<?xml version="1.0" encoding="UTF-8"?>
<svg id="_레이어_2" data-name="레이어 2" xmlns="http://www.w3.org/2000/svg" viewBox="0 0 73.6 100">
  <defs>
    <style>
      .cls-1 {
        fill: #fff;
        stroke-width: 0px;
      }
    </style>
  </defs>
  <g id="_레이어_1-2" data-name="레이어 1">
    <path class="cls-1" d="M43.03,11V1.72c8.5-.57,17.07-1.14,25.83-1.72.13,2.55.28,4.92.31,7.3,0,.33-.63.91-1,.95-2.5.23-4.52,1.5-6.54,2.79-.96.61-1.47,1.47-1.44,2.68.2,7.29.42,14.58.54,21.87.08,4.59.02,9.17-.01,13.76-.01,2.08-.05,2.08,2.1,2.09,3.94.02,3.98.03,3.94,3.93-.05,4.17-.18,8.35-.28,12.65-2.07-.43-3.91-.77-5.72-1.23-.29-.07-.47-.72-.61-1.14-.19-.59-.3-1.21-.44-1.82l-.56.02c-.28,1.07-.73,2.14-.8,3.22-.21,3.35-.36,6.71-.37,10.07,0,1.93.92,3.41,2.59,4.58,3.48,2.43,7.2,4.22,11.34,5.15.41.09,1,.62,1.02.98.28,3.96.46,7.92.68,12.14-9.95-.2-19.94-.41-30.12-.62,0-2.09-.08-4.06.02-6.03.09-1.88-.42-3.51-1.59-4.94-6.31-7.69-12.63-15.37-18.96-23.03-.24-.3-.73-.39-1.11-.58-.19.44-.54.88-.55,1.33-.05,5.36-.05,10.72-.05,16.08,0,2.08,0,4.15,0,6.26h6.54c.23,3.44.45,6.88.7,10.6H1.25c0-2.82.02-5.72-.01-8.62,0-.87.38-1.16,1.19-1.2,1.73-.07,3.46-.23,5.2-.3.94-.04,1.41-.43,1.39-1.4-.15-6.78-.3-13.56-.45-20.33,0-.09-.09-.18-.14-.26-2.54.49-5.08.97-7.84,1.5-.11-2.27-.25-4.38-.3-6.5-.07-2.7-.04-5.41-.14-8.12-.04-1,.31-1.37,1.27-1.44,1.88-.15,3.75-.44,5.64-.55,1.22-.07,1.74-.63,1.75-1.79.05-3.57.16-7.14.14-10.71-.04-6.22-.12-12.44-.26-18.66-.05-2.24-.16-4.49-.54-6.69-.68-4.01-2.05-5.29-6.11-5.86-1.13-.16-1.39-.56-1.44-1.61-.07-1.57-.35-3.13-.58-5.01h24.86c.01.21.07.64.05,1.07-.11,1.88-.24,3.77-.38,5.65-.02.3-.03.79-.2.86-1.5.68-.93,1.96-.93,3.05.04,7.91.08,15.82.21,23.73.01.87.44,1.85.96,2.57,2.53,3.52,5.04,7.06,7.78,10.41,2.8,3.43,2.03,3.54,5.41.44,3.04-2.79,5.84-5.85,8.68-8.85.47-.5.79-1.36.78-2.04-.08-7.96-.26-15.92-.38-23.87-.04-2.66,0-2.66-2.67-3.2-.3-.06-.59-.16-1.14-.32Z"/>
  </g>
</svg>