<?xml version="1.0" encoding="UTF-8"?>
<svg id="_레이어_2" data-name="레이어 2" xmlns="http://www.w3.org/2000/svg" viewBox="0 0 76.73 100">
  <defs>
    <style>
      .cls-1 {
        fill: #fff;
        stroke-width: 0px;
      }
    </style>
  </defs>
  <g id="_레이어_1-2" data-name="레이어 1">
    <path class="cls-1" d="M76.73,94.79c-9.59,4.05-11.82-5.27-15.21-7.31-9.55,4.34-17.49,9.3-26.13,11.58-13.72,3.62-25.66-3.37-31.63-16.56C-3.57,66.24-.61,27.22,16.37,13.63c5.24-4.19,11.73-6.87,17.76-10.02,2.61-1.37,5.5-2.19,9.17-3.61,26.64,10.34,31.68,33.14,30.23,59.35-.48,8.64-1.32,17.28-1.18,25.91.05,2.94,2.6,5.83,4.38,9.52ZM60.97,41.88c-3.21-8.1-5.43-18.13-10.82-25.99-4.62-6.74-12.69.34-19.21-.02-7.72-.43-12.32,3.59-16.06,9.58-7.81,12.51-11.91,25.13-7.94,40.53,3.23,12.55,11.75,25.35,24.48,26.86,5.98.71,12.99-2.01,18.5-5.06,2.51-1.39,2.7-7.27,3.61-11.19.8-3.47.94-7.09,1.71-10.57,1.64-7.41,3.49-14.77,5.73-24.13Z"/>
  </g>
</svg>