<?xml version="1.0" encoding="UTF-8"?>
<svg id="_레이어_2" data-name="레이어 2" xmlns="http://www.w3.org/2000/svg" viewBox="0 0 92.44 100">
  <defs>
    <style>
      .cls-1 {
        fill: #fff;
        stroke-width: 0px;
      }
    </style>
  </defs>
  <g id="_레이어_1-2" data-name="레이어 1">
    <path class="cls-1" d="M79.14,71c3.24.65,6.17,1.1,9.01,1.88.86.24,2.14,1.5,2.06,2.16-.95,8.41-13.92,22.79-22.13,24.63-1.48.33-3.13.44-4.59.15-10.88-2.19-21.98-3.72-32.55-6.96C13.78,87.6,4.21,76.58.95,59.54-.89,49.94.03,40.39,2.93,31.17,7.2,17.57,16.61,8.84,29.97,3.99,38.15,1.02,46.78-.89,55.06.42c12.99,2.07,25.72,6.13,33.67,18.03,1.55,2.33,2.06,5.47,2.62,8.32,1.93,9.81,1.4,19.51-2.46,28.8-.57,1.38-2.63,2.86-4.12,3-2.49.24-3.48,1.39-3.92,3.48-.58,2.76-1.07,5.54-1.72,8.95ZM65.21,49.9c0-4.42.36-8.07-.1-11.62-.5-3.91-.77-8.39-2.85-11.46-8.99-13.28-23.72-13.28-34.19-3.69-8.83,8.09-10.82,18.71-9.52,30.32,1.33,11.83,6.83,20.43,18.22,24.52,6.83,2.46,13.88,1.65,19.81-2.22,2.88-1.88,6.09-6.25,5.81-9.17-.29-3.05-5.38-3.32-8.93-3.26-3.51.07-7.04.17-10.53-.1-1.1-.09-2.99-1.31-3.02-2.07-.14-3.57.24-7.15.47-11.25h24.83Z"/>
  </g>
</svg>