<?xml version="1.0" encoding="UTF-8"?>
<svg id="_레이어_2" data-name="레이어 2" xmlns="http://www.w3.org/2000/svg" viewBox="0 0 103.24 100">
  <defs>
    <style>
      .cls-1 {
        fill: #fff;
        stroke-width: 0px;
      }
    </style>
  </defs>
  <g id="_레이어_1-2" data-name="레이어 1">
    <path class="cls-1" d="M92.84,75.8c3.39,2.35,6.56,4.55,10.4,7.21-4.93,5.25-9.63,10.42-14.51,15.41-2.61,2.67-4.66,1.76-6.34-1.35-1.97-3.65-4.21-7.15-5.9-9.99-7.9,2.37-15.27,5.6-22.94,6.69C21.02,98.39-2.48,70.73.21,40.81,2.07,20.09,19.71,6.9,34.48,2.89c12.62-3.42,25.51-4.62,37.89.98,18.71,8.46,32.39,26.2,30.25,48.23-.72,7.41-3.44,13.74-9.77,23.7Z"/>
  </g>
</svg>