<?xml version="1.0" encoding="UTF-8"?>
<svg id="_레이어_2" data-name="레이어 2" xmlns="http://www.w3.org/2000/svg" viewBox="0 0 48.3 100">
  <defs>
    <style>
      .cls-1 {
        fill: #fff;
        stroke-width: 0px;
      }
    </style>
  </defs>
  <g id="_레이어_1-2" data-name="레이어 1">
    <path class="cls-1" d="M43.65,81.09c-3.83-6.63-11.59-9.39-15.06-16.42,6.91-1.9,8.55-8.94,3.82-13.8-4.72-4.85-4.67-6.54.09-11.48,4.98-5.16,6.31-18.44-1.59-24.71-3.47-2.76-7.54-2.77-11.44-1.86-2.68.63-4.78,2.53-4.76,5.94.08,20.23-.08,40.46.18,60.69.08,6.21,4.89,9.69,11.11,8.48,4.83-.94,9.54-2.52,15.1-4.04-.48,1.65-.63,2.94-1.21,3.99-4.39,8.06-15.05,13.42-23.36,11.83-8.36-1.6-15.07-9.46-15.59-19.62C.27,67.11.27,54.08.09,41.06-.03,31.49.02,21.92,0,12.35,0,8.27,1.52,4.88,5.39,3.34,14.65-.33,24.19-1.21,33.79,1.88c9.21,2.96,12.34,10.67,13.44,19.2.72,5.56.48,11.31.08,16.93-.18,2.56-1.77,5.02-2.78,7.7,2.77.53,3.9,2.67,3.77,6.21-.26,6.92-.02,13.86-.02,20.79,0,4.35-.36,5-4.62,8.39Z"/>
  </g>
</svg>