<?xml version="1.0" encoding="UTF-8"?>
<svg id="_레이어_2" data-name="레이어 2" xmlns="http://www.w3.org/2000/svg" viewBox="0 0 100.79 114.25">
  <defs>
    <style>
      .cls-1 {
        fill: #fff;
        stroke-width: 0px;
      }
    </style>
  </defs>
  <g id="_레이어_1-2" data-name="레이어 1">
    <path class="cls-1" d="M75.3,92.91c4.73,2.8,10.26,6.01,15.71,9.35,3.26,2,6.39,4.2,9.78,6.44-6.34,6.55-17.8,7.33-24.71,2.22-5.08-3.76-9.69-8.13-14.73-11.94-1.5-1.14-3.9-2.1-5.63-1.78C23.51,103.07,1.26,77.75.07,50.39c-.66-15.26,3.08-28.8,15.13-38.96C30.65-1.59,48.05-2.73,66.29,4.19c20.69,7.85,28.72,24.25,29.81,45.23.57,11.02-1.7,21.3-8.14,30.22-3.3,4.58-7.82,8.28-12.66,13.28ZM80.32,51.72c-.08-7.83-1.34-17.47-6.46-26.25-6.19-10.62-20.05-17.36-33.05-14.72-11.69,2.38-18.37,10.87-21.53,21.96-3.31,11.58-2.15,23.19,2.04,34.27,8.98,23.72,35.4,28.52,51.86,9.65,5.71-6.54,6.99-14.51,7.13-24.91Z"/>
  </g>
</svg>