<?xml version="1.0" encoding="UTF-8"?>
<svg id="_레이어_2" data-name="레이어 2" xmlns="http://www.w3.org/2000/svg" viewBox="0 0 76.11 100">
  <defs>
    <style>
      .cls-1 {
        fill: #fff;
        stroke-width: 0px;
      }
    </style>
  </defs>
  <g id="_레이어_1-2" data-name="레이어 1">
    <path class="cls-1" d="M42.17,77.14c4.83-.57,9.01-2.83,12.84-5.74,4.92-3.73,8.91-8.18,10.79-14.22.08-.27.17-.53.26-.8.18.12.35.23.53.35,1.39,9.8,1.89,19.65,1.99,29.76h-.23c.41.85.83,1.71,1.24,2.56,1.84,3.8,3.81,7.69,6.51,10.95-.12-.29-.23-.57-.35-.86-.73-1.75-1.92-3.39-2.27-5.2-.63-3.29-1.12-6.68-1.06-10.02.15-8.26.71-16.51.99-24.77.4-11.78.69-23.56,1.03-35.34.18-6.21.37-12.42.58-18.64.06-1.69.25-3.37.38-5.18h-10.42c0,3.58,0,7.03,0,10.49,2.96.84,2.91.84,2.79,4.13-.14,3.47-.19,6.95-.26,10.42-.11,5.92-.2,11.84-.28,17.76-.03,2.11,0,4.23,0,6.86-.83-.58-1.27-.89-1.98-1.39-.63,1.7-1.42,3.34-1.84,5.06-1.04,4.17-3.18,7.87-5.71,11.12-3.81,4.88-9.12,7.19-15.49,7.32-5.36.11-10.75-4.71-12.19-9.17-1.74-5.4-2.65-10.91-2.57-16.59.13-9.03-.68-18.08.85-27.08.75-4.42,1.87-8.62,4.85-12.08,2.71-3.14,6.23-4.72,10.32-3.97,6.56,1.21,11.33,5.22,15.11,10.55.25.35.49.72.75,1.11.25-.23.38-.3.38-.36.11-3.36.25-6.72.26-10.09,0-.31-.82-.92-1.22-.89-2.63.22-5.01-.66-7.43-1.46-7.27-2.39-14.58-2.33-21.75.25-3.43,1.24-6.76,2.87-9.94,4.66-2.77,1.56-5.51,3.35-7.83,5.51-2.04,1.89-3.45,4.46-5.19,6.69C2.96,23.55.97,28.98.37,34.79c-.51,4.94-.6,9.94.42,14.9,1.18,5.69,3.67,10.76,7.41,15.09,3.44,3.99,7.77,6.93,12.65,9.09,6.84,3.04,13.94,4.13,21.32,3.27Z"/>
  </g>
</svg>