<?xml version="1.0" encoding="UTF-8"?>
<svg id="_레이어_2" data-name="레이어 2" xmlns="http://www.w3.org/2000/svg" viewBox="0 0 106.12 100">
  <defs>
    <style>
      .cls-1 {
        fill: #fff;
        stroke-width: 0px;
      }
    </style>
  </defs>
  <g id="_레이어_1-2" data-name="레이어 1">
    <g>
      <path class="cls-1" d="M47.85,76.48c1.24,7.91,2.46,15.71,3.68,23.52-17.29-.53-32.55-5.35-43.32-20.23C.04,68.48-1.21,56.03.91,42.8c1.64-10.21,6.99-18.56,13.68-25.98,3.82-4.23,8.37-7.97,13.13-11.13C37.94-1.09,49.34-.84,60.82,1.46c9.74,1.95,19.18,4.81,28.25,9.01,5.93,2.75,10.37,7.03,12.56,12.77,2.3,6.05,3.72,12.62,4.3,19.08.6,6.74-.34,13.6-.45,20.41-.04,2.69-1.23,3.84-3.61,2.85-6.49-2.68-13.22-5.04-19.15-8.68-3.13-1.92-5.04-6.1-7.04-9.52-2.72-4.66-4.44-9.98-7.59-14.29-6.92-9.47-19.13-10.7-28.08-3.13-12.11,10.24-12.82,19.86-8.7,34.73,2.09,7.56,7.97,11.06,16.55,11.8Z"/>
      <path class="cls-1" d="M63.75,95.14v-23.9c1.88.48,3.19.53,4.18,1.11,6.44,3.76,12.87,7.55,19.15,11.57,1.12.72,2.47,3.06,2.09,3.76-1.2,2.17-2.94,5.25-4.89,5.58-6.75,1.17-13.68,1.33-20.53,1.88Z"/>
    </g>
  </g>
</svg>