<?xml version="1.0" encoding="UTF-8"?>
<svg id="_레이어_2" data-name="레이어 2" xmlns="http://www.w3.org/2000/svg" viewBox="0 0 114.52 100">
  <defs>
    <style>
      .cls-1 {
        fill: #fff;
        stroke-width: 0px;
      }
    </style>
  </defs>
  <g id="_레이어_1-2" data-name="레이어 1">
    <path class="cls-1" d="M114.52,73.49c-.64,7.85-1.16,15.34-2,22.81-.1.89-2.03,2.33-2.96,2.22-3.2-.37-6.57-.8-9.44-2.15-5.81-2.72-11.64-3.43-17.79-1.89-3.21.81-6.05,1.05-8.43-2.08-.55-.72-2.84-.59-4.14-.21-8.17,2.38-16.14,5.7-24.45,7.28-12.98,2.47-22.86-4.16-30.32-13.83C5.23,72.99.1,58.51,0,42.18c-.05-8.63,1-16.83,4.84-24.4C10.87,5.88,21.33.62,34.25.29c10.03-.26,20.16-.65,30.09.46,18.44,2.06,31.08,12.09,38.95,29.27,4.69,10.24,3.53,20.13,2.53,30.41-.11,1.14-.47,2.26-.6,3.4q-1.06,9.19,9.3,9.67ZM83.17,46.35c-1.12-3.27-1.34-6.31-2.94-8.14-8.14-9.31-16.69-18.15-29.22-21.7-10.63-3.01-21.9,2.42-25.57,12.85-3.26,9.25-3.59,18.78-1.17,28.2,4.03,15.66,19.27,23.47,33.78,17.34,3.01-1.27,5.42-3.96,8.11-6-2.31-1.89-3.82-2.59-5.39-2.76-6.35-.68-12.74-1.1-19.09-1.85-1.59-.19-3.84-.8-4.48-1.94-3.17-5.67,2.46-15.7,8.8-15.95,4.26-.17,8.53-.05,12.8-.05,7.7,0,15.4,0,24.36,0Z"/>
  </g>
</svg>