<?xml version="1.0" encoding="UTF-8"?>
<svg id="_레이어_2" data-name="레이어 2" xmlns="http://www.w3.org/2000/svg" viewBox="0 0 99.03 100">
  <defs>
    <style>
      .cls-1 {
        fill: #fff;
        stroke-width: 0px;
      }
    </style>
  </defs>
  <g id="_레이어_1-2" data-name="레이어 1">
    <path class="cls-1" d="M79.57,74.28c6.34,7.59,12.9,15.44,19.46,23.29-.22.35-.43.7-.65,1.06-1.95.15-3.9.35-5.85.45-6.57.35-13.14.72-19.72.93-.98.03-2-.75-2.97-1.22-.24-.12-.35-.49-.54-.72-8.87-10.7-6.34-9.05-18.37-7.55-9.11,1.14-17.93.26-25.96-5.07-11.15-7.42-20.68-15.98-23.82-29.77-3.53-15.48,1.33-28.74,10.73-40.79C23.03.57,38.1-1.84,54.77,1.1c14.76,2.6,25.09,11.77,31.36,24.55,5.7,11.6,6.2,24.26.21,36.39-2.04,4.13-4.46,8.08-6.78,12.23ZM71.18,48.6c.18-9.55-1.99-15.66-7.52-21.66-4.65-5.05-10.66-7.77-17.38-7.09-16.97,1.71-27.16,13.85-26.15,30.87.44,7.45,3.31,14.44,9.66,18.49,8.4,5.36,17.82,5.46,26.67.83,8.94-4.68,15.84-11.17,14.72-21.43Z"/>
  </g>
</svg>