<?xml version="1.0" encoding="UTF-8"?>
<svg id="_레이어_2" data-name="레이어 2" xmlns="http://www.w3.org/2000/svg" viewBox="0 0 98.74 100">
  <defs>
    <style>
      .cls-1 {
        fill: #fff;
        stroke-width: 0px;
      }
    </style>
  </defs>
  <g id="_레이어_1-2" data-name="레이어 1">
    <path class="cls-1" d="M96.23,54.98c-.92,7.95-.42,14.85,2.34,21.54.43,1.03-.05,2.96-.82,3.88-5.12,6.11-10.47,12.02-15.66,18.07-1.53,1.78-2.8,2.04-4.83.62-1.39-.97-3.3-1.65-4.98-1.66-11.14-.09-22.25-1.58-33.45.11-4.72.71-9.73-.39-14.59-.81-3.76-.32-6.59-2.35-8.54-5.49C7.82,78.56,2.02,65.11.57,50.06c-.16-1.69-.39-3.38-.5-5.07-.37-5.99.65-11.1,5.4-15.77,8.03-7.89,15.19-16.64,22.77-24.99.77-.84,1.77-1.79,2.8-2.02,7.81-1.72,15.49-4.27,23.37.68,6.18,3.88,13.11,6.55,19.5,10.13,3.97,2.22,7.76,4.87,11.25,7.78,8.01,6.66,10.89,15.7,11.06,25.81.05,3.08,0,6.17,0,8.38ZM69.49,50.16c.48-.21.96-.42,1.44-.63-.74-4.88-.84-9.97-2.35-14.6-2.88-8.86-10.69-12.24-19.41-8.88-2.64,1.02-5.29,2.44-7.41,4.29-5.93,5.18-11.67,10.57-17.25,16.13-1.02,1.01-1.63,3.46-1.15,4.77,2.96,8.05,7.72,15.09,12.95,21.85,1.55,2.01,3.14,1.68,5.02.72,2-1.02,2.03-2.48,1.21-4.27-.44-.97-.73-2-1.16-2.97-3.34-7.61-2.51-14.69,2.62-21.26,1.11-1.43,2.12-2.93,3.26-4.34,2.8-3.47,5.83-4.14,9.44-1.5,3.42,2.5,6.43,5.54,9.66,8.31.99.85,2.08,1.6,3.12,2.39Z"/>
  </g>
</svg>