<?xml version="1.0" encoding="UTF-8"?>
<svg id="_레이어_2" data-name="레이어 2" xmlns="http://www.w3.org/2000/svg" viewBox="0 0 105.7 100">
  <defs>
    <style>
      .cls-1 {
        fill: #fff;
        stroke-width: 0px;
      }
    </style>
  </defs>
  <g id="_레이어_1-2" data-name="레이어 1">
    <path class="cls-1" d="M105.19,99.98c-8.08,0-16.16.08-24.24-.04-2.6-.04-5.13-.58-6.65-3.27-.34-.6-1.83-1.01-2.63-.83-12.45,2.81-25.02,4.12-37.74,2.88-6.65-.64-12.01-4.19-17.03-8.45C5.29,80.39-.27,67.86.01,52.71c.13-6.75-.05-13.58.94-20.22C2.72,20.55,9.87,12.06,19.72,5.42,25.59,1.45,31.72-.56,38.76.14c12.59,1.25,25.22,2.17,37.77,3.75,14.96,1.89,23.6,16.62,24.64,27.68.95,10.19,2.11,20.34-.2,30.39-1.34,5.82-3.51,11.47-5.63,17.07-1.57,4.14-1.12,7.71,1.87,10.86,2.14,2.25,4.52,4.27,6.74,6.45.67.66,1.17,1.49,1.75,2.24-.17.47-.34.93-.51,1.4ZM76.88,68.08c.51-1.56,1.04-2.41,1.03-3.25-.17-11.21-.28-22.42-.74-33.62-.15-3.62-1.87-4.85-5.59-4.88-10.79-.08-21.59,0-32.38-.02-3.11,0-5.55,1.22-7.67,3.49-2.7,2.9-4.09,6.32-4.06,10.17.06,8.3.28,16.61.62,24.9.32,7.74,4.32,12.16,11.92,13.57,3.07.57,7.79-1.53,9.5-4.25,1.87-2.98-.34-4.99-1.64-7.32-1.46-2.62-2.58-5.42-3.85-8.14.23-.4.47-.8.7-1.19,7.57,0,15.13-.04,22.7.06.83.01,1.88.64,2.43,1.31,2.31,2.83,4.46,5.78,7.03,9.17Z"/>
  </g>
</svg>