<?xml version="1.0" encoding="UTF-8"?>
<svg id="_레이어_2" data-name="레이어 2" xmlns="http://www.w3.org/2000/svg" viewBox="0 0 85.62 100">
  <defs>
    <style>
      .cls-1 {
        fill: #fff;
        stroke-width: 0px;
      }
    </style>
  </defs>
  <g id="_레이어_1-2" data-name="레이어 1">
    <path class="cls-1" d="M32.9,80.51c-3.86-12.42-.02-20.85,8.66-25.03,17.95-8.64,15.7-3.23,12.13-24.54-1.65-9.87-4.73-19.42-16.49-22.17-.09-.77-.19-1.53-.28-2.3,9.93-1.43,19.98-4.32,29.71-3.49,3.26.28,7.4,9.81,8.12,15.49.95,7.53-1.37,15.42-1.63,23.18-.09,2.6,1.07,6.17,2.95,7.76,12.54,10.63,14.22,32.98-4.09,39.55-.72.26-1.53.55-2.05,1.08-16.43,16.7-34.76,8.46-52.38,3.36-10.5-3.04-13.35-13.67-15.52-22.73C-2.76,50.72,1.23,31.58,10.66,13.5c1.07-2.06,1.62-4.52,3.08-6.22,2.25-2.62,5.07-4.73,7.89-7.28,3.3,4.6-5.86,9.94,3.99,11.67-2.58,4.28-5.11,8-7.17,11.96-8.67,16.73-9,34.62-5.1,52.33,1.24,5.61,6.6,11.22,11.52,14.91,10.02,7.5,20.4,4.71,27.05-5.95,4.81-7.72,7.13-15.86,4.62-25.41-7.87,6.99-15.23,13.52-23.65,21Z"/>
  </g>
</svg>