<?xml version="1.0" encoding="UTF-8"?>
<svg id="_레이어_2" data-name="레이어 2" xmlns="http://www.w3.org/2000/svg" viewBox="0 0 94.62 100">
  <defs>
    <style>
      .cls-1 {
        fill: #fff;
        stroke-width: 0px;
      }
    </style>
  </defs>
  <g id="_레이어_1-2" data-name="레이어 1">
    <path class="cls-1" d="M74.65,79.25c6.51,6.08,12.98,12.12,19.97,18.65-4.59.8-8.59,1.68-12.63,2.08-1.38.14-3.1-.66-4.28-1.54-2.18-1.63-4.07-3.63-6.07-5.48-2.44-2.27-4.63-2.22-7.73-.55-26.44,14.31-58.4-2.04-62.92-31.82C-1.49,44.24.23,28.86,11.34,15.93,22.96,2.4,37.77-2.96,55.35,1.59c17.43,4.51,26.55,16.81,29.94,33.83,3.07,15.38.29,29.57-10.65,43.83ZM63.05,67.52c8.07-9.03,9.46-26.24,3.43-38.45-5.56-11.25-17.37-16.27-29.34-12.25-13.24,4.45-18.66,14.98-20.38,27.75-1.74,12.88,2.87,27.88,14.99,34.41,7.07,3.81,14.46,4.54,22.54.97-6.33-5.51-12-10.44-17.7-15.4,8.45-8.44,6.24-8.7,15.89-3.2,3.47,1.98,6.9,4.02,10.58,6.17Z"/>
  </g>
</svg>