<?xml version="1.0" encoding="UTF-8"?>
<svg id="_레이어_2" data-name="레이어 2" xmlns="http://www.w3.org/2000/svg" viewBox="0 0 97.43 100">
  <defs>
    <style>
      .cls-1 {
        fill: #fff;
        stroke-width: 0px;
      }
    </style>
  </defs>
  <g id="_레이어_1-2" data-name="레이어 1">
    <g>
      <path class="cls-1" d="M97.43,99.99c-3.13,0-5.65,0-8.16,0-3.35,0-6.7-.07-10.04,0-1.27.03-2.17-.4-3.02-1.3-4.69-4.94-9.46-9.79-14.12-14.76-1.76-1.88-3.59-2.36-6.21-2-11.22,1.55-22.03.18-32.33-4.91-6.45-3.19-11.78-7.6-16.08-13.3C-3.88,48.72-1.51,27.87,9.3,14.96,15.03,8.12,21.73,2.83,30.48.78,34.02-.04,37.8.17,41.47,0c.33-.02,1,.63,1.01.98.07,3.85.05,7.71.05,11.22-2.98,1.01-5.67,1.94-8.38,2.82-4.5,1.46-7.89,4.46-10.93,7.92-7.51,8.57-9.18,21.3-3.9,30.96,2.75,5.04,7.09,8.47,12.33,10.69,7.04,2.97,14.26,4.47,21.92,2.56,6.38-1.59,10.86-5.64,14.56-10.77,3.94-5.47,5.2-11.72,5.19-18.34,0-5.89.07-11.77.12-17.66,0-.62.06-1.24.09-2.01h17.07c0,.92,0,1.77,0,2.61-.04,7.33.01,14.66-.16,21.99-.24,10.72-4.23,19.85-12.05,27.24-.42.4-.85.78-1.28,1.17-2.42,2.23-2.35,3.72,0,6.16,5.41,5.61,10.77,11.25,16.08,16.95,1.46,1.56,2.63,3.39,4.24,5.49Z"/>
      <path class="cls-1" d="M31.59,48.38c.43-1.01.66-1.64.96-2.25,1.4-2.91,2.79-5.82,4.22-8.71.36-.73.34-1.15-.36-1.72-2.95-2.38-5.83-4.85-8.97-7.48.71-.06,1.18-.13,1.65-.14,3.23-.04,6.46-.14,9.68-.06,1.43.03,2.25-.47,2.8-1.73.93-2.1,1.93-4.18,3.07-6.62.66,1.06,1.22,1.94,1.75,2.84.49.85.89,1.75,1.41,2.58.95,1.5,2.08,2.61,4.05,2.84,2.55.29,5.07.93,7.6,1.43,1.48.29,1.96,1.46.82,2.43-1.5,1.27-3.24,2.27-4.91,3.34-1.3.83-2.83,1.4-3.94,2.42-2.45,2.26-4.93,4.56-6.96,7.18-.98,1.27-2.55,1.84-3.23,3.31-.08.18-.47.32-.71.32-2.86.02-5.72.01-8.91.01Z"/>
      <path class="cls-1" d="M56.56,53.64c-.81,2.07-1.46,2.24-3.36.9,1.14-.3,2.13-.57,3.36-.9Z"/>
    </g>
  </g>
</svg>