<?xml version="1.0" encoding="UTF-8"?>
<svg id="_레이어_2" data-name="레이어 2" xmlns="http://www.w3.org/2000/svg" viewBox="0 0 85.09 100">
  <defs>
    <style>
      .cls-1 {
        fill: #fff;
        stroke-width: 0px;
      }
    </style>
  </defs>
  <g id="_레이어_1-2" data-name="레이어 1">
    <g>
      <path class="cls-1" d="M9.64,6.92c.04,1.47,1.97,2.17.49,4.51-4.13,6.52-6.13,14.05-8.21,21.45-.19.68,0,1.6.31,2.27.82,1.83,1.8,3.59,2.54,5.03,1.59-3.22,3.2-6.58,4.88-9.91,2.91-5.77,5.53-11.63,9.01-17.17C22.75,6.55,28.81,3.66,35.46,1.68c3.84-1.14,7.93-1.98,12.19-1.58,6.35.6,12.06,2.43,16.65,6.96,3.53,3.49,7.51,6.61,9.11,11.7.95,3.02,2.4,5.83,2.28,9.16-.17,5.08-.05,10.18-1.05,15.29-.11-1.17-.35-2.35-.32-3.52.15-4.79-1.37-9.19-3.03-13.56-.81-2.13-2.02-4.22-2.3-6.43-.63-4.96-3.14-8.07-7.57-10.3-3.81-1.92-7.57-3.28-11.86-3.96-13.05-2.06-26.64,5.68-33.12,17.34-4.11,7.41-7.06,15.3-6.86,24.09.17,7.22,2.91,13.55,6.43,19.55,5.58,9.53,14.64,14.51,24.69,18.02.59.21,1.26.68,1.76.54,2.77-.78,4.94,1.53,7.53,1.36,1.01-.07,2.01-.53,2.99-.88,2.14-.78,4.26-1.62,6.56-2.5-.46-2.38-.93-4.87-1.41-7.35,2.15,1.33,2.72,3.37,2.71,5.74,0,.97-.47,2.33,1.33,2.34-4.72,4.61-10.38,7.55-16.96,6.62-10.51-1.5-20.59-4.58-28.43-12.36-2.29-2.27-5.11-4.11-6.42-7.41-.21-.54-1.31-4.74-4.08-1.68-.63-.63-1.63-1.15-1.84-1.9-.78-2.81-.93-5.77-2.79-8.3-.42-.58.88-2.23.6-3.14C-.42,46.99-.25,38.18.43,29.52c.34-4.39.97-9.19,3.79-13.15,2.11-2.96,2.62-6.87,5.42-9.45ZM3.91,47.33h-.67v2.69h.67v-2.69Z"/>
      <path class="cls-1" d="M62.12,82.88c.78-.27,1.56-.54,2.34-.81,1.37-.47,3.19-.56,4.02-1.51,1.33-1.52,2.21-3.54,2.9-5.48.84-2.35,1.28-4.85,2.18-8.41.53,2.23.83,3.47,1.37,5.74,1.38-2.94,2.88-5,3.29-7.25.8-4.46,1.13-9.02,1.41-13.55.21-3.35.15-6.73,0-10.09-.12-2.99.7-6.06-1.22-8.93-.62-.93-.4-2.71-.05-3.96,2.46-8.7.81-17.58,1.31-26.37.01-.17.27-.33.69-.82.99.23,2.26.33,3.35.82,1.43.64,1.36,2.07,1.35,3.45-.03,11.44.06,22.88-.08,34.31-.03,2.29-1.72,4.85-1.08,6.77.93,2.81-.56,5.13-.28,7.71.32,2.88.53,5.91-.03,8.72-.94,4.67-2.87,9.1-4.51,13.59-.78,2.14-2.45,3.94-2.43,6.43,0,.19-1.1.38-2.08.7-.24-2.06-.45-3.88-.67-5.73-3.22.09-2.11,3.18-3.69,4.11,1,6.85-3.51,10.41-8.52,13.09-4.8,2.57-9.76,5-15.65,4.52-4.85-.39-9.76-.08-14.76-.08v-2.73c3.23.27,6.47-.7,9.41,1.39,8.86.22,17.18-1.1,23.55-8.15,1.04-1.15,2.25-2.14,3.41-3.23-1.89-1.32-2.68-4.04-5.57-4.26ZM66.99,82.45c.33.83.72,1.79,1.28,3.2,1-2.69.75-3.72-1.28-3.2Z"/>
      <path class="cls-1" d="M75.36,65.94c-2.7-7.53-2.74-14.16-2.23-21.28,1.33.52,2.41,1.33,2.44,2.47.15,4.66.08,9.33.05,13.99,0,1.25-.13,2.5-.27,4.82Z"/>
      <path class="cls-1" d="M55.01,63.07c-1.57-2.55-2.54-4.11-3.48-5.64,3.33-.42,3.67,0,3.48,5.64Z"/>
      <path class="cls-1" d="M20.75,3.39c.45-2.01,1.03-3.82,4.15-2.69-1.69,1.1-2.92,1.9-4.15,2.69Z"/>
      <path class="cls-1" d="M42.51,67.7c2.18-.59,2.53.36,1.48,3.19-.64-1.38-1.07-2.3-1.48-3.19Z"/>
      <path class="cls-1" d="M57.05,75.63c-.06-1.31-.12-2.62-.19-3.93.3-.03.6-.05.9-.08.17,1.32.35,2.65.52,3.97-.41.01-.82.03-1.23.04Z"/>
      <path class="cls-1" d="M17.22,3.33c1.43-.21,2.31-.33,3.19-.46-.52.45-1,.97-1.58,1.3-.18.1-.66-.33-1.61-.84Z"/>
      <path class="cls-1" d="M10.71,74.32c.1.73.27,1.33.23,1.92-.01.19-.55.34-.84.51-.15-.59-.37-1.17-.41-1.76-.01-.16.53-.36,1.03-.66Z"/>
      <path class="cls-1" d="M10.42,5.68c.16.16.44.38.42.43-.16.29-.39.55-.6.81l-.6-.6c.26-.21.52-.43.78-.64Z"/>
      <path class="cls-1" d="M43.79,48.48c-.18-.18-.33-.33-.48-.48.3-.15.59-.35.9-.42.11-.02.29.27.44.42-.29.16-.59.32-.87.48Z"/>
      <path class="cls-1" d="M8.48,72.05c.18-.18.33-.33.48-.48.15.3.35.59.42.9.02.11-.27.29-.42.44-.16-.29-.32-.59-.48-.87Z"/>
    </g>
  </g>
</svg>