<?xml version="1.0" encoding="UTF-8"?>
<svg id="_레이어_2" data-name="레이어 2" xmlns="http://www.w3.org/2000/svg" viewBox="0 0 98.22 100">
  <defs>
    <style>
      .cls-1 {
        fill: #fff;
        stroke-width: 0px;
      }
    </style>
  </defs>
  <g id="_레이어_1-2" data-name="레이어 1">
    <g>
      <path class="cls-1" d="M25.53,65.03c1.6,1.4,3.34,2.67,4.77,4.23,1.98,2.16,4.33,3.62,7.59,4.76-.63,1.85-1.25,3.71-1.85,5.47h-3.54c-.09,0,.09,0,.27,0-.11-.31-.17-.66-.36-.91-.06-.07-.48.13-.73.2.19.24.37.48.83.71.74,1.9,2.02,2.6,3.89,2.41,1.31,3.77,5.66,2.57,7.9,4.82,3.48-.43,7.03.79,10.52-.8,1.5-.68,3.45-.36,5.25-.5.31.87.4,1.69.84,2.24,1.38,1.73,1.16,3.21-.48,4.56-1.61,1.32-2.56,2.77-2.42,5.07.1,1.67-1.16,2.86-3.09,2.68-5.05-.49-10.09.61-15.24-.98-3.16-.97-6.59-1.46-9.89-2.26-3.35-.81-5.96-2.61-8.49-4.27-6.65-4.34-11.38-10.62-15.03-17.67-2.71-5.24-5.15-10.57-4.82-16.68-1.95-3.48-1.45-7.33-1.07-10.94.34-3.19.7-6.49,1.49-9.6,1.48-5.77,4.01-11.25,6.95-16.37,1.74-3.02,4.97-5.17,7.44-7.8,3.6-3.82,7.43-7.21,12.56-9,4.29-1.5,8.35-3.5,13.1-3.36,2.03.06,4.1-1.15,6.12-1.06,9.39.43,18.18,3.13,26.08,8.23,3.19,2.06,6.62,3.84,9.3,6.73,6.15,6.64,9.72,14.75,13.1,22.91,1.41,3.4,2.32,19.07,1.24,22.3-1.42,4.27-1.42,8.95-3.74,12.9-2.21,3.75-4.45,7.45-7.09,10.97-2.51,3.35-5.42,6.2-8.25,9.19-.37.39-.94.58-1.92,1.17-.79-4.48-2.56-8.29-4.04-12.21-.31-.81-1.85-3.86,1.65-4.02.24-.01.29-1.77.62-2.64,1.57-4.17,3.39-8.26,4.73-12.5.85-2.7.37-5.95,1.63-8.36,1.63-3.1-.11-5.49-.23-8.21-.24-5.68-2.67-10.49-4.58-15.62-2.07-5.56-6.43-8.56-10.82-11.55-4.21-2.87-9.26-4.24-14.24-4.73-3.3-.33-6.77.86-10.13,1.55-1.81.37-3.61.97-5.32,1.69-6.93,2.9-11.57,8.28-15.29,14.54-3.16,5.3-5.15,11.14-4.72,17.27.5,7.14,2.05,14.16,5.91,20.41.3.48.56,1.05.99,1.39,2.35,1.84,4.74,3.61,7.76,5.89-1.21-4.02-3.21-6.92-4.68-10.05-.31-.66-.31-1.48-.45-2.22Z"/>
      <path class="cls-1" d="M67.99,73.47c-.66,0-1.14.15-1.44-.02-4.12-2.44-8.21-4.92-12.01-7.89,5.23,1.25,10.09,3.11,13.44,7.91Z"/>
      <path class="cls-1" d="M39.24,81.5c-1.28.18-2.07.3-2.85.41.46-.4.89-.87,1.42-1.17.16-.09.59.29,1.44.76Z"/>
      <path class="cls-1" d="M68.83,74.17c-.14.14-.34.4-.38.37-.26-.14-.49-.35-.73-.53.18-.18.36-.36.54-.54.19.23.38.47.57.7Z"/>
      <path class="cls-1" d="M24.99,65.03c-.19-.24-.37-.48-.56-.71.25-.07.67-.27.73-.2.19.25.25.6.36.91-.18,0-.36,0-.54,0Z"/>
    </g>
  </g>
</svg>