<?xml version="1.0" encoding="UTF-8"?>
<svg id="_레이어_2" data-name="레이어 2" xmlns="http://www.w3.org/2000/svg" viewBox="0 0 94.14 100">
  <defs>
    <style>
      .cls-1 {
        fill: #fff;
        stroke-width: 0px;
      }
    </style>
  </defs>
  <g id="_레이어_1-2" data-name="레이어 1">
    <g>
      <path class="cls-1" d="M94.14,85.73c-2.72,3.58-6.23,5.34-9.28,5.52-2.82.16-5.94-2.15-8.66-3.81-3.53-2.16-6.8-4.75-10.42-7.32-3.77,2.19-7.39,4.54-11.21,6.48-5.87,2.98-12.03,5.1-18.75,4.97-3.87-.08-7.85.23-11.59-.54-4.58-.94-8.45-3.96-11.43-7.33-4.42-5.02-7.76-10.83-9.81-17.4C.77,59.14-.82,51.83.45,44.55c1.88-10.7,4.94-21.08,12.87-29.34C20.58,7.65,29.14,3.1,39.45,1.11c10.49-2.02,16.54-1.29,26.45,2.14,4.77,1.65,9.07,4.08,12.13,7.3,5.63,5.93,11.25,12.11,12.82,20.99,1.1,6.26,2.06,12.18-.13,18.33-.71,2.01.9,4.63-1.45,6.34.98,5.04-2.92,8.09-5.03,11.78-2.19,3.83-2.51,5.31.52,8.59,2.81,3.04,5.92,5.8,9.38,9.15ZM59.48,56.67c4.89.4,5.8,4.82,9.48,5.86.53-.97.99-2.12,1.71-3.08,4.75-6.3,7.95-19.44,4.7-27.44-2.57-6.33-6.42-11.39-12.48-14.88-4.82-2.78-9.78-3.53-15.25-3.54-5.34,0-10.14,1.11-14.17,4.38-4.17,3.38-8.49,6.73-11,11.78-4.37,8.79-5.12,10.93-4.11,20.73.02.23,0,.46,0,.69-.2,5.85,1.93,11.13,4.38,16.22,3.85,7.98,11.48,10.08,19.3,11.61.92.18,2.01-.67,3.04-.92,3.81-.91,6.27-3.9,9.33-5.96,3.75-2.52,7.53-4.99,11.04-7.31-1.95-2.66-3.69-5.02-5.98-8.14Z"/>
      <path class="cls-1" d="M65.16,92.38c.91,2.82,1.55,4.83,2.45,7.62-4.58-.33-8.59.96-11.94-2.89,1.89-3.71,5.94-2.9,9.49-4.73Z"/>
    </g>
  </g>
</svg>