<?xml version="1.0" encoding="UTF-8"?>
<svg id="_레이어_2" data-name="레이어 2" xmlns="http://www.w3.org/2000/svg" viewBox="0 0 52.89 100">
  <defs>
    <style>
      .cls-1 {
        fill: #fff;
        stroke-width: 0px;
      }
    </style>
  </defs>
  <g id="_레이어_1-2" data-name="레이어 1">
    <path class="cls-1" d="M22.5,56.09h-8.51c-1.23-1.43-2.7-3.51-4.53-5.2-4.04-3.75-7.29-7.84-8.38-13.47-1.31-6.77-1.95-13.42,1.11-19.92,2.46-5.22,5.84-9.71,10.15-13.56C17.07-.28,23.48-1.08,29.62,1.4c3.86,1.56,7.28,4.24,12,3.9,2.67-.19,7.06,4.29,7.55,7.43.7,4.49,2.42,8.62,3.52,12.94.2.79.33,1.84-.02,2.5-2.43,4.63-3.05,9.85-5.74,14.58-3.09,5.43-8.86,6.98-12.34,11.42-.42.54-2.12.07-3.9.07v29.48c0,3.38.04,6.76,0,10.15-.08,5.3-.69,5.87-6.34,6.12-.52.02-1.05-.18-1.85-.33v-43.58ZM23.3,2.28c-5.92,1.96-10.29,5-13.06,10.38-1.61,3.12-3.46,6.16-3.16,9.61.34,3.91.79,8.16,2.55,11.55,4.68,8.98,8.06,10.38,18.26,10.32,6.85-.04,14.55-7.04,14.64-14.49.06-5.06.01-10.13.01-14.81-4.83-7-12.39-9.43-19.25-12.57Z"/>
  </g>
</svg>