<?xml version="1.0" encoding="UTF-8"?>
<svg id="_레이어_2" data-name="레이어 2" xmlns="http://www.w3.org/2000/svg" viewBox="0 0 86.9 100">
  <defs>
    <style>
      .cls-1 {
        fill: #fff;
        stroke-width: 0px;
      }
    </style>
  </defs>
  <g id="_레이어_1-2" data-name="레이어 1">
    <path class="cls-1" d="M59.75,100c-1.66-2.95-2.25-4.28-3.1-5.42-.79-1.06-1.85-1.91-3.39-3.45,2-1.33,3.68-2.05,4.83-3.27,4.31-4.56,8.76-9.04,12.48-14.05,1.53-2.05,1.11-5.32-2.1-7.74-.94.94-2.44,1.79-2.94,3.04-2.64,6.63-9.14,8.53-14.33,12-1.48.99-3.43,1.26-4.96,2.2-2.45,1.5-3.24,3.49.34,6.27-5.02,0-8.9.1-12.77-.06-1.24-.05-2.49-.73-3.66-1.28-3.29-1.54-6.43-3.51-9.85-4.68-9.64-3.28-13.01-11.62-16.61-19.84-.73-1.66-1.67-3.47-1.62-5.18.19-6.6-3.18-12.89-1.73-19.51,1.62-7.39,2.52-15.42,7.33-21.29,4.74-5.78,9.55-12.19,17.45-14.46,3.51-1.01,6.99-2.54,10.57-2.85,5.57-.48,11.28-.65,16.82,0,7.1.84,13.49,4.21,19.24,8.28,7.77,5.5,11.83,13.91,14.09,22.7,1.42,5.52,1.33,11.91.11,17.51-1.36,6.24-2.41,12.88-6.45,18.34-2.21,2.98-4.08,6.2-6.29,9.17-3.68,4.96-7.72,9.67-11.18,14.77-1.24,1.83-1.24,4.5-2.29,8.8ZM8.65,44.94c.66,4.81-.39,9.59,1.55,14.53,2.02,5.12,3.8,10.16,6.84,14.86,2.93,4.51,6.5,6.87,11.8,6.86,1.61,0,3.52-.17,4.77.6,2.16,1.32,3.8.29,5.83.14,4.64-.36,7.8-3.08,11.46-5.05,4.98-2.69,10.05-5.5,13.4-10.15,3.19-4.44,5.77-9.34,8.39-14.16,1.1-2.03,1.64-4.36,2.38-6.58.83-2.46,1.79-4.91,2.34-7.43,1.13-5.24.02-10.11-3.45-14.22-1.98-2.35-4.12-4.66-6.54-6.52-6.8-5.23-13.64-10.57-23.14-9.11-1.64.25-3.36.12-5.04.02-10.7-.61-25.32,8.43-29.06,21.72-1.4,4.97-.86,9.7-1.52,14.51Z"/>
  </g>
</svg>