<?xml version="1.0" encoding="UTF-8"?>
<svg id="_레이어_2" data-name="레이어 2" xmlns="http://www.w3.org/2000/svg" viewBox="0 0 94.33 100">
  <defs>
    <style>
      .cls-1 {
        fill: #fff;
        stroke-width: 0px;
      }
    </style>
  </defs>
  <g id="_레이어_1-2" data-name="레이어 1">
    <path class="cls-1" d="M69.89,75.39c2.73,2.49,4.65,4.43,6.76,6.1,1.13.89,2.61,1.33,3.5,1.76,4.75-1.83,9.18-3.54,13.64-5.27,1.84,7.72-1.52,13.77-5.06,19.73-1.25,2.1-4.55,2.51-7.5,2.2-6.27-.64-9.91-5.72-14.99-8.31-.77-.39-1.23-1.35-1.96-1.87-1.74-1.24-3.45-2.6-5.36-3.51-2.76-1.31-3.58,2.08-5.64,2.75-1.78.57-3.37,1.73-5.02,2.67-5.36,3.04-10.86,3.59-16.73,1.4-6.67-2.48-13.25-5.15-18.08-10.58-2.56-2.88-4.39-6.4-6.84-9.39-2.94-3.59-2.74-8.41-5.14-12.23-.72-1.14-.03-3.12-.13-4.7-.1-1.49.58-3.13-.9-4.42-.39-.34-.52-1.24-.42-1.83,1.18-6.74,1.49-13.75,4.19-20.07,2-4.68,4.44-9.37,8.38-12.88,2.36-2.1,2.93-5.96,6.64-6.69C27.24,3.31,36.69.6,47.1.06c10.8-.56,20.43,2.89,29.26,8.38,7.63,4.74,12.5,11.89,13.72,21.06.21,1.55,1.16,3.1,1.19,4.21.1,3.64-.12,7.57-1.44,10.9-2.4,6.06-5.48,11.86-8.97,17.43-2.9,4.63-5.71,9.29-10.98,13.35ZM19.25,48.37c.68,2.44-.48,5.86.68,9.55,1.85,5.91,5.19,10.32,9.32,14.64,3.07,3.21,6.97,4.24,10.81,5.3,3.63,1,7.27-.5,9.25-3.62,2.29-3.62,5.43-6,8.64-8.63,6.55-5.36,11.79-12.03,16.42-19.09,2.22-3.39,3.93-7.04,3.6-11.52-.27-3.62-2.35-5.91-4.2-8.55-3.3-4.71-6.54-9.43-13.02-9.95-2.93-2.57-6.79-.14-9.6-1.51-3.63-1.77-6.78-.12-9.7.66-4.19,1.12-8.62,2.51-11.81,6.03-6.61,7.3-11.45,15.3-10.39,26.69Z"/>
  </g>
</svg>