<?xml version="1.0" encoding="UTF-8"?>
<svg id="_레이어_2" data-name="레이어 2" xmlns="http://www.w3.org/2000/svg" viewBox="0 0 109.82 100">
  <defs>
    <style>
      .cls-1 {
        fill: #fff;
        stroke-width: 0px;
      }
    </style>
  </defs>
  <g id="_레이어_1-2" data-name="레이어 1">
    <path class="cls-1" d="M108.14,97.68c-15.21.89-29.09,2.51-42.94,2.3-16.87-.26-34.23-.71-47.31-14.02C-8.08,59.52-5.16,26.34,22.65,9.36c7.34-4.48,16.59-6.26,25.22-8.09,23.94-5.07,45.06,5.28,52.78,25.7,1.16,3.08.71,7.34-.39,10.59-3.25,9.58-7.19,18.93-11.47,29.93h21.03c-.62,11.25-1.16,20.87-1.67,30.18ZM59.47,55.66c1.78-4.92,1.35-10.8.89-16.19-.06-.72-6.46-2.32-8.71-1.16-6.99,3.6-7.99,12.15-2.21,24.68,3.92-2.69,8.94-4.3,10.03-7.32Z"/>
  </g>
</svg>