<?xml version="1.0" encoding="UTF-8"?>
<svg id="_레이어_2" data-name="레이어 2" xmlns="http://www.w3.org/2000/svg" viewBox="0 0 148.92 100">
  <defs>
    <style>
      .cls-1 {
        fill: #fff;
        stroke-width: 0px;
      }
    </style>
  </defs>
  <g id="_레이어_1-2" data-name="레이어 1">
    <path class="cls-1" d="M120.29,95.01c1.88-.23,3.76-.49,5.64-.65.36-.03.97.19,1.08.46.12.29-.08,1-.34,1.13-.89.46-1.86,1.02-2.82,1.05-7.23.22-14.31,1.59-21.45,2.53-5.38.71-10.96.54-16.39.02-8.49-.81-17.07-1.61-25.36-3.53-14.39-3.34-28.35-8.13-40.69-16.63-8.89-6.13-15.56-13.97-18.42-24.64-3.79-14.16-.67-26.54,9.58-37.05C20.09,8.52,30.92,2.51,43.6,1.04c15.57-1.8,30.46.78,42.84,11.36,9.87,8.44,15.03,19.42,14.21,32.45-.84,13.32-6.97,24.25-17.48,32.56-2.87,2.27-6.04,4.15-9.32,6.37,1.49.76,2.77,1.88,4.51.26,1.4-1.3,3.06-1.08,4.53-.2,5.63,3.34,12.08,3.46,18.2,4.93,6.79,1.63,12.14-.92,16.36-5.47,6.04-6.52,10.99-13.94,13.09-22.8.91-3.85,1.7-7.8,1.88-11.74.38-8.26.35-16.53-1.83-24.62-1.62-6.02-5.42-10.47-10.42-13.86-3.37-2.28-7.43-2.61-11.42-2.94-2.71-.22-2.96-.59-3.05-3.28-.12-3.51.46-4.17,4.06-4.04,4.72.17,9.48.2,14.16.79,6.13.77,10.94,4.2,14.96,8.74,5.07,5.72,7.35,12.8,8.73,20.05,2.36,12.39,1.73,24.67-3.31,36.46-3.92,9.16-10.02,16.66-17.72,22.91-2.16,1.75-4.36,3.44-6.55,5.16.09.3.18.59.27.89ZM83.72,47.43c.31-11.53-1.51-17.63-6.98-24.85-6.35-8.37-14.75-12.9-25.28-13.43-6.48-.32-12.07,2.17-17.51,5.31-13.15,7.61-20.56,26.02-16.34,40.71,2.71,9.42,8.22,16.66,18.37,19.06,1.39.33,3.28,1.99,4.36.14.44-.75-.93-2.55-1.47-3.88-.93-2.31-2.08-4.56-2.71-6.94-.68-2.57.54-4.05,3.28-4.74,2.67-.67,2.33,1.61,2.74,2.95,2.1,6.95,10.65,13.9,17.97,14.42,8.13.58,13.7-3.67,18.11-9.88,4.37-6.16,5.65-13.19,5.46-18.9Z"/>
  </g>
</svg>