<?xml version="1.0" encoding="UTF-8"?>
<svg id="_레이어_2" data-name="레이어 2" xmlns="http://www.w3.org/2000/svg" viewBox="0 0 123.23 100">
  <defs>
    <style>
      .cls-1 {
        fill: #fff;
        stroke-width: 0px;
      }
    </style>
  </defs>
  <g id="_레이어_1-2" data-name="레이어 1">
    <g>
      <path class="cls-1" d="M27.11,82.7c-.89-1.28-2.45-2.52-2.55-3.86-.24-3.25-2.2-4.09-4.41-4.3-1.48-3.3-2.8-6.22-4.12-9.15.33-.2.67-.4,1-.6.8.75,1.6,1.49,2.4,2.24.3-.09.59-.18.89-.28-.39-1.15-.56-2.45-1.21-3.41-2.6-3.83-5.35-7.56-8.04-11.32.26-.28.51-.55.77-.83-1.46-.07-2.92-.15-4.5-.23-.23.97-.42,1.77-.67,2.8-1.34-.55-2.9-.73-3.76-1.61-3.45-3.52-3.46-3.95-1.94-8.62.55.89.97,1.58,1.39,2.26.28,0,.55.02.83.03.64-6.35-.34-13.02,2.68-18.94,2.79.43,3.27,5.38,7.1,2.22-.65,2.29-3.15,3.22-1.01,5.78,1.06,1.26-.19,4.24.24,6.3,1.21,5.82,2.76,11.58,4.18,17.36.41-.06.82-.12,1.24-.17,0-5.54.2-11.09-.06-16.62-.2-4.25-.45-8.31,2.2-12.07.74-1.05.56-2.75.92-4.79-1.41.72-2.12,1.08-3.26,1.66.26-4.76-2.99-6.58-6.61-8.1.15-.23.3-.47.45-.7,1.82.91,3.65,1.82,5.47,2.72.26-.14.52-.27.78-.41-.96-2.85-1.91-5.71-2.87-8.56.29-.14.58-.29.87-.43.43.46.86.93,1.39,1.5.61-.83,1.21-1.63,2-2.71.74,1.15,1.32,2.06,1.9,2.98.29-.02.57-.03.86-.05v-4.44c1.42,1.05,2.68,1.98,4.19,3.09,1.07-1.13,2.39-2.24,3.36-3.6,3.38-4.78,8.46-5.98,13.75-6.73,2.98-.43,5.98-.84,8.98-1.04,8.82-.58,17.46,1.5,23.5,7.57,7.45,7.49,13.13,16.5,8.04,28.25-2.16,4.98-3.37,10.37-4.99,15.58-.24.76-.32,1.58-.51,2.6,5.91-.11,6.41-5.28,9-8.35,3-3.56,3.61-7.64,3.38-12.6.67.79,1.06,1.09,1.23,1.48.68,1.63-1.22,3.83,1.65,5.18,1.16.55-2.22,5.29-4.19,5.55-2.89,5.19-5.74,10.3-8.59,15.41-.31.55-.86,1.06-.94,1.64-.53,3.82-2.91,5.86-6.35,7.06-.52.18-.81,1-1.2,1.52.26.2.52.4.78.6-1.7,1.18-3.4,2.37-5.1,3.55.14.28.28.55.43.83,1.25-.56,2.51-1.11,3.76-1.67.17.23.33.46.5.7-2.74,2.14-5.49,4.28-8.23,6.43,0,.2,0,.41,0,.61,1.88-.36,3.85-.48,5.61-1.16,1.74-.67,3.51-1.65,4.84-2.93,3.65-3.51,6.99-7.34,10.62-10.88,3.13-3.06,2.45-7.55,4.47-10.99.24-.4.49-.8.74-1.19l-.07-.06c.6,2.51,1.2,5.02,1.85,7.71,3.63-1.08,7.22-2.14,11.48-3.4-1.44-.56-2.58-1.01-3.83-1.5,3.98-.46,7.87-.91,11.75-1.36.09.18.17.36.26.55-1.28.61-2.56,1.22-3.84,1.83-.04.18-.09.37-.13.55h4.54c.04.31.09.61.13.92-2.89.06-4.46,5.02-8.51,1.53-.77-.66-3.14.54-4.78.89.07.35.14.7.22,1.04,1.11.14,2.22.28,3.33.41.02.23.04.46.06.68-1.46.07-2.95.34-4.38.15-1.78-.24-3.48-1.06-5.26-1.23-1.07-.1-2.2.58-3.31.91.68.85,1.34,1.72,2.04,2.56.18.21.45.34.89.66-1.39.1-2.53.19-3.67.27-.09.34-.17.69-.26,1.03,2.19.61,4.38,1.21,6.57,1.82-3.09.48-4.96,2-5.28,5.28v-3.35c-4.82-1.11-6.55-.17-5.81,3.15-.77.25-1.55.5-2.32.74.83,2.84,3.5,3.8,8.65,3.61-.75.81-1.34,1.96-2.27,2.38-5.55,2.5-11.17,4.84-16.75,7.22.04,4.45,4.05,3.15,6.32,4.92-2.99-.16-5.63-.55-8.22-.34-1.4.11-2.7,1.3-4.08,1.92-.92.42-1.89.9-2.87,1-1.91.2-3.8.09-4.82,2.3-.18.39-1.51.24-2.31.34.5-1.22-3.07-.64-1.15-2.59.13-.13-.47-1.44-.97-1.67-3.55-1.6-8.69.31-10.4,3.96-6.22-3.5-10.62-8.82-14.92-14.25,1.54,1.06,3.07,2.12,5.03,3.47-.78-6.42-3.73-9.97-7.75-9.7.55,1.21,1.06,2.35,1.58,3.48ZM20.95,21.76c.47.04.95.07,1.42.11.55-2.86,1.1-5.72,1.8-9.35-2.06.83-3.24,1.31-4.33,1.75.42,2.79.77,5.14,1.12,7.49ZM48.52,81.19c-.05.34-.1.69-.15,1.03,1.77,2.01,4.04.55,6.03,1.08.06-.39.11-.78.17-1.16-2.01-.32-4.03-.63-6.04-.95Z"/>
      <path class="cls-1" d="M87.24,19.73c.36-1.47.65-2.65.98-4,1.05-.4,2.4-.91,3.73-1.42,1.11.94,2.49,1.75,3.39,2.94,2.07,2.73,2.79,1.11,3.86-1.91.76,2.2,1.12,3.66,1.77,4.97.41.82,1.27,1.42,1.92,2.12.27-.92.6-1.84.78-2.78.2-1.01.26-2.04.37-3.06.3.02.6.05.89.07.83,1.8,1.21,4.38,2.61,5.19,1.32.76,3.71-.33,6.32-.71-1.31,2.36-2.43,4.39-3.56,6.41.47.29.94.59,1.42.88.53-.85,1.06-1.71,1.69-2.72,1.21.88,2.52,1.82,4.17,3.01-.57.89-1.22,1.9-1.9,2.97-3.66-4.36-6.39-.41-9.5,1.17-.31-1.52-.48-2.65-.77-3.74-1.14-4.25-1.41-4.12-5.13-2.31-2.77,1.34-5.98,1.78-9,2.63-1.73-3.35-.04-7.81-4.05-9.71Z"/>
      <path class="cls-1" d="M119.58,39.9c1.07,1.21,2.14,2.42,3.65,4.13-3.25-.79-6.04-1.47-8.92-2.18-.11-1.12-.22-2.26-.36-3.71-1.51.33-2.82.62-4.21.93-.15-1.12-.31-2.32-.61-4.49,2.07,0,4.11.01,6.15-.03,1.17-.02,2.42-.41,3.5-.14,1.53.39,2.94,1.25,4.41,1.91-.55,1.16-1.1,2.32-1.66,3.47.11-.9.22-1.8.41-3.43-2.55.97-4.52,1.71-6.49,2.46.07.36.14.71.2,1.07h3.92Z"/>
      <path class="cls-1" d="M90.32,54.86c-.45-3.22,1.71-2.29,3.15-2.04.59-.95,1.08-1.73,1.56-2.51.85.77,1.69,1.55,2.89,2.65.32-.7.66-1.43,1.05-2.28,2.09,2.49-.13,4.48-.41,6.65-1.98.11-3.65.2-4.84.27-1.3-1.04-2.38-1.92-3.47-2.8,0,0,.07.06.07.06Z"/>
      <path class="cls-1" d="M117.57,44.69c.51,1.38,1.25,3.38,1.99,5.37l-1,.57c-.6-1.41-1.2-2.82-1.79-4.23-.27.03-.55.06-.82.1-.14.84-.28,1.68-.49,2.9h-9.94c-.03-.08-.06-.16-.09-.25,2.21-.38,4.41-.76,7.37-1.28-1.15-.98-1.89-1.62-2.87-2.46,2.45-.24,4.69-.45,7.64-.73Z"/>
      <path class="cls-1" d="M99.49,34.68c4.43-.67-.23-2.42.75-3.9.49-.54,1.34-1.47,2.33-2.55.58,2.13,1.24,4.58,1.95,7.24-1.51.74-3.48,2.25-5.27-.58l.24-.2Z"/>
      <path class="cls-1" d="M99.25,34.88c-1.9.65-3.81,1.3-5.6,1.91q-.54-3.68,4.44-5.92c.47,1.29.94,2.55,1.4,3.81l-.24.2Z"/>
      <path class="cls-1" d="M99.13,41.47c.92,1.56,2.22,2.8,1.97,3.52-.51,1.49-1.81,2.73-2.89,3.98-.13.15-.99-.14-1.32-.44-.2-.18-.12-1.1,0-1.13,2.99-.83,1.23-3.38,2.25-5.93Z"/>
    </g>
  </g>
</svg>