<?xml version="1.0" encoding="UTF-8"?>
<svg id="_레이어_2" data-name="레이어 2" xmlns="http://www.w3.org/2000/svg" viewBox="0 0 60.36 100">
  <defs>
    <style>
      .cls-1 {
        fill: #fff;
        stroke-width: 0px;
      }
    </style>
  </defs>
  <g id="_레이어_1-2" data-name="레이어 1">
    <path class="cls-1" d="M50.29,100c-.84-4.8-1.45-8.23-2.13-12.09-.99.91-2.4,1.61-2.42,2.34-.03,1.72,1.3,3.8-.88,4.86-3.11,1.51-6.33,3.19-9.67,3.76-9.88,1.68-16.76-4.09-22.43-10.86C4.48,78.12-.56,66.8.05,53.42c.36-7.78-.33-15.6,2.31-23.16C7.24,16.25,15.79,5.87,30.18.77c6.48-2.3,16.48.7,19.53,7.18,3.35,7.14,6.97,14.28,9.19,21.8,1.59,5.4,1.54,11.44,1.4,17.17-.2,8.36-.88,16.73-1.82,25.05-.92,8.21-1.89,16.47-5.42,24.11-.49,1.06-1.36,1.95-2.77,3.92ZM53.17,42.96c-.33-2.53-.54-6.64-1.44-10.58-1.24-5.41-2.73-10.81-4.63-16.02-1.68-4.63-9.01-9.48-12.72-8.28-8.02,2.6-15.3,6.45-19.93,14.09-5.04,8.32-7.05,17.58-7.42,26.97-.49,12.38,2.24,24.02,10.4,34.13,8.54,10.59,22.73,11.11,28.85-2.45,5.27-11.68,5.93-23.93,6.88-37.85Z"/>
  </g>
</svg>