<?xml version="1.0" encoding="UTF-8"?>
<svg id="_레이어_2" data-name="레이어 2" xmlns="http://www.w3.org/2000/svg" viewBox="0 0 80.73 100">
  <defs>
    <style>
      .cls-1 {
        fill: #fff;
        stroke-width: 0px;
      }
    </style>
  </defs>
  <g id="_레이어_1-2" data-name="레이어 1">
    <path class="cls-1" d="M64.31,41.56c3.43,1.67.98,2.53-.37,3.48.81.58,1.51,1.07,2.67,1.89-1.68.91-2.94,1.59-4.78,2.59h5.43c.08.22.17.45.25.67-1.22.58-2.43,1.17-3.65,1.75-.06.24-.12.48-.18.72,1.27.27,2.55.54,3.44.73,2.35,7.89,1.66,15.98-.2,23.68-.91,1.24-2.06,2.38-2.69,3.75-1.43,3.12-2.61,6.37-3.89,9.56.18.33.36.65.54.98,3.48-.74,6.97-1.48,10.81-2.3.78.51,2.13,1.4,3.77,2.48,1.65-7.3,3.39,1,5.27-.78v-6.08c-.32-.15-.49-.3-.67-.31-5.27-.34-5.32-.33-5.29-5.49.03-4.22.26-8.44.29-12.67.02-2.48.47-4.37,4.01-3.7,0-1.49-.05-2.7,0-3.9.27-5.13,1-10.28.74-15.39-.2-3.99-1.55-7.93-2.51-11.87-.46-1.88-1.12-3.72-1.8-5.54-4.32-11.59-11.4-20.8-23.77-24.1C42.13-.82,32.13.07,22.24.53c-4.74.22-9.52-.28-14.21-.45-.69.79-2.13,1.86-2.79,3.29C3.48,7.17,1.03,11.03.71,15.01-.08,24.72-.75,34.62,1.84,44.17c2.55,9.39,5.71,18.62,8.83,27.84.62,1.84,2.26,3.34,2.88,5.17.49,1.18.76,2.55,1.53,3.51,1.52,1.86,3.35,3.48,5.02,5.23,4.69,4.92,9.44,9.81,15.68,12.79,5.15,2.46,10.1,1.28,14.4-2.45,3.88-3.37,6.69-7.2,7.57-12.32.1-.61.31-1.22.28-1.82-.44-8.16-.85-16.33-1.44-24.48-.1-1.35-1.05-2.64-1.64-3.95-.9-2.01-2.36-3.85-1.37-6.34.25-.62-.03-1.88-.53-2.3-2.07-1.73-1.63-4.09-1.03-5.9.81-2.45-.51-3.7-1.58-5.33-.7-1.07-1.64-2.29-1.65-3.46-.14-8.55-3.71-15.18-10.64-20.1-1.42-1.01-2.59-2.85-4.11-3.16-4-.8-8.09,2.53-8.84,6.61-.06.3,0,.8-.16.88-5.2,2.66-3.71,7.83-4.45,12.07-2.2,12.67-.06,24.76,5.63,36.2,4.14,8.33,11.35,13.37,19.49,17.28,1.11.53,2.18,1.13,3.28,1.68,1.66.84,3.72,1.6,2.9,3.98-.95,2.73-2.27,5.35-3.64,7.9-.14.26-1.92-.07-2.72-.52-9.61-5.46-17.56-12.47-23.56-22.04-3.52-5.6-6.11-11.33-7.9-17.54-3.23-11.17-4.48-22.57-3.36-34.18.25-2.55.52-5.11.9-7.64.51-3.32,2.43-5.64,5.51-6.88,2.56-1.03,4.38-3.37,8.14-2.01,2.81,1.02,6.57-.9,9.91-.93,3.78-.03,7.79-.07,11.27,1.13,2.77.95,5.39,3.4,7.19,5.83,2.34,3.17,3.78,7.01,5.68,10.52,1.08,1.99,2.82,3.78,3.35,5.89,1.25,5,1.96,10.13,2.82,15.22.03.2-.57.52-1.16,1.03Z"/>
  </g>
</svg>