<?xml version="1.0" encoding="UTF-8"?>
<svg id="_레이어_2" data-name="레이어 2" xmlns="http://www.w3.org/2000/svg" viewBox="0 0 108.21 100">
  <defs>
    <style>
      .cls-1 {
        fill: #fff;
        stroke-width: 0px;
      }
    </style>
  </defs>
  <g id="_레이어_1-2" data-name="레이어 1">
    <path class="cls-1" d="M7.9,10.4c-.8-.08-1.55-.19-2.31-.23-.78-.04-1.57,0-2.57,0V.97h31.77c.15,3.16.29,6.36.44,9.5-.18.14-.25.27-.34.27-4.47.4-6.54,2.04-7.09,6.72-.5,4.2-.63,8.5-.37,12.72.47,7.59,1.6,15.13,4.36,22.27,1.08,2.78,2.45,5.5,4.05,8.02,2.95,4.65,7.15,7.63,12.69,8.64,4.96.9,9.91,1,14.91.43,8.53-.97,17.76-9.16,19.5-19.15,1.5-8.63,1.52-17.29.75-25.96-.33-3.76-1.22-7.48-2.06-11.17-.31-1.36-1.25-2.57-1.87-3.86-.16-.34-.29-.74-.28-1.1.11-2.89.25-5.78.37-8.3,3.12.18,6.15.47,9.17.51,6.3.08,12.6.02,19.18.02v9.51c-.42.04-1.07.11-1.72.14-1.56.08-2.14.81-1.99,2.42.3,3.27.64,6.57.6,9.85-.11,7.77-.1,15.56-.77,23.29-.85,9.72-3.98,18.73-10.52,26.24-1.45,1.66-3.12,3.14-4.73,4.65-2.65,2.48-2.37,5.98.69,7.95,1.91,1.24,3.88,2.41,4.43,4.89.92,4.13-.78,7.61-4.74,9.24-5.68,2.35-11.16,1.25-16.37-1.46-3.74-1.94-6.68-4.88-9.03-8.37-.8-1.2-1.61-1.51-3.09-1.24-16.96,3.09-32.48.15-45.55-11.68-7.91-7.16-12.56-16.37-14.37-26.82C-.9,37.93-.33,26.86,4.5,16.32c.91-1.99,2.17-3.81,3.4-5.92Z"/>
  </g>
</svg>