<?xml version="1.0" encoding="UTF-8"?>
<svg id="_레이어_2" data-name="레이어 2" xmlns="http://www.w3.org/2000/svg" viewBox="0 0 85.89 94.51">
  <defs>
    <style>
      .cls-1 {
        fill: #fff;
        stroke-width: 0px;
      }
    </style>
  </defs>
  <g id="_레이어_1-2" data-name="레이어 1">
    <path class="cls-1" d="M0,48.79C.9,32.16,5.74,17.88,19.43,7.62c15.86-11.89,46.22-12.46,56.33,17.36,5.25,15.49,5.77,31.25-1.67,46.54-2.54,5.22-2.08,5.97,3.55,7.59,3.87,1.11,8.14,2.2,8.26,7.2.18,7.67-4.23,10.55-10.43,6.11-6.74-4.83-13.11-4.12-20.52-2.74-22.34,4.17-42.46-5.01-51.63-26.01-1.99-4.57-2.25-9.9-3.3-14.88ZM64.55,53.02c-1.02-12.65-1.42-24.02-7.79-34.02-4.14-6.5-9.11-11.53-17.68-10.63-8.75.92-14.79,5.38-18.08,13.59-5.22,13.03-5.99,26.66-1.46,39.58,5.61,16.01,14.94,21.51,30,19.07,5.79-.94,12.01-6.31,13.05-12.12.99-5.55,1.44-11.2,1.97-15.48Z"/>
  </g>
</svg>