<?xml version="1.0" encoding="UTF-8"?>
<svg id="_레이어_2" data-name="레이어 2" xmlns="http://www.w3.org/2000/svg" viewBox="0 0 83.19 100">
  <defs>
    <style>
      .cls-1 {
        fill: #fff;
        stroke-width: 0px;
      }
    </style>
  </defs>
  <g id="_레이어_1-2" data-name="레이어 1">
    <path class="cls-1" d="M48.31,85.81c3.45.65,6.08.92,8.59,1.68,4.81,1.47,9.54-.8,13.96-2.89,1.51-.71,2.63-2.58,4.14-2.89,2.41-.5,5-.13,7.36-.13,1.75,3.35.42,6.38-1.2,8.49-2.67,3.49-5.73,7.22-10.24,8.32-8.9,2.16-17.72,2.39-26.68-.79-4.89-1.74-10.2-2.31-14.69-5.26-3.46,1.49-4.13-3.54-7.16-3.07-9.5-8.09-16.5-17.91-20.6-29.75.85-5.43-4.26-10.78-.25-16.31.36-.5-.04-1.51.06-2.26.42-2.91-.45-5.78.89-8.83,2.91-6.64,5.35-13.45,10.96-18.44,3.14-2.8,6.11-5.73,9.5-8.33C27.78,1.66,33.14,1.06,38.55.27c7.49-1.09,14.48,1.24,21.05,4.58,8.3,4.21,14.86,9.92,17.74,19.44,1.82,6.01,4.86,11.88,3.96,18.18-1.15,8.08-2.5,16.32-9.56,22.1-2.42,1.98-4.55,4.35-6.24,7.29-1.47,2.57-4.75,4.14-7.3,6.06-1.14.85-2.57,1.32-3.66,2.22-1.94,1.59-3.72,3.36-6.24,5.67ZM57.13,19.64c-1.77-1.77-2.95-3.13-4.31-4.28-5.14-4.35-10.14-5.66-15.82-2.73-4.9,2.53-9.15,6.31-13.61,9.64-.36.27-.13,1.32-.21,2.53,3.83-1.96,7.26-3.81,10.78-5.47,1.91-.91,3.96-2.06,5.96-2.08,2.04-.03,4.09,1.19,6.41,1.95-1.08,1.08-1.56,2.01-2.17,2.1-4.14.63-7.48,2.91-11.01,4.88-8.37,4.68-12.45,12.02-13.03,21.26-.37,5.92.16,11.81,1.24,17.77,1.3,7.17,4.17,12.98,9.76,17.42,4.38,3.48,8.82,2.63,11.95-1.95,3.12-4.57,6.33-9.09,9.27-13.77,5.3-8.43,9.07-17.41,9.16-27.58.03-3.06,0-6.12,0-9.29-3.34-2.54-5.89-5.54-4.36-10.38Z"/>
  </g>
</svg>