<?xml version="1.0" encoding="UTF-8"?>
<svg id="_레이어_2" data-name="레이어 2" xmlns="http://www.w3.org/2000/svg" viewBox="0 0 94.09 100">
  <defs>
    <style>
      .cls-1 {
        fill: #fff;
        stroke-width: 0px;
      }
    </style>
  </defs>
  <g id="_레이어_1-2" data-name="레이어 1">
    <g>
      <path class="cls-1" d="M84.92,20.31c4,9.67-1.2,24.74-9.27,27.89-1.86.73-3.89,1.55-5.82,1.51-5.42-.12-10.09,1.63-14.49,4.59-2.39,1.6-4.95,2.92-7.64,4.49.87,1.79,1.81,3.69,2.72,5.59,4.74,9.93-1.35,20.97-7.94,26.27-4.03,3.23-8.9,4.12-13.53,4.39-6.32.36-12.78-.43-19.09-1.33-5.33-.76-8.45-4.77-9.3-9.76-1.46-8.52-.09-16.79,5.11-23.91,5.72-7.83,14.13-10.1,23.31-9.8,5.3.17,10.19,1.84,14.22,5.64.66.62,2.88.75,3.37.2,7.21-8,15.77-14.21,25.07-19.51,4.72-2.68,8.26-6.42,10.3-11.55.61-1.53,1.78-2.83,3-4.71ZM42.04,80.08c.04-5.08-1.64-8.45-5.81-13.75-3.65-4.63-12.03-6.56-16.87-4.26-6.07,2.89-8.57,11.24-7.25,16.71.82,3.4,2.86,6.03,5.86,7.25,4.73,1.94,9.66,3.8,14.68,4.54,4.97.74,9.94-4.06,9.39-10.5Z"/>
      <path class="cls-1" d="M45.94,19.2c.56,3.78-2.87,4.44-4.96,5.87-1.72,1.18-6.9-.96-7.66-3.35-1.87-5.88-7.01-8.7-10.92-12.68-1.52-1.54-4.48-2.75-3.23-5.25.42-.85,3.98-.45,6.02-.11,3.45.57,6.83,1.55,10.25,2.35,8.28,1.93,10.49,4.69,10.5,13.17Z"/>
      <path class="cls-1" d="M94.09,12.48c-3,3.1-5.95,3.22-9.13.65-3.53-2.85-6.46-6.5-11.42-7.42-1.26-.23-2.1-2.76-3.13-4.23,1.56-.52,3.15-1.54,4.68-1.47,2.82.14,5.7.64,8.39,1.51,4.44,1.44,6.29,3.59,10.61,10.96Z"/>
      <path class="cls-1" d="M54.39,100c-.2-3.19-.37-5.72-.54-8.51,8.72-1.61,16.31,1.75,24.09,4.07-.01.32-.03.65-.04.97-7.71,1.14-15.41,2.28-23.51,3.47Z"/>
    </g>
  </g>
</svg>