<?xml version="1.0" encoding="UTF-8"?>
<svg id="_레이어_2" data-name="레이어 2" xmlns="http://www.w3.org/2000/svg" viewBox="0 0 99.01 100">
  <defs>
    <style>
      .cls-1 {
        fill: #fff;
        stroke-width: 0px;
      }
    </style>
  </defs>
  <g id="_레이어_1-2" data-name="레이어 1">
    <g>
      <path class="cls-1" d="M66.53,11.89c-.22-3-.41-5.48-.59-7.9.81-.52,1.67-1.06,2.52-1.61-.61-.68-1.21-1.36-1.94-2.17,4.41,0,8.73-.05,13.04.05.73.02,1.44.69,2.17,1.05,1.63.8,3.09,2.71,5.04.18.48-.62,2.28-.15,3.45-.32,2.2-.32,4.39-.73,6.92-1.17,2.19,4.92-.15,10.44,1.55,15.55-.29.19-.57.37-.86.56-.84-1.05-1.6-2.16-2.52-3.13-4.1-4.28-9.6-4.16-13.97-2.41-.88.35-1.39,2.4-1.52,3.73-.47,4.81-.76,9.64-1.01,14.46-.19,3.7,2.17,6.51,3.6,9.64.06.14.26.23.29.36.5,2.4.98,4.81,1.6,7.89-6.27-4.1-12.36-7-16.5-12.7-3.27-4.49-7-8.66-10.7-12.81-3.36-3.76-5.16-4.27-9.41-1.66-7.06,4.33-13.93,8.99-20.66,13.81-1.62,1.16-2.43,3.5-3.54,5.34-3.08,5.07-4.52,10.61-4.7,16.51-.25,8.1,1.85,15.37,7.82,21.13,4.63,4.47,11.67,6.43,17.96,1.83,4.1-2.99,8.21-5.97,12.31-8.94,4.01,4.68,8.12,9.49,12.25,14.28,1.53,1.77,3.13,3.49,4.71,5.22,1.25,1.36.46,2.48-.36,3.65-.37.52-.57,1.16-1.11,2.27,1.78-1.02,2.96-2.22,4.08-2.17.85.04,1.61,1.69,2.79,3.06-1.96,1.1-3.87,1.82-5.34,3.07-3.12,2.63-5.33,1.27-7.83-.99-3.07-2.79-6.45-5.23-9.65-7.88-2.84-2.35-5.61-4.76-8.42-7.15.17-.36.33-.71.5-1.07-1.23,1.02-2.37,2.17-3.7,3.03-3.52,2.27-7.06,4.55-10.75,6.51-1.07.57-2.72-.05-4.09.06-.99.08-1.97.71-2.93.67-14.85-.58-23.57-9.09-26.08-22.87-1.33-7.26-1.42-14.63,1.03-21.83,2.2-6.47,6.62-11.18,11.54-15.68,7.56-6.92,16.47-11.62,25.36-16.45,5.85-3.17,11.58-6.57,17.25-10.05,1.58-.97,2.49-.73,3.57.51,1.69,1.95,3.43,3.85,5.19,5.73.28.3.78.38,1.67.79ZM8.18,65.09c0-.36.04-1.02,0-1.03-1.11-.14-2.25-.33-3.35-.22-.32.03-.69.96-.76,1.51-.08.62.14,1.27.25,2.03,1.93.51,3.37-.1,3.91-2.36.21.35.33.88.64,1.02,1.58.72,3.19,1.36,4.81,1.98,1.36.52,2.74.99,4.12,1.48.1-.17.19-.34.29-.5-.45-.81-.89-1.62-1.34-2.43.3-.35.91-.92.86-1-.41-.56-.97-1.03-1.48-1.52-.13.12-.25.23-.38.35.18.55.36,1.1.54,1.65-.59-.94-1.17-1.88-1.59-2.54-2.31.56-4.41,1.06-6.51,1.57ZM67.72,7.9c1.25-1.09,2.2-1.92,3.16-2.75-.72-.37-1.49-1.12-2.14-1.02-1.63.24-2.05,1.38-1.02,3.77ZM74.86,1.54c.44,2.59,1.66,2.94,3.01,2.75.4-.06.68-.99,1.01-1.52-1.18-.36-2.36-.72-4.02-1.23ZM82.54,41.58c-.42-.59-.73-1.01-1.04-1.44-.28.43-.81.87-.79,1.28.02.53.49,1.04.76,1.56.32-.42.64-.83,1.07-1.4ZM80.45,6.77c-.35.65-.74,1.05-.67,1.33.1.38.56.66.86.99.2-.35.56-.69.57-1.04,0-.32-.37-.65-.76-1.27ZM75.1,24.35c-.37.4-.72.63-.69.78.06.29.34.54.54.81.18-.22.45-.42.5-.67.05-.2-.16-.46-.35-.92ZM76.57,27.27c.4-.43.72-.64.8-.91.05-.17-.3-.64-.42-.63-.31.05-.71.22-.84.47-.09.18.22.55.45,1.07Z"/>
      <path class="cls-1" d="M78.83,52.88h3.08c.31,2.2.38,4.44,3.57,4.91-.09-1.73-.16-3.14-.25-4.83,2.57,0,5.21-.03,7.85.04.34,0,.73.46.98.8,1.22,1.67,2.41,3.37,3.58,5.08.16.23.3.59.23.82-.89,3.01.25,5.79.8,8.67.37,1.91.31,3.92.31,5.89.03,8.15.01,16.3.01,25.08-.88-.49-1.84-.71-2.23-1.3-5.54-8.34-10.9-16.8-16.51-25.09-4.25-6.29-8.79-12.38-13.19-18.57-.35-.5-.64-1.03-1.16-1.86h9.13c1.31,1.83,2.62,3.75,4.09,5.54.14.17,1.75-.35,1.94-.84.83-2.13-.87-3.21-2.21-4.38l-.04.05ZM87.81,54.47c.58,2.5,3.46,4.09,5.37,2.98.39-.23.71-1.03.62-1.49-.09-.47-.72-.83-1.11-1.24-1.47,1.42-2.68.83-3.86-.45-.12-.13-.67.13-1.02.2ZM89.94,62.6c.13-.31.26-.63.39-.94-1.23-.5-2.45-1-4.14-1.69.54,3.09,2.08,2.99,3.75,2.63ZM98.51,89.78c-.6-.32-1.03-.74-1.28-.65-.4.14-.67.61-1,.95.33.31.74.91.98.86.42-.1.74-.62,1.3-1.15Z"/>
      <path class="cls-1" d="M78.87,52.83c-.22,0-.45,0-.14,0-.29-.14-.09-.04.1.05,0,0,.04-.05.04-.05Z"/>
    </g>
  </g>
</svg>