<?xml version="1.0" encoding="UTF-8"?>
<svg id="_레이어_2" data-name="레이어 2" xmlns="http://www.w3.org/2000/svg" viewBox="0 0 116.88 100">
  <defs>
    <style>
      .cls-1 {
        fill: #fff;
        stroke-width: 0px;
      }
    </style>
  </defs>
  <g id="_레이어_1-2" data-name="레이어 1">
    <path class="cls-1" d="M24.17,14.62c10.67-5.2,21.94-7.49,33.75-6.24,4.28.45,8.5,1.81,12.67,2.99,1.71.48,2.53.06,3.3-1.38.78-1.44,1.64-2.87,2.69-4.13,1-1.2,1.89-2.62,3.99-2.37.82.1,1.73-1.1,2.68-1.46,2.02-.77,4.07-1.56,6.18-2,1.95-.41,4.13,2.89,3.59,5.11-1.23,5.06-3.81,9.22-8,12.36-.52.39-.97.88-1.13,1.03,2.24,3.96,4.81,7.6,6.47,11.61,4.92,11.87,4.49,23.61-1.53,35.12-2.53,4.84-6.34,8.58-9.86,12.59-1.18,1.34-2.43,2.62-3.55,4.01-1.55,1.9-1.45,3.03.18,4.89,2.15,2.45,5,3.29,8.08,3.71,5.97.82,11.86.26,17.72-.94,5.02-1.03,10.07-1.96,15.1-2.93.76,3.39.61,3.35-2.37,4.45-5.38,1.98-10.68,4.18-16,6.32-8.81,3.54-17.52,3.55-26.39-.04-5.27-2.13-10.56-4.12-15.34-7.27-.55-.36-1.5-.38-2.2-.24-6.99,1.39-14.05,1.95-21.09.94-7.94-1.13-15.08-4.25-21.05-9.8-4.35-4.04-6.89-9.2-9.19-14.52-.72-1.68-1.3-3.45-1.72-5.23-3.36-14.09.78-26.22,9.82-37.03,1.1-1.31,2.42-2.43,3.56-3.71,2.63-2.97,6.23-4.29,9.69-5.88.2.37.4.74.6,1.12.19-.2.37-.41.56-.61-.4-.15-.81-.31-1.21-.46ZM19.78,51.81c.05,3.8,1.67,10.15,5.11,16.03,4.52,7.75,11,12.7,20.05,13.72,4,.45,8,.45,11.79-1.53,6.83-3.57,11.31-9.23,14.34-16.07,3.13-7.07,3.01-14.52,1.67-21.98-2.08-11.57-13.16-25.7-25.69-25.32-2.95.09-6.4-.71-8.73.55-3.89,2.11-7.39,5.24-10.48,8.49-6.11,6.41-8.11,14.47-8.06,26.12ZM30.3,80.87c-.18-.17-.35-.34-.53-.51-.27.31-.54.63-.8.94.14.13.27.26.41.39.31-.28.61-.55.92-.83ZM18.04,78.23c.08-.15.15-.3.23-.45-.35-.14-.7-.27-1.05-.41-.05.12-.1.24-.15.37.33.17.65.33.98.5Z"/>
  </g>
</svg>