<?xml version="1.0" encoding="UTF-8"?>
<svg id="_레이어_2" data-name="레이어 2" xmlns="http://www.w3.org/2000/svg" viewBox="0 0 52.13 100">
  <defs>
    <style>
      .cls-1 {
        fill: #fff;
        stroke-width: 0px;
      }
    </style>
  </defs>
  <g id="_레이어_1-2" data-name="레이어 1">
    <g>
      <path class="cls-1" d="M23.64,8.09c-1.26.49-1.97,1.05-2.59.96-1.59-.23-3.98-.28-4.52-1.25-.85-1.53-.85-3.86-.38-5.63.25-.93,2.18-1.6,3.47-2.03.95-.31,2.1-.03,3.16-.01,8.06.1,11.65,3.26,11.98,11.44.55,13.89.77,27.8,1.07,41.7.24,11.14.45,22.28.56,33.42.03,2.7,1.21,3.64,3.74,3.28,2.42-.35,4.87-.52,7.24-1.07,3.02-.71,4.05.88,4.59,3.37.65,3-.38,5.52-2.96,5.72-6.44.48-12.92.64-19.39.72-2.44.03-3-1.85-3.03-4.01-.16-9.77-.36-19.53-.6-29.3-.42-16.98-.85-33.96-1.35-50.94-.06-2.03-.62-4.05-.99-6.37Z"/>
      <path class="cls-1" d="M9.33,53.29c0,10.52-.03,21.04.01,31.55.02,5.38.08,5.38,5.32,4.95.53-.04,1.06-.11,1.59-.14,3.93-.27,5.23.57,5.49,3.54.34,3.91-1.53,6.84-4.95,6.82-4.44-.03-8.89-.5-13.29-1.09-.92-.12-2.11-1.46-2.4-2.46C.46,94.23-.02,91.87,0,89.57c.26-23.37.64-46.73.99-70.1,0-.64.08-1.27.15-1.91.27-2.29,1.01-4.18,3.77-4.27,2.75-.09,3.69,1.76,4.09,4.01.28,1.56.4,3.16.4,4.75.03,10.41.02,20.83.02,31.24-.03,0-.06,0-.09,0Z"/>
    </g>
  </g>
</svg>