<?xml version="1.0" encoding="UTF-8"?>
<svg id="_레이어_2" data-name="레이어 2" xmlns="http://www.w3.org/2000/svg" viewBox="0 0 90.37 88.32">
  <defs>
    <style>
      .cls-1 {
        fill: #fff;
        stroke-width: 0px;
      }
    </style>
  </defs>
  <g id="_레이어_1-2" data-name="레이어 1">
    <path class="cls-1" d="M68.9,70.76c3.77,2.43,7.77,4.74,11.45,7.47,3.51,2.6,6.69,5.64,10.02,8.48-.2.54-.4,1.07-.61,1.61-2.62-.26-5.23-.63-7.86-.77-8.51-.47-16.74-.22-25-4.59-5.66-2.99-13.47-2-20.33-2.64C13.02,78.1-1.07,61.8.06,37.98,1.02,17.79,19.65,1.27,40.51.06c22.22-1.29,40.14,18.96,39.63,39.41-.26,10.56-2.73,19.9-9.47,28.04-.53.64-1.04,1.3-1.49,1.99-.17.25-.15.62-.28,1.26ZM49.61,52.16c2.28,1.39,3.7,1.77,4.26,2.68,2.6,4.26,4.28,2.14,6.04-.63,3.98-6.28,4.29-13.21,3-20.16-1.75-9.36-7.05-16.13-16.53-18.51-9.37-2.35-17.2.43-23.44,8.07-7.24,8.86-7.52,23.76-1.8,32.69,7.01,10.95,17.07,12.77,27.35,8.61,3.2-1.3,4.41-3.06,2.27-6.43-.83-1.3-.64-3.26-1.14-6.32Z"/>
  </g>
</svg>