<?xml version="1.0" encoding="UTF-8"?>
<svg id="_레이어_2" data-name="레이어 2" xmlns="http://www.w3.org/2000/svg" viewBox="0 0 87.9 92.35">
  <defs>
    <style>
      .cls-1 {
        fill: #fff;
        stroke-width: 0px;
      }
    </style>
  </defs>
  <g id="_레이어_1-2" data-name="레이어 1">
    <path class="cls-1" d="M74.53,81.19c4.56,3.37,8.85,6.54,13.14,9.71-5.15,1.12-10.35,2.86-14.96-.56-3.68-2.73-6.76-3.04-11.26-1.41C34.74,98.62,4,83.17.4,53.31-2.31,30.77,8.86,10.03,28.72,2.76c24.34-8.9,51.26,4.42,57.31,29.45,4.19,17.33,1.74,34.04-11.49,48.97ZM50.59,63.67c4.05.63,7.11.49,9.59,1.61,5.11,2.31,5.9,2.43,7.7-3.09,3.43-10.53,3.84-21.16-.66-31.53-4.59-10.56-13.73-16.05-25.33-15.55-9.57.41-18.86,7.16-21.67,17.05-1.69,5.96-2.9,12.53-2.25,18.6,2.19,20.54,13.15,28.86,32.22,24.29,5.02-1.2,5.29-2.44,2.54-6.72-.65-1.01-1.02-2.2-2.13-4.67Z"/>
  </g>
</svg>