<?xml version="1.0" encoding="UTF-8"?>
<svg id="_레이어_2" data-name="레이어 2" xmlns="http://www.w3.org/2000/svg" viewBox="0 0 97.81 100">
  <defs>
    <style>
      .cls-1 {
        fill: #fff;
        stroke-width: 0px;
      }
    </style>
  </defs>
  <g id="_레이어_1-2" data-name="레이어 1">
    <path class="cls-1" d="M72.81,77.18c9.17,6.34,19.69,10.92,25,21.53-6.2,2.74-16.22.93-20.04-3.55-3.37-3.94-6.78-7.92-9.52-12.28-1.97-3.14-4.41-1.76-6.13-1.07-19.02,7.58-40.74,2.3-52.4-12.57-3.91-4.99-6.63-11.41-8.23-17.6C-1.59,39.74.03,27.93,7.12,17.7,16.17,4.63,30.74-1.68,47.38.39c12.87,1.6,22.97,7.19,30.9,16.67,3.67,4.38,6.78,10.07,7.82,15.6,1.35,7.17.94,14.82.24,22.17-.74,7.72-6.55,13.15-10.75,19.24-.7,1.01-1.65,1.86-2.78,3.12ZM64.49,59.14c9.69-10.81,2.98-33.73-8.59-40.24-13.47-7.58-30.5-4.03-35.87,11.98-4.89,14.61,1.49,34.18,18.47,38.17,3.31.78,6.82.78,10.25.93,3.69.17,10.32-4.12,11.36-7.52.33-1.09-.03-3.04-.82-3.71-2.46-2.09-5.14-4.27-8.65-1.53-.95.74-2.3.97-3.74,1.55,1.05-3.49,1.78-6.34,2.8-9.1.31-.84,1.3-1.89,2.11-2.03,4.02-.69,8.99,2.69,10.32,6.59.52,1.53,1.4,2.94,2.37,4.91Z"/>
  </g>
</svg>