<?xml version="1.0" encoding="UTF-8"?>
<svg id="_레이어_2" data-name="레이어 2" xmlns="http://www.w3.org/2000/svg" viewBox="0 0 68.31 100">
  <defs>
    <style>
      .cls-1 {
        fill: #fff;
        stroke-width: 0px;
      }
    </style>
  </defs>
  <g id="_레이어_1-2" data-name="레이어 1">
    <path class="cls-1" d="M26.83,33.8c-.14-.67-.25-1.36-.42-2.05-.62-2.5-1.28-4.99-1.88-7.5-.18-.74-.46-1.06-1.3-1.05-3.31.06-6.63.03-9.94.04-.32,0-.64,0-1.19,0,.17-1.96.36-3.84.47-5.72.09-1.46.62-2.93-.13-4.59-.14.94-.29,1.7-.38,2.47-.2,1.82-.79,3.51-1.71,5.08-1.39,2.36-3.62,3.2-6.18,3.35-1.42.09-2.85.02-4.18.02C.64,15.97,1.69,8.06,1.12,0h39.47v10.66c-.76,0-1.55,0-2.35,0-.57,0-1.14-.05-1.7,0-.8.09-1.78,0-2.35.44-1.41,1.09-2.53,2.54-2.25,4.47.28,1.93.71,3.86,1.23,5.74,1.89,6.75,3.85,13.49,5.79,20.23.54,1.89,1.11,3.76,1.65,5.65.13.43.2.88.32,1.44.15-.19.3-.3.35-.44,1.33-4,2.66-8,3.97-12.01,1.11-3.4,2.19-6.81,3.26-10.22,1.15-3.64,2.28-7.28,3.39-10.93.22-.72.36-1.47.41-2.22.09-1.37-.48-2.08-1.87-2.22-1.01-.1-2.03-.02-3.03-.02-.16-3.48-.33-6.94-.49-10.45h21.36v10.26c-1.01,0-2,.02-2.99,0-1.4-.03-2.42.63-2.94,1.87-.6,1.43-1.09,2.91-1.53,4.4-1.16,3.88-2.29,7.77-3.4,11.67-.98,3.43-1.91,6.87-2.9,10.3-2.05,7.14-4.13,14.28-6.16,21.42-1.03,3.61-1.94,7.26-3,10.87-.2.67-.8,1.23-1.24,1.82-.25.34-.57.63-.89.99,1.06.73,1.78-.53,2.82-.31-.16,1.69.11,3.44-.54,5.33.26.12.74.5,1.25.55,1.08.1,1.51.75,1.61,1.66.2,1.79.33,3.58.48,5.41h-7.49v8.9h8.56v4.75h-21.41v-4.02c.87-.05,1.66-.13,2.46-.13.48,0,.7-.2.76-.63.17-1.22.4-2.45.49-3.68.16-2.26.21-4.52.36-6.77.14-2.05-.38-3.94-1.15-5.8-1.19-2.85-2.33-5.73-3.49-8.59-.1-.24-.16-.49-.29-.88.44,0,.78,0,1.11,0,1.94.05,3.88.15,5.82.14.78,0,1.29.16,1.48.97.05.23.23.44.35.66.09-.03.18-.05.27-.08-.26-1.53-.4-3.1-.82-4.59-1.47-5.34-3.08-10.64-4.56-15.97-1.4-5.05-2.7-10.12-4.05-15.18-.07-.25-.17-.5-.26-.75l-.18-.9ZM22.52,16.14c.09-.03.18-.05.28-.08-.42-1.95-.79-3.92-1.61-5.76-.1.03-.19.05-.29.08.54,1.92,1.08,3.84,1.62,5.76Z"/>
  </g>
</svg>