<?xml version="1.0" encoding="UTF-8"?>
<svg id="_레이어_2" data-name="레이어 2" xmlns="http://www.w3.org/2000/svg" viewBox="0 0 121.19 100">
  <defs>
    <style>
      .cls-1 {
        fill: #fff;
        stroke-width: 0px;
      }
    </style>
  </defs>
  <g id="_레이어_1-2" data-name="레이어 1">
    <g>
      <path class="cls-1" d="M74.05,95.33c-.52-1.28-1.03-2.57-1.56-3.88-2.37.47-2.16,1.97-2.15,3.45.02,4-1.01,5.25-4.9,5.1-6.9-.27-13.46-1.87-19.4-5.99-.4-1.83-.82-3.71-1.21-5.44-1.15-.64-2.09-1.16-3.02-1.69.08-.21.15-.42.23-.63h2.63c.26-.39.61-.68.63-.99.29-7.08.61-14.16.78-21.24.07-2.97-1.54-5.28-3.37-7.5-4.5-5.47-8.9-11.02-13.39-16.59.57-.89,1-1.57,1.87-2.95C20.96,25.17,11.4,12.6,0,.78,3.9.47,7.15-.02,10.39,0c5.97.04,11.96.16,17.9.73,1.78.17,3.84,1.59,5.03,3.05,9.24,11.38,18.31,22.89,27.38,34.4,1.23,1.56,2.16,3.35,3.51,5.49,1.42-1.31,2.5-2.07,3.28-3.07,9.1-11.52,18.15-23.08,27.2-34.63,2.42-3.09,4.64-6.53,9.98-4.85-.74,2.59-1.46,5.12-2.18,7.65.35.21.71.42,1.06.64,2.39-2.75,4.78-5.51,7.35-8.47h9.72l.56.76c-1.44,1.99-2.73,4.12-4.36,5.94-1.86,2.07-4.11,3.78-6.05,5.79-2.88,2.99-5.64,6.1-8.43,9.17-.66.72-1.4,1.41-1.87,2.25-5.87,10.36-13.54,19.43-20.74,28.83-2.33,3.04-3.95,6.24-3.93,10.37.03,9.66-.36,19.33-.62,29-.02.79-.27,1.57-.42,2.36-.24-.03-.48-.05-.72-.08ZM74.31,50.07c4.27-2.02,6.09-5.25,4.85-8.23-3.12,1.75-4.95,4.74-4.85,8.23ZM94.91,20.11c.31.22.62.44.93.66,2.89-.87,4.85-4.41,3.54-7.93-1.7,2.77-3.09,5.02-4.47,7.27Z"/>
      <path class="cls-1" d="M39.29,2.11c-.34.28-.68.55-1.02.83-.09-.1-.17-.21-.26-.31.34-.28.67-.56,1.01-.85.09.11.18.22.27.33Z"/>
    </g>
  </g>
</svg>