<?xml version="1.0" encoding="UTF-8"?>
<svg id="_레이어_2" data-name="레이어 2" xmlns="http://www.w3.org/2000/svg" viewBox="0 0 86.44 99.02">
  <defs>
    <style>
      .cls-1 {
        fill: #fff;
        stroke-width: 0px;
      }
    </style>
  </defs>
  <g id="_레이어_1-2" data-name="레이어 1">
    <path class="cls-1" d="M59.38,99.02h-22.46c0-2.96,0-5.73,0-8.5,0-7.8.1-15.6-.08-23.4-.07-3.11-.59-6.26-1.28-9.3-.31-1.35-1.4-2.65-2.42-3.67-5.55-5.55-8.9-12.59-13.15-19.03-1.74-2.63-3.44-5.29-5.09-7.97C10.76,20.41,6.6,13.68,2.58,6.88,1.49,5.03.85,2.91,0,.92,3.84-.11,21.05-.33,29.04.54c7.2,11.32,11.37,24.07,18.9,36.29,4.27-12.69,8.23-24.45,12.26-36.41h26.21c-.04.78.16,1.6-.16,2.1-5.05,8.02-8.62,16.77-12.49,25.36-3.82,8.47-7.51,16.99-11.25,25.49-4.1,3.06-3.08,7.53-3.11,11.64-.08,9.37-.03,18.75-.03,28.12v5.89Z"/>
  </g>
</svg>