<?xml version="1.0" encoding="UTF-8"?>
<svg id="_레이어_2" data-name="레이어 2" xmlns="http://www.w3.org/2000/svg" viewBox="0 0 53.98 95.52">
  <defs>
    <style>
      .cls-1 {
        fill: #fff;
        stroke-width: 0px;
      }
    </style>
  </defs>
  <g id="_레이어_1-2" data-name="레이어 1">
    <path class="cls-1" d="M27.94,37.88c3.97-11.51,7.92-22.71,11.64-33.98.87-2.64,2.14-3.61,4.87-3.29,2.25.27,4.57.2,6.85.04,3.02-.21,3.1.92,2.14,3.39-5.78,14.92-11.45,29.88-17.11,44.85-1.23,3.25-1.82,6.61-1.76,10.13.18,10.98.16,21.96.32,32.94.04,2.63-.89,3.72-3.61,3.54-2.82-.19-5.67-.2-8.48,0-2.39.17-2.93-.85-2.93-3,0-9.89-.29-19.79-.12-29.68.11-5.99-1.14-11.54-3.33-17.05C11.07,32.31,5.11,19.09,1,5.18c-.09-.31-.29-.59-.38-.9C-.54.24-.39.05,3.8.01c9.55-.08,9.47-.05,12.6,8.78,3,8.45,6.52,16.72,9.23,25.28.4,1.28.91,2.66,2.31,3.81Z"/>
  </g>
</svg>