<?xml version="1.0" encoding="UTF-8"?>
<svg id="_레이어_2" data-name="레이어 2" xmlns="http://www.w3.org/2000/svg" viewBox="0 0 130.51 100">
  <defs>
    <style>
      .cls-1 {
        fill: #fff;
        stroke-width: 0px;
      }
    </style>
  </defs>
  <g id="_레이어_1-2" data-name="레이어 1">
    <path class="cls-1" d="M64.96,33.66c7.64-8.91,14.42-17.44,21.94-25.27,2.86-2.98,7.28-5.79,11.22-6.16,9.46-.89,19.06-.29,32.39-.29-12.62,13.35-22.42,25.17-33.76,35.26-10.78,9.59-15.46,20.19-13.79,34.52,1.06,9.04.2,18.31.2,28.28h-34.31c-.54-7.54-2.28-15.84-1.46-23.88,1.39-13.49-3.22-23.02-13.04-32.31C21.7,31.84,10.95,17.86,0,3.37c12.88-.55,25.92-8.26,37.27,1.66,9.72,8.5,18.08,18.57,27.69,28.63Z"/>
  </g>
</svg>