<?xml version="1.0" encoding="UTF-8"?>
<svg id="_레이어_2" data-name="레이어 2" xmlns="http://www.w3.org/2000/svg" viewBox="0 0 80.67 100">
  <defs>
    <style>
      .cls-1 {
        fill: #fff;
        stroke-width: 0px;
      }
    </style>
  </defs>
  <g id="_레이어_1-2" data-name="레이어 1">
    <g>
      <path class="cls-1" d="M50.12,37.37c1.26,20.51,2.52,41.01,3.85,62.63-12.92-.12-23.59.43-33.75-5.42,5.94-3.58,11.79-5.26,14.29-9.12,2.46-3.78,2.26-9.82,1.94-14.79-1.53-23.82-11.47-43.48-29.59-59.22C3.67,8.68,2.24,3.87,0,0c4.34.09,8.69.12,13.03.31.74.03,1.45.78,2.62,1.46-.81,2.97-1.62,5.94-2.7,9.92,14.12-7.43,17.78,3.89,23.03,12.19,2.14,3.39,3.49,7.31,5.8,10.56,1.21,1.7,3.71,2.47,5.63,3.67.9-.25,1.81-.5,2.71-.74Z"/>
      <path class="cls-1" d="M80.67,6.19c-3.67,8.51-4.56,15.32-8.41,18.19-3.9,2.92-10.71,1.95-18.86,3.03,1.58-7.77.94-16.72,4.37-18.73,5.46-3.2,13.63-1.79,22.9-2.5Z"/>
    </g>
  </g>
</svg>