<?xml version="1.0" encoding="UTF-8"?>
<svg id="_레이어_2" data-name="레이어 2" xmlns="http://www.w3.org/2000/svg" viewBox="0 0 81.97 100">
  <defs>
    <style>
      .cls-1 {
        fill: #fff;
        stroke-width: 0px;
      }
    </style>
  </defs>
  <g id="_레이어_1-2" data-name="레이어 1">
    <path class="cls-1" d="M19.41,99.98c.41-.53.69-.94,1.01-1.31,2.96-3.34,5.52-6.96,7.73-10.84,1.62-2.85,1.62-5.75.71-8.86-2.11-7.16-4.03-14.37-6.08-21.55-1.4-4.9-2.85-9.79-4.31-14.68-2.18-7.28-4.37-14.55-6.61-21.81-.71-2.3-1.55-4.57-2.45-6.81-1.07-2.69-2.91-4.83-5.33-6.38-.93-.6-2.11-.88-3.22-1.11-.62-.13-.77-.29-.77-.88.01-1.3-.06-2.59-.09-3.89C0,1.3,0,.71,0,.07h37c0,1.94,0,3.88-.02,5.81,0,.14-.25.33-.42.42-3.37,1.8-4.93,4.78-4.18,8.56.61,3.08,1.44,6.11,2.24,9.15,1.09,4.09,2.2,8.18,3.4,12.23,1.45,4.89,3,9.75,4.51,14.62.07.24.16.47.33.96.29-.74.55-1.25.7-1.79,1.31-4.55,2.62-9.1,3.89-13.67,1.42-5.1,2.85-10.21,4.15-15.34.84-3.3,1.08-6.65-.06-9.97-.58-1.68-1.74-2.8-3.26-3.59-1.54-.8-3.18-1.28-4.94-1.19-.28.01-.55,0-.88,0V.16c.37-.03.76-.08,1.14-.08C56.06.05,68.52.04,80.98,0c.67,0,.87.18.87.85-.01,1.41.06,2.82.12,4.23.02.54-.12.79-.72.88-2.14.32-4.16.96-5.82,2.45-1.56,1.39-2.41,3.23-3.23,5.09-1.21,2.74-1.56,5.65-1.93,8.6-.45,3.5-1.11,6.99-1.88,10.44-.8,3.55-1.87,7.04-2.77,10.57-1.67,6.52-3.29,13.05-4.95,19.57-1.05,4.13-2.18,8.23-3.19,12.37-1.4,5.78-2.64,11.59-4.1,17.35-1.21,4.8-5.01,7.62-9.98,7.61-7.27-.02-14.54-.08-21.81-.11-.66,0-1.33.06-2.19.1Z"/>
  </g>
</svg>