<?xml version="1.0" encoding="UTF-8"?>
<svg id="_레이어_2" data-name="레이어 2" xmlns="http://www.w3.org/2000/svg" viewBox="0 0 82.82 100">
  <defs>
    <style>
      .cls-1 {
        fill: #fff;
        stroke-width: 0px;
      }
    </style>
  </defs>
  <g id="_레이어_1-2" data-name="레이어 1">
    <path class="cls-1" d="M82.82,5.2c-.4.09-.65.2-.88.18-7.97-.83-13.03,3.09-16.51,9.86-5.83,11.33-11.63,22.68-17.72,33.88-7.19,13.22-14.65,26.29-22.01,39.41-1.52,2.71-1.21,3.59,1.98,3.78,3.82.23,7.67.12,11.5.01,6.12-.17,12.24-.57,18.36-.67,6.16-.1,8.44-1.54,10.28-7.54.87-2.82,1.27-5.78,1.93-8.84h2.5c0,1.36,0,2.62,0,3.87,0,5.88-.09,11.76.06,17.63.06,2.23-.57,2.97-2.86,2.92-7.22-.16-14.44-.19-21.66-.13-6.3.05-12.6.37-18.9.41-2.79.02-5.57-.45-8.36-.52-3.31-.09-6.62.01-9.93,0-.96,0-1.92-.11-3.46-.2,1.6-2.54,2.95-4.55,4.17-6.63,6.27-10.72,12.5-21.47,18.75-32.2,1.66-2.85,1.67-2.84,4.83-3.6-1.82-4.18-3.53-8.41-5.48-12.51-4.83-10.11-9.74-20.19-14.69-30.24C11.92,8.44,8.87,6.58.48,5.13.32,3.44.16,1.69,0,.06c4.02,0,7.97,0,11.92,0,3.32,0,6.63.03,9.95-.01,3.26-.05,3.86,1.04,2.78,4.02-.53,1.46-.69,3.5-.07,4.85,4.31,9.34,8.86,18.57,13.38,27.82.62,1.26,1.5,2.4,2.48,3.95,1.07-2.41,1.9-4.44,2.87-6.39,3.46-6.98,7.04-13.91,10.45-20.92,3.17-6.53,3.1-6.57.84-13.37h28.23v5.2Z"/>
  </g>
</svg>