<?xml version="1.0" encoding="UTF-8"?>
<svg id="_레이어_2" data-name="레이어 2" xmlns="http://www.w3.org/2000/svg" viewBox="0 0 76.65 100.38">
  <defs>
    <style>
      .cls-1 {
        fill: #fff;
        stroke-width: 0px;
      }
    </style>
  </defs>
  <g id="_레이어_1-2" data-name="레이어 1">
    <path class="cls-1" d="M76.65,1.67c-5.03,8.41-9.72,16.35-14.5,24.22-3.44,5.65-6.65,11.48-10.6,16.77-5.43,7.27-7.46,15.04-6.98,24.11.46,8.72-.62,17.52-.78,26.28-.12,6.4.06,6.36-6.6,6.59-2.56.09-6.82,1.34-7.34.4-1.31-2.35-1.13-5.64-1.21-8.56-.27-10.15-.78-20.32-.45-30.45.24-7.37-2.28-13.63-5.73-19.7C15.92,29.81,9.18,18.4,2.56,6.94c-.78-1.34-1.37-2.79-2.56-5.24,5.85,0,10.63-.21,15.36.15,1.23.09,2.66,1.77,3.42,3.05,5.42,9.08,10.68,18.25,16.04,27.37.91,1.55,2.04,2.97,3.53,5.12,5.43-9.74,10.45-18.99,15.7-28.1C59.43-.04,64.66-1.85,76.65,1.67Z"/>
  </g>
</svg>