<?xml version="1.0" encoding="UTF-8"?>
<svg id="_레이어_2" data-name="레이어 2" xmlns="http://www.w3.org/2000/svg" viewBox="0 0 81.15 104.69">
  <defs>
    <style>
      .cls-1 {
        fill: #fff;
        stroke-width: 0px;
      }
    </style>
  </defs>
  <g id="_레이어_1-2" data-name="레이어 1">
    <path class="cls-1" d="M52.57.7c-.1,22.35,11.57,41.62,16.94,62.62,2.53,9.89,7.04,19.29,10.96,28.78,1.45,3.51.64,5.67-2.82,6.2-8.02,1.24-16.09,2.29-24.19,2.83-1.22.08-3.3-2.78-3.86-4.62-2.89-9.53-5.4-19.18-8.1-28.77-.49-1.74-1.25-3.41-2.48-6.72-.9,1.71-1.22,2.62-1.78,3.34-8.97,11.56-17.99,23.1-26.97,34.65-2.43,3.13-3.97,7.89-10.27,4.49.94-2.07,1.59-4.43,2.93-6.32,10.46-14.8,21.1-29.48,31.51-44.32.72-1.03.5-3.11.07-4.49-3.83-12.04-7.88-24-11.71-36.04-2.41-7.59-.22-11.18,7.8-12.09,4.58-.52,9.28-.07,13.93.02,2.45.05,4.89.26,8.04.44Z"/>
  </g>
</svg>