<?xml version="1.0" encoding="UTF-8"?>
<svg id="_레이어_2" data-name="레이어 2" xmlns="http://www.w3.org/2000/svg" viewBox="0 0 138.28 100">
  <defs>
    <style>
      .cls-1 {
        fill: #fff;
        stroke-width: 0px;
      }
    </style>
  </defs>
  <g id="_레이어_1-2" data-name="레이어 1">
    <path class="cls-1" d="M26.29.02C33.87.02,41.46.08,49.04,0c6.34-.07,11.56,1.62,15.72,6.99,5.3,6.85,11.23,13.22,16.99,19.71,3.62,4.08,4.75,3.93,8.03-.26,6.25-7.98,12.49-15.96,18.92-23.8.96-1.17,2.88-2.1,4.4-2.16,6.75-.28,13.52-.2,20.28-.27,1.92-.02,3.3.63,4.15,2.47.91,1.96,1.21,3.69-.32,5.56-8.16,10.08-16.22,20.23-24.38,30.31-6.15,7.59-12.38,15.11-18.6,22.64-2.43,2.94-3.53,6.3-3.51,10.11.05,8.13.01,16.27.02,24.4,0,2.9-.79,3.79-3.67,3.84-11.15.18-22.29.33-33.44.46-1.98.02-3.41-1.93-3.42-4.72-.01-8.59-.18-17.19.11-25.77.16-4.86-1.66-8.66-4.67-12.15C30.98,40.35,16.31,23.33,1.64,6.32c-.42-.48-1.02-.93-1.17-1.49C.17,3.65-.16,2.34.09,1.22c.1-.46,1.7-.81,2.62-.81,7.86-.06,15.72-.04,23.58-.04,0-.12,0-.23,0-.35Z"/>
  </g>
</svg>