<?xml version="1.0" encoding="UTF-8"?>
<svg id="_레이어_2" data-name="레이어 2" xmlns="http://www.w3.org/2000/svg" viewBox="0 0 84.07 100">
  <defs>
    <style>
      .cls-1 {
        fill: #fff;
        stroke-width: 0px;
      }
    </style>
  </defs>
  <g id="_레이어_1-2" data-name="레이어 1">
    <path class="cls-1" d="M84.07,6.95c-1.07,1.25-2.07,2.38-3.03,3.55-8.69,10.56-17.4,21.1-26.01,31.72-.6.73-.6,2.08-.61,3.14-.07,16.28-.1,32.57-.14,48.85,0,1.11,0,2.22,0,3.88-3-.77-5.61-1.51-8.25-2.06-.69-.15-1.52.22-2.26.44-3.74,1.15-7.46,2.32-11.32,3.53-.59-6.05-1.31-11.77-1.67-17.51-.79-12.64-1.12-25.32-2.33-37.92-.24-2.51-3.51-4.78-5.5-7.06-.54-.62-1.68-.69-2.26-1.29C14.25,29.51,7.82,22.77,1.47,15.96c-1.57-1.68-2.2-3.84-.3-5.68C4.7,6.86,8.28,3.48,12.11.42c.85-.68,3.13-.47,4.24.19,7.99,4.75,15.91,9.63,23.73,14.66,2.61,1.68,4.32,1.51,6.19-1.03,3.05-4.14,6.47-8.01,9.51-12.16,1.41-1.92,2.79-2.18,4.86-1.38,3.85,1.5,7.71,3.08,11.69,4.15,3.64.99,7.44,1.36,11.75,2.1Z"/>
  </g>
</svg>