<?xml version="1.0" encoding="UTF-8"?>
<svg id="_레이어_2" data-name="레이어 2" xmlns="http://www.w3.org/2000/svg" viewBox="0 0 77.5 100">
  <defs>
    <style>
      .cls-1 {
        fill: #fff;
        stroke-width: 0px;
      }
    </style>
  </defs>
  <g id="_레이어_1-2" data-name="레이어 1">
    <g>
      <path class="cls-1" d="M7.07,11.23c.87.17,2.34.09,2.52.53,2.02,5.09,5.12,9.39,9.04,13.14.34.32,1,.73.95.98-1.05,5.4,4.07,7.7,5.92,11.64,1.85,3.95,4.66,7.45,7.05,11.16,2.43,3.77,4.15,7.76,4.11,12.37-.05,6.33-.05,12.66.01,18.99.02,1.76-.71,3.8,1.32,5.07-.92,1.48-2.15,2.86-2.66,4.47-.45,1.42-.09,3.09-.63,4.66-1.16-6.81-.89-13.66-.7-20.5,2.37-1.82-1.07-3.21-.37-5.3.65-1.92,0-4.52-.74-6.59-.65-1.81-2.28-3.26-3.36-4.94-1.9-2.95-3.85-5.89-5.54-8.96-3.55-6.49-6.85-13.12-10.43-19.59-1.6-2.89-3.6-5.55-5.43-8.31-1.5-2.25-2.93-4.52-2.48-7.42.47-.47.94-.94,1.41-1.41Z"/>
      <path class="cls-1" d="M77.1,2.92c.64,2.34.66,4.28-.92,6.42-2.6,3.53-3.92,7.91-7.12,11.11-.73.73-1.13,1.86-1.51,2.87-2.89,7.58-8.15,13.6-12.89,19.99-2.48,3.34-4.42,7.08-6.75,10.55-3.23,4.82-4.84,9.96-4.27,15.85.34,3.48-.05,7.03.1,10.54.12,3.01-.19,5.83-2.02,8.32-1.84-.93-2.33-2.43-2.28-4.44.12-4.69.11-9.38.01-14.06-.06-2.67.73-5.48-1.31-7.92-.4-.48-.04-2.45.25-2.52,3.95-.95,3.5-5.21,5.71-7.53,2.33-2.44,3.35-6.08,5.28-8.97,1.87-2.8,4.44-5.15,6.23-7.99,3.25-5.17,5.96-10.69,9.26-15.83,3.67-5.7,6.05-12.4,12.22-16.39Z"/>
      <path class="cls-1" d="M5.67,12.64C.72,9.89-.62,5.61.25.24c2.49-.85,3.37.71,3.99,2.48,1,2.82,1.89,5.67,2.83,8.51-.47.47-.94.94-1.41,1.41Z"/>
      <path class="cls-1" d="M38.51,94.11c1.81,3.03.5,4.55-1.19,5.81-.33.24-1.42-.06-1.76-.45-.31-.36-.35-1.54-.06-1.75,1.3-.93,3.68-.72,3.01-3.6Z"/>
      <path class="cls-1" d="M39.12,88.7v2.82h-.7v-2.82h.7Z"/>
    </g>
  </g>
</svg>