<?xml version="1.0" encoding="UTF-8"?>
<svg id="_레이어_2" data-name="레이어 2" xmlns="http://www.w3.org/2000/svg" viewBox="0 0 82.74 100">
  <defs>
    <style>
      .cls-1 {
        fill: #fff;
        stroke-width: 0px;
      }
    </style>
  </defs>
  <g id="_레이어_1-2" data-name="레이어 1">
    <g>
      <path class="cls-1" d="M24.3,99.99c0-14.52-.06-28.41.04-42.3.03-4.24-.63-7.96-2.83-11.86C14.15,32.84,7.37,19.52.4,6.31c-.26-.49-.2-1.15-.4-2.52,2.28-.18,4.53-.42,6.79-.5,2.46-.09,4.92-.02,7.29-.02,7.29,12.58,14.5,25.05,22.09,38.15,5.73-8.33,10.88-15.82,16.02-23.31,1.98-2.89,3.58-6.17,6.03-8.59,3.21-3.17,7.62-2.83,12.49-2.27-3.09,5.26-5.87,10.42-9.06,15.31-3.04,4.65-5.54,9.6-9.32,13.86-3.4,3.85-5.73,8.68-8.28,13.23-.81,1.45-1.1,3.37-1.12,5.08-.09,12.69-.01,25.38-.06,38.07-.03,6.41-.83,7.13-7.42,7.19-3.4.03-6.81,0-11.17,0Z"/>
      <path class="cls-1" d="M72.8,0h9.94c-2.52,1.39-4.15,2.61-5.98,3.12-.65.18-1.78-1.34-3.96-3.12Z"/>
    </g>
  </g>
</svg>