<?xml version="1.0" encoding="UTF-8"?>
<svg id="_레이어_2" data-name="레이어 2" xmlns="http://www.w3.org/2000/svg" viewBox="0 0 73.9 100">
  <defs>
    <style>
      .cls-1 {
        fill: #fff;
        stroke-width: 0px;
      }
    </style>
  </defs>
  <g id="_레이어_1-2" data-name="레이어 1">
    <path class="cls-1" d="M40.78,91.24c2.69,1.29,4.68,2.12,6.54,3.17,2.2,1.23,3.48,2.9,1.75,5.59-5.27-1.8-10.51-3.58-16.63-5.67,2.07-2.08,3.55-3.55,4.44-4.45-.42-2.89-.95-5.02-.99-7.15-.11-7.16-.19-14.33.03-21.49.08-2.61-.97-4.72-1.98-6.84-1.2-2.52-2.94-4.78-4.33-7.23-1.69-2.99-3.89-5.88-4.7-9.11-.92-3.66-4.46-4.73-5.94-7.96-2.42-5.27-6.26-9.9-9.49-14.8-.48-.73-.83-1.61-1.46-2.15C4.41,10.08,1.81,6.28,0,1.89Q2.5,0,8.69,0c11.82,10.41,19.15,24.49,29.46,36.47,4.47-2.22,6.59-6.48,8.62-10.08,5.06-9,11.93-15.99,20.04-22.12,2.15-1.63,3.99-1.55,7.1-1.12-3.81,2.89-6.28,6.07-9.82,8.53-3.55,2.47-6.01,6.57-8.77,10.09-2.16,2.75-3.76,5.99-6.14,8.5-4.35,4.59-5.69,10.37-6.22,16.13-.65,7.1-.24,14.31-.09,21.48.03,1.67,1.71,3.7,1.16,4.9-1.49,3.26-.4,6.81-1.54,9.78-.61,1.59.17,2.11.22,3.14.08,1.7.87,3.74-1.92,5.55Z"/>
  </g>
</svg>