<?xml version="1.0" encoding="UTF-8"?>
<svg id="_레이어_2" data-name="레이어 2" xmlns="http://www.w3.org/2000/svg" viewBox="0 0 82.59 100">
  <defs>
    <style>
      .cls-1 {
        fill: #fff;
        stroke-width: 0px;
      }
    </style>
  </defs>
  <g id="_레이어_1-2" data-name="레이어 1">
    <path class="cls-1" d="M55.76,52.8v47.2h-18.52c0-12.57-.17-25.18.08-37.79.12-5.89-1.66-10.5-5.05-15.48-7.75-11.38-15.34-22.9-21.97-35.04C7.94,7.39,3.71,4.12,0,0h28.25c4.59,11.97,12.1,23.06,19.66,35.09,6.47-5.71,9.44-12.97,14.01-18.98,3.16-4.16,5.37-8.97,9.32-12.63,1.72-1.59,3.33-1.98,5.43-1.91,5.02.16,7.22,3.38,5.13,7.95-2.37,5.19-4.15,10.95-7.67,15.26-4.99,6.11-6.73,14.01-12.12,19.76-2.24,2.39-3.99,5.24-6.25,8.26Z"/>
  </g>
</svg>