<?xml version="1.0" encoding="UTF-8"?>
<svg id="_레이어_2" data-name="레이어 2" xmlns="http://www.w3.org/2000/svg" viewBox="0 0 85.86 100">
  <defs>
    <style>
      .cls-1 {
        fill: #fff;
        stroke-width: 0px;
      }
    </style>
  </defs>
  <g id="_레이어_1-2" data-name="레이어 1">
    <path class="cls-1" d="M42.6,34.58c10.69-.7,20.14-1.32,31.24-2.05,4.11,22.15,7.96,42.84,12.02,64.69-12.9,1.05-23.57,1.92-34,2.77-5.18-12.37-.57-26.89-15.12-34.64-2.97,9.06-5.72,17.45-8.4,25.63H.26c0-4.13-.64-7.59.1-10.71C5.77,57.47,10.71,34.52,24.11,14.52,30.54,4.92,38.6-.57,50.54.05c7.9.41,15.84.08,24.32,1.53-10.73,11.29-29.17,14.51-32.25,33.01Z"/>
  </g>
</svg>