<?xml version="1.0" encoding="UTF-8"?>
<svg id="_레이어_2" data-name="레이어 2" xmlns="http://www.w3.org/2000/svg" viewBox="0 0 79.19 100">
  <defs>
    <style>
      .cls-1 {
        fill: #fff;
        stroke-width: 0px;
      }
    </style>
  </defs>
  <g id="_레이어_1-2" data-name="레이어 1">
    <g>
      <path class="cls-1" d="M34.71,98.06c.41-3,1.07-5.76,1.12-8.53.15-7.92.08-15.85.03-23.77,0-1.41.11-3.11-.58-4.19-3.15-4.92-6.58-9.67-9.9-14.49-2.87-.28-3.82-2.97-4.2-4.78-1.31-6.26-5.15-10.87-8.81-15.71-2.81-3.71-5.42-7.57-8.58-12,1.49-.43,2.4-.47,3.02-.92,1.22-.87,1.22-2.72,0-2.8C2.27,10.6.29,8.52.09,4.04,0,1.94-.43,1.96,2.03,0c7.7,7.37,14.52,15.37,19.36,25.1,1.97,3.96,4.37,7.83,7.76,10.92,1.75,1.6,3.03,3.57,4.36,5.57,2.93,4.39,6.65,8.26,10.03,12.32,5.55-3.83,8.49-9.26,11.67-14.48,2.29-3.77,4.79-7.42,7.23-11.07,1.82-2.72,3.8-5.27,5.1-8.33,1.74-4.1,5.21-6.7,8.3-9.74,2.3,1.43,1.99,3.06,1.27,4.55-2.73,5.67-6.47,10.73-9.98,15.92-1.85,2.74-4.31,5.12-5.82,8.01-.72,1.38-1.2,1.84-2.51,1.7-1.57-.17-1.63.77-2.22,2-2.85,6.04-5.99,11.93-9.55,17.63-1.73,2.77-1.75,6.72-2.17,10.19-.33,2.68.81,5.91-.32,8.03-1.6,3.03,1.28,5.07.41,7.86-.77,2.49-.13,5.4-.17,8.12-.09,5.71-2.17,6.9-7.81,4.55-.84-.35-1.72-.61-2.28-.8Z"/>
      <path class="cls-1" d="M46.64,90.94c1.85.25,3.67.44,5.47.75,1.13.19,2.22.73,3.34.82,3.85.3,7.82-.03,11.53.82,3.49.8,6.31,3.71,10.14,4.07.86.08,1.65.81,2.07,1.96-5.79-.15-11.14,1.67-16.66-.68-2.71-1.16-6.33-.19-9.53-.2q-6.65-.03-6.36-7.54Z"/>
    </g>
  </g>
</svg>