<?xml version="1.0" encoding="UTF-8"?>
<svg id="_레이어_2" data-name="레이어 2" xmlns="http://www.w3.org/2000/svg" viewBox="0 0 53.82 100">
  <defs>
    <style>
      .cls-1 {
        fill: #fff;
        stroke-width: 0px;
      }
    </style>
  </defs>
  <g id="_레이어_1-2" data-name="레이어 1">
    <path class="cls-1" d="M22.34,50.46c2.31-6.2,4.63-12.4,6.93-18.6,3.42-9.22,6.95-18.4,10.19-27.68.87-2.48,2.04-3.39,4.61-3.21,2.98.21,5.99.05,9.74.05-3.37,9.98-6.43,19.55-9.85,28.99-4.56,12.6-9.43,25.08-14.08,37.65-.41,1.11-.42,2.53-.15,3.69,1.99,8.3,4.05,16.57,6.2,24.83.77,2.97-.32,4-3.2,3.8-2.99-.22-6.02-.13-8.98-.58-1.06-.16-2.58-1.35-2.81-2.32-4.44-18.83-8.82-37.67-13-56.56C5.35,28.71,3.08,16.83.69,4.98.41,3.6.29,2.18,0,.08,2.97.08,5.66-.18,8.25.23c.89.14,1.91,1.87,2.19,3.03,3.75,15.61,7.38,31.25,11.04,46.89.29.1.57.21.86.31Z"/>
  </g>
</svg>