<?xml version="1.0" encoding="UTF-8"?>
<svg id="_레이어_2" data-name="레이어 2" xmlns="http://www.w3.org/2000/svg" viewBox="0 0 73.97 90.8">
  <defs>
    <style>
      .cls-1 {
        fill: #fff;
        stroke-width: 0px;
      }
    </style>
  </defs>
  <g id="_레이어_1-2" data-name="레이어 1">
    <path class="cls-1" d="M45.11,89.87c-1.14.49-1.29.61-1.46.62-14.65.9-15.32.86-14.54-13.8.85-15.9-1.61-30.34-11.02-43.68C12.23,24.71,7.92,15.32,2.96,6.4,2.03,4.74,1.33,2.95,0,.09,5.77.09,10.55-.21,15.26.27c1.48.15,3.13,2.17,4.05,3.72,5.85,9.79,11.52,19.7,17.48,29.96,5.49-9.18,11.2-18.04,16.16-27.3,2.57-4.79,5.45-6.96,10.93-5.93,2.88.54,5.95.1,10.09.1-3.61,6.27-6.5,11.33-9.42,16.38-5.74,9.93-11.62,19.79-17.16,29.83-1.31,2.37-2.12,5.32-2.17,8.03-.23,11.63-.1,23.26-.1,34.8Z"/>
  </g>
</svg>