<?xml version="1.0" encoding="UTF-8"?>
<svg id="_레이어_2" data-name="레이어 2" xmlns="http://www.w3.org/2000/svg" viewBox="0 0 84.66 100">
  <defs>
    <style>
      .cls-1 {
        fill: #fff;
        stroke-width: 0px;
      }
    </style>
  </defs>
  <g id="_레이어_1-2" data-name="레이어 1">
    <path class="cls-1" d="M84.66,3.63c-8.22,14.73-15.76,29.69-24.75,43.73-4.81,7.51-7.61,14.27-6.09,23.38,1.57,9.42,1.34,19.14,1.92,29.27H20.3c-.98-9.62-3.6-19.36-2.52-28.67,1.35-11.67-2.73-20.82-7.99-30.22C2.9,28.82-.94,13.23.2,1.12,7.65.72,15.3.31,20.98,0c5.23,8.05,9.29,14.31,14.46,22.27,3.37-2.95,6.75-4.96,8.83-7.88C53.73,1.03,68.11-3.35,84.66,3.63Z"/>
  </g>
</svg>