<?xml version="1.0" encoding="UTF-8"?>
<svg id="_레이어_2" data-name="레이어 2" xmlns="http://www.w3.org/2000/svg" viewBox="0 0 86.26 94.6">
  <defs>
    <style>
      .cls-1 {
        fill: #fff;
        stroke-width: 0px;
      }
    </style>
  </defs>
  <g id="_레이어_1-2" data-name="레이어 1">
    <path class="cls-1" d="M31.63,33.28c-10.39,19.6-9.73,40.27-11.58,60.83h-12.05c2.23-20.26,3.25-40.42,12.02-59.78C13.64,23.43,7.07,12.21,0,.14h11.53c4.46,7.93,9.03,16.07,14.06,25.02,5.46-8.67,10.58-16.8,15.6-24.78h10.89c-5.55,9.43-10.74,18.25-16.13,27.4,2.91,5.09,5.82,10.18,9.03,15.78C54.13,28.91,63.02,14.67,72.18,0c4,.22,8.38.46,14.08.77-2.87,3.05-5.32,4.96-6.89,7.42-8.14,12.75-16.31,25.49-23.86,38.58-1.81,3.13-1.77,7.59-1.8,11.45-.09,10.87.24,21.75.37,32.62.01,1.12-.2,2.24-.35,3.76h-11.26c-.14-2.15-.41-4.4-.42-6.66-.05-8.73-.65-17.53.15-26.19,1.02-11.02-4.52-19.11-10.57-28.47Z"/>
  </g>
</svg>