<?xml version="1.0" encoding="UTF-8"?>
<svg id="_레이어_2" data-name="레이어 2" xmlns="http://www.w3.org/2000/svg" viewBox="0 0 86.42 100">
  <defs>
    <style>
      .cls-1 {
        fill: #fff;
        stroke-width: 0px;
      }
    </style>
  </defs>
  <g id="_레이어_1-2" data-name="레이어 1">
    <path class="cls-1" d="M25.66,98.62H8.32C7.73,66.42,10.43,34.26,0,2.39c11.73-.54,22.04-1.01,33.14-1.52,5.96,11.24,12.2,22.99,18.91,35.65,6.62-12.27,13-24.11,19.7-36.52,4.39.82,9.01,1.68,14.67,2.74-2.52,4.65-4.68,8.61-6.82,12.59-4.55,8.46-9.38,16.78-13.48,25.45-1.8,3.79-2.85,8.27-2.95,12.47-.35,14.8-.14,29.61-.14,45.22-5.71.48-11.57.97-18.28,1.53-.4-2.69-1.06-5.13-1.09-7.58-.16-12.68.06-25.38-.37-38.05-.14-3.99-1.23-8.24-3.01-11.81-5.09-10.18-10.75-20.09-16.23-30.08-.63-1.15-1.54-2.14-2.32-3.21-.65.12-1.29.24-1.94.36,1.41,14.66,3.16,29.31,4.13,44,.97,14.75,1.17,29.54,1.73,44.98Z"/>
  </g>
</svg>