<?xml version="1.0" encoding="UTF-8"?>
<svg id="_레이어_2" data-name="레이어 2" xmlns="http://www.w3.org/2000/svg" viewBox="0 0 70.89 100">
  <defs>
    <style>
      .cls-1 {
        fill: #fff;
        stroke-width: 0px;
      }
    </style>
  </defs>
  <g id="_레이어_1-2" data-name="레이어 1">
    <path class="cls-1" d="M0,.42h14.48c6.84,10.9,13.99,22.29,21.47,34.21,7.2-11.89,14.16-23.37,20.98-34.63h13.97c-1.06,1.88-1.72,3.15-2.48,4.36-8.14,12.98-16.38,25.91-24.38,38.99-1.18,1.93-1.74,4.52-1.76,6.82-.12,14.28,0,28.57.03,42.85,0,1.96,0,3.92,0,6.44-4.14.19-7.84.35-12,.54-.25-2.44-.63-4.5-.64-6.56-.09-13.52.15-27.06-.31-40.57-.13-3.86-1.55-8.07-3.57-11.39C17.82,28.39,9.37,15.59,1.11,2.68c-.31-.49-.52-1.04-1.11-2.25Z"/>
  </g>
</svg>