<?xml version="1.0" encoding="UTF-8"?>
<svg id="_레이어_2" data-name="레이어 2" xmlns="http://www.w3.org/2000/svg" viewBox="0 0 85.92 100">
  <defs>
    <style>
      .cls-1 {
        fill: #fff;
        stroke-width: 0px;
      }
    </style>
  </defs>
  <g id="_레이어_1-2" data-name="레이어 1">
    <path class="cls-1" d="M58.07,83.91v-17.06h25.46v33.14H1.45c-.04-.42-.09-.73-.09-1.05.02-9.7.06-19.4.07-29.11,0-.8.2-1.4.84-1.93,5.83-4.84,11.64-9.71,17.47-14.56,1.31-1.09,2.69-2.11,4.02-3.18.21-.17.34-.43.75-.96-8.4-.15-16.47-.29-24.51-.43v-19.49c.57,0,1,0,1.42,0,19.52.03,39.03.07,58.55.1,1.82,0,1.83,0,1.84-1.81.01-2.16.02-4.31.02-6.47,0-.1-.07-.2-.15-.44H.35V0h85.56c0,.48,0,.84,0,1.2-.02,5.73-.06,11.45-.05,17.18,0,1.15-.36,2-1.19,2.84-9.17,9.25-19.17,17.58-29.06,26.02-9.44,8.05-18.89,16.1-28.35,24.12-.6.51-.86,1.04-.86,1.8,0,3.23,0,6.47-.07,9.7-.02.9.47.92,1.12.93,6.32.04,12.64.1,18.96.13,3.82.02,7.65,0,11.65,0Z"/>
  </g>
</svg>