<?xml version="1.0" encoding="UTF-8"?>
<svg id="_레이어_2" data-name="레이어 2" xmlns="http://www.w3.org/2000/svg" viewBox="0 0 76.77 100">
  <defs>
    <style>
      .cls-1 {
        fill: #fff;
        stroke-width: 0px;
      }
    </style>
  </defs>
  <g id="_레이어_1-2" data-name="레이어 1">
    <g>
      <path class="cls-1" d="M3.37,20.26c-.02-.48-.06-.96-.07-1.44-.01-2.5.01-4.99-.02-7.49-.04-3.18-.13-6.35-.19-9.53,0-.34.01-.69,0-1.03C3.07.21,3.32-.02,3.88,0c.88.04,1.76.03,2.64.06,3.52.09,7.04.23,10.56.26,10.32.09,20.64.14,30.96.19,1.96,0,3.91-.1,5.87-.13.46,0,.92.08,1.59.14-.57.8-1.08,1.34-1.39,1.98-1.04,2.15-2.04,4.31-3,6.5-.74,1.7-1.36,3.44-2.08,5.15-3.69,8.87-7.43,17.71-11.08,26.59-2.45,5.95-4.73,11.97-7.19,17.92-3.06,7.39-6.21,14.74-9.35,22.09-1.24,2.91-2.62,5.78-3.81,8.71-.6,1.48-1.01,3.05-1.4,4.61-.3,1.21.24,2,1.45,2.26,3.19.66,6.39,1.29,9.65,1.49,2.58.16,5.15.39,7.73.58.45.03.75.18.76.69,0,.56-.37.61-.79.61-.39,0-.78,0-1.17,0-8.71.01-17.42.01-26.13.05-1.95,0-3.91.16-5.86.24-.39.01-.83.06-1.15-.1-.3-.14-.61-.51-.67-.83-.07-.4.02-.89.63-.97.33-.04.65-.2.99-.26,3.24-.65,5.65-2.56,7.64-5.08,1.95-2.47,3.45-5.22,4.69-8.09,3.45-8.02,6.91-16.03,10.27-24.09,2.93-7.02,5.73-14.09,8.61-21.14,3.76-9.21,7.53-18.42,11.28-27.63.53-1.31,1.02-2.64,1.43-3.99.38-1.25,0-1.69-1.32-1.77-.1,0-.2,0-.29,0-9.05.01-18.1-.01-27.15.06-1.59.01-3.22.3-4.76.7-3.04.8-5.15,2.76-6.12,5.77-.61,1.9-1,3.86-1.51,5.79-.18.68-.42,1.34-.63,2.01-.13-.04-.26-.07-.38-.11Z"/>
      <path class="cls-1" d="M40.27,46.46c.87-.76,1.7-1,2.52-1.21,2.03-.5,4.08-.92,6.12-1.41.72-.17.93.22,1.12.8.86,2.59,1.72,5.18,2.64,7.74,2.71,7.56,5.45,15.12,8.19,22.68,1.73,4.76,3.46,9.52,5.21,14.28.97,2.64,2.26,5.07,4.48,6.93,1.39,1.17,2.97,1.84,4.72,2.21.26.06.56-.07.84-.05.18.01.45.07.53.2.19.31.23.69-.23.82-.46.13-.95.24-1.43.24-2.1.03-4.21.01-6.31.01-6.6,0-13.21,0-19.81-.04-1.42,0-2.83-.16-4.25-.24-.36-.02-.77-.08-.66-.54.06-.27.36-.52.61-.68.19-.11.47-.07.72-.08,1.95-.1,3.9-.18,5.85-.3,2.78-.17,5.51-.67,8.19-1.43,1.83-.51,2.01-.97,1.09-2.74-2.3-4.43-4.06-9.08-5.62-13.8-1.53-4.62-3.06-9.25-4.53-13.89-1.58-4.96-3.09-9.95-4.65-14.92-.29-.93-.68-1.83-1.06-2.72-.52-1.21-1.47-1.77-2.78-1.77-.42,0-.83-.05-1.49-.09Z"/>
    </g>
  </g>
</svg>