<?xml version="1.0" encoding="UTF-8"?>
<svg id="_레이어_2" data-name="레이어 2" xmlns="http://www.w3.org/2000/svg" viewBox="0 0 108.91 100">
  <defs>
    <style>
      .cls-1 {
        fill: #fff;
        stroke-width: 0px;
      }
    </style>
  </defs>
  <g id="_레이어_1-2" data-name="레이어 1">
    <path class="cls-1" d="M0,100c20.51-27.25,42.22-53.51,65.5-79.29-14.99-1.73-29.56-.55-44.29-.49.23-6.7.46-13.45.68-20.22,28.38.28,56.77.56,85.4.84-.02,4.06-.97,8.19-3.65,11.44-9.54,11.53-19.39,22.82-29,34.29-7.27,8.69-14.4,17.5-21.52,26.31-2.93,3.63-5.66,7.41-8.48,11.12-.17.22-.31.45-.45.69-1.38,2.33-.79,3.62,1.98,3.7,9.83.29,19.7.33,29.23-2.51,8-2.38,14.64-6.84,17.77-14.96,1.15-3,1.18-6.42,1.77-9.64.31-1.67.45-3.46,1.17-4.95,1.31-2.69,3.18-4.78,6.74-4.26,1.74.25,3.55.04,5.48.04.2,1.33.52,2.53.53,3.73.05,7.49.14,14.98,0,22.47-.13,7.24-.5,14.47-.76,21.7H0ZM26.05,10.18c1.47.05,2.62-.4,2.75-2.07.12-1.52-1.28-2.97-2.81-2.97-1.53,0-2.47.7-2.53,2.33-.07,1.78.76,2.64,2.59,2.71ZM49.44,5.3c-2.12.09-4.1.14-6.07.31-.5.04-.96.5-1.44.77.44.28.85.75,1.31.81,1.49.19,3.01.2,4.51.34,1.58.15,2.16-.48,1.69-2.23ZM98.89,5.91v.69c1.16.19,2.33.48,3.5.51.38.01.79-.64,1.18-.99-.39-.33-.8-.98-1.16-.94-1.19.12-2.35.47-3.52.74ZM78.36,11.11c2.37,1.35,3.31.9,4.29-1.89-1.48.65-2.7,1.19-4.29,1.89Z"/>
  </g>
</svg>