<?xml version="1.0" encoding="UTF-8"?>
<svg id="_레이어_2" data-name="레이어 2" xmlns="http://www.w3.org/2000/svg" viewBox="0 0 84.01 100">
  <defs>
    <style>
      .cls-1 {
        fill: #fff;
        stroke-width: 0px;
      }
    </style>
  </defs>
  <g id="_레이어_1-2" data-name="레이어 1">
    <path class="cls-1" d="M83.78,0c0,1.99-.03,3.78,0,5.58.07,4,.2,8,.22,12,0,.73-.23,1.58-.65,2.16-9.32,12.79-18.62,25.59-28.04,38.3-5.39,7.27-11,14.39-16.49,21.59-.65.86-1.22,1.78-1.96,2.88.75.04,1.21.09,1.67.09,14.3.04,28.6.07,42.9.1,2.01,0,2.05,0,2.05,2.02.02,5.06,0,10.11,0,15.29H0c18.4-26.87,36.61-53.47,55.01-80.35H1.16V0h82.63Z"/>
  </g>
</svg>