<?xml version="1.0" encoding="UTF-8"?>
<svg id="_레이어_2" data-name="레이어 2" xmlns="http://www.w3.org/2000/svg" viewBox="0 0 77.05 95.25">
  <defs>
    <style>
      .cls-1 {
        fill: #fff;
        stroke-width: 0px;
      }
    </style>
  </defs>
  <g id="_레이어_1-2" data-name="레이어 1">
    <path class="cls-1" d="M76.47,77.57c.27,5.03.77,9.11.52,13.15-.07,1.1-2.27,2.65-3.71,2.96-2.73.59-5.62.51-8.44.56-19.48.36-38.96.71-58.44,1.01-5.91.09-7.98-3.3-5.13-8.6,1.81-3.36,3.94-6.56,6.06-9.74,11.61-17.46,23.25-34.9,34.93-52.31,2.39-3.56,5.01-6.96,8.51-11.78-8.06.65-14.9,1.14-21.73,1.77-3.64.33-7.27,1.29-10.89,1.25-3.34-.04-6.67-1.03-10-1.6-2.04-.35-4.09-.7-6.67-1.15.15-3.15.33-6.72.52-10.74,9.97-.43,19.42-.89,28.88-1.24C43.02.66,55.17.24,67.32,0c1.98-.04,3.98.85,5.98,1.31-.7,1.77-1.12,3.72-2.14,5.28-16.37,25.05-32.81,50.05-49.94,76.11,18.57-1.86,36.58,2.12,55.24-5.14Z"/>
  </g>
</svg>