<?xml version="1.0" encoding="UTF-8"?>
<svg id="_레이어_2" data-name="레이어 2" xmlns="http://www.w3.org/2000/svg" viewBox="0 0 85.19 100">
  <defs>
    <style>
      .cls-1 {
        fill: #fff;
        stroke-width: 0px;
      }
    </style>
  </defs>
  <g id="_레이어_1-2" data-name="레이어 1">
    <g>
      <path class="cls-1" d="M83.55,71.08c-1.98,3.32-3.77,6.77-5.94,9.96-4.09,6.01-9.78,9.97-16.73,12.05-8.4,2.51-17.05,2.04-25.66,1.96-.93,0-1.86-.23-3.31-.42,1.02-1.57,1.91-2.66,2.48-3.9,2.07-4.53,4.01-9.11,6.04-13.66.42-.93,1.09-1.75,1.54-2.67.65-1.33,1.13-2.75,1.81-4.06,1.53-3,3.27-5.9,4.66-8.95,2.16-4.75,3.98-9.66,6.18-14.39,2.87-6.18,6.15-12.17,8.93-18.38,2.44-5.46,4.41-11.13,6.66-16.68,1.16-2.87,1.44-6.53,5.65-6.95.11-.01.23-.02.34-.03.53.05.99.16,1.42.31.08-.58.16-1.17.23-1.75-6.34-.11-12.68-.21-19.01-.27-5.72-.06-11.46.04-17.16.42-2.88.19-5.71,1.16-8.48,1.76-.08,1.14-.12,1.79-.18,2.68h25.17c1.02,1.65,0,2.64-.69,3.68-1.9,2.86-3.9,5.66-5.7,8.57-3.36,5.42-6.6,10.92-9.9,16.38-2.21,3.66-4.54,7.25-6.63,10.98-2.37,4.23-4.48,8.6-6.79,12.86-5.18,9.54-10.3,19.13-15.7,28.55-2.13,3.71-4.03,7.89-8.81,9.22-.44.12-.67,1.02-1.07,1.67,27.1-.51,53.71-1.02,80.65-1.53.17-9.82,2.14-19.33,1.54-29.45-.65.86-1.15,1.42-1.53,2.05Z"/>
      <path class="cls-1" d="M.03,26.92C-.12,18.41.16,12.51,2.82,7.05,6.99-1.53,16.54-1.97,22.25,4.07c3.12,3.31,4.63,7.55,6.09,11.7,1.43,4.04,2.48,8.26,3.27,12.48.67,3.61.65,7.3-.63,10.91-1.6,4.52-5.03,6.83-9.44,7.12-4.31.28-8.7-.14-13-.7-3.18-.41-5.11-2.75-6.12-5.77C.74,34.79-.04,29.64.03,26.92ZM18.89,30.27c.48-1.99,1.15-3.83,1.35-5.72.43-4.09.81-8.22-.54-12.24-.2-.58-.89-1.35-1.39-1.39-.52-.03-1.32.62-1.59,1.17-.47.98-.81,2.09-.87,3.17-.28,5.28-.47,10.56-.66,15.85-.1,2.59-.45,3-3.15,3.3-.1-1.23-.21-2.45-.29-3.67q-.17-2.46-1.47-2.49c-.94,5.62-.16,10.62,4.86,14.22,1.87,1.34,4.12.92,4.96-1.22,1.39-3.53,1.29-7.21.63-10.88-.03-.15-.25-.26-.42-.41-.56.12-1.13.24-1.42.3Z"/>
    </g>
  </g>
</svg>