<?xml version="1.0" encoding="UTF-8"?>
<svg id="_레이어_2" data-name="레이어 2" xmlns="http://www.w3.org/2000/svg" viewBox="0 0 76.59 100">
  <defs>
    <style>
      .cls-1 {
        fill: #fff;
        stroke-width: 0px;
      }
    </style>
  </defs>
  <g id="_레이어_1-2" data-name="레이어 1">
    <path class="cls-1" d="M13.65,0h60.87c.07,5.75.75,11.85-2.5,17.43-8.91,15.33-17.89,30.62-26.86,45.92-1.95,3.33-3.95,6.63-6.37,10.69h37.8v25.96H0c3.85-7.02,7.14-13.03,10.44-19.04,5.09-9.28,10.17-18.58,15.3-27.84,4.53-8.18,9.2-16.28,13.68-24.5,2.37-4.36,1.8-5.34-3.13-5.04-6.34.38-12.66,1.15-18.99,1.75-1.1.1-2.2.22-3.65.36V0Z"/>
  </g>
</svg>