<?xml version="1.0" encoding="UTF-8"?>
<svg id="_레이어_2" data-name="레이어 2" xmlns="http://www.w3.org/2000/svg" viewBox="0 0 84.99 100">
  <defs>
    <style>
      .cls-1 {
        fill: #fff;
        stroke-width: 0px;
      }
    </style>
  </defs>
  <g id="_레이어_1-2" data-name="레이어 1">
    <path class="cls-1" d="M48.13,22.2H1.22C.8,14.58.42,7.65,0,0h84.95c0,5.29.05,11.16-.05,17.03-.02.9-.61,1.87-1.13,2.67-9.22,14.22-18.53,28.39-27.66,42.67-2.49,3.9-4.46,8.12-7.09,12.96h35.96c0,7.65.07,14.73-.11,21.8-.02.71-1.51,1.97-2.34,1.98-26.8.38-53.61.63-80.41.89-.35,0-.7-.16-1.93-.46,1.43-3.12,2.47-6.24,4.18-8.94,9.31-14.76,18.75-29.43,28.23-44.08,4.2-6.49,8.6-12.84,12.87-19.28.79-1.19,1.35-2.53,2.66-5.04Z"/>
  </g>
</svg>