<?xml version="1.0" encoding="UTF-8"?>
<svg id="_레이어_2" data-name="레이어 2" xmlns="http://www.w3.org/2000/svg" viewBox="0 0 107.93 100">
  <defs>
    <style>
      .cls-1 {
        fill: #fff;
        stroke-width: 0px;
      }
    </style>
  </defs>
  <g id="_레이어_1-2" data-name="레이어 1">
    <path class="cls-1" d="M5.79,99.45c7.95-13.05,17.48-24.86,26.12-37.26,8.73-12.53,17.83-24.79,27.49-38.16H0V0h107.93c-.76,1.63-1.18,3.07-2.02,4.21-6.43,8.71-12.98,17.33-19.43,26.02-11.3,15.21-22.57,30.45-33.84,45.69-.61.83-1.1,1.76-2.02,3.25,1.92.18,3.35.47,4.76.43,16-.4,32.01-.87,48.01-1.27,3.91-.1,4.03.37,3.87,4.24-.22,5.39-.06,10.79-.06,17.23-5.14.07-10.56.27-15.97.19-16.6-.24-33.19-.58-49.79-.89-4.59-.09-9.18-.37-13.77-.3-6.98.1-13.97.41-21.89.67Z"/>
  </g>
</svg>