<?xml version="1.0" encoding="UTF-8"?>
<svg id="_레이어_2" data-name="레이어 2" xmlns="http://www.w3.org/2000/svg" viewBox="0 0 85.32 100">
  <defs>
    <style>
      .cls-1 {
        fill: #fff;
        stroke-width: 0px;
      }
    </style>
  </defs>
  <g id="_레이어_1-2" data-name="레이어 1">
    <path class="cls-1" d="M2,19.85c0-6.41-.02-11.86.01-17.3,0-1.49.15-2.7,2.38-2.53,7.5.58,15.01,1.22,22.53,1.29,16.85.16,33.7.03,50.55-.1,2.3-.02,3.08.72,3.06,2.98-.05,5.68.15,11.37.09,17.05-.01,1.11-.54,2.35-1.18,3.29-11.23,16.28-22.52,32.52-33.77,48.79-.79,1.14-1.41,2.41-2.42,4.15h42.07v22.53H0c0-6.7-.03-13.55.05-20.4,0-.64.53-1.56,1.08-1.88,7.44-4.24,11.56-11.53,16.33-18.1,8.08-11.14,15.72-22.6,23.52-33.95,1.08-1.57,2.01-3.26,3.58-5.83H2Z"/>
  </g>
</svg>