<?xml version="1.0" encoding="UTF-8"?>
<svg id="_레이어_2" data-name="레이어 2" xmlns="http://www.w3.org/2000/svg" viewBox="0 0 60.82 100">
  <defs>
    <style>
      .cls-1 {
        fill: #fff;
        stroke-width: 0px;
      }
    </style>
  </defs>
  <g id="_레이어_1-2" data-name="레이어 1">
    <path class="cls-1" d="M0,100c6.28-12.39,12.28-24.36,18.39-36.28,6.1-11.9,12.31-23.75,18.57-35.81-.83-.32-1.18-.58-1.51-.56-5.11.26-10.23.37-15.31.89-4.33.45-7.21,2.77-7.29,7.75-3.2-.39-6.16-.75-8.9-1.08V0c5.66,1.14,10.88,2.19,16.09,3.23,5.4,1.08,10.8,2.11,16.18,3.26.73.16,1.88.78,1.93,1.29.24,2.36,1.9,2.38,3.53,2.4,5.2.07,10.4.07,15.61.11,3.57.03,3.55.04,3.53,3.54-.08,17.24-.16,34.48-.2,51.72-.02,10.95.04,21.9.05,32.84,0,.53-.07,1.06-.11,1.62H0ZM51.59,71.02c.12.26.25.52.37.78.56-.44,1.58-.85,1.61-1.34.13-1.75,1.63-3.85-.82-5.13-.31-.16-1.02.44-1.59.71,1.03.5,1.56.76,2.09,1.02-.43.65-.86,1.29-1.41,2.11.17.11.59.41,1.09.75-.45.37-.9.74-1.34,1.11Z"/>
  </g>
</svg>