<?xml version="1.0" encoding="UTF-8"?>
<svg id="_레이어_2" data-name="레이어 2" xmlns="http://www.w3.org/2000/svg" viewBox="0 0 83.54 100">
  <defs>
    <style>
      .cls-1 {
        fill: #fff;
        stroke-width: 0px;
      }
    </style>
  </defs>
  <g id="_레이어_1-2" data-name="레이어 1">
    <g>
      <path class="cls-1" d="M0,97.67c18.97-26.92,35.9-54.41,56.42-78.74h17.71c-7.63,11.5-15.6,21.5-22.43,32.28-6.85,10.83-14.77,20.99-22.68,32.1h52.97c-.87,5.7-1.63,10.73-2.54,16.64-25.9-1.1-52.35,1.98-79.46-2.27Z"/>
      <path class="cls-1" d="M83.54.4v8.44c-4.96,2.23-9.44,3.68-14.94,1.2-3.24-1.46-8-1.58-11.36-.35-5.82,2.13-11.57,1.49-17.34,1.45-4.04-.03-7.57.35-9.35,3.48C25.56,9.62,20.86,4.91,16.35.4c10,0,21.18-1.13,31.98.4,7.04,1,13.94,1.11,20.91,1.3,2.13.06,4.27-1.35,6.46-1.64,2.36-.3,4.78-.07,7.84-.07Z"/>
    </g>
  </g>
</svg>