<?xml version="1.0" encoding="UTF-8"?>
<svg id="_레이어_2" data-name="레이어 2" xmlns="http://www.w3.org/2000/svg" viewBox="0 0 80.54 100">
  <defs>
    <style>
      .cls-1 {
        fill: #fff;
        stroke-width: 0px;
      }
    </style>
  </defs>
  <g id="_레이어_1-2" data-name="레이어 1">
    <path class="cls-1" d="M26.71,85.39h5.45c10.66,0,21.31-.06,31.97.03,3.66.03,7.5-.89,10.89,1.64.38.28,1.87-.93,2.96-1.51.65,4.2,1.32,8.6,2.01,13.06-6.25,1.46-42.92,1.87-79.99.75,1.05-1.18,2.2-1.88,2.15-2.49-.8-9.87,5.48-16.86,10.31-24.15,7.45-11.25,16.14-21.67,23.62-32.9,7.02-10.52,15.07-20.21,23.24-30.82H9.75V.11h43.34c7.1,0,14.22.2,21.31-.1,2.75-.12,4.89.68,5.87,2.83.81,1.77-.35,3.57-1.62,5.46-8.82,13.05-18.6,25.42-27.48,38.38-4.66,6.79-9.02,13.95-13.44,20.99-3.12,4.97-6.71,9.66-10.03,14.51-.44.64-.49,1.54-.98,3.2Z"/>
  </g>
</svg>