<?xml version="1.0" encoding="UTF-8"?>
<svg id="_레이어_2" data-name="레이어 2" xmlns="http://www.w3.org/2000/svg" viewBox="0 0 108.91 100">
  <defs>
    <style>
      .cls-1 {
        fill: #fff;
        stroke-width: 0px;
      }
    </style>
  </defs>
  <g id="_레이어_1-2" data-name="레이어 1">
    <g>
      <path class="cls-1" d="M108.83,55.83c0-1.2-.33-2.41-.53-3.73-1.93,0-3.74.21-5.48-.04-3.56-.52-5.43,1.57-6.74,4.26-.72,1.49-.86,3.28-1.17,4.95-.59,3.22-.62,6.65-1.77,9.64-3.13,8.13-10.33,11.17-17.77,14.96-3.73,1.9-7.17,7.24-7.65,10.52-.17,1.19-.25,2.39-.27,3.6h40.62c.26-7.23.64-14.46.76-21.7.13-7.49.04-14.98,0-22.47Z"/>
      <path class="cls-1" d="M21.89,0c-.23,6.77-.46,13.51-.68,20.22,14.73-.06,29.3-1.23,44.29.49C42.22,46.49,20.51,72.75,0,100h32.54c2.1-2.53,17.65-23.49,20.58-27.12,7.12-8.81,14.25-17.62,21.52-26.31,9.61-11.48,19.46-22.76,29-34.29,2.69-3.25,3.63-7.38,3.65-11.44-28.63-.28-57.02-.56-85.4-.84ZM28.8,8.11c-.13,1.66-1.28,2.12-2.75,2.07-1.83-.07-2.65-.93-2.59-2.71.06-1.63,1-2.33,2.53-2.33,1.53,0,2.93,1.46,2.81,2.97ZM47.76,7.52c-1.5-.14-3.01-.15-4.51-.34-.46-.06-.88-.53-1.31-.81.48-.27.94-.73,1.44-.77,1.97-.17,3.95-.21,6.07-.31.47,1.75-.1,2.37-1.69,2.23ZM78.36,11.11c1.59-.7,2.81-1.24,4.29-1.89-.98,2.79-1.92,3.25-4.29,1.89ZM102.39,7.11c-1.17-.03-2.34-.32-3.51-.51,0-.23,0-.46,0-.69,1.17-.26,2.34-.62,3.52-.74.35-.03.77.61,1.16.94-.39.35-.8,1-1.18.99Z"/>
    </g>
  </g>
</svg>