<?xml version="1.0" encoding="UTF-8"?>
<svg id="_레이어_2" data-name="레이어 2" xmlns="http://www.w3.org/2000/svg" viewBox="0 0 54.73 100">
  <defs>
    <style>
      .cls-1 {
        fill: #fff;
        stroke-width: 0px;
      }
    </style>
  </defs>
  <g id="_레이어_1-2" data-name="레이어 1">
    <g>
      <path class="cls-1" d="M0,12.28V0h54.67c0,1.13,0,2.14,0,3.16.02,2.21.06,4.41.06,6.62,0,.36-.04.79-.23,1.06-2.79,4-5.64,7.95-8.41,11.96-2.71,3.94-5.31,7.97-8.02,11.91-2.69,3.92-5.48,7.78-8.2,11.68-1.37,1.97-2.69,3.97-4.17,6.15h27.39v10.45H2.22C12.69,45.98,23,29.22,33.42,12.28H0Z"/>
      <path class="cls-1" d="M.21,100v-13.87c17.87.13,35.59.26,53.46.39v13.48H.21Z"/>
    </g>
  </g>
</svg>