<?xml version="1.0" encoding="UTF-8"?>
<svg id="_레이어_2" data-name="레이어 2" xmlns="http://www.w3.org/2000/svg" viewBox="0 0 91.85 100">
  <defs>
    <style>
      .cls-1 {
        fill: #fff;
        stroke-width: 0px;
      }
    </style>
  </defs>
  <g id="_레이어_1-2" data-name="레이어 1">
    <path class="cls-1" d="M58.51,74.51c9.19,0,18.49.02,27.79-.02,1.04,0,1.33.37,1.36,1.35.13,5.8.31,11.59.45,17.39.04,1.79,0,3.58,0,5.54-.98.05-2.04.13-3.1.16-8.09.22-16.18.49-24.27.64-10.77.2-21.54.37-32.31.44-5.9.04-11.8-.2-17.7-.2-1.68,0-2.8-.46-3.6-2.01-2.35-4.54-4.89-9.07-4.62-14.36.13-2.51,1.15-4.98,1.78-7.47.08-.33.29-.63.34-.96.42-2.45,2.14-3.81,4.02-5.17,1.59-1.14,2.95-2.59,4.41-3.91.36-.33.7-.68,1.03-1.04,7.1-7.73,13.99-15.64,20-24.25,1.53-2.19,2.67-4.7,3.66-7.2.59-1.51.11-1.92-1.61-2.07-1.79-.16-3.59-.23-5.39-.32-1.94-.09-3.88-.19-5.83-.21-.66,0-1.36.13-1.99.36-3.93,1.43-7.92,2.23-12.13,1.75-.68-.08-1.53.3-2.13.71-1.6,1.08-3.59.65-5.03-.65-2.52-2.28-3.02-5.24-3.19-8.29C.06,17.37-.26,10.02.3,2.67c.09-1.13.45-1.69,1.59-1.79C4.99.59,8.08-.05,11.17,0c6.8.12,13.6.44,20.37.94,5.78.43,11.51,1.34,17.29,1.84,4.5.39,9.02.5,13.53.7,5.23.23,10.48.27,15.7.68,3.41.27,6.76.16,10.12-.36,1.92-.29,1.97-.07,2.07,1.88.23,4.56.67,9.11.91,13.68.29,5.69.5,11.39.68,17.09.07,2.34-.06,2.23-2.27,3.11-1.02.41-1.94,1.27-2.71,2.1-5.22,5.65-10.2,11.55-15.64,16.99-4.89,4.89-9.16,10.19-12.71,15.86Z"/>
  </g>
</svg>