<?xml version="1.0" encoding="UTF-8"?>
<svg id="_레이어_2" data-name="레이어 2" xmlns="http://www.w3.org/2000/svg" viewBox="0 0 69.14 100">
  <defs>
    <style>
      .cls-1 {
        fill: #fff;
        stroke-width: 0px;
      }
    </style>
  </defs>
  <g id="_레이어_1-2" data-name="레이어 1">
    <g>
      <path class="cls-1" d="M65.15,12.98c-.42,1-.68,2.11-1.28,2.98-5.35,7.78-11.23,15.2-14.55,24.24-1.46,3.99-2.71,4.78-7.29,7.75.54.71.96,1.51,1.6,2.06,1.88,1.62,1.84,3.16.7,5.37-1.54,3-3.21,5.74-5.47,8.32-3.82,4.37-7.07,9.23-10.59,13.86-1.09,1.44-2.45,2.71-3.36,4.25-.63,1.06-.7,2.44-1.17,4.28h22.82c6.1,0,12.2-.04,18.3.02,3.05.03,4.15,1.09,4.24,4,.09,3.24.02,6.48.02,9.89H.52c-1.53-2.9.64-5.04,2.03-7.09,2.77-4.07,5.75-8.02,8.92-11.79,6.71-7.98,12.67-16.55,19.77-24.25,4.67-5.07,8.59-10.88,12.44-16.63,2.43-3.64,4.74-7.41,7.16-11.06,2.37-3.58,5.59-6.6,8.34-9.95,1.8-2.19,3.44-4.53,5.15-6.8.27.18.54.36.81.54Z"/>
      <path class="cls-1" d="M16.97,2.9c.76-1.85,1.92-3,4.14-2.72,4.7.58,9.38-.47,14.22,1.17,3.78,1.27,8.33.39,12.53.22,5.43-.22,10.95.96,16.28-1.29,1.34-.56,3.12-.08,4.89-.08-.06,1.07.05,2.19-.16,2.25-2.51.75-5.05,1.77-7.61,1.86-2.97.1-5.73.61-8.55,1.44-1.83.54-3.51,2.41-5.98.26-1.19-1.04-4.05-.18-6.15-.18-6.31,0-12.62-.05-18.93.02-2.26.03-4.06-.41-4.69-2.95Z"/>
      <path class="cls-1" d="M67.7,8.64c-.21,1.07.7,2.7-1.41,2.82.21-1.07-.7-2.7,1.41-2.82Z"/>
      <path class="cls-1" d="M64.89,12.87c.47-.47.94-.94,1.41-1.41-.47.47-.94.94-1.41,1.41Z"/>
      <path class="cls-1" d="M68.52,7.35c.16.16.46.39.43.45-.17.31-.41.57-.63.85l-.63-.63c.27-.22.55-.44.82-.67Z"/>
    </g>
  </g>
</svg>