<?xml version="1.0" encoding="UTF-8"?>
<svg id="_레이어_2" data-name="레이어 2" xmlns="http://www.w3.org/2000/svg" viewBox="0 0 106.3 100">
  <defs>
    <style>
      .cls-1 {
        fill: #fff;
        stroke-width: 0px;
      }
    </style>
  </defs>
  <g id="_레이어_1-2" data-name="레이어 1">
    <path class="cls-1" d="M66.82,80.04c2.18-10.13,5.1-18.84,8.75-27.32,1.7-3.96,2.87-8.15,4.52-12.13.93-2.24,1.95-4.72,3.66-6.3,2.58-2.39,3.68-4.84,3.41-8.34-.11-1.46.91-3.08,1.66-4.5,2.29-4.36,5.87-7.85,8.03-12.42,1.41-3,5.17-3.95,9.45-3.48v6.78c-4.19-1.85-5.5-1.66-6.97,1.32-4.66,9.44-8.8,19.1-12.32,29.03-3.69,10.42-7.58,20.78-11.5,31.12-3.25,8.57-6.69,17.07-10.28,26.19-3.98-.71-8-.85-9.93-6.24-2.35-6.58-6.38-12.61-8.33-19.28-2.22-7.58-5.68-14.6-8.34-21.96-2.37-6.56-5.46-12.86-8.68-20.33-1.18,1.75-1.86,2.65-2.42,3.62-3,5.16-5.51,10.45-7.51,16.16-2.11,6.04-6.68,11.09-8.55,17.46-.51,1.74-2.47,3.05-3.66,4.45-1.17-.91-1.79-1.52-2.51-1.94-6.19-3.62-6.51-6.32-3.24-12.37,3.7-6.86,6.72-14.13,9.65-21.37,3.44-8.5,6.26-17.25,9.7-25.74,3.35-8.27,3.55-8.2,12.71-12.47,1.25,2.63,2.57,5.21,3.72,7.87,3.96,9.16,8.27,18.19,11.67,27.55,4.34,11.93,8.49,23.89,14.27,35.24,1.32,2.59,1.84,5.59,3.04,9.38Z"/>
  </g>
</svg>