<?xml version="1.0" encoding="UTF-8"?>
<svg id="_레이어_2" data-name="레이어 2" xmlns="http://www.w3.org/2000/svg" viewBox="0 0 95.23 100">
  <defs>
    <style>
      .cls-1 {
        fill: #fff;
        stroke-width: 0px;
      }
    </style>
  </defs>
  <g id="_레이어_1-2" data-name="레이어 1">
    <path class="cls-1" d="M0,18.76c.56-4.89,1.07-9.07,1.5-13.26C1.87,1.9,3.47.14,7.23.07c7.28-.13,14.57-.04,21.85-.04h65.77v16.06c-17.7,15.93-30.69,36.41-46.13,56.33,15.87.26,30.63,4.14,46.49,2.27,0,6.79.08,12.95-.03,19.1-.08,4.51-1.62,6.39-6.02,6.09-9.08-.62-18.17,1.5-27.34-1.68-4.96-1.72-11.03-.71-16.53-.19-5.27.5-11.02-2.4-15.8,1.97H6.58c-2.62-5.01.08-9.02,2.6-12.78,5.03-7.49,10.73-14.44,16.6-21.35,7.04-8.29,13.97-16.79,20.3-25.76,5.17-7.33,11.89-13.56,18.86-21.32H0Z"/>
  </g>
</svg>