<?xml version="1.0" encoding="UTF-8"?>
<svg id="_레이어_2" data-name="레이어 2" xmlns="http://www.w3.org/2000/svg" viewBox="0 0 99.09 100">
  <defs>
    <style>
      .cls-1 {
        fill: #fff;
        stroke-width: 0px;
      }
    </style>
  </defs>
  <g id="_레이어_1-2" data-name="레이어 1">
    <path class="cls-1" d="M62.94,85.93v-23.85h15.37c.03.32.1.71.1,1.11-.02,6.98-.04,13.96-.07,20.94,0,1.93.15,2.11,1.99,2.12,2.21.01,4.1,1.3,4.66,3.37.16.57-.12,1.27-.17,1.63.42.62,1.09,1.16,1.12,1.73.12,2.35.05,4.72.05,7.03H0c.3-.66.38-1.07.62-1.34,8.26-9.39,16.45-18.86,24.84-28.14,12.48-13.8,25.12-27.45,37.66-41.18,4.14-4.53,8.19-9.14,12.3-13.7.81-.9,1.67-1.74,2.54-2.64-.05-.04-.14-.2-.23-.2-4.32.02-8.61.1-12.76,1.68-3.82,1.45-6.6,4.15-9.04,7.19-4.98,6.19-9.77,12.54-14.69,18.77-6.08,7.7-12.26,15.32-18.32,23.04-1.43,1.82-3.12,2.09-5.44,1.61,6.99-17.57,15.7-34.31,23.59-51.68-2.11,0-3.92-.12-5.7.03-2.96.25-5.87.2-8.83-.09-2.67-.26-5.39-.03-8.09-.08-1-.02-1.47.41-1.5,1.34-.06,2.08-.09,4.16-.11,6.24,0,.69.07,1.37.12,2.17H6.15V.32h44.84v7.87l.51.11c.38-1.08.81-2.15,1.14-3.24.43-1.42.72-2.88,1.22-4.27.13-.35.82-.7,1.25-.7C63.3.02,71.48,0,79.67,0c6.05,0,12.09.03,18.14.05.35,0,.71.05,1.28.09-.31.63-.51,1.13-.79,1.58-4.35,7.09-8.48,14.32-13.12,21.21-4.88,7.24-10.22,14.18-15.41,21.21-3.81,5.16-7.59,10.35-11.58,15.37-5.69,7.16-11.55,14.17-17.35,21.24-.88,1.07-1.91,2.04-2.69,3.18-.91,1.31-.59,1.97,1,2.04,3.37.14,6.74.22,10.11.22,4.09,0,8.18-.09,12.26-.15.36,0,.72-.06,1.41-.12ZM55.75,9.7c1.22.49,2.23,1.09,3.32,1.27.53.09,1.46-.47,1.72-.98.34-.66-.09-1.41-.93-1.7-1.55-.53-3.09-1.09-4.65-1.58-.83-.26-1.66-.28-2.04.59.67.23,1.28.34,1.78.65.53.33.95.83,1.44,1.27-.1.08-.27.21-.64.49Z"/>
  </g>
</svg>