<?xml version="1.0" encoding="UTF-8"?>
<svg id="_레이어_2" data-name="레이어 2" xmlns="http://www.w3.org/2000/svg" viewBox="0 0 95.14 100">
  <defs>
    <style>
      .cls-1 {
        fill: #fff;
        stroke-width: 0px;
      }
    </style>
  </defs>
  <g id="_레이어_1-2" data-name="레이어 1">
    <g>
      <path class="cls-1" d="M2.18,49.72c8.71.42,17.39.83,26.18,1.26,0,3.62,0,6.83,0,10.03,0,1.42,0,2.83.02,4.25.04,2.96.85,3.84,3.76,4.73,3.48,1.06,6.97.94,10.5.53,2.48-.28,4.99-.35,7.46-.74.75-.12,1.78-.86,1.99-1.53.69-2.2,1.34-4.48,1.49-6.77.24-3.68.06-7.39.06-11.36,3.26,0,6.34,0,9.43,0,2.45,0,4.9.03,7.36.05,5.62.05,10.76,1.94,15.35,4.92,3.16,2.06,5.22,5.37,6.61,8.93,1.74,4.46,2.42,9.16,2.54,13.91.18,7.02.16,14.05.21,21.07,0,.37-.08.73-.11,1.01H2.18v-50.28Z"/>
      <path class="cls-1" d="M0,.2c2.78,0,5.49.02,8.2,0C15.21.14,22.22.02,29.23,0c7.12-.01,14.25.07,21.37.12.71,0,1.42,0,2.12.02,7.61.3,15.22.55,22.83.95,3.14.16,6.26.71,9.4.93,2.17.15,4.37.03,6.66.03.52,11.31,1.02,22.16,1.53,33.24-3.28-.17-6.52.01-9.62-.58-5.01-.96-9.9-2.53-14.88-3.67-8.85-2.02-17.68-4.18-26.85-4.27-11.44-.11-22.87-.29-34.31-.43-2.43-.03-4.87,0-7.49,0V.2Z"/>
    </g>
  </g>
</svg>