<?xml version="1.0" encoding="UTF-8"?>
<svg id="_레이어_2" data-name="레이어 2" xmlns="http://www.w3.org/2000/svg" viewBox="0 0 54.71 100">
  <defs>
    <style>
      .cls-1 {
        fill: #fff;
        stroke-width: 0px;
      }
    </style>
  </defs>
  <g id="_레이어_1-2" data-name="레이어 1">
    <path class="cls-1" d="M23.75,90.79v9.21H0v-9.98c.79-.07,1.42-.11,2.05-.18,2.49-.3,3.78-1.59,3.91-4.09.15-2.79.24-5.59.26-8.38.18-24.23.33-48.45.51-72.68.01-1.51.14-3.01.22-4.68C9.15,0,11.28-.01,13.42.01c10.31.12,20.62.27,30.92.34,1.36,0,1.87.39,1.83,1.78-.08,2.9-.02,5.8-.02,8.75h-29.28v24.18c.31.06.63.17.96.18,4.66.12,9.32.29,13.97.32,9.51.05,16.15,4.46,20.53,12.83,4.15,7.94,2.91,21.83-4.04,28.29-4.11,3.82-11.89,6.78-18,3.42-4.3-2.36-8.88-1.96-13.47-1.8-.39.01-1.07.63-1.08.98-.14,3.43-.23,6.87-.14,10.3.01.42,1.1,1.12,1.73,1.16,2.07.15,4.16.06,6.43.06ZM16.52,57.95h0c0,4.01.03,8.03-.02,12.04-.01,1.18.34,1.66,1.6,1.62,5.64-.17,11.28-.19,16.92-.4,4.01-.15,6.16-2.18,6.65-6.19.27-2.19.3-4.41.38-6.61.27-7.36-5.58-13.57-12.97-13.73-3.66-.08-7.33.04-10.99-.02-1.22-.02-1.61.37-1.59,1.6.07,3.9.03,7.79.03,11.69Z"/>
  </g>
</svg>