<?xml version="1.0" encoding="UTF-8"?>
<svg id="_레이어_2" data-name="레이어 2" xmlns="http://www.w3.org/2000/svg" viewBox="0 0 82.99 100">
  <defs>
    <style>
      .cls-1 {
        fill: #fff;
        stroke-width: 0px;
      }
    </style>
  </defs>
  <g id="_레이어_1-2" data-name="레이어 1">
    <path class="cls-1" d="M4.76,15.04c.24-4.5.48-9.23.75-14.26C8.24.48,10.67-.04,13.07,0c8.02.16,16.04.35,24.04.9,3.04.21,6.14,1.15,9,2.29,8.91,3.53,12.84,10.87,13.97,19.84.71,5.63-.1,11.13-3.84,15.8-.36.44-.59.99-.83,1.52-.08.18-.01.42-.01.94.67.13,1.41.25,2.15.42,4.91,1.13,9.83,2.19,14.71,3.43,5.36,1.36,8.21,5.36,9.53,10.33,1.74,6.56,1.74,13.14-1.02,19.56-2.81,6.54-7.92,10.76-13.95,14.02-11.05,5.98-23.02,9.01-35.44,9.93-9.65.72-19.35.7-29.03,1-.71.02-1.42,0-2.35,0,.34-4.53.6-8.9,1.09-13.24.05-.48,1.35-1.09,2.13-1.18,3.21-.4,6.47-.47,9.66-.97,3.44-.54,5.16-2.76,5.42-6.29.49-6.77,1.28-13.53,1.68-20.3.71-12.12,1.23-24.26,1.82-36.39.04-.79.03-1.59.02-2.39-.07-3.84-1.08-4.92-4.98-4.83-3.87.09-7.74.4-12.09.65ZM35.35,85c2.37-.31,4.6-.49,6.78-.91,11.11-2.14,17.83-11.93,15.35-22.26-1.83-7.62-11.13-14.74-18.9-14.37-.51.02-1.37.85-1.4,1.35-.67,9.65-1.26,19.31-1.81,28.98-.13,2.29-.02,4.59-.02,7.22ZM40.04,15.49c-.23,4.5-.46,8.98-.69,13.5,3.36-.97,5.86-5.1,5.49-8.87-.27-2.67-1.88-4.31-4.8-4.63Z"/>
  </g>
</svg>