<?xml version="1.0" encoding="UTF-8"?>
<svg id="_레이어_2" data-name="레이어 2" xmlns="http://www.w3.org/2000/svg" viewBox="0 0 61.19 100">
  <defs>
    <style>
      .cls-1 {
        fill: #fff;
        stroke-width: 0px;
      }
    </style>
  </defs>
  <g id="_레이어_1-2" data-name="레이어 1">
    <path class="cls-1" d="M57.33,87.46c-.5-1-1.08-1.96-1.48-3-1.07-2.71-2.04-5.46-3.12-8.16-.67-1.67-.72-1.58-2.48-1.28-2.08.36-3.75-.52-5.09-2.04-2.09-2.37-2.55-5.33-2.96-8.31-.54-3.91-1.06-7.82-1.8-11.7-.78-4.08-2.94-6.06-7.29-6.53-3.16-.35-6.37-.31-9.56-.38-1.52-.04-3.04.15-4.55.07-1.11-.06-1.35.36-1.35,1.36.01,5.87-.05,11.74-.02,17.61.04,8.47.14,16.93.22,25.4.01,1.64,0,1.67,1.67,1.67,4.55.01,9.1,0,13.75,0v7.84H0v-6.96c1.26-.14,2.41-.17,3.51-.41,1.25-.28,1.97-1.14,2-2.48.05-2.15.16-4.31.15-6.46-.05-9.9-.13-19.81-.21-29.71-.01-1.56-.05-3.12-.2-4.67-.19-1.91-.47-3.83-2.25-5.24,2.25-1.73,2.17-4.19,2.17-6.52.01-9.7-.07-19.41-.14-29.11-.01-1.65-.3-1.89-1.95-2.07-.35-.04-.7-.12-1.1-.2V0c18.92.16,37.76.32,56.9.48,0,1.84-.02,3.7,0,5.55.09,7.98.24,15.97.24,23.95,0,2.46-.37,4.93-.66,7.38-.2,1.72-.16,1.81,1.36,2.68.54.31.96.91,1.31,1.46.12.19.01.77-.18.89-2.48,1.63-2.4,4.21-2.39,6.66,0,8.86.19,17.73.14,26.59-.02,3.66-.45,7.32-.71,10.98-.02.22-.13.43-.2.65-.15.06-.31.12-.46.19ZM17.35,34.84c2.81.4,15.3.02,18.18-.55,6.87-1.36,10.35-5.13,11.1-12.02.61-5.67-1.97-10.82-6.65-12.92-1.61-.73-3.4-1.37-5.14-1.47-5.57-.32-11.15-.37-16.73-.53-.71-.02-.83.33-.82.97.05,3.07.05,6.14.06,9.21,0,5.74,0,11.48,0,17.31ZM50.18,39.03c1.57,0,3.57-1.79,3.75-3.33.19-1.63-1.06-2.63-2.53-1.94-1.4.66-2.32,1.81-2.79,3.26-.4,1.23.27,2.01,1.57,2Z"/>
  </g>
</svg>