<?xml version="1.0" encoding="UTF-8"?>
<svg id="_레이어_2" data-name="레이어 2" xmlns="http://www.w3.org/2000/svg" viewBox="0 0 46.76 100">
  <defs>
    <style>
      .cls-1 {
        fill: #fff;
        stroke-width: 0px;
      }
    </style>
  </defs>
  <g id="_레이어_1-2" data-name="레이어 1">
    <path class="cls-1" d="M4.01,10.09c0,.35-.02.7,0,1.05.03.41-.13.63-.54.63-.83,0-1.67,0-2.53,0v-6.88c.3.01.53,0,.76.04.89.14,1.3-.12,1.34-1.04.06-1.16.03-2.33.05-3.5,0-.13.03-.25.06-.41h12.03c.39,3.65-.71,7.08-1.11,10.55-.13.03-.15.04-.17.04-.53-.05-1.17-.31-1.55-.09-.38.21-.49.89-.73,1.36-.82,1.64-1.02,3.4-1,5.2.09,7.02.18,14.05.28,21.07,0,.48.07.97.11,1.45.22,2.28,2.28,3.04,3.77,3.06.45,0,.55-.24.54-.63,0-1.85,0-3.7.01-5.55.01-3.66.04-7.31.02-10.97,0-.62.2-.79.79-.79,5.44.02,10.87-.09,16.31.06,4.76.14,8.53,2.21,10.93,6.48,1.5,2.66,2.74,5.43,3.16,8.47.84,6.09-.86,11.37-5.12,15.86-3.17,3.34-7.05,4.84-11.55,4.94-2.05.04-4.09,0-6.14,0-.22,0-.43,0-.71,0,0,.49,0,.95,0,1.4-.02,8.04-.07,16.08-.07,24.12,0,3.24.09,6.47.12,9.71,0,.6.21.79.81.76,1.41-.05,2.82-.02,4.23-.02.21,0,.43,0,.71,0,0,1.03.02,2-.03,2.96,0,.14-.35.35-.55.37-1.05.07-2.11.11-3.17.12-3.19.04-6.39.06-9.58.08-.21,0-.43-.02-.71-.03,0-.38,0-.71,0-1.04.01-8.17-.02-16.34.06-24.51.07-6.63.28-13.25.43-19.87.02-.79.01-1.59.05-2.38.03-.54-.15-.75-.72-.73-4.05.11-8.1.21-12.15.31-.62.01-1.24-.04-1.85.02-.52.06-.65-.13-.64-.61.02-1.78.01-3.57.01-5.35,0-1.27,0-2.55,0-3.92.41.02.77.06,1.13.06.81,0,1.63.08,2.43-.01,1.55-.17,2.51-1.17,2.62-2.74.1-1.43.11-2.86.08-4.29-.12-6.65-.27-13.3-.41-19.94-.02-.99-.13-1.97-.17-2.96-.04-1.01-.82-1.41-1.42-1.96-.09.02-.18.04-.27.06ZM24.67,37.34c0,3.63,0,7.11,0,10.58,0,.59.43.59.83.6,1.91.05,3.83.07,5.74.11,1.97.04,3.36-.91,4.3-2.56.91-1.59.95-3.32.61-5.06-.39-2.05-1.57-3.27-3.62-3.43-2.6-.19-5.22-.17-7.85-.25Z"/>
  </g>
</svg>