<?xml version="1.0" encoding="UTF-8"?>
<svg id="_레이어_2" data-name="레이어 2" xmlns="http://www.w3.org/2000/svg" viewBox="0 0 133.85 92.52">
  <defs>
    <style>
      .cls-1 {
        fill: #fff;
        stroke-width: 0px;
      }
    </style>
  </defs>
  <g id="_레이어_1-2" data-name="레이어 1">
    <path class="cls-1" d="M.39,92.46c-.17-1.73-.39-2.93-.39-4.14C.22,60.14.5,31.96.64,3.78.66.81,1.81,0,4.56,0c28.16.08,56.32-.16,84.48.27,6.71.1,13.75,1.44,19.98,3.88,5.12,2,9.91,5.9,13.68,10.03,4.08,4.48,3.13,10.76,1.6,16.13-1.1,3.89-3.82,7.34-5.97,10.89-.83,1.37-2.08,2.48-2.95,3.49,4.18,2.98,8.24,5.66,12.07,8.65,5.99,4.68,7,11.64,6.14,18.25-2.19,16.76-.66,14.96-21.6,18.83-12.69,2.35-25.97,1.82-38.99,1.96-24.05.27-48.1.08-72.6.08ZM59.77,56.53c0,4.63.12,8.42-.04,12.21-.11,2.49,1.07,3.78,3.28,3.6,4.03-.33,8.08-.86,12.01-1.76,1.03-.24,2.17-2.06,2.41-3.32.65-3.45-1.86-7.73-5.38-8.67-3.85-1.03-7.89-1.35-12.28-2.05ZM56.51,37.33c3.64-.45,6.83-.85,10.07-1.26-.67-1.85-1.26-3.48-2.22-6.16,1.7,1.97,2.6,3.02,3.81,4.43,1.06-7.18-3.6-10.15-11.67-8.22v11.2Z"/>
  </g>
</svg>