<?xml version="1.0" encoding="UTF-8"?>
<svg id="_레이어_2" data-name="레이어 2" xmlns="http://www.w3.org/2000/svg" viewBox="0 0 28.12 92.19">
  <defs>
    <style>
      .cls-1 {
        fill: #fff;
        stroke-width: 0px;
      }
    </style>
  </defs>
  <g id="_레이어_1-2" data-name="레이어 1">
    <path class="cls-1" d="M.18,46.25c0-11.17,0-22.34,0-33.51,0-1.36.03-2.72.18-4.06C1.22,1.19,2.56-1.08,11.66.45c8.14,1.37,14.16,5.91,14.41,15.58.19,7.37.02,14.82-.86,22.13-.75,6.21-.82,10.23.87,16.38,2.27,8.24,2.68,16.77,1.02,25.12-1.89,9.5-13.44,15.06-22.44,11.38C.95,89.52.08,86.38.04,82.89c-.09-7.41-.01-14.82,0-22.23,0-4.8,0-9.6,0-14.41h.14ZM9.59,66.77c.09,0,.18,0,.28,0,0,4.38,0,8.75,0,13.13,0,2.65,1.39,3.37,3.84,3.11,3.2-.34,4.42-2.49,5.01-5.19,1.54-7.06.82-14.11-.28-21.13-.47-2.97-2.81-4.17-5.55-4.75-2.25-.48-3.36.16-3.31,2.63.09,4.06.02,8.13.02,12.2ZM9.49,26.01c-.11,0-.23,0-.34,0,0,3.96-.2,7.93.11,11.86.11,1.37,1.64,3.83,2.23,3.75,1.85-.27,3.7-1.32,5.27-2.46.66-.47.85-1.91.85-2.91.01-6.75.05-13.5-.24-20.24-.06-1.46-1.16-3.16-2.28-4.22-.94-.88-2.84-1.61-3.89-1.23-.89.33-1.58,2.31-1.64,3.6-.21,3.94-.08,7.9-.08,11.85Z"/>
  </g>
</svg>