<?xml version="1.0" encoding="UTF-8"?>
<svg id="_레이어_2" data-name="레이어 2" xmlns="http://www.w3.org/2000/svg" viewBox="0 0 27.51 91.58">
  <defs>
    <style>
      .cls-1 {
        fill: #fff;
        stroke-width: 0px;
      }
    </style>
  </defs>
  <g id="_레이어_1-2" data-name="레이어 1">
    <path class="cls-1" d="M.87,47.28c0-12.03-.32-24.06.09-36.08C1.34.25,4.51-1.21,15.2.72c7.26,1.31,11.19,5.84,11.52,13.17.36,8.05.05,16.16-.61,24.2-.25,3.03-2.15,5.99-3.59,8.85-.81,1.62-.91,2.8.33,4.18,2.98,3.3,4.39,7.4,4.55,11.68.22,5.88.04,11.8-.41,17.67-.33,4.38-2.95,7.68-7.13,9-3.7,1.17-7.64,2.01-11.5,2.12-4.13.12-7.22-2.07-7.3-6.98-.21-12.44-.7-24.88-1.07-37.31.29,0,.58,0,.87,0ZM9.12,25.52s.07,0,.11,0c0,4.75-.07,9.51.05,14.26.03,1.09.72,3.07,1.16,3.08,1.55.05,3.28-.3,4.62-1.05.79-.44,1.12-1.91,1.43-2.98,2.34-8.11,1.99-16.37,1.17-24.62-.14-1.44-.82-3.35-1.9-4.06-1.46-.96-3.55-1.23-5.36-1.21-.44,0-1.18,2.29-1.22,3.55-.15,4.34-.06,8.68-.06,13.03ZM9.97,67.19c-.14,0-.29,0-.43,0,.21,4.34.3,8.69.68,13.01.25,2.89,1.93,3.87,4.17,2.16,1.73-1.33,3.7-3.59,3.82-5.55.39-6.45.03-12.94-.17-19.42-.03-.96-.47-2.37-1.17-2.77-1.59-.89-3.44-1.55-5.22-1.68-.47-.04-1.52,2.16-1.59,3.37-.22,3.61-.08,7.24-.08,10.86Z"/>
  </g>
</svg>