<?xml version="1.0" encoding="UTF-8"?>
<svg id="_레이어_2" data-name="레이어 2" xmlns="http://www.w3.org/2000/svg" viewBox="0 0 27.79 91.82">
  <defs>
    <style>
      .cls-1 {
        fill: #fff;
        stroke-width: 0px;
      }
    </style>
  </defs>
  <g id="_레이어_1-2" data-name="레이어 1">
    <path class="cls-1" d="M.35,43.71c0-12.12-.04-24.24.02-36.37C.39,2.46,3.01-.33,7.92.03c8.87.66,17.85,4.9,18.47,15.51.66,11.26,1.37,22.53,1.41,33.8.01,4.13-1.85,8.26-2.84,12.39-.23.97-.54,1.95-.53,2.93.02,7.43.15,14.87.14,22.3,0,2.76-1.79,4.22-4.59,3.98-2.67-.23-3.16-2.04-3.17-4.33-.02-4.35-.09-8.71-.32-13.05-.16-3.09-2.22-3.64-4.94-3.46-2.81.18-2.92,2.03-2.93,4.05,0,1.83.07,3.67.1,5.5.04,1.97-.11,3.89,2.86,4.02.57.02,1.53,2.24,1.45,3.38-.14,2.13-.83,4.28-3.52,4.7-3.69.57-7.9-1.95-8.62-5.64-.62-3.17-.81-6.46-.84-9.7-.1-10.89-.04-21.79-.04-32.69.11,0,.22,0,.34,0ZM9.37,34.65c-.19,0-.38,0-.56,0,0,7.42-.06,14.84.06,22.26.02,1.14.52,2.83,1.34,3.29,2.26,1.26,5.58-.14,6.61-2.59.67-1.58,1.16-3.27,1.44-4.96,2.12-12.91,1.14-25.74-1.28-38.49-.28-1.5-1.56-3.17-2.86-4.05-3.02-2.05-4.7-1.06-4.74,2.59-.07,7.32-.02,14.63-.02,21.95Z"/>
  </g>
</svg>