<?xml version="1.0" encoding="UTF-8"?>
<svg id="_레이어_2" data-name="레이어 2" xmlns="http://www.w3.org/2000/svg" viewBox="0 0 27.59 91.4">
  <defs>
    <style>
      .cls-1 {
        fill: #fff;
        stroke-width: 0px;
      }
    </style>
  </defs>
  <g id="_레이어_1-2" data-name="레이어 1">
    <path class="cls-1" d="M.49,40.07c0-11.51-.09-23.02.04-34.52C.59.36,1.59-.47,6.89.2c4.59.58,9.18,1.39,13.67,2.51,3.18.8,5.11,3.19,5.63,6.56,1.8,11.58,2.73,23.06-3.17,33.95-.49.91-.46,2.74.14,3.51,2.9,3.73,4.09,8.07,4.26,12.55.24,6.6.31,13.25-.31,19.81-.81,8.51-4.86,12.15-12.36,12.29-6.49.13-13.21-5.27-13.89-12.28C.07,71.04.21,62.86.05,54.73c-.1-4.88-.02-9.77-.02-14.66.15,0,.31,0,.46,0ZM19.11,66.22c-.16,0-.33-.02-.49-.03,0-3.14.37-6.35-.12-9.41-.39-2.4-1.43-4.97-2.97-6.81-.98-1.17-3.38-1.34-5.18-1.52-.47-.05-1.61,1.55-1.6,2.37.16,9.03.42,18.06.8,27.09.1,2.4,1.27,4.41,3.99,4.62,2.87.21,3.95-1.88,4.29-4.21.57-4.01.87-8.06,1.29-12.09ZM8.54,23.46c-.09,0-.18,0-.27,0,0,4.27.05,8.53-.02,12.8-.04,2.74,1.26,3.33,3.67,2.69,3.31-.87,5.19-3.22,5.58-7.83.46-5.46.77-10.94.91-16.42.13-5.13-1.71-6.93-6.75-7.48-2.05-.22-3.13.39-3.12,2.54,0,4.57,0,9.14,0,13.7Z"/>
  </g>
</svg>