<?xml version="1.0" encoding="UTF-8"?>
<svg id="_레이어_2" data-name="레이어 2" xmlns="http://www.w3.org/2000/svg" viewBox="0 0 28.29 94.66">
  <defs>
    <style>
      .cls-1 {
        fill: #fff;
        stroke-width: 0px;
      }
    </style>
  </defs>
  <g id="_레이어_1-2" data-name="레이어 1">
    <path class="cls-1" d="M.01,50.31C.01,38.57-.04,26.83.06,15.09c.02-2.47.37-4.99.97-7.38C2.7,1.06,10.5-2.05,16.35,1.46c1.69,1.02,3.42,1.98,5.03,3.12,3.38,2.38,5.81,5.53,5.92,9.77.18,6.94.43,13.91-.14,20.81-.28,3.34-2.42,6.51-3.57,9.81-.36,1.04-.74,2.62-.24,3.33,4.84,6.81,5.01,14.61,4.92,22.44-.04,3.53-.33,7.06-.74,10.57-.84,7.1-4.09,10.54-11.12,11.92-2.75.54-5.52.98-8.31,1.3-5.58.64-7.56-.95-7.79-6.5-.19-4.67-.08-9.35-.08-14.03,0-7.9,0-15.8,0-23.69-.07,0-.14,0-.22,0ZM9.35,25.83h.34c0,5.09,0,10.18,0,15.26,0,2.22.95,2.8,3.16,2.35,3-.62,4.34-2.6,4.43-5.25.27-7.76.54-15.55.19-23.3-.1-2.11-2.08-4.49-3.82-6.06-2.2-2-4.18-.96-4.26,2.04-.14,4.98-.04,9.97-.04,14.96ZM10.16,67.34c.11,0,.21,0,.32,0,0,4.78-.12,9.56.08,14.33.05,1.27,1.15,3.58,1.6,3.55,1.62-.14,3.35-.84,4.68-1.82.88-.65,1.59-2.12,1.63-3.25.2-7.35.36-14.72.18-22.07-.07-2.63-1.93-4.56-4.6-5.34-2.58-.75-3.78.05-3.85,2.74-.11,3.95-.03,7.9-.03,11.85Z"/>
  </g>
</svg>