<?xml version="1.0" encoding="UTF-8"?>
<svg id="_레이어_2" data-name="레이어 2" xmlns="http://www.w3.org/2000/svg" viewBox="0 0 89.22 100">
  <defs>
    <style>
      .cls-1 {
        fill: #fff;
        stroke-width: 0px;
      }
    </style>
  </defs>
  <g id="_레이어_1-2" data-name="레이어 1">
    <path class="cls-1" d="M0,99.98V.02c3.79,0,7.58,0,11.37,0,14.66,0,29.32-.04,43.98,0,4.35.01,8.72.11,13.06.46,9.37.77,16.05,6.85,19.09,15.29,1.12,3.12,1.36,6.34,1.38,9.62.09,14.95.24,29.89.34,44.84.02,3.62.1,7.24-1.06,10.77-2.8,8.51-8.86,13.3-17.28,15.59-5.37,1.46-10.87,1.83-16.37,2.18-5.32.35-10.65.66-15.98.83-6.62.21-13.24.3-19.87.36-6.15.06-12.31.01-18.66.01ZM38.71,79.11c2.48-.17,4.69-.21,6.87-.48,3.66-.46,7.1-1.62,10.01-3.98.97-.78,2.13-1.54,2.68-2.59,1.37-2.62,1.93-5.5,1.68-8.48-.36-4.21-1.9-7.88-5.87-9.8-2.35-1.14-4.98-1.99-7.56-2.27-4.22-.46-8.52-.59-12.76-.42-3.63.14-7.08,1.4-10.44,2.85-.72.31-1.01.54-1,1.32.04,4.17-.08,8.34.09,12.5.1,2.36.54,4.72,1.01,7.04.47,2.34,1.66,3.33,3.88,3.51,3.89.3,7.79.55,11.42.8ZM41.58,35.96c.02-.09.03-.18.05-.27,2.75-.14,5.52-.19,8.26-.44,2.65-.24,5.17-.79,7.29-2.72,2.86-2.6,3.56-8.03-.8-9.88-1.17-.5-2.37-1-3.61-1.25-6.49-1.34-13.06-1.38-19.64-.95-2.41.16-4.81.66-7.18,1.19-.91.2-1.98.71-2.51,1.43-1.39,1.89-.83,4.11-.54,6.22.43,3.1,1.76,4.67,4.91,5.13,4.57.68,9.18,1.04,13.77,1.54ZM.5,34.31s-.05.01-.07.02v10.45s.05,0,.07,0v-10.47Z"/>
  </g>
</svg>