<?xml version="1.0" encoding="UTF-8"?>
<svg id="_레이어_2" data-name="레이어 2" xmlns="http://www.w3.org/2000/svg" viewBox="0 0 82.72 93.62">
  <defs>
    <style>
      .cls-1 {
        fill: #fff;
        stroke-width: 0px;
      }
    </style>
  </defs>
  <g id="_레이어_1-2" data-name="레이어 1">
    <path class="cls-1" d="M64.71,45.12c9.12,2.39,12.78,10.76,17.7,17.77.85,1.21-.36,3.73-.24,5.62.67,10.73-3.9,18.72-13.71,22.48-5.51,2.11-11.94,2.32-17.98,2.45-14.8.33-29.6.01-44.41.18C1.74,93.67-.04,92.55,0,87.72.22,58.64.11,29.56.11.02,6.89.02,13.64-.03,20.39.03c10.9.1,21.82-.04,32.71.51,16.84.85,27.84,18.7,20.74,33.93-1.85,3.97-5.85,6.93-9.12,10.64ZM35.87,78.43c0-.13.02-.27.03-.4,4.15,0,8.3.1,12.45-.02,10.82-.31,15.7-9.97,11.77-16.39-1.71-2.8-5.16-5.82-8.19-6.26-7.8-1.15-15.8-1.17-23.73-1.18-8.94,0-8.08-1.76-8.05,8.23.02,4.93-1.5,11.86,1.07,14.27,2.9,2.71,9.61,1.35,14.66,1.76ZM34.14,36.44c3.63,0,7.33.46,10.87-.1,6.21-.98,10.17-5.87,9.66-11.06-.5-5.15-4.97-8.77-11.2-9.19-4.08-.28-8.15-.67-12.22-1.06-7.69-.73-10.08,1.26-9.92,9.06.29,13.86-3.37,12.98,12.81,12.34Z"/>
  </g>
</svg>