<?xml version="1.0" encoding="UTF-8"?>
<svg id="_레이어_2" data-name="레이어 2" xmlns="http://www.w3.org/2000/svg" viewBox="0 0 74.01 101.2">
  <defs>
    <style>
      .cls-1 {
        fill: #fff;
        stroke-width: 0px;
      }
    </style>
  </defs>
  <g id="_레이어_1-2" data-name="레이어 1">
    <path class="cls-1" d="M57.49,49.67c14.93,9.13,20.17,23.01,13.98,37.13-1.19,2.71-3.46,5.31-5.89,7.05-9.21,6.62-19.75,7.93-30.83,7.13-10.17-.73-20.38-1.13-30.58-1.23-3.87-.04-3.98-2.17-4-4.76C.07,83.19-.02,71.37,0,59.56.03,40.26.15,20.96.25,1.66c0-.46.24-.91.43-1.6C13.13.07,25.55-.13,37.97.16c5.59.13,11.27.75,16.7,2.02,10.21,2.4,15.91,9.77,17.19,19.66,1.4,10.75,2.05,20.44-12.66,26.4-.58.24-1.02.83-1.72,1.43ZM22.43,29.45c0,.83-.02,1.66,0,2.49.37,12.11-2.53,11.78,12.11,10.66,5.25-.4,10.68-1.93,15.47-4.15,4.55-2.1,5.36-6.98,4.39-11.7-.9-4.42-3.1-8.29-7.78-9.43-3.82-.94-7.85-1.39-11.8-1.4-12.4-.05-12.4.07-12.4,12.53,0,.33,0,.66,0,1ZM35.66,81.16s0-.04,0-.06c3.32,0,6.64.08,9.96-.02,6.17-.17,10.71-4.92,10.89-11.28.16-5.64-3.64-9.19-10.39-9.52-2.98-.14-5.98-.03-8.97,0-16.65.14-15.26-4.04-15.67,16.14,0,.17,0,.33,0,.5-.07,2.89,1.33,4.28,4.23,4.25,3.32-.04,6.64,0,9.96,0Z"/>
  </g>
</svg>