<?xml version="1.0" encoding="UTF-8"?>
<svg id="_레이어_2" data-name="레이어 2" xmlns="http://www.w3.org/2000/svg" viewBox="0 0 56.21 100">
  <defs>
    <style>
      .cls-1 {
        fill: #fff;
        stroke-width: 0px;
      }
    </style>
  </defs>
  <g id="_레이어_1-2" data-name="레이어 1">
    <g>
      <path class="cls-1" d="M48.7,25.09v10.11H4.98C3.05,24.6,5.84,7.01,15.88,2.26,18.13,1.2,20.65.22,23.08.15,31.82-.11,40.57.05,49.5.05v9.96c-5.21,0-10.28-.04-15.36.02-2.41.03-4.81.34-7.22.38-6.68.12-11.54,6.12-10.29,14.68h32.07Z"/>
      <path class="cls-1" d="M37.09,51.92c.26,3.96.5,7.59.78,11.89-3.66,0-6.89.15-10.09-.02-15.9-.85-17.6,6.62-17.16,19.59.17,4.98,1.67,6,6.73,6.09,4.41.08,8.84.15,13.24-.03,2.65-.11,3.64.94,3.52,3.44-.05,1.14-.17,2.3.01,3.41.41,2.61-.58,3.34-3.21,3.55-10.27.81-19.98-1.09-29.28-5.32-.64-.29-1.48-1.14-1.48-1.72.05-8.92-.66-17.96.61-26.71,1.32-9.13,6.78-13.07,16.02-14.19,3.24-.39,6.5-.78,9.75-.78,3.25,0,6.5.49,10.55.83Z"/>
      <path class="cls-1" d="M48.33,50.94c7.26.22,9.09,2.42,7.17,7.95-2.21-.38-4.44-.53-6.47-1.25-.85-.3-1.71-1.8-1.76-2.8-.06-1.31.68-2.65,1.05-3.91Z"/>
    </g>
  </g>
</svg>