<?xml version="1.0" encoding="UTF-8"?>
<svg id="_레이어_2" data-name="레이어 2" xmlns="http://www.w3.org/2000/svg" viewBox="0 0 49.46 100">
  <defs>
    <style>
      .cls-1 {
        fill: #fff;
        stroke-width: 0px;
      }
    </style>
  </defs>
  <g id="_레이어_1-2" data-name="레이어 1">
    <path class="cls-1" d="M34.82,57.8H.03c-.44-5.41,4.32-12.16,9.61-13.35,3.66-.82,7.66-.34,11.18-1.47,3.1-.99,6.64-2.77,8.43-5.31,4.26-6.04,3.3-13.5,3.71-20.49.04-.74-1.82-2.2-2.88-2.29-3.64-.29-7.32-.11-11.29-.11V.04c7.63,0,15.23-.12,22.81.06,3.12.08,6.88,3.92,7.25,7.25,1.49,13.55.31,26.79-4.59,39.63-.66,1.74-.56,3.83-.56,5.75.03,7.2,1.14,14.56-.04,21.54-.97,5.76-.27,11.16.1,16.7.41,6.26-5.07,10.02-11.1,8.79-7.35-1.5-15-1.6-22.52-2.21-2.15-.17-4.32-.03-6.84-.03v-17.27c5.21,0,10.69-.61,15.96.16,5.77.85,9.66-2.33,13.92-4.84.99-.58,1.5-2.61,1.56-4.01.19-4.46.07-8.94.07-13.79Z"/>
  </g>
</svg>