<?xml version="1.0" encoding="UTF-8"?>
<svg id="_레이어_2" data-name="레이어 2" xmlns="http://www.w3.org/2000/svg" viewBox="0 0 51.86 100">
  <defs>
    <style>
      .cls-1 {
        fill: #fff;
        stroke-width: 0px;
      }
    </style>
  </defs>
  <g id="_레이어_1-2" data-name="레이어 1">
    <path class="cls-1" d="M31.12,49.41c16.33.26,21.93,11.93,20.54,25.18-.76,7.27-3.17,13.9-8.98,18.95-4.82,4.2-10.7,5.73-16.65,6.15-8.15.58-16.38.15-25.11.15-.24-5.45-.47-10.65-.73-16.4,9.33,0,18.08.04,26.82-.01,8.09-.04,13.13-7.31,10.38-14.89-1.45-3.99-4.33-5.86-8.54-5.85-9.2.01-18.39,0-28.12,0-.21-4.38-.4-8.45-.6-12.65,1.84-.26,3.22-.45,4.6-.64C.64,49.76,0,47.46.03,44c.05-10.49-1.21-8.78,8.86-8.96,6.19-.11,12.39,0,18.59,0,5.35,0,8.12-1.77,8.76-5.55,1.08-6.39-1-11.29-6.15-12.6-4.26-1.08-8.77-1.35-13.19-1.61-4.88-.28-9.79-.14-14.69-.2-.27,0-.54-.12-1.29-.31C.67,10.28.43,5.64.13,0c11.41.47,22.64-.38,33.32,1.68,14.7,2.83,19.67,15.92,17,29.6-2.06,10.52-8.36,16.39-19.33,18.13Z"/>
  </g>
</svg>