<?xml version="1.0" encoding="UTF-8"?>
<svg id="_레이어_2" data-name="레이어 2" xmlns="http://www.w3.org/2000/svg" viewBox="0 0 57.37 92.19">
  <defs>
    <style>
      .cls-1 {
        fill: #fff;
        stroke-width: 0px;
      }
    </style>
  </defs>
  <g id="_레이어_1-2" data-name="레이어 1">
    <path class="cls-1" d="M38.69,44c2.66,1.28,4.77,2.2,6.8,3.29,7.73,4.18,11.64,11.01,11.88,19.48.25,8.89-3.35,16.03-11.66,20.47-9.08,4.85-17.82,7.43-27.79,1.59-3.08-1.81-8.03-.44-12.13-.51-1.79-.03-3.59,0-5.79-.52,7.37-4.55,5.98-11.54,5.96-18.04-.09-20.81-.17-41.63-.49-62.44-.06-3.73,1.17-5.46,4.75-6.08C24.39-1.24,37.58-.94,48.19,11.1c10.94,12.41,8.64,24.58-6.52,31.33-.75.33-1.46.76-2.98,1.56ZM23.24,46.39c-.7-4.14,2.5-6.02,6.43-7.79,7.36-3.31,12.09-13.15,10.59-21.24-1.33-7.19-7.21-11.48-16.04-12.41-4.82-.51-6.8,1.39-6.81,5.91-.01,22.12-.04,44.24.04,66.36.02,4.34,2.33,7.06,6.67,8.09,7.12,1.7,14.75-1.96,18.77-9.16,3.22-5.75,2.12-14.21-3.27-18.67-4.79-3.95-10.3-7.03-16.4-11.08Z"/>
  </g>
</svg>