<?xml version="1.0" encoding="UTF-8"?>
<svg id="_레이어_2" data-name="레이어 2" xmlns="http://www.w3.org/2000/svg" viewBox="0 0 63.19 94.58">
  <defs>
    <style>
      .cls-1 {
        fill: #fff;
        stroke-width: 0px;
      }
    </style>
  </defs>
  <g id="_레이어_1-2" data-name="레이어 1">
    <path class="cls-1" d="M40.95,45.42c5.63,4.08,11.66,7.58,16.59,12.24,5.75,5.44,6.21,13,5.27,20.51-.96,7.69-6.34,13.76-15.28,14.8-11.03,1.29-22.23,1.16-33.36,1.53-4.6.15-9.21.03-14.16.03,0-3.7,0-6.83,0-9.95C.01,59.59.02,34.6.05,9.62c0-1.83-.01-3.68.29-5.47C.81,1.42,2.1-.17,5.4.01c9.14.51,18.31.54,27.46,1.03,9.91.53,18.78,7.45,21.28,16.23,2.92,10.24-.13,18.61-9.21,25.23-1.68,1.23-3.35,2.46-3.98,2.92ZM13.58,85.5c7.23,0,14.22.46,21.11-.11,8.97-.74,13.6-5.8,13.91-13.92.31-8.17-4.82-14.85-13.21-16.08-6.05-.88-12.26-.69-18.4-1.05-2.7-.16-3.44,1.22-3.43,3.62.05,8.79.02,17.57.02,27.55ZM12.67,43.45c6.24-.72,12.74-.8,18.85-2.37,6.41-1.64,10.09-7.72,9.88-14.58-.18-5.93-.87-12.45-7.65-14.26-6.56-1.75-13.55-1.87-21.07-2.8v34.01Z"/>
  </g>
</svg>