<?xml version="1.0" encoding="UTF-8"?>
<svg id="_레이어_2" data-name="레이어 2" xmlns="http://www.w3.org/2000/svg" viewBox="0 0 65.34 91.88">
  <defs>
    <style>
      .cls-1 {
        fill: #fff;
        stroke-width: 0px;
      }
    </style>
  </defs>
  <g id="_레이어_1-2" data-name="레이어 1">
    <path class="cls-1" d="M45.08,41.66c2.82,1.54,6.46,3.18,9.74,5.37,13.28,8.85,14.14,27.28,1.7,37.42-6.37,5.19-13.67,7.79-22.14,7.38-9.47-.46-18.98-.43-28.46-.2-4.63.11-6.13-.8-5.9-6.03.68-15.45.45-30.94.64-46.41.13-10.98.42-21.96.52-32.95C1.21,2.21,2.84-.22,7.04.02c11.92.68,24.05.4,35.7,2.59,14.66,2.75,20.45,19.04,11.86,31.23-2.24,3.18-6.18,5.15-9.51,7.83ZM15.14,65.16c.09,0,.17,0,.26,0,0,4.33.1,8.66-.04,12.99-.09,2.65.77,4.16,3.58,4.16,5.82-.02,11.69.43,17.46-.16,7.85-.81,13.52-7.49,13.89-15.3.35-7.51-5.14-14.8-12.87-16.14-6.21-1.07-12.56-1.33-18.85-1.93-2.47-.23-3.63.64-3.49,3.4.22,4.32.06,8.66.06,12.99ZM14.63,9.5v29.3c7.26-.35,14.23-.21,21.05-1.15,6.38-.88,11.14-8.64,10.71-15.91-.4-6.72-5.06-11.73-12.12-12.16-6.41-.39-12.87-.08-19.64-.08Z"/>
  </g>
</svg>