<?xml version="1.0" encoding="UTF-8"?>
<svg id="_레이어_2" data-name="레이어 2" xmlns="http://www.w3.org/2000/svg" viewBox="0 0 114.66 100">
  <defs>
    <style>
      .cls-1 {
        fill: #fff;
        stroke-width: 0px;
      }
    </style>
  </defs>
  <g id="_레이어_1-2" data-name="레이어 1">
    <g>
      <path class="cls-1" d="M14.24,99.97c0-.97-.03-1.57.01-2.17.03-.39.15-.78.26-1.33,1.56-.32,3.13-.62,4.69-.96,2.84-.6,4.15-2.04,4.02-4.87-.2-4.23-.6-8.44-.93-12.67-.29-3.66-.56-7.32-.9-10.97-.47-5.01-1.04-10.01-1.48-15.03-.22-2.47-.22-4.97-.35-7.45-.57-10.82-1.13-21.64-1.74-32.46-.12-2.08-.37-4.16-.72-6.22-.37-2.17-3.05-3.17-4.85-1.95-.65.44-1.4.94-2.14.99-3.32.26-6.65.36-10.12.53V.2c17.18.96,34.26-1.25,51.44.5-.5,1.78-1.23,2.41-2.66,2.6-3.01.39-4.83,2.27-5.16,5.31-.31,2.87-.45,5.77-.54,8.66-.2,5.92-.32,11.83-.47,17.75-.01.53,0,1.06,0,1.79,1.16.15,2.21.4,3.25.4,9.14,0,18.27-.08,27.41-.1,4.67,0,9.37-.27,14.01.15,5.78.53,10.83,3.22,15.14,7.02,2.81,2.48,5.62,5.15,7.69,8.24,1.81,2.7,2.92,6.02,3.73,9.22,1.24,4.94.91,9.94.16,15.05-1.07,7.26-5.26,12.35-10.4,16.78-3.24,2.79-7.59,3.66-11.78,4.36-15.11,2.51-30.34,2.11-45.57,1.93-9.83-.12-19.67.06-29.51.11-.72,0-1.45,0-2.5,0ZM41.66,63.47c-.1-.04-.2-.07-.3-.11-.59,2.57-1.26,5.13-1.73,7.72-.38,2.14-.56,4.33-.74,6.5-.28,3.33-.66,6.67-.69,10.01-.02,2.76.78,3.52,3.46,3.7,7.43.5,14.85.33,22.07-1.69,3.97-1.11,7.43-3.22,9.68-6.85,2.8-4.51,4.11-9.44,4.25-14.74.18-6.83-.31-13.5-4.1-19.45-.92-1.44-1.91-3.26-3.32-3.88-3.54-1.57-7.27-2.69-11.32-2.49-4.57.23-9.16.11-13.75.15-.64,0-1.28.06-1.73.09-.61,7.19-1.19,14.12-1.77,21.05Z"/>
      <path class="cls-1" d="M59.34,2.75c-.12-.99-.19-1.63-.28-2.34h20.55c-.37,7.18-.74,14.08-1.12,21.39-1.78,1.92-.33,4.62-.45,6.8-1.22.52-2.3.98-3.45,1.48,0-1.53-.28-3.2.07-4.71.43-1.86.12-3.07-2.07-3.93,2.59-1.36,2.3-3.72,2.43-5.75-1.53-8.73-8.02-11.62-15.69-12.93Z"/>
    </g>
  </g>
</svg>