<?xml version="1.0" encoding="UTF-8"?>
<svg id="_레이어_2" data-name="레이어 2" xmlns="http://www.w3.org/2000/svg" viewBox="0 0 102.38 100">
  <defs>
    <style>
      .cls-1 {
        fill: #fff;
        stroke-width: 0px;
      }
    </style>
  </defs>
  <g id="_레이어_1-2" data-name="레이어 1">
    <path class="cls-1" d="M65.39,41.84c-.12,2.23-.22,4.29-.34,6.58.71.12,1.44.32,2.19.35,8.56.39,16.31,3.41,23.25,8.13,7.6,5.17,11.99,12.45,11.9,22-.08,7.58-5.49,16.55-12.36,18.46-4.34,1.21-8.93,1.72-13.44,2.08-5.83.46-11.69.59-17.54.57-3.41-.01-6.82-.63-10.23-.93-1.02-.09-2.06,0-3.08,0-14.25-.15-28.5-.31-42.74-.48-.38,0-.75-.13-1.26-.23v-3.72c1.97-.54,3.91-1.04,5.82-1.61,2.05-.6,3.33-1.87,3.54-4.12.15-1.61.67-3.21.67-4.81.02-24.98.01-49.97-.06-74.95-.02-5.02-.62-5.43-5.61-5.3-1.93.05-3.86,0-6.07,0C.07,2.62.13,1.5.18.45,3.49-.39,83.01.04,86.2.94c-.44.55-.74,1.08-1.18,1.44-3.74,3.13-7.5,6.23-11.28,9.31-.27.22-.76.25-1.15.25-2.03.02-4.07.01-6.12.01-.13.37-.27.78-.43,1.21-.2-.08-.34-.09-.39-.16-1.88-3.01-4.08-5.69-7.53-6.98-.81-.3-1.7-.49-2.57-.55-5.25-.31-10.5-.57-15.75-.82-.42-.02-.86.19-1.4.32v38.58c6.29,1.07,18.64.3,26.98-1.72ZM38.74,50.33c-.18,1.22-.47,2.23-.47,3.24-.02,9.37-.02,18.73.02,28.1,0,2.14.15,4.29.31,6.43.26,3.4,1.67,4.78,5.05,4.89,3.38.1,6.76.04,10.14.14,3.79.11,6.32-1.65,8.2-4.85,5.29-9.03,5.07-18.45,2.01-28.01-1.7-5.31-5.49-8.63-11.07-9.43-3.19-.46-6.47-.38-9.7-.5-1.48-.06-2.96,0-4.5,0Z"/>
  </g>
</svg>