<?xml version="1.0" encoding="UTF-8"?>
<svg id="_레이어_2" data-name="레이어 2" xmlns="http://www.w3.org/2000/svg" viewBox="0 0 58.48 100">
  <defs>
    <style>
      .cls-1 {
        fill: #fff;
        stroke-width: 0px;
      }
    </style>
  </defs>
  <g id="_레이어_1-2" data-name="레이어 1">
    <path class="cls-1" d="M0,0h55.84v15.07c-.99,0-1.94,0-2.89,0-9.64-.03-19.27-.1-28.91-.04-1.83.01-3.72.33-5.47.86-3.15.95-5.19,3.14-5.83,6.41-.63,3.21-.46,6.32,1.43,9.2,1.54,2.35,3.74,3.64,6.33,4.43,4.87,1.48,9.9.91,14.87,1.06,3.51.11,7.04-.03,10.52.31,2.12.21,4.26.92,6.24,1.75,2.7,1.14,4.18,3.46,4.95,6.26.75,2.73,1.23,5.49,1.24,8.32.05,10.74.09,21.47.13,32.21.02,4.32.03,8.65.04,12.97,0,.37,0,.75,0,1.2H.08v-16.68c1.24,0,2.42,0,3.6,0,9.58.03,19.15.05,28.73.08,2.15,0,4.29.02,6.44.06,4.3.08,5.49-3.16,5.59-6.1.02-.49-.04-.99-.06-1.48-.06-1.89-.96-3.15-2.81-3.6-1.09-.26-2.24-.36-3.36-.36-8.27,0-16.54.03-24.81.06-4.29.02-8.59.05-12.88.08-.14,0-.28-.01-.52-.03V0ZM30.09,64.43c3.53-.14,6.52-.14,9.49-.4,3.23-.28,4.97-1.7,5.37-4.74.17-1.34-.11-2.45-1.14-3.26-.69-.55-1.49-1.09-2.32-1.3-1.68-.43-3.4-.8-5.12-.9-5.32-.3-10.66-.46-15.98-.68-1.24-.05-2.49-.17-3.73-.19-1.06-.01-2.07.27-2.55,1.31-1.09,2.39-.35,5.61,1.63,7.32,1.34,1.17,2.91,1.97,4.67,2.14,3.4.33,6.82.5,9.69.71Z"/>
  </g>
</svg>