<?xml version="1.0" encoding="UTF-8"?>
<svg id="_레이어_2" data-name="레이어 2" xmlns="http://www.w3.org/2000/svg" viewBox="0 0 28.51 100">
  <defs>
    <style>
      .cls-1 {
        fill: #fff;
        stroke-width: 0px;
      }
    </style>
  </defs>
  <g id="_레이어_1-2" data-name="레이어 1">
    <g>
      <path class="cls-1" d="M0,49.97c6.43,1.37,12.67,3.15,18.35,6.7,7.47,4.67,10.19,11.77,10.16,19.98-.05,11.88-9.17,21.56-21.01,22.9-2.49.28-5,.31-7.5.45,0-2.1,0-4.2,0-6.31,5.61-.08,9.33-2.79,9.72-7.43.16-1.97-.1-4.05-.59-5.97-1.44-5.65-4.69-10.19-9.13-13.92v-16.4Z"/>
      <path class="cls-1" d="M0,3.29c5.97.7,11.95,1.35,17.91,2.12,3.25.42,3.98-.14,4-3.48,0-.55.05-1.1.08-1.71,1.82-.73,2.12.46,2.24,1.69.47,4.87.98,9.74,1.28,14.63.19,2.99.03,6,.03,9.12h-2.24c-.17-1.61-.36-3.26-.5-4.91-.67-7.6-6.71-12.53-12.66-14.04C6.87,5.88,3.39,5.81,0,5.4c0-.7,0-1.4,0-2.1Z"/>
    </g>
  </g>
</svg>