<?xml version="1.0" encoding="UTF-8"?>
<svg id="_레이어_2" data-name="레이어 2" xmlns="http://www.w3.org/2000/svg" viewBox="0 0 101.28 100">
  <defs>
    <style>
      .cls-1 {
        fill: #fff;
        stroke-width: 0px;
      }
    </style>
  </defs>
  <g id="_레이어_1-2" data-name="레이어 1">
    <path class="cls-1" d="M0,0h101.28c-.96,10.33-1.9,20.6-2.88,30.87-.08.86-.36,1.71-.53,2.57-1.58,7.98-3.44,15.73-14.59,16.59,3.91,2.47,6.81,4.21,9.62,6.1,5.65,3.8,7.48,9.61,7.63,15.94.18,7.19-1.23,14.79-6.44,19.43-4.85,4.32-11.07,8.14-18.4,8.12-8.59-.02-17.17-.05-25.76,0-10.23.07-20.46.26-30.69.34-6.26.05-12.52,0-19.24,0V0ZM22.61,72.46c15.54,0,30.41,0,45.27,0,.14,0,.3-.02.43-.06,3.4-1.04,6.38-2.66,6.53-6.68.15-3.97-2.79-5.49-6.04-6.43-1.39-.4-2.86-.71-4.3-.72-13.01-.11-26.02-.16-39.03-.19-.67,0-1.34.3-2.25.51-.19,4.2-.37,8.25-.61,13.57ZM22.77,34.51c8.89,0,17.48.34,26.03-.14,4.27-.24,8.67-1.47,12.59-3.21,2.37-1.05,4.53-3.65,5.68-6.08,1.63-3.46.1-4.94-3.83-4.77-10.04.43-20.09.76-30.14,1.21-11.79.52-11.29-2.79-10.33,12.99Z"/>
  </g>
</svg>