<?xml version="1.0" encoding="UTF-8"?>
<svg id="_레이어_2" data-name="레이어 2" xmlns="http://www.w3.org/2000/svg" viewBox="0 0 93.63 100">
  <defs>
    <style>
      .cls-1 {
        fill: #fff;
        stroke-width: 0px;
      }
    </style>
  </defs>
  <g id="_레이어_1-2" data-name="레이어 1">
    <path class="cls-1" d="M80.52,43.3c11.74,6.02,15.34,20.36,8.54,32.2-4.05,7.05-9.65,12.84-16.33,17.55-6.73,4.74-14.72,5.37-22.39,5.8-15.69.89-31.44.83-47.16,1.15-.84.02-1.69-.11-3.17-.22C-.1,66.56.4,33.44,1.79,0c3.83.25,6.72.57,9.61.61,4.99.06,9.98-.13,14.97-.09,14.5.12,29.02-.16,43.48.64,8.69.48,15.32,5.88,20.62,12.63,4.15,5.29,4.43,14.25-.46,19.2-3.24,3.28-6.25,6.78-9.49,10.31ZM25.14,37.6c9.87,0,19.33.05,28.79-.06,1.25-.01,2.57-.72,3.7-1.37,2.47-1.42,3.29-3.96,2.22-6.26-.59-1.27-2.95-2.35-4.55-2.4-8.87-.24-17.75-.14-26.62-.12-1.17,0-2.33.2-3.54.31v9.9ZM26.93,64.3c.45,3.63.62,6.29,1.19,8.86.16.7,1.49,1.61,2.3,1.63,6.8.16,13.61.3,20.41.1,3.82-.12,6.26-2.81,6.79-6.45.36-2.49-.28-3.99-3.13-3.99-5.35,0-10.69-.1-16.04-.14-3.6-.02-7.2,0-11.52,0Z"/>
  </g>
</svg>