<?xml version="1.0" encoding="UTF-8"?>
<svg id="_레이어_2" data-name="레이어 2" xmlns="http://www.w3.org/2000/svg" viewBox="0 0 78.29 100">
  <defs>
    <style>
      .cls-1 {
        fill: #fff;
        stroke-width: 0px;
      }
    </style>
  </defs>
  <g id="_레이어_1-2" data-name="레이어 1">
    <path class="cls-1" d="M63.04,46.7c11.58,5.04,15.84,14.44,15.18,26.19-.79,14.24-9.74,26.7-26.89,26.98-16.72.27-33.45.06-50.96.06-.11-2.26-.28-4.26-.28-6.27C.09,64.79.25,35.92,0,7.05-.05,1.3,1.97-.13,7.33,0c12.85.32,25.71.34,38.56.06,11.13-.24,19.93,4.21,24.08,14.18,4.35,10.44,3.68,21.23-4.99,30.1-.58.59-1.05,1.28-1.93,2.36ZM34.14,56.52c-.01.14-.03.28-.04.42-2.73,0-5.48.19-8.19-.04-4.36-.39-6.11,1.33-5.9,5.76.24,5.03-.31,10.11.16,15.11.15,1.62,2.39,4.33,3.69,4.34,8.12.06,16.29-.09,24.35-1.01,6.06-.69,10.27-6.27,10.09-11.69-.18-5.24-4.33-10.32-9.9-11.33-4.69-.85-9.5-1.07-14.25-1.56ZM20.39,39.86c8.43-.58,16.54-.66,24.47-1.84,5.31-.79,7.72-5.9,6.78-10.38-.69-3.3-4.4-7.98-7.31-8.43-7.73-1.18-15.76-.4-23.94-.4v21.05Z"/>
  </g>
</svg>