<?xml version="1.0" encoding="UTF-8"?>
<svg id="_레이어_2" data-name="레이어 2" xmlns="http://www.w3.org/2000/svg" viewBox="0 0 84.39 100">
  <defs>
    <style>
      .cls-1 {
        fill: #fff;
        stroke-width: 0px;
      }
    </style>
  </defs>
  <g id="_레이어_1-2" data-name="레이어 1">
    <g>
      <path class="cls-1" d="M63.81,100c0-7.33.18-14.45-.05-21.55-.23-6.82-.81-13.64-1.44-20.44-.12-1.26-1.29-2.4-1.89-3.64-.31-.65-.6-1.4-.61-2.11-.16-16.43-.31-32.87-.35-49.3,0-.99.83-1.97,1.27-2.96.3.06.61.11.91.17.53,2.29,1.23,4.55,1.57,6.86,1.44,9.63,6.84,16.62,15.27,20.73,5.16,2.51,5.92,5.73,5.79,10.86-.33,13.2-.01,26.42.11,39.64.1,10.59-9.49,20.97-20.58,21.75Z"/>
      <path class="cls-1" d="M14.26,85.7c-1.23-1.51-2.65-2.9-3.67-4.54-4.77-7.67-6.51-16.11-6.17-25.08.15-3.9-.11-7.75,2.47-11.16,2.22-2.93,2.77-3.11,5.55-.77,2.55,2.15,4.32,5.53,8.36,5.34,1.8-.08,3.6-.17,5.4-.3,1.94-.14,3.09.47,3.05,2.66-.06,3.69-.02,7.39-.02,11.35-1.15,0-2.06,0-2.98,0-6.4-.08-10.18,3.17-10.93,9.56-.24,2.07-.23,4.17-.28,6.26-.04,2.07,0,4.14,0,6.21-.25.16-.51.32-.76.47Z"/>
      <path class="cls-1" d="M2.36,36.1C-.66,31.76-.33,27.31.88,23.13c1.31-4.52,3.38-8.83,5.37-13.12.38-.81,1.96-1.57,2.94-1.51,2.81.18,5.59.79,8.27,1.22v16.69c-6.92.43-11.21,4.61-15.1,9.69Z"/>
      <path class="cls-1" d="M40.2,30.11h10.1v23.87h-11.02v-10.25h1.87c1.72-4.99,1.58-12.08-.94-13.62Z"/>
      <path class="cls-1" d="M34.31,87.12c-.07-.6-.15-.97-.14-1.34.02-2.27-.66-4.96.33-6.69.84-1.48,3.68-1.74,5.5-2.78,3.69-2.11,7.28-4.38,11.13-6.72v17.54h-16.82Z"/>
      <path class="cls-1" d="M23.86,24.35v-9.3c2.39.13,4.9.27,7.66.42v8.88h-7.66Z"/>
      <path class="cls-1" d="M37.9,10.88q-.41-4.88,4.12-5.26c1.04-.09,2.08-.22,3.12-.31,5-.46,5.49.12,4.44,5.58h-11.68Z"/>
    </g>
  </g>
</svg>