<?xml version="1.0" encoding="UTF-8"?>
<svg id="_레이어_2" data-name="레이어 2" xmlns="http://www.w3.org/2000/svg" viewBox="0 0 59.07 100">
  <defs>
    <style>
      .cls-1 {
        fill: #fff;
        stroke-width: 0px;
      }
    </style>
  </defs>
  <g id="_레이어_1-2" data-name="레이어 1">
    <g>
      <path class="cls-1" d="M31.62,41.93c0-5.69,0-11.09,0-16.49-.01-5.37-2.45-8.22-7.77-8.8-4.56-.5-8.9.22-12.72,3-.38.28-.87.57-1.32.58-3.03.05-6.05.03-9.3.03,0-1.18-.02-2.59,0-4,.05-3.36.08-6.73.23-10.09.03-.55.53-1.39,1.01-1.56C7.92,2.38,14.06.13,20.77,0c7.09-.13,13.7,1.23,19.58,5.34,3.92,2.74,5.5,6.84,6.54,11.3,1.86,7.93,1.42,15.99,1.45,24.02,0,.42-.56,1.2-.87,1.2-5.22.08-10.45.05-15.85.05Z"/>
      <path class="cls-1" d="M1.01,97.29v-14.27c3.08.73,5.93,1.56,8.83,2.06,6.72,1.15,13.48,1.52,20.22.22,8.32-1.6,12.68-7.22,14.35-15.04,1.29-6.02,1.99-12.17,2.96-18.26.05-.32.09-.63.14-1.01h11.55c0,2.25.03,4.44,0,6.62-.12,7.5-.96,14.89-3.92,21.85-3.17,7.47-7.96,13.68-15.47,17.18-2.84,1.32-6.05,2.04-9.16,2.53-9.7,1.5-19.35,1.01-28.84-1.61-.26-.07-.5-.2-.65-.26Z"/>
      <path class="cls-1" d="M0,48.97c3.51,0,6.7-.05,9.89.06.51.02,1.08.7,1.47,1.19,1.37,1.76,2.43,3.86,4.06,5.32,3.7,3.31,7.75,1.94,9.07-2.84.09-.32.14-.64.21-.95,5.04-.39,9.28,2.8,8.12,8.91-.72,3.81-4.03,6.97-7.84,7.86-7.54,1.75-13.58-.59-18.3-6.53-3.04-3.83-4.91-8.3-6.69-13.01Z"/>
    </g>
  </g>
</svg>