<?xml version="1.0" encoding="UTF-8"?>
<svg id="_레이어_2" data-name="레이어 2" xmlns="http://www.w3.org/2000/svg" viewBox="0 0 46.77 100">
  <defs>
    <style>
      .cls-1 {
        fill: #fff;
        stroke-width: 0px;
      }
    </style>
  </defs>
  <g id="_레이어_1-2" data-name="레이어 1">
    <g>
      <path class="cls-1" d="M33.95,91.2c-.44.91-.88,1.86-1.37,2.78-1.91,3.63-4.43,4.75-8.24,3.52-2.14-.69-4.01-.58-6.25.17-4.04,1.34-8.19,2.57-12.63,2.3-1.93-.12-3.59-.61-5.39-1.46v-7.12c0-23.84-.03-47.67.02-71.51.01-5.82-.63-11.7,1.25-17.51C4.67.18,8.55,1.53,12.56,1.08c.04,1,.08,1.87.15,3.27-1.17-.46-1.91-.75-2.94-1.16v3.81c0,8.21.27,16.44-.08,24.64-.35,8.13,1.6,16.12,1.01,24.31,1.16-.2,2.25-.53,3.34-.56,3.06-.08,6.12.07,9.18-.05,2.99-.12,5.92.58,8.6,1.47,3.21,1.06,6.13,3.13,9.01,5.01,2.08,1.36,2.16,1.84,1.21,4.26-.36.92-.29,1.35.27,2.04.54.68,1.37,2.03,1.19,2.22-.78.8-.62,1.71-.86,2.6-1.2,4.25-1.2,6.37-.14,10.87.26,1.1-.2,2.38-.39,3.57-.12.75-.34,1.48-.49,2.13,1.33,1.71,4.13.83,5.17,3.19-4.46-.46-8.5-2.14-12.82-1.49.3-1.88,1.79-1.03,2.59-.93,1.73.23.79-1.77,1.87-1.91.71.57,1.18,1.53,2.79,1.84-.68-1.37-1.06-2.14-1.44-2.91,1.22-.08,1.28-1.06.75-1.58-1.55-1.53-2.88-3.14-3.57-5.24.88.18,1.79.45,2.7.71.73-2.39-1.14-3.22-2.62-4.88,0,1.73,0,2.98-.08,4.17-.72.65-1.39,1.24-2.01,1.87-1.97,1.97-3.6,4.62-5.96,5.78-4.35,2.14-9.28.99-13.98,1.01-1.64-1.59-3.45-.7-5.22-.71q0,5.8-2.21,7.77c1.28-9.83-.92-19.07-.78-28.46.29-19.32.09-38.65.09-57.98,0-1.13.2-2.31-.06-3.37-.23-.92-.99-1.7-1.65-2.76-1,1.05-2.91.93-1.33,2.91.63.79.03,2.5.15,3.77.51,5.33-1.14,10.79.91,16.04.19.48-.18,1.18-.31,1.77-.2.88-.59,1.76-.59,2.64-.05,7.73-.02,15.46-.03,23.19,0,2.33,1.55,4.42.98,6.85-.38,1.62-.9,3.27-.93,4.91-.12,5.15.2,10.32-.11,15.46-.31,5.1.87,10.03,1.05,15.06.07,1.94.9,2.75,3,2.64,2.57-.14,5.03-.87,7.43-1.87,1.24-.52,2.62-.95,3.93-.94,1.93,0,3.53-.57,5.13-1.82-.36-1.21-.74-2.46-1.18-3.95,3.18-.57,4.91,1.81,6.9,2.94,1.46-.77,1.99-2.6,3.81-2.04ZM9.76,86.33c5.76,0,11.37.24,16.93-.1,2.85-.17,5.48-2.09,6.12-4.89.42-1.85,2.43-2.51,2.29-4.39,2.43-.98,1.12-2.98.67-4.13-.86-2.21-1.97-4.67-3.73-6.1-3.13-2.55-6.7-4.83-11.08-4.56-3.09.19-6.17.55-9.24.97-1.45.2-2,1.24-1.99,2.71.04,6.73.02,13.46.02,20.49Z"/>
      <path class="cls-1" d="M32.02,27.29q.33-2.23,2.35-1.04c.18-.19.56-.45.53-.56-.91-2.71-.87-5.5-1.01-8.31-.11-2.28-3.06-6.2-5.94-8.13-3.62-2.42-7.09-5.15-11.29-6.42V.48c3.44-1.22,6.64.2,9.73.87,1.66.36,3.28.82,4.96.73,1.34-.07,2.45.26,3.47,1.02,4,3,7.72,6.22,9.13,11.35.15.55.32.72.09,1.41-1.46,4.24-4.11,8.05-4.37,12.74-.07,1.19-1.36,2.32-2.1,3.48-.95-.68-1.8-1.29-2.64-1.89v-2.47c-.31-.23-.42-.31-.53-.39-.82,1.73-1.58-.21-2.38-.04Z"/>
      <path class="cls-1" d="M30.11,32.71c-.36-.4-.67-.74-.97-1.08,2.06-1.68,1.62.82,2.37,1.43h3.09c.51,1.43,1.03,2.92,1.83,5.18-1.87-.57-2.96-1.2-3.99-1.12-1.13.08-2.17.94-3.31,1.24-1.18.31-2.43.56-3.64.48-1.15-.07-1.81,2.05-3.31.55-.33-.33-1.89-.23-2.61,0-1.3.41-2.05-.89-3.27-.58-.44.11-1.14-.85-1.64-1.25.98-1.96,2.69-1.61,4.24-1.54,3.29.15,6.44-.24,9.32-1.96.66-.39,1.25-.89,1.89-1.35Z"/>
      <path class="cls-1" d="M38.79,44.7c-.77-.08-1.51,0-1.58-.18-.61-1.68-.8-3.32,1.26-4.72.12.95.25,1.74.3,2.53.05.74.01,1.49.01,2.37Z"/>
      <path class="cls-1" d="M36.07,30.24c-1.35.87-2.04,1.32-2.81,1.82-.78-1.87.38-1.92,2.81-1.82Z"/>
      <path class="cls-1" d="M32.02,27.72c-.19.15-.38.3-.57.45-.06-.2-.22-.54-.16-.59.2-.15.48-.2.73-.29,0,.14,0,.29,0,.43Z"/>
      <path class="cls-1" d="M39.33,87.3c-.15-.19-.3-.38-.45-.57.2-.06.54-.22.59-.16.15.2.2.48.29.73-.14,0-.29,0-.43,0Z"/>
    </g>
  </g>
</svg>