<?xml version="1.0" encoding="UTF-8"?>
<svg id="_레이어_2" data-name="레이어 2" xmlns="http://www.w3.org/2000/svg" viewBox="0 0 64.04 100">
  <defs>
    <style>
      .cls-1 {
        fill: #fff;
        stroke-width: 0px;
      }
    </style>
  </defs>
  <g id="_레이어_1-2" data-name="레이어 1">
    <g>
      <path class="cls-1" d="M22.76,95.73C0,66.54,0,33.63,0,.22,11.17.22,22.3-.42,33.3.49c5.5.46,11.36,1.23,16.54,4.57,6.06,3.91,9.83,8.75,11.54,15.84.89,3.66,1,7.2,1.26,10.83.41,5.69-2.23,10.51-4.85,15.04-1.42,2.46-4.82,3.77-7.51,5.73,5.27,2.16,8.67,7.01,10.44,12.38,1.63,4.95.75,10.39-1.78,15.25-.61,1.18-1.73,2.23-1.93,3.45-.91,5.37-5.33,6.52-9.41,7.7-1.39.4-2.34.84-3.08,1.88-2.78,3.88-7.98,6.79-12.7,6.81-10.42.05-20.85.02-9.06-4.26,22.28-4.75,21.81-5.23,21.54-5.45-2.56-3.08-1.28-6.44-1.58-8.69,2.16-3.24,4.62-5.64,5.5-8.53,1.8-5.88-4.27-12.71-11.19-12.92-7.04-.21-14.09-.05-21.29-.05v26.52c2.49,1.77,5.33,1.96,8.35,2.06,6.68.24,13.49-1.34,20.21,1.6.27.22.74.7-21.54,5.45ZM42.59,16.54c-9.22-3.17-18.02-1.66-27.06-2.19.21,10.9-.24,21.21.29,31.49,6.41,0,12.33.04,18.26-.03,1.55-.02,2.99-.08,4.64-.81,5.5-2.44,9.98-5.33,9.66-12.22,2.55-2.45.2-4.91.22-7.35.03-3.52-2.23-4.94-4.06-6.94-.8-.88-1.67-1.68-1.94-1.95Z"/>
      <path class="cls-1" d="M63.54,95.53c-.3-.17-.61-.34-.92-.51.16-.16.35-.47.47-.45.34.07.64.29.96.45-.16.16-.32.32-.51.51Z"/>
    </g>
  </g>
</svg>