<?xml version="1.0" encoding="UTF-8"?>
<svg id="_레이어_2" data-name="레이어 2" xmlns="http://www.w3.org/2000/svg" viewBox="0 0 68.95 100">
  <defs>
    <style>
      .cls-1 {
        fill: #fff;
        stroke-width: 0px;
      }
    </style>
  </defs>
  <g id="_레이어_1-2" data-name="레이어 1">
    <g>
      <path class="cls-1" d="M3.88,95.96c-1.02-7.67,1.63-14.72,1.18-22.03-.44-7.15-.1-14.34-.1-21.52s-.1-14.76.06-22.13c.05-2.5.92-4.98,1.13-7.49.2-2.43.04-4.88.04-7.28.87-.41,1.62-.76,2.38-1.12-.07-.28-.15-.55-.22-.83-2.58.49-5.17.97-8.19,1.54-.05-1.15-.1-2.1-.15-3.17,1.64-.82,3.29-1.65,4.66-2.34-.29-1-1.04-2.32-.72-2.66,1.29-1.41,2.33-3.31,4.85-3.11,1.02.08,2.09-.92,3.18-1.08.65-.1,1.4.46,2.65.93.36-.59.97-1.58,1.44-2.35,6.58.76,12.42-2.19,18.45-1.07,6.2,1.15,12.88.64,18.26,4.88,3.88,3.05,8.98,4.93,10.18,10.59.19.91,1.06,1.77,1.01,2.62-.25,4.27,1.51,7.88,3.24,11.6.95,2.05,1.45,4.4,1.69,6.66.48,4.45-1.9,8.22-3.79,11.91-.81,1.58-3.31,2.37-5.13,3.35-1.49.8-3.23,1.18-4.67,2.05-2.66,1.59-5.35,2.26-8.49,1.23.1-.59,0-1.47.31-1.63,5.66-3.08,9.2-8.46,13.72-12.75,1.23-1.17,2.26-3.14,1.98-5.28-.41-3.11.49-6.23-1.06-9.42-.8-1.65-.97-3.13-3.01-3.73-3.41-1.01-5.58-3.6-6.89-6.7-.91-2.14-2.26-3.26-4.23-4.46-4.18-2.52-8.37-4.1-13.3-3.61-2.23.22-4.51.08-6.76.03-3.15-.07-6.35.49-9.36-1.16-.77-.42-1.96-.06-3.18-.06v7.1c-1.72.16-3.26.3-5.19.49,2.1,7.57,2.72,15.16,2.57,22.87-.19,10.04-.1,20.09-.01,30.13.02,2.72-.23,5.38,1,8.18.96,2.19.76,5.34-2.5,6.81,1.88,1.4,3.1,2.86,2.73,5.21-.18,1.18-.34,2.65.2,3.56.56.94,1.29,2.61,3.34,1.38,2.35-1.41,4.67-1.4,7.65-.4,3.95,1.33,8.33,4.06,12.87.88.39-.27,1.62.96,2.46.96.87,0,1.75-1.02,2.61-.99,6.18.27,10.63-3.2,15.13-6.52,0-2.48.02-4.72,0-6.97-.06-5.41-5.31-11.06-10.69-12.51-4.15-1.12-8.26-1.08-12.43-1.12-2.25-.02-4.51.07-6.76-.03-2.54-.11-3.42-1.21-3.33-3.88.07-2.22,1.04-3.39,3.13-3.46,3.76-.12,7.45-.11,11.22-1.06,2.44-.61,5.59.09,8,1.15,5.02,2.21,10.43,3.34,15.07,6.83,3.68,2.77,5.3,5.94,5.56,9.99.29,4.5.67,9.15-2.3,13.16-.68.92-.93,2.41-1.8,2.88-3.25,1.77-4.52,5.62-8.85,6.67-5.22,1.27-10.26,2.41-15.65,2.24-5.73-.18-11.48.02-17.21-.08-1.72-.03-3.69.8-5.1-1.06-.16-.21-.76-.11-1.15-.13q-5.84-.25-10.27-2.45c-.33-.17-.76-.14-1.43-.24ZM7.24,78.52c-.14-.26-.29-.53-.44-.79-.14.14-.41.3-.38.4.06.29.25.55.38.83.14-.14.27-.27.44-.44Z"/>
      <path class="cls-1" d="M29.82,24.94c2.8-.12,5.45-.75,7.37,1.86.33.45,1.45.41,2.21.46,1.22.07,2.47-.11,3.67.04,4.88.63,9.09-1.08,13.56-3.87,0,1.27-.41,2.62.07,3.12,2.79,2.95.57,5.44-1.16,7.08-1.81,1.73-4.57,2.96-7.08,3.34-3.59.55-7.34.3-11,.07-1.64-.1-3.23-.97-5.21-1.62-.17-1.58.07-3.73-.73-5.38-.74-1.54-2.55-2.56-1.71-5.12Z"/>
    </g>
  </g>
</svg>