<?xml version="1.0" encoding="UTF-8"?>
<svg id="_레이어_2" data-name="레이어 2" xmlns="http://www.w3.org/2000/svg" viewBox="0 0 76.18 100">
  <defs>
    <style>
      .cls-1 {
        fill: #fff;
        stroke-width: 0px;
      }
    </style>
  </defs>
  <g id="_레이어_1-2" data-name="레이어 1">
    <path class="cls-1" d="M6.92,96.74C.99,96.46-.06,93.67,0,90.3c.23-12.69.09-25.38.09-38.15,3.63-.89,5.17-2.91,5.07-6.87-.28-10.49.04-20.99-.15-31.48-.1-5.29,1.98-8.31,6.91-10.59C16.12,1.28,20.02-.16,24.72.01c7.72.29,15.46.08,23.19.08s7.82.12,14.97,3.86c3.58,1.88,5.46,4.46,5.18,8.52-.18.2-.34.44-.56.59-.2.14-.47.28-.71.28-17.63.01-35.27.01-52.81.01-1.27,3.85-3.8,6.93-.88,11.28,1.41,2.09.24,5.91.24,8.95v9.89c2.05-.55,3.72-.87,5.29-1.46,2.86-1.08,5.58-2.76,8.52-3.35,2.47-.49,5.3-.19,7.75.51,6.78,1.94,13.48,4.2,16.66,11.51.41.94,1.51,1.58,2.58,2.65h22.01v5.79c-2.01,2.01-4.34,3.73-5.78,6-.95,1.5-3.17,3.58-.67,5.77-1.08,4.87-2.21,9.8-4.68,14.13-1.67,2.91-3.81,6.03-6.57,7.71-3.17,1.94-7.21,2.57-10.95,3.46-3.3.79-6.69,1.36-10.08,1.65-3.29.28-6.63-.08-9.93.09-4.77.25-9.57-.82-14.32,1.41-1.68.79-4.71,1.22-6.96-.89-.63-.59-2.59.24.69-1.72,12.4-2.16,20.02-2.15,27.64-2.17.51,0,1.02-.16,1.51-.33,4.71-1.55,9.5-2.9,14.48-2.92,3.41-.01,6.04-1.37,8.52-3.47,4.66-3.95,6.21-9.76,8.93-14.86.18-.33-.61-1.18-1.29-2.39-2.46,2.32-5.5,3.97-6.53,6.45-1.8,4.35-5.63,6.51-8.48,9.68-1.28,1.42-3.46,2.42-5.38,2.79-5.22.99-10.41,2.33-15.84,1.78-6.42-.66-12.65.53-23.56,5.44ZM13.3,83.89c5.81,4.01,5.85,3.66,10.46,4.15,7.1.74,13.92-1.29,20.02-3.69,12.39-4.88,18.53-12.8,15.53-22.91-3.34,0-6.87.05-10.39-.02-2.53-.05-3.85-1.54-4.05-3.99-.11-1.37.52-3.14-.13-4.06-1.7-2.4-.67-5.85-3.29-7.77-1.25-.92-10.56-4.45-11.54-4.01-4.67,2.09-10.27,2.62-13.62,8.3v8.6c-1.49,1.64-2.57,2.36-2.84,3.3-.18.65,1.36,1.89,1.13,2.41-2.97,6.58-.31,13.36-1.31,19.69Z"/>
  </g>
</svg>