<?xml version="1.0" encoding="UTF-8"?>
<svg id="_레이어_2" data-name="레이어 2" xmlns="http://www.w3.org/2000/svg" viewBox="0 0 60.74 100">
  <defs>
    <style>
      .cls-1 {
        fill: #fff;
        stroke-width: 0px;
      }
    </style>
  </defs>
  <g id="_레이어_1-2" data-name="레이어 1">
    <path class="cls-1" d="M6.28,70.14c-1.91-.31-3.83-.62-6.28-1.01.96-1.14,1.13-1.56,1.35-1.58q8.27-1.01,8.24-9.23c-.03-13.61.09-27.22-.12-40.82-.07-4.63-.93-9.25-1.55-15.06C16.03,1.6,24.96-.58,33.64.14c9.2.77,16.41,5.64,22.44,14.1,5.87,8.23,4.93,15.99,3.07,23.69-1.22,5.04-6.42,9.13-9.85,13.63-.47.62-1.06,1.16-1.87,2.03,6.65,4.24,10.04,10.24,12.45,17.31,3.73,10.99-4.87,29.43-20.35,29.09-8.55-.19-17.11-.29-25.65-.68-1.06-.05-2.6-1.39-2.98-2.47-1.17-3.29-2-6.72-2.74-10.14-.95-4.41,1.28-9.37-2.47-13.37-.44-.47.37-2.11.6-3.2ZM20.65,55.13c4.21-1.12,8.32-1.36,11.48-3.22,10.21-6,15.95-14.96,15.75-27.17-.1-5.93,1.09-11.96-4.14-16.89C36.84,1.36,29.5-.28,20.65,4.06v51.06ZM16.08,95.47c3.43.55,6.2.83,8.89,1.46,10.47,2.43,21.79-4.32,23.37-14.97.89-6.01.48-12.41-.59-18.42-.46-2.58-3.87-6.23-6.32-6.56-6.68-.91-13.57-.31-20.19-.31-.98,7-1.9,13.29-2.73,19.58-.85,6.44-1.63,12.89-2.42,19.23Z"/>
  </g>
</svg>