<?xml version="1.0" encoding="UTF-8"?>
<svg id="_레이어_2" data-name="레이어 2" xmlns="http://www.w3.org/2000/svg" viewBox="0 0 58.59 100">
  <defs>
    <style>
      .cls-1 {
        fill: #fff;
        stroke-width: 0px;
      }
    </style>
  </defs>
  <g id="_레이어_1-2" data-name="레이어 1">
    <path class="cls-1" d="M17.46,40.2c1.95,0,3.15-.38,3.75.06,3.85,2.79,7.65.96,11.32-.12,4.97-1.47,9.3-7.63,9.46-12.9.08-2.76.01-5.53.01-8.91-.71-.6-1.88-1.37-2.78-2.38-6.27-7.06-14.2-5.06-20.33-.27-4.04,3.16-5.3,7.87-5.9,12.72-.19,1.53-.03,3.1-.03,4.69-4.7.85-6.86-2.37-8.04-5.16-.74-1.76-1.19-4.11-1.65-6.23,2.84-1.49,1.05-4.47,2.14-6.73C9,7.5,14.16,3.03,22.48,1.21c3.83-.83,7.74-1.72,11.16-.85,3.38.86,6.95,1.69,10.33,3.37,4.47,2.22,6.54,6.12,8.89,9.59,4.18,6.17,5.63,13.62,4.16,20.92-.96,4.79-3.38,9.48-8.68,11.55-.79.31-1.35,1.2-2.03,1.83,2.98,4.03,5.82,8.15,8.96,12.03,2.35,2.9,3.46,6.11,3.27,9.7-.23,4.2.69,8.4-1.16,12.64-1.06,2.42-1.78,4.88-3.74,6.74-1.17,1.11-2.36,2.1-2.07,4.04.06.38-1.02,1.04-1.67,1.39-8.13,4.41-16.8,6.9-26.02,5.46-9.71-1.51-18.24-5.39-22.67-17.82-2.66-7.49-.87-14.15,3.65-20.19.87-1.17,3-1.66,4.64-1.94,1.96-.33,4.02-.08,6.94-.08-2.45,2.43-4.11,4.25-5.95,5.86-4.12,3.61-5.19,8.45-4.32,13.33.83,4.7,2.91,9.24,7.1,12.18.79.56,2.11.38,3.7.61v-5.68c.83.37,1.3.42,1.44.66,1.18,2.04,2.27,4.13,3.47,6.16.34.57.97,1.4,1.45,1.39,3.85-.05,7.88.39,11.49-.62,3.84-1.08,6.68-4.21,8.53-7.94.47-.95.73-2.1,1.42-2.85,3.28-3.52,4.14-7.24,1.35-11.44-.08-7.14-4.6-11.83-9.41-16.1-3.41-3.02-7.48-5.28-11.14-8.05-2.63-1.99-5.06-4.26-8.15-6.89Z"/>
  </g>
</svg>