<?xml version="1.0" encoding="UTF-8"?>
<svg id="_레이어_2" data-name="레이어 2" xmlns="http://www.w3.org/2000/svg" viewBox="0 0 61.89 100">
  <defs>
    <style>
      .cls-1 {
        fill: #fff;
        stroke-width: 0px;
      }
    </style>
  </defs>
  <g id="_레이어_1-2" data-name="레이어 1">
    <path class="cls-1" d="M0,.16C10.06.16,19.89-.27,29.67.28c8.84.5,17.46,3.05,24.36,8.77,3.43,2.84,5.22,7.51,6.1,12.11.3,1.58-.05,3.28.06,4.91.63,9.35-2.35,17.24-9.38,23.54-.29.26-.32.79-.65,1.66,1,.55,2.15,1.01,3.09,1.75,1.1.86,1.93,2.06,3.02,2.93,3.37,2.7,4.65,6.86,5.05,10.49.65,5.8,1.22,11.91-1.14,17.66-2.97,7.25-7.91,12.36-15.64,14.42-2.12.56-4.27,1.16-6.45,1.36-2.55.24-5.15.06-7.72.06H0V.16ZM13.91,44.39c2.8.86,4.85,1.85,6.97,2.06,3.1.3,6.33.46,9.19-1.32,6.21.79,9.76-3.54,12.81-7.59,2.11-2.8,3.62-6.63,3.2-10.47-.71-6.5-7.51-12.65-14.11-12.82-5.99-.16-11.98-.03-18.06-.03v30.18ZM13.93,87.29c7.64,0,14.64.06,21.63-.02,4.39-.05,7.05-2.29,9.35-6.18,1.93-3.26.64-6.27,1.19-9.33.57-3.12-1.7-5.33-2.67-7.97-1.24-3.35-3.94-4.36-6.63-4.48-7.61-.34-15.24-.12-22.87-.12v28.11Z"/>
  </g>
</svg>