<?xml version="1.0" encoding="UTF-8"?>
<svg id="_레이어_2" data-name="레이어 2" xmlns="http://www.w3.org/2000/svg" viewBox="0 0 76.29 100">
  <defs>
    <style>
      .cls-1 {
        fill: #fff;
        stroke-width: 0px;
      }
    </style>
  </defs>
  <g id="_레이어_1-2" data-name="레이어 1">
    <path class="cls-1" d="M60.02,46.83c3.29,2.67,6.6,5.01,9.49,7.79,4.32,4.15,6.48,9.15,6.76,15.43.37,8.08-3.08,13.9-8.04,19.73-6.53,7.67-14.67,10.32-24.33,10.21-14.46-.16-28.93-.04-43.87-.04v-5.65C.02,67.67-.06,41.03.1,14.4.13,9.88,1.23,5.37,1.94.1h5.75C19.3.1,30.91-.17,42.5.18c11.55.35,20.8,4.86,25.72,16.15,1.28,2.94,2.91,5.51,3.29,8.97.73,6.57-2.79,11.57-5.27,16.89-.92,1.98-3.91,2.99-6.23,4.65ZM47.23,58.74c-8.07,1.64-17.07-3.37-26.61-1.14,0,7.47.03,14.82-.02,22.17-.02,2.43.91,4.19,3.41,4.28,4.74.18,9.65.81,14.2-.15,5.05-1.07,10.17-3.09,13.33-7.78,1.7-2.52,3.63-5.59,2.2-8.42-1.53-3.03-1.31-7.31-6.51-8.97ZM20.74,41.31c6.45,0,12.23.02,18.01,0,5.01-.03,8.02-2.54,10.58-6.92,2.25-3.86.66-7.58,1.54-11.23-1.59-1.56-2.91-3.28-4.62-4.44-1.99-1.36-4-2.85-6.72-2.79-6.23.12-12.46.04-18.79.04v25.36Z"/>
  </g>
</svg>