<?xml version="1.0" encoding="UTF-8"?>
<svg id="_레이어_2" data-name="레이어 2" xmlns="http://www.w3.org/2000/svg" viewBox="0 0 71.66 100">
  <defs>
    <style>
      .cls-1 {
        fill: #fff;
        stroke-width: 0px;
      }
    </style>
  </defs>
  <g id="_레이어_1-2" data-name="레이어 1">
    <path class="cls-1" d="M0,99.97V.05h4.1C16.01.05,27.93.17,39.84,0c6.15-.09,11.77,1.55,16.84,4.71,4.85,3.02,7.82,7.52,9.35,13.23,1.21,4.51.62,8.94.73,13.4.09,3.4-3.53,9.28-6.44,11.44-.35.26-.59.65-1.03,1.16.34.46.58,1.16,1.02,1.32,3.63,1.35,5.07,4.89,7.25,7.55,1.61,1.96,2.09,4.89,2.92,7.44,1.62,4.97,1.25,10.17.78,15.18-.42,4.47-2.48,8.73-4.93,12.56-1.97,3.07-4.34,5.78-7.59,7.87-3.92,2.51-8.07,3.98-12.53,4.03-15.27.18-30.55.07-46.2.07ZM15.49,85.3c8.88,0,17.27.08,25.67-.06,2.12-.04,4.49-.32,6.28-1.33,4.57-2.57,8.37-7.48,7.5-12.79-.22-1.34.24-2.81-.08-4.1-.94-3.75-2.16-7.1-5.9-9.51-2.71-1.74-5.79-.62-8.23-2.37-.41-.29-1.18-.09-1.78-.09-6.87,0-13.74-.03-20.61.01-2.2.01-2.83.67-2.84,2.98-.03,8.98-.01,17.97-.01,27.26ZM16.56,14.72v24.75c8.21,0,16.27.12,24.32-.08,2.05-.05,4.22-.85,6.06-1.83,2.09-1.11,3.58-3.09,4.26-5.4.57-1.91-.04-8.86-.92-10.56-1.97-3.81-5.03-6.63-9.4-6.79-8.05-.29-16.11-.08-24.32-.08Z"/>
  </g>
</svg>