<?xml version="1.0" encoding="UTF-8"?>
<svg id="_레이어_2" data-name="레이어 2" xmlns="http://www.w3.org/2000/svg" viewBox="0 0 83.81 100">
  <defs>
    <style>
      .cls-1 {
        fill: #fff;
        stroke-width: 0px;
      }
    </style>
  </defs>
  <g id="_레이어_1-2" data-name="레이어 1">
    <path class="cls-1" d="M58.93,46.41c5.89,2.76,11.68,4.26,15.93,7.68,11.72,9.41,11.7,24.67,1.28,35.7-6.77,7.16-14.45,10.52-24.35,10.19-13.64-.46-27.31-.07-40.96-.18-2.96-.02-5.92-.64-10.13-1.13C-1.81,66.62,3.29,34.93,3,2.61c5.06-.34,9.28-.7,13.51-.91C28.45,1.1,40.39.53,52.32.02c8.45-.36,15.09,3.99,19.57,10.22,2.25,3.13,2.2,8.93,1.29,13.1-1.99,9.14-5.66,17.74-14.26,23.07ZM37.66,47.31c-.4-4.86-.8-9.74-1.2-14.67h-8.11c1.12,11.98.87,15.48,9.3,14.67ZM41.3,70.49c.57-8.39-5.88-5.53-9.91-7.75.2,3.42.35,6.03.54,9.15,3.44-.51,6.11-.91,9.37-1.4Z"/>
  </g>
</svg>