<?xml version="1.0" encoding="UTF-8"?>
<svg id="_레이어_2" data-name="레이어 2" xmlns="http://www.w3.org/2000/svg" viewBox="0 0 50.95 100">
  <defs>
    <style>
      .cls-1 {
        fill: #fff;
        stroke-width: 0px;
      }
    </style>
  </defs>
  <g id="_레이어_1-2" data-name="레이어 1">
    <path class="cls-1" d="M20.05,44.81c.26,5.17.49,9.62.76,14.84,4.18-.96,7.67-1.78,11.16-2.55,6.51-1.42,10.49,2.01,9.94,8.59-.39,4.66-1.59,9.39-1.06,13.93.38,3.3,2.87,6.41,4.66,9.47,1.64,2.81,3.61,5.42,5.43,8.12-.26.39-.52.78-.77,1.18-7.97,0-15.94-.15-23.9.07-3.67.1-7.31,1.11-10.99,1.36-3.78.26-7.59.02-11.37.17C.78,100.12-.02,98.6,0,95.72c.13-18.88.13-37.76.19-56.64.04-11.71.18-23.41.11-35.12C.29,1.19,1.14-.02,4,0c12.79.07,25.59.03,38.23.03.52,1.6.87,2.13.83,2.64-.88,11.63-1.27,23.34-2.88,34.87-1.15,8.22-8.55,11.53-16.37,8.51-.93-.36-1.89-.63-3.76-1.25ZM30.06,88.09c-2.19-5.78-4.32-11.4-6.46-17.01-.21-.54-.39-1.21-.81-1.52-1.19-.89-2.5-1.63-3.76-2.43-.66,1.33-1.85,2.67-1.85,4,0,2.58.53,5.19,1.07,7.74,1.71,8,3.47,9.31,11.81,9.22ZM25.26,17.28c-6.56-1.51-9.08,3.89-6.1,14.57,6.3-2.62,7.8-6.59,6.1-14.57Z"/>
  </g>
</svg>