<?xml version="1.0" encoding="UTF-8"?>
<svg id="_레이어_2" data-name="레이어 2" xmlns="http://www.w3.org/2000/svg" viewBox="0 0 72.64 100">
  <defs>
    <style>
      .cls-1 {
        fill: #fff;
        stroke-width: 0px;
      }
    </style>
  </defs>
  <g id="_레이어_1-2" data-name="레이어 1">
    <path class="cls-1" d="M0,.5C15.14.5,30.17-.81,44.88.81c20.5,2.27,29.37,20.2,21.58,39.26-1.39,3.4-5.57,5.66-8.62,8.61,5.69,2.86,11.28,6.29,13.35,13.14,2.65,8.79,1.7,17-3.02,25.11-3.38,5.81-8.35,9.13-13.98,11.95-1.03.51-2.19,1.06-3.3,1.07-16.79.07-33.58.05-50.89.05V.5ZM16.24,54.37c0,6.24,0,11.2,0,16.16s0,10.06,0,14.97c8.62,0,16.39.45,24.07-.19,3.84-.32,7.87-2.07,11.19-4.18,4.04-2.57,7-11.97,4.39-15.43-2.71-3.6-6.95-7.39-11.12-8.28-9.16-1.95-18.69-2.11-28.53-3.05ZM16.63,40.67c8.55,0,16.85.41,25.09-.13,6.76-.44,10.58-5.05,10.91-11.46.36-7.14-3.25-12.9-9.99-13.74-8.6-1.08-17.35-1.05-26.01-1.49v26.83Z"/>
  </g>
</svg>