<?xml version="1.0" encoding="UTF-8"?>
<svg id="_레이어_2" data-name="레이어 2" xmlns="http://www.w3.org/2000/svg" viewBox="0 0 60.57 100">
  <defs>
    <style>
      .cls-1 {
        fill: #fff;
        stroke-width: 0px;
      }
    </style>
  </defs>
  <g id="_레이어_1-2" data-name="레이어 1">
    <path class="cls-1" d="M.04.24c3.67,0,7.38.03,11.09,0,7.52-.07,15.04-.33,22.55-.2,3.4.06,6.84.67,10.18,1.43,4.71,1.08,8.2,4.02,10.83,8.05,5.14,7.87,6.48,16.42,4.25,25.46-1.62,6.56-6.02,11.22-11.41,15.02-.25.18-.51.34-.81.54,1.45.9,2.83,1.71,4.17,2.6,5.1,3.41,7.6,8.44,8.87,14.24,1.18,5.36,1.08,10.72-.34,16-1.92,7.17-6.94,11.42-13.7,13.9-5.62,2.06-11.5,2.39-17.38,2.51-5.84.13-11.68-.01-17.52.01-3.17.01-6.34.13-9.51.19-.45,0-.89,0-1.31,0C.63,66.73.23,33.54.04.24ZM24.75,85.55c1.73,0,3.04.07,4.35-.01,5.14-.32,8.75-3.38,9.77-8.42,1.44-7.12-.5-13.32-5.49-18.55-1.3-1.36-2.9-2.42-4.82-2.55-3.57-.25-4.03.48-4,3.41.08,7.24.14,14.47.2,21.71.01,1.44,0,2.88,0,4.42ZM24.93,44.17c3.01.15,5.28-.97,7.23-2.78,4.8-4.47,6.81-13.49,4.45-19.63-1.74-4.52-7.02-7.46-11.68-6.44v28.84Z"/>
  </g>
</svg>