<?xml version="1.0" encoding="UTF-8"?>
<svg id="_레이어_2" data-name="레이어 2" xmlns="http://www.w3.org/2000/svg" viewBox="0 0 109.68 100">
  <defs>
    <style>
      .cls-1 {
        fill: #fff;
        stroke-width: 0px;
      }
    </style>
  </defs>
  <g id="_레이어_1-2" data-name="레이어 1">
    <path class="cls-1" d="M43.19,100h-23.67c.7-8.27,1.92-16.7,2.04-25.15.27-19.85.02-39.71-.03-59.56,0-.95-.13-1.89-.26-3.71-5.85.54-11.4,1.06-17.2,1.6C2.8,9.71,1.58,6.43,0,2.15c30.94.04,61.29-5.81,92.61,1.62.1.88,1.08,3.5.51,5.72-4.3,16.73.01,32.77,3.64,48.84,1.73,7.65,4.3,15.12,5.79,22.81.65,3.38-.69,7.11-.64,10.67.02,1.33,1.13,3.09,2.28,3.86,1.57,1.04,3.64,1.32,5.5,1.93-.09.57-.18,1.14-.27,1.71h-26.69c.2-2.81,1.13-6.01.52-8.88-2.57-12.04-5.59-23.98-8.48-35.95-.22-.93-.44-2.34-1.07-2.62-8.02-3.56-5.71-10.48-5.75-16.75-.03-4.34-.27-8.75-1.05-13.01-.87-4.75,2.18-5.57,5.67-6.92.84,4.24,1.32,8.24,2.55,11.99.44,1.33,2.7,2.07,4.64,3.43,2.05-12.78-9.42-27.79-22.1-28.09-6.85-.17-14.38-2.28-19.76,4.3-1.22,1.5-2.5,3.53-2.54,5.34-.59,26.97.77,53.82,5.17,80.47.38,2.28,1.59,4.42,2.69,7.38Z"/>
  </g>
</svg>