<?xml version="1.0" encoding="UTF-8"?>
<svg id="_레이어_2" data-name="레이어 2" xmlns="http://www.w3.org/2000/svg" viewBox="0 0 54.26 100">
  <defs>
    <style>
      .cls-1 {
        fill: #fff;
        stroke-width: 0px;
      }
    </style>
  </defs>
  <g id="_레이어_1-2" data-name="레이어 1">
    <path class="cls-1" d="M7.81,55.83c-.58-3.71-1.15-7.32-1.84-11.76,6.1,0,11.89.08,17.67-.04,2.12-.04,4.29-.31,6.33-.87,6.65-1.79,10.21-6.66,9.54-12.7-.68-6.06-6.3-11.34-12.56-11.45-8.3-.14-16.59-.04-25.53-.04-.41-2.78-1.91-6.87-1.24-10.57C.64,5.79,3.78,2.06,6.19,1.66,17.59-.2,29.37-1.72,40.08,4.18c15.21,8.37,18.81,29.64,7.74,43.14-.67.81-1.33,1.63-2.1,2.57,9.43,10.49,9.82,22.24,5.09,34.58-3.91,10.21-12.5,14.12-22.45,15.2-6.42.7-12.98.03-19.47.18-2.79.06-3.88-.85-3.76-3.73.19-4.46.05-8.93.05-13.97,4.98,0,9.71.09,14.42-.03,3.37-.09,6.84,0,10.08-.78,7.16-1.71,10.24-6.3,9.41-13.09-.81-6.6-5.72-10.89-12.52-11.2-6.01-.27-12.01-.76-18.75-1.21Z"/>
  </g>
</svg>