<?xml version="1.0" encoding="UTF-8"?>
<svg id="_레이어_2" data-name="레이어 2" xmlns="http://www.w3.org/2000/svg" viewBox="0 0 108.6 100">
  <defs>
    <style>
      .cls-1 {
        fill: #fff;
        stroke-width: 0px;
      }
    </style>
  </defs>
  <g id="_레이어_1-2" data-name="레이어 1">
    <path class="cls-1" d="M0,5.77V.03C2.69.03,5.36-.04,8.02.04c8.11.27,16.21.72,24.32.87,7.42.13,14.84.04,22.26-.12,7.55-.16,15.1-.87,22.63-.68,7.76.19,15.28,1.94,21.52,6.99,2.91,2.36,4.47,5.37,4.52,9.44.05,3.98.47,7.92-.72,11.8-1.93,6.29-5.84,10.92-11.65,14.03-4.71,2.53-9.65,4.11-15.03,4.24-.71.02-1.41.28-2.11.42-.04.22-.08.44-.12.67,1,.33,1.99.74,3.01.97,10.06,2.3,18.73,7.12,25.8,14.62,4.33,4.59,6.19,10.26,6.13,16.54-.02,1.62-.31,3.24-.36,4.86-.02.44.37.9.39.94-.64,2.17-1.21,4.08-1.82,6.13-.55-.04-.97-.08-1.39-.11.08.15.17.3.25.45-1.87,1.05-3.74,2.09-5.6,3.15-1.58.9-3.15,1.83-4.8,2.79-.34-.07-1.05-.47-1.58-.3-8.53,2.67-17.31,2.24-26.06,2.26-12.48.03-24.96.03-37.44-.03-7.48-.03-14.96-.21-22.44-.31-1.98-.03-3.96,0-5.89,0-.16-2.04-.3-3.96-.44-5.86.42-.25.68-.52.99-.57,4.19-.72,5.05-3.78,5.1-7.33.11-7.62.18-15.24.21-22.87.07-16.6.11-33.19.11-49.79,0-1.51-.35-3.05-.73-4.52-.45-1.75-1.89-2.17-3.52-2.3-1.11-.09-2.21-.39-3.55-.64ZM46.05,93.76c1.91.44,3.78,1.21,5.66,1.22,4.98.03,9.99-.01,14.93-.53,4.76-.5,8.3-3.17,10.65-7.45,2.67-4.86,3.1-10.12,3.01-15.47-.16-10.01-6.68-18.83-16.28-21.54-4.11-1.16-8.45-1.57-12.7-2.16-1.75-.24-3.56-.04-5.48-.04,0,15.32-1,30.47.21,45.97ZM44.59,42.83c.64.04,1.23.14,1.81.1,4.57-.31,9.16-.46,13.7-1.02,8.76-1.07,14.39-6.87,15.22-15.68.4-4.26.83-8.55-.86-12.75-1.54-3.84-3.84-6.75-7.92-8-5.84-1.79-11.68-1.7-17.5.08-2.57.78-4.32,3.02-4.35,5.66-.13,10.24-.19,20.48-.26,30.72,0,.25.09.51.17.88Z"/>
  </g>
</svg>