<?xml version="1.0" encoding="UTF-8"?>
<svg id="_레이어_2" data-name="레이어 2" xmlns="http://www.w3.org/2000/svg" viewBox="0 0 86.07 100">
  <defs>
    <style>
      .cls-1 {
        fill: #fff;
        stroke-width: 0px;
      }
    </style>
  </defs>
  <g id="_레이어_1-2" data-name="레이어 1">
    <path class="cls-1" d="M79.86,39.28c-3.68,2.35-7.58,4.86-11.48,7.36,3.85,3.61,7.74,6.87,11.17,10.55,6.05,6.5,7.83,14.96,5.62,22.83-2.57,9.15-9.55,15.51-19.25,18-2.56.66-5.1,1.58-7.7,1.82-3.43.32-6.9.08-10.36.08H.54c0-13.03-1.4-25.73.32-37.99C3.64,42.06,1.25,22.23,2.75,1.71c2.58,0,5.34-.23,8.05.04C20.72,2.75,30.42-.45,40.17.05c8.43.44,16.88,1.79,24.68,6.23,6.97,3.97,11.2,9.72,14.39,16.61.6,1.3.56,2.96.59,4.45.08,3.76.03,7.51.03,11.94ZM55.73,56.1c-10.48,2.34-21.26-1.79-32.06-1.51v26.43c11.74,0,23,0,34.27,0,8.57-5.76,8.13-17.45-2.21-24.92ZM52.72,37.39c4.96-8.07.14-14.25-3.64-20.83-8.26,1.85-15.74-4.06-22.77-1.34-4.79,5.6-2.88,11.61-3.04,17.28-.18,6.24.68,6.49,6.8,7.06,7.72.71,15.03-1.91,22.64-2.17Z"/>
  </g>
</svg>