<?xml version="1.0" encoding="UTF-8"?>
<svg id="_레이어_2" data-name="레이어 2" xmlns="http://www.w3.org/2000/svg" viewBox="0 0 77.95 100">
  <defs>
    <style>
      .cls-1 {
        fill: #fff;
        stroke-width: 0px;
      }
    </style>
  </defs>
  <g id="_레이어_1-2" data-name="레이어 1">
    <path class="cls-1" d="M0,97.77V.07h21.57c5.64,0,11.28.2,16.91-.05,6.07-.27,11.41,2.63,17.2,3.48.72.11,1.46.68,2.01,1.22,2.83,2.75,5.85,5.36,8.34,8.39,8.82,10.71,5.37,29.51-4.9,36.01-.62.39-1.44.45-2.38.73,3.79,3.98,9.37,4.71,12.75,9.04,2.69,3.44,4.9,7.01,6.01,11.08,1.06,3.88.13,15.06-1.69,16.94-4.64,4.79-8.29,10.64-16.22,11.64-3.98.5-8.13,2.04-12,1.24-15.23-3.17-30.58-.74-45.84-1.57-.52-.03-1.02-.24-1.76-.43ZM55.61,65.47c-3.98-6.23-10.78-6.92-16.95-7.67-7.15-.87-14.48-.2-21.55-.2,2.68,8.55.32,16.91,1.63,25.2,2.53.13,5.66-.65,7.3.57,2.99,2.22,6.35,1.86,8.74,1.04,3.79-1.31,7.46-1.2,11.23-1.46,5.38-.37,9.26-4.43,9.58-9.91.15-2.53.02-5.07.02-7.58ZM18.38,15.17v27.21c7.01,0,13.44-.04,19.86.02,3.13.03,6.29-.74,7.79-3.34,1.92-3.33,4.47-6.47,4.57-10.75.11-4.3-.75-8.03-4.35-11.31-3.26,0-7.25.99-10.41-.22-5.71-2.18-11.3-1-17.47-1.61Z"/>
  </g>
</svg>