<?xml version="1.0" encoding="UTF-8"?>
<svg id="_레이어_2" data-name="레이어 2" xmlns="http://www.w3.org/2000/svg" viewBox="0 0 83.81 100">
  <defs>
    <style>
      .cls-1 {
        fill: #fff;
        stroke-width: 0px;
      }
    </style>
  </defs>
  <g id="_레이어_1-2" data-name="레이어 1">
    <path class="cls-1" d="M74.3,51.26c3.12,7.92,6.79,15.67,9.19,23.8,1.76,5.97-4.18,15.71-11.78,17.98-10.5,3.13-21.44,5.5-32.35,6.4-13.04,1.07-26.23.25-39.37.25V1.85C18.37,1.21,35.82.59,53.26,0c5.45-.18,9.05,2.23,11.54,7.24,4.87,9.81,8.84,19.63,7.12,30.99-.65,4.29-.1,8.75-.1,13.14.83-.04,1.66-.08,2.49-.12ZM33.99,25.88c.53,6.82.9,11.65,1.3,16.71,8.97-.29,9.89-5.91,11.42-12.09-3.7-1.35-7.16-2.6-12.71-4.62ZM38.7,65.84c1.11-.06,2.22-.13,3.34-.19.65-2.67,1.31-5.35,1.96-8.02-.64-.47-1.29-.93-1.93-1.4-1.89,1.16-4.77,1.95-5.38,3.59-.57,1.54,1.25,3.97,2.01,6.01Z"/>
  </g>
</svg>