<?xml version="1.0" encoding="UTF-8"?>
<svg id="_레이어_2" data-name="레이어 2" xmlns="http://www.w3.org/2000/svg" viewBox="0 0 81.88 100">
  <defs>
    <style>
      .cls-1 {
        fill: #fff;
        stroke-width: 0px;
      }
    </style>
  </defs>
  <g id="_레이어_1-2" data-name="레이어 1">
    <path class="cls-1" d="M23.58,38.54c.75,19.95,1.51,39.9,2.28,60.32H.15c0-10.89-.38-21.43.08-31.93C1.05,48.3,2.53,29.7,3.41,11.06c.25-5.26,2.33-7.49,7.48-7.39,6.17.12,12.35.03,17.48.03-1.53,9.7-2.95,18.7-4.37,27.7.7.13,1.41.26,2.11.39.17-1.9.37-3.79.51-5.69.15-1.97.35-3.94.34-5.91-.05-6.13,3.45-9.64,7.86-13.58C44.53-2.1,55.88-.1,66.67,1.03c6.33.66,11.91,5.98,12.69,13.06,1.35,12.36,1.74,24.83,2.52,37.25-.67.35-1.34.7-2.01,1.05-2.86-1.33-5.72-2.65-8.78-4.07-2.68,3.15-2.97,6.03-.09,9.41,3.02,3.53,5.62,7.42,8.33,11.21.6.84,1.29,1.96,1.21,2.89-.65,8-1.19,16.03-2.44,23.94-.27,1.69-3.25,4.18-5,4.2-12.88.13-25.78-.15-38.65-.69-1.59-.07-3.63-2.08-4.53-3.71-4.22-7.66-2.31-15.7-.76-23.62.18-.91,1.07-2.08,1.91-2.4,5.11-1.95,4.98-5.4,2.03-8.71-5.76-6.46-5.06-15.13-8.18-22.46-.45.05-.9.1-1.35.16ZM49.9,87.6c.74.13,1.49.26,2.23.39.88-6.03,2.04-12.03,2.57-18.09.94-10.76-.88-21.96,5.52-31.79.42-.65.24-1.69.4-3.11-7.83-.76-15.37-2.77-21.9-.07,3.26,4.13,8.08,7.76,9.28,12.33,1.91,7.28,1.54,15.2,1.86,22.85.24,5.82.05,11.66.05,17.48Z"/>
  </g>
</svg>