<?xml version="1.0" encoding="UTF-8"?>
<svg id="_레이어_2" data-name="레이어 2" xmlns="http://www.w3.org/2000/svg" viewBox="0 0 77.4 100">
  <defs>
    <style>
      .cls-1 {
        fill: #fff;
        stroke-width: 0px;
      }
    </style>
  </defs>
  <g id="_레이어_1-2" data-name="레이어 1">
    <path class="cls-1" d="M0,99.7V.03C15.21.03,30.01-.06,44.81.07c9.18.08,15.67,5.46,18.73,13.23,3.11,7.93,1.85,16.46-3.22,23.86-1.14,1.67-2.54,3.16-4.3,5.31,11.62,4.67,18.3,13.02,20.85,24.49,3.18,14.29-8.27,31.6-22.86,32.48-17.81,1.08-35.73.26-54.01.26ZM16.98,55.01c.58,10.28,1.1,19.41,1.66,29.34,7.86.46,15.24,1.42,22.58,1.18,10.34-.33,17.19-6.04,17.48-13.43.32-8.18-5.95-16.25-14.39-16.93-8.72-.7-17.54-.16-27.32-.16ZM18.01,39.38c7,0,13.25.64,19.3-.17,6.72-.91,8.66-6.58,8.58-12.47-.08-5.51-1.6-11.3-8.07-12.15-6.52-.85-13.24-.19-19.81-.19v24.98Z"/>
  </g>
</svg>