<?xml version="1.0" encoding="UTF-8"?>
<svg id="_레이어_2" data-name="레이어 2" xmlns="http://www.w3.org/2000/svg" viewBox="0 0 47.78 100">
  <defs>
    <style>
      .cls-1 {
        fill: #fff;
        stroke-width: 0px;
      }
    </style>
  </defs>
  <g id="_레이어_1-2" data-name="레이어 1">
    <path class="cls-1" d="M.02.03C6.38.03,12.23-.08,18.06.11c1.36.04,2.71,1.06,4.01,1.75,1.74.92,3.47,1.88,5.11,2.96,1.78,1.18,3.49,2.48,5.16,3.81,5.75,4.56,8.06,10.98,8.85,17.87.68,5.86-1.12,11.13-5.82,15.18-2.14,1.84-3.98,4.03-5.78,5.88,2.62,1.94,5.78,4.02,8.64,6.45,4.68,3.98,7.14,9.3,8.48,15.22,1.04,4.6,1.62,9.13.24,13.8-1,3.37-2.49,6.41-5.12,8.7-4.56,3.98-9.75,6.74-15.96,6.84-3.05.05-6.12-.09-9.14-.47-2.13-.27-4.05-.17-6,.75-1.09.51-2.35.68-4.03,1.14-.66-1.91-1.51-3.49-1.75-5.17-1.01-6.99-1.85-14.01-2.74-21.02-.52-4.06-1.11-8.12-1.47-12.2-.11-1.18.66-2.41.67-3.62.05-5.21-.03-10.43-.08-15.64,0-.62-.2-1.24-.22-1.87C.74,29.07.37,17.64.03,6.22-.03,4.26.02,2.3.02.03ZM16.29,42.69c1.14-.2,2.27-.4,3.27-.57,2.73-4.71,5.37-9.25,8.01-13.8-.16-.12-.32-.25-.48-.37-.59-.89-1.17-1.77-2.1-3.16-2.25,1-4.52,2.01-6.79,3.02-.68,5.11-1.33,10.03-1.99,14.94-.01.03-.02.05-.03.08.03-.05.06-.09.09-.14ZM16.78,84.28c7.76.52,12.01-4.71,16.47-9.23.9.05,1.58.09,2.51.14.31-1.86.6-3.59.86-5.17-3.67-5.23-15.38-10.62-19.85-9.37v23.62Z"/>
  </g>
</svg>