<?xml version="1.0" encoding="UTF-8"?>
<svg id="_레이어_2" data-name="레이어 2" xmlns="http://www.w3.org/2000/svg" viewBox="0 0 79.3 100">
  <defs>
    <style>
      .cls-1 {
        fill: #fff;
        stroke-width: 0px;
      }
    </style>
  </defs>
  <g id="_레이어_1-2" data-name="레이어 1">
    <path class="cls-1" d="M47.99,41.09c4.7,1.16,8.75,1.87,12.61,3.15,14.28,4.74,21.06,16.51,17.97,31.25-1.69,8.11-5.05,15.19-12.24,20.17-6.18,4.28-13.1,4.37-19.98,4.33-9.48-.05-18.96-.87-28.44-1.1-4.37-.11-8.77.31-13.14.66-2.38.19-4.02-.3-3.82-3.05.9-12.56,1.44-25.16,3.04-37.63.47-3.69,3.62-7.28,6.18-10.4,3.67-4.48,8.14-8.3,11.85-12.76,2.36-2.83,3.97-6.3,6.53-10.49H3.27C2.17,16.69,1.11,8.57,0,0c5.63.41,10.11.97,14.6,1.01,9.17.09,18.36.23,27.5-.27,5.46-.3,9.31,1.58,12.34,5.81.08.12.18.22.26.34,7.77,10.56,7.83,12.03.74,22.98-2.42,3.74-4.93,7.42-7.46,11.22ZM27.97,75.98c3.08.81,5.75,1.7,8.49,2.19,6.34,1.15,12.85,1.68,18.65-1.54,2.06-1.15,3.54-4.16,4.24-6.62.37-1.3-1.11-4.21-2.42-4.74-9.9-3.96-23.1-3.33-28.96,10.71Z"/>
  </g>
</svg>