<?xml version="1.0" encoding="UTF-8"?>
<svg id="_레이어_2" data-name="레이어 2" xmlns="http://www.w3.org/2000/svg" viewBox="0 0 49.21 100">
  <defs>
    <style>
      .cls-1 {
        fill: #fff;
        stroke-width: 0px;
      }
    </style>
  </defs>
  <g id="_레이어_1-2" data-name="레이어 1">
    <path class="cls-1" d="M16.71,29.13c3.57,1.7,7.23,1.9,10.96,1.46,1.23-.14,2.46-.42,3.64-.8,2.65-.84,4.33-2.58,4.96-5.39.59-2.63.5-5.22-.19-7.76-1.03-3.83-3.72-6.06-7.5-6.9-1.95-.43-3.98-.65-5.98-.71-3.74-.11-7.49-.03-11.24-.02-.28,0-.55.05-1.04.09v44.52s.16.01.24-.05c4.27-3.36,9.36-4.48,14.56-4.86,6.46-.48,12.95-.54,19.42-.78.4-.01.79.05,1.3.08v8.33c-.56,0-1.07-.02-1.57,0-4.54.16-9.13-.04-13.62.57-7.32.98-13.93,3.61-18.55,9.89-1.67,2.28-1.4,4.85.98,6.33,2.37,1.48,5.05,2.06,7.75,2.49.4.06.97-.21,1.27-.51.59-.59,1.07-1.29,1.56-1.98,2.26-3.17,4.45-6.4,6.78-9.51,1.45-1.93,3.57-2.93,5.95-3.03,2.93-.13,5.87-.03,8.95-.03.02.43.06.89.06,1.36-.01,8.1-.06,16.19-.03,24.29.01,4.6-2.02,7.93-6,10.12-4.69,2.58-9.79,3.55-15.08,3.66-2.12.05-4.27.07-6.36-.21-1.72-.23-3.39-.87-5.05-1.43-3.18-1.07-5.95-2.78-8.23-5.28-1.96-2.15-2.87-4.73-3.26-7.52C.03,75.53-.03,65.47,0,55.4.07,38.96.1,22.53.15,6.1c0-1.97,0-3.93,0-6.1h49.06v8.96h-4.74c.48,1.28.96,2.42,1.35,3.59,1.84,5.57,1.96,11.12-.77,16.43-2.63,5.13-6.9,8.39-12.45,9.95-1.08.3-2.2.53-3.31.67-2.02.25-3.93-.01-5.55-1.41-2.54-2.21-4.68-4.76-6.41-7.64-.26-.44-.41-.94-.61-1.42ZM35.64,73.36c-2.67,4.39-5.51,8.55-10.27,10.66-4.86,2.16-9.78,1.59-14.55-.93-.26,3.25,1.42,5.23,3.89,6.51,5.94,3.07,11.76,2.33,17.29-1.08,2.7-1.67,4.16-4.13,3.83-7.52-.21-2.16-.1-4.34-.14-6.51,0-.38-.04-.75-.05-1.13Z"/>
  </g>
</svg>