<?xml version="1.0" encoding="UTF-8"?>
<svg id="_레이어_2" data-name="레이어 2" xmlns="http://www.w3.org/2000/svg" viewBox="0 0 90.67 100">
  <defs>
    <style>
      .cls-1 {
        fill: #fff;
        stroke-width: 0px;
      }
    </style>
  </defs>
  <g id="_레이어_1-2" data-name="레이어 1">
    <g>
      <path class="cls-1" d="M42.21,42.17V10.38c-5.08-1.51-9.49.4-14.47,2.31.95-3.39,2.45-5.27,5.53-5.56.92-.09,1.86-.06,2.79,0,2.65.17,4.42-.61,4.59-3.65.11-2.04,1.31-3.24,3.89-3.47.09,1.17.28,2.24.25,3.31-.07,2.6,1.22,3.61,3.72,3.84,5.71.53,10.65,3.47,15.75,5.71,1.85.82,3.1,3.38,4.25,5.36,4.16,7.16,4.95,10.49,4.17,18.46-.23,2.3-1.21,4.52-1.77,6.54-1.19-1.21-2.3-2.35-3.55-3.63.95-.65,2.18-1.48,4.18-2.84-.46.61-.2.42-.21.25-.17-3.41.21-6.98-.72-10.18-.94-3.24-3.11-6.15-4.91-9.09-.34-.55-1.53-.57-2.32-.85-.61-.22-1.63-.34-1.74-.72-1.37-4.79-5.66-4.02-9.09-4.84-.66-.16-1.42-.14-2.08,0-1.52.33-2.01-2.9-4.15-.96-1.67,1.52-1.49,3.21-1.5,5-.02,6.51,0,13.02-.01,19.53,0,2.86-.03,2.86-2.59,7.27Z"/>
      <path class="cls-1" d="M55.15,71.49c6.26,5.96,12.52,11.93,19.06,18.16-1.3,3.52-5.22,3.54-8.05,3.86-5.73.64-11.57.13-17.37.22-2.39.04-3.67-1.74-6.68-2.44,6.57-5.13,13.22-2.08,19.19-3.52-.36-6.24-5-10.74-6.15-16.28Z"/>
      <path class="cls-1" d="M85.64,21.45c-4.98-2.46-2.36-6.51-3.16-9.38,2.5-2.7,4.93-3.82,8.2-1.67v6.01c-1.41,1.41-3.04,3.04-5.03,5.03Z"/>
      <path class="cls-1" d="M37.32,90.91h-3.1c-.5-1.58-1.01-3.19-1.64-5.17,3.75.17,3.36-4.24,5.91-5.92.44.41.96.81,1.39,1.29,3.01,3.28,2.95,3.21-.55,6.28-.9.79-1.28,2.19-2.02,3.52Z"/>
      <path class="cls-1" d="M46.2,53.2c-2.74-4.56-2.87-5.16-1.99-10.18.27.99.48,1.6.58,2.22.11.64.12,1.3.2,2.37h5.4c-.83.93-1.58,2.54-2.52,2.66-2.26.29-1.54,1.74-1.67,2.93Z"/>
      <path class="cls-1" d="M26.65,49.01c-1.88-.47-3.74-1.1-5.65-1.35-1.81-.23-3.68-.05-5.52-.05q3.89-2.88,9.78-1.4c.47.93.93,1.86,1.4,2.79Z"/>
      <path class="cls-1" d="M5.7,85.32c2.31,1.99,5.01,6.04,5.59,8.38-4.04-1.34-5.96-4.09-5.59-8.38Z"/>
      <path class="cls-1" d="M2.73,56.94c-.62,4.58-1.19,8.74-1.75,12.89-.3-4.3-2.86-8.95,1.75-12.89Z"/>
      <path class="cls-1" d="M7.1,51.81c1.74-3.5,4.86-4.25,8.38-4.19-2.41,2.17-4.97,4.04-8.38,4.19Z"/>
      <path class="cls-1" d="M48.99,58.79c2.59,1.27,1.96,4.67,4.43,6.43-1.79.34-3.41,1.71-4.43-.85.39-.15.77-.31,1.16-.46-.39-.31-.77-.62-1.16-.94v-4.19Z"/>
      <path class="cls-1" d="M11.01,94.76c4.17.58,6.36,1.25,7.91,5.24-2.98-1.98-4.79-3.17-7.91-5.24Z"/>
      <path class="cls-1" d="M18.55,85.05q-2.08-.51-2.54-2.51c.66.65,1.95,1.92,2.54,2.51Z"/>
      <path class="cls-1" d="M4.3,83.93c-3.09-.78-2.91-3.2-2.79-5.59,1.83,1.41,2.9,3.2,2.79,5.59Z"/>
      <path class="cls-1" d="M54.83,71.61c-1.35-1.71-2.48-3.14-3.51-4.44,2.29.09,3.23,1.7,3.51,4.44Z"/>
      <path class="cls-1" d="M48.99,58.79c-3.09-.78-2.91-3.2-2.79-5.59,1.83,1.41,2.9,3.2,2.79,5.59Z"/>
      <path class="cls-1" d="M56.32,45.36c.46-2.09,1.07-3.96,4.3-2.79-1.76,1.14-3.03,1.97-4.3,2.79Z"/>
      <path class="cls-1" d="M23.86,88.12c-2.17.22-3.64-.59-4.19-2.79,2.17-.22,3.64.59,4.19,2.79Z"/>
      <path class="cls-1" d="M32.24,90.56h-4.19v-.7h4.19v.7Z"/>
      <path class="cls-1" d="M.39,78.36c-.06-1.36-.13-2.72-.19-4.07.31-.03.62-.06.93-.09.18,1.37.36,2.74.54,4.12-.43.01-.85.03-1.28.04Z"/>
      <path class="cls-1" d="M28.02,43.7c1.36-.06,2.72-.13,4.07-.19.03.31.06.62.09.93-1.37.18-2.74.36-4.12.54-.01-.43-.03-.85-.04-1.28Z"/>
      <path class="cls-1" d="M61.56,40.98h2.79v.7h-2.79v-.7Z"/>
      <path class="cls-1" d="M36.42,43.08h-2.79v-.7h2.79v.7Z"/>
      <path class="cls-1" d="M28.05,44.82c-.12,2.09-1.73,1.19-2.79,1.4.12-2.09,1.73-1.19,2.79-1.4Z"/>
      <path class="cls-1" d="M53.18,46.22c.12-2.09,1.73-1.19,2.79-1.4-.12,2.09-1.73,1.19-2.79,1.4Z"/>
      <path class="cls-1" d="M71.56,44.23c-.48,1.7-.72,2.54-.96,3.38-.22-.65-.51-1.29-.6-1.96-.03-.2.5-.48,1.57-1.43Z"/>
      <path class="cls-1" d="M53.18,46.22c-.12,2.09-1.73,1.19-2.79,1.4.12-2.09,1.73-1.19,2.79-1.4Z"/>
      <path class="cls-1" d="M68.31,51.07c.5-1.77.74-2.61.98-3.45.22.65.51,1.29.6,1.96.03.2-.49.49-1.59,1.5Z"/>
      <path class="cls-1" d="M29.44,50.41c-1.06-.21-2.67.69-2.79-1.4,1.06.21,2.67-.69,2.79,1.4Z"/>
      <path class="cls-1" d="M33.63,53.2c-1.06-.21-2.67.69-2.79-1.4,1.06.21,2.67-.69,2.79,1.4Z"/>
      <path class="cls-1" d="M4.3,54.6c-.21,1.06.69,2.67-1.4,2.79.21-1.06-.69-2.67,1.4-2.79Z"/>
      <path class="cls-1" d="M35.03,54.6c1.06.21,2.67-.69,2.79,1.4-1.06-.21-2.67.69-2.79-1.4Z"/>
      <path class="cls-1" d="M39.22,57.39c1.06.21,2.67-.69,2.79,1.4-1.06-.21-2.67.69-2.79-1.4Z"/>
      <path class="cls-1" d="M13.03,72.76v-2.79h.7v2.79h-.7Z"/>
      <path class="cls-1" d="M15.19,77c.11.76.28,1.38.24,1.99-.01.19-.57.35-.87.53-.16-.61-.39-1.21-.43-1.83-.01-.17.55-.37,1.06-.69Z"/>
      <path class="cls-1" d="M27.24,89.73c-1.7-.48-2.54-.72-3.38-.96.65-.22,1.29-.51,1.96-.6.2-.03.48.5,1.43,1.57Z"/>
      <path class="cls-1" d="M12.68,95.1c-.47-.47-.93-.93-1.4-1.4.47.47.93.93,1.4,1.4Z"/>
      <path class="cls-1" d="M39.1,91.72c-.16.16-.39.46-.44.43-.3-.16-.56-.41-.84-.62.21-.21.42-.42.62-.62.22.27.44.54.66.81Z"/>
      <path class="cls-1" d="M5.7,85.32c-.47-.47-.93-.93-1.4-1.4.47.47.93.93,1.4,1.4Z"/>
      <path class="cls-1" d="M15.48,67.79c-.28.22-.55.43-.83.64-.09-.29-.32-.78-.23-.85.29-.22.7-.29,1.06-.42,0,.21,0,.42,0,.62Z"/>
      <path class="cls-1" d="M16.29,65.89c.16.16.46.39.43.44-.16.3-.4.56-.62.84-.21-.21-.42-.42-.62-.62.27-.22.54-.44.81-.66Z"/>
      <path class="cls-1" d="M47.6,62.98h1.4v1.4c-.47-.47-.93-.93-1.4-1.4Z"/>
      <path class="cls-1" d="M46.97,62.98c-.21-.28-.43-.55-.64-.83.29-.09.78-.32.85-.23.22.29.29.7.42,1.06-.21,0-.42,0-.62,0Z"/>
      <path class="cls-1" d="M44.69,61c-.16.16-.39.46-.44.43-.3-.16-.56-.4-.84-.62.21-.21.42-.42.62-.62.22.27.44.54.66.81Z"/>
      <path class="cls-1" d="M43.41,60.19c-.47-.47-.93-.93-1.4-1.4.47.47.93.93,1.4,1.4Z"/>
      <path class="cls-1" d="M37.82,56c.47.47.93.93,1.4,1.4-.47-.47-.93-.93-1.4-1.4Z"/>
      <path class="cls-1" d="M35.03,54.6c-.47-.47-.93-.93-1.4-1.4.47.47.93.93,1.4,1.4Z"/>
      <path class="cls-1" d="M4.3,54.6c.47-.47.93-.93,1.4-1.4-.47.47-.93.93-1.4,1.4Z"/>
      <path class="cls-1" d="M7.1,51.81c-.47.47-.93.93-1.4,1.4.47-.47.93-.93,1.4-1.4Z"/>
      <path class="cls-1" d="M30.84,51.81c-.47-.47-.93-.93-1.4-1.4.47.47.93.93,1.4,1.4Z"/>
      <path class="cls-1" d="M39.02,41.53c-.19.19-.34.34-.5.5-.16-.31-.36-.61-.44-.94-.03-.11.28-.3.44-.46.17.3.34.61.5.9Z"/>
    </g>
  </g>
</svg>