<?xml version="1.0" encoding="UTF-8"?>
<svg id="_레이어_2" data-name="레이어 2" xmlns="http://www.w3.org/2000/svg" viewBox="0 0 63.49 100">
  <defs>
    <style>
      .cls-1 {
        fill: #fff;
        stroke-width: 0px;
      }
    </style>
  </defs>
  <g id="_레이어_1-2" data-name="레이어 1">
    <path class="cls-1" d="M46.94,52.09c1.72,1.89,2.76,3.6,4.26,4.62,9.06,6.16,13.57,15.66,11.97,25.67-1.1,6.9-9.77,15.53-16.49,16.42-.53.07-1.21.22-1.59-.02-3.89-2.56-7.72.26-11.59.08-4.56-.21-9.14-.05-13.71-.05H6.88c-.81,0-1.91-.34-2.37.06-3.21,2.76-3.72-.11-4.32-2.13-.37-1.23-.07-2.67-.07-4.01V8.02C.12,6.67-.03,5.31.15,3.99.46,1.71,1.59.16,4.18.17c9.68.02,19.41-.54,29.02.3,3.46.3,7.1.89,10.62,1.47,2.08.35,4.02,2.02,5.82,3.36,2.91,2.16,5.8,4.38,8.43,6.87,1.44,1.36,3.17,3.23,3.32,4.99.44,5.34,1.05,10.94-.09,16.06-1.05,4.71-3.86,9.23-6.7,13.27-1.67,2.38-4.89,3.67-7.66,5.62ZM18.19,16.23v29.21c3.75,0,7.31.48,10.67-.13,3.89-.71,7.9-1.86,11.3-3.8,2.62-1.49,3.78-4.75,3.62-8.07,4.16-3.35.47-7.17-.5-9.78-1.04-2.79-4.23-5.12-8.52-6.09-5.55-1.25-10.86-.78-16.56-1.34ZM16.42,85.87h23.74c1.59-2.23,4.31-4.52,4.88-7.25.55-2.64-1.12-5.75-1.81-8.65-1.7-1.7-3.36-3.45-5.13-5.09-.72-.67-1.61-1.39-2.53-1.6-2.95-.68-5.94-1.36-8.95-1.61-3.38-.27-6.8-.06-10.2-.06v24.25Z"/>
  </g>
</svg>