<?xml version="1.0" encoding="UTF-8"?>
<svg id="_레이어_2" data-name="레이어 2" xmlns="http://www.w3.org/2000/svg" viewBox="0 0 58.35 100">
  <defs>
    <style>
      .cls-1 {
        fill: #fff;
        stroke-width: 0px;
      }
    </style>
  </defs>
  <g id="_레이어_1-2" data-name="레이어 1">
    <path class="cls-1" d="M16.12,0c.12.39.25.83.38,1.28,3.27,0,6.5.14,9.71-.03,4.26-.23,8.5-.71,12.75-1.08,3.75-.32,7.17.42,10.11,2.93.8.68,1.87,1.01,2.09,2.28.07.39.56.79.95,1.02,3.21,1.94,4.35,4.84,4.03,8.46-.36,4.17-.57,8.37-1.1,12.52-.6,4.71-2.08,9.18-5.58,12.56-1.71,1.66-3.9,2.82-5.91,4.17-.89.6-1.85,1.08-3.05,1.77,1.23.27,2.12.38,2.96.65,5.81,1.9,9.93,5.86,12.77,11.11,1.14,2.1,1.67,4.47,1.67,7-.01,5.76.16,11.52.42,17.27.13,2.89-.27,5.49-1.71,8.08-3.92,7.02-9.9,10.03-17.79,9.98-12.2-.08-24.41.02-36.61.04-.47,0-.94,0-1.55,0C-.07,66.66,1.79,33.42,0,0h16.12ZM16.08,85.51c3.56-.25,7.13-.31,10.63-.83,2.06-.31,4.14-1.12,6-2.12,5.32-2.87,8.02-8.37,7.1-13.93-.99-5.97-4.52-9.68-10.85-10.67-3.26-.51-6.64-.26-9.97-.33-.93-.02-1.86.08-2.91.12v27.76ZM15.51,38.88c3.64-.3,7.29-.26,10.78-.98,4.43-.92,7.51-3.71,8.68-8.3.96-3.76.47-7.39-1.07-10.86-1.07-2.4-2.9-4.3-5.53-4.78-3.11-.56-6.3-.69-9.46-.95-1.07-.09-2.15-.01-3.41-.01v25.9Z"/>
  </g>
</svg>