<?xml version="1.0" encoding="UTF-8"?>
<svg id="_레이어_2" data-name="레이어 2" xmlns="http://www.w3.org/2000/svg" viewBox="0 0 44.46 100">
  <defs>
    <style>
      .cls-1 {
        fill: #fff;
        stroke-width: 0px;
      }
    </style>
  </defs>
  <g id="_레이어_1-2" data-name="레이어 1">
    <path class="cls-1" d="M15.19,99.93v-11.5c-.17,0-.33,0-.5,0-.19,3.83-.38,7.66-.58,11.58H.91C.6,66.7.3,33.45,0,0c.7,0,1.13,0,1.57,0C11.45,0,21.33.01,31.21,0c2.51,0,4.93.37,7.18,1.57,2.79,1.49,4.43,4,5.96,6.61.15.26.1.65.1.97-.05,12.53-.13,25.05-.14,37.58-.02,17.36,0,34.73.02,52.09,0,.33,0,.65,0,1.08h-15.37c-.23-4-.47-8.01-.7-12.02h-.53v12.04h-12.55ZM22.62,30.39s-.06,0-.09,0c0,4.47-.02,8.93.01,13.4,0,1.2-.21,2.53,1.19,3.27.16.09.13.5.29.65.35.33.75.84,1.14.85,2.48.08,4.96.06,7.44.04.91,0,1.66-.42,1.86-1.34.31-1.48.68-2.99.69-4.48.08-7.28.06-14.55.03-21.83,0-2.06-.05-4.14-.33-6.17-.22-1.56-1.18-2.3-2.6-2.39-1.86-.11-3.72-.21-5.58-.17-3.2.08-4,.94-4.07,4.16,0,.04,0,.08,0,.12,0,4.63,0,9.26,0,13.89ZM35.51,68.7h.12c0-1.9.08-3.81-.03-5.7-.06-1.18-.34-2.36-.63-3.51-.31-1.24-1.17-1.81-2.47-1.82-2.44-.02-4.88-.02-7.31-.15-1.35-.07-1.98.56-2.25,1.75-.1.44-.24.89-.24,1.34-.09,4.54-.2,9.09-.2,13.63,0,1.73.81,2.41,2.59,2.47,2.81.08,5.62.11,8.43.17,1.53.03,1.95-.31,1.98-1.84.04-2.11.01-4.22.01-6.32ZM15.17,12h-4.22c1.81,21.88.82,43.66,1.14,65.46h3.49c-.14-21.88-.27-43.65-.41-65.46Z"/>
  </g>
</svg>