<?xml version="1.0" encoding="UTF-8"?>
<svg id="_레이어_2" data-name="레이어 2" xmlns="http://www.w3.org/2000/svg" viewBox="0 0 33.51 100">
  <defs>
    <style>
      .cls-1 {
        fill: #fff;
        stroke-width: 0px;
      }
    </style>
  </defs>
  <g id="_레이어_1-2" data-name="레이어 1">
    <path class="cls-1" d="M25.88,47.17h7.63v52.83H0V.28c2.63-.22,5.35,0,8.15-.09v9.06h4.81V0h8.57v9.2h3.8V.05h8.18v42.11H8.18v26.18h7.14v6.32h-7.16v16.89h5.32v-7.21h8.28v7.32c.99-.13,1.85-.14,2.65-.38.86-.26,1.21-1.01,1.21-1.91,0-2.26.01-4.53.03-6.79.08-10.18.16-20.37.23-30.55.01-1.59,0-3.18,0-4.86ZM8.12,35.14h17.21V12.31h-3.69c-.07.85-.13,1.61-.2,2.37h-8.29v-2.36h-5.04v22.82ZM15.79,85.43c-.02-.09-.04-.19-.07-.28-.17.05-.35.09-.52.14.02.08.04.17.07.25.17-.04.35-.07.52-.11Z"/>
  </g>
</svg>