<?xml version="1.0" encoding="UTF-8"?>
<svg id="_레이어_2" data-name="레이어 2" xmlns="http://www.w3.org/2000/svg" viewBox="0 0 107.78 100">
  <defs>
    <style>
      .cls-1 {
        fill: #fff;
        stroke-width: 0px;
      }
    </style>
  </defs>
  <g id="_레이어_1-2" data-name="레이어 1">
    <g>
      <path class="cls-1" d="M99.07,59.62c-.64-1.77-.87-3.62-1.87-4.84-.96-1.18-2.67-2.16-4.15-2.32-.62-.07-1.83,2.1-2.19,3.41-1.27,4.53-2.09,9.2-3.45,13.7-2.18,7.22-2.3,7.19,5.53,10.1,2.03-3.72,4.11-7.52,6.05-11.06-.23,1.53-.41,3.54-.84,5.48-.47,2.14-.74,4.51-1.9,6.25-1.07,1.61-3.21,2.5-5.16,3.92,3.14,2.72,5.83,5.3,8.82,7.48.87.64,2.6.1,4.57.1.04.45.18,1.88.35,3.61-11.49.8-22.13,5.93-34.3,2.38,3.23-10.92-2.54-17.64-11.7-22.47.3-3.11.58-6.07.91-9.5,3.82,1.5,7.55,2.89,11.23,4.43,3.68,1.55,6.02.41,7.46-3.23,5.18-13.15,6.44-26.57,2.7-40.28-1.52-5.55-6.16-10.43-11.27-12.77,12.14-.75,24.93-1.54,37.72-2.33.07.39.14.77.21,1.16-.55.39-1.04.99-1.65,1.15-7.31,1.92-10.56,5.84-11,13.24-.17,2.83-.25,5.7-.75,8.48-.86,4.76,1.42,8.06,4.72,10.85,4.21,3.56,4.42,8.42-.02,13.07Z"/>
      <path class="cls-1" d="M0,0c7.99,1.11,16.02,2.23,24.47,3.41-8.28,8.14-4.05,17.25-2.44,25.86,2.7,14.41,9.21,27.44,16.41,40.05,1.47,2.57,4.46,4.27,7.74,7.28-3.43,0-6.02-.17-8.57.06-1.61.14-4.45.72-4.54,1.39-.76,5.84-1.15,11.74-1.32,17.63-.03,1.08,1.48,2.19,3.03,4.33-10.71-.51-20.68-.99-30.65-1.47,0-.53,0-1.07-.01-1.6,1.37-.06,2.74-.15,4.11-.18,1.42-.04,2.86-.18,4.25-.01,3.67.46,5.37-1.09,5.05-4.74-1.01-11.74-1.35-23.59-3.24-35.18C11.47,39.43,7.63,22.21,3.97,4.98,3.61,3.26,1.57,1.9,0,0Z"/>
      <path class="cls-1" d="M47.95,53.2c9.16,4.26,14.6.95,16.98-8.57.62.36,1.25.72,1.87,1.08,0,2.12.34,4.3-.07,6.33-1.06,5.24-4.66,9.62-9.48,9.78-3.12.1-6.39-4.31-9.59-6.7.09-.64.19-1.28.28-1.92Z"/>
      <path class="cls-1" d="M50.02,84.16c3.37,3.27,6.12,5.42,7.99,8.18.42.61-1.98,4.37-3.64,4.89-3.1.96-8.45-4.1-8.06-7.43.2-1.66,1.99-3.13,3.71-5.64Z"/>
    </g>
  </g>
</svg>