<?xml version="1.0" encoding="UTF-8"?>
<svg id="_레이어_2" data-name="레이어 2" xmlns="http://www.w3.org/2000/svg" viewBox="0 0 86.96 100">
  <defs>
    <style>
      .cls-1 {
        fill: #fff;
        stroke-width: 0px;
      }
    </style>
  </defs>
  <g id="_레이어_1-2" data-name="레이어 1">
    <path class="cls-1" d="M65.75,1.12c7.11-.38,13.85-.74,21-1.12.06.81.25,1.85.21,2.88-.66,18.88-1.01,37.78-2.18,56.63-.66,10.62-3.26,21-11.65,28.6-7.85,7.12-16.77,11.74-27.86,11.76-6.64.01-13.09.75-19.71-1.39-10.36-3.36-16.91-10.25-20.86-19.94C1.57,70.85.11,62.74.06,54.46-.05,36.7.03,18.94.03.76h20.61c0,5.39-.07,10.37.01,15.34.26,14.66.52,29.32.91,43.97.2,7.37,3.9,12.73,10.07,16.65,7.5,4.77,23.87,2.48,29.35-4.48,3.5-4.45,4.52-9.97,4.6-15.4.26-16.76.14-33.53.17-50.29,0-1.76,0-3.52,0-5.42Z"/>
  </g>
</svg>