<?xml version="1.0" encoding="UTF-8"?>
<svg id="_레이어_2" data-name="레이어 2" xmlns="http://www.w3.org/2000/svg" viewBox="0 0 87.26 100">
  <defs>
    <style>
      .cls-1 {
        fill: #fff;
        stroke-width: 0px;
      }
    </style>
  </defs>
  <g id="_레이어_1-2" data-name="레이어 1">
    <path class="cls-1" d="M.14,0h25.64c0,2.04.05,4.19,0,6.34-.38,14.93-.9,29.87-1.1,44.8-.04,3.2.67,6.56,1.71,9.61,2.9,8.52,10.02,11.16,18.1,12.14,1.47.18,2.97.16,4.45.13,7.24-.15,12.48-4.7,12.69-11.91.36-11.95.16-23.92.23-35.88.04-6.87.05-13.73.3-20.59.02-.59,1.67-1.6,2.58-1.62,7.3-.13,14.61-.07,22.23-.07.03.27.19,1.07.19,1.86,0,16.54.29,33.08-.16,49.6-.27,9.89-.6,19.86-4.62,29.3-3.2,7.52-9.13,11.76-16.37,13.89-17.99,5.29-34.77,1.69-49.58-9.39-9.62-7.2-14.57-17.68-15.05-29.68C.62,39.58.43,20.61,0,1.65-.01,1.14.09.62.14,0Z"/>
  </g>
</svg>