<?xml version="1.0" encoding="UTF-8"?>
<svg id="_레이어_2" data-name="레이어 2" xmlns="http://www.w3.org/2000/svg" viewBox="0 0 56.56 100">
  <defs>
    <style>
      .cls-1 {
        fill: #fff;
        stroke-width: 0px;
      }
    </style>
  </defs>
  <g id="_레이어_1-2" data-name="레이어 1">
    <g>
      <path class="cls-1" d="M10.57,89.37c11.44,3.97,22.57.74,34.34.11V29.16c0-2.65-.37-5.37.11-7.93.4-2.12,1.96-3.99,2.71-6.07.36-1,.06-2.24.65-3.38,1.15,6.73.78,13.51.84,20.27.07,7.23.2,14.46-.04,21.68-.23,6.8-1.1,13.57-1.34,20.36-.24,6.95-.05,13.92-.05,21.62-.89-.62-1.39-1.24-1.71-1.16-8.11,2.04-16.36.53-24.53.92-4.66.22-9.37-.48-13.88,1.43-.79.33-1.84.05-1.74.05-5.54-4.27-4.38-9.65-4.41-14.73-.05-9.64.41-19.3-.13-28.9-.57-10.26,1.87-20.29,1.56-30.49,2.09-4.7,1.5-9.68,1.39-14.58-.05-2.46-.71-4.92-1.17-7.89,1.01-.1,2.3-.24,3.5-.36.28.68.55,1.08.6,1.5,2.97,26.25.75,52.61,1.53,78.9.09,2.91,1.11,5.8,1.75,8.96Z"/>
      <path class="cls-1" d="M50.69,7.8c1.53-1.27,3.1-2.57,5.67-4.7-.32,5.84,1.2,10.36-1.07,14.94-.77,1.55-.25,3.75-.25,5.66,0,22.13.02,44.26-.05,66.39,0,2.23,1.24,4.98-2.47,6.58-.5-.92-1.74-2.13-1.72-3.33.06-4.15-.49-8.25,1.13-12.47,1.13-2.94-.03-6.67.26-10.02.93-10.47-1.54-20.75-1.5-31.16.04-10.58,0-21.15,0-31.89Z"/>
      <path class="cls-1" d="M43.46,4.39c0,2.86.06,5.73-.02,8.59-.09,3.55-.66,3.95-5.73,4.17-.41-5.36,3.91-8.54,5.75-12.77Z"/>
      <path class="cls-1" d="M38.13,97.06h10.63c-2.04,2.71-3.93,3.37-8.53,2.71-.56-.08-.97-1.2-2.1-2.71Z"/>
      <path class="cls-1" d="M42.01,28.98c0,4.5,0,9-.01,13.5,0,.19-.21.38-.32.57-1.71-4.35-1.55-10.91.33-14.07Z"/>
      <path class="cls-1" d="M1.35,11.9v12.77c-1.87-4.77-1.74-9.86,0-12.77Z"/>
      <path class="cls-1" d="M42.19,29.35v-5.92c.52.17,1.12.31,1.11.37-.26,1.77,1.19,3.98-1.11,5.55Z"/>
      <path class="cls-1" d="M1.7,11.4v-4.07q1.34,2.4,0,4.07Z"/>
      <path class="cls-1" d="M44.3,3.07c.17.17.48.4.45.46-.17.31-.42.58-.64.87-.22-.21-.43-.43-.64-.64.28-.23.56-.46.84-.68Z"/>
    </g>
  </g>
</svg>