<?xml version="1.0" encoding="UTF-8"?>
<svg id="_레이어_2" data-name="레이어 2" xmlns="http://www.w3.org/2000/svg" viewBox="0 0 84.37 100">
  <defs>
    <style>
      .cls-1 {
        fill: #fff;
        stroke-width: 0px;
      }
    </style>
  </defs>
  <g id="_레이어_1-2" data-name="레이어 1">
    <path class="cls-1" d="M2.21,2.99c6.63,0,12.81-.05,19,.02,3.6.04,4.35.77,4.93,4.53.52,3.39.54,3.35,4.78,9.21.51.71.07,2.1.07,3.81-4.34-.77-7.47,2.04-11.14,4.03v34.1c1.71,1.06,3.21,1.99,4.65,2.88-.99,1.75-2.12,3.17-2.59,4.78-.39,1.33-.58,3.33.13,4.27,3.5,4.63,6.47,9.51,12.67,11.82,5.07,1.89,10.29,2.17,14.65.94,4.02-1.13,8.49-3.23,11.17-8.35,2.48-4.74,4.44-9.06,4.43-14.36-.04-20.14-.01-40.29-.01-60.67h19.39v6.81c0,19.38-.07,38.76.03,58.14.04,8.05-2.99,14.69-7.73,21.07-4.92,6.63-11.14,10.42-18.96,12.65-1.96.56-3.86,1.24-5.89,1.27-5.38.08-10.77.09-16.15.01-8.03-.11-15.05-2.9-20.57-8.74-3.03-3.21-6.62-5.81-8.78-10.04-2.63-5.13-4.96-9.95-4.52-15.98.24-3.22-1.14-6.52-1.42-9.82-.27-3.21-.65-6.59.04-9.66C3.56,31.75.88,17.62,2.21,2.99ZM19.97,9.61v7.78h2.67v-7.78h-2.67Z"/>
  </g>
</svg>