<?xml version="1.0" encoding="UTF-8"?>
<svg id="_레이어_2" data-name="레이어 2" xmlns="http://www.w3.org/2000/svg" viewBox="0 0 84.6 100">
  <defs>
    <style>
      .cls-1 {
        fill: #fff;
        stroke-width: 0px;
      }
    </style>
  </defs>
  <g id="_레이어_1-2" data-name="레이어 1">
    <g>
      <path class="cls-1" d="M0,0h15.89v85.37h26.95c.5,1.19.68,1.44.71,1.72,1.43,12.2.71,12.98-11.28,12.91-10.55-.06-21.1-.01-32.26-.01V0Z"/>
      <path class="cls-1" d="M84.6,1.24v98.06h-27.66c.85-4.95,1.68-9.78,2.56-14.91,2.23-.5,4.47-1.01,7.75-1.75,0-6.44,0-13.26,0-20.07,0-3.22-.2-6.46.06-9.67.17-2.06,1.08-4.05,1.51-6.1.26-1.25.68-2.75.25-3.83-3.41-8.48-.97-17.38-2.02-26.03-.47-3.9-.52-7.91-.2-11.82.11-1.37,1.8-3.61,2.93-3.71,4.62-.42,9.29-.18,14.82-.18Z"/>
    </g>
  </g>
</svg>