<?xml version="1.0" encoding="UTF-8"?>
<svg id="_레이어_2" data-name="레이어 2" xmlns="http://www.w3.org/2000/svg" viewBox="0 0 63.54 100">
  <defs>
    <style>
      .cls-1 {
        fill: #fff;
        stroke-width: 0px;
      }
    </style>
  </defs>
  <g id="_레이어_1-2" data-name="레이어 1">
    <path class="cls-1" d="M.59,0h18.32c0,3.19,0,6.22,0,9.26-.04,18.1.44,36.23-.32,54.3-.4,9.41,11.78,20.09,21.05,19.29,3.92-.34,5.94-1.69,5.92-6.29-.13-24.31.08-48.62.18-72.94,0-1,.1-2,.17-3.37h17.47c0,6.39,0,12.68,0,18.98.03,24.83-.05,49.67.17,74.5.04,4.89-1.18,6.63-6.39,6.21-11.06-.88-22.26-.38-33.24-1.76C11.35,96.61-.13,84.19,0,71.19.23,48.43.18,25.67.27,2.91c0-.83.18-1.65.32-2.91Z"/>
  </g>
</svg>