<?xml version="1.0" encoding="UTF-8"?>
<svg id="_레이어_2" data-name="레이어 2" xmlns="http://www.w3.org/2000/svg" viewBox="0 0 44.61 100">
  <defs>
    <style>
      .cls-1 {
        fill: #fff;
        stroke-width: 0px;
      }
    </style>
  </defs>
  <g id="_레이어_1-2" data-name="레이어 1">
    <path class="cls-1" d="M.03,0h14.95c0,1.03,0,2.08,0,3.13-.03,24.97.09,49.95-.2,74.92-.06,5.51,4.37,9.26,10.16,6.69,1.89-.84,2.94-2.14,3.14-4.1.28-2.72.58-5.45.59-8.17.07-23.32.07-46.65.09-69.97,0-.72,0-1.44,0-2.45h15.73c.04.62.13,1.49.13,2.35-.04,22.87,0,45.74-.21,68.61-.04,4.53-.74,9.09-1.54,13.57-1.5,8.4-11.04,14.31-17.91,15.21-8.03,1.05-14.79-1.48-19.87-7.9-3.13-3.95-4.1-8.88-4.35-13.63C.16,67.12.12,55.96.05,44.81-.05,29.99.03,15.17.03,0Z"/>
  </g>
</svg>