<?xml version="1.0" encoding="UTF-8"?>
<svg id="_레이어_2" data-name="레이어 2" xmlns="http://www.w3.org/2000/svg" viewBox="0 0 103.41 100">
  <defs>
    <style>
      .cls-1 {
        fill: #fff;
        stroke-width: 0px;
      }
    </style>
  </defs>
  <g id="_레이어_1-2" data-name="레이어 1">
    <path class="cls-1" d="M.74,0h28.74c0,9.1,0,17.78,0,26.46,0,9.49.43,19.01-.15,28.47-.78,12.75,10.18,21.26,21.12,21.39,4.46.05,8.97.52,13.38.06,7.39-.76,11.64-6.93,11.68-14.51.11-18.84.05-37.68.06-56.52,0-1.62,0-3.24,0-5.13h27.82c0,7.72.08,15.13-.02,22.54-.17,13.03-.03,26.08-.77,39.09-1.11,19.55-7.5,29.35-30.41,35.47-11.62,3.11-23.15,3.42-34.67,1.46-11.51-1.96-22.03-6.63-29.58-16.26C2.44,75.47.23,67.13.09,58.58-.2,39.65.29,20.72.47,1.78c0-.43.13-.87.27-1.78Z"/>
  </g>
</svg>