<?xml version="1.0" encoding="UTF-8"?>
<svg id="_레이어_2" data-name="레이어 2" xmlns="http://www.w3.org/2000/svg" viewBox="0 0 93.47 100">
  <defs>
    <style>
      .cls-1 {
        fill: #fff;
        stroke-width: 0px;
      }
    </style>
  </defs>
  <g id="_레이어_1-2" data-name="레이어 1">
    <path class="cls-1" d="M.1,1.34c10.1,2.2,19.48,4.24,29.09,6.33,0,12.28-.08,23.87.03,35.46.06,6.01.34,12.03.74,18.03.38,5.71,2.49,8.25,8.03,9.03,4.86.68,9.84,1.1,14.74.88,7.07-.31,11.87-6.68,11.84-14.67-.05-17.18-.04-34.36-.04-51.54,0-1.19.15-2.37.32-4.84,7.31,0,14.6.05,21.88-.01,6.55-.06,6.55-.11,6.55,6.29,0,16.88-.63,33.79.15,50.64,1.16,25.37-20.16,40.19-38.42,42.46-13.3,1.65-25.73.03-37.14-6.72C6.68,86.06-.28,76.68,0,62.72.4,44.03.1,25.33.1,6.64c0-1.49,0-2.98,0-5.3Z"/>
  </g>
</svg>