<?xml version="1.0" encoding="UTF-8"?>
<svg id="_레이어_2" data-name="레이어 2" xmlns="http://www.w3.org/2000/svg" viewBox="0 0 88.99 100">
  <defs>
    <style>
      .cls-1 {
        fill: #fff;
        stroke-width: 0px;
      }
    </style>
  </defs>
  <g id="_레이어_1-2" data-name="레이어 1">
    <g>
      <path class="cls-1" d="M26.02,59.59c-2.09,5.81-3.31,11.13-8.07,15.54-6.66,6.16-2.15,18.98,6.61,20.97,21.48,4.89,43.83-5.96,51.56-26.17,2-5.22,1-11.93.13-17.78-.73-4.9.9-10.58,5.86-11.78,1.82-.44,5.54,1.04,6.06,2.49.97,2.68,1.21,6.46.01,8.93-4.52,9.36-9.41,18.57-14.76,27.48-9.37,15.62-32.34,24.28-49.81,19.31-5.32-1.51-10.81-2.5-16.03-4.3C1.05,92.05-.32,89.18.06,82.18c.53-9.92,12.12-22.43,25.96-22.59Z"/>
      <path class="cls-1" d="M29.67,29.74c-2.59-4.14-5.43-8.15-7.69-12.46-2.01-3.83-4.46-4.86-8.84-4.36C1.39,14.25-1.75,10.19,1.08.88,5.66.54,10.22-.19,14.73.04c2.35.12,4.71,1.78,6.88,3.05,1.72,1.01,2.97,2.95,4.76,3.71,7.91,3.36,8.26,9.46,6.45,16.52-.49,1.91-.85,3.84-1.27,5.77-.63.22-1.25.43-1.88.65Z"/>
      <path class="cls-1" d="M30.56,39.41c.26,1.61.31,2.99.72,4.25.88,2.74,2.26,5.36,2.85,8.15.8,3.81-3.66,7.71-7.03,5.92-4.87-2.6-9.5-5.77-13.82-9.21-3.37-2.69-2.35-5.68.76-8.3,5.6-4.73,11.33-2.87,16.52-.81Z"/>
    </g>
  </g>
</svg>