<?xml version="1.0" encoding="UTF-8"?>
<svg id="_레이어_2" data-name="레이어 2" xmlns="http://www.w3.org/2000/svg" viewBox="0 0 84.07 100">
  <defs>
    <style>
      .cls-1 {
        fill: #fff;
        stroke-width: 0px;
      }
    </style>
  </defs>
  <g id="_레이어_1-2" data-name="레이어 1">
    <g>
      <path class="cls-1" d="M39.09,82.51c1.49,1.21,2.9,1.8,4.25.4.48.33,1.08.91,1.25.81.88-.55,1.64-.1,2.48-.07,1.65.05,2.22.96,2.58,2.33,4.75-1.09,8.4-3.59,11.18-7.49,3-4.2,4.7-8.9,5.71-13.91,1.25-6.15,1.36-12.37,1.34-18.61-.02-10.45-.02-20.91-.07-31.36-.01-2.34-.14-4.69-.29-7.03-.08-1.36-.66-2.49-2.05-2.95-1.77-.6-3.56-1.13-5.35-1.69l-.25.42v-1.5c1.41,0,2.72-.04,4.04.02.46.02.91.29,1.36.45.14.05.31.2.41.17,1.98-.65,3.42,1.34,5.37,1.1.54-.07,1.15.84,1.81,1.1.62.25,1.61.59,1.96.3,1.78-1.44,2.23.51,3.2,1.1.12.08.18.35.28.36,3.27.36,2.27,3.11,2.47,4.87.54,4.82.19,9.7,1.29,14.5.57,2.5.54,5.15.7,7.73.27,4.42.75,8.85.62,13.27-.15,5.18-.74,10.36-1.32,15.51-.89,7.95-3.95,15.08-8.57,21.56-1.1,1.55-2.3,3.02-3.59,4.71,3.48,2.32,6.8,4.53,10.15,6.77-1.38,1.31-2.91,2.78-4.47,4.23-.22.2-.57.42-.83.39-3.56-.52-7.22-.84-9.77-3.89-.6-.71-1.13-1.86-1.84-2-.75-.14-1.65.79-2.54,1.08-4.24,1.37-8.43,2.99-12.77,3.9-2.63.55-5.5.07-8.25-.09-11.68-.68-18.87-8.08-25.08-16.91-.09-.13-.18-.28-.22-.43-.27-1.19-.16-2.6-2.05-2.76,1.05-.61,1.79-1.05,2.82-1.65-1.34-.5-2.33-.71-3.13-1.23-.86-.56-1.95-1.29-2.2-2.16-1.23-4.22-2.49-8.47-3.19-12.79-.63-3.93-.68-7.97-.73-11.96-.12-9.59-.06-19.18-.12-28.77-.02-3.41-.13-6.82-.27-10.23-.11-2.67-1.5-4.01-4.2-4.06-.87-.02-1.26-.24-1.23-1.18C.06,3.39.02,1.87.02.36c.17-.04.35-.08.52-.13.27.19.52.44.82.56.41.16,1.19.39,1.25.28,1.17-2.06,2.9-.47,4.33-.68.98-.14,2.01-.18,2.98-.03,1.3.2,2.56.65,3.84.97.66.17,1.43.96,1.87-.32.05-.16.32-.35.48-.35,3.98.14,7.96.3,12.04.45.07.93.13,1.79.2,2.75-.42,0-.67-.02-.92,0-4.33.42-6.4,2.64-6.46,7.52-.07,6.15.1,12.31.22,18.46.11,5.75.19,11.51.46,17.25.39,8.39.42,16.84,2.59,25.03,1.55,5.86,4.53,10.77,10.15,13.68,2.05,1.06,2.34.91,3.03-1.27.24-.77,1.06-1.35,1.65-2.05ZM13.76,35.4c-.17-.3-.34-.61-.51-.91-.17.17-.33.34-.5.51.3.17.6.34.91.51.29.32.57.63.86.95.16-.16.33-.33.49-.49-.42-.19-.83-.37-1.25-.56ZM72.95,97.92c.09-.18.18-.35.27-.53-.83-.63-1.61-1.37-2.52-1.85-.6-.31-1.39-.23-2.1-.33.1.68.21,1.35.32,2.1,1.47-.58,1.42-.52,2.51.32.37.28,1.01.21,1.53.29ZM7.37,22.01c-.01.18-.03.35-.04.53h2.88c.03-.15.06-.31.08-.46-.3-.32-.6-.63-.69-.73-.9.27-1.57.46-2.23.66ZM12.02,51.11c-.05.2-.1.4-.15.59.35.11.7.22,1.04.32.05-.19.17-.54.14-.55-.33-.15-.69-.25-1.04-.37ZM12.08,23.69l-.63.09c.05.37.11.74.16,1.12.17-.02.35-.03.52-.05-.02-.38-.03-.77-.05-1.15ZM19.66,78.63c-.26-.28-.45-.6-.55-.57-.23.06-.42.29-.63.45.16.16.29.42.47.46.17.03.38-.17.7-.34ZM19.02,17.75c.19-.34.36-.53.37-.72,0-.12-.28-.39-.35-.36-.21.08-.46.24-.51.43-.04.12.24.33.5.65ZM12.31,63.22c-.39-.22-.58-.39-.79-.42-.1-.01-.32.26-.33.41,0,.13.22.39.33.38.21-.02.41-.18.79-.38ZM12.75,75.29c.14.05.29.11.43.16.09-.12.27-.29.24-.37-.09-.21-.26-.39-.4-.58-.09.26-.18.52-.27.79ZM10.43,46.24c.56.28.77.43.81.4.17-.16.3-.37.44-.56-.28.04-.55.07-1.25.16ZM12.83,62.3c-.15.27-.29.42-.31.59-.01.09.18.2.28.3.11-.14.25-.27.3-.43.03-.09-.12-.22-.27-.46Z"/>
      <path class="cls-1" d="M45.11,66.77c.72.06,1.34.11,2.07.17v1.86c-.67.06-1.34.13-2.22.21-.1,2.27-.21,4.58-.31,6.87-1.57.5-2.19,0-2.1-1.55.06-1.22.05-2.46-.09-3.67-.07-.58-.7-1.08-.79-1.67-.12-.77.05-1.59.09-2.38,1.53.16,1.25-1.11,1.27-1.85.09-3.12,2.31-3.9,4.68-3.59.34.04.83.64.84.99,0,.36-.43.98-.77,1.06-2.46.56-2.47.52-2.65,3.54Z"/>
      <path class="cls-1" d="M78.47,4.63c-.3-.41-.72-.98-1.13-1.54,1.69-1.85,4.09-1.61,6.73-1.52-2.01,1.1-3.8,2.07-5.6,3.06Z"/>
    </g>
  </g>
</svg>