<?xml version="1.0" encoding="UTF-8"?>
<svg id="_레이어_2" data-name="레이어 2" xmlns="http://www.w3.org/2000/svg" viewBox="0 0 80.89 87.64">
  <defs>
    <style>
      .cls-1 {
        fill: #fff;
        stroke-width: 0px;
      }
    </style>
  </defs>
  <g id="_레이어_1-2" data-name="레이어 1">
    <path class="cls-1" d="M15.13,29.51c0,7.49-.21,14.99.05,22.48.44,13.01,8.81,21.05,21.71,21.88,22.74,1.46,32.78-12.52,34.1-34.36.66-10.96.73-21.95,1.22-32.92.11-2.4-.67-5.9,3.42-5.89,3.7,0,5.47,1.74,5.24,5.97-.75,13.79-.78,27.63-1.64,41.42-2.1,33.42-36.99,50.37-65.26,32.07C5.31,74.55.17,67.16.07,56.85-.1,39.22.06,21.59.31,3.96c.02-1.17,1.97-2.34,3.08-3.45.18-.18.64-.07.97-.1C14.55-.6,14.68-.47,14.63,9.52c-.03,6.66,0,13.32,0,19.99.17,0,.34,0,.52,0Z"/>
  </g>
</svg>