<?xml version="1.0" encoding="UTF-8"?>
<svg id="_레이어_2" data-name="레이어 2" xmlns="http://www.w3.org/2000/svg" viewBox="0 0 83.5 100">
  <defs>
    <style>
      .cls-1 {
        fill: #fff;
        stroke-width: 0px;
      }
    </style>
  </defs>
  <g id="_레이어_1-2" data-name="레이어 1">
    <path class="cls-1" d="M0,3.38h19.5v32.15c.32.14.64.27.95.41.8-.87,2-1.61,2.32-2.63,1.14-3.68,2.53-7.41,2.82-11.2.47-6.18.07-12.41.25-18.62.03-1.19.77-3.12,1.59-3.36,1.17-.35,3.04.13,4.03.96,3.23,2.72,3.72,6.82,4.16,10.64,1.65,14.2-.74,27.89-5.68,41.23-1.87,5.06-3.85,10.12-5.17,15.34-1.94,7.71.04,10.84,7.86,11.71,9.51,1.06,18.51-.62,26.19-7.07,3.27-2.75,4.66-6.09,4.7-10.21.21-19.02.44-38.05.66-57.07,0-.6,0-1.19,0-2.3,5.87,0,11.64-.07,17.4.09.63.02,1.75,1.34,1.75,2.06.08,19.51.43,39.04-.14,58.54-.31,10.41-3.51,20.31-12.47,26.9-9.18,6.76-19.62,9.8-31.09,8.9-3.59-.28-7.18-.54-10.77-.83-9.64-.77-16.25-6.7-21.57-13.82C1.6,77.61,0,68.5.06,59.05.15,44.25.03,29.44,0,14.63c0-3.69,0-7.37,0-11.25Z"/>
  </g>
</svg>