<?xml version="1.0" encoding="UTF-8"?>
<svg id="_레이어_2" data-name="레이어 2" xmlns="http://www.w3.org/2000/svg" viewBox="0 0 81.41 100">
  <defs>
    <style>
      .cls-1 {
        fill: #fff;
        stroke-width: 0px;
      }
    </style>
  </defs>
  <g id="_레이어_1-2" data-name="레이어 1">
    <g>
      <path class="cls-1" d="M73.46,70.33c-5.06,7.24-9.2,13.36-11.37,21-1.63-.94-2.61-1.51-3.85-2.22-6.17,5.9-14.59,7.9-22.61,10.65-1.57.54-3.6.05-5.33-.33-1.93-.42-3.91-1-5.63-1.95-3.74-2.08-8.78-1.81-11.39-5.83-3.28-5.06-7.09-9.98-9.18-15.53C1.44,69.06-.24,61.7.03,53.76.6,36.27.21,18.75.21,1.18c4.52-3.44,8.17,1.83,13.27.9-3.27,9.79-2.05,19.37-2.17,28.89-.12,9.52.1,19.05-.11,28.56-.06,2.52-1.42,4.99-1.71,7.54-.84,7.5.63,14.61,4.43,21.71,3.02,0,6.35-.05,9.67.01,5.26.1,9.01-2.11,11.9-6.6,5.76-8.91,10.89-18.09,14.63-28.05.79-2.11,2.46-4.15,4.25-5.56,6.98-5.55,9.15-12.83,8.62-21.38-.25-3.98.03-7.99-.06-11.98-.09-3.81.86-7.76-1.74-11.27-.55-.74-.08-2.24-.08-3.34,4.19-1.23,6.32,2.29,6.65,3.87.7,3.29,4.38,6.52,2.05,9.79-1.71,2.41-1.2,4.58-1.28,6.87-.16,4.6.14,9.22-.09,13.82-.31,6.13,1.59,12.42-1.72,18.42,5.29-3.03,5.83-8.47,7.1-13.08,1.55-5.61,1.61-11.62,2.36-17.86,3.56-.43,5.09,1.49,5.17,4.49.17,6.98.06,13.97-1.17,21.09-.4-1.73-.79-3.46-1.39-6.08-1.8,4.3-4.11,7.76-4.52,11.43-.37,3.22-1.73,5.51-3.96,6.62-5.08,2.53-5.93,6.52-5.32,11.82,1.24-.53,2.34-1.2,3.52-1.44,1.18-.24,2.45-.05,4.97-.05ZM40.68,85.11c13.52-2.25,16.51-15.42,17.59-27.77-5.9,9.31-11.72,18.51-17.47,28.58v-.82c-.48.17-1.01.27-1.4.56-.11.09.19.73.31,1.12.36-.28.73-.57.97-1.65Z"/>
      <path class="cls-1" d="M79.25,52.21v6.74l-1.14.07c-.15-2.26-.31-4.52-.46-6.78.53,0,1.07-.02,1.6-.03Z"/>
      <path class="cls-1" d="M77.33,64.73c-.68-.42-1.42-.69-1.41-.91.05-.81.36-1.61.57-2.42.41.23,1.14.44,1.15.7.05.81-.17,1.63-.32,2.63Z"/>
      <path class="cls-1" d="M74.02,68.49c-.61.62-1.23,1.23-1.85,1.85.62-.61,1.23-1.23,1.85-1.85Z"/>
      <path class="cls-1" d="M75.09,66.79c.21.21.61.52.57.58-.22.4-.54.75-.82,1.11l-.82-.82c.36-.29.72-.58,1.07-.87Z"/>
    </g>
  </g>
</svg>