<?xml version="1.0" encoding="UTF-8"?>
<svg id="_레이어_2" data-name="레이어 2" xmlns="http://www.w3.org/2000/svg" viewBox="0 0 83.61 100">
  <defs>
    <style>
      .cls-1 {
        fill: #fff;
        stroke-width: 0px;
      }
    </style>
  </defs>
  <g id="_레이어_1-2" data-name="레이어 1">
    <g>
      <path class="cls-1" d="M.12,2.89h16.85v6.37c0,22.01,0,44.01,0,66.02,0,9,5.27,14.33,13.95,17.14,6.79,2.2,12.53.21,18.49-1.66,2.41-.75,4.54-2.77,6.5-4.54,3.19-2.89,6.07-6.13,9.21-9.09,2.36-2.22,3.63-4.89,4.09-8.87,1.47,2.53,1.39,4.89.73,6.39-1.92,4.41-3.1,9.3-7.15,12.6-3.7,3.01-6.58,6.75-11.16,9-7.89,3.88-16.04,3.84-24.36,3.71-9.24-3.72-18.81-6.94-23.29-17.17-1.14-2.6-1.95-5.22-2.63-7.98C-.77,66.19.27,57.46.17,48.79,0,33.69.12,18.59.12,2.89Z"/>
      <path class="cls-1" d="M71.56,1.97c1.29-.63,2.73-1.33,4.03-1.97.39.3.58.4.71.56.13.15.32.43.26.52-1.71,2.65-1.27,5.63-1.27,8.52-.02,18.1,0,36.2,0,54.33,2.53,3.19,5.08,6.41,8.33,10.51-1.72-.65-2.67-.79-3.34-1.29-3.76-2.8-5.06-7.52-8.24-10.8-.27-.28-.66-.73-.6-1.02,1.14-5.25-3.66-10.47-.09-15.78.4-.59.31-1.79.01-2.53-2.61-6.6-.63-13.46-1.26-20.16,2.64-6.79.57-13.87,1.46-20.89Z"/>
    </g>
  </g>
</svg>