<?xml version="1.0" encoding="UTF-8"?>
<svg id="_레이어_2" data-name="레이어 2" xmlns="http://www.w3.org/2000/svg" viewBox="0 0 73.41 100">
  <defs>
    <style>
      .cls-1 {
        fill: #fff;
        stroke-width: 0px;
      }
    </style>
  </defs>
  <g id="_레이어_1-2" data-name="레이어 1">
    <path class="cls-1" d="M.02,3.67h15.65c-1.76,2.35-2.74,4.03-4.08,5.37-3.07,3.08-4.43,6.63-4.31,11.02.2,7.59-.15,15.2.14,22.79.16,4.32,1.32,8.6,1.69,12.93.35,4.06.48,7.97,1.68,12.06,3.2,10.98,10.69,17.87,20.42,22.09,8.05,3.49,15.96.88,22.77-4.49,7.2-5.67,9.65-13.85,9.83-22.3.46-20.93.15-41.87.15-63.14h8.54c.12.39.56,1.19.56,1.98.04,15.5.91,31.07-.27,46.48-.83,10.82-1.27,21.86-5.02,32.46-3.37,9.51-10.27,14.63-19.04,17.23-9.49,2.82-9.76,2.57-21.35-1.78-7.05-2.65-13.05-6.76-17.05-13.89-2.51-4.48-4.24-9.51-7-13.45C-.42,63.69.09,58.47.05,52.98-.04,36.61.02,20.25.02,3.67Z"/>
  </g>
</svg>