<?xml version="1.0" encoding="UTF-8"?>
<svg id="_레이어_2" data-name="레이어 2" xmlns="http://www.w3.org/2000/svg" viewBox="0 0 83.54 100">
  <defs>
    <style>
      .cls-1 {
        fill: #fff;
        stroke-width: 0px;
      }
    </style>
  </defs>
  <g id="_레이어_1-2" data-name="레이어 1">
    <path class="cls-1" d="M.66.49c6.08-1.13,12.19-.19,19.08,1.63-.03-.32.26,1.25.26,2.81.03,17.77-.23,35.54.11,53.31.23,12.46,3.69,16.91,12.76,22.47,2.06,1.26,5.41.68,7.16,2.15,3.15,2.66,3.88-2.98,6.32-1.27,8.34-2.48,13.81-9.9,15.48-17.75,3.14-14.8.89-29.66,1.6-44.46.27-5.65.04-11.33.04-17.43,5.5,0,10.57-.15,15.62.06,2.56.1,4.56,1.6,4.23,4.46-.43,3.68,1.55,7.62-1.61,11.13-.9,1-.14,3.49-.14,5.3,0,13.55-.47,27.13.13,40.65.59,13.16-9.57,31.46-25.73,34.33-5.46,3.64-11.55,1.44-17.33,1.67-4.25.17-8.45.2-12.93-1.29-4.38-1.46-7.9-3.31-10.87-6.51-3.2-3.44-6.3-6.98-9.28-10.61C1.15,75.77.54,68.88.35,62.62-.27,42.16.12,21.67.14,1.19c0-.23.33-.45.52-.69Z"/>
  </g>
</svg>