<?xml version="1.0" encoding="UTF-8"?>
<svg id="_레이어_2" data-name="레이어 2" xmlns="http://www.w3.org/2000/svg" viewBox="0 0 83.76 100">
  <defs>
    <style>
      .cls-1 {
        fill: #fff;
        stroke-width: 0px;
      }
    </style>
  </defs>
  <g id="_레이어_1-2" data-name="레이어 1">
    <path class="cls-1" d="M.18,1.66h20.43c0,9.47.29,18.71-.14,27.92-.19,4.06-2.23,7.93-1.77,12.24.79,7.46,1.04,14.99,2.05,22.42.33,2.4,2.12,4.72,3.65,6.79,1.46,1.97,3.35,3.64,5.2,5.28,9.03,8,26.91,5.12,30.99-6.44,1.53-4.32,2.85-8.88,2.8-13.74-.18-18.56-.07-37.13-.07-56.13h20.43v40.63c0,7.43-.03,14.86,0,22.28.07,14.24-6.34,24.56-18.75,31.37-6.53,3.59-13.22,6.31-20.92,5.6-2.76-.26-5.58-.19-8.35-.01-8.41.52-15.22-3.8-21.78-7.88-5.87-3.65-9.82-9.67-11.75-16.34C1.18,72.08-.07,68.51,0,64.4.39,43.68.18,22.96.18,1.66Z"/>
  </g>
</svg>