<?xml version="1.0" encoding="UTF-8"?>
<svg id="_레이어_2" data-name="레이어 2" xmlns="http://www.w3.org/2000/svg" viewBox="0 0 76.76 100">
  <defs>
    <style>
      .cls-1 {
        fill: #fff;
        stroke-width: 0px;
      }
    </style>
  </defs>
  <g id="_레이어_1-2" data-name="레이어 1">
    <path class="cls-1" d="M2.12.01C6.88.01,10.93.04,14.98,0c2.45-.02,3.54,1.44,3.82,3.57.2,1.49.04,3.03.04,4.55,0,16.72.3,33.45-.16,50.16-.16,5.85,2.02,10.86,3.33,16.19.42,1.71,2.21,3.23,3.66,4.52,6.12,5.42,18.54,6.55,24.89,1.33,6.02-4.94,9.23-10.67,9.28-18.16.12-20.5.04-41.01.04-61.83h16.72c0,18.31-.29,36.51.14,54.69.19,7.97-1.46,15.65-3.51,22.97-2.16,7.71-7.1,14.23-15.31,17.95-9.53,4.32-16.69,4.9-27.99,3.1-10.67-1.69-17.43-8.32-23.93-15.57-2.44-2.72-3.42-6.72-3.82-10.5-.29-2.76.09-5.58-.1-8.35-.18-2.62.57-5.17-1.26-7.88-1.16-1.72-1.06-5.45.09-7.28,1.55-2.48,1.15-4.78,1.16-7.14.1-13.91.05-27.82.05-42.31Z"/>
  </g>
</svg>