<?xml version="1.0" encoding="UTF-8"?>
<svg id="_레이어_2" data-name="레이어 2" xmlns="http://www.w3.org/2000/svg" viewBox="0 0 85.62 100">
  <defs>
    <style>
      .cls-1 {
        fill: #fff;
        stroke-width: 0px;
      }
    </style>
  </defs>
  <g id="_레이어_1-2" data-name="레이어 1">
    <path class="cls-1" d="M83.37,2.8c3.17,17.63,2.17,35.15,1.83,52.59-.17,8.57-1.24,17.36-5.77,25.18-5.37,9.27-12.92,15.17-23.55,17.94-7.62,1.99-15.19,1.62-22.56.95-5.73-.52-11.88-2.24-16.94-5.7-5.05-3.46-8.99-8.12-12.29-13.25-.98-1.52-1.9-3.33-2.06-5.08C1.63,71.15-.05,67.19,0,62.74.25,42.36.11,21.97.11,1.36,5.94.22,11.92,2.21,18.07,0v4.58c0,17.68.1,35.36-.06,53.04-.05,5.89,1.57,11.01,4.43,16.13,3.5,6.26,8.64,9.14,15.45,9.57,7.35.47,14.06-.84,20.02-5.86,4.45-3.75,9.51-11.5,9.52-16.97.02-16.68,0-33.37,0-50.05V2.8h15.93Z"/>
  </g>
</svg>