<?xml version="1.0" encoding="UTF-8"?>
<svg id="_레이어_2" data-name="레이어 2" xmlns="http://www.w3.org/2000/svg" viewBox="0 0 57.11 100">
  <defs>
    <style>
      .cls-1 {
        fill: #fff;
        stroke-width: 0px;
      }
    </style>
  </defs>
  <g id="_레이어_1-2" data-name="레이어 1">
    <g>
      <path class="cls-1" d="M0,1.16c13.17,5.4,19.09,13.7,18.13,26.68-.92,12.44-3.28,24.76-4.29,37.2-.66,8.11-.85,16.35,2.67,24.21,1.72,3.85,3.69,6.18,8.21,6.14,1.35-.01,2.71,1.72,4.07,2.65-1.56.68-3.1,1.91-4.68,1.95-6.09.17-10.28-3.37-12.37-8.57-2.03-5.05-3.76-10.54-4.04-15.92-.83-15.7-.27-31.48-1.47-47.14C5.63,20.23,2.45,12.3.45,4.27c-.2-.81-.24-1.66-.45-3.11Z"/>
      <path class="cls-1" d="M36.35,68.11c2.86,1.76,5.72,3.53,8.89,5.48.37-2.47,1.29-5.56,1.22-8.62-.38-17.48-.79-34.97-1.64-52.43-.24-4.84-.32-10.68-8.06-11.2.23-.45.46-.9.69-1.34h19.65c-.38,12.06-.4,24.53-1.26,36.95-.73,10.47-1.58,21.07-3.97,31.24-1.78,7.59-5.93,14.66-9.4,21.78-.73,1.49-3.1,2.17-5.79,3.93,2.13-5.03,3.63-8.54,5.31-12.52-7.31-1.58-7.13-6.61-7.02-11.61.46-.55.92-1.11,1.37-1.66Z"/>
    </g>
  </g>
</svg>