<?xml version="1.0" encoding="UTF-8"?>
<svg id="_레이어_2" data-name="레이어 2" xmlns="http://www.w3.org/2000/svg" viewBox="0 0 82.26 100">
  <defs>
    <style>
      .cls-1 {
        fill: #fff;
        stroke-width: 0px;
      }
    </style>
  </defs>
  <g id="_레이어_1-2" data-name="레이어 1">
    <path class="cls-1" d="M0,7.36c5.65-1.45,10.75.3,16.41,1.23,0,10.97.38,22.09-.24,33.14-.18,3.13-1.27,6.42-1.07,9.69.2,3.24,1.03,6.45,1.26,9.69.23,3.17-.44,6.47.17,9.54.85,4.32,3.1,8.33,6.83,10.72,3.32,2.13,7.14,4,10.97,4.68,4.71.84,9.42-1,13.52-3.36,4.93-2.83,6.46-6.67,8.41-12.75,1-3.1,1.14-6.02,1.15-9.06.05-16.4.02-32.79.02-49.61,2.58-.18,5.5.32,7.72-.71,3.05-1.41,6.42-2.63,8.66-5.59,1.85-2.46,4.31-4.33,7.98-4.99.09,2,.94,4.42.09,5.78-1.47,2.37-1.09,4.68-1.18,7.05-.14,3.51-1.27,5.17-4.51,6.39-3.63,1.36-3.69,1.36-3.7,5.01-.03,10.48-.38,20.97.12,31.42.32,6.56-.73,12.98-1.78,19.2-1.53,9-5.9,16.78-15.05,21.09-4.79,2.26-9.36,4.29-14.76,4-3.41-.18-6.84-.22-10.24,0-5.92.4-10.99-2.01-15.72-4.94-7.18-4.44-11.55-12.13-13.86-20.76C.32,70.97.02,67.82.01,64.54,0,46.32,0,28.1,0,9.88v-2.52Z"/>
  </g>
</svg>