<?xml version="1.0" encoding="UTF-8"?>
<svg id="_레이어_2" data-name="레이어 2" xmlns="http://www.w3.org/2000/svg" viewBox="0 0 49.39 96.24">
  <defs>
    <style>
      .cls-1 {
        fill: #fff;
        stroke-width: 0px;
      }
    </style>
  </defs>
  <g id="_레이어_1-2" data-name="레이어 1">
    <path class="cls-1" d="M49.35,38.13c0,10.99.1,21.98-.03,32.96-.14,12.22-6.77,21.44-17.9,24.2-15.13,3.76-27.62-3.94-30.53-18.79C-.17,71.12-.03,65.73.06,60.28.32,43.97.29,27.65.4,11.33c.02-2.94.28-5.87.33-8.8.02-1.52.6-2.08,2.14-2.07,2.39.02,4.81,0,7.16-.36,2.62-.4,3.41.41,3.4,3.07-.07,14.8.02,29.59.07,44.39.02,7.07.05,14.14.13,21.21.05,4.62,2.13,8.39,5.45,11.37,3.04,2.73,6.78,3.53,10.62,1.86,3.87-1.68,4.97-5.21,5.15-9.06,1.07-22.05.27-44.13.55-66.19.09-7.26-.88-6.2,6.23-6.24,7.71-.05,7.7,0,7.69,7.59,0,10.01,0,20.02,0,30.03,0,0,.01,0,.02,0Z"/>
  </g>
</svg>