<?xml version="1.0" encoding="UTF-8"?>
<svg id="_레이어_2" data-name="레이어 2" xmlns="http://www.w3.org/2000/svg" viewBox="0 0 95.2 100">
  <defs>
    <style>
      .cls-1 {
        fill: #fff;
        stroke-width: 0px;
      }
    </style>
  </defs>
  <g id="_레이어_1-2" data-name="레이어 1">
    <path class="cls-1" d="M0,3.71c10.11,1.08,17.95,1.99,25.8,2.73,12.26,1.15,16.09,5.26,15.51,17.21-.56,11.71-1.39,23.4-1.82,35.11-.12,3.16.55,6.41,1.22,9.54,3.02,14.07,7,17.36,21.4,17.97,11.66.5,21.3-7.46,21.33-19.32.02-12.56-.94-25.22-2.82-37.63-.87-5.75-5.3-10.88-7.42-16.55-1.13-3.03-1.76-6.96-.74-9.81.62-1.74,4.96-3.23,7.36-2.91,2.05.28,5.02,3.09,5.37,5.15,3.6,20.99,6.79,42.05,9.97,63.12.2,1.31-.35,2.89-.98,4.14-11.35,22.51-36.28,31.68-59.41,25.83-15.49-3.92-32.63-22.79-30.75-43.17,1.07-11.61.67-23.4.1-35.08C3.87,14.81,1.58,9.69,0,3.71Z"/>
  </g>
</svg>