<?xml version="1.0" encoding="UTF-8"?>
<svg id="_레이어_2" data-name="레이어 2" xmlns="http://www.w3.org/2000/svg" viewBox="0 0 78.82 100">
  <defs>
    <style>
      .cls-1 {
        fill: #fff;
        stroke-width: 0px;
      }
    </style>
  </defs>
  <g id="_레이어_1-2" data-name="레이어 1">
    <g>
      <path class="cls-1" d="M13.97,59.72q.2,7.92,4.91,12.1v-2.47c1.87,3.21,1.66,5.41-.77,8.25-4.14-1.03-6.52-4.05-8.53-7.52-.74-1.27-1.74-2.4-2.46-3.68C2.94,58.92-.1,51.09.04,42.33c.04-2.35-.12-4.7.03-7.04.3-4.73.06-9.67,1.37-14.12,1.06-3.6,1.23-7.89,4.49-10.68.13.72.26,1.43.38,2.15.8-.27,1.76-.34,2.35-.84,1.56-1.32.49-3.22.87-4.93q1.17-1.45.07-3.4c0,1.32,0,2.41-.07,3.4-.47.39-.9.64-1.24.99-.44.45-.8.97-1.19,1.45,0-.98-.11-1.98.02-2.94.43-3.2,2.57-5.2,5.81-5.28,3.72-.1,7.45-.02,11.52-.02.62,2.38.22,4.88.29,7.34.07,2.55,0,5.1.02,7.65.03,2.37-2.17,2.27-3.37,3.12.34,2.04.94,4.02.96,6.01.11,8.23.22,16.47-.01,24.7-.18,6.31,2.1,10.88,7.9,13.61,1.65.77,3.55,1.41,4.74,2.67,4.41,4.7,9.71,6.41,16.21,5.35,1.23-.98,2.7-2.16,4.18-3.34-.02,2.43-1.84,4.49-1.3,7.12.12.6-1.25,2.04-2.1,2.19-1.88.34-4.13.69-5.75-.03-2.78-1.23-5.6-.57-8.3-1.14-3.87-.81-7.74-1.95-11.33-3.56-1.96-.89-2.84-3.33-2.98-5.66-.1-1.51-.02-3.03-.02-5.16-1.41.6-2.33,1-3.71,1.59-.85-.76-2.17-1.59-3.01-2.76-1.3-1.81-1.75.85-2.9-1.06-.65-.56-1.03-.15-.94.01.29.51.75.93,1.14,1.38-.11-.77-.22-1.54-.2-1.39ZM14.97,55.02c.13-.34.39-.69.36-1.01-.4-3.94.17-7.82-.91-11.88-1.12-4.19-.34-8.91-.21-13.4.06-2.38.49-4.75.79-7.41-.25-.25-.8-.8-1.28-1.28-3.03,1.24-4.4,3.4-4.3,6.75.23,7.66-.36,15.32,1.13,22.95.55,2.83,2.16,4.18,4.42,5.29ZM15.59,5.22c-.18-.08-.6-.26-1.02-.44-.13.32-.43.69-.36.96.1.38.48.68.74,1.02.13-.32.27-.65.64-1.55ZM12.57,10.31c.16-.16.29-.29.42-.42-.26-.13-.51-.31-.79-.37-.1-.02-.26.24-.39.37.26.14.51.28.76.42Z"/>
      <path class="cls-1" d="M36.8,95.38c5,1.59,10,.69,14.89,1.16,3.38.32,6.3-1.17,9.5-1.42,1.27-.1,2.42-1.69,4.21-3.04-2.79-.32-4.67-.12-6.94.42-4.78,1.14-9.82.75-14.53-1.12-.75-.3-1.21-1.33-2.37-2.68,1.99-.23,3.36-.82,4.36-.44,6.22,2.37,12.64.48,18.93,1.1,2.17-2.24,5.41-.44,7.95-2.2,1.31-.91,3.76-.16,6.01-.16-1.03,1.72-1.78,3.29-2.81,4.65-3.09,4.07-7.41,5.92-12.28,7.22-6.3,1.68-12.62.95-18.93,1-3.21.02-6.18-1.3-7.99-4.5Z"/>
      <path class="cls-1" d="M45.68,0h3.81c0,6.14.88,12.34-.24,18.15-1.15,6-.68,11.87-.89,17.79-.22,6.07-.17,12.16.02,18.23.07,2.15.91,4.27,1.38,6.36-3.33,1.65-4.47-.9-6.25-2.43.77-3.01-1.21-6.45,1.25-9.37-3.17-2.89.57-4.86.97-7.27.32-1.24-3.22.94-1.47-1.69.47-.71.48-1.8.5-2.71.06-2.74.17-5.5,0-8.23-.62-9.65,2.45-19.09.93-28.82ZM46.13,47.4c.14.25.28.5.42.76.13-.13.39-.29.37-.39-.06-.28-.24-.53-.37-.79-.13.13-.26.26-.42.42Z"/>
      <path class="cls-1" d="M56.74,65.32c-.41,1.43-.61,2.14-.81,2.85-.18-.55-.43-1.09-.51-1.65-.02-.17.42-.4,1.32-1.2Z"/>
      <path class="cls-1" d="M17.7,67c1.76.1,1,1.46,1.18,2.35-1.76-.1-1-1.46-1.18-2.35Z"/>
      <path class="cls-1" d="M17.18,67c-.18-.23-.36-.46-.54-.7.25-.07.66-.27.71-.19.19.25.25.59.36.89-.18,0-.35,0-.53,0Z"/>
      <path class="cls-1" d="M5.93,10.48c.39-.39.78-.78,1.18-1.18-.39.39-.79.78-1.18,1.18Z"/>
    </g>
  </g>
</svg>