<?xml version="1.0" encoding="UTF-8"?>
<svg id="_레이어_2" data-name="레이어 2" xmlns="http://www.w3.org/2000/svg" viewBox="0 0 106.71 100">
  <defs>
    <style>
      .cls-1 {
        fill: #fff;
        stroke-width: 0px;
      }
    </style>
  </defs>
  <g id="_레이어_1-2" data-name="레이어 1">
    <path class="cls-1" d="M65.12.6h38.45c-.32,1.25-.45,2.19-.8,3.04-2.77,6.63-3.82,13.61-3.86,20.72-.09,15.4-.22,30.81.14,46.2.12,5.01,1.3,10.1,2.75,14.92.91,3.03,3.25,5.63,4.91,8.36-2.8,1.11-4.45.46-7.87-3.71-.2,1.31-.42,2.27-.48,3.24-.08,1.06-.02,2.13-.02,3.43h-26.2c0-3.19.06-6.2-.04-9.21-.02-.81-.5-1.6-.77-2.4-.76.39-1.66.63-2.28,1.18-7.66,6.83-16.47,11.41-26.62,13.06-11.63,1.89-22.04-.76-30.65-9.16-4.05-3.95-5.82-9.07-6.35-14.46-.57-5.86-.52-11.8-.55-17.7-.07-13.79-.02-27.58-.03-41.37,0-3.83-.98-7.21-4.37-9.49-.24-.16-.47-.54-.48-.83C-.01,4.29,0,2.18,0,0h35.53c-.09,1.11.14,2.17-.28,2.8-3.54,5.27-3.78,11.43-3.93,17.3-.41,15.57-.18,31.15-.11,46.73,0,1.94.38,3.92.86,5.82,3.2,12.54,19.32,14.66,27.4,8.33,4.37-3.42,7.33-7.45,7.35-13.31.05-16.47.37-32.94.25-49.41-.04-5.37-2.69-10.53-1.95-16.07.06-.44,0-.89,0-1.58Z"/>
  </g>
</svg>