<?xml version="1.0" encoding="UTF-8"?>
<svg id="_레이어_2" data-name="레이어 2" xmlns="http://www.w3.org/2000/svg" viewBox="0 0 86.6 100">
  <defs>
    <style>
      .cls-1 {
        fill: #fff;
        stroke-width: 0px;
      }
    </style>
  </defs>
  <g id="_레이어_1-2" data-name="레이어 1">
    <path class="cls-1" d="M0,19.16V0h30.22c.16,2.28.31,4.44.45,6.6,1.28,19.89,1.59,39.81,1.83,59.74.07,5.84.71,11.69,1.38,17.5.35,2.97,2.11,5.28,4.7,6.99,3.14,2.09,6.21,1.85,9.26.07,4.85-2.83,7.12-7.48,7.18-12.75.23-18.63.15-37.27.05-55.9-.02-4.88-1.1-5.68-5.9-5.46-1.15.05-2.3.23-3.82.39V.35h40.65c.2,5.59.39,11.09.6,16.83-1.75-.11-3.27-.23-4.79-.28-2.49-.08-3.51.49-4.05,2.92-.55,2.43-.94,4.96-.93,7.44.02,15.54.18,31.08.29,46.63.03,3.85-.39,7.57-2.78,10.84-.44.6-.3,1.63-.43,2.46.95-.06,1.93,0,2.83-.23.71-.18,1.33-.71,1.99-1.08,1.06,1.95.25,10.59-1.23,14.13-3.19-.66-6.37-1.34-9.56-1.96-7.29-1.42-14.58-1.06-21.93-.2-8.27.97-16.6,1.33-24.77-.95-1.85-.52-3.66-1.23-5.42-2.02-5.48-2.47-8.59-6.82-9.04-12.73-.53-7-.81-14.02-.87-21.04-.11-10.57.09-21.14.09-31.72,0-1.67-.29-3.34-.47-5-.37-3.35-2.02-5.37-5.53-5.22Z"/>
  </g>
</svg>