<?xml version="1.0" encoding="UTF-8"?>
<svg id="_레이어_2" data-name="레이어 2" xmlns="http://www.w3.org/2000/svg" viewBox="0 0 87.12 100">
  <defs>
    <style>
      .cls-1 {
        fill: #fff;
        stroke-width: 0px;
      }
    </style>
  </defs>
  <g id="_레이어_1-2" data-name="레이어 1">
    <path class="cls-1" d="M66.36,60.65c-1.13-.41-1.61-2.73-.86-4.15.13-.25.44-.56.38-.75-1.66-4.65-.4-9.42-.55-14.12-.3-8.93-.2-17.87-.48-26.81-.14-4.42-3.44-7.38-7.85-7.53-1.68-.06-3.36,0-5.34,0-.25-1.96-.52-4.03-.8-6.23h36.26v5.51c-5.45.89-7.58,4.64-7.61,10.35-.08,12.63.1,25.27-.13,37.9-.11,6.12-.83,12.23-1.43,18.33-.24,2.4-.74,4.81-1.41,7.12-1.97,6.76-6.27,11.73-12.05,15.65-4.24,2.87-9.04,3.36-13.86,3.8-6.43.59-12.87.39-18.92-2.11-6.88-2.84-12.35-7.29-15.76-14.2-2.34-4.73-2.94-9.73-3.55-14.79-1.43-11.79-1.03-23.64-.95-35.48.04-6.35.06-12.71-.35-19.04-.35-5.28-1.1-6.14-5.71-6.64-1.72-.19-3.47-.19-5.37-.28V.74c13.63-.25,27.2-.49,40.83-.74-.62,2.72-1.19,5.28-1.79,7.91-1.42.13-3.1.15-4.72.44-2.88.53-5.37,3.31-5.41,6.25-.09,6.99-.03,13.99-.02,20.98,0,4.6-.05,9.21.07,13.81.19,6.99.05,14.04.94,20.94.48,3.76,2.21,7.69,4.39,10.83,5.2,7.48,11.57,8.05,19.86,4.38,3.68-1.63,6.63-4.27,8.4-8.03.16-.34.47-.6.71-.9.24.19.49.39.73.58.07-.22.14-.44.21-.66-.33.04-.65.08-.98.12.71-4.61,1.42-9.22,2.17-14.1,0,0,.45-.05.98-.11,0-.63,0-1.2,0-1.77.96.11,1.89.19,1.58-1.09h1.91l.14-.84c-.9-.23-2.01-.87-2.64-.56-.6.3-.7,1.6-1.01,2.46ZM66.07,56.84c3.47-.67,4.66-2,3.84-3.76-.54-1.15-1.45-1.45-2.16-.31-.7,1.13-1.04,2.48-1.68,4.07ZM29.72,4.59c-.42-.34-.84-.76-.89-.72-.36.29-.72.65-.92,1.06-.06.12.4.49.62.74.35-.32.69-.63,1.19-1.08ZM29.87,4.55c.18,0,.35,0,.53,0v-1.79c-.18,0-.35,0-.53,0v1.79ZM70.06,4.26c.08-.25.16-.49.24-.74-.48-.15-.95-.29-1.43-.44-.08.23-.15.46-.23.69.47.16.95.33,1.42.49ZM66.38,50.57c.14-.09.28-.18.42-.27-.16-.29-.3-.61-.52-.86-.04-.05-.39.17-.59.26.23.29.46.59.69.88ZM75.26,44.01c-.1,0-.21,0-.31-.01-.04.32-.08.64-.12.96l.52.05c-.03-.33-.05-.66-.08-1ZM18.4,76.16c.25-.25.5-.5.75-.75-.27-.18-.53-.36-.8-.53-.21.21-.42.42-.63.63l.68.66Z"/>
  </g>
</svg>