<?xml version="1.0" encoding="UTF-8"?>
<svg id="_레이어_2" data-name="레이어 2" xmlns="http://www.w3.org/2000/svg" viewBox="0 0 88.28 100">
  <defs>
    <style>
      .cls-1 {
        fill: #fff;
        stroke-width: 0px;
      }
    </style>
  </defs>
  <g id="_레이어_1-2" data-name="레이어 1">
    <path class="cls-1" d="M72.3,94.44c-.35-.31-.5-.77-.71-1.17-.34-.67-.79-1.22-1.35-1.71-.5-.43-1.04-.82-1.44-1.34-.2-.26-.34-.54-.44-.83-.46-.52-.9-1-1.33-1.49-.17-.19-.29-.52-.48-.57-2.34-.56-3.8-1.97-4.69-4.21-.49-1.24-1.24-2.48-2.16-3.43-2.13-2.21-3.74-4.71-5.19-7.56,1.07-.44,1.95-.9,2.89-1.17,3.74-1.09,6.79-3.24,9.57-5.9,6.13-5.88,8.45-13.37,8.92-21.51.35-6.06.24-12.14.3-18.21.03-2.22-.18-4.46,0-6.67.25-2.96.78-5.89,1.22-8.83.04-.25.28-.47.65-1.07v2c.52-.49.85-.91,1.28-1.18,1.21-.77,2.41-1.63,3.73-2.14.89-.35,1.75-.42,1.46-1.84h3.74c-.12-1.83-.23-3.47-.35-5.24h-31.85v5.88c1.1.09,2.31-.18,2.85.3,1.21,1.07,2.44,2.38,3,3.84.76,1.99,1.28,4.22,1.25,6.33-.15,10.95-.41,21.9-.84,32.85-.2,5.1-2.28,9.42-7.04,11.88-2.12,1.1-4.44,1.81-6.7,2.63-2.19.8-4.56.28-6.79.86-.05.01-.13-.11-.41-.37.52-.42,1-.81,1.48-1.19-.22-.46-.33-1.03-.68-1.37-.58-.57-1.26-1.26-1.99-1.4-.79-.15-1.69.28-2.54.45-.07-.15-.14-.31-.21-.46.29-.25.63-.47.84-.78.17-.25.23-.62.21-.92,0-.12-.42-.36-.53-.31-.27.13-.69.42-.67.61.16,1.71-.85,1.83-2.13,1.69-.17-.02-.37.17-.43.2.3.39.55.72.8,1.05-.5.27-1.01.77-1.5.76-1.54-.03-1.75.1-1.6,1.63.02.18-.02.37-.03.6-.2.04-.39.12-.57.1-5.28-.64-9.93-4.4-11.04-8.79-1.14-4.46-1.78-9.03-1.47-13.65.31-4.77.55-9.56,1.15-14.29.63-4.92,1.52-9.81,2.57-14.66.79-3.63,2.61-6.82,5.59-9.17,1.47-1.16,2.07-2.34,1.6-4.68-4.42.16-8.91.29-13.39.5-3.12.15-6.25.68-9.36.57-2.59-.09-4.79.63-6.94,1.82-.23.13-.52.44-.53.67C-.01,5.37,0,7.19,0,9.01c.99.05,1.86.1,2.77.15,0,.8.09,1.47-.02,2.1-.4,2.5-1.05,4.97-1.25,7.49-.33,4.15-.43,8.33-.55,12.49-.28,9.36,1.29,18.33,5.5,26.8,4.11,8.27,10.48,13.61,19.52,15.72,2.46.58,4.67,1.38,6.52,3.5,2.72,3.11,5.44,6.18,7.58,9.73,1.59,2.63,3.2,5.26,4.9,7.83,1.84,2.78,4.45,4.63,7.76,5.01,4.95.58,9.71-.27,14.19-2.58,1.83-.94,3.67-1.89,5.57-2.66-.07-.04-.13-.09-.2-.14ZM73.59,25.93c-.07-.38-.15-.77-.22-1.15.18-.04.36-.08.55-.12l.15,1.19c-.16.03-.31.05-.47.08ZM74.68,5.37c-.39.66-.62,1.06-.86,1.46-.32-.4-.65-.81-1.17-1.46h2.02ZM73.88,21.57c.19.49.35.88.5,1.26-.09.09-.17.18-.25.26-.41-.19-.81-.38-1.5-.71.56-.37.85-.56,1.25-.82ZM71.69,10.71c.17.13.34.27.52.4-.22.47-.45.93-.67,1.4-.3-.26-.59-.52-.89-.79.35-.34.7-.68,1.04-1.01ZM59.04,2.56c-.09-.03-.25-.06-.24-.08.03-.21.08-.43.12-.64.09.03.17.05.26.08-.05.21-.09.42-.14.64ZM65.83,12.84s.07.13.11.24c-.12.04-.24.09-.36.09-.03,0-.06-.15-.1-.23.11-.04.23-.09.34-.11ZM38.28,62.36c-.4-.2-.77-.46-1.15-.71.16-.2.32-.41.48-.61.37.3.74.61,1.11.91-.15.15-.37.44-.44.41ZM49.58,66.97c1.18-.85,1.99-.21,2.83,2.35-1.01-.84-1.92-1.6-2.83-2.35Z"/>
  </g>
</svg>