<?xml version="1.0" encoding="UTF-8"?>
<svg id="_레이어_2" data-name="레이어 2" xmlns="http://www.w3.org/2000/svg" viewBox="0 0 94.02 100">
  <defs>
    <style>
      .cls-1 {
        fill: #fff;
        stroke-width: 0px;
      }
    </style>
  </defs>
  <g id="_레이어_1-2" data-name="레이어 1">
    <path class="cls-1" d="M70.04,1.39c-.02-.36-.04-.75-.07-1.26h23.94c.04.51.08,1,.11,1.46-.23.15-.36.29-.51.33-.67.2-1.35.36-2.01.58-4.27,1.41-5.69,3.31-5.69,7.85-.02,21-.06,42.01-.01,63.01.01,4.92-.8,9.57-2.78,14.11-3.48,7.98-9.67,12.04-18.12,12.34-9.15.32-18.31.18-27.47.02-2.52-.04-5.18-.48-7.52-1.39-3.99-1.56-8.02-3.27-11.59-5.6-8-5.21-11.55-12.86-11.45-22.44.17-16.04.06-32.09.08-48.13,0-3.97.03-7.93.02-11.9,0-.93-.02-1.88-.18-2.79C6.11,3.96,3.95,1.93.12,1.81c-.04-.67-.07-1.16-.12-1.81h35.15v1.62c-4.7,1.48-5.52,2.59-5.52,7.56,0,21.35,0,42.71.07,64.06.01,4.78.84,9.41,3.64,13.47,1.71,2.48,4.14,3.58,7.37,3.89,0-.91,0-1.65,0-2.38-.04-24.39-.08-48.77-.12-73.16,0-2.39.11-4.79-.06-7.17-.2-2.73-1.03-5.19-4.18-6.08V.1h32.54c-.08.64-.14,1.13-.2,1.65-3.2,1.44-3.99,4.14-4,7.24-.04,19.31-.07,38.62-.09,57.93-.01,8.04,0,16.09,0,24.15,5.2.32,13.9-4.06,14.09-13.34.15-7.17-.01-14.35-.02-21.53-.01-14.06,0-28.12-.03-42.18,0-1.46-.15-2.91-.2-4.37-.13-4-2.06-6.57-5.97-7.58-.79-.2-1.56-.44-2.43-.68Z"/>
  </g>
</svg>