<?xml version="1.0" encoding="UTF-8"?>
<svg id="_레이어_2" data-name="레이어 2" xmlns="http://www.w3.org/2000/svg" viewBox="0 0 83.83 103.13">
  <defs>
    <style>
      .cls-1 {
        fill: #fff;
        stroke-width: 0px;
      }
    </style>
  </defs>
  <g id="_레이어_1-2" data-name="레이어 1">
    <path class="cls-1" d="M69.84,0c4.19.6,8.36.87,12.3,1.97.97.27,1.71,3.23,1.68,4.94-.33,21.31-.75,42.63-1.3,63.94-.22,8.81-.54,17.63-1.4,26.38-.2,2.01-2.51,4.68-4.47,5.44-3.26,1.26-5.64-.05-5.46-4.41.27-6.57.07-13.15.07-20.28-1.39,1.04-2.63,1.61-3.38,2.57-9.82,12.43-23.69,14.31-38.13,14.91-18.3.76-27.81-12.82-28.79-27.02C-.43,48.38.21,28.18,0,8.04c-.03-2.73,1.29-3.65,4.09-3.59,12.15.26,11.95.18,11.97,12.17.02,15.98.52,31.95.59,47.93.09,21.68,19.81,24.84,32.36,17.58,6.29-3.64,12.35-7.68,18.3-11.85,1.04-.73,1.37-2.97,1.4-4.53.45-18.48.78-36.96,1.13-55.44.05-2.81,0-5.61,0-10.29Z"/>
  </g>
</svg>