<?xml version="1.0" encoding="UTF-8"?>
<svg id="_레이어_2" data-name="레이어 2" xmlns="http://www.w3.org/2000/svg" viewBox="0 0 114.42 100">
  <defs>
    <style>
      .cls-1 {
        fill: #fff;
        stroke-width: 0px;
      }
    </style>
  </defs>
  <g id="_레이어_1-2" data-name="레이어 1">
    <path class="cls-1" d="M0,100c7.6-9.27,15.26-18.48,22.77-27.82,3.96-4.93,7.63-10.09,11.46-15.11,1.04-1.36,1.24-2.59.34-4.19-3.91-6.95-7.9-13.86-11.51-20.97-3.44-6.77-7.29-13.27-11.49-19.58-2.15-3.24-4.44-6.26-8.03-8.16-.65-.35-.6-2.2-.65-3.36-.01-.24.97-.75,1.5-.75C24.26,0,44.12,0,63.99,0c.25,0,.5.07.88.13,0,2.56.02,5.07-.03,7.58,0,.32-.3.73-.58.95-1.96,1.58-3.92,3.14-5.93,4.65-.93.7-.99,1.36-.45,2.36,1.24,2.3,2.37,4.67,3.54,7.01.25.05.51.1.76.16,2.63-3.63,5.46-7.15,7.82-10.95,1.39-2.22.44-3.73-2.11-4.71-.41-.16-1-.58-1.02-.91-.1-1.91-.05-3.82-.05-5.8h27.06c.25,2.5.22,4.39-1.7,6.54-6.16,6.9-11.88,14.18-17.76,21.32-.59.72-1.05,1.6-1.77,2.16-1.8,1.4-1.24,2.8-.39,4.45,4.13,7.95,8.27,15.89,12.25,23.91,3.95,7.95,6.17,16.5,8.29,25.07,1.02,4.11,2.92,7.71,6.59,10.1,4.26,2.77,8.9,2.68,13.65,1.73.31-.06.63-.09,1.35-.2v4.43H44.81c1.09-.96,2.18-1.92,3.28-2.87,2.77-2.38,3-3.07,1.29-6.25-2.06-3.85-4.3-7.61-6.46-11.41-.5-.88-1-1.75-1.52-2.66-.26.21-.41.27-.46.37-3.73,7.16-7.47,14.31-11.17,21.48-.19.37-.11.89-.16,1.33H0ZM11.16,3.73c.95,1.55,5.83,1.51,9,0h-9Z"/>
  </g>
</svg>