<?xml version="1.0" encoding="UTF-8"?>
<svg id="_레이어_2" data-name="레이어 2" xmlns="http://www.w3.org/2000/svg" viewBox="0 0 119.37 100">
  <defs>
    <style>
      .cls-1 {
        fill: #fff;
        stroke-width: 0px;
      }
    </style>
  </defs>
  <g id="_레이어_1-2" data-name="레이어 1">
    <g>
      <path class="cls-1" d="M68.07,21.78c12.34-9.27,12.26-9.03,9.95-6.09-5.12,6.51-11.24,12.33-14.04,20.47-.63,1.84-1.62,4.13-3.14,4.98-3.58,2.01-1.23,6.31-3.86,8.5-.21.17.17,1.3.5,1.84,1.74,2.83,3.56,5.61,5.59,8.81-1,1.06-2.26,1.89-2.73,3.05-.45,1.09-.44,2.7.06,3.76.57,1.21,2,1.98,2.89,3.09.74.92,1.24,2.05,2.35,3.93,1.34-2.72,2.27-4.62,3.4-6.91,1.01,1.5,1.93,2.87,3.14,4.66.23-1.53.41-2.78.61-4.12.33.03.85-.07.97.1,2.64,3.82,2.3,5.87-1.97,9.85-.41-1.7-.75-3.11-1.5-6.21-.34,3.29-.51,4.94-.71,6.96,2.59.74,6.1-.84,7.41,3.24-1.48,1.13-3.11,2.38-4.9,3.76,1.8,3.27,4.75,3.88,7.45,5.12-.93.72-2.38,1.27-2.55,2.09-.25,1.16.45,2.52.78,3.98-1.04.83-2.45,1.96-4.19,3.36-.25-.2-1.38-.64-1.55-1.31-1.6-6.46-6.43-11.07-9.39-16.73-.3-.58-.37-1.66-.75-1.76-5.41-1.45-6.76-6.47-8.74-10.55-.88-1.81-2.71-1.96-3.3-3.47-.55-1.4-.82-2.91-1.34-4.82-5.9,4.02-7.79,9.73-10.07,15.19-.34.81-.43,1.9-1.02,2.39-4.68,3.92-6.54,9.5-9.15,14.7-.95,1.89-1.25,4.95-4.78,5.15-1.84.11-4.57.08-4.92-1.57-1.77-8.44-6.45-16.03-7.15-24.76-3.07-4.73-3.28-10.46-5.36-15.55-.91-2.23-1.19-4.72-1.75-7.09-.61-2.59-.54-5.68-2-7.64-1.67-2.25.66-5.43-2.27-6.94C0,26.8-.48,18.38,4.23,10.66,7.44,5.39,12.03,2.64,17.84,1.99c3.16-.35,5.94-2.14,9.37-1.64,3.48.52,7.09.11,10.64.11h9.84c2.37,2.85-1.43,4.48-.7,7.08-8.14-3.66-15.09-3.97-28.33-.88v3.59c2.51-.44,4.84-1.02,7.2-1.21,2.57-.21,5.17-.05,8.16-.05,2.32,2.97,4.65,6.11,7.17,9.08.95,1.12,1.15,2.35,1.64,3.61,2.81,7.29,6,14.44,9.41,22.45,2.66-3.33,2.74-7.1,5.3-9.64,2.4-2.37,3.92-5.62,5.84-8.47,2-2.97,3.94-5.98,6.05-8.86,2.13-2.92,4.44-5.71-1.35,4.61-8.64,13.38-8.86,13.11-9.09,12.83-.21.21-.42.42-.63.63.28.22.55.46.86.63.05.03.29-.27,8.87-14.1ZM29.03,78.35c3.61-5.78,7.29-11.73,11.05-17.63,1.71-2.68,3.81-5.39,2.22-8.66-3.95-8.11-8.1-16.15-13.47-23.45-2.06-2.81-3.87-3.2-7.22-2.05-2.47.85-4.88,1.88-7.64,2.96,1.19,10.47,5.28,20.16,7.53,30.28,1.46,6.57,4.12,12.9,7.53,18.55ZM72.78,80.63c.16.3.34.61.51.92.16-.16.47-.35.44-.47-.07-.33-.29-.64-.44-.95-.16.16-.32.32-.51.51Z"/>
      <path class="cls-1" d="M110.99,4.73v6.46c.92.43,1.89.87,3.14,1.45-2.79,1.83-5.37,3.53-9.07,5.96.61-2.37.9-3.49,1.26-4.87-.18-.06-.71-.36-1.28-.44-3.17-.41-5.36.66-5.89,4.5-2.4-3.19.17-5.26,1.24-7.22.76-1.39,2.97-1.9,4.22-3.12,1.08-1.05,1.51-2.78,2.61-3.79.85-.78,2.22-.73,1.52,2.8.27.76.8.47.77.27-.1-.68-.39-1.33-.62-1.99-.24.86-.49,1.71-.16,1.72,1.3-1.72,1.77-1.72,2.24-1.72Z"/>
      <path class="cls-1" d="M75.6,70.11c2.17-3.12,3.51-5.11,4.95-7.02.16-.21.88.02,1.34.04-.07.5-.04,1.05-.24,1.49-.53,1.14,1.55,2.67-.54,3.55-.08,3.45-2.37,1.67-5.51,1.94Z"/>
      <path class="cls-1" d="M98.18,28.92v5.01c-1.25.62-2.54,1.25-3.8,1.88-1.06-1.42.17-3.58,3.8-6.89Z"/>
      <path class="cls-1" d="M111.14,26.11c-1.79,2.29-3.55,4.54-5.52,7.06-.06-1.26-.66-2.98-.08-3.59,1.47-1.55,2.48-4.18,5.6-3.47Z"/>
      <path class="cls-1" d="M96.76,45.99c.21,3.12-1.98,4.44-4.27,5.69-.21-3.12,1.98-4.44,4.27-5.69Z"/>
      <path class="cls-1" d="M100.99,23.42c.09-3.75-.46-6.17,3.28-7.27-1.06,2.35-1.87,4.14-3.28,7.27Z"/>
      <path class="cls-1" d="M87.44,56.02c-.93,1.57-1.73,2.92-3.01,5.09-.44-3.16-1.64-5.63,3.01-5.09Z"/>
      <path class="cls-1" d="M110.44,4.38c.84-1.3,1.68-2.59,2.84-4.38,1.19,3.29-.72,3.91-2.84,4.38Z"/>
      <path class="cls-1" d="M104.48,20.34c.64,2.12,1.96,4.34-1.89,4.34.69-1.58,1.29-2.96,1.89-4.34Z"/>
      <path class="cls-1" d="M101.03,40.3c.23,2.21-.6,3.71-2.85,4.27-.23-2.21.6-3.71,2.85-4.27Z"/>
      <path class="cls-1" d="M101.03,40.3c-.23-2.21.6-3.71,2.85-4.27.23,2.21-.6,3.71-2.85,4.27Z"/>
      <path class="cls-1" d="M77.09,62.84v-3.78c.24-.03.48-.05.72-.08.18,1.24.36,2.49.54,3.73-.42.04-.84.08-1.26.12Z"/>
      <path class="cls-1" d="M101.03,26.07c-1.95-1.43-1.95-2.84,0-4.27v4.27Z"/>
      <path class="cls-1" d="M104.47,27.71c-1.73-.49-2.59-.74-3.45-.98.66-.22,1.31-.52,1.99-.62.2-.03.49.51,1.45,1.6Z"/>
      <path class="cls-1" d="M81.47,57.37v-2.85h.71v2.85h-.71Z"/>
      <path class="cls-1" d="M91.9,37.57c.16.16.47.4.44.45-.17.31-.41.58-.63.86-.21-.21-.42-.42-.63-.63.28-.22.55-.45.83-.67Z"/>
      <path class="cls-1" d="M91.07,39.51c-.28.22-.56.44-.84.66-.09-.3-.32-.79-.24-.86.3-.23.71-.3,1.08-.43,0,.21,0,.42,0,.63Z"/>
      <path class="cls-1" d="M86.3,45.78c-.3-.16-.61-.34-.92-.51.16-.16.35-.47.47-.45.33.07.64.29.96.45-.16.16-.32.32-.51.51Z"/>
      <path class="cls-1" d="M98.18,44.56c-.47.47-.95.95-1.42,1.42.47-.47.95-.95,1.42-1.42Z"/>
      <path class="cls-1" d="M92.49,52.31c-.28.22-.56.44-.84.66-.09-.3-.32-.79-.24-.86.3-.23.71-.3,1.08-.43,0,.21,0,.42,0,.63Z"/>
      <path class="cls-1" d="M87.63,54.64c.16.16.47.4.44.45-.17.31-.41.58-.63.86-.21-.21-.42-.42-.63-.63.28-.22.55-.45.83-.67Z"/>
      <path class="cls-1" d="M118.93,9.12c.16.17.47.4.44.45-.17.31-.41.58-.63.86-.21-.21-.42-.42-.63-.63.28-.22.55-.45.83-.67Z"/>
      <path class="cls-1" d="M116.68,11.85c.47-.47.95-.95,1.42-1.42-.47.47-.95.95-1.42,1.42Z"/>
      <path class="cls-1" d="M116.68,12.48c-.28.22-.56.44-.84.66-.09-.3-.32-.79-.24-.86.3-.23.71-.3,1.08-.43,0,.21,0,.42,0,.63Z"/>
      <path class="cls-1" d="M111.81,24.76c.16.16.47.4.44.45-.17.31-.41.58-.63.86-.21-.21-.42-.42-.63-.63.28-.22.55-.45.83-.67Z"/>
      <path class="cls-1" d="M99.01,27.61c.16.16.47.4.44.45-.17.31-.41.58-.63.86-.21-.21-.42-.42-.63-.63.28-.22.55-.45.83-.67Z"/>
      <path class="cls-1" d="M104.7,34.72c.16.16.47.4.44.45-.17.31-.41.58-.63.86-.21-.21-.42-.42-.63-.63.28-.22.55-.45.83-.67Z"/>
    </g>
  </g>
</svg>