<?xml version="1.0" encoding="UTF-8"?>
<svg id="_레이어_2" data-name="레이어 2" xmlns="http://www.w3.org/2000/svg" viewBox="0 0 107.06 100">
  <defs>
    <style>
      .cls-1 {
        fill: #fff;
        stroke-width: 0px;
      }
    </style>
  </defs>
  <g id="_레이어_1-2" data-name="레이어 1">
    <g>
      <path class="cls-1" d="M102.15,85.12c.73,5.1-.86,7.62-5.11,9.63-4.76,2.25-9.47,3.67-14.58,4.84-4.14.94-7.76.07-11.11-.95-3.34-1.02-6.54-3.19-9.47-5.71-4.98-4.26-8.19-9.81-11.23-15.15-3.98-6.99-8.49-13.41-13.64-19.49-.6-.7-.77-1.76-1.48-3.46-2.01,2.51-3.82,4.72-5.59,6.96-7.76,9.82-13.67,21.08-23.03,29.8-1.66-.72-3.21-1.39-4.89-2.12-2.03-4.58,1.11-8.27,3.14-11.55,3.42-5.54,8.16-10.24,12-15.53,3.71-5.1,8.68-9.16,11.78-14.76,1.12-2.02,1.36-3.46-.15-5.44-6.04-7.94-11.92-16.02-17.84-24.06-1.33-1.8-2.54-3.69-3.92-5.45-.8-1.02-1.82-1.89-2.76-2.79-1.23-1.18-5.28,1.08-4.06-2.63.93-2.85,4.34,2.24,6.07-.83,6.13,3.04,12.68.99,19.01,1.56.77.07,1.56,0,2.54,0,.18.71.15,1.57.55,2.09,4.82,6.18,9.71,12.31,14.76,18.68.69-1.39.99-2.62,1.76-3.41,5.12-5.26,10.26-10.51,15.59-15.55,1.56-1.47,3.77-2.24,5.64-3.39,1.93-1.18,4.17-1.57,5.32-4.28,1.1-2.59,3.46-2.67,5.74-1.15,2.07,1.39,4.07,2.89,6.1,4.34-3.53,4.94-6.89,10.22-11.14,14.02-4.55,4.07-7.85,8.61-11.38,13.38-3.7,5.01-8.73,9.02-13.29,13.58,7.97,10.27,15.46,20.9,21.8,32.3,1.19,2.14,2.31,4.35,3.79,6.28,1.75,2.28,3.77,4,7.24,3.48,3.33-.5,6.8-.11,10.21-.11,1.57,0,3.25.35,4.69-.08,2.25-.68,4.35-1.89,6.92-3.07Z"/>
      <path class="cls-1" d="M102.09,45.04c1.91,2.1,3.4,3.74,4.93,5.43-3.13,7.48-9.68,13.33-11.44,21.89h-10.15c2.61-6.85,5.36-13.47,11.04-18.49,1.35-1.19,1.75-3.41,2.75-5.06.75-1.24,1.75-2.32,2.87-3.76Z"/>
      <path class="cls-1" d="M107.06,70.18c-.35.18-.69.41-1.06.49-.13.03-.34-.32-.52-.49.35-.17.69-.41,1.06-.49.13-.03.34.32.52.49Z"/>
    </g>
  </g>
</svg>