<?xml version="1.0" encoding="UTF-8"?>
<svg id="_레이어_2" data-name="레이어 2" xmlns="http://www.w3.org/2000/svg" viewBox="0 0 79.71 100">
  <defs>
    <style>
      .cls-1 {
        fill: #fff;
        stroke-width: 0px;
      }
    </style>
  </defs>
  <g id="_레이어_1-2" data-name="레이어 1">
    <path class="cls-1" d="M63.18,65.57c-2.44-1.77-4.2-3.04-7.46-5.4.66,3.5.37,5.93,1.43,6.93,3.87,3.64,5.51,8.43,7.9,12.9,2.52,4.71,4.46,9.85,8.98,13.37,1.28,1,1.49,3.37,2.68,6.35-4.62-.91-7.8-1.65-11.02-2.14-3.07-.46-6.04-.28-9.24-1.43-2.6-.94-4.66-1.97-6.5-3.78-3.16-3.11-6.27-6.26-9.82-9.82-5.24,4.96-1.5,9.8-.85,14.65,0,0-.22.33-.45.33-6.56.03-13.14-.27-19.68.11-5.98.35-11.93,1.44-19.15,2.36,3.61-4.75,6.34-8.49,9.23-12.09,3.07-3.83,6.03-7.82,9.54-11.23,4.78-4.65,9.58-9.59,15.25-12.89,3.31-1.92,2.69-3.59,1.66-5.26-7.91-12.85-15.4-25.95-23.77-38.53C8.37,14.69,7.17,8.03,7.77.41c2.94.78,5.48,1.76,8.1,2.07,2.93.34,5.92.08,9.15.08,1.69,5.79-1.5,12.38,3.06,17.35,3.4-4.32,6.53-9.38,10.74-13.28,2.99-2.78,7.41-4.01,12.56-6.63-2.3,6.9-7.18,9.55-10.67,13.24-3.54,3.74-7.69,6.9-11.81,10.52,1.97,2.76,1.92,7.16,6.69,7.78.33.04.28,1.64.74,2.27,2.49,3.46,5.08,6.84,7.99,10.72,3.58-4.57,6.69-8.55,9.88-12.62-1.37-.5-2.4-.88-3.83-1.4,1.5-.72,2.65-1.28,4.21-2.03-2.08-1.34-3.91-2.53-6.28-4.06,1.68-1.99,3.31-3.93,4.83-5.73,3.89,0,7.47-.07,11.05.03,2.13.06,3.97-.03,5.5-1.96,2.23-2.82,5.17-2.26,7.83-.7,2.94,1.72,2.38,5,1.54,7.17-2.21,5.67-5.16,11.1-8.79,16.01-1.34,1.81-1.43,5.15-4.86,5.02,1.87,4.5-1.53,6.73-3.96,9.42-.3.33-.29,1.5,0,1.7,1.69,1.2,1.9,2.82,1.77,4.68-.1,1.47-.02,2.96-.02,5.52Z"/>
  </g>
</svg>