<?xml version="1.0" encoding="UTF-8"?>
<svg id="_레이어_2" data-name="레이어 2" xmlns="http://www.w3.org/2000/svg" viewBox="0 0 100.9 100">
  <defs>
    <style>
      .cls-1 {
        fill: #fff;
        stroke-width: 0px;
      }
    </style>
  </defs>
  <g id="_레이어_1-2" data-name="레이어 1">
    <path class="cls-1" d="M25.76,3.23c3.38,5.44,5.98,10.43,9.36,14.83,4,5.21,8.66,9.91,13.29,15.12,5.8-3.9,9.15-9.51,12.88-14.78,3-4.22,5.78-8.61,9.02-12.64,4.48-5.58,12.68-7.25,19.51-4.36,3,1.27,3.7,4.21,1.5,6.7-4.39,4.96-8.95,9.78-13.2,14.85-3.68,4.39-7.34,8.85-10.34,13.7-.91,1.47-1.85,2.89-2.96,4.2-2.66,3.14-2.28,4.54-.16,8.61,4.9,9.42,12.18,16.94,18.79,25.03,3.89,4.76,7.03,10.12,10.73,15.04,1.96,2.6,4.39,4.85,6.72,7.37-4.91,4.41-10.38,2.59-15.88,3.11-9.38-14.3-21.52-26.4-32.99-39.39-5.25,2.63-7.45,8.11-10.93,12.25-5.21,6.21-9.43,13.24-14.28,19.77-.91,1.23-2.72,2.1-4.27,2.47-1.55.37-3.9.8-3.53-2.3-1.93-.37-3.86-.75-5.95-1.15-.4-3.49-.03-6.28,2.42-9.68,5.34-7.41,10.22-15.16,16.22-22.11,1.44-1.67,2.92-3.46,3.8-5.44,1.04-2.34,2.72-5.32-1.77-6.3-2.21-5.42-6.63-9.23-9.98-13.82-1.03-1.41-2.01-2.93-3.29-4.09-6.79-6.18-11.68-13.96-17.53-20.91C1.37,7.43,1.09,4.48,0,1.4c4.89,0,9.26-.25,13.6.07,4.21.31,8.37,1.19,12.16,1.76Z"/>
  </g>
</svg>