<?xml version="1.0" encoding="UTF-8"?>
<svg id="_레이어_2" data-name="레이어 2" xmlns="http://www.w3.org/2000/svg" viewBox="0 0 192.32 100">
  <defs>
    <style>
      .cls-1 {
        fill: #fff;
        stroke-width: 0px;
      }
    </style>
  </defs>
  <g id="_레이어_1-2" data-name="레이어 1">
    <path class="cls-1" d="M192.32,1.07c-3.31,1.76-6.62,3.54-9.94,5.28-1.89.99-3.97,1.7-5.67,2.94-9.71,7.12-21.31,9.39-32.45,12.84-.9.28-1.89.37-2.83.42-4.58.26-8.85,1.3-12.35,4.54-1.56,1.44-3.3,2.67-6.15,2.62,2.74,2.32,5.4,2.78,8.85,2.58-1.67,1.45-2.83,2.45-4.04,3.51,12.79,9.18,24.16,19.92,37.17,28.22-.36,1.09-.79,1.11-1.21,1.12-9.43.08-18.87.05-28.29-.59-1.36-.09-2.44-.5-3.5-1.3-6.91-5.24-13.92-10.34-20.73-15.7-2.5-1.96-4.07-2.59-7.36-.63-13.61,8.12-26.89,16.89-41.78,22.72-5.05,1.98-9.74,4.78-14.35,7.73-6.73,4.32-14.48,6.7-21.5,10.46-6.37,3.41-13.46,5.33-19.39,9.59-1.72,1.23-3.71,1.97-6.79,2.58,4.44-3.78,8.19-6.98,11.95-10.17,11.69-9.92,25.09-17.53,37.13-26.95,12.57-9.84,25.71-18.86,38.72-28.07,1.52-1.07,2.07-1.8.26-3.22-5.81-4.56-11.5-9.27-17.27-13.88C65.14,13.2,55.4,5.55,49.25.05c10.07.02,20.13-.01,30.2-.05,1.69,0,3.04.39,4.39,1.51,8.01,6.64,16.12,13.14,24.15,19.75,1.74,1.44,2.83,1.65,4.91.02,8.5-6.69,17.3-13,25.45-20.13.73-.65,1.43-1.14,2.53-1.14,17.09.04,34.17.03,51.26.03.06.35.12.69.19,1.03Z"/>
  </g>
</svg>