<?xml version="1.0" encoding="UTF-8"?>
<svg id="_레이어_2" data-name="레이어 2" xmlns="http://www.w3.org/2000/svg" viewBox="0 0 77.95 100">
  <defs>
    <style>
      .cls-1 {
        fill: #fff;
        stroke-width: 0px;
      }
    </style>
  </defs>
  <g id="_레이어_1-2" data-name="레이어 1">
    <path class="cls-1" d="M0,1.48c4.1-.28,7.12-.29,10.08-.74,5.48-.83,8.94,1.22,11.96,5.96,4,6.26,8.93,11.94,13.58,17.77,2.58,3.24,5.14,2.98,7.65-.21,5.72-7.26,11.62-14.38,17.33-21.65,3.68-4.69,7.96-1.68,12.56-1.44-.87,1.84-1.34,3.46-2.28,4.73-5.13,6.9-10.55,13.58-15.51,20.58-3.43,4.84-6.46,10-9.32,15.21-2.28,4.15.72,7.59,2.68,10.71,7.76,12.31,15.88,24.39,23.78,36.6,1.86,2.88,3.42,5.95,5.45,9.5-5.15.29-9.53.82-13.88.63-1.68-.08-3.9-1.41-4.83-2.85-5.09-7.86-9.9-15.9-14.69-23.95-.58-.97-.46-2.35-.71-3.77-3.98-1.72-5.83,1.5-7.63,3.78-6.95,8.74-13.61,17.72-20.55,26.46-.71.89-2.84,1.46-3.92,1.08-2.62-.91-5.01-2.48-8.49-4.3,3.17-5.45,6.21-11.19,9.73-16.62,5.75-8.87,11.97-17.45,17.6-26.39.94-1.5.63-4.67-.35-6.34-3.63-6.2-7.79-12.09-11.72-18.12-4.01-6.15-7.91-12.38-12-18.47C4.88,7.19,2.84,5.01,0,1.48Z"/>
  </g>
</svg>