<?xml version="1.0" encoding="UTF-8"?>
<svg id="_레이어_2" data-name="레이어 2" xmlns="http://www.w3.org/2000/svg" viewBox="0 0 84.87 94.4">
  <defs>
    <style>
      .cls-1 {
        fill: #fff;
        stroke-width: 0px;
      }
    </style>
  </defs>
  <g id="_레이어_1-2" data-name="레이어 1">
    <path class="cls-1" d="M0,94.31c7.44-10.87,13.93-20.46,20.53-29.97,3.51-5.05,7.09-10.05,10.85-14.91,1.79-2.31,1.96-3.93.13-6.5C22.17,29.81,13.1,16.51,3.94,3.26c-.26-.37-.36-.85-.85-2.04,7.12,0,13.84-.16,20.54.14,1.22.05,2.66,1.78,3.47,3.07,5.28,8.4,10.42,16.9,16.16,26.27,2.02-2.76,3.7-4.9,5.21-7.17,4.14-6.22,8.27-12.44,12.26-18.76,2.15-3.41,4.8-5.17,9.04-4.69,4.39.5,8.83.48,14.55.75-7.6,11.45-14.44,21.8-21.32,32.13-1.48,2.21-3.11,4.32-4.64,6.49-4.55,6.46-4.51,6.44-.03,13.13,7.87,11.74,15.7,23.5,23.51,35.28.97,1.46,1.71,3.08,3.04,5.51-7.08,0-13.17.14-19.24-.13-1.09-.05-2.32-1.66-3.12-2.81-6.59-9.57-13.1-19.2-19.64-28.83-7.16,9.95-14.14,19.86-21.42,29.55-1.16,1.55-3.55,2.85-5.49,3.03-4.74.43-9.55.14-15.97.14Z"/>
  </g>
</svg>