<?xml version="1.0" encoding="UTF-8"?>
<svg id="_레이어_2" data-name="레이어 2" xmlns="http://www.w3.org/2000/svg" viewBox="0 0 85.36 90.65">
  <defs>
    <style>
      .cls-1 {
        fill: #fff;
        stroke-width: 0px;
      }
    </style>
  </defs>
  <g id="_레이어_1-2" data-name="레이어 1">
    <path class="cls-1" d="M38.6,49.51c-7.77,11.91-14.88,22.96-22.15,33.9-3.63,5.46-4.71,5.73-12.35,4.33,7.01-16.64,18.78-30.25,27.29-46.1C23.17,32.39,14.81,22.96,6.44,13.53c-.55-.62-1.25-1.18-1.61-1.9C3.18,8.37-2.26,6.01,1.04,1.58,3.45-1.66,12.49.52,15.72,4.13c8.06,9.03,16.26,17.93,24.86,27.39,1.84-2.26,3.94-4.73,5.92-7.3,4.27-5.54,8.4-11.18,12.73-16.67,5.23-6.63,7.67-6.94,15.37-2.13-8.99,11.25-17.96,22.47-27.16,33.98,6.43,7.99,12.73,15.91,19.13,23.75,5.78,7.09,11.62,14.14,17.5,21.15,2.18,2.59,1.48,4.01-1.49,5.11-7.03,2.6-10.9,1.2-15.61-4.78-9.14-11.6-18.56-22.98-28.39-35.11Z"/>
  </g>
</svg>