<?xml version="1.0" encoding="UTF-8"?>
<svg id="_레이어_2" data-name="레이어 2" xmlns="http://www.w3.org/2000/svg" viewBox="0 0 77.57 100">
  <defs>
    <style>
      .cls-1 {
        fill: #fff;
        stroke-width: 0px;
      }
    </style>
  </defs>
  <g id="_레이어_1-2" data-name="레이어 1">
    <path class="cls-1" d="M0,0c5.54.66,10.45,1.13,15.31,1.91,1.19.19,2.52,1.19,3.26,2.2,5.21,7.2,10.34,14.45,15.39,21.77,3.22,4.66,6.25,9.46,9.64,14.62,4.72-5.83,8.1-11.87,11.21-18.03,3.12-6.19,6.24-12.43,7.59-19.23,3.93,0,7.46.16,10.96-.06,1.93-.12,3.58.59,3.98,2.06.42,1.57.34,4.12-.65,5.06-3.38,3.21-4.91,7.39-6.77,11.35-1.83,3.91-3.81,7.76-5.36,11.86-1.71,4.55-4.64,8.91-7.34,13.09-1.91,2.95-2.64,5.99-3.67,8.91,6.76,7.51,11.54,15.88,14.85,25.11,1.93,5.4,2.71,10.98,2.16,16.68-.24,2.5-1.42,3.71-3.84,1.71-4.57.81-6.43-2.14-8.13-5.62-3.03-6.2-6.67-12.01-11.38-17.12-.65-.71-.85-1.83-1.65-3.63-6.18,9.21-10.3,18.85-17.63,26.24h-11.96c.12-.49.21-.81.28-1.14.74-3.21,1.6-6.39,3.67-9.03,2.06-2.62,3.45-5.69,5.07-8.5,3.16-5.49,6.07-11.13,9.67-16.37.2-.3.55-.78.44-.97-2.31-4.24-.52-9.99-4.94-13.44C22.05,34.74,13.22,20.54,3.33,7.01,2.07,5.28,1.45,3.1,0,0Z"/>
  </g>
</svg>