<?xml version="1.0" encoding="UTF-8"?>
<svg id="_레이어_2" data-name="레이어 2" xmlns="http://www.w3.org/2000/svg" viewBox="0 0 92.57 100">
  <defs>
    <style>
      .cls-1 {
        fill: #fff;
        stroke-width: 0px;
      }
    </style>
  </defs>
  <g id="_레이어_1-2" data-name="레이어 1">
    <path class="cls-1" d="M0,7.95C.13,5.7.25,3.65.38,1.51h11.32c.07.48.17,1.15.27,1.82.17.03.35.06.52.09.46-.83.92-1.65,1.57-2.83,1.08.31,2.31.67,3.54,1.02,0,.22-.02.45-.02.67.81-.43,1.62-.86,2.44-1.29-.1,2.18.24,2.49,2.55,2,3.29-.7,6.55-.39,9.84-.1,1.18.1,2.42-.63,3.62-.6,2.13.05,4.26.36,6.37.67.23.03.47.74.51,1.15.09,1.04.2,2.12.02,3.13-.11.57-.7,1.36-1.21,1.5-6.04,1.57-6.22,2.5-4.81,8.59.32,1.37,1.03,2.69,1.78,3.9,3.06,4.94,6.24,9.8,10.57,14.14,1.5-1.78,3.07-3.36,4.31-5.16,2.86-4.14,5.68-8.32,8.29-12.61,1.45-2.38,2.53-5.01,3.63-7.59,1.08-2.52.29-4.29-2.34-5.26-1.56-.58-3.23-.9-5.11-1.41.07-.73.04-1.64.29-2.47.12-.39.83-.89,1.22-.86,9.5.79,18.99,1.65,28.48,2.5.39.03.78.12,1.16.21,3.62.83,3.73,1.01,3.12,5.32-2.01,0-4.09-.11-6.14.03-2.17.15-4.32.62-6.5.81-3.54.31-5.44,2.9-7.27,5.36-5.48,7.39-10.83,14.88-16.17,22.38-1.16,1.63-2.12,3.42-3.04,5.21-.23.44-.16,1.27.12,1.69,6.69,10.07,13.43,20.1,20.17,30.14,2.33,3.47,4.64,6.95,6.99,10.41,1.62,2.39,3.66,4.3,6.58,4.94,2.78.61,1.71,2.85,1.99,4.49.69.19,1.31.36,1.94.53.02.18.05.37.07.55-2.27.65-4.51,1.49-6.82,1.9-5.76,1.03-11.53,2.02-17.33,2.72-4.26.52-8.57.55-13.08.81-.22-2.92-.42-5.62-.59-7.92,2.58-.97,4.81-1.81,7.57-2.85-.96-2-1.69-3.8-2.65-5.47-3.58-6.23-7.22-12.42-10.86-18.62-.62-1.06-1.31-2.08-2.16-3.42-.86.77-1.74,1.28-2.23,2.04-4.62,7.13-9.21,14.28-13.73,21.47-.86,1.37-1.61,2.94-.04,4.44.12.11.1.37.13.56.47,2.78,1.16,3.41,4.08,3.47,2.73.06,5.47.01,8.38.01v5.34c-4.48.15-8.9.42-13.32.41-6.83-.02-13.66-.26-20.49-.35-1.02-.01-1.61-.28-1.73-1.35-.24-2.13-.48-4.26-.77-6.39-.15-1.13.38-1.5,1.41-1.62,1.81-.2,3.62-.73,5.42-.7,1.89.04,3.39.08,4.57-1.88.64-1.05,2.22-1.54,3.37-2.28,5.09-3.3,8.49-7.98,11.32-13.27,2.43-4.54,5.27-8.87,8.03-13.24.89-1.41,1.23-2.71.37-4.19-2.74-4.75-5.42-9.53-8.25-14.23-4.35-7.22-8.76-14.41-13.22-21.56-1.28-2.04-2.73-4-4.29-5.83-2.83-3.32-6.42-5.04-10.88-4.65-1.02.09-2.06.01-3.21.01ZM9.97,92.55c.23.38.47.76.7,1.14.2-.2.39-.4.59-.6-.38-.23-.76-.46-1.14-.69-.23-.38-.46-.76-.69-1.14-.2.2-.4.41-.59.61.38.23.75.45,1.13.68ZM21.12,4.88c-.26.06-.52.13-.78.19.11.71.22,1.42.33,2.13l.62-.07-.17-2.26ZM37.02,5.58c-.25.04-.51.08-.76.12.13.62.26,1.25.39,1.87.2-.04.41-.08.61-.12-.08-.63-.16-1.25-.24-1.88ZM12.11,7.44c.31-.38.62-.6.62-.82,0-.18-.35-.42-.59-.51-.09-.04-.45.27-.45.41.01.25.21.5.41.92ZM27.27,91.52c.2.09.39.18.59.27.15-.36.29-.72.44-1.08-.17-.06-.45-.2-.48-.16-.21.3-.37.64-.54.97ZM14.65,1.06c-.14.47-.3.7-.24.87.07.2.31.34.48.5.15-.16.45-.37.42-.48-.07-.25-.31-.45-.65-.89ZM27.46,98.05c-.13,0-.25,0-.38-.01-.07.16-.23.43-.19.47.19.18.45.3.68.44-.04-.3-.08-.6-.12-.9Z"/>
  </g>
</svg>