<?xml version="1.0" encoding="UTF-8"?>
<svg id="_레이어_2" data-name="레이어 2" xmlns="http://www.w3.org/2000/svg" viewBox="0 0 107.54 100">
  <defs>
    <style>
      .cls-1 {
        fill: #fff;
        stroke-width: 0px;
      }
    </style>
  </defs>
  <g id="_레이어_1-2" data-name="레이어 1">
    <path class="cls-1" d="M31.46,38.42C20.36,25.64,10.35,14.11,0,2.19,13.65-2.34,22.02.1,28.47,9.99c4.35,6.67,7.84,14.06,17.77,17.67,6.39-8.58,12.91-17.34,19.54-26.25,8.95-.96,17.61-1.55,26.22,3.72-6.35,14.99-21.01,21.91-31.02,34.53,2.52,3.65,4.74,7.37,7.43,10.7,7.27,9.01,14.31,18.26,22.28,26.61,4.72,4.95,11.03,8.39,16.84,12.67q-2.69,9.57-14.38,10.36c-1.94-2.42-4.11-5.13-6.69-8.34-3.39-.77-7.21-1.64-11.96-2.73-7.57-11.75-15.49-24.03-24.57-38.13-8.89,13.64-16.96,26.03-25.41,39H.08c8.77-18.97,25.07-31.62,31.38-51.38Z"/>
  </g>
</svg>