<?xml version="1.0" encoding="UTF-8"?>
<svg id="_레이어_2" data-name="레이어 2" xmlns="http://www.w3.org/2000/svg" viewBox="0 0 110.11 100">
  <defs>
    <style>
      .cls-1 {
        fill: #fff;
        stroke-width: 0px;
      }
    </style>
  </defs>
  <g id="_레이어_1-2" data-name="레이어 1">
    <path class="cls-1" d="M55.81,16.05c3.45-4.99,6.41-9.39,9.53-13.69.63-.86,1.79-1.87,2.73-1.9C77.85.2,87.65.11,97.45,0c.33,0,.65.23,1.7.62-2.82,4.42-5.33,8.78-8.26,12.83-5.45,7.52-11.12,14.88-16.78,22.24-1.28,1.66-2.2,2.86-.76,5.14,10.56,16.77,20.95,33.65,31.39,50.49,1.67,2.7,3.35,5.4,5.37,8.67H0c12.45-13.74,24.71-27.29,37.18-41.05-9.97-8.53-13.47-20.59-18.85-31.53C14.13,18.88,10.12,10.25,5.83,1.26c1.18,0,2.46,0,3.73,0,11.04-.02,22.09.07,33.13-.13,2.89-.05,4.55.93,5.93,3.36,2.12,3.74,4.53,7.32,7.19,11.57Z"/>
  </g>
</svg>