<?xml version="1.0" encoding="UTF-8"?>
<svg id="_레이어_2" data-name="레이어 2" xmlns="http://www.w3.org/2000/svg" viewBox="0 0 78.47 94.08">
  <defs>
    <style>
      .cls-1 {
        fill: #fff;
        stroke-width: 0px;
      }
    </style>
  </defs>
  <g id="_레이어_1-2" data-name="레이어 1">
    <path class="cls-1" d="M0,.79C6.02.44,11.28-.14,16.5.03c1.42.05,3.13,2.17,4.08,3.72,5.69,9.35,11.13,18.85,16.79,28.21,2.5,4.13,3.58,4.05,5.94-.19,5.15-9.28,10.31-18.57,15.25-27.97,1.35-2.57,2.91-3.66,5.82-3.51,4.26.23,8.53.06,13.93.06-4.24,7.49-7.95,14.04-11.65,20.59-4.81,8.51-9.85,16.9-14.23,25.63-.9,1.8-.03,5.23,1.17,7.21,7.11,11.79,14.57,23.38,21.89,35.05.85,1.36,1.62,2.78,2.98,5.15-6.57,0-12.31.28-17.99-.19-1.43-.12-2.93-2.46-3.92-4.07-4.25-6.94-8.24-14.03-12.49-20.97-2.83-4.62-4-4.51-6.69-.02-4.61,7.69-9.25,15.37-14,22.98-.62,1-1.95,2.13-2.99,2.18-4.91.23-9.85.1-16.3.1,5.05-8.49,9.31-15.68,13.6-22.85,3.07-5.13,6.1-10.3,9.34-15.33,2.18-3.38,1.89-6.41-.15-9.73C18.31,32.06,9.85,17.96,1.37,3.88c-.41-.68-.66-1.47-1.37-3.1Z"/>
  </g>
</svg>