<?xml version="1.0" encoding="UTF-8"?>
<svg id="_레이어_2" data-name="레이어 2" xmlns="http://www.w3.org/2000/svg" viewBox="0 0 91.7 102.5">
  <defs>
    <style>
      .cls-1 {
        fill: #fff;
        stroke-width: 0px;
      }
    </style>
  </defs>
  <g id="_레이어_1-2" data-name="레이어 1">
    <path class="cls-1" d="M46.23,39.25c7.61-11.51,15.01-22.43,22.06-33.55,1.75-2.77,3.24-4.1,6.71-3.45,3.23.61,6.64.16,9.96.4,1.86.13,3.7.7,5.94,1.15-8.53,12-16.67,23.4-24.76,34.84-3.05,4.31-6.15,8.59-8.9,13.09-.76,1.24-1.08,3.74-.35,4.76,9.63,13.46,19.41,26.8,29.35,40.03,1.29,1.72,3.62,2.66,5.47,3.96-.41.6-.83,1.19-1.24,1.79-7.22,0-14.46.18-21.66-.17-1.29-.06-2.75-2.12-3.67-3.56-6.6-10.33-13.08-20.74-20.14-32-3.42,5.03-6.38,9.46-9.42,13.85-4.35,6.27-8.54,12.67-13.27,18.65-1.39,1.76-4.3,2.96-6.64,3.2-4.71.49-9.5.15-15.65.15,5.04-6.71,9.27-12.31,13.47-17.93,6.96-9.3,13.76-18.73,20.93-27.87,2.28-2.9.5-4.62-.77-6.56C23.59,34.66,13.46,19.33,3.38,3.97c-.52-.79-.85-1.69-1.52-3.05C7.39.56,12.43.08,17.47,0c.95-.01,2.13,1.43,2.85,2.45,7.52,10.63,14.97,21.32,22.45,31.98.92,1.32,1.88,2.61,3.46,4.82Z"/>
  </g>
</svg>