<?xml version="1.0" encoding="UTF-8"?>
<svg id="_레이어_2" data-name="레이어 2" xmlns="http://www.w3.org/2000/svg" viewBox="0 0 73.68 100">
  <defs>
    <style>
      .cls-1 {
        fill: #fff;
        stroke-width: 0px;
      }
    </style>
  </defs>
  <g id="_레이어_1-2" data-name="레이어 1">
    <path class="cls-1" d="M8.23,1.48c10.61,16.54,20.3,31.64,30.47,47.49,2.55-5.66,4.91-10.85,7.23-16.06,4.5-10.11,8.92-20.26,13.55-30.31.51-1.11,2.11-2.3,3.31-2.41,3.47-.32,6.98-.11,10.46-.11,1.97,9.42-3.21,17.4-6.78,25.75-5.18,12.12-10.55,24.17-15.89,36.22-.65,1.48-1.63,2.81-2.46,4.22,10.75,5.96,15.83,16.56,24.15,25.33-2.75,2.63-5.32,5.17-7.99,7.59-2.21,2.01-3.42-.1-4.41-1.48-3.8-5.31-7.42-10.74-11.14-16.1-1.52-2.19-3.14-4.31-4.96-6.79-4.84,7.05-4.72,14.82-5.66,22.5h-15.32c-.66-11.73,1.83-22.62,6.18-33.21.54-1.32.1-3.6-.74-4.86C19.62,46.33,10.91,33.52,2.07,20.79c-1.95-2.81-3.15-5.12-.7-8.34,2.35-3.09,4.15-6.58,6.85-10.97Z"/>
  </g>
</svg>