<?xml version="1.0" encoding="UTF-8"?>
<svg id="_레이어_2" data-name="레이어 2" xmlns="http://www.w3.org/2000/svg" viewBox="0 0 100.1 100">
  <defs>
    <style>
      .cls-1 {
        fill: #fff;
        stroke-width: 0px;
      }
    </style>
  </defs>
  <g id="_레이어_1-2" data-name="레이어 1">
    <path class="cls-1" d="M67.59,14.36c-.18-.02-.63-.07-1.36-.15.29-4.71.58-9.33.89-14.21h30.75v1.93c-4.98,2.21-6.93,6.96-9.24,11.22-6.13,11.34-11.86,22.9-17.97,34.25-2.33,4.33-5.25,8.34-7.9,12.49-.2-.05-.39-.1-.59-.15.32.85.53,1.76.99,2.54,5.43,9.28,11.48,18.13,19.42,25.48,2.78,2.57,5.87,4.91,9.14,6.79,2.35,1.34,5.24,1.73,8.17,2.63.03.34.1,1.05.21,2.18-1.99.21-3.87.58-5.75.59-10.51.06-21.01.03-31.52.03-13.85,0-27.7,0-41.55,0-2.19,0-4.37,0-6.74,0v-3.69c.5-.16.92-.37,1.36-.43,6.04-.81,10.97-3.77,15.09-8.08,5.83-6.11,10.71-12.94,15.08-20.79-2.38-3.66-4.84-7.52-7.38-11.33-8.06-12.05-16.18-24.07-24.23-36.14-1.37-2.05-2.48-4.27-3.74-6.4-1.96-3.3-4.62-5.5-8.68-5.56-.65,0-1.29-.25-2.05-.4V.29h47.42c.09.73.17,1.24.21,1.75.03.46,0,.92,0,1.57-.7.14-1.32.33-1.95.38-.8.07-1.62-.05-2.4.08-4.15.72-5.72,1.69-3.66,6.06,2.25,4.77,4.6,9.5,6.85,14.27,1.65,3.5,3.17,7.07,4.8,10.58.76,1.63,1.67,3.19,2.48,4.81,1.39,2.79,2.73,5.61,4.15,8.39.69,1.37,1.43,2.72,2.27,4,1.17,1.76,2.05,1.78,3.39.1.62-.78,1.16-1.65,1.57-2.55,5.46-11.85,10.26-23.94,12.93-36.77.22-1.04.36-2.12.38-3.18.07-2.88-.83-4.01-3.58-4.73-2.21-.58-3.51-.12-4.44,1.96-1.03,2.29-1.81,4.69-2.83,7.36ZM66.32,93.08c-2.83-3.49-5.49-6.7-8.08-9.97-1.48-1.87-2.83-3.84-4.47-6.08-2.52,3.95-4.53,7.47-5.28,11.5-.48,2.56,1.5,4.69,4.14,4.77,3.74.11,7.48.19,11.23.2.88,0,1.76-.3,2.46-.43Z"/>
  </g>
</svg>