<?xml version="1.0" encoding="UTF-8"?>
<svg id="_레이어_2" data-name="레이어 2" xmlns="http://www.w3.org/2000/svg" viewBox="0 0 88.07 100">
  <defs>
    <style>
      .cls-1 {
        fill: #fff;
        stroke-width: 0px;
      }
    </style>
  </defs>
  <g id="_레이어_1-2" data-name="레이어 1">
    <path class="cls-1" d="M43.41,81.2c-2.56,4.55-5.42,8.96-7.6,13.68-1.96,4.23-4.43,5.77-9.22,4.87-6.75-1.27-13.65-1.71-21.03-2.56.53-1.09,1.02-2.24,1.63-3.33,4.66-8.41,9.24-16.87,14.07-25.18,2.1-3.61,4.58-7.04,7.15-10.33,2.67-3.41,2.93-6.26.43-10.19C19.84,33.98,11.28,19.54,2.59,5.18,1.77,3.82,1.16,2.33,0,0h32.95c3.5,9.44,7.14,19.23,10.77,29.02.33.07.66.14.99.22,2.76-8.18,5.52-16.37,8.3-24.64,8.01.42,16.12.85,24.74,1.3-1,1.79-1.94,3.37-2.77,5-5.81,11.31-11.6,22.62-17.39,33.94-1.05,2.05-.86,3.67.5,5.89,7.24,11.8,14.92,23.21,24.25,33.52,2.58,2.86,3.86,6.89,5.74,10.39-.28.48-.56.96-.84,1.43-10.4,0-20.81.15-31.2-.17-1.44-.04-3.11-2.2-4.16-3.73-2.41-3.52-4.51-7.26-6.73-10.91-.58-.01-1.16-.03-1.74-.04Z"/>
  </g>
</svg>