<?xml version="1.0" encoding="UTF-8"?>
<svg id="_레이어_2" data-name="레이어 2" xmlns="http://www.w3.org/2000/svg" viewBox="0 0 82.98 100">
  <defs>
    <style>
      .cls-1 {
        fill: #fff;
        stroke-width: 0px;
      }
    </style>
  </defs>
  <g id="_레이어_1-2" data-name="레이어 1">
    <path class="cls-1" d="M0,96.87c2.63-4.28,4.82-8.02,7.19-11.64,6.04-9.25,12.13-18.46,18.26-27.65,2.12-3.18,4.34-6.3,6.65-9.36,1.3-1.72,1.65-3.32.53-5.25-2.24-3.86-4.34-7.8-6.63-11.63C19.9,21.16,13.74,11,7.31.35h20.03c5.94,9.59,11.92,19.25,18.33,29.59,3.25-5.13,5.91-9.44,8.67-13.68,2.44-3.73,5-7.38,7.49-11.07.35-.52.88-1.09.89-1.64C62.77,0,65.01-.08,67.7.02c4.23.15,8.46.04,13.28.04-.82,1.64-1.46,3.15-2.29,4.54-4.31,7.21-8.62,14.42-13.01,21.58-3.55,5.79-7.19,11.52-10.88,17.22-1.04,1.61-1.12,2.85-.12,4.6,7.69,13.46,15.23,27,22.86,40.49.99,1.75,2.33,3.32,3.26,5.1.84,1.61,1.34,3.4,2.18,5.6-1.9.09-3.03.15-4.17.2-4.78.19-9.56.37-14.34.57-1.35.06-2.34.23-3.23-1.54-5.25-10.41-10.78-20.69-16.22-31.01-.48-.92-1.01-1.81-1.77-3.18-1.07,1.62-1.91,2.8-2.66,4.04-5.2,8.63-10.39,17.27-15.58,25.91-1.31,2.18-2.64,3.24-5.78,2.89-6.09-.67-12.31-.2-19.23-.2Z"/>
  </g>
</svg>