<?xml version="1.0" encoding="UTF-8"?>
<svg id="_레이어_2" data-name="레이어 2" xmlns="http://www.w3.org/2000/svg" viewBox="0 0 70.63 87.99">
  <defs>
    <style>
      .cls-1 {
        fill: #fff;
        stroke-width: 0px;
      }
    </style>
  </defs>
  <g id="_레이어_1-2" data-name="레이어 1">
    <path class="cls-1" d="M70.63,87.51c-5.98,0-10.79.32-15.51-.18-1.59-.17-3.37-2.15-4.36-3.74-4.89-7.91-9.55-15.98-14.72-24.71-1.41,1.83-2.59,3.19-3.58,4.67-4.2,6.33-8.5,12.61-12.43,19.1-2.42,3.99-5.33,5.92-10.13,5.19-2.85-.44-5.83-.08-9.9-.08,1.23-2.52,1.84-4.19,2.79-5.66,7.11-11.03,14.15-22.11,21.51-32.97,1.99-2.93,1.83-5.03.13-7.89C17.55,29.66,10.88,17.97,4.16,6.31,3.24,4.71,2.44,3.05.88.07,6.56.07,11.15-.17,15.69.22c1.31.11,2.82,1.82,3.65,3.16,5.4,8.81,10.65,17.72,16.45,27.46,3.8-6.69,7.18-13.03,10.92-19.13C53.65.41,53.74.47,68.05,3.01c-.85,1.93-1.48,3.8-2.44,5.47-6.18,10.79-12.27,21.62-18.75,32.23-1.76,2.88-1.51,4.83.12,7.45,6.84,10.99,13.53,22.08,20.24,33.14.97,1.6,1.81,3.29,3.4,6.2Z"/>
  </g>
</svg>