<?xml version="1.0" encoding="UTF-8"?>
<svg id="_레이어_2" data-name="레이어 2" xmlns="http://www.w3.org/2000/svg" viewBox="0 0 73.33 100">
  <defs>
    <style>
      .cls-1 {
        fill: #fff;
        stroke-width: 0px;
      }
    </style>
  </defs>
  <g id="_레이어_1-2" data-name="레이어 1">
    <g>
      <path class="cls-1" d="M49.24,40.55c-2.79-7.89-4.71-16.26-8.62-23.55-4.14-7.73-11.23-12.8-20.81-11.35-2.34.35-5.51,2.36-6.33,4.4-3.32,8.23-4.48,16.75-2.45,25.75,1.18,5.23.82,10.82,1.05,16.25.51,11.91.97,23.82,1.41,34.88,3.25,2.36,5.95,4.32,8.65,6.28,3.87,2.81,14.1.92,18.23-1.61,4.6-2.83,6.91-6.2,6.43-11.25-.19-1.96-1.39-4.43-2.93-5.55-7.89-5.75-16.07-11.1-24.05-16.72-.8-.56-1.57-2.25-1.3-3.07,1.27-3.85,2.25-8.14,4.76-11.04.93-1.08,6.35.41,8.71,2.13,8.06,5.84,16.3,11.67,23.31,18.66,9.99,9.95,7.14,24.3-5.33,30.72-11.08,5.7-22.52,6.65-32.96-.71-7.75-5.47-12.12-14.16-14.22-23.23C-1.46,53.2-1.22,34.86,6.06,17.17,12.94.45,25.72-3.22,41.2,2.55c4.6,1.72,7.88,7.52,11.26,11.84,3.48,4.45,5.76,9.96,9.69,13.88,2.38,2.37,6.9,2.57,11,3.92.73,2.85-.79,4.63-4.25,4.86-2.98.19-6.04-.24-8.95.28-3.67.67-7.22,2.03-10.82,3.1,0,0,.11.12.11.12Z"/>
      <path class="cls-1" d="M49.13,40.43c.33,1.32.66,2.65,1.07,4.32-1.49.67-2.98,1.35-5.15,2.33-.24-3.73-.44-6.97-.67-10.55,2.06,1.7,3.46,2.86,4.86,4.02,0,0-.11-.12-.11-.12Z"/>
    </g>
  </g>
</svg>