<?xml version="1.0" encoding="UTF-8"?>
<svg id="_레이어_2" data-name="레이어 2" xmlns="http://www.w3.org/2000/svg" viewBox="0 0 221.11 100">
  <defs>
    <style>
      .cls-1 {
        fill: #fff;
        stroke-width: 0px;
      }
    </style>
  </defs>
  <g id="_레이어_1-2" data-name="레이어 1">
    <g>
      <path class="cls-1" d="M0,3.66h14.44c0,2.96,0,5.82,0,8.68-.05,20.08-.12,40.16-.16,60.24,0,1.8.05,3.61.25,5.39.7,6.39,2.96,8.8,8.18,8.86,6.66.08,11.07-3.24,11.42-9.34.36-6.35.22-12.74,0-19.1-.13-3.74-5.91-7.9-9.79-7.55-1.49.14-3.01.02-4.82.02v-9.77h200.07c.22.25.49.43.54.65,1.91,9.97,1.91,10.01-8.13,9.94-3.04-.02-158.91-.17-161.93-.51-2.46-.28-3.07.59-3.06,2.98.03,8.16-.15,16.32-.32,24.47-.26,12.84-8.61,21.17-21.42,21.31-3.3.04-6.73.28-9.89-.48C6.34,97.29.23,88.82.17,78.74.05,59.08.05,39.42,0,19.77c-.01-5.24,0-10.48,0-16.11Z"/>
      <path class="cls-1" d="M35.81.76c.74-.31.98-.48,1.22-.5q9.66-.68,9.66,8.96v23.18h-10.88V.76Z"/>
      <path class="cls-1" d="M68.11,6.3c3.16-.48,5.56-.85,8.52-1.31,0,3.23.07,6.08-.02,8.92-.06,2,.92,4.69-2.86,4.53-3.04-.13-5.99-.24-6.03-4.32-.02-2.57.24-5.13.39-7.83Z"/>
      <path class="cls-1" d="M65.66,16.6c-5.8,0-6.81-2.35-4.6-10.34h4.6v10.34Z"/>
    </g>
  </g>
</svg>