<?xml version="1.0" encoding="UTF-8"?>
<svg id="_레이어_2" data-name="레이어 2" xmlns="http://www.w3.org/2000/svg" viewBox="0 0 107.32 100">
  <defs>
    <style>
      .cls-1 {
        fill: #fff;
        stroke-width: 0px;
      }
    </style>
  </defs>
  <g id="_레이어_1-2" data-name="레이어 1">
    <g>
      <path class="cls-1" d="M66.93,6.08c.79-1.6,1.6-2.95,2.14-4.41.42-1.13.82-1.96,2.49-1.57v7.9c11.57-4.89,23.37-4.86,35.49-4.72.09,1.46.17,2.84.26,4.36-1.86,0-3.54.08-5.22-.01-7.59-.41-15.18-.66-22.26,2.79-2.35,1.15-4.63,2.53-6.7,4.12-.79.6-1.18,2.08-1.26,3.19-.28,4.16-.36,8.33-.53,12.5-.02.49-.2.97-.78,1.46-.17-.49-.54-1-.48-1.46.61-4.61-1.23-8.84-2.32-13.1-1.07-4.18-4.51-6.75-8.44-8.54-9.79-4.46-18.47.89-22.55,7.74-3.43,5.75-5.15,11.95-6.36,18.45-2.21,11.87-.98,23.63.96,35.31,1.12,6.76,3.95,13.08,8.02,18.73,2.51,3.48,6.22,5.38,9.79,7.45.61.35,1.25.65,2.03,1.05-.27.86-.52,1.64-.77,2.4-.44.09-.71.21-.98.2-9.78-.39-19.19-2.21-28.1-6.53C8.52,87.14,2.47,76.35.64,62.81c-1.17-8.69-.87-17.4,2-25.8C8.87,18.81,21.75,7.36,39.79,1.75c7.29-2.27,14.84-1.82,21.89,1.76,1.52.77,3.06,1.5,5.25,2.58Z"/>
      <path class="cls-1" d="M90.44,96.92c-4.73,1.45-9.7,3.44-15.22,3.02-.14-.76-.28-1.47-.41-2.19,3.62-.72,4.78-3.6,5.06-6.56.88-9.17,1.06-18.39-.3-27.53-.46-3.07-2.52-5.48-5.77-6.17-2.35-.49-4.79-.6-7.19-.8-1.27-.1-2.55-.02-4.02-.02v-3.22h42.98c-.05,1.06-.1,2.03-.16,3.17-.9.2-1.7.5-2.53.55-6.77.42-10.44,3.93-11.41,10.98-.63,4.58-.83,9.22-.99,13.85-.16,4.83-.04,9.67-.04,14.92Z"/>
    </g>
  </g>
</svg>