<?xml version="1.0" encoding="UTF-8"?>
<svg id="_레이어_2" data-name="레이어 2" xmlns="http://www.w3.org/2000/svg" viewBox="0 0 88.84 100">
  <defs>
    <style>
      .cls-1 {
        fill: #fff;
        stroke-width: 0px;
      }
    </style>
  </defs>
  <g id="_레이어_1-2" data-name="레이어 1">
    <path class="cls-1" d="M71.15,71.21h-22.62c0-.29,0-.57.01-.86h29.16c-.12,1.35-.07,2.98-.45,4.49-1.04,4.05-2.13,8.1-3.45,12.07-1.96,5.89-6.52,9.07-12.14,10.97-7.05,2.39-14.21,2.44-21.58,1.66-8.8-.94-16.58-4.36-23.85-8.95-4.14-2.62-7.16-6.64-9.78-10.85-4.15-6.65-5.44-14.04-6.17-21.69-.86-8.94.4-17.49,3.56-25.81,3.26-8.57,8.9-15.32,16.21-20.74,6.32-4.68,13.13-8.63,20.88-10.06,9.07-1.67,18.31-2.95,26.95,2.22,3.08,1.84,6.32,3.42,9.74,5.25.12-1.41.21-2.52.33-3.99,2.53-.23,5.05-.45,7.89-.71,0,3.15,0,5.91,0,8.67,0,1.74-.05,3.5.1,5.23.2,2.28.98,4.34,2.9,5.94-1.6-.11-3.21-.22-4.89-.33-1.58-2.04-3.12-4.19-4.82-6.2-4.8-5.68-10.47-10.12-17.77-12.18-6.13-1.73-11.56-.44-16.31,3.74-4.97,4.37-8.24,9.87-10.41,16.06-5.83,16.64-6.23,33.7-3.76,50.95.34,2.34,1.1,4.64,1.88,6.89,2.29,6.63,7.57,9.36,14.04,10.16,5.45.67,10.67-.29,15.47-3.14,4.17-2.48,6.86-6.04,7.83-10.78.5-2.42.67-4.91,1.08-8.01Z"/>
  </g>
</svg>