<?xml version="1.0" encoding="UTF-8"?>
<svg id="_레이어_2" data-name="레이어 2" xmlns="http://www.w3.org/2000/svg" viewBox="0 0 99.1 100">
  <defs>
    <style>
      .cls-1 {
        fill: #fff;
        stroke-width: 0px;
      }
    </style>
  </defs>
  <g id="_레이어_1-2" data-name="레이어 1">
    <path class="cls-1" d="M70.47,42.7c0-1.19.01-1.92,0-2.66-.06-3.13-.13-6.27-.21-9.4,0-.18-.1-.37-.18-.55-2.48-6.14-4.73-12.37-8.91-17.67-4.63-5.87-10.61-8.22-17.97-7.06-3.02.47-5.36,2.1-7.29,4.43-2.89,3.5-4.71,7.51-6.17,11.78-3.47,10.14-4.71,20.73-5.52,31.26-.86,11.36.78,22.62,5.23,33.26,1.28,3.05,3.61,5.35,6.71,6.72,8.36,3.7,16.48,2.79,23.68-2.47,4.25-3.11,7.2-7.7,8.63-13.01.77-2.86,1.61-5.69,2.44-8.6,2.87-.36,5,1.17,7.3,2.07,2.57,1.01,5.09,2.14,7.64,3.2,1.89.78,3.69.44,4.98-1.04,1.85-2.13,3.53-4.43,5.16-6.74.71-1,1.3-1.78,3.11-.84-1.06,7.95-2.14,16.05-3.28,24.66-4.56,0-9.27-.08-13.97.05-1.32.04-2.83.43-3.91,1.16-5.91,3.98-12.08,7.3-19.31,8.04-9.31.94-18.61,1.33-27.71-1.49-1.34-.42-2.64-1.08-3.84-1.83-6.26-3.89-12.04-8.37-16.08-14.64-2.43-3.78-4.95-7.64-6.52-11.81-1.82-4.84-3-10.01-3.78-15.14-.96-6.34-.99-12.84.27-19.13C3.28,23.77,8.11,13.74,18.44,7.06,25.79,2.31,33.75-.05,42.45,0c5.3.03,10.62.02,15.9.41,7.28.53,13.95,3.16,20.53,6.29,6.39,3.04,11,7.98,15.56,13.06.36.4.61,1.32.39,1.72-.9,1.67-2,3.22-3.01,4.83-.26.41-.53.84-.68,1.3-.43,1.34-.8,2.69-1.21,4.1-.56-.06-1.04.05-1.27-.15-3-2.56-5.57-.46-7.63,1.19-3.29,2.65-6.12,5.88-9.15,8.86-.3.29-.66.51-1.41,1.09Z"/>
  </g>
</svg>