<?xml version="1.0" encoding="UTF-8"?>
<svg id="_레이어_2" data-name="레이어 2" xmlns="http://www.w3.org/2000/svg" viewBox="0 0 100.56 100">
  <defs>
    <style>
      .cls-1 {
        fill: #fff;
        stroke-width: 0px;
      }
    </style>
  </defs>
  <g id="_레이어_1-2" data-name="레이어 1">
    <path class="cls-1" d="M85.81,13.28c-6.31,7.54-12.56,14.99-18.58,22.17-3.61-1.63-7.18-3.78-11.06-4.92-13.47-3.93-22.36,6.86-22.9,17.48-.86,17.01,14.67,25.75,30.04,21.18.94-.28,1.98-2.07,2.03-3.19.22-4.84.1-9.69.1-14.5h34.73c.89,5.36.18,10.71-1.19,15.97-4.43,17.05-15.53,27.7-32.55,31.19-9.86,2.02-20.32,1.9-29.98-1.34-6.18-2.08-11.96-5.91-17.31-9.81C8.04,79.41,1.08,68.57.14,54.51c-.52-7.84.29-15.58,4.02-22.64,4.57-8.63,9.58-17.13,17.99-22.57,20.69-13.39,43.09-12.21,62.66,2.82.36.28.62.7,1,1.16Z"/>
  </g>
</svg>