<?xml version="1.0" encoding="UTF-8"?>
<svg id="_레이어_2" data-name="레이어 2" xmlns="http://www.w3.org/2000/svg" viewBox="0 0 99.4 100">
  <defs>
    <style>
      .cls-1 {
        fill: #fff;
        stroke-width: 0px;
      }
    </style>
  </defs>
  <g id="_레이어_1-2" data-name="레이어 1">
    <path class="cls-1" d="M73.08,32.22c-4.67-3.53-8.49-6.63-12.52-9.43-6.95-4.82-14.04-4.76-20.65.43-11.08,8.69-15.77,20.03-13.02,34.04,1.92,9.78,9.69,12.91,18,15.04,5.62,1.44,11.3,1.81,16-2.74,1.62-1.57,3.03-3.32,1.49-5.62-1.46-2.19-2.86-3.97-6.35-2.94-3.21.95-6.88.88-10.26.51-2.54-.27-4.29-2.47-4-5.21.54-5.23,1.36-10.44,2.2-15.63.43-2.62,2.22-3.97,4.85-3.78,5.47.39,10.91,1.12,16.38,1.39,10.05.49,20.11.83,30.17,1.03,1.95.04,3.33-.47,3.35,2.39.13,15.91.44,31.81.69,47.71,0,.48-.08.97-.11,1.26-7.13,1.04-14.07,2.07-21.01,3.06-.74.11-1.89.35-2.2-.02-2.84-3.34-4.95-.5-7.35.66-17.17,8.27-33.81,7.67-49.62-3.4-8.12-5.68-12.54-14.1-15.45-23.21C.1,56.67-1.18,45.12,1.24,33.73c1.88-8.84,6.96-16.44,13.98-22.3C29.77-.71,46.38-2.5,64,2.87c8.25,2.52,14.41,8.16,19.27,15.17.51.74.57,2.52.04,3.12-3.28,3.79-6.79,7.39-10.23,11.06Z"/>
  </g>
</svg>