<?xml version="1.0" encoding="UTF-8"?>
<svg id="_레이어_2" data-name="레이어 2" xmlns="http://www.w3.org/2000/svg" viewBox="0 0 59.76 100">
  <defs>
    <style>
      .cls-1 {
        fill: #fff;
        stroke-width: 0px;
      }
    </style>
  </defs>
  <g id="_레이어_1-2" data-name="레이어 1">
    <g>
      <path class="cls-1" d="M43.55,52.06h16.11c.04.88.11,1.7.11,2.52-.01,8.77-.03,17.53-.08,26.3,0,.65-.12,1.4-.44,1.95-4.63,7.74-11.2,13.13-19.82,15.84-4.43,1.39-8.98,1.84-13.59.7-6.13-1.51-10.94-4.97-14.98-9.73-3.63-4.28-5.82-9.27-7.48-14.53-1.7-5.4-2.96-10.9-3.26-16.58-.03-.63-.06-1.25-.11-2.05.47.14.83.17,1.1.34,3.29,2.1,6.75,3.98,9.77,6.42,1.77,1.43,2.91,3.69,4.21,5.66,2.65,4.01,5.24,8.05,9.09,11.1,5.02,3.97,13.15,4.37,16.86-2.93,1.46-2.87,2.48-5.79,2.45-9.07-.04-4.75.04-9.5.07-14.26,0-.52,0-1.03,0-1.68Z"/>
      <path class="cls-1" d="M58.68,28.22c-1.82-.97-3.49-1.85-5.14-2.75-4.36-2.37-8.97-3.99-13.95-4.36-8.14-.6-14.72,2.06-19.09,9.26-.79,1.31-1.68,2.18-3.44,2.48-6.24,1.06-10.52,5.02-13.84,10.17-.88,1.37-1.73,2.75-2.81,4.47-.1-.72-.19-1.08-.2-1.44-.33-10.78,2.9-20.48,8.93-29.32,3.02-4.42,6.4-8.53,10.68-11.82C23.4,2.18,27.46.74,31.9.22c8.15-.95,15.47,1.17,22.13,5.84,1.25.88,2.62,1.63,3.73,2.66.71.65,1.5,1.7,1.51,2.57.01,5.33-.19,10.66-.33,15.99,0,.2-.11.4-.26.94Z"/>
    </g>
  </g>
</svg>