<?xml version="1.0" encoding="UTF-8"?>
<svg id="_레이어_2" data-name="레이어 2" xmlns="http://www.w3.org/2000/svg" viewBox="0 0 98.06 100">
  <defs>
    <style>
      .cls-1 {
        fill: #fff;
        stroke-width: 0px;
      }
    </style>
  </defs>
  <g id="_레이어_1-2" data-name="레이어 1">
    <g>
      <path class="cls-1" d="M83.34,66.01c-6.23,0-12.34-.17-18.43.07-3.01.12-6,1.48-8.97,1.4-2.94-.09-5.84-1.29-8.98-2.06-1.56-3.93-4.39-8.18.4-12.27,10.17,0,20.36-.28,30.52.16,3.34.14,5.86-1.74,8.98-1.88,1.82-.08,2.45-1.95,3.31-3.72,1.47-3.03,2.72-6.85,7.51-7.69.9,7.96.35,15.42-2.82,22.69-1.88,4.3-3,8.94-4.93,13.22-4.82,10.74-13.13,17.78-24.2,21.54-13,4.41-25.75,2.79-37.85-2.91-6.95-3.27-12.41-8.74-16.94-15.09C4.32,70.23-.14,60.2,0,48.68c.09-6.98,4.9-20.84,10.88-28.45,5.65-7.19,12.43-12.73,20.39-16.65C35.41,1.53,40.14-.02,45.07.07c3.48.06,6.98-.23,10.44.05,13.22,1.08,25.23,5.01,34.52,15.4-2.62,1.82-5.13,3.57-8.19,5.7-1.95-1.32-4.09-3.11-6.51-4.34-3.08-1.56-6.3-3.1-9.64-3.83-3.93-.85-7.9-1.41-11.62-3.03-.45-.2-1-.34-1.48-.28-11.06,1.48-22.34,1.7-28.93,13.66-3.02,5.48-6.06,10.81-8.43,16.63-.99,2.42-.57,4.6-.82,6.88-1.13,10.17,2.24,18.91,7.85,27.31,2.5,3.74,6.14,5.73,9.44,7.59,4.4,2.48,8.85,6.31,14.72,5.1,3.53,2.33,7.4,2.21,11.13.99,6.05-1.98,11.87-4.41,16.14-9.57,3.23-3.91,7.9-6.65,9.65-12.32Z"/>
      <path class="cls-1" d="M65.45,79.13c-3.96-.77-5.01-2.87-4.1-6.43h4.1v6.43Z"/>
    </g>
  </g>
</svg>