<?xml version="1.0" encoding="UTF-8"?>
<svg id="_레이어_2" data-name="레이어 2" xmlns="http://www.w3.org/2000/svg" viewBox="0 0 98.14 100">
  <defs>
    <style>
      .cls-1 {
        fill: #fff;
        stroke-width: 0px;
      }
    </style>
  </defs>
  <g id="_레이어_1-2" data-name="레이어 1">
    <g>
      <path class="cls-1" d="M58.93,56.29v-15.1c3.69-.06,7.44-.14,11.18-.16,3.81-.03,7.62,0,11.68,0v49.14c-7.72,3.06-15.41,7-23.58,9.06-5.84,1.48-12.32.37-18.51.54-4.92.14-9.19-1.47-13.77-3.3-7.44-2.98-12.21-8.5-16.77-14.33C2.1,73.1-.95,62.58.26,51.18c1.79-16.78,7.25-31.99,21.11-42.81C28.11,3.11,35.83-.03,44.61.07c3.86.05,7.72.2,11.56-.04,5.01-.32,9.34,1.77,13.62,3.7,4.66,2.11,4.58,7.8-.02,10.53-1.61.96-3.6,1.6-5.46,1.76-3.24.28-6.52.14-9.78.07-8.89-.2-16.06,3.58-23.14,8.68-16.42,11.82-14.56,38.67-1.4,50.51,1.32,1.19,2.54,2.49,3.78,3.77,3.12,3.23,6.77,5.11,11.41,4.71,1.47-.13,2.98-.17,4.44,0,3.62.43,7.23-.53,9.31-3.04,1.98-2.38,2.77-5.96,3.45-9.15.54-2.56-.15-5.35.17-7.98.43-3.41-1.18-5.56-3.62-7.3Z"/>
      <path class="cls-1" d="M98.08,88.9h-3.26v-38.9c2.98,2.89,3.37,6.14,3.31,9.76-.16,9.66-.06,19.32-.06,29.14Z"/>
    </g>
  </g>
</svg>