<?xml version="1.0" encoding="UTF-8"?>
<svg id="_레이어_2" data-name="레이어 2" xmlns="http://www.w3.org/2000/svg" viewBox="0 0 93.66 100">
  <defs>
    <style>
      .cls-1 {
        fill: #fff;
        stroke-width: 0px;
      }
    </style>
  </defs>
  <g id="_레이어_1-2" data-name="레이어 1">
    <g>
      <path class="cls-1" d="M85.51,2.28c2.15,2.72,3.76,5.37,5.95,7.38,2.89,2.65,2.41,5.88,1.5,8.64-.98,2.98-4.1,3.07-7.11,3.07-6.88-.02-13.29-3.51-20.37-2.26-11.28,1.98-22.64,3.9-30.67,13.04-8.18,9.3-12.24,19.56-7.5,32.38,4.7,12.72,11.34,22.48,21.51,28.18-6.05,2.08-12.62,1.65-18.27,4.99-1.35.8-3.79.58-5.73-1.27C14.39,86.5,4.47,76.38.77,61.72c-.96-3.79-1.14-7.01.12-10.81,5.03-15.16,13.44-28.44,25.87-37.91C36.33,5.72,47.41-.75,60.56.07c8.54.53,17.06,1.5,24.95,2.21Z"/>
      <path class="cls-1" d="M93.39,99.97c-5.62,0-10.52-.08-15.42.03-3.92.08-5.02-1.98-5.99-5.55-2.58-9.54-2.08-19.2-1.91-28.84.11-6.23,3.13-8.99,9.71-10.33,3.52-.72,6.98-1.78,10.6-2.72,1.08,8.24,2.45,15.59,2.91,22.99.49,7.74.11,15.54.11,24.42ZM75.08,60.59q-.41,5.16,2.8,4.49c-.66-1.05-1.47-2.36-2.8-4.49Z"/>
    </g>
  </g>
</svg>