<?xml version="1.0" encoding="UTF-8"?>
<svg id="_레이어_2" data-name="레이어 2" xmlns="http://www.w3.org/2000/svg" viewBox="0 0 99.92 100">
  <defs>
    <style>
      .cls-1 {
        fill: #fff;
        stroke-width: 0px;
      }
    </style>
  </defs>
  <g id="_레이어_1-2" data-name="레이어 1">
    <path class="cls-1" d="M66.25,1.08c-21.43,28.19-20.47,60.39-18.56,93.77,11.2-1.42,21.26-1.79,31.83-5.18,10.62-3.41,9.26-9.42,9.62-16.34.3-5.83.06-11.69.06-17.93-4.28.42-7.37.72-10.81,1.06-.76-3.59-1.45-6.85-2.12-10.05,7.78-2.41,15.28-4.73,23.22-7.19.15.93.5,1.97.45,2.98-.71,17.34-1.59,34.68-2.15,52.03-.14,4.5-1.95,5.83-6.23,5.76-29.46-.47-58.92-.77-88.38-1.14-.88-.01-1.75-.27-3.16-1.99,1.6-.69,3.18-1.92,4.81-1.97,5.25-.18,10.51,0,15.76.18,7.72.27,9.78-1.31,10.23-9.13.63-10.94.5-21.94,1.5-32.84.74-8.13,2.72-16.15,4.25-24.2.25-1.31.73-2.77,1.59-3.73,7.09-7.98,14.21-15.94,21.56-23.68,1.08-1.13,3.46-1.02,5.24-1.49.43.36.87.72,1.3,1.08Z"/>
  </g>
</svg>