<?xml version="1.0" encoding="UTF-8"?>
<svg id="_레이어_2" data-name="레이어 2" xmlns="http://www.w3.org/2000/svg" viewBox="0 0 73.23 100">
  <defs>
    <style>
      .cls-1 {
        fill: #fff;
        stroke-width: 0px;
      }
    </style>
  </defs>
  <g id="_레이어_1-2" data-name="레이어 1">
    <path class="cls-1" d="M69.6,17.05c-8.3,2.09-15-.7-21.72-3.43-14.59-5.92-24.05-2-32.32,11.29-1.46,2.34-2.91,4.69-4.18,7.13-5.67,10.87-6.07,21.66-.36,32.83,3.33,6.51,5.89,13.34,11.32,18.58,5.54,5.35,10.22,7.51,17.93,7.56,7.02.05,14.03.02,21.05,0,.71,0,1.42-.13,3.02-.28,0-6.06.12-12.23-.05-18.39-.09-3.52-1.79-6.26-5.05-7.94-3.29-1.7-4.63-4.34-3.5-8.02,4.93-4.02,10.78-2.95,17.46-3.06,0,13.22.13,26.38-.17,39.54-.04,1.63-2.06,4.11-3.68,4.64-3.95,1.29-8.17,2.04-12.32,2.3-5.89.37-11.81.11-17.72.09-12.19-.05-17.63-3.86-26.18-14.23-5.27-6.39-9.38-12.81-11.81-20.7-.63-2.06-1.21-4.02-1.25-6.09-.11-5.91-.06-11.82-.03-17.72C.11,26.92,9.39,9.9,21.22,2.37c.83-.53,2.01-.49,2.94-.91,5.17-2.3,23.32-1.8,28.44.88,6.54,3.43,12.97,7,17.01,14.7Z"/>
  </g>
</svg>