<?xml version="1.0" encoding="UTF-8"?>
<svg id="_레이어_2" data-name="레이어 2" xmlns="http://www.w3.org/2000/svg" viewBox="0 0 87.7 100">
  <defs>
    <style>
      .cls-1 {
        fill: #fff;
        stroke-width: 0px;
      }
    </style>
  </defs>
  <g id="_레이어_1-2" data-name="레이어 1">
    <path class="cls-1" d="M87.67,34.76c-5.17,1.85-7.16-1.75-9.4-4.27-1.94-2.17-2.77-5.47-4.93-7.26-3.86-3.2-7.8-6.61-12.71-8.16-3.79-1.2-7.72-2.29-11.66-2.65-6.1-.56-11.49,2.24-16.77,4.86-1.88.93-3.34,2.71-5.2,3.71-6.83,3.66-8.85,10.18-10.87,16.95-1.41,4.75-1.43,9.5-1.2,14.27.31,6.16,2,11.76,4.99,17.46,2.8,5.34,6.67,8.89,11.25,11.93,3.09,2.05,6.73,3.46,10.68,3.4,3.36-.06,6.74.13,10.09-.04,6.75-.35,12.57-2.67,16.54-8.5,2.24-3.29,4.48-6.57,6.78-9.94-8.34-1.96-15.77,2.26-23.68,3.87-.49-3.53-1.44-6.09-4.54-7.93-3.19-1.9-3.42-3.18-3.99-6.87,2.41-.07,4.79-.18,7.16-.19,5.83-.03,11.66.03,17.49-.02,6.74-.06,12.1,2.75,16.2,7.92,1.12,1.41,1.82,3.32,2.21,5.1.4,1.85-.27,3.88,1.35,5.55.4.41.25,2-.22,2.47-2.61,2.65-3.04,6.51-5.24,9.28-2.56,3.23-6.11,5.3-9.65,7.44-9.17,5.52-19.11,7.79-29.53,6.52-11.11-1.35-21.14-5.61-29.24-13.84-5.18-5.27-9.47-10.96-11.36-18.19-.96-3.69-2.48-7.25-2.2-11.22.19-2.68.14-5.38.02-8.07-.47-10.41,3.25-19.4,8.75-28.02C15.5,9.8,25.91,4.74,36.89.59c2.75-1.04,6.19-.08,9.26-.43,5.76-.67,11.22.86,16.31,2.92,4.07,1.64,8.16,4.12,10.83,7.87,4.78,6.71,9.29,13.62,13.8,20.52.53.81.38,2.07.58,3.3Z"/>
  </g>
</svg>