<?xml version="1.0" encoding="UTF-8"?>
<svg id="_레이어_2" data-name="레이어 2" xmlns="http://www.w3.org/2000/svg" viewBox="0 0 42.51 100">
  <defs>
    <style>
      .cls-1 {
        fill: #fff;
        stroke-width: 0px;
      }
    </style>
  </defs>
  <g id="_레이어_1-2" data-name="레이어 1">
    <g>
      <path class="cls-1" d="M28.92,25.83c-.2-1.94-.45-3.02-.4-4.1.14-3.24-1.36-4.63-4.56-4.67-3.05-.04-5.53.55-5.63,4.19-.06,1.87.44,3.75.45,5.62.01,1.81-.28,3.62-.52,6.42.2.55,1.35,2.24,1.29,3.88-.38,10.45-1.02,20.88-1.61,31.32-.23,4.21-.59,8.39,4.27,10.61.69.31,1.37,1.49,1.38,2.27.08,5.25.08,10.52-.17,15.76-.04.87-1.3,2.22-2.2,2.43-6.43,1.47-12.36-1.11-18.04-3.37-1.78-.71-3.11-4.77-3.13-7.3-.14-23.26.05-46.51.15-69.77.02-4.62-.15-9.26.27-13.84.12-1.29,1.89-3.3,3.1-3.46C10.51.92,17.5.17,24.49,0c3.14-.08,6.55.82,9.43,2.15,5.82,2.69,5.32,8.13,4.58,13.26-.76,5.2-4.1,8.29-9.57,10.41Z"/>
      <path class="cls-1" d="M42.47,41.95c0,14.52.04,28.16-.02,41.8-.02,4.12.76,8.15-2.58,11.95-3.34,3.8-7.21,3.12-10.86,2.43-1.17-.22-2.43-4.08-2.33-6.2.36-7.34,1.54-14.64,1.95-21.98.41-7.3.45-14.63.26-21.93-.09-3.5.64-5.42,4.49-5.42,2.82,0,5.63-.38,9.09-.65Z"/>
    </g>
  </g>
</svg>