<?xml version="1.0" encoding="UTF-8"?>
<svg id="_레이어_2" data-name="레이어 2" xmlns="http://www.w3.org/2000/svg" viewBox="0 0 76.58 100">
  <defs>
    <style>
      .cls-1 {
        fill: #fff;
        stroke-width: 0px;
      }
    </style>
  </defs>
  <g id="_레이어_1-2" data-name="레이어 1">
    <path class="cls-1" d="M74.56,55v5.83c-4.63-2.33-9.12-4.83-13.82-6.79-1.28-.53-3.71,0-4.79.96-4.11,3.67-9.07,4.95-15.03,6.39,1.13-.95,1.5-1.42,1.99-1.65,12.78-6.18,15.71-17.4,15.61-30.25-.05-6.65-2.16-12.57-5.72-18.11-3.93-6.11-11.74-7.95-17.98-4.14-7.52,4.6-9.96,12.32-11.44,20.12-2.06,10.83-2.21,21.86-.13,32.76,1.72,9,4.57,17.57,10.4,24.95,9.04,11.44,23.45,9.68,32.67,3.23,3.23-2.26,6.25-4.81,9.36-7.23.3.27.6.55.9.82-1.76,2.15-3.25,4.63-5.34,6.38-8.09,6.75-17.35,11.16-27.99,11.67-15.23.73-26.96-5.75-35.35-18.33C2.37,73.33-.26,64.07.02,54.17c.22-7.95-.2-16.25,1.93-23.75C5.83,16.75,13.25,4.51,28.2,1.08c22.25-5.1,39.5,8.37,37.8,30.83-.3,3.98-2.61,8.03-4.76,11.59-2.62,4.34-2.79,4.77,1.74,6.61,3.82,1.55,7.6,3.2,11.58,4.89Z"/>
  </g>
</svg>