<?xml version="1.0" encoding="UTF-8"?>
<svg id="_레이어_2" data-name="레이어 2" xmlns="http://www.w3.org/2000/svg" viewBox="0 0 56.02 100">
  <defs>
    <style>
      .cls-1 {
        fill: #fff;
        stroke-width: 0px;
      }
    </style>
  </defs>
  <g id="_레이어_1-2" data-name="레이어 1">
    <path class="cls-1" d="M55.99,43.19c0,1.27,0,2.26,0,3.25,0,10.73.11,21.45-.07,32.18-.13,7.88-3.38,14.34-10.39,18.28-2.69,1.51-5.9,2.7-8.94,2.87-5.99.34-12.1.37-18.04-.39-8.27-1.06-16.04-6.68-18.18-15.15-.22-.88-.34-1.81-.34-2.71-.01-19.78-.09-39.55.03-59.33C.13,12.23,6.54,1.41,18.49.34,24.13-.16,29.83.02,35.51.08c3.93.05,7.85.5,11.78.65,3.85.15,6.22,1.77,6.56,5.55.37,4.14.08,8.33.08,12.69-7.96,0-15.83,0-23.69,0-1.84,0-3.69-.06-5.52.05-3.09.19-4.85,1.85-5.28,4.89-.16,1.16-.19,2.34-.19,3.51,0,15.25.02,30.5.05,45.75,0,1.25.09,2.52.36,3.74.63,2.87,3.04,4.67,5.96,4.65,2.43-.02,4.86.01,7.28.01,4.23,0,6.12-1.65,6.2-5.81.11-5.77.03-11.54.03-17.69h-9.74v-15.89c8.87.33,17.51.65,26.59.99Z"/>
  </g>
</svg>