<?xml version="1.0" encoding="UTF-8"?>
<svg id="_레이어_2" data-name="레이어 2" xmlns="http://www.w3.org/2000/svg" viewBox="0 0 75.45 100">
  <defs>
    <style>
      .cls-1 {
        fill: #fff;
        stroke-width: 0px;
      }
    </style>
  </defs>
  <g id="_레이어_1-2" data-name="레이어 1">
    <path class="cls-1" d="M65.25,99.53c-4.2,0-8.21-.03-12.23.02-1.21.01-1.17-.75-1.17-1.55,0-3.24.05-6.48.03-9.73-.08-10.2-.19-20.41-.27-30.61,0-.81.03-1.65-1.11-1.64-3.95.04-7.91.1-11.86.16-.1,0-.2.12-.45.28,0,6.2.31,12.52-.1,18.79-.32,4.91-1.12,9.88-2.45,14.62-1.67,5.96-6.06,8.98-12.29,9.93-8.38,1.27-15.77-3.95-18.31-11.3-1.93-5.59-2.89-11.31-3.66-17.13C-.17,59.73-.16,48.03.2,36.34c.26-8.32,1.29-16.63,4.91-24.3C7.39,7.21,10.47,2.93,15.9,1.17c4.6-1.49,9.22-1.68,13.84.13,6.33,2.47,9.6,7.52,11.33,13.67,1.06,3.78,1.52,7.74,2.25,11.61.22,1.17-.23,1.63-1.44,1.6-2.76-.06-5.52-.04-8.28-.01-.93,0-1.34-.32-1.55-1.29-.71-3.26-1.47-6.52-2.36-9.74-.82-2.97-2.51-5.34-5.89-5.29-3.89.06-6.39,1.69-7.88,5.86-2.62,7.31-3.3,14.95-3.44,22.62-.14,8.34-.08,16.69.21,25.02.21,6.02.67,12.07,2.5,17.89,1,3.17,3.35,5.39,5.75,5.41,2.89.02,5.2-1.63,5.69-4.46.63-3.59,1.2-7.22,1.38-10.86.25-5.03.07-10.08.16-15.13.03-1.47-.43-2.11-1.95-1.99-1.19.1-2.4.02-3.6.08-1.07.05-1.52-.42-1.52-1.48,0-3.3-.02-6.6-.05-9.9,0-1.06.48-1.46,1.55-1.46,5.27.01,10.54-.03,15.81-.04,5.62-.01,11.23,0,16.89,0,1.07-5.49,2.06-10.71,3.12-15.91.75-3.69,1.62-7.35,2.39-11.04.67-3.22,1.24-6.46,1.95-9.67.11-.48.74-1.18,1.14-1.19,3.76-.09,7.53-.05,11.53-.05-.47,2.59-.86,4.98-1.36,7.34-1.77,8.35-3.61,16.69-5.36,25.04-1.21,5.79-2.63,11.57-3.36,17.42-.52,4.25-.05,8.63-.03,12.95.04,9.71.07,19.43.09,29.14,0,.59-.1,1.18-.17,2.09Z"/>
  </g>
</svg>