<?xml version="1.0" encoding="UTF-8"?>
<svg id="_레이어_2" data-name="레이어 2" xmlns="http://www.w3.org/2000/svg" viewBox="0 0 84.93 99.9">
  <defs>
    <style>
      .cls-1 {
        fill: #fff;
        stroke-width: 0px;
      }
    </style>
  </defs>
  <g id="_레이어_1-2" data-name="레이어 1">
    <path class="cls-1" d="M76.46,99.84c-1.23,0-2.14,0-3.06,0-17.63,0-35.26.18-52.88-.09-6.44-.1-12.58-2.13-16.53-7.72C1.53,88.55.02,84.59.05,80.07.16,60.19.23,40.31,0,20.44c-.06-5.02,2.55-8.82,4.29-13.06.32-.78,1.22-1.49,2.03-1.89C10.77,3.28,14.99.95,20.31.47c14.44-1.33,28.8.62,43.19.33,1.23-.03,2.56.47,3.71,1.02,6.95,3.35,12.55,7.86,14.26,15.99.83,3.96,2.19,7.82,3.47,12.32-7.46,1.95-14.49.62-21.29,1.04-1.35-2.6-2.31-4.99-3.74-7.06-1.25-1.8-3.02-3.24-4.89-5.18h-29.93v61.91c3.25,1.85,6.67.78,9.94.96,3.18.18,6.37.04,9.56.04h10.36v-19.01h-14.07v-18.61c4.04-.84,27.43-1.08,36.29-.37.92,4.97.46,50.66-.71,56Z"/>
  </g>
</svg>