<?xml version="1.0" encoding="UTF-8"?>
<svg id="_레이어_2" data-name="레이어 2" xmlns="http://www.w3.org/2000/svg" viewBox="0 0 76.52 100">
  <defs>
    <style>
      .cls-1 {
        fill: #fff;
        stroke-width: 0px;
      }
    </style>
  </defs>
  <g id="_레이어_1-2" data-name="레이어 1">
    <path class="cls-1" d="M76.46,13.26c0-13.4,0-13.31-13.32-13.25-4,.02-6.86.83-6.71,6.1C44.36-3.22,26.47-.38,17.34,6.44,7.21,14,1.07,23.64.2,36.18c-.8,11.44.56,22.62,9.31,31.2,10.35,10.16,27.97,14.59,42.89,4.98.65-.42,1.27-1.78,2.19-.93.7.65,1.13,1.62.72,2.95-1.46,4.76-3.59,8.94-8.37,11.12-4.18,1.9-8.66,2.4-13.18,2.21-4.09-.17-5.39,1.7-5.51,5.67-.12,4.05.65,6.65,5.27,6.62,3.61-.03,7.22.04,10.84,0,18.26-.21,32.48-12.36,32.17-32.15-.29-18.19-.06-36.38-.06-54.58ZM53.69,46.81c-2.34,8.92-10.95,12.09-19.61,9.82-5.35-1.4-6.49-6.19-7.54-10.75-.38-1.63-.06-3.43-.06-5.15.04-6.1.49-12.28,5.07-16.87,4.2-4.2,9.64-5.1,15-2.77,4.95,2.15,8.16,6.01,8.28,11.9.09,4.66.07,9.23-1.13,13.82Z"/>
  </g>
</svg>