<?xml version="1.0" encoding="UTF-8"?>
<svg id="_레이어_2" data-name="레이어 2" xmlns="http://www.w3.org/2000/svg" viewBox="0 0 73.72 100">
  <defs>
    <style>
      .cls-1 {
        fill: #fff;
        stroke-width: 0px;
      }
    </style>
  </defs>
  <g id="_레이어_1-2" data-name="레이어 1">
    <path class="cls-1" d="M70.54,29.21c-1.19-1.37-2.98-2.56-3.47-4.15-4.29-14-13.68-18.3-27.27-18.23-10.2.05-21.65,8.12-23.2,18.43-2.01,13.42-1.22,26.94,3.58,40.04,3.59,9.79,8.76,18.32,16.52,25.25,5.96,5.31,8.42,5.26,14.16-.05.43-.4.82-1.16,1.26-1.18,5.27-.26,8.47-1.37,5.7-7.94-2.76-6.53-4-13.71-6.88-20.17-1.29-2.91-4.93-4.77-7.51-7.11l-1.82.53c1.61-7.28,3.22-14.56,5.16-23.33,3.99,7.92,8.86,9.25,16.03,4.5-1.14,4.44-2.29,8.88-3.65,14.18h14.56c-.49,11.28-.46,21.76-1.55,32.13-1.07,10.25-9.12,14.77-17.86,16.76-17.06,3.87-31.1-2.35-42.58-15.04C-6.97,63.17-2.78,26.61,20.49,9.05,28.58,2.93,38.04,2.77,47.28,1.68c8.19-.97,16.48-1.11,25.78-1.68,0,3.8.15,8.77-.04,13.73-.19,4.85-.74,9.68-1.13,14.52-.45.32-.9.64-1.34.96Z"/>
  </g>
</svg>