<?xml version="1.0" encoding="UTF-8"?>
<svg id="_레이어_2" data-name="레이어 2" xmlns="http://www.w3.org/2000/svg" viewBox="0 0 48.23 100">
  <defs>
    <style>
      .cls-1 {
        fill: #fff;
        stroke-width: 0px;
      }
    </style>
  </defs>
  <g id="_레이어_1-2" data-name="레이어 1">
    <g>
      <path class="cls-1" d="M11.43,50.68c0,9.79-.25,19.59.1,29.37.18,5.16,1.55,10.27,2.08,15.43.15,1.48-.42,4.13-1.23,4.37-1.38.42-3.74-.13-4.74-1.18-1.75-1.84-3.62-4.24-3.97-6.62-1.4-9.55-2.71-19.15-3.15-28.78C-.07,50.49-.14,37.65.22,24.84c.15-5.45,1.37-11.07,3.19-16.23C5.8,1.81,13.05-1.29,20.05.5c5.84,1.49,10.4,8.19,10.02,14.76-.15,2.53-.24,5.08-.56,7.6-.39,3.01-2.15,5.08-5.26,4.9-3.15-.18-2.94-2.92-3.11-5.23-.22-2.87-.02-5.95-1.04-8.53-.68-1.73-3.02-3.56-4.88-3.9-2.61-.48-3.57,2.21-3.83,4.39-.61,5.15-1.17,10.33-1.33,15.52-.22,6.88-.05,13.78-.05,20.67.48,0,.95,0,1.43,0Z"/>
      <path class="cls-1" d="M28.81,76.65c0,4.71.1,9.42-.06,14.13-.05,1.5-.41,3.37-1.36,4.36-1.09,1.13-3,1.47-4.56,2.16-.51-1.38-1.46-2.76-1.45-4.13.1-12.92.37-25.84.58-38.75.02-1.09-.05-2.18-.01-3.26.09-2.57.91-4.64,3.95-4.52,2.87.12,3.93,2.05,3.96,4.66.03,2.66-.07,5.32-.08,7.97-.01,5.79,0,11.59,0,17.38-.32,0-.65,0-.97,0Z"/>
      <path class="cls-1" d="M38.17,19.67c.06-3.63,2.61-6.14,6.26-6.01,3.31.11,3.75,2.59,3.81,5.1.09,3.87-1.71,6.16-4.56,6.08-3.82-.11-5.56-1.74-5.51-5.16Z"/>
    </g>
  </g>
</svg>