<?xml version="1.0" encoding="UTF-8"?>
<svg id="_레이어_2" data-name="레이어 2" xmlns="http://www.w3.org/2000/svg" viewBox="0 0 77.13 100">
  <defs>
    <style>
      .cls-1 {
        fill: #fff;
        stroke-width: 0px;
      }
    </style>
  </defs>
  <g id="_레이어_1-2" data-name="레이어 1">
    <path class="cls-1" d="M35.36,4.43c.78,1.44,1.88,2.63-.94,3.45-5.74,1.65-7.9,6.21-9.47,11.69-3.19,11.14-4.18,22.39-3.82,33.91.37,11.85,3.05,22.94,9.29,33.07,5.96,9.69,14.84,13.33,25.88,12.19,3.56-.37,7.16-.8,10.61-1.72,1.18-.31,2.92-2.34,2.76-3.31-1.59-9.66-3.5-19.27-5.43-28.88-.2-1.02-1.1-1.9-1.83-3.12,4.99-1.63,9.81-3.21,14.71-4.82-3.29,13.12-6.93,26.12-1.23,40.23-2.33.43-4.91,1.09-7.53,1.35-6.33.64-12.68,1.51-19.02,1.52-12.43.02-22.3-6.12-30.44-14.81-7.69-8.21-14.03-17.39-17.44-28.44-2.18-7.07-1.69-13.81,0-20.73,2.06-8.39,3.75-16.78,9.47-23.84C16.2,5.7,23.57,3.38,30.75,0c1.22,2.21.51,6.23,4.72,4.49l-.11-.06Z"/>
  </g>
</svg>