<?xml version="1.0" encoding="UTF-8"?>
<svg id="_레이어_2" data-name="레이어 2" xmlns="http://www.w3.org/2000/svg" viewBox="0 0 86.48 93.97">
  <defs>
    <style>
      .cls-1 {
        fill: #fff;
        stroke-width: 0px;
      }
    </style>
  </defs>
  <g id="_레이어_1-2" data-name="레이어 1">
    <path class="cls-1" d="M74.26,92.25c-.83-2.56-1.52-4.7-2.42-7.47-3.85,1.86-7.23,3.55-10.65,5.15C35.92,101.71,3.56,87.05.38,55.24-1.34,38,2.53,22.46,15.7,10.28,23.31,3.25,32.13-1.02,42.86.21c2.19.25,4.33.93,6.5,1.41.16.58.32,1.16.47,1.74-3.93,2.51-7.66,5.43-11.82,7.48-20.19,9.91-25.49,30.69-21.21,50.53,3.4,15.73,17.04,24.51,32.95,21.86,6.47-1.08,12.74-3.6,18.94-5.91,1.29-.48,2.57-2.9,2.63-4.48.3-8.31.37-16.64.18-24.96-.08-3.37.68-4.85,4.34-4.74,11.48.34,9.63-1.44,9.8,9.75.17,11.13.41,22.27.81,33.4.11,3.06-.69,4.76-3.92,5.01-2.77.22-5.51.63-8.29.96Z"/>
  </g>
</svg>