<?xml version="1.0" encoding="UTF-8"?>
<svg id="_레이어_2" data-name="레이어 2" xmlns="http://www.w3.org/2000/svg" viewBox="0 0 80.86 87.12">
  <defs>
    <style>
      .cls-1 {
        fill: #fff;
        stroke-width: 0px;
      }
    </style>
  </defs>
  <g id="_레이어_1-2" data-name="레이어 1">
    <path class="cls-1" d="M61.85,56.66c0-1,0-2,0-3,0-12.39,3.7-15.33,16.21-12.55,1.16.26,2.85,2.14,2.8,3.2-.42,10.27-1,20.54-2.01,30.76-.14,1.43-2.65,2.97-4.37,3.83-2.43,1.23-5.35,1.52-7.72,2.83C37.88,97.59,1.76,76.15.11,46.83-1.28,22.27,10.97,3.85,33.22.51c11.51-1.73,22.49,1.05,32.68,6.65,1.41.77,3.22,2.05,3.49,3.36.41,2,.22,4.65-.86,6.24-.71,1.04-3.53,1.17-5.24.84-1.48-.28-2.79-1.72-4.08-2.76-8.83-7.17-18.71-8.37-28.41-3.04-8.77,4.82-13.16,13.35-14.12,23.35-1.03,10.86,1.51,20.85,8.49,29.34,7.33,8.91,17.22,11.54,28.27,10.13,6.37-.81,8.57-3.71,8.55-9.99-.01-2.66,0-5.33,0-7.99-.04,0-.09,0-.13,0Z"/>
  </g>
</svg>