<?xml version="1.0" encoding="UTF-8"?>
<svg id="_레이어_2" data-name="레이어 2" xmlns="http://www.w3.org/2000/svg" viewBox="0 0 80.99 100">
  <defs>
    <style>
      .cls-1 {
        fill: #fff;
        stroke-width: 0px;
      }
    </style>
  </defs>
  <g id="_레이어_1-2" data-name="레이어 1">
    <g>
      <path class="cls-1" d="M45.57,52.56v-5.83c5.12,1.01,10.13-1.21,15.04,1.61,1.56.9,4.09-.05,6.14.19,2.92.34,5.97.56,8.65,1.63,2.98,1.19,3.87,4.3,4.23,7.3,1.01,8.52-1.24,15.81-7.9,21.66-2.6,2.28-5.23,4.58-6.79,8.04-1.62,3.56-5.8,5-9.1,5.88-5.84,1.56-10.81,5.72-17.29,5.54-1.24-.03-3.12,2.01-4.76,1.26-5.11-2.33-11.53-1.4-15.75-4.99-4.46-3.79-10.26-6.3-12.84-12.33-1.34-3.13-5.01-11.81-5.03-15.04-.03-5.97-.47-11.98.13-17.88.52-5.02,1.7-10.14,3.6-14.81,2.84-6.95,6.36-13.79,11.5-19.31C22.2,8.22,31.02,3.83,40.17.2c.67-.27,1.64-.27,2.31,0,5.96,2.47,12.68.89,18.64,3.87,5.61,2.8,11.15,5.46,15.07,10.87-1.48,3.64-3.07,7.55-4.87,12.01-4.8-2.47-9.95-3.82-13.85-7.67-4.24-4.18-9.03-4.53-14.23-1.98-6.3,3.09-7.9,4.13-15.2,13.58-5.78,7.49-9.93,16.02-9.02,25.75.88,9.45,3.4,18.49,11.64,24.74,2.26,1.72,4.64,3.62,7.3,2.78,2.43-.76,3.96,2.28,6.72.46,1.81-1.2,5.16.24,7.58-.39,6.95-1.82,12.64-5.65,15.61-12.44.6-1.38-.03-3.62-.74-5.17-1.83-4-1.84-9.1-7.34-11-1.76-.61-3.37-.93-5.06-.86-3.33.14-6.45-.23-9.15-2.21Z"/>
      <path class="cls-1" d="M78.1,79c1.95,7.12-.94,10.1-8.11,9.26,1.8-4.18,6.47-5.26,8.11-9.26Z"/>
      <path class="cls-1" d="M80.99,47.48c-.18.33-.37.67-.55,1-.17-.17-.52-.38-.49-.51.08-.37.31-.7.49-1.05.17.17.35.35.55.55Z"/>
    </g>
  </g>
</svg>