<?xml version="1.0" encoding="UTF-8"?>
<svg id="_레이어_2" data-name="레이어 2" xmlns="http://www.w3.org/2000/svg" viewBox="0 0 81.31 100">
  <defs>
    <style>
      .cls-1 {
        fill: #fff;
        stroke-width: 0px;
      }
    </style>
  </defs>
  <g id="_레이어_1-2" data-name="레이어 1">
    <g>
      <path class="cls-1" d="M79.35,16.25c-3.77,2.49-6.92,4.82-10.33,6.67-1.13.62-3.16.48-4.38-.12-3-1.47-5.87-3.26-8.59-5.21-2.76-1.98-6.71,1.19-8.99-2.29-2.99.75-6.17,1.06-8.92,2.32-9.46,4.33-17.02,11.07-20.66,20.86-1.77,4.73-5.01,9.93-1.38,15.69,1.14,1.8.15,4.82.79,7.09,2.69,9.46,9.32,15.71,17.35,20.82,3,1.91,5.98,3.17,9.62,2.81,2.17-.22,4.38-.04,7.2-.04,2.2,4.04,4.5,8.27,6.77,12.45-1.05.98-1.8,2.29-2.66,2.38-12.14,1.15-23.64-.61-34.06-7.55-11.07-7.37-16.45-17.74-20.05-30.5-3.88-13.76,3.36-36.03,12.91-44.84,3.75-3.46,7.08-7.32,11.57-9.99,4.31-2.57,8.72-4.44,13.74-4.81,2.07-.15,4.26.67,6.09-1.44.6-.69,2.96-.72,3.91-.11,3.93,2.52,8.83.81,12.73,3.28,5.97,3.78,12.63,6.6,17.32,12.53Z"/>
      <path class="cls-1" d="M81.31,67.48c-1.5,9.12-9.38,12.72-13.99,18.88h-10.48c-2.55-2.36-3.73-5.04-4.11-8.42-.76-6.67-3.67-11.92-11.01-13.15-.11-4.87,1.81-7.72,6.19-8.02,5.81-.4,11.58-.33,17.01,2.77,5.08,2.9,10.54,5.14,16.39,7.94Z"/>
    </g>
  </g>
</svg>