<?xml version="1.0" encoding="UTF-8"?>
<svg id="_레이어_2" data-name="레이어 2" xmlns="http://www.w3.org/2000/svg" viewBox="0 0 86.49 100">
  <defs>
    <style>
      .cls-1 {
        fill: #fff;
        stroke-width: 0px;
      }
    </style>
  </defs>
  <g id="_레이어_1-2" data-name="레이어 1">
    <path class="cls-1" d="M86.44,23.9c.21,1.31-.38,2.78-2.27,3.34-4.81,1.41-8.81,4.33-13.1,6.72-.57.32-1.47.04-1.84.04-2.34-3.32-4.52-6.54-6.83-9.68-2.57-3.48-6.57-4.9-10.22-6.79-.76-.39-1.74-.45-2.63-.47-2.65-.06-5.29-.05-7.94-.02-8.21.11-14.3,3.68-18.93,10.57-2.97,4.42-4.73,8.91-5.8,14.12-.72,3.51-.7,6.9-.89,10.35-.24,4.4,1.31,8.49,2.78,12.46,1.84,4.97,4.26,10.03,8.08,13.55,4.08,3.76,8.54,8.04,15.14,7.09,1.48-.21,3.04-.19,4.53,0,3.42.45,6.31-.85,9.3-2.25,2.39-1.12,4.38-3,7.27-5.57,4.67-4.16,4.43-10.33,7.05-15.29.16-.29-.83-1.62-1.48-1.82-1.04-.31-2.24-.08-3.38-.08h-23.93c-1.63-3.34,1.95-6.3.61-9.43,2.17-2.12,4.73-1.95,7.28-1.94,10.4.03,20.79.01,31.19.01,1.13,0,2.27-.05,3.4.01,1.49.09,2.42.96,2.52,2.42.64,9.01-1.04,17.66-4.95,25.72-5.34,11-14.52,17.65-25.92,21.47-4.38-.35-8.66,3.42-13.1.32-5.04.51-9.31-2.06-13.93-3.28-2.58-.69-4.4-2.22-6.51-3.5-11.17-6.8-16.96-16.77-20.52-27.78-.98-3.05-1.09-6.43-1.27-9.67-.21-3.77-.13-7.56-.01-11.34.06-1.76-.36-3.47.94-5.31,1-1.41-.26-3.8,1.18-5.74.96-1.3.53-3.56,1.32-5.08,1.7-3.29,3.62-6.49,5.75-9.52,1.79-2.53,4.22-4.53,6.15-7.04,1.97-2.57,5.23-4.34,8.23-5.86,3.43-1.74,7.04-2.99,10.98-3.73,3.87-.72,7.65-.76,11.48-.89,7.44-.26,13.94,2.48,19.99,6.47,5.71,3.76,10.87,8.18,15.54,13.2,1.34,1.44,2.95,2.62,4.77,4.21Z"/>
  </g>
</svg>