<?xml version="1.0" encoding="UTF-8"?>
<svg id="_레이어_2" data-name="레이어 2" xmlns="http://www.w3.org/2000/svg" viewBox="0 0 94.36 100">
  <defs>
    <style>
      .cls-1 {
        fill: #fff;
        stroke-width: 0px;
      }
    </style>
  </defs>
  <g id="_레이어_1-2" data-name="레이어 1">
    <g>
      <path class="cls-1" d="M74.57,19.06v5.25c-3.93-3.1-7.1,1.52-11.13-.5-1.47-3.22,1.02-5.64,2.78-8.38,2.37-3.68,6.17-2.02,9.39-2.52.97-3.02-.76-4.02-2.86-4.75-1.64-.57-3.27-1.36-4.97-1.55-2.37-.27-4.8-.07-7.9-.07.26,2,.5,3.84.81,6.16-1.2.08-3.15.2-5.4.35v-4.52c-5.38-1.08-9.51,1.61-13.31,4.13-1.45.96-1.44,4.11-2.14,6.36-6.57,1.61-11.47,5.99-15.39,11.56-3.19,4.53-5.87,12.4-6.45,18.22-.32,3.12-3.37,5.87-.78,9.45,1.95,2.7.84,6.3,2.11,9.55,1.99,5.1,4.58,9.49,8.14,13.54,2.91,3.31,6.75,5.68,8.74,10.02,1.27,2.77,4.62,3.83,7.95,3.78,4.56-.06,9.12-.11,13.66.07.82.03,1.6,1.21,3.97,3.13-4.26,0-6.6-.21-8.88.06-1.96.23-3.82,1.32-5.78,1.49-7.02.62-13.52-2.4-20.35-3.22-4.77-4.42-11.79-6.19-14.67-12.94-1.56-3.66-2.01-8.16-6.58-10.11-1.04-.44-1.66-2.47-2.01-3.88-1.87-7.47-4.49-14.95-3.17-22.76,1-5.88,1.77-11.96,4.91-17.23,3.17-5.32,6.38-10.72,11.38-14.55,4.76-3.65,9.49-7.53,15.68-8.68,2.97-.55,5.27-2.58,8.25-3.45C48.11.9,55.69-.64,63.41.26c5.4.63,10.65,2.65,15.96,4.08.47.13.92.62,1.35.57,7.01-.66,9.46,4.41,11.88,9.46.53,1.11.99,2.37,1.03,3.57.14,3.96-2.12,5.44-6.09,4.23-1.43-.43-3.68-1.52-4.22-.97-3.72,3.73-5.89.31-8.74-2.14Z"/>
      <path class="cls-1" d="M94.36,94.01c-2.7-.74-4.71-.7-5.77-1.69-7.97-7.41-15.56-15.21-20.6-25-.96-1.86-4.58-2.45-2.77-5.86,11.15,9.01,19.1,20.79,29.14,32.55Z"/>
      <path class="cls-1" d="M64.53,43.6c-6.67,2.92-13.08,6.12-20.47,6.57.8-3.96,3.38-6.38,7.05-6.53,4.46-.17,8.94-.04,13.41-.04Z"/>
      <path class="cls-1" d="M82.4,51.19c2.59,1.78,3.26,2.87,1.8,5.28-.86,1.41-.88,4.23,1.43,5.65-.95.95-1.9,1.9-2.63,2.63.44,2.53.85,4.88,1.29,7.43-2.91-.54-3.75-1.97-3.52-4.29.2-2.03-.65-4.33,1.63-5.77-3-1.43.21-2.84.05-4.3-.22-2.02-.05-4.08-.05-6.63Z"/>
      <path class="cls-1" d="M63.46,91.06v-6.93h8.32c-1.02,1.38-1.47,2.35-2.22,2.92-1.74,1.31-3.64,2.41-6.1,4.01Z"/>
      <path class="cls-1" d="M41.62,66.1c.51,5.2,1.02,10.4,1.57,15.98-1.26-.48-2.52-1.46-2.59-2.8-.21-4.39-.08-8.79-.08-13.18.36,0,.73,0,1.09,0Z"/>
      <path class="cls-1" d="M75.7,51.93v4.28l-.84.08c-.2-1.42-.4-2.85-.6-4.27.48-.03.96-.05,1.44-.08Z"/>
    </g>
  </g>
</svg>