<?xml version="1.0" encoding="UTF-8"?>
<svg id="_레이어_2" data-name="레이어 2" xmlns="http://www.w3.org/2000/svg" viewBox="0 0 100.89 100">
  <defs>
    <style>
      .cls-1 {
        fill: #fff;
        stroke-width: 0px;
      }
    </style>
  </defs>
  <g id="_레이어_1-2" data-name="레이어 1">
    <path class="cls-1" d="M58.52,52.02h42.38c-.29.69-.72,1.28-.78,1.9-.77,9.04-1.48,18.09-2.24,27.14-.28,3.28-.58,6.56-.98,9.83-.48,3.97-2.85,6.4-6.54,6.79-6.32.67-12.64,1.38-18.98,1.92-12.85,1.09-25.57.16-37.78-4.06C16.69,89.69,5.22,78.3,1.11,60.59-3.32,41.5,5.51,16.94,27.42,8.05,40.85,2.6,54.76.71,68.92.12c9.96-.42,19.98.37,30.33,1.23-3.9.15-3.44,2.8-3.43,4.96.06,8.37-3.9,15.45-7.39,22.63-.51,1.04-2.62,1.3-4.09,1.97-3.52-13.99-11.98-20.76-25.99-20.85-4.56-.03-9.15.65-13.66,1.38-3.55.58-6.41,1.97-7.78,6.1-1.69,5.09-5.09,9.64-6.56,14.77-3.94,13.71-3.88,27.81-1.92,41.81.6,4.3,2.76,8.5,4.75,12.48,3.94,7.86,10.9,11.2,19.31,10.43,4.49-.41,8.96-1.8,12.26-6,2.96-3.75,4.31-7.65,4.51-12.2.3-6.96.82-13.92.72-20.87-.02-1.23-2.43-2.83-4.06-3.53-2.38-1.01-5.04-1.36-7.58-1.99.06-.14.12-.27.18-.41Z"/>
  </g>
</svg>