<?xml version="1.0" encoding="UTF-8"?>
<svg id="_레이어_2" data-name="레이어 2" xmlns="http://www.w3.org/2000/svg" viewBox="0 0 57.46 100">
  <defs>
    <style>
      .cls-1 {
        fill: #fff;
        stroke-width: 0px;
      }
    </style>
  </defs>
  <g id="_레이어_1-2" data-name="레이어 1">
    <path class="cls-1" d="M38.89,5.89c.83-2.31,1.54-4.28,2.11-5.86,4.85,0,9.49,0,14.14,0,1.13,0,1.25.73,1.23,1.64-.15,6.22-.39,12.44-.37,18.66.05,14.8.24,29.61.35,44.41.04,5.6-.08,11.2.11,16.8.12,3.68.66,7.35.99,11.03.04.42,0,.85,0,1.62-2.11,0-4.15.13-6.16-.03-2.99-.25-6.14-.23-8.9-1.21-2.64-.94-4.25-.44-6.24,1.23-5.45,4.58-11.9,6.65-18.9,5.52-6.39-1.02-12.21-3.51-15.15-10.04-3.91-8.68,3.18-15.28,9.43-16.1.18-.02.35-.1.86-.24-.34-.61-.55-1.2-.93-1.64-6.09-7.07-9.48-15.3-10.83-24.49-1.42-9.66-.23-19.08,2.31-28.37,1.4-5.13,3.64-9.82,7.59-13.66,5.9-5.73,18.19-7.4,25.39-1.29.83.71,1.81,1.24,2.99,2.03ZM37.22,64.77l-.92-.63c-.4.69-.74,1.44-1.22,2.07-5.15,6.61-11.96,9.17-20.2,8.19-.54-.06-1.28-.46-1.57-.23-2,1.53-4.26,2.91-5.77,4.86-3.09,4-1.63,11.11,4.18,13.25,6.88,2.54,13.73,2.35,20.35-1.16,4.21-2.23,6.22-5.56,5.9-10.39-.29-4.4-.31-8.82-.48-13.23-.03-.91-.18-1.82-.27-2.73ZM34.21,42.58c-.48-5-.78-10.03-1.51-14.99-.3-2.07-1.31-4.13-2.38-5.97-1.12-1.91-2.56-2-3.82-.15-1.19,1.74-2.08,3.81-2.57,5.87-1.69,6.98-1.44,14.06-.24,21.06.5,2.94,1.56,5.88,2.92,8.54,1.37,2.68,3.19,2.44,4.62-.17,2.44-4.43,2.44-9.3,2.99-14.19Z"/>
  </g>
</svg>