<?xml version="1.0" encoding="UTF-8"?>
<svg id="_레이어_2" data-name="레이어 2" xmlns="http://www.w3.org/2000/svg" viewBox="0 0 64.2 100">
  <defs>
    <style>
      .cls-1 {
        fill: #fff;
        stroke-width: 0px;
      }
    </style>
  </defs>
  <g id="_레이어_1-2" data-name="레이어 1">
    <path class="cls-1" d="M45.39,77.92c3.24-.91,4.36-3.43,4.91-6.36.22-1.16.23-2.37.41-3.54.12-.79-.19-1.05-.93-1.04-1.98.03-3.97.05-5.96.06-3.54.02-7.07.05-10.61.06-.32,0-.64-.06-.96-.09v-29.24h31.95c0,2.21,0,4.4,0,6.59-.07,12.96-.13,25.91-.21,38.87-.02,3.3-.09,6.6-.22,9.9-.02.41-.43.96-.81,1.18-3.76,2.11-7.81,3.4-12,4.37-5.46,1.27-11,1.58-16.54,1.13-4.55-.37-8.9-1.76-13.16-3.49-4.19-1.7-7.77-4.12-10.58-7.61-3.75-4.66-6.25-9.95-7.88-15.71-1.59-5.62-2.16-11.36-2.56-17.14-.49-7.11-.2-14.22.75-21.27.82-6.08,2.36-12.03,5.55-17.37,2.68-4.49,6.3-8.1,10.58-11.12C21.35,3.1,26.15,1.71,31.15.86c3.8-.65,7.66-1.15,11.5-.66,4.71.59,9.25,1.8,12.96,5.06,1.07.95,2.22,1.82,3.33,2.72.79.64.76,1.35.09,2.02-.65.66-1.4,1.23-2.06,1.88-2.01,1.96-4.01,3.92-5.98,5.91-.63.63-1.02.71-1.55-.16-2.82-4.64-7.13-6.64-12.4-6.76-2.01-.04-4.13-.18-6.01.38-5,1.48-8.82,4.51-11.02,9.42-2.15,4.79-3.15,9.84-3.65,15.02-.77,7.91-.73,15.84-.5,23.78.14,4.74.6,9.43,1.86,13.98,1.3,4.67,3.51,8.95,7.42,12.03,1.97,1.55,4.4,2.22,6.9,2.59,2.83.43,5.65.57,8.49.09,2.74-.46,4.57-3.14,4.57-5.52,0-1.58.19-3.16.3-4.72Z"/>
  </g>
</svg>