<?xml version="1.0" encoding="UTF-8"?>
<svg id="_레이어_2" data-name="레이어 2" xmlns="http://www.w3.org/2000/svg" viewBox="0 0 75.97 100">
  <defs>
    <style>
      .cls-1 {
        fill: #fff;
        stroke-width: 0px;
      }
    </style>
  </defs>
  <g id="_레이어_1-2" data-name="레이어 1">
    <path class="cls-1" d="M58.63.26c.04.47.1.94.11,1.41.04,3.98.09,7.96.08,11.94,0,.89.25,1.29,1.17,1.43,2.01.32,4,.78,6,1.13.87.15,1.22.53,1.21,1.45-.05,3.14-.02,6.29-.02,9.6-2.33-.53-4.57-1.1-6.82-1.53-7.24-1.39-14.47-1.56-21.59.65-12.18,3.78-19.15,12.1-20.81,24.69-1.21,9.24,0,18.2,4.11,26.67,2.11,4.35,5.16,7.97,8.76,11.14,3.73,3.28,8.35,3.72,12.99,3.78,5.58.08,11.02-.89,16.2-3.05.5-.21,1.1-.91,1.11-1.4.18-6.21.21-12.42.39-18.63.04-1.48-.57-1.82-1.87-1.8-3.54.04-7.08.01-10.81.01v-10.91h26.99c.06.64.14,1.06.13,1.49-.07,10.48-.19,20.97-.17,31.45,0,1.56-.57,2.31-1.78,3.08-6.82,4.34-14.4,6.22-22.31,6.83-7.78.61-15.57.5-23.06-2.03-12.95-4.36-21.97-12.78-26.25-25.97-3.12-9.6-3.29-19.26.07-28.73,2.64-7.44,7.27-13.69,13.75-18.37,1.08-.78,1.69-1.54,1.67-2.92-.03-1.89.07-3.79.24-5.67.1-1.16-.39-1.72-1.41-1.97-1.88-.47-3.76-.94-5.66-1.36-2.99-.67-5.86-1.79-7.03-4.8-.81-2.1-.83-4.51-1.1-6.8-.02-.19.72-.66,1.12-.67C10.69.23,17.33,0,23.98,0c11.31-.01,22.62.12,33.94.19.19,0,.38.04.72.07Z"/>
  </g>
</svg>