<?xml version="1.0" encoding="UTF-8"?>
<svg id="_레이어_2" data-name="레이어 2" xmlns="http://www.w3.org/2000/svg" viewBox="0 0 96.06 100">
  <defs>
    <style>
      .cls-1 {
        fill: #fff;
        stroke-width: 0px;
      }
    </style>
  </defs>
  <g id="_레이어_1-2" data-name="레이어 1">
    <path class="cls-1" d="M1.86,33.79c.42-1.15.72-2.36,1.3-3.42.29-.53,1.1-.76,1.92-1.3-.05-.45-.15-1.25-.28-2.33.56-.1,1.19-.21,2.03-.35-.47,13.21,1.24,25.9,5.24,38.24.17,0,.35,0,.52,0,.09-.39.28-.78.27-1.16-.22-8.76-.52-17.52-.69-26.29-.1-5.19-.09-10.39,0-15.58.04-2.26.36-4.52.66-6.77.07-.52.49-1.03.86-1.45C20.25,5.87,28.68,1.51,38.43.91,51.83.08,65.29.27,78.72.04c3.57-.06,7.15-.02,10.72-.04,1.05,0,1.66.19,1.66,1.51,0,9.29.08,18.58.12,27.87,0,.69-.07,1.38-.12,2.22-1.31-.3-2.42-.59-3.54-.79-1.92-.33-3.75-.32-5.46.94-.71.53-1.78.16-1.53-.9,1.02-4.29-1.89-5.73-4.74-7.89-6.94-5.26-14.48-8.86-23.19-8.9-7.99-.04-15.54,1.88-21.65,7.66-6.23,5.89-9.97,13.03-10.16,21.58-.11,5.35,1.01,10.68,2.92,15.79,2.51,6.71,6.06,12.83,10.93,18.01,5.12,5.45,11.32,9.28,19.07,9.88,3.42.26,6.85.4,10.25.79,1.29.15,2.52.84,3.88,1.32-.04-.43-.08-.98-.13-1.5,2.79-.61,5.58-1.14,8.31-1.86.5-.13,1.18-1.02,1.15-1.52-.3-6.35-.65-12.69-1.12-19.03-.26-3.52-2.8-5.8-6.38-6.01-2.41-.14-4.83-.24-7.24-.43-.37-.03-.84-.35-1.05-.67-2.18-3.41-4.3-6.86-6.47-10.27-.21-.33-.74-.45-.98-.77-.43-.56-.75-1.2-1.11-1.8.53-.17,1.05-.5,1.58-.49,6.97.11,13.94.36,20.91.39,5.44.03,10.88-.11,16.32-.35,1.95-.09,2.56.38,2.56,2.41,0,5.12.29,10.24.48,15.36.22,5.83.49,11.66.67,17.49.1,3.11.05,6.23.07,9.34,0,.52-.15,1.15.08,1.54,1.4,2.31-.23,2.79-1.89,3.24-10.47,2.84-21.06,4.85-31.91,5.6-8.03.55-15.92.31-23.74-1.64-5.51-1.37-10.47-3.7-14.24-8.1-.53-.62-.62-1.89-1.22-2.15-2.17-.94-1.97-3.22-3.07-4.71-.59-.78-1.7-1.18-2.57-1.75-.11.48-.38.99-.3,1.42.32,1.56,1.57,3.05.08,4.84-1.4-1.32-2.79-2.65-4.2-3.96-3.68-3.42-6.25-7.51-7.75-12.32-.79-2.53-1.77-5.01-2.65-7.51C-.47,56.65.06,49.15.03,41.96c.59-.15,1.41-.15,1.5-.41.38-1.09.48-2.28.81-3.39.29-.95.78-1.84,1.13-2.78.21-.55.33-1.13.57-1.96-.96.15-1.56.24-2.16.33l-.02.04ZM15.35,73.41c-.22.18-.43.35-.65.53.14.89.22,1.78.43,2.65.2.85.49,1.68.83,2.49.19.43.57.78.86,1.17.19-.56.59-1.14.53-1.67-.14-1.23-.42-2.46-.82-3.63-.2-.58-.78-1.03-1.19-1.53ZM33.38,14.8c-.39-.49-.65-.82-.92-1.15-.3.27-.6.53-.91.8.26.29.48.68.81.82.19.08.56-.24,1.02-.46ZM82.65,49.23c.04.26.07.53.11.79.49-.09.98-.17,1.47-.26-.03-.21-.06-.42-.09-.63-.5.03-1,.07-1.49.1ZM2.45,44.99c.3-.32.62-.51.62-.71,0-.22-.27-.45-.42-.68-.24.19-.57.34-.69.59-.06.13.25.43.49.8ZM85.38,21.42c.11-.11.21-.21.32-.32-.06-.17-.1-.47-.19-.49-.25-.04-.51.04-.77.07.21.24.43.49.64.73Z"/>
  </g>
</svg>