<?xml version="1.0" encoding="UTF-8"?>
<svg id="_레이어_2" data-name="레이어 2" xmlns="http://www.w3.org/2000/svg" viewBox="0 0 147.35 100">
  <defs>
    <style>
      .cls-1 {
        fill: #fff;
        stroke-width: 0px;
      }
    </style>
  </defs>
  <g id="_레이어_1-2" data-name="레이어 1">
    <g>
      <path class="cls-1" d="M19.15,84.01c-5.32-1.36-9.77-2.5-14.47-3.7V11.49c-2.1-1.93-3.27-3-4.68-4.29C1.72,4.85,3.21,2.82,5.27,0c5.76,1.3,11.74,2.65,17.73,4v18.33c-1.82-.6-3.11-1.03-4.78-1.58v8.64c1.48.45,2.79.86,3.98,1.22-1.9,10.91-3.78,21.72-5.97,34.33,12.37-8.65,19.65-19.94,30.16-28.66-1.61-1.78-2.8-3.09-3.97-4.37,2.9-3.9,5.72-7.69,9.3-12.51,7.92-2.95,15.37,1.96,23.29,5.32,1.43,9.22-8.79,9.22-12.24,17.78.94,9.07,2.15,20.75,3.55,34.23,7.88-8.24,11.99-17.99,23.87-20.68.08,3.03.84,5.81.07,8.07-1.56,4.6-3.72,9.05-6.04,13.34-3.4,6.27-7.15,12.35-11.44,19.69-5.75-1.19-11.76-2.44-18.28-3.8.49-15.42-1.16-29.78-6.23-44.26-9.91,11.88-19.42,23.3-29.12,34.93Z"/>
      <path class="cls-1" d="M111.98,99.68c-3.84-18.69-7.68-37.38-11.78-57.33-.97-.51-3.17-1.67-6-3.16.81-2.89,1.61-5.79,2.53-9.08,9.61.46,18.56.86,25.46,8.89-4.24,9.07-8.09,18-1.64,28.73,4.11-5.12,7.77-9.69,11.25-14.03,3.04-1.2,5.93-2.34,9.42-3.71,1.22.78,3.1,1.98,6.13,3.91-13.07,14.13-25.71,28.17-32.79,46.1-.86-.11-1.72-.21-2.58-.32Z"/>
      <path class="cls-1" d="M141.54,46.03c.68-.63,1.36-1.26,2.03-1.89.28.26.56.53.84.79-.55.74-1.1,1.49-1.65,2.23-.41-.38-.81-.75-1.22-1.13Z"/>
    </g>
  </g>
</svg>