<?xml version="1.0" encoding="UTF-8"?>
<svg id="_레이어_2" data-name="레이어 2" xmlns="http://www.w3.org/2000/svg" viewBox="0 0 112.78 100">
  <defs>
    <style>
      .cls-1 {
        fill: #fff;
        stroke-width: 0px;
      }
    </style>
  </defs>
  <g id="_레이어_1-2" data-name="레이어 1">
    <g>
      <path class="cls-1" d="M53.47,42.31c-3.5-.32-4.84,2.21-6.3,4.62-4.69,7.75-7.51,16.14-9.56,24.97-.97,4.17-2.56,8.3-3.63,12.52-.84,3.3-1.99,6.58-2.34,9.93-.35,3.42-2.04,4.35-5.06,4.24-2.32-.09-4.64-.02-7.19-.02-2.22-10.92-4.5-21.69-6.58-32.5-2.14-11.1-4.67-22.11-6.43-33.31C4.69,21.96,1.84,11.33,0,0c3.1.81,5.65.96,7.61,2.12,3.21,1.89,6.74,1.86,9.42.46,2.96-1.55,5.38-.17,8.65-1.3-1,4.26-2.98,6.11-6.64,7.04,0,5.25-1.13,10.98.32,15.96,1.4,4.81.53,9.78,2.63,14.49,1.85,4.15,1.55,9.3,3.52,13.36,1.56,3.22.84,6.83,2.88,9.76,2.08,2.99,1.44,6.67,1.79,10.92,1.39-1.7,2.87-2.68,2.81-3.55-.5-7.38,2.98-14.12,3.3-21.36.07-1.63.95-3.22,1.5-4.82,3.71-10.77,5.9-21.98,9.38-32.82.51-1.6,1.01-3.23,1.7-4.76.3-.67,1.03-1.57,1.62-1.61,4.46-.3,8.58-2.74,13.13-2.08.83.12,1.6,1.3,2.2,2.13,3.25,4.55,6.44,13.58,8.01,20.12,1.35,5.61,3.2,11.15,5.33,16.52,2.43,6.12,5.3,11.97,5.67,18.79.17,3.24,1.94,6.39,3.53,9.53,2.34-8.07,4.01-16.11,5.89-24.1,1.33-5.66,1.45-11.62,4.03-17.05.81-1.7.19-4.04.51-6.04.31-1.9.97-3.75,1.53-5.61.42-1.38.98-2.73,1.36-4.12.44-1.64-.39-3.89,1.7-4.71,1.77-.7,3.77-.83,5.47-1.17,2.89,4.6-2.78,8.47,0,12.83.56-1.17,1.04-2.18,1.7-3.56.3.98.8,1.71.66,2.29-1.68,7.1-2.96,14.36-5.41,21.19-1.19,3.32.79,7.25-2.36,9.94.11,4.77-1.36,9.3-2.5,13.82-1.12,4.44-2.49,8.97-3.38,13.34-1.08,5.28-2.43,10.52-3.47,15.81-1.33,6.75-2.98,8.15-10.15,8.2-1.85-6.32-3.26-12.76-5.61-18.84-3.58-9.25-6.17-18.79-9.31-28.16-1.53-4.59-2.85-9.19-6.07-13.16-1.86-2.29-2.14-5.82-3.33-8.72-.45-1.1-1.46-1.97-2.33-3.08-3.44,4.32-4.22,9.13-3.83,14.26ZM107.58,21.76c.21-.21.38-.38.56-.56-.35-.17-.68-.41-1.05-.49-.13-.03-.34.32-.51.49.34.19.68.38,1.01.56Z"/>
      <path class="cls-1" d="M54.6,51.63c1.58,2.37,3.02,4.53,4.7,7.04,1.83-1.55,3.12-2.65,4.42-3.74.22.43.66.88.62,1.29-.4,4.22,1.13,8.59-1.42,12.68-.7,1.12-.65,3.34-.01,4.56,2.94,5.63.98,11.57,1.39,17.34.25,3.42-.54,3.84-5.4,4.68-2.27-6.26-1.27-13.82-7.03-18.03,0-1-.11-1.37.02-1.5.89-.94,1.84-1.83,2.64-2.62-2.19-6.79-.65-13.65-1.04-20.4-.03-.46.82-.96,1.11-1.28ZM56.78,76.13c.21.21.38.38.56.56.17-.35.41-.68.49-1.05.03-.13-.32-.34-.49-.51-.19.34-.38.68-.56,1.01Z"/>
      <path class="cls-1" d="M53.57,42.54c.78-.59,1.54-1.15,2.64-1.98v9c-1.21-3.22-1.97-5.24-2.64-7.02Z"/>
      <path class="cls-1" d="M112.51,14.11c-.57-.36-1.2-.59-1.19-.77.05-.69.3-1.37.48-2.05.34.2.97.38.98.59.04.68-.15,1.38-.27,2.23Z"/>
      <path class="cls-1" d="M55.9,50.24c.18.18.51.44.48.49-.18.34-.45.63-.69.94-.23-.23-.46-.46-.7-.7.3-.25.61-.49.91-.74Z"/>
    </g>
  </g>
</svg>