<?xml version="1.0" encoding="UTF-8"?>
<svg id="_레이어_2" data-name="레이어 2" xmlns="http://www.w3.org/2000/svg" viewBox="0 0 133.29 100">
  <defs>
    <style>
      .cls-1 {
        fill: #fff;
        stroke-width: 0px;
      }
    </style>
  </defs>
  <g id="_레이어_1-2" data-name="레이어 1">
    <g>
      <path class="cls-1" d="M94.06,98.85c-1.6-2.61-3.66-5.04-4.71-7.85-3.15-8.45-5.82-17.07-8.83-25.58-2.12-6.01-4.48-11.94-6.74-17.91-1.46-3.86-2.19-7.98-4.15-11.68-.39-.74-.06-1.86-.06-3.71,1.69,2.94,2.85,4.97,4.02,7,.3-.12.61-.24.91-.36-.72-2.03-.89-4.61-2.26-5.98-3.68-3.66-4.56-8.81-7.55-12.77.29-3.34-1.96-4.89-4.27-6.7-2.88-2.25-2.61-4.18.5-7.31.45.26,1.15.42,1.39.84,2.2,3.94,5.09,7.52,6.08,12.1.31,1.44,1.02,2.83,1.71,4.15,3.3,6.34,6.19,12.86,8.53,19.6.72,2.09,1.64,4.15.87,6.69-.7,2.3,1.77,4.03,3.35,4.11,3.13.14,3.34,2.46,3.69,4.18,1.58,7.65,5.26,14.48,8.08,21.64.14.35.55.58.97,1,2.46-1.31,3.32-3.76,4.51-6.09,2.76-5.41,3.73-11.43,6.02-16.99,4.58-11.11,6.99-23.02,12.56-33.76,2.3-.6-1.78-2.42.58-3.01-.52-3.5,2.21-6.01,2.79-9.21.54-2.96,1.49-5.86,2.4-8.74.81-2.54,2.81-3.2,4.97-1.71.66.45,1.14,1.57,1.75,1.61,2.88.18,2.23,2.43,1.43,3.31-2.25,2.46-2.32,5.59-3.49,8.34-2.65,6.21-5.02,12.54-7.6,18.78-1.15,2.77-2.03,5.7-3.51,8.27-1.54,2.67-2.04,5.69-3.07,8.47-1.21,3.28-2.51,6.27-4.54,9.11-1.97,2.76-2.48,6.46-5.24,8.76-1.2,1.01-1.52,2.17-1.47,3.68.17,4.89-1.48,9.47-2.89,14.02-1.05,3.38-2.95,6.48-4.37,9.75-.51,1.18-.7,2.5-1.04,3.75-.44.07-.89.15-1.33.22Z"/>
      <path class="cls-1" d="M51.73,41.82c-1.33,4.56-2.45,8.18-3.43,11.83-.55,2.02-.59,4.22-1.36,6.14-3.98,9.93-7.1,20.2-11.56,29.95-1.09,2.39-1.96,4.88-3.08,7.73-1.21-1.37-2.8-2.45-3.45-4.61-.59-1.97-2.11-3.52-2.03-5.9.07-2.25-.96-4.53-1.05-6.81-.1-2.59-1.39-4.73-2.03-7.11-.59-2.2-.8-4.58-1.8-6.56-1.74-3.43-1.88-7.29-3.49-10.75-1.5-3.22-2.35-6.75-3.8-10-1.54-3.47-2.04-7.44-3.76-10.61-3.56-6.56-5.06-13.77-7.79-20.56C1.9,11.61,1.08,8.51,0,5.19h7.06c3.34,2.48,4.6,6.88,6.34,10.83,1.67,3.77,2.59,7.87,3.72,11.86.41,1.44,2.7,2.95.07,4.53-.14.08.18,1.07.4,1.58,1.27,2.93,2.64,5.81,3.83,8.77.42,1.05.4,2.27.61,3.4.39,2.07.46,4.29,1.32,6.15.69,1.48,1.23,3.05,3.01,4.32,1.78,1.26,2.09,4.64,2.97,7.12,1.38,3.9,2.69,7.82,4.16,12.11,2.78-6.03,5.07-11.93,8.14-17.39,3.01-5.36,4.33-11.82,10.1-16.65Z"/>
      <path class="cls-1" d="M5.97,58.73v5.81c-.46-.23-.97-.36-.97-.5-.06-1.75-.04-3.51-.04-5.27.34-.01.67-.03,1.01-.04Z"/>
      <path class="cls-1" d="M6.38,71.75v-7.1c1.56,3.23.65,5.2,0,7.1Z"/>
      <path class="cls-1" d="M29.91,97.61c.28.24.66.44.8.75.24.51.32,1.09.46,1.64-.53-.13-1.25-.09-1.55-.43-.28-.31-.14-1.02-.11-1.55,0-.14.26-.28.4-.42Z"/>
      <path class="cls-1" d="M7.61,76.65v-3.23c.21-.02.41-.05.62-.07.15,1.06.31,2.13.46,3.2-.36.04-.72.07-1.08.11Z"/>
      <path class="cls-1" d="M49.89,39.56c.42-1.48.63-2.22.84-2.95.19.57.44,1.13.53,1.71.02.17-.43.42-1.37,1.24Z"/>
      <path class="cls-1" d="M56.35,28.51c.16-.16.3-.3.43-.43.14.27.32.53.38.82.02.1-.25.27-.38.4-.15-.26-.29-.53-.43-.78Z"/>
      <path class="cls-1" d="M60.61,31.55c-.26-.14-.52-.29-.79-.43.14-.14.3-.4.4-.38.29.06.55.25.82.38-.14.14-.27.27-.43.43Z"/>
      <path class="cls-1" d="M53.73,33.56c-.27.14-.53.32-.82.38-.1.02-.27-.25-.4-.38.27-.14.53-.32.82-.38.1-.02.27.25.4.38Z"/>
      <path class="cls-1" d="M52,35.49c.14.14.4.34.38.39-.14.26-.35.49-.54.73-.18-.18-.36-.36-.54-.54.24-.19.47-.38.71-.58Z"/>
      <path class="cls-1" d="M54.52,37.65c-.26-.14-.52-.29-.79-.43.14-.14.3-.4.4-.38.29.06.55.25.82.38-.14.14-.27.27-.43.43Z"/>
      <path class="cls-1" d="M52.95,39.22c.26.14.52.29.79.43-.14.14-.3.4-.4.38-.29-.06-.55-.25-.82-.38.14-.14.27-.27.43-.43Z"/>
      <path class="cls-1" d="M52,41.58c.14.14.4.34.38.39-.14.26-.35.49-.54.73-.18-.18-.36-.36-.54-.54.24-.19.47-.38.71-.58Z"/>
      <path class="cls-1" d="M119.13,46.18c-.26-.14-.52-.29-.79-.43.14-.14.3-.4.4-.38.29.06.55.25.82.38-.14.14-.27.27-.43.43Z"/>
      <path class="cls-1" d="M9.41,79.1c-.25-.14-.52-.29-.78-.43.14-.14.3-.4.4-.38.29.06.55.25.82.38-.14.14-.27.27-.43.43Z"/>
    </g>
  </g>
</svg>