<?xml version="1.0" encoding="UTF-8"?>
<svg id="_레이어_2" data-name="레이어 2" xmlns="http://www.w3.org/2000/svg" viewBox="0 0 156.89 100">
  <defs>
    <style>
      .cls-1 {
        fill: #fff;
        stroke-width: 0px;
      }
    </style>
  </defs>
  <g id="_레이어_1-2" data-name="레이어 1">
    <g>
      <path class="cls-1" d="M104.57,59.56c-2.29-.56-.74-2.39-1.11-3.65q1.18-1.46.07-3.43c0,1.33,0,2.43-.07,3.43-2.65-1.89-3-5.22-4.7-7.77-.93-1.4-.3-3.5,2.31-3.06-.09-.9.01-1.49-.19-1.63-4.04-2.69-3.89-7.51-5.79-11.28-.49-.98-.7-2.1-1.22-3.05-3.01-5.47-5.17-11.31-7.62-17.03-.43-1.01-.38-2.21-.7-3.28-.31-1.05-.81-2.04-1.39-3.46,2.72-.44,5.3-.85,8.24-1.32.51,2.38,1.01,5.19,3.38,6.92,2.29,1.68,1.17,5.37,4.16,6.36-1.48,3.72-1.8,4.98.27,8.63,1.94,3.42,2.48,7.28,4.3,10.71,1.8,3.39,3.12,7.02,4.02,10.8.89,3.75,2.55,7.37,3.06,11.16.86,6.31,3.59,12.04,5.07,18.14.34,1.39.84,2.82.97,4.31.2,2.24.12,4.4.93,6.72.73,2.08-.73,4.93-1.29,7.81-2.6-7.23-4.88-13.99-7.47-20.64-1.46-3.76-1.28-8.08-3.98-11.44-.2-.25.59-1.26.87-1.93.4-.98.58-1.91-.93-2.02,0-.39.05-.79-.01-1.16-.06-.35-.24-.67-.37-1.01-.27.33-.62.63-.77,1.01-.13.34-.03.77-.03,1.15ZM94.54,22.74h.53c-.11-.31-.17-.65-.36-.9-.06-.07-.47.12-.72.2.18.23.37.47,1.08.7-.06,3.98.71,7.68,3.97,13.5.46-.84.83-1.26.74-1.42-.29-.52-.75-.94-1.15-1.39.11.78.22,1.55,0,0-.22-2.89-1.97-8.14-4.09-10.69ZM93.64,14.39c.09-.64.23-1.17.2-1.69,0-.16-.48-.3-.74-.45-.14.52-.33,1.03-.37,1.55,0,.14.47.31.9.59ZM101.43,39.2c.25-.14.51-.28.76-.42-.13-.13-.29-.39-.39-.37-.28.06-.53.24-.8.37.13.13.26.26.42.42Z"/>
      <path class="cls-1" d="M53.51,73.81c2.45-2.3,2.4-5.31,2.72-8.86.12-.36-.11-.17-.35.02.18.18.35.35.53.53.18-.23.39-.46.53-.72.02-.04-.23-.24-.71.17-4.05,2.36-5.23,6-6.2,9.47-1.32,4.75-4.21,8.82-5.45,13.57-.14.53-1.16.84-1.77,1.25-.99-8.2,2.74-16.88,7.73-25.03,2.4-3.92,4.47-8.1,3.97-13.02.03.03.23.11.43.18,1.1-2.39,2.85-4.71,3.14-7.2.34-2.91,4.66-4.76,2.11-8.2-2.12.17-1.12,3.7-3.73,3.42-.08,0-.37.73-.32.77,2.16,1.46-.02,2.61-.28,3.87-.48,2.37-1.02,4.73-1.35,7.15-1.8.25-.54,1.93-1.07,2.71-.35.52-1.3.64-2.11.99.38-2.74.6-4.94,1.01-7.11.23-1.25,1.08-2.43,1.09-3.65.03-2.31,1.5-4.16,1.43-6.61-.06-2.21,1.56-4.42,2.15-6.71.56-2.16,1.7-4.2,1.3-6.6-.09-.57.56-1.33.99-1.91,1.24-1.65,2.06-3.38,2.61-5.44.66-2.47,1.91-4.92,4.64-5.99-.13,1.12-.06,2.3-.42,3.33-.9,2.6-2.22,5.05-2,7.95.05.64-.31,1.58-.8,1.95-2.37,1.81-1.05,4.73-2.21,6.87,1.38,1.08-.74,1.41-.47,2.13.21.57.75,1.01,1.15,1.51.1,1.5,1.13,1.46,1.96.9.5-.34.53-1.31.87-1.94,2.51-4.67,4.1-9.69,5.42-14.78.79-3.06.46-3.19,3.85-5.9-.73,2.67.77,4.92-1.35,6.98-.49.47-.07,1.88-.07,2.86-1.78.1-1.01,1.47-1.19,2.38-1.9,2.01-2.46,4.46-2.38,7.13-4.15,3.85-5.92,8.68-5.94,14.25-1.78.1-1.01,1.47-1.19,2.64,0,.09,0-.09,0-.26-.31.11-.65.17-.9.36-.07.06.12.47.2.72.23-.18.47-.37.7-.81,1.78-.37,1.01-1.74,1.19-2.64.4-.49,1.04-.94,1.15-1.49.63-3.27,2.14-5.97,4.79-8.01.2,2.71-.64,5.34-2.15,7.32-2.25,2.94-3.01,6.5-3.56,9.7-1,5.88-2.57,11.49-5.05,16.81-2.32,4.96-3.99,10.13-5.86,15.25-.5,1.36-.93,2.76-1.57,4.06-.13.28-.99.21-2.38.44,2.08-2.09,1.48-4.13,1.57-6.08,2.29-.56.74-2.39,1.19-3.56,1.9-2.01,2.46-4.46,2.38-7.13ZM61.4,52.6c-.25.14-.51.28-.76.42.13.13.29.39.39.37.28-.06.53-.24.8-.37-.13-.13-.26-.26-.42-.42ZM60.04,54.81c-.13.13-.39.29-.37.39.06.28.24.53.37.8.13-.13.39-.29.37-.39-.06-.28-.24-.53-.37-.8Z"/>
      <path class="cls-1" d="M30.95,90.43c-3.18-3.19-3.83-7.69-5.94-11.44-.1-7.62-4.56-13.98-6.18-21.22-.93-4.17-2.19-8.45-4.38-12.41-2-3.63-2.66-7.98-4.29-11.86-1.71-4.08-3.16-8.2-4.25-12.5-.48-1.9-1.73-3.66-2.85-5.33C.15,11.37-.46,6.65.3,1.37c1.24,0,2.42-.16,3.54.03,2.04.35,4.35-1.04,6.12.95,1.82-.72,3.6-1.6,5.48-2.12,1.1-.31,2.45-.33,3.52.03.95.32,2.14,1.21,2.4,2.09.67,2.33.9,4.79,1.28,7.2,1.16,7.32,2.39,14.54,5.83,21.33,3.12,6.18,5.47,12.77,7.84,19.29,1.01,2.77,1.22,5.83,1.76,8.77.37,2,.68,4.02,1.16,6.83-1.62-1.49-3.17-2.16-3.54-4.2-1.59-8.93-4.45-17.47-8.76-25.43-.92-1.71-.44-3.3-1.06-4.92-1.77-4.62-3.16-9.38-4.69-14.08-.34-1.05-.79-2.1-.9-3.18-.49-5.15-2-6.78-7.08-7.87-1.51-.32-2.91-2.35-4.37.04-2.77-.95-2.68,1.97-3.88,2.87,2.37,4.46,4.64,8.79,4.77,14.14.07,3,1.46,6.07,2.69,8.91,2.47,5.72,3.02,12.16,6.66,17.42-.66,3.5,1.47,6.16,3.04,8.81,1.25,2.13.11,4.35,1.31,6.63,1.03,1.96,2.05,4.27,2.1,7.97.22.63.67.39.65.23-.08-.57-.33-1.11-.51-1.66-.2.72-.41,1.43-.13,1.44,3.23-1.09.7,2.1,2.95,2.61-.58,5.22,2.21,9.88,2.49,14.96Z"/>
      <path class="cls-1" d="M124.4,98.89c-2.28-8.25-2.34-8.28.7-16.48,2.3-6.22,4.25-12.53,5.65-19.02.58-2.68,1.28-5.61,2.51-7.82,3.58-6.41,4.31-13.64,6.91-20.29,2.2-5.64,4.09-11.4,5.45-17.32.82-3.58,2.06-7.08,2.85-10.67.69-3.12,1.62-4.08,4.64-3.5,1.22.24,2.34,1,3.78,1.65-1.48,3.46-2.9,6.98-4.49,10.41-1.32,2.84-1.53,6.32-4.59,8.18.41,1.64.28,3.08-.4,4.78-2.6,6.48-3.42,13.52-5.96,20.07-2.39,6.14-4.26,12.47-6.33,18.73-1.73,5.25-3,10.63-4.47,15.95-1.37,4.94-3.12,9.77-4.79,14.62-.12.36-.94.48-1.46.72Z"/>
      <path class="cls-1" d="M97.45,76.18c2.2,1.6,1.93,4.47,3.32,6.61,1.31,2.01,1.02,5.05,1.43,7.64-2.31-2.52-3.6-5.7-5.44-8.53-.49-.75-.21-2.09-.08-3.13.11-.88.51-1.73.78-2.59Z"/>
      <path class="cls-1" d="M59.55,80.86c-.36,4.51-4.23,17.35-5.55,19.05-.15.19-.74.03-1.32.03.7-2.05,1.46-3.97,1.99-5.95.53-1.97.59-4.09,1.28-5.98.78-2.14,2.03-4.1,3.6-7.15Z"/>
      <path class="cls-1" d="M90.32,52.43c2.15,2.56,2.24,5.94,3.57,8.82.97,2.11,1.38,4.3,1.18,6.61-2.15-2.56-2.24-5.94-3.57-8.82-.97-2.11-1.38-4.3-1.18-6.61Z"/>
      <path class="cls-1" d="M81.84,25.05c-1.61-.27-.54-3.02-2.71-2.31-.03-.4-.23-1.02-.06-1.16,1.69-1.31-.6-2.21-.3-3.3.34-1.23.82-2.41,1.47-3.66-.07,3.53,2.45,6.68,1.6,10.43Z"/>
      <path class="cls-1" d="M80.47,5.17c1.04,1.96.09,3.3-1.47,4.52-.92-.99-1.85-1.99-2.8-3.01.97-1.54,2.34-2.28,4.27-1.51Z"/>
      <path class="cls-1" d="M95.07,67.87c2.45,2.3,2.4,5.31,2.38,8.31-3.03-2.13-2.3-5.34-2.38-8.31Z"/>
      <path class="cls-1" d="M71.32,29.87c-.04,2.63.47,5.43-2.38,7.13v-4.75c.4-.49.76-1.02,1.2-1.47.34-.35.78-.61,1.18-.91Z"/>
      <path class="cls-1" d="M72.51,22.74h1.19c.09,2.67-.48,5.12-2.38,7.13v-4.75c1.78-.1,1.01-1.47,1.19-2.38Z"/>
      <path class="cls-1" d="M87.54,40.54c.59,2.24,1.19,4.48,1.78,6.72q-2.5-3.05-1.78-6.72Z"/>
      <path class="cls-1" d="M101.8,90.57c1.5,1.74,3.61,3.2,2.11,6.24-.83-2.45-1.47-4.34-2.11-6.24Z"/>
      <path class="cls-1" d="M38.5,66.37c.85,1.71,1.51,3.03,2.3,4.63q-2.49-1.13-2.3-4.63Z"/>
      <path class="cls-1" d="M60.63,79.75c0-1.12-.12-2.26.05-3.35.08-.52.74-.94,1.13-1.4,0,1.12.12,2.26-.05,3.35-.08.52-.74.94-1.13,1.4Z"/>
      <path class="cls-1" d="M61.97,75.3v-4.86c.43.14.92.26.92.3-.21,1.45.98,3.27-.92,4.56Z"/>
      <path class="cls-1" d="M69.99,39.4c3.69-.1,2.17,1.98,2.49,4.41-1.1-1.95-1.66-2.94-2.49-4.41Z"/>
      <path class="cls-1" d="M85.57,36.99c2.29.56.74,2.39,1.19,3.56-2.29-.56-.74-2.39-1.19-3.56Z"/>
      <path class="cls-1" d="M64.05,65.68v3.34q-1.1-1.97,0-3.34Z"/>
      <path class="cls-1" d="M74.89,20.37c0,.18-.06.39.01.54.26.53.57,1.04.86,1.56-.69.09-1.37.19-2.06.28.18-.9-.59-2.27,1.19-2.38Z"/>
      <path class="cls-1" d="M85.57,36.99c-2.29-.56-.74-2.39-1.19-3.56,2.29.56.74,2.39,1.19,3.56Z"/>
      <path class="cls-1" d="M83.98,30.62c.18,1.26.29,2.04.4,2.81-.4-.46-.86-.88-1.15-1.39-.09-.16.29-.58.74-1.42Z"/>
      <path class="cls-1" d="M89.92,49.62c.18,1.26.29,2.04.4,2.81-.4-.46-.86-.88-1.15-1.39-.09-.16.29-.58.74-1.42Z"/>
      <path class="cls-1" d="M66.77,60.18c-.43,1.51-.63,2.22-.84,2.94-.18-.55-.43-1.1-.51-1.66-.02-.17.42-.41,1.35-1.27Z"/>
      <path class="cls-1" d="M64.2,65.5c.18-.9-.59-2.27,1.19-2.38-.18.9.59,2.27-1.19,2.38Z"/>
      <path class="cls-1" d="M53.11,71c.18,1.26.29,2.04.4,2.81-.4-.46-.86-.88-1.15-1.39-.09-.16.29-.58.74-1.42Z"/>
      <path class="cls-1" d="M50.73,78.12c.18,1.26.29,2.04.4,2.81-.4-.46-.86-.88-1.15-1.39-.09-.16.29-.58.74-1.42Z"/>
      <path class="cls-1" d="M60.63,79.75c-.18.9.59,2.27-1.19,2.38.18-.9-.59-2.27,1.19-2.38Z"/>
      <path class="cls-1" d="M48.76,84.5c0-.39-.1-.82.03-1.15.15-.38.51-.68.77-1.01.13.33.31.66.37,1.01.07.38.01.77.01,1.16h-1.19Z"/>
      <path class="cls-1" d="M32.13,92.81c-1.78-.1-1.01-1.47-1.19-2.38,1.78.1,1.01,1.47,1.19,2.38Z"/>
      <path class="cls-1" d="M32.13,92.81c1.78.1,1.01,1.47,1.19,2.38-1.78-.1-1.01-1.47-1.19-2.38Z"/>
      <path class="cls-1" d="M76.26,17.49c-.41,1.45-.61,2.16-.82,2.88-.18-.55-.43-1.1-.51-1.66-.02-.17.42-.41,1.33-1.21Z"/>
      <path class="cls-1" d="M67.26,9.78c.14.14.39.33.37.38-.14.26-.34.48-.53.71-.18-.18-.35-.35-.53-.53.23-.19.46-.37.69-.56Z"/>
      <path class="cls-1" d="M79.46,11.63c-.16.16-.29.29-.42.42-.13-.26-.31-.52-.37-.8-.02-.1.24-.26.37-.39.14.26.29.52.42.77Z"/>
      <path class="cls-1" d="M76.07,13.84c-.26.13-.52.31-.8.37-.1.02-.26-.24-.39-.37.26-.13.52-.31.8-.37.1-.02.26.24.39.37Z"/>
      <path class="cls-1" d="M100.42,20.37c.13.26.31.52.37.8.02.1-.24.26-.37.39-.13-.26-.31-.52-.37-.8-.02-.1.24-.26.37-.39Z"/>
      <path class="cls-1" d="M62.51,33.53c.14.14.39.33.37.38-.14.26-.34.48-.53.72-.18-.18-.35-.35-.53-.53.23-.19.46-.37.69-.56Z"/>
      <path class="cls-1" d="M105.76,59.56c-.27.33-.53.66-.8.98-.13-.33-.26-.66-.39-.98h1.19Z"/>
      <path class="cls-1" d="M52.15,75.42c-.14.25-.28.51-.42.76-.13-.13-.39-.29-.37-.39.06-.28.24-.53.37-.8.13.13.26.26.42.42Z"/>
      <path class="cls-1" d="M48.76,85.03c-.23.18-.47.37-.7.55-.07-.25-.27-.66-.2-.72.25-.19.59-.25.9-.36,0,.18,0,.35,0,.53Z"/>
      <path class="cls-1" d="M42.82,89.78c-.23.18-.47.37-.7.55-.07-.25-.27-.66-.2-.72.25-.19.59-.25.9-.36,0,.18,0,.35,0,.53Z"/>
    </g>
  </g>
</svg>