<?xml version="1.0" encoding="UTF-8"?>
<svg id="_레이어_2" data-name="레이어 2" xmlns="http://www.w3.org/2000/svg" viewBox="0 0 152.63 100">
  <defs>
    <style>
      .cls-1 {
        fill: #fff;
        stroke-width: 0px;
      }
    </style>
  </defs>
  <g id="_레이어_1-2" data-name="레이어 1">
    <g>
      <path class="cls-1" d="M150.52,25.01c-.56,2.6-.81,5.22-1.71,7.6-2.05,5.41-4.2,10.79-6.7,16-3.3,6.88-7.79,13.08-11.86,19.52-4.84,7.66-10.57,14.68-15.35,22.4-2,3.22-5.6,5.46-8.8,8.45-1-.86-2.31-1.98-3.13-2.7.49-5.76,4.9-8.56,7.78-12.22,6.87-8.72,11.88-18.3,15.52-28.68.38-1.09.05-2.43.05-3.87-4.93,2.15-7.98,5.67-10.07,10.23-.49,1.07-1.46,2.12-2.49,2.69-4.71,2.61-6.06,7.38-7.35,11.89-1.12,3.93-2.64,7.82-2.74,12.07-.04,1.93-1.2,3.84-2.27,7-1.81-3.71-3.05-6.22-4.27-8.75-4.28-8.87-8.83-17.62-12.74-26.65-2.76-6.36-4.72-13.07-6.86-19.69-.43-1.32-.06-2.9-.06-4.71,3.1-2.5,5.36-6.29,9.6-8.45.6,3.93,1.08,7.47,1.71,10.97.16.92.78,1.75,1.22,2.62,2.96,5.87,5.67,11.89,9,17.54,1.51,2.56,2.38,4.94,2.35,7.84,0,.85.88,1.7,1.73,3.2.79-1.98,1.62-3.39,1.9-4.91.4-2.19-.29-4.81.68-6.6,2.23-4.14,4.77-8.26,7.92-11.72,5.89-6.47,12.12-12.67,18.58-18.59,3.7-3.4,8.12-6.01,13.07-8.32-.33.79-.63,1.59-1.01,2.36-1.36,2.78-3.01,5.45-4.02,8.34-.91,2.6-2.49,4.52-4.38,6.33-2.07,1.99-3.51,4.24-3.14,7.55,2.88.15,5.29.1,6.22-3.1.05-.18.27-.32.43-.44,5.14-3.89,7.48-9.66,10.2-15.18.04-.08.4-.01,1-.01Z"/>
      <path class="cls-1" d="M0,18.74c1.29,0,2.52.16,3.69-.04,1.77-.29,2.9.72,3.57,1.92,3.57,6.46,7.88,12.36,12.82,17.86,1.53,1.7,2.53,3.92,3.57,6,2.75,5.5,6.69,10.23,10.36,15.04,2.73,3.57,3.76,7.01,3.37,11.17-.31,3.25.74,5.91,3.06,8.14,2.14-2.14,1.34-5.69,3.92-7.72.83-.66-1.79-2.33.14-3.91,1.05-.86,1.26-2.75,1.85-4.17s1.17-2.85,1.77-4.27c.6-1.42,1.06-2.92,1.83-4.24,1.54-2.62,1.45-5.48,1.16-8.25-.39-3.65-1.24-7.25-1.92-10.99,3.14-1.87,4.22,2.76,6.94,2.83,1.32,4.23,5.74,6.03,7.64,9.96,1.6,3.31,4.27,6.11,6.82,9.62-3.25,2.71-5.34,6.28-9.4,7.96,0,1.39.27,2.91-.09,4.25-.27,1.02-1.18,2.22-2.12,2.61-1.3.55-1.23-.83-1.68-1.74-.56-1.13-3.56-.83-3.49.07.22,3.21-4.38,2.19-4.13,5.13-1.15-.1-2.31-.2-3.62-.31.17.61.32,1.16.48,1.71l1.47,5.23c.15.15.44.41.42.43-1.57,1.9-.42,4.36-1.19,6.22-.52,1.26-.59,3.79-3.15,3.59-1.51,2.55-5.93,2.14-5.72,7.16-3.29-6.38-6.21-11.63-8.76-17.06-5.41-11.51-11.13-22.92-15.74-34.76-2.52-6.46-4.57-13.12-7.83-19.28-1.79-3.38-3.9-6.59-6.04-10.17ZM50.72,72.43c.17-.17.31-.31.45-.45-.28-.14-.55-.33-.84-.39-.1-.02-.27.25-.41.39.27.15.54.3.81.45Z"/>
      <path class="cls-1" d="M104.14,34.45c-2.03,1.83-3.7,3.08-5.37,4.33.29-.92.31-2.12.92-2.71,3.63-3.49,6.23-7.62,8.36-12.15,1.4-2.97,3.16-5.77,4.81-8.61.62-1.07,2.27-1.97,4.32-2.59-1.27,4.75-4.69,8.79-4.63,13.98-1.91,2.25-2.44,5.29-4.63,7.49-1.41,1.42-2.02,3.68-2.84,5.63-.15.36.54,1.01.64,1.56.28,1.51.45,3.05.45,4.6q-2.4-4.87-2.03-11.53c.12-.38-.12-.18-.36.02.19.19.37.37.56.56.19-.25.41-.48.56-.75.03-.05-.24-.25-.75.18Z"/>
      <path class="cls-1" d="M64.15,10.75c2.37,3.38,3.63,6.53,2.86,10.26-.1-3.48-4.38-5.76-2.86-10.26Z"/>
      <path class="cls-1" d="M91.25,18.74c-.2-1.94.53-3.27,2.51-3.76.2,1.94-.53,3.27-2.51,3.76Z"/>
      <path class="cls-1" d="M98.7,7.46c.67-1.24,1.32-2.45,2.22-4.11.33,2.35,1.39,4.53-2.22,4.11Z"/>
      <path class="cls-1" d="M61.19,3.71c2.41.59.78,2.53,1.25,3.76-2.41-.59-.78-2.53-1.25-3.76Z"/>
      <path class="cls-1" d="M60.18,3.73c-.06-1.22-.12-2.44-.17-3.65.28-.03.56-.05.84-.08.16,1.23.32,2.46.48,3.69-.38.01-.76.03-1.15.04Z"/>
      <path class="cls-1" d="M62.87,10.43c-.19-1.33-.31-2.15-.43-2.97.42.48.9.93,1.21,1.47.09.17-.3.61-.79,1.5Z"/>
      <path class="cls-1" d="M97.52,9.97c.19-.95-.62-2.4,1.25-2.51-.19.95.62,2.4-1.25,2.51Z"/>
      <path class="cls-1" d="M95.01,13.73c.19-.95-.62-2.4,1.25-2.51-.19.95.62,2.4-1.25,2.51Z"/>
      <path class="cls-1" d="M106.46,48.36c.15-.26.3-.53.45-.81.14.14.41.31.39.41-.07.29-.25.56-.39.84-.14-.14-.28-.28-.45-.45Z"/>
      <path class="cls-1" d="M98.77,39.34c-.25.19-.49.39-.74.58-.08-.26-.29-.7-.21-.76.26-.2.62-.26.95-.38,0,.19,0,.37,0,.56Z"/>
      <path class="cls-1" d="M150.86,23.86c.15.14.41.35.39.4-.15.27-.36.51-.56.75-.19-.19-.37-.37-.56-.56.24-.2.49-.4.73-.59Z"/>
      <path class="cls-1" d="M91.25,19.3c-.25.19-.49.39-.74.58-.08-.26-.29-.7-.21-.76.26-.2.62-.26.95-.38,0,.19,0,.37,0,.56Z"/>
      <path class="cls-1" d="M152.63,18.12c-.28.14-.55.33-.84.39-.1.02-.27-.25-.41-.39.28-.14.55-.33.84-.39.1-.02.27.25.41.39Z"/>
      <path class="cls-1" d="M95.01,13.73c-.42.42-.84.84-1.25,1.25.42-.42.84-.84,1.25-1.25Z"/>
      <path class="cls-1" d="M96.26,11.23c.42-.42.84-.84,1.25-1.25-.42.42-.84.84-1.25,1.25Z"/>
    </g>
  </g>
</svg>