<?xml version="1.0" encoding="UTF-8"?>
<svg id="_레이어_2" data-name="레이어 2" xmlns="http://www.w3.org/2000/svg" viewBox="0 0 126.53 100">
  <defs>
    <style>
      .cls-1 {
        fill: #fff;
        stroke-width: 0px;
      }
    </style>
  </defs>
  <g id="_레이어_1-2" data-name="레이어 1">
    <g>
      <path class="cls-1" d="M84.8,68.08c.62-2.66.67-4.5,1.45-5.95,2.58-4.8,3.94-10.07,7.47-14.59,3.9-4.99,6.5-11.09,9.19-16.92,3.81-8.29,10.3-13.94,17.86-19.55.91,3.13,1.06,5.25-1.09,7.86-4.33,5.26-7.54,11.33-11.8,16.74-3.28,4.17-5.17,9.52-7.23,14.53-5.1,12.37-11.47,24.08-17.83,35.81-4.36,2.78-5.15,8.16-9.41,12.87.35-2.75.23-4.4.79-5.76,1.31-3.19,2.85-6.3,4.49-9.33,1.61-2.96,1.24-5.61.05-8.71-5.81-15.1-15.57-28.13-22.17-42.81-.29-.65-1.08-1.07-1.66-1.62-1.33,2.7-2.63,5.36-3.94,8.02-.9,1.81-1.93,3.46-1.67,5.75.47,4.15-1.49,7.76-3.07,11.49-2.41,5.67-5.04,11.22-6.71,17.23-1.58,5.67-4.92,10.71-6.88,16.35-.74,2.13-.24,4.12-.93,6-.56,1.53-1.58,2.88-2.51,4.51-2.98-3.34-5.49-6.14-7.95-8.89-.76-2.62-1.55-5.23-2.29-7.86-2.15-7.65-4.33-15.28-6.39-22.95-2.2-8.16-3.88-16.49-6.57-24.49-1.57-4.67-2.49-9.54-4.46-14.14-1.06-2.48-.04-5.8-.24-8.71-.15-2.22-.76-4.4-1.31-7.32,1.92-.79,4.32-1.78,6.87-2.83,4.3,13.84,7.82,27.26,11.85,40.53,2.01,6.61,3.24,13.58,5.06,20.33.97,3.58,2.01,7.16,3.25,10.66.37,1.06,1.51,1.84,2.36,2.82,2.19-8.24,4.3-16.17,6.4-24.11,1.96-7.42,5.22-14.58,6.79-21.9,1.94-9.07,3.96-18.05,6.84-26.85.51-1.55,1.53-2.93,2.25-4.27,5.17,1.37,5.87,5.99,6.91,9.01,2.91,8.43,7.14,16.26,10.04,24.66,2.5,7.22,5.39,14.3,7.93,21.51,1.61,4.57,3.23,9.07,8.25,12.9Z"/>
      <path class="cls-1" d="M62.5,59.47c-.07-1.56-.15-3.11-.22-4.67.36-.03.71-.06,1.07-.1.21,1.57.41,3.14.62,4.72-.49.02-.98.03-1.47.05Z"/>
      <path class="cls-1" d="M126.53,7.47c-.51,1.22-.69,1.66-.88,2.1-.35-.46-.86-.87-1-1.39-.1-.37.31-.87.49-1.3.57.24,1.13.48,1.38.59Z"/>
      <path class="cls-1" d="M55.45,40.17c-.59-.37-1.23-.6-1.22-.79.05-.71.31-1.4.49-2.1.35.2.99.38,1,.6.04.7-.15,1.41-.27,2.28Z"/>
      <path class="cls-1" d="M65.25,60.37c-.19.19-.45.53-.51.49-.35-.19-.65-.46-.96-.71.24-.24.48-.48.71-.71.25.31.51.62.76.93Z"/>
    </g>
  </g>
</svg>