<?xml version="1.0" encoding="UTF-8"?>
<svg id="_레이어_2" data-name="레이어 2" xmlns="http://www.w3.org/2000/svg" viewBox="0 0 92.57 100">
  <defs>
    <style>
      .cls-1 {
        fill: #fff;
        stroke-width: 0px;
      }
    </style>
  </defs>
  <g id="_레이어_1-2" data-name="레이어 1">
    <g>
      <path class="cls-1" d="M2.09,26.38c-.23,0-.66.03-.66,0C.6,21.45-.19,16.51.04,11.22c.68,1.35,1.37,2.69,2.04,4.05.77,1.56,1.18,3.19,1.61,4.89.81,3.26,2.46,6.33,3.97,9.38,4.33,8.8,7.43,19.8,8.36,26.26.06.42.87.74,1.33,1.1,0,1.31-.14,2.64.06,3.91.1.6.86,1.1,1.84,1.64.31,0,.1.02-.11.02v5.42c.21,0,.42-.01.62-.02,0-1.81,0-3.62-.51-5.43-.51-1.3-.37-2.63-.58-3.91-.1-.6-.86-1.1-1.32-1.64.89-3.68-1.06-6.99-1.43-10.51-.34-3.28.64-6.51-1.12-9.94-1.38-2.68-.79-6.38-1.09-9.85.33-.04,1.41-.36,1.53-.15,1.65,3.02,2.9,6.21,3.51,9.63.46,2.58-.72,5.19,1.2,7.87,1.21,1.7.44,4.53,1.33,7.01,1.45,4.03,1.38,8.6,2.12,14.17,1.5-2.02,2.65-2.99,3.03-4.19,2.31-7.35,5.88-14.21,8.06-21.64,1.28-4.38,1.07-8.23-.52-12.18-1.19-2.97-3.33-5.67-3.99-8.72-1.06-4.95-1.26-10.09-1.84-15.4h5.78c-.11,3.44.53,6.88,3.72,9.64,1.01-2.47.43-4.92.49-7.27.06-2.46,1.2-3.35,3.5-4.07,2.81-.88,5.5-1.6,8.51-1.17.63,3.41,1.34,6.83,1.89,10.27.55,3.49.35,7.24,1.59,10.44,1.04,2.67.47,5.43,1.38,7.74,1.04,2.64.9,5.2,1.27,7.81.46,3.2,1.37,6.34,2.12,9.51.15.62.52,1.21.58,1.83.5,5.58.87,11.18,1.45,16.75.22,2.14,1,4.22,1.32,6.37.31,2.16.65,4.27,1.17,6.41,1.3,5.36,1.33,11.02,1.98,17.64-1.59-.83-2.86-1.08-3.03-1.65-.99-3.41-2.02-6.85-1.47-10.49-2.74-3.58-2.67-8.13-4.03-12.18-2.74-8.14-4.51-16.6-7.16-24.78-1.43-4.4-2.69-8.74-2.85-13.43-1.25-.77-1.4.67-1.94,1.09-.42.33-.42,1.18-.67,1.76-3.42,7.87-6.36,15.86-8.53,24.23-1.26,4.84-2.21,10.08-5.92,14.2-1.77,1.97-2.39,4.97-3.54,7.49-.53,1.17-1.09,2.33-1.55,3.3-1.75-1.72-3.31-3.25-5.43-5.34-.37-2.8.32-6.55-1.17-10.31-.73-1.83-.86-3.84-2.54-5.19-1.32-1.06-1.74-2.35-1.98-4.07-.2-1.43-1.7-2.68-2.63-4.01,0-1.31.14-2.64-.06-3.91-.1-.6-.86-1.1-1.32-1.64-.21-1.05.69-2.66-1.39-2.77v-4.16c.46,0,.92,0,1.62,1.64.77.66,1.21.17,1.11-.01-.34-.6-.88-1.09-1.34-1.63.13.91.26,1.81.24,1.64-.76-3.01,1.05-5.15-1.62-5.8-.04-3.07.54-6.35-2.77-8.32-.53-1.37,1.29-3.51-1.39-4.16,0-.45.06-.92-.02-1.36-.07-.41-.28-.79-.44-1.18-.31.39-.73.74-.9,1.19-.15.39-.03.89-.03,1.35ZM40.24,19.63c.02,4.19-5.12,7.27-2.96,12.44,2.08-4.01,4.77-7.5,2.96-12.44Z"/>
      <path class="cls-1" d="M85.83,14.02h5.92c1.77,3.53.3,7.1-1.1,9.63-2.68,4.84-2.72,10.37-5.26,15.16-2.4,4.51-4.34,9.27-6.33,13.98-1.82,4.33-3.26,8.85-4.64,13.29-1.95,6.24-5.24,11.97-6.44,18.47-1.54-6.38,1.24-11.99,2.64-17.87,1.7-7.15,4.28-14.01,5.27-21.44.98-7.34,3.12-14.69,6-21.67,1.3-3.15,2.61-6.3,3.95-9.56Z"/>
      <path class="cls-1" d="M11.8,69.39c3.83,9.63,5.16,19.72,8.29,29.35.09.28-.38.74-.68,1.26-2.87-.27-3.41-3.13-3.25-4.65.38-3.74-1.15-7.04-1.76-10.48-.54-3.08-.76-6.35-2.44-9.34-.89-1.58-.16-4.06-.16-6.14Z"/>
      <path class="cls-1" d="M10.41,55.52v8.32c-2.95-.93-.8-3.43-1.53-5.09-1.1-2.49-2.02-5.12-2.51-7.79-.2-1.11-1.4-3.31,1.27-3.77.21,1.05-.69,2.66,1.39,2.77,0,1.31-.14,2.64.06,3.91.1.6.86,1.1,1.32,1.64Z"/>
      <path class="cls-1" d="M7.64,43.03c-3.03-1.43-2.4-4.75-3.49-7.14-1.32-2.92-2.63-6.07-2.06-9.51h1.39c.53,1.37-1.29,3.51,1.39,4.16-.1,3.12.56,5.98,2.77,8.32v4.16Z"/>
      <path class="cls-1" d="M11.8,69.39c-.46-.54-1.23-1.04-1.32-1.64-.21-1.27-.06-2.6-.06-3.91.46.54,1.23,1.04,1.32,1.64.21,1.27.06,2.6.06,3.91Z"/>
      <path class="cls-1" d="M74.46,88.16c-.5,1.76-.74,2.6-.98,3.43-.22-.65-.51-1.28-.6-1.94-.03-.2.49-.48,1.58-1.49Z"/>
      <path class="cls-1" d="M71.45,94.36c.21-1.05-.69-2.66,1.39-2.77-.21,1.05.69,2.66-1.39,2.77Z"/>
      <path class="cls-1" d="M71.45,94.98c-.27.21-.55.43-.82.64-.09-.29-.32-.77-.23-.84.29-.22.69-.29,1.05-.42v.62Z"/>
    </g>
  </g>
</svg>