<?xml version="1.0" encoding="UTF-8"?>
<svg id="_레이어_2" data-name="레이어 2" xmlns="http://www.w3.org/2000/svg" viewBox="0 0 76.19 100">
  <defs>
    <style>
      .cls-1 {
        fill: #fff;
        stroke-width: 0px;
      }
    </style>
  </defs>
  <g id="_레이어_1-2" data-name="레이어 1">
    <g>
      <path class="cls-1" d="M69.14,14.63c-.75,2.35-1.26,4.37-2.02,6.28-5.43,13.54-12.3,26.49-16.13,40.7-1.9,7.03-4.65,13.85-7.21,20.69-1.11,2.98-2.72,5.78-4.83,8.57-.52-8-1.38-15.67-4.46-22.99-.6-1.43.91-3.63.9-5.46-.02-2.06-.64-4.12-1.04-6.17-1.19-6.09-2.39-12.18-3.94-20.03-2.3,3.44-4.32,5.28-4.85,7.48-1.96,8.01-6.49,15.02-8.48,23.07-1.09,4.4-5.18,7.69-6.49,12.45-1.35,4.94-3.21,9.64-2.89,14.94.12,1.91-.97,3.89-2.19,5.84-.63-1.58-5.25-.98-1.98-4.15.36-.35.52-1.13.45-1.67-1.33-10.6,2.27-20.87,1.99-31.43-.28-10.73.44-21.5-.25-32.2-.41-6.42-1.92-13.04-4.4-18.95C-.2,7.99,1.11,5.09,0,1.9c3.95-.72,5.62,1.1,5.82,3.72.81,10.49,2.87,20.67,5.6,30.84,1.71,6.37,1.83,13.16,2.67,19.76,6.31-6.73,24.36-39.65,27.18-50.36,1.2,8.38.8,14.83-2.86,21.2-3.05,5.31-2.83,11.58-.94,18.47.56,2.03.74,4.25.61,6.36-.21,3.53,1.67,5.99,3.78,10.45,1.22-2.78,1.62-4,2.25-5.08,6.35-10.89,11.63-22.3,16.92-33.72,1.55-3.35,3.07-7.44,8.11-8.89Z"/>
      <path class="cls-1" d="M67.87,14.99c.92-4.34,1.79-8.39,2.85-13.4h-20.08c1-1.15,1.2-1.56,1.39-1.56C59.77,0,67.51,0,76.19,0c-1.03,1.93-2.75,3-3.87,4.46.44.44,1.33,1.18,1.26,1.28-1.93,2.91-.18,7.9-5.71,9.24Z"/>
      <path class="cls-1" d="M44.21,2.57c-.6,1.45-.82,1.97-1.04,2.49-.42-.54-1.02-1.03-1.18-1.65-.12-.43.37-1.02.58-1.55.67.29,1.34.57,1.64.7Z"/>
    </g>
  </g>
</svg>