<?xml version="1.0" encoding="UTF-8"?>
<svg id="_레이어_2" data-name="레이어 2" xmlns="http://www.w3.org/2000/svg" viewBox="0 0 135.01 100">
  <defs>
    <style>
      .cls-1 {
        fill: #fff;
        stroke-width: 0px;
      }
    </style>
  </defs>
  <g id="_레이어_1-2" data-name="레이어 1">
    <g>
      <path class="cls-1" d="M101.61,89.26c-1.11-3.94-2.08-7.4-3.05-10.86-.37.03-.74.07-1.12.1.13,2.83-.83,6.61.63,8.28,2.58,2.97-.45,4.16-.78,6.09-.12.71-1.46,1.21-2.24,1.8-.42-.96-1.45-2.19-1.16-2.83,2.91-6.51,2.42-13.54,1.37-19.97-.99-6.1-1.58-12.38-3.28-18.39-2.96-10.45-6.12-20.83-10.82-30.67-.61-1.27-1.43-2.44-2.25-3.83-2.31,2.84-3.19,5.72-3.27,9.17-.06,2.73-.41,6.25-2.09,8.01-3.93,4.1-2.23,8.35-1.29,12.42,2.09,8.99,3.85,18.22,7.38,26.67,2.91,6.96,4.77,14.26,7.88,21.07,1.37,2.99-1.68,2.29-1.93,3.68-5.13-4.41-5.94-11.09-7.32-16.77-2.2-9.04-6.04-17.4-8.61-26.23-1.1-3.77-1.93-7.61-2.93-11.41-.13-.5-.6-.91-.86-1.28-5.91,17.32-11.84,34.69-17.76,52.04-5.63-.54-5.67-.76-6.65-4.81-1.96-8.16-3.83-16.32-6.47-24.34-2.45-7.41-4.17-15.15-5.87-22.78-1.96-8.81-3.8-17.67-5.98-26.88h-8.69v54.92c0,6.61.07,13.22-.02,19.83-.07,4.97-1.17,5.92-6.38,6-1.2.02-2.41.05-3.6,0-2.75-.14-4.18-1.68-4.41-4.37-.08-.89-.01-1.8-.01-2.7C.03,64.17.02,37.13.05,10.09c0-.53.33-1.06.63-1.96,7.64,0,15.4-.06,23.16.02,6.56.07,8.25,1.49,10.68,8.3.74,2.09,1.76,4.08,2.5,6.17.34.96.81,2.48.36,2.99-1.91,2.17-1.68,4.08-.15,6.26.45.64.58,1.59.65,2.42.98,11.63,3.38,22.95,7.21,33.97.27.78.19,1.68.37,3.55,3.91-3.98,5.31-8.3,6.91-12.61,4.37-11.8,7.66-23.92,10.82-36.08,1.12-4.3,2.8-8.46,4.33-12.97h18.37c2.14,9.32,2.94,18.92,5.94,28.14,1.49,4.57,1.12,9.71,2.03,14.51.89,4.67,1.32,9.89,3.79,13.68,3.22,4.94,3.33,10.92,6.76,15.72,1.29,1.8.56,5.31-2.8,7.06ZM29.36,15.35c.46,1.75,1.04,3.38,1.28,5.06.28,1.91.25,3.86.38,6.21,1.44-.52,2.91-.94,2.89-1.05-.7-3.42-1.52-6.82-2.43-10.2-.04-.15-1.11-.02-2.11-.02Z"/>
      <path class="cls-1" d="M103.99,82.32c.87-4.01,1.42-7.69,2.47-11.22,2.65-8.86,5.13-17.74,7.26-26.75,1.4-5.94,2.85-12.13,5.74-17.41,4.03-7.38,6.04-15.6,10.46-22.72.94-1.51,2.62-2.57,4.37-4.23,1.44,4.18.57,6.55-1.18,9.71-6.59,11.92-13.07,23.86-16.08,37.51-2.57,11.65-5.37,23.41-10.92,34.19-.19.38-.98.45-2.12.92Z"/>
    </g>
  </g>
</svg>