<?xml version="1.0" encoding="UTF-8"?>
<svg id="_레이어_2" data-name="레이어 2" xmlns="http://www.w3.org/2000/svg" viewBox="0 0 127.56 100">
  <defs>
    <style>
      .cls-1 {
        fill: #fff;
        stroke-width: 0px;
      }
    </style>
  </defs>
  <g id="_레이어_1-2" data-name="레이어 1">
    <path class="cls-1" d="M127.56,19.14c-2.31,8.68-4.4,15.78-10.11,21.17-4.33,4.09-6.87,9.12-9.61,14.44-6.95,13.47-15.62,26.03-23.16,39.21-3.22,5.64-12.42,5.88-16.04.11-4.9-7.82-10.63-15.12-16.61-23.5-2.26,6.68-3.57,12.2-5.97,17.21-2.33,4.87-3.1,11.32-11.14,12.22-1.36-2.03-3.93-4.76-5.23-8.01-4.98-12.44-10.04-24.83-15.63-37.03-1.73-3.79-2.09-8.74-3.12-13.15-.59-2.53.76-5.52,1.29-8.57-1.86-.78-5.64-1.29-7.58-3.45-2.31-2.57-3.32-6.46-4.34-9.95-.59-2.02-.16-4.36-.1-6.56C.32,9.05.49,4.82.66,0c2.15.79,4.15,1,4.32,1.66,1.82,7.18,7.58,12.54,8.62,20.23.67,4.95,5.03,6.41,9.8,4.29,2.96-1.32,5.7-3.14,9.06-5.03,1.65,3.5,4.43,6.68,4.35,9.8-.15,6.38,3.45,9.29,8.07,11.9,5.29,2.99,9.27,6.97,11.72,12.74,1.74,4.12,4.47,7.83,6.91,11.63,3.97,6.18,6.96,6.6,12.21,1.61,4.14-3.93,8.52-7.73,12-12.19,2.95-3.78,4.77-8.44,7.27-13.03-6.68-2.45-14.63,1.78-20.86-3.38-6.1,2.22-5.53-4-7.48-6.48-1.3-1.65-.61-5.02-.48-7.6.22-4.58,2.43-6.89,7.13-6.96,10.54-.16,21.08-.05,31.63-.05,7.31,0,14.62,0,22.65,0Z"/>
  </g>
</svg>