<?xml version="1.0" encoding="UTF-8"?>
<svg id="_레이어_2" data-name="레이어 2" xmlns="http://www.w3.org/2000/svg" viewBox="0 0 148.94 100">
  <defs>
    <style>
      .cls-1 {
        fill: #fff;
        stroke-width: 0px;
      }
    </style>
  </defs>
  <g id="_레이어_1-2" data-name="레이어 1">
    <path class="cls-1" d="M116.19,48.84c11.8-13.69,21.27-28.06,28.29-45.01,1.74,1.85,2.86,3.04,4.47,4.74-4.37,4.51-4.63,10.43-6.42,15.81-2.73,8.18-8.35,14.65-13.06,21.63-3.24,4.8-5.98,9.58-7.53,15.33-1.18,4.39-4.18,8.47-7.04,12.16-2.94,3.8-5.5,3.79-8.79.61-4.23-4.08-8.11-8.17-10.24-14.15-1.98-5.56-6.19-10.33-9.84-16.11-1.15,1.89-2.5,3.9-3.65,6.02-5.9,10.9-11.81,21.79-17.56,32.76-2.01,3.83-4.05,7.75-5.24,11.87-.88,3.07-2.09,5.11-5.25,5.45-3.36.36-4.78-1.56-5.95-4.64-2.59-6.85-6.99-12.76-8.91-20.17-1.71-6.6-6.68-12.1-8.62-19.14-1.83-6.62-6.34-12.47-9.32-18.82-2.12-4.51-4.38-8.9-5.92-13.81-1.96-6.24-6.54-11.71-10.29-17.32-.81-1.22-2.88-1.59-5.32-2.84,12.16-5.98,23.57-2.11,34.3-.3,4.09,10.21,8.13,20.08,12,30.03,3.87,9.94,3.97,21.34,11.91,30.38,6.61-12.52,12.92-24.84,19.61-36.95,1.98-3.59,4.8-6.8,7.63-9.8,2.05-2.17,4.33-1.32,6.39,1.31,7.83,9.98,12.66,22.27,24.33,30.96Z"/>
  </g>
</svg>