<?xml version="1.0" encoding="UTF-8"?>
<svg id="_레이어_2" data-name="레이어 2" xmlns="http://www.w3.org/2000/svg" viewBox="0 0 147.3 97.22">
  <defs>
    <style>
      .cls-1 {
        fill: #fff;
        stroke-width: 0px;
      }
    </style>
  </defs>
  <g id="_레이어_1-2" data-name="레이어 1">
    <path class="cls-1" d="M73.92,33.29c-5.33,11.27-10.23,21.44-14.96,31.7-4.73,10.25-9.3,20.58-14.52,32.16-1.72-1.56-3.55-2.48-4.19-3.92-9.42-21.25-18.66-42.57-28-63.85C8.37,20.57,4.36,11.82,0,2.12c4.64-.38,8.44-.69,12.46-1.02,10.99,23.93,21.83,47.53,33.11,72.11,2.6-5.8,4.89-10.99,7.23-16.15,4.6-10.16,9.01-20.43,13.96-30.42,2-4.04,1.63-7.39-.13-11.16-2.05-4.41-3.81-8.96-5.69-13.43,8.29-3.52,10.75-2.8,14.1,4.64,9.57,21.21,18.94,42.51,28.41,63.77.66,1.48,1.49,2.88,2.7,5.21,2.05-4.73,3.81-8.78,5.56-12.83,7.15-16.53,14.38-33.02,21.37-49.61,1.33-3.16,1.72-6.72,2.77-11.06,2.85.35,6.69.82,11.44,1.41-13.66,31.68-26.95,62.5-40.28,93.43-1.9.09-3.32.16-4.97.23-9.33-21.2-18.58-42.21-28.14-63.93Z"/>
  </g>
</svg>