<?xml version="1.0" encoding="UTF-8"?>
<svg id="_레이어_2" data-name="레이어 2" xmlns="http://www.w3.org/2000/svg" viewBox="0 0 97.6 100">
  <defs>
    <style>
      .cls-1 {
        fill: #fff;
        stroke-width: 0px;
      }
    </style>
  </defs>
  <g id="_레이어_1-2" data-name="레이어 1">
    <path class="cls-1" d="M42.03,61.35c.56,12.52,1.13,25.05,1.74,38.65H11.58C7.88,68.04,4.05,35,0,0c10.14,1.65,18.71,3.04,26.76,4.35,1.71,7.3,3.1,13.21,4.49,19.11,1.04.05,2.09.09,3.13.14,1.58-5.42,3.16-10.83,5.01-17.17,10.5-.9,21.48-1.84,33.4-2.85,1.27,17.46,2.49,34.22,3.71,50.99,1.15-.02,2.29-.03,3.44-.05V3.05c6.91.67,11.78,1.14,17.66,1.7-2.59,31.47-5.11,62.03-7.72,93.67h-35.08c-4.52-11.43-.36-26.61-9.93-37.46-.95.13-1.89.26-2.84.39Z"/>
  </g>
</svg>