<?xml version="1.0" encoding="UTF-8"?>
<svg id="_레이어_2" data-name="레이어 2" xmlns="http://www.w3.org/2000/svg" viewBox="0 0 113.82 100">
  <defs>
    <style>
      .cls-1 {
        fill: #fff;
        stroke-width: 0px;
      }
    </style>
  </defs>
  <g id="_레이어_1-2" data-name="레이어 1">
    <path class="cls-1" d="M0,2.38C11.97,1.56,22.98.8,34.66,0c1.49,13.86,1.42,26.87,8.56,38.93,9.28-11.07,14.88-22.45,12.54-37.51,7.82.39,14.38.72,21.18,1.06.6,10.88,1.17,21.15,1.85,33.32,9.11-9.76,4.81-21.03,8.34-30.91,8.3.61,16.71,1.23,26.69,1.97-5.8,30.95-11.45,61.07-17.46,93.15-21.02-1.04-42.35-2.1-64.16-3.18-1.65-3.18-3.23-6.25-5.68-11-.46,4.68-.75,7.58-1.17,11.94-6.96.69-14.19,1.4-22.25,2.2C2.05,67.1,1.05,35.41,0,2.38Z"/>
  </g>
</svg>