<?xml version="1.0" encoding="UTF-8"?>
<svg id="_레이어_2" data-name="레이어 2" xmlns="http://www.w3.org/2000/svg" viewBox="0 0 135.13 98.94">
  <defs>
    <style>
      .cls-1 {
        fill: #fff;
        stroke-width: 0px;
      }
    </style>
  </defs>
  <g id="_레이어_1-2" data-name="레이어 1">
    <path class="cls-1" d="M23.45,22.64c-4.89,0-9.37-.1-13.85.02-6.59.19-8.81-1.62-9.43-8.28C-.04,12.06-.03,9.69.06,7.35.21,3.61,4.51.2,8.96.2c13.48,0,26.97.03,40.45.04,1.63,0,3.27-.02,4.9-.02,2.89,0,5.13,1.59,5.76,4.4,1.33,5.99.77,11.87-1.2,18.02h-11.63c.43,14.48-1,28.67,3.18,42.68,1.22-4.32,2.4-8.65,3.68-12.96,4.11-13.84,7.91-27.79,12.49-41.48,2.98-8.92,9.97-12.44,19.48-9.8,2.21.61,4.73,3.43,5.38,5.72,2.3,8.09,3.97,16.37,5.64,24.63,1.12,5.58,1.8,11.24,2.72,16.86.77,4.67,1.61,9.32,2.77,14,1.98-10.68,3.93-21.36,5.96-32.02,1.39-7.27,2.77-14.54,4.39-21.76,1.93-8.64,14.76-11.39,20.8-5,1.4,1.48,1.63,4.82,1.23,7.1-1.76,10.02-3.83,20-5.99,29.94-3.18,14.58-6.53,29.13-9.8,43.69-1.05,4.65-3.56,8.38-7.14,11.44-7.49,6.41-19.17,3-23.62-6.84-4.57-10.12-6.46-20.96-8.71-31.71-.63-2.99-1.49-5.93-2.25-8.9-.28.02-.56.03-.85.05-1.24,3.71-2.47,7.42-3.72,11.12-2.98,8.83-6.1,17.61-8.9,26.49-1.55,4.92-4.37,8.73-8.82,11.04-5.94,3.08-18.68,2.91-23.14-5.88-3.99-7.87-6.57-16.17-7.28-24.73-1.08-12.99-.93-26.09-1.3-39.14-.04-1.42,0-2.83,0-4.55Z"/>
  </g>
</svg>