<?xml version="1.0" encoding="UTF-8"?>
<svg id="_레이어_2" data-name="레이어 2" xmlns="http://www.w3.org/2000/svg" viewBox="0 0 84.23 100">
  <defs>
    <style>
      .cls-1 {
        fill: #fff;
        stroke-width: 0px;
      }
    </style>
  </defs>
  <g id="_레이어_1-2" data-name="레이어 1">
    <path class="cls-1" d="M42.48,30.69c2.43-9.96-.39-20.37,1.94-30.34.26-.12.53-.24.79-.35,1.11,1.78,2.49,3.45,3.28,5.36,3.18,7.68,6.39,15.36,9.18,23.18,3.22,9.03,6.01,18.22,9.02,27.47.26-1.24.67-2.64.85-4.06,2.05-16.26,4.73-32.38,10.15-47.93,1.22-3.49,2.37-4.19,6.54-3.63-7.67,33.13-15.34,66.27-23.06,99.62h-4.79c-3.33-7.54-6.63-15-9.93-22.46-.2,0-.41-.02-.61-.03-2.1,7.29-4.2,14.58-6.37,22.12h-14.35C16.74,66.67,8.41,33.95,0,.89h23.41c2.67,13.91,5.37,27.91,8.06,41.91.17.02.34.03.51.05,2.18-8.23,4.37-16.46,6.55-24.7.24.05.48.11.72.16.62,4.16,1.23,8.31,1.85,12.47.46-.03.92-.06,1.37-.09Z"/>
  </g>
</svg>