<?xml version="1.0" encoding="UTF-8"?>
<svg id="_레이어_2" data-name="레이어 2" xmlns="http://www.w3.org/2000/svg" viewBox="0 0 228.7 100">
  <defs>
    <style>
      .cls-1 {
        fill: #fff;
        stroke-width: 0px;
      }
    </style>
  </defs>
  <g id="_레이어_1-2" data-name="레이어 1">
    <path class="cls-1" d="M60.06,24.83c-9.26,16.44-17.56,31.14-25.81,45.85-4.16,7.42-8.12,14.96-12.41,22.31-4.75,8.15-13.04,4.68-21.84,7.01C18.15,66.36,35.33,34.51,52.82,2.08h15.74c15.64,26.97,31.57,54.44,47.49,81.9.96-.13,1.92-.27,2.87-.4,12.73-27.86,25.46-55.72,38.19-83.58.72.09,1.44.19,2.16.28,16.3,30.77,32.6,61.54,48.9,92.31.88-.3,1.76-.59,2.63-.89V2.22h17.89v96.06h-40.56c-9.63-19.93-19.09-39.51-29.29-60.61-9.44,21.69-18.08,41.54-26.44,60.75h-29.2c-14.36-24.49-28.26-48.19-43.15-73.59Z"/>
  </g>
</svg>