<?xml version="1.0" encoding="UTF-8"?>
<svg id="_레이어_2" data-name="레이어 2" xmlns="http://www.w3.org/2000/svg" viewBox="0 0 115.94 100">
  <defs>
    <style>
      .cls-1 {
        fill: #fff;
        stroke-width: 0px;
      }
    </style>
  </defs>
  <g id="_레이어_1-2" data-name="레이어 1">
    <path class="cls-1" d="M48.96,49.68c1.28-1.61,2.81-3.07,3.8-4.84,5.27-9.42,10.48-18.87,15.54-28.39,2.82-5.29,1.77-7.05-4.27-8.04-2.55-.42-5.11-.81-7.65-1.32-.94-.19-1.81-.68-2.72-1.04.06-.4.13-.8.19-1.2,2.9.33,5.92.24,8.67,1.07,11.11,3.37,21.91,1.16,32.77-1.24,3.65-.81,7.38-1.33,11.11-1.69,2.3-.22,4.75-.21,4.95,3.27.22,3.86-2.43,3.19-4.67,3.2-8,.02-15.99,0-24.42.93,11.27,1.84,12.51,9.23,11.73,18.2-.58,6.76-.75,13.57-.84,20.36-.05,3.87.41,7.75.64,11.63.48.21.97.41,1.45.62,1.6-2.8,3.34-5.53,4.77-8.42,4.02-8.12,7.91-16.3,11.84-24.47.68-1.42,1.28-2.88,1.91-4.32.72.57,1.45,1.15,2.17,1.72-.27,1.31-.33,2.72-.85,3.93-5.03,11.89-10.04,23.79-15.28,35.59-1.15,2.59-3.07,4.87-4.83,7.15-2.85,3.69-2.56,6.3.96,9.17,3.06,2.5,5.82,5.38,8.94,7.81,1.27.99,3.11,1.59,4.74,1.73,3.07.26,3.43,2.28,3.37,4.54-.06,2.58-1.94,2.64-4,2.73-9.8.46-19.59,1.05-29.39,1.61-6.45.37-12.13-1.74-17.46-5.22-1.17-.77-3.31-1.69-4.08-1.17-6.24,4.18-12.92,3.53-19.55,1.95-7.39-1.76-14.94-3.36-21.88-6.31-10.31-4.38-14.39-14.06-15.51-24.22-1.22-11.08.15-22.12,6.71-31.95,3.76-5.63,9.18-8.6,15.01-11.23,1.18-.53,2.39-.97,3.6-1.43,3.34-1.26,3.14-3.84.74-5.04-3.31-1.65-7.19-2.45-10.91-2.91-2.96-.37-6.05.43-9.08.49C3.51,12.98.28,10.45.03,7.37-.31,3.38,2.56,3.05,5.54,2.23,17.04-.93,28.25-1.05,39.33,3.97c2.57,1.17,5.5,1.56,8.25,2.34,2.24.63,3.48,1.37,3.14,4.46-1.26,11.46-1.98,22.99-2.87,34.49-.1,1.27-.01,2.56-.01,3.85.38.19.75.38,1.13.57ZM46.64,75.12c2.22,4.85,2.15,10.75,8.6,12.85-1.72-5.02-3.24-9.42-4.89-14.23-.88.33-2.14.8-3.71,1.38Z"/>
  </g>
</svg>