<?xml version="1.0" encoding="UTF-8"?>
<svg id="_레이어_2" data-name="레이어 2" xmlns="http://www.w3.org/2000/svg" viewBox="0 0 88.14 96.32">
  <defs>
    <style>
      .cls-1 {
        fill: #fff;
        stroke-width: 0px;
      }
    </style>
  </defs>
  <g id="_레이어_1-2" data-name="레이어 1">
    <path class="cls-1" d="M44.44,43.41c-2.59,9.18-3.61,18.09-5.45,26.84-1.67,7.94-3.33,15.87-5.24,23.75-.36,1.48-.98,1.99-2.4,1.98-3.59-.04-7.19-.11-10.77.02-2.02.07-2.33-1.32-2.62-2.65-2.88-13.2-5.88-26.38-8.51-39.64C6.34,38.11,3.6,22.44.62,6.83-.55.66-.64.67,5.64.74c6.45.07,6.71,0,8.15,6.18,4.18,17.89,8.76,35.7,11.47,53.91.1.65.19,1.3,1.11,1.76,1.09-5.56,2.04-11.08,3.27-16.54,3.26-14.45,5.91-29.04,9.84-43.34.24-.87.44-1.88,1.38-2C43.66.34,46.48,0,49.3,0c1.93,0,1.76,1.93,1.99,3.22,1.57,8.95,2.76,17.99,4.68,26.86,2.09,9.64,3.35,19.41,5.23,29.07.19.95,0,2.63,1.27,2.61,1.36-.03.94-1.66,1.15-2.66,2.71-12.92,5.44-25.84,8.1-38.77,1.09-5.3,2.07-10.63,2.98-15.97.48-2.82,1.87-4.12,4.81-3.76,1.28.16,2.61-.03,3.91-.05,4.98-.09,5.13.11,4.37,5.06-2,13.16-4.81,26.16-7.39,39.2-3.11,15.69-6.35,31.36-9.41,47.07-.59,3.03-1.67,4.63-5.1,4.28-2.9-.29-5.87-.03-8.8.13-1.36.07-2.3-.03-2.63-1.63-3.44-16.85-7.05-33.66-10.03-51.27Z"/>
  </g>
</svg>