<?xml version="1.0" encoding="UTF-8"?>
<svg id="_레이어_2" data-name="레이어 2" xmlns="http://www.w3.org/2000/svg" viewBox="0 0 75.81 100">
  <defs>
    <style>
      .cls-1 {
        fill: #fff;
        stroke-width: 0px;
      }
    </style>
  </defs>
  <g id="_레이어_1-2" data-name="레이어 1">
    <path class="cls-1" d="M37.52,55.73c-2.97,14.86-5.9,29.58-8.84,44.27H12.66c-.58-4.38-1.11-8.74-1.73-13.08-1.31-9.12-2.77-18.23-3.98-27.36-.86-6.49-1.51-13.02-2.07-19.54C3.84,27.79,2.97,15.55,1.9,3.32,1.8,2.26.73,1.29,0,.09h24.17c.1,20.5-.53,40.77,1.14,60.98.36.03.72.07,1.08.1,1.32-10.1,2.45-20.23,4.01-30.3,1.59-10.19,3.61-20.32,5.51-30.87h14.17c1.03,18.98,2.07,38.24,3.11,57.5.35,0,.7,0,1.05-.01,1.94-18.96,3.87-37.92,5.83-57.14h15.72c-3.1,32.93-6.2,65.79-9.33,99.06-3.78,0-7.82.07-11.84-.08-.55-.02-1.42-1.1-1.52-1.78-1.93-12.74-3.78-25.5-5.63-38.25-.31-2.12-.6-4.24-.89-6.37-.4.03-.8.05-1.2.08-.99,14.6-1.99,29.21-2.98,43.81-.5,0-1,.02-1.49.02-1.13-13.68-2.26-27.36-3.39-41.09Z"/>
  </g>
</svg>