<?xml version="1.0" encoding="UTF-8"?>
<svg id="_레이어_2" data-name="레이어 2" xmlns="http://www.w3.org/2000/svg" viewBox="0 0 185.73 100">
  <defs>
    <style>
      .cls-1 {
        fill: #fff;
        stroke-width: 0px;
      }
    </style>
  </defs>
  <g id="_레이어_1-2" data-name="레이어 1">
    <path class="cls-1" d="M0,.06c11.08,0,21.12-.02,31.16,0,4.29.01,6.86,1.55,8.48,6.18,5.53,15.86,11.73,31.5,18,48.09.78-1.74,1.26-2.67,1.64-3.65,6.1-15.86,12.13-31.75,18.39-47.55.54-1.36,2.65-2.92,4.08-2.97,7.61-.27,15.25-.21,22.87.05,1.35.05,3.31,1.32,3.85,2.54,6.97,15.66,13.74,31.41,20.91,47.95,1.13-2.76,2.08-4.95,2.93-7.19,5.12-13.5,10.14-27.03,15.42-40.46.51-1.3,2.49-2.85,3.82-2.88,11.05-.23,22.11-.13,34.18-.13-5.7,13.52-10.78,25.55-15.86,37.59-7.9,18.69-15.94,37.32-23.63,56.1-1.75,4.28-3.54,6.74-8.72,6.19-5.43-.57-10.97-.19-16.46-.1-2.37.04-3.53-.58-4.59-3.1-6.66-15.82-13.69-31.48-20.6-47.19-.21-.48-.45-.95-1.06-2.22-7.4,17.93-14.48,35.07-21.67,52.48-9.91,0-19.97.09-30.02-.13-1.11-.02-2.68-1.62-3.18-2.84-9.53-22.91-18.92-45.88-28.36-68.83C7.93,19.11,4.23,10.25,0,.06Z"/>
  </g>
</svg>