<?xml version="1.0" encoding="UTF-8"?>
<svg id="_레이어_2" data-name="레이어 2" xmlns="http://www.w3.org/2000/svg" viewBox="0 0 98.48 100">
  <defs>
    <style>
      .cls-1 {
        fill: #fff;
        stroke-width: 0px;
      }
    </style>
  </defs>
  <g id="_레이어_1-2" data-name="레이어 1">
    <g>
      <path class="cls-1" d="M28.29,78.75c1.78-4.01,3.2-6.6,4.08-9.35.85-2.64,1.14-5.45,1.68-8.18.54-2.73,1.09-5.47,1.61-8.21,1.29-6.78,2.44-13.6,3.58-20.38,1.31-7.76,2.15-15.88,5.27-23.42,4.13.82,4.89,4.3,5.52,6.93,1.13,4.75.93,9.79,1.87,14.6,1.05,5.4,2.82,10.66,4.12,16.02,1.66,6.81,3.11,13.67,6.83,19.77.25.4.22.99.27,1.5.55,6.23,1.07,12.46,1.63,18.69.18,2.02-.65,4.17,1.43,5.93.63.53.1,2.42-.33,3.76-3.83-7.25-6.97-14.49-7.78-22.89-.83-8.69-4.08-17-6.99-25.28-1.65-4.7-3.17-9.45-5.02-15-.9,1.76-1.97,3.08-2.26,4.55-.75,3.77-.22,8.1-1.93,11.29-1.94,3.63-.87,7.46-2.45,11.12-1.3,3.01-1.8,6.9-2.03,10.4-.35,5.48-2.68,10.19-4.55,15.1-1.22,3.2-2.6,6.35-4.32,10.5-3.53-12.24-5.85-23.5-10.32-34.18-1.53-3.66-1.54-8.03-1.81-12.11-.07-1.06,1.28-2.88,2.33-3.22,2.11-.67,3.54,1.1,3.92,2.91.79,3.76,1,7.64,1.73,11.41,1.05,5.43,2.35,10.81,3.89,17.74Z"/>
      <path class="cls-1" d="M88.82,20.96c-1.59-.17-2.86-.31-4.82-.52.73-6.16,1.45-12.25,2.23-18.76,1.61-.22,3.64-.41,5.62-.81,2.22-.45,4.61,1.44,3.49,2.46-3.21,2.91.4,7.42-2.97,10.24-.79.66-.43,3.15-.08,4.68,2.26,9.98,1.94,9.81-1.53,18.22-2.28,5.51-5.02,11.01-5.06,17.29,0,1.66-1,3.32-1.54,4.98-2.69,8.29-5.14,16.68-8.18,24.84-1.56,4.18-3.43,8.26-4.75,12.54-.62,2-.64,1.99-4.43,3.88.99-3.43,2.36-6.57,2.7-9.82.4-3.89,1.92-7.24,3.21-10.8,1.2-3.3.78-7.17,1.86-10.54,1.59-4.98,3.3-9.94,4.97-14.88,1.86-5.49,2.74-11.17,4.49-16.66.55-1.72.61-3.37,2.02-4.85,3.07-3.23,3.41-7.24,2.78-11.49Z"/>
      <path class="cls-1" d="M15.47,46.57c-2.23-4.96-2.51-10.7-6.63-14.99-1.36-1.41-1.51-4.37.51-6.44.43-.44.36-1.39.58-2.37-4.22-.26-6.5-1.57-6.91-6.47-.24-2.86-1.03-5.94-1.34-8.99-.17-1.69-1.01-3.31-1.68-5.36C3.41,1.35,6.8.77,10.84.07c.52,3.1,1.96,6.34,2.43,10.18.86,6.92,2.92,13.71,4.68,20.5.74,2.86,2.16,5.54,2.98,8.39.75,2.61-2.31,6.57-5.45,7.42Z"/>
      <path class="cls-1" d="M77.04,44.67c-.48,9.01-2.87,17.28-8.53,24.35,1.59-3.74.35-8.03,3.67-11.68,2.3-2.53,2.66-6.82,3.9-10.32.28-.79.64-1.56.96-2.34Z"/>
      <path class="cls-1" d="M78.29,45.19c-.61-6.46,1.04-13.26,3.38-16.39,2.91,3.14-1.02,5.51-.95,8.36.06,2.66-1.55,5.35-2.42,8.03Z"/>
      <path class="cls-1" d="M97.34,10.75V0c1.92,3.49,1.05,7.12,0,10.75Z"/>
      <path class="cls-1" d="M66.17,64.58v4.55q-1.5-2.68,0-4.55Z"/>
      <path class="cls-1" d="M68.24,60.42c-.56,1.97-.84,2.94-1.11,3.91-.25-.75-.59-1.49-.7-2.26-.03-.23.58-.55,1.81-1.65Z"/>
      <path class="cls-1" d="M96.27,12.63c.18.36.42.7.5,1.08.03.13-.33.35-.51.53-.18-.36-.42-.7-.51-1.08-.03-.13.33-.35.51-.53Z"/>
    </g>
  </g>
</svg>