<?xml version="1.0" encoding="UTF-8"?>
<svg id="_레이어_2" data-name="레이어 2" xmlns="http://www.w3.org/2000/svg" viewBox="0 0 250.55 93.54">
  <defs>
    <style>
      .cls-1 {
        fill: #fff;
        stroke-width: 0px;
      }
    </style>
  </defs>
  <g id="_레이어_1-2" data-name="레이어 1">
    <path class="cls-1" d="M201.98,47.85V.47h48.57v93.06c-4.15,0-7.54,0-10.92,0-23.78-.04-47.57-.15-71.35-.03-3.5.02-5.33-1.31-7.29-4.05-4.2-5.9-9.22-11.22-13.4-17.14-4.04-5.74-7.45-11.92-11.27-18.13-.87.94-2.23,2.09-3.2,3.51-6.87,10.05-13.71,20.13-20.45,30.27-2.12,3.19-4.53,4.81-8.7,4.8-14.41-.05-28.83.57-43.24.62-9.31.03-18.71.18-27.92-.93-10.07-1.21-18.17-6.58-24.94-14.38C.69,69.79-.04,60.01,0,50.02c.06-12.14,4.39-23.02,11.24-32.89,1.36-1.95,3.25-3.81,5.32-4.94C32.49,3.45,49.57-.59,67.74.12c.38.01.76.22,1.44.43.43,16.81,3.05,33.27,9.43,49.64,3.63-5.09,7.31-9.89,10.6-14.94,6.94-10.68,13.73-21.46,20.43-32.29,1.33-2.15,2.83-2.89,5.31-2.85,9.6.14,19.23.54,28.8-.07,7.69-.49,11.69,4.85,16.25,8.96,13.44,12.1,26.46,24.68,39.65,37.07.47.44,1.03.8,2.34,1.79Z"/>
  </g>
</svg>