<?xml version="1.0" encoding="UTF-8"?>
<svg id="_레이어_2" data-name="레이어 2" xmlns="http://www.w3.org/2000/svg" viewBox="0 0 111.25 100">
  <defs>
    <style>
      .cls-1 {
        fill: #fff;
        stroke-width: 0px;
      }
    </style>
  </defs>
  <g id="_레이어_1-2" data-name="레이어 1">
    <g>
      <path class="cls-1" d="M43.1,69.47c.52,4.13-1.53,7.87-3.03,11.22-2.78,6.2-3.48,12.87-5.79,19.12-1.34-.1-2.53,1.02-3.81-1.23-3.64-6.41-5.84-13.34-8.12-20.23-3.43-10.38-5.79-21.1-9.76-31.33-2.63-6.77-5.12-13.6-7.52-20.46C2.78,20.02.03,13.57,0,6.44,2.16,4.29,4.28,2.18,6.47,0c3.66.63,5.11,3.9,5.94,6.54,2.19,6.95,4.93,13.75,6.87,20.71,1.9,6.84,3.67,13.73,5.78,20.52,1.97,6.34,3.9,12.69,6.22,20.26,2.91-5.89,5.55-10.58,7.6-15.52,2.87-6.9,4.94-14.11,8.33-20.82.78-1.55,1.85-.86,2.84-1.07-.14,2.22.11,4.56-.5,6.64-1.26,4.27-2.73,8.47-3.96,12.76-1.21,4.21-2.25,8.64-4.02,12.66-1.25,2.86-1.26,5.35-1.04,8.29,1.12-.65,1.85-1.07,2.58-1.5Z"/>
      <path class="cls-1" d="M65.3,38.95c-2.68,2.12-1.2,4.56-.64,7.02,2.05,9.09,6.45,17.23,10.48,25.46,2.15,4.4,4.29,8.57,4.04,13.59-.02.46-.2,1.1.03,1.36,2.75,3.19.85,6.14-.7,9.87-.86-1.58-1.54-2.73-2.13-3.93-4.17-8.44-7.72-17.14-10.75-26.04-.76-2.24-.76-4.8-1.8-6.87-1.37-2.72-3.42-5.11-5.51-8.11-.17-1.96,1.02-4.97-2.03-6.72-3.25,5.34-4.84,11.65-9.01,16.57.15-1.3-.11-2.86.52-3.87,2.71-4.39,4-9.29,5.64-14.08,1.01-2.96-.17-9.55-2.23-12.08-.23-.29-.76-.33-1.15-.49.21-1.5-.54-3.14.94-4.46,1.9-1.69.35-4.46,1.73-6.43.12-.17-1.11-1.3-2.68-3.06,0-1.97-.02-5.35,0-8.72.02-2.62,1.64-4.38,3.19-6.29,1.6-1.98,3.62-1.49,5.81-1.58.26,1.73,2.76,3.09.71,5.25-.13,8.93-.24,17.86,2.75,26.48.84,2.42,3.02,4.3,2.8,7.13Z"/>
      <path class="cls-1" d="M84.4,83.14c-2.25-.47-3.21-2.24-7.35-15.16-1.73-5.39-2.95-10.94-4.47-16.65,3.14.15,3.2,4.12,6.23,3.89.17-.48.46-1.28.77-2.15.32.14.91.26.92.41.07,1.55.04,3.1.04,5.23,3.87-4.63,6.77-9.07,11.13-12.28,1.51-1.11,2.32-3.15,3.49-4.74,3.36-4.54,6.83-8.94,9.18-14.22.98-2.21,4-3.52,6.91-4.58-.43.87-.65,2-1.33,2.58-4.64,3.92-6.43,9.28-8.81,14.68-3.81,8.65-6.17,17.77-9.93,26.4-1.72,3.95-2.82,8.12-5.81,11.51-.98,1.11-.68,3.35-.96,5.07Z"/>
      <path class="cls-1" d="M106.01,33.91c-.21-1.47-.34-2.38-.47-3.28.46.53,1,1.03,1.34,1.63.1.18-.34.68-.87,1.66Z"/>
      <path class="cls-1" d="M68.55,46.4c-.21-1.47-.34-2.38-.47-3.28.46.53,1,1.03,1.34,1.63.1.18-.34.68-.87,1.66Z"/>
      <path class="cls-1" d="M47.26,61.15c-.21,1.05.69,2.66-1.39,2.78.21-1.05-.69-2.66,1.39-2.78Z"/>
      <path class="cls-1" d="M45.88,63.92c-.21,1.05.69,2.66-1.39,2.78.21-1.05-.69-2.66,1.39-2.78Z"/>
      <path class="cls-1" d="M44.49,66.7c-.21,1.05.69,2.66-1.39,2.78.21-1.05-.69-2.66,1.39-2.78Z"/>
      <path class="cls-1" d="M66.58,39.76c-.16.16-.39.46-.44.43-.3-.16-.56-.4-.84-.62.21-.21.41-.41.62-.62.22.27.44.54.66.81Z"/>
      <path class="cls-1" d="M67.46,43.11c-.21-.27-.43-.55-.64-.82.29-.09.77-.32.84-.23.22.29.29.69.42,1.05h-.62Z"/>
      <path class="cls-1" d="M69.96,48.46c-.18-.18-.34-.34-.49-.49.31-.15.61-.36.93-.43.11-.03.3.28.46.43-.3.17-.6.33-.89.49Z"/>
    </g>
  </g>
</svg>