<?xml version="1.0" encoding="UTF-8"?>
<svg id="_레이어_2" data-name="레이어 2" xmlns="http://www.w3.org/2000/svg" viewBox="0 0 103.97 100">
  <defs>
    <style>
      .cls-1 {
        fill: #fff;
        stroke-width: 0px;
      }
    </style>
  </defs>
  <g id="_레이어_1-2" data-name="레이어 1">
    <g>
      <path class="cls-1" d="M91.84,84.42c-1.14-.23-2.55-.11-3.38-.74-2.8-2.14-5.3-.93-7.95-.18.34,4.47,5.78,3.08,6.89,7.01-3.16.3-6.05,1.34-8.22-1.74-.46-.65-1.18-1.41-1.15-2.09.31-6.42-3.03-11.85-5.53-17.17-3.05-6.52-4.56-13.74-8.8-19.71-1.82-8.71-6.73-16.25-9.29-24.68-.06-.18-.28-.31-.34-.38-3.06,2.78-1,7.21-3.34,10.26.28,6.09-2.73,11.44-4.08,17.15-1.79,7.6-4.51,15-6.33,22.64-.32,1.35-.72,2.8-1.52,3.89-3.04,4.16-4.02,9.17-5.81,13.82-.8,2.07-.44,4.59-.66,7.52-.88-.38-2.22-.62-2.29-1.04-.91-6.24-3.12-12.05-5.09-18-2.14-6.46-3.28-13.3-5.41-19.82-3.54-10.85-7.52-21.55-10.77-32.48C6.38,20.57,3.29,12.77.49,4.84.02,3.52.18,1.97,0,0,1.7,0,3.14,0,4.58,0c8.18,0,8.69.41,11.11,8.41,1.68,5.57,3.47,11.1,5.18,16.66,2.77,9,5.35,18.06,8.48,26.96,1.14,3.23,1.59,6.69,2.55,10.94,1.24-3.86,2.48-6.92,3.2-10.09,2.45-10.8,6.09-21.27,9.28-31.84,1.92-6.37,3.23-12.89,5.49-19.48.26-.04.85-.25,1.44-.23,2.75.1,6.02-.62,8.13.62,2.72,1.6,3,5.57,4.12,8.5,3.95,10.28,6.83,20.97,10.74,31.22,3.98,10.43,7.21,21.2,12.29,31.21.18.35.38.73.44,1.11.56,3.86,1.94,7.32,4.8,10.45Z"/>
      <path class="cls-1" d="M100.02,62.1c-3.21-6.6-2.46-13.38-2.64-20.08-.04-1.31-1.42-3.23-.93-3.8,1.19-1.38,1.03-2.76.95-4.18-.17-3.1.75-5.7,3.37-8.16,1.04,2.01,1.2,4.69.38,5.75-1.75,2.27-1.03,4.5-1.07,6.71-.13,7.91-.05,15.83-.05,23.75Z"/>
      <path class="cls-1" d="M91.16,68.52v-7.5c1.67,3.39.68,5.49,0,7.5Z"/>
      <path class="cls-1" d="M102.78,19.79v-5.31c.46.15,1.01.28,1,.33-.23,1.59,1.07,3.57-1,4.98Z"/>
      <path class="cls-1" d="M92.04,48.56c.45-1.58.67-2.36.89-3.14.2.6.47,1.2.56,1.82.03.18-.46.44-1.46,1.33Z"/>
      <path class="cls-1" d="M91.92,57.09v2.59h-.65v-2.59h.65Z"/>
      <path class="cls-1" d="M93.8,73.34c-.41.99-.56,1.35-.71,1.7-.28-.37-.7-.71-.81-1.13-.08-.3.25-.7.4-1.06.46.2.92.39,1.12.48Z"/>
      <path class="cls-1" d="M92.89,70.06c.14.29.34.57.41.87.02.11-.26.28-.41.43-.14-.29-.34-.57-.41-.87-.02-.11.26-.28.41-.43Z"/>
      <path class="cls-1" d="M94.29,44.22c.15.15.43.36.4.41-.15.28-.38.52-.58.78-.19-.19-.39-.39-.58-.58.25-.2.5-.41.75-.61Z"/>
      <path class="cls-1" d="M102.62,20.04c-.26.2-.51.4-.77.6-.08-.27-.3-.72-.21-.79.27-.21.65-.27.98-.39,0,.19,0,.39,0,.58Z"/>
    </g>
  </g>
</svg>