<?xml version="1.0" encoding="UTF-8"?>
<svg id="_레이어_2" data-name="레이어 2" xmlns="http://www.w3.org/2000/svg" viewBox="0 0 108.59 100">
  <defs>
    <style>
      .cls-1 {
        fill: #fff;
        stroke-width: 0px;
      }
    </style>
  </defs>
  <g id="_레이어_1-2" data-name="레이어 1">
    <path class="cls-1" d="M34.16,63.34c2.15-5.43,4.1-10.58,5.76-15.98,2.92-9.52,6.04-19.02,9.14-28.5.6-1.84,1.59-3.18,3.77-3.15,1.78.03,3.56,0,6.02,0,3.09,8.35,6.02,16.59,9.18,24.73,3.09,7.94,5.54,16.09,8.58,25.35,1.62-3.4,3.55-5.72,3.66-8.12.17-3.75,3.31-6.14,3.49-9.66.18-3.55,1.77-6.58,3.11-9.76,1.32-3.13,2.16-6.46,3.21-9.71.53-1.62.74-3.44,1.63-4.83,3.67-5.73,4.85-12.26,6.22-18.72,1.19-5.6,2.03-6.1,7.52-3.5.66.31,1.38.49,2.01.85.44.26.76.72,1.13,1.09-.38,1.3-1.15,2.62-1.09,3.9.3,6.22-1.52,11.68-4.65,17.04-3.34,5.7-4.12,12.45-6.39,18.62-2.6,7.08-5.17,14.23-6.96,21.54-2.5,10.23-7.42,19.72-8.95,30.23-.23,1.59-1.51,3.03-2.65,5.21-1.3-1.32-2.84-2.29-3.51-3.67-2.02-4.14-3.83-8.4-5.49-12.7-3.78-9.75-7.32-19.58-10.67-29.49-1.44-4.27-2.86-8.44-2.94-13.01-.01-.68-1.33-1.34-3.57-3.45,1.76,8.08-.66,13.89-1.4,19.89-1.1,8.88-3.25,17.82-6.93,26.2-1.46,3.33-2.77,6.77-3.68,10.29-.52,2.01-1.37,3.28-3.29,3.67-2.41.49-3.73-.9-4.72-2.95-2.02-4.16-4.17-8.26-6.29-12.38-2.02-3.91-3.41-8.25-4.38-12.32-1.27-5.32-3.18-10.49-5.36-15.17-4.8-10.28-6.68-21.4-10.75-31.83C3.22,18.78,2.46,14.16.21,10.03c-.44-.8-.06-2.04-.06-3.44,4.41-.96,9.11.45,13.4-1.8,1.8-.94,3.82,1.12,3.83,2.77.06,8.18,4.42,15.05,6.39,22.63,2.1,8.07,5.42,15.78,6.5,24.16.39,3,2.44,5.78,3.89,8.99Z"/>
  </g>
</svg>