<?xml version="1.0" encoding="UTF-8"?>
<svg id="_레이어_2" data-name="레이어 2" xmlns="http://www.w3.org/2000/svg" viewBox="0 0 110.14 100">
  <defs>
    <style>
      .cls-1 {
        fill: #fff;
        stroke-width: 0px;
      }
    </style>
  </defs>
  <g id="_레이어_1-2" data-name="레이어 1">
    <path class="cls-1" d="M94.45.34q10.87-.57,15.69,1.82c-1.13,3.98-2.24,7.99-3.41,12-2.93,10.05-5.53,20.21-9.48,29.94-.3,7.71-3.73,14.69-5.4,22.09-1.39,6.14-3.2,12.27-4.91,18.38-1.17,4.19-2.49,8.33-3.83,12.47-1,3.07-3.3,3.74-5.54,1.61-.86-.82-1.72-1.86-2.07-2.96-2.88-9.24-5.18-18.66-9-27.59.13-4.98-2.85-9.09-3.81-13.75-.97-4.68-2.06-9.41-3.99-13.69-3.59-7.97-4.38-16.15-3.52-24.53-1.44-1.01-2.81-1.33-2.68.69.33,5.05-.9,9.63-3.31,14-.37.67-.53,1.53-.58,2.31-.48,7.68-2.87,14.92-4.8,22.29-.96,3.65-1.29,7.45-2.86,10.97-.64,1.43-.53,3.28-1.38,4.52-3.22,4.77-4.29,10-3.75,15.01-4.01,3.13-3.92,7.14-3.83,11.05-1.97,1.12-3.7,2.1-5.33,3.03-2.81-1.97-3-4.87-3.99-7.49-2.52-6.7-4.07-13.66-6.01-20.51-1.62-5.72-3.05-11.51-4.56-17.26-1.67-6.35-3.68-12.67-4.51-19.27-.52-4.12-1.33-8.41-3.1-12.1-1.15-2.4-.35-4.71-1.36-7.12C1.31,11.9.95,6.93.03,2.21-.08,1.64.12,1.01.19.23h16.18c.94,3.69,2.47,7.31,2.96,11.38.49,4.14,1.28,8.31,2.16,12.43.66,3.09,1.12,6.41,1.53,9.64.43,3.44,1.68,6.73,1.38,10.34-.27,3.24.97,6.47,1.51,9.63.48,2.81-.07,6.1,1.22,8.33,1.61,2.78.37,5.38,1.06,7.91,1.19,4.38,2.59,8.7,4.09,13.65,1-1.04,2.11-1.66,2.19-2.39.57-4.92,1.21-9.86,1.27-14.8.06-4.76.7-9.28,2.62-13.64,1.2-2.73,1.17-5.77,2.39-8.6,1.17-2.7.82-6.01,1.51-8.97.85-3.65,2.17-7.2,3.13-10.83.77-2.9,1.19-5.89,1.96-8.78,1.07-4.02,2.33-7.98,3.48-11.97.61-2.13,1.51-3.77,4.19-3.55,2.07.17,4.34,1.58,5.06,3.85,1.79,5.66,3.68,11.3,5.01,17.07.44,1.91,1.07,3.33,2.1,4.94.97,1.52,2.41,2.98.87,5.84-1.67,3.11.92,7,1.69,10.54,1.28,5.83,3.92,11.26,4.53,17.32.37,3.67,1.78,7.24,2.88,11.44,2.39-6.52,3.36-12.64,4.88-18.61,1.27-4.98,2.76-9.92,4.02-14.93,1.26-5.04,2.26-10.12,3.44-15.17,1.72-7.36,3.33-14.75,4.95-21.97Z"/>
  </g>
</svg>