<?xml version="1.0" encoding="UTF-8"?>
<svg id="_레이어_2" data-name="레이어 2" xmlns="http://www.w3.org/2000/svg" viewBox="0 0 123.16 100">
  <defs>
    <style>
      .cls-1 {
        fill: #fff;
        stroke-width: 0px;
      }
    </style>
  </defs>
  <g id="_레이어_1-2" data-name="레이어 1">
    <path class="cls-1" d="M3.31,18.86C2.18,13.28,1.18,8.34,0,2.54,3.62,1.68,7.05.87,10.71,0c1.54,2.92,2.78,5.28,4.36,8.27,12.01-2.33,22.66,1.45,32.99,8.12v17.45c-15.62,5.27-20.6,18.03-23.38,32.23.87.69,1.74,1.39,2.61,2.08,7.84-9.01,15.67-18.02,23.66-27.2.66,1,1.49,2.26,3.54,5.34.95-11.93,1.76-22.06,2.54-31.75h27.28c-.81,11.09-2.24,21.33-2.13,31.55.12,10.29,1.78,20.56,2.82,31.4,3.37.19,5.73.33,9.58.55V15.21h27.37c.59,1.85,1.27,2.93,1.21,3.96-1.22,19.34-1.68,38.78-4.07,57.98-1.92,15.34-6.88,18.87-22.03,21.04-3.66.52-7.29,1.5-10.96,1.71-15.87.9-22.69-3.59-25.17-20.43-.46-3.15-.88-6.31-1.32-9.46l-2.28-.46c-2.62,8.73-5.24,17.45-8.01,26.68-10.11,0-21.19.57-32.19-.15-13.11-.85-18.41-7.62-16.3-22.29,2.03-14.13,5.88-28,9-41.97,1.34-5.97.99-11.03-6.51-12.94ZM11.03,72.99c9.6,2.96,11.73,1.51,11.43-7.74-3.93,2.66-7.34,4.97-11.43,7.74Z"/>
  </g>
</svg>