<?xml version="1.0" encoding="UTF-8"?>
<svg id="_레이어_2" data-name="레이어 2" xmlns="http://www.w3.org/2000/svg" viewBox="0 0 45.58 100">
  <defs>
    <style>
      .cls-1 {
        fill: #fff;
        stroke-width: 0px;
      }
    </style>
  </defs>
  <g id="_레이어_1-2" data-name="레이어 1">
    <path class="cls-1" d="M44.52,0c.19.48.27.6.28.71,1.06,11.44.96,11.63-9.81,16.32-5.42,2.36-10.87,4.66-16.31,7.01-.31.13-.54.44-1.17.98,1.53.7,2.78,1.34,4.09,1.86,6.87,2.74,13.79,5.38,20.6,8.25.91.38,1.87,1.91,1.89,2.93.17,6.22.19,12.45-.02,18.66-.04,1.06-1.24,2.61-2.27,3.01-8.61,3.38-17.3,6.55-26.76,10.08,6,2.99,11.38,5.57,16.66,8.32,4.16,2.17,8.23,4.53,12.3,6.87.65.38,1.58,1.12,1.57,1.68-.08,4.14-.36,8.28-.63,13.3-2-.98-3.05-1.46-4.07-1.99-12.32-6.31-24.59-12.73-37-18.86-2.86-1.41-3.98-2.98-3.87-6.2.41-12.07-1.82-9.71,10.1-14.12,7.19-2.66,14.31-5.54,21.44-8.37,1.24-.49,2.39-1.2,4.5-2.28-4.68-2.09-8.51-3.88-12.41-5.53-6.15-2.6-12.32-5.13-18.51-7.64-2.57-1.04-3.67-2.6-3.65-5.62.07-10.26-.06-10.23,9.39-14.51C21.57,10.05,32.25,5.16,42.95.32c.42-.19.93-.19,1.58-.32Z"/>
  </g>
</svg>