<?xml version="1.0" encoding="UTF-8"?>
<svg id="_레이어_2" data-name="레이어 2" xmlns="http://www.w3.org/2000/svg" viewBox="0 0 138.93 100">
  <defs>
    <style>
      .cls-1 {
        fill: #fff;
        stroke-width: 0px;
      }
    </style>
  </defs>
  <g id="_레이어_1-2" data-name="레이어 1">
    <path class="cls-1" d="M55.35,65.57c.71-2.06,1.3-3.6,1.79-5.18,2.71-8.65,5.35-17.31,8.1-25.95,2.28-7.14,4.7-14.24,7.01-21.37.33-1.02.49-2.11.58-3.18.25-3.06-.96-4.99-3.95-5.73-1.88-.46-3.88-.45-5.83-.56-1.54-.08-3.09-.02-4.7-.02V.7c15.4-1.08,30.73-.65,46.26-.38v4.49c-1.93.27-3.89.38-5.77.84-1.89.46-3.81,1.03-5.51,1.95-4.26,2.29-4.84,4.36-3.07,9.15,3.57,9.71,7.53,19.29,11.28,28.94,1.64,4.22,3.06,8.53,4.71,12.74,1.01,2.57,2.2,5.08,3.44,7.55.4.8,1.19,1.39,2.12,2.44.83-1.44,1.52-2.41,1.97-3.48,3.12-7.34,6.29-14.67,9.26-22.07,2.9-7.22,5.48-14.56,8.38-21.78,1.59-3.94,3.56-7.73,5.36-11.59,1.59.24,2.57,1.63,2,3.29-2.36,6.83-4.65,13.69-7.28,20.41-2.91,7.44-6.2,14.73-9.28,22.1-2.11,5.06-4.23,10.11-6.19,15.23-2.49,6.5-4.71,13.11-7.26,19.59-1.35,3.42-2.33,7.09-5.18,9.87h-3.62c-8.44-24.46-14.51-49.71-23.68-73.94-.24-.05-.47-.09-.71-.14-.9,1.76-2.1,3.42-2.66,5.28-2.92,9.72-5.74,19.48-8.48,29.25-1.9,6.78-3.89,13.55-5.3,20.43-1.22,5.94-1.7,12.03-2.51,18.05-.03.26-.07.52-.14.99-2.4-.26-4.88-.12-7.02-.91-1.59-.59-3.15-2.15-3.97-3.69-1.91-3.57-3.43-7.35-4.99-11.1-4.34-10.44-8.49-20.96-12.95-31.34-5.09-11.81-9.44-23.89-13.54-36.07-.97-2.86-2.37-5.61-3.84-8.26-1.67-3.02-4.55-4.3-7.91-4.59-.72-.06-1.44-.17-2.23-.27V.37h33.7c.06.52.14,1.15.22,1.74-3.63,1.48-4.2,2.95-2.74,6.54,5.11,12.54,10.15,25.1,15.32,37.62,2.26,5.48,4.76,10.88,7.18,16.3.4.89.96,1.72,1.69,3.01Z"/>
  </g>
</svg>