<?xml version="1.0" encoding="UTF-8"?>
<svg id="_레이어_2" data-name="레이어 2" xmlns="http://www.w3.org/2000/svg" viewBox="0 0 213.42 100">
  <defs>
    <style>
      .cls-1 {
        fill: #fff;
        stroke-width: 0px;
      }
    </style>
  </defs>
  <g id="_레이어_1-2" data-name="레이어 1">
    <path class="cls-1" d="M54.43,100c-6.94-15.18-13.93-30.35-20.8-45.56-5.05-11.2-9.87-22.5-14.93-33.7C15.44,13.52,9.91,9.11,1.94,7.98c-.56-.08-1.09-.37-1.94-.67.16-1.64.31-3.22.48-5.01,53.68-.36,107.05,2.76,160.58-2.3v6.64c-3.23.44-6.44.9-9.66,1.3-7.96,1-9.91,3.11-7.71,10.68,3.34,11.46,7.3,22.75,11.28,34,2.57,7.25,5.63,14.33,8.55,21.46.49,1.2,1.4,2.23,2.53,3.99,10.97-23.4,24.03-44.9,31.2-69.4-5.14-3.2-10.75-.91-15.91-2.23V2.2h32.07c-.55,1.39-1.02,2.92-1.74,4.33-4.73,9.31-9.68,18.51-14.23,27.91-8.26,17.08-16.21,34.31-24.47,51.39-2.36,4.88-5.37,9.45-8.07,14.17h-33.5c-1.19-2.45-2.48-4.86-3.55-7.36-10.42-24.42-20.85-48.84-31.16-73.32-2.24-5.33-5.88-8.96-11.44-10.22-4.66-1.05-9.46-1.51-15.19-2.38,1.72,4.22,3.1,7.45,4.36,10.72,4.15,10.8,7.96,21.75,12.48,32.39,4.38,10.32,9.72,20.23,14.16,30.52,2.74,6.35,4.58,13.08,6.82,19.64h-53.45Z"/>
  </g>
</svg>