<?xml version="1.0" encoding="UTF-8"?>
<svg id="_레이어_2" data-name="레이어 2" xmlns="http://www.w3.org/2000/svg" viewBox="0 0 165.04 100">
  <defs>
    <style>
      .cls-1 {
        fill: #fff;
        stroke-width: 0px;
      }
    </style>
  </defs>
  <g id="_레이어_1-2" data-name="레이어 1">
    <path class="cls-1" d="M44.39.05c-.39,6.49-.99,12.24-1.04,17.99-.08,9.29,2.85,17.42,9.91,23.89,2.51,2.3,4.45,2.29,6.86.03,5.41-5.08,10.87-10.11,16.45-15.01,1.94-1.7,4.27-2.97,6.32-4.36,12.01,12.73,23.55,24.95,35.09,37.18.48-.25.96-.5,1.44-.75.86-3.07,1.68-6.15,2.58-9.2,4.49-15.34,8.99-30.68,13.49-46.02.87-2.96,2.41-4.02,5.85-3.74,6.64.54,13.35.29,20.03.2,2.95-.04,4.15.99,3.52,3.97-3.25,15.51-6.58,31.01-9.68,46.55-3.25,16.23-6.27,32.51-9.48,49.24-.28-.07-1.45-.11-2.38-.6-5.25-2.76-10.48-5.56-15.65-8.47-8.51-4.8-16.99-9.65-25.44-14.57-2.34-1.36-3.88-.62-5.27,1.33-2.15,3.02-4.32,6.04-6.51,9.03-2.69,3.68-3.88,3.68-6.56-.09-1.29-1.81-2.29-3.83-3.61-5.61-3.11-4.19-5.38-4.11-8.04.28-1.23,2.03-2.48,4.11-3.23,6.34-1.34,3.97-3.45,3.96-6.21,1.61-5.64-4.8-11.56-9.33-16.79-14.55-13.46-13.44-25.44-28.17-36.04-43.96C6.19,25.11,3.23,18.9.14,12.83c-.42-.82.21-3.09.93-3.43,3.71-1.72,7.5-3.54,11.47-4.38,8.38-1.77,16.89-2.99,25.35-4.37,2.01-.33,4.06-.38,6.5-.6Z"/>
  </g>
</svg>