<?xml version="1.0" encoding="UTF-8"?>
<svg id="_레이어_2" data-name="레이어 2" xmlns="http://www.w3.org/2000/svg" viewBox="0 0 315.27 100">
  <defs>
    <style>
      .cls-1 {
        fill: #fff;
        stroke-width: 0px;
      }
    </style>
  </defs>
  <g id="_레이어_1-2" data-name="레이어 1">
    <path class="cls-1" d="M39.95,100c-2.71-8.29-5.43-16.58-8.34-25.47-2.34,4.06-4.35,7.55-6.55,11.39C16.65,58.73,8.23,31.51,0,4.89c4.64,0,9.75.11,14.85-.03,5.83-.17,5.84-.27,7.18,5.38,1.15,4.84,2.26,9.69,3.64,15.62,1.89-2.31,3.11-4,4.53-5.5,5.29-5.59,10.53-11.22,16.02-16.6,1.9-1.86,3.49-1.12,4.38,1.35,3.88,10.7,7.81,21.37,11.64,32.08,1.32,3.69,2.39,7.46,3.73,11.68,5.09-15,10-29.45,14.72-43.34h25.28c-3.12,5.03-5.8,9.56-8.7,13.95-2.13,3.22-4.46,6.32-6.86,9.34-1.5,1.9-2,3.65-1.04,6.03,3.14,7.82,6.1,15.71,9.49,24.52.99-2.19,1.81-3.48,2.17-4.88,3.55-14.16,7.03-28.34,10.53-42.51.35-1.41.58-2.87,1.09-4.22.76-1.98,2.1-3.14,4.47-3.09,5.12.09,10.24.05,15.36-.1,1.69-.05,2.23.6,2.83,2.1,5.32,13.49,10.76,26.92,16.21,40.36.6,1.49,1.41,2.9,2.52,5.15,6.76-8.47,9.64-18.3,15.39-26.4,5.78-8.12,11.53-16.27,17.72-25,10.16,17.02,19.89,33.59,31.82,49.66,4.84-15.6,9.44-30.45,14.09-45.44,4.59-.29,9.85-.65,15.12-.93,2.99-.16,3.37,2.59,4.14,4.37,5.29,12.14,10.37,24.38,15.54,36.58.15.36.49.64,1.07,1.39.66-1.71,1.2-3.09,1.72-4.48,4.48-11.92,8.95-23.84,13.46-35.75,1.16-3.06,2.96-4.71,6.75-4.75,7.29-.07,14.58-.93,21.87-1.44,2.29-.16,3.18.9,2.01,2.65-6.19,9.25-8.96,19.97-13.1,30.09-8.08,19.7-16.11,39.42-24.16,59.13-.08.19-.2.37-.25.57-1.03,4.09-2.82,7.4-7.71,7.55h-5.02c-.36-1.19-.59-2.44-1.09-3.57-6.48-14.79-12.99-29.57-19.52-44.34-.26-.6-.78-1.08-1.47-2.03-1.13,2.38-2.14,4.29-2.96,6.28-5.42,13.23-10.8,26.47-16.19,39.71-1.33,3.26-2.38,3.45-4.63.58-2.57-3.29-5.08-6.64-7.4-10.1-9.19-13.69-18.29-27.44-27.42-41.17-.34-.51-.57-1.08-.99-1.9-.83,1.1-1.18,1.47-1.42,1.9-6.84,11.83-13.67,23.66-20.5,35.5-1.46,2.53-2.77,5.16-4.4,7.59-1.11,1.66-2.63,3.04-4.12,4.71-2.01-4.51-3.7-8.53-5.56-12.47-5.95-12.54-11.93-25.06-17.98-37.55-.59-1.22-1.75-2.16-2.65-3.24-.82,1.1-2.03,2.09-2.4,3.33-4.63,15.39-9.35,30.76-13.58,46.27-2.44,8.95-2.22,9.12-11.58,9.42-2.12.07-3.3-.59-4.04-2.51-2.91-7.6-5.96-15.14-8.79-22.77-1.98-5.33-3.71-10.76-5.55-16.15-2.34,5.1-4.12,10.09-5.6,15.16-1.46,5.02-1.16,10.51-3.87,15.73-1.97-4.9-3.69-9.2-5.65-14.06-.79,1.25-1.15,1.73-1.42,2.26-3.27,6.42-6.59,12.81-9.76,19.28-1.02,2.07-2.24,3.67-4.6,4.14h-9.41Z"/>
  </g>
</svg>