<?xml version="1.0" encoding="UTF-8"?>
<svg id="_레이어_2" data-name="레이어 2" xmlns="http://www.w3.org/2000/svg" viewBox="0 0 120.42 100">
  <defs>
    <style>
      .cls-1 {
        fill: #fff;
        stroke-width: 0px;
      }
    </style>
  </defs>
  <g id="_레이어_1-2" data-name="레이어 1">
    <g>
      <path class="cls-1" d="M59.54,58.09c.38,3.2-3.4,5.12-2.61,8.45-2.24,1.54-.93,3.86-1.28,6.11,0,.1,0-.1,0-.29-.34.12-.71.19-.98.39-.08.06.13.51.21.79.26-.2.51-.4.77-.89,2.96-3.32,3.95-7.54,6.44-10.87,2.04-2.74,3.67-5.78,5.44-8.6-2.42-4.63-4.57-9.01-4.16-14.19.09-1.1-.37-2.57-1.11-3.37-4.56-4.94-11.11-14.15-13.56-20.23-1.46-3.65-3.19-7.32-3.47-11.59h10.17c6.28,10.62,12.65,21.39,19.02,32.15,1.04-1.85,2.27-3.66,3.13-5.64.71-1.65,1-3.48,1.45-5.23.5-1.95.98-3.9,1.43-5.7,1.39-.16,2.41-.27,4.01-.46-3.73-2.8-.4-5.36-.05-7.88.39-2.83,2.31-5.48,3.77-8.1,1.34-2.41,3.59-2.57,5.76-.58,1.11,1.02,2.15,2.13,2.97,2.95,1.78,9.15-2.67,16.57-5.66,24.38-1.33,3.47-3.87,6.16-5.52,9.39-1.25,2.43-1.99,5-1.53,7.79.1.61.03,1.32.34,1.8,4.85,7.46,9.75,14.89,14.64,22.33,3.03-2.57,3.3-6.44,4.39-9.85,1.16-3.63,1.51-7.46,3.32-10.96,1.08-2.1,1.81-4.62,1.86-6.97.12-6.33,2.1-11.96,5.27-17.31,2.08-3.51,2.67-7.54,3.92-11.34.37-1.14,1.04-2.17,2.5-3-.66,2.57-1.2,5.18-2,7.7-1.27,4-2.95,7.89-4,11.94-.49,1.88-.42,4.26.33,6.02.81,1.9.45,2.89-.5,4.54-2.18,3.78-3.66,7.93-2.79,12.42.44,2.28-1.58,3.89-1.31,5.95.47,3.49-1.13,7.1,1.1,10.59.69,1.08-1.92,3.31-.15,5.18-.58.17-1.16.34-2.03.59-1.06,7.5,1.22,15.48-2.23,23.5-1.17-3.36-2.23-6.26-3.19-9.18-1.19-3.62-2.56-7.2-3.4-10.9-.91-4.05-4.4-6.3-6.14-9.78-1.49-2.98-3.99-5.45-6.45-8.12.36-1.99.86-4.19-2.5-5.18.82,2.04,1.46,3.63,2.5,5.18.41,1.64.41,3.32.41,5-2.91-5.49-5.04-11.13-9.94-15.58-1.9,3.34-3.96,6.53-5.58,9.92-3.81,8-7.29,16.11-12.75,23.27-2.87,3.76-4.5,8.47-6.77,12.7-.48.89-1.3,1.59-2.18,2.64-3.58-2.24-5.38-5.85-6.64-9.24-.84-2.26-1.85-4.43-2.84-6.61-4.98-10.9-10.29-21.66-14.92-32.7-2.42-5.77-5.36-11.18-8.24-16.69-2.22-4.24-4.57-8.45-6.67-12.77-2.09-4.32-4.26-8.61-6.49-12.86C3.48,6.09,1.76,3.16,0,0h12.14c4.66,5.58,6.34,13.19,11.1,19,4.22,5.14,5.83,11.38,7.81,17.51.55,1.69,1.66,3.2,2.55,4.77,4.65,8.25,7.2,17.33,10.32,26.18,1.21,3.42,3.57,5.96,5.55,10.12.88-3.08,1.7-4.93,1.85-6.82.12-1.58-1.89-3.14-.09-5,.28.83.54,1.58,1.04,3.06,2.21-4.1,3.64-8.24,7.27-10.72ZM85.94,55.31c.27-.15.55-.31.84-.46-.14-.14-.32-.43-.43-.41-.31.07-.58.26-.87.41.14.14.29.29.46.46Z"/>
      <path class="cls-1" d="M88.62,69.24c1.83,2.84,3.36,5.22,4.9,7.6q-5.22-3.43-4.9-7.6Z"/>
      <path class="cls-1" d="M110.33,86.4v-3.44c.23-.02.45-.04.68-.06.16,1.15.32,2.29.48,3.44-.39.02-.77.04-1.16.06Z"/>
      <path class="cls-1" d="M60.84,55.5c.2-.98-.64-2.48,1.3-2.59-.2.98.64,2.48-1.3,2.59Z"/>
      <path class="cls-1" d="M60.84,55.5c-.2.98.64,2.48-1.3,2.59.2-.98-.64-2.48,1.3-2.59Z"/>
      <path class="cls-1" d="M111.09,78.84v2.59h-.65v-2.59h.65Z"/>
      <path class="cls-1" d="M62.89,51.71c.15.15.43.36.4.41-.15.28-.38.52-.58.78-.19-.19-.39-.39-.58-.58.25-.2.5-.41.75-.61Z"/>
    </g>
  </g>
</svg>